<?xml version="1.0" standalone="no"?>
<!DOCTYPE svg PUBLIC "-//W3C//DTD SVG 1.1//EN" "http://www.w3.org/Graphics/SVG/1.1/DTD/svg11.dtd" >
<svg xmlns="http://www.w3.org/2000/svg">
<metadata>Generated by IcoMoon</metadata>
<defs>
<font id="icomoon" horiz-adv-x="1024">
<font-face units-per-em="1024" ascent="960" descent="-64" />
<missing-glyph horiz-adv-x="1024" />
<glyph unicode="&#x20;" horiz-adv-x="512" d="" />
<glyph unicode="&#xe900;" glyph-name="nav_profile_on" d="M736.004 195.595c-93.585 40.314-84.124 98.179-84.124 98.179 68.628 63.281 104.486 176.131 104.486 302.009 0 196.563-70.824 355.829-247.71 355.829-192.518 0-247.709-159.266-247.709-355.829 0-125.877 45.73-235.849 114.427-299.131-3.565-36.267 6.308-60.675-87.347-101.058-93.585-40.314-234.408-83.233-263.27-148.159-28.933-64.859-17.347-103.048-17.347-103.048h1009.142s11.656 38.189-17.209 103.048c-28.864 64.927-169.755 107.846-263.34 148.16z" />
<glyph unicode="&#xe901;" glyph-name="nav_reservation_on" d="M980.559 606.148h-98.835c-53.378 140.931-72.641 174.611-82.5 187.544-27.349 36.011-191.482 40.363-287.079 39.682-95.432 0.845-259.834-3.651-287.306-39.663-9.859-12.953-29.123-46.633-82.521-187.564h-98.835c-21.354-0.62-38.428-18.079-38.428-39.526 0-0.802 0.024-1.599 0.071-2.389l-0.005 0.109v-25.266c-0.004-0.319-0.006-0.695-0.006-1.072 0-42.322 27.614-78.194 65.807-90.581l0.674-0.189c-12.552-30.282-19.841-65.45-19.841-102.32 0-2.024 0.022-4.042 0.066-6.055l-0.005 0.3v-221.471c0-55.151 51.728-55.151 79.901-55.151h71.899c24.832 0 76.519 0 76.519 55.151v47.808h463.732v-47.809c0-55.151 51.728-55.151 80.149-55.151h71.651c24.832 0 76.519 0 76.519 55.151v220.935c0.045 1.857 0.071 4.044 0.071 6.236 0 36.895-7.285 72.089-20.494 104.221l0.665-1.826c38.929 13.008 66.491 49.131 66.491 91.691 0 0.939-0.013 1.874-0.040 2.807l0.003-0.137v25.203c0.002 0.135 0.003 0.295 0.003 0.455 0 21.277-17.091 38.563-38.294 38.876h-0.030zM371.194 382.677c-1.007-20.549-17.913-36.828-38.621-36.828-0.562 0-1.121 0.012-1.677 0.036l0.079-0.003h-123.709c-0.477-0.021-1.036-0.033-1.599-0.033-20.708 0-37.613 16.279-38.617 36.738l-0.004 0.090v49.644c1.016 20.54 17.916 36.808 38.617 36.808 0.563 0 1.124-0.012 1.682-0.036l-0.080 0.003h123.709c0.478 0.021 1.038 0.033 1.601 0.033 20.7 0 37.601-16.268 38.614-36.717l0.004-0.091zM228.795 570.114c-2.631 10.611 28.896 99.905 55.57 146.589 5.324 9.325 103.067 14.634 206.371 14.634 7.079 0 14.156 0 21.235-0.054 7.077 0.054 14.154 0.054 21.234 0.054 103.303 0 201.106-5.309 206.43-14.634 26.674-46.684 58.201-135.978 55.57-146.589 0.059-0.485-141.322-0.699-282.826-0.699-141.791 0-283.701 0.214-283.584 0.699zM856.974 382.677c-1-20.548-17.903-36.829-38.608-36.829-0.566 0-1.13 0.012-1.691 0.036l0.080-0.003h-123.667c-0.491-0.022-1.067-0.035-1.646-0.035-20.716 0-37.63 16.277-38.652 36.739l-0.004 0.091v49.644c1.034 20.544 17.944 36.81 38.652 36.81 0.58 0 1.157-0.013 1.731-0.038l-0.082 0.003h123.667c0.482 0.021 1.046 0.034 1.614 0.034 20.698 0 37.596-16.27 38.601-36.719l0.004-0.090z" />
<glyph unicode="&#xe902;" glyph-name="nav_settings_on" d="M999.471 540.711h-84.289c-11.211 48.004-29.343 90.339-53.573 128.414l0.991-1.665 59.697 59.698c3.482 3.509 5.634 8.343 5.634 13.679s-2.152 10.17-5.636 13.68l-103.819 103.82c-3.502 3.516-8.347 5.691-13.7 5.691-0.003 0-0.006 0-0.010 0h0.001c-0.010 0-0.023 0-0.035 0-5.326 0-10.145-2.177-13.613-5.689l-59.699-59.7c-36.394 23.174-78.694 41.298-123.86 52.018l-2.811 0.563v84.211c0 0.009 0 0.020 0 0.032 0 10.708-8.668 19.392-19.37 19.418h-146.837c-10.704-0.027-19.37-8.71-19.37-19.418 0-0.011 0-0.023 0-0.034v0.002-84.21c-47.977-11.283-90.277-29.407-128.357-53.582l1.686 1-59.7 59.617c-3.478 3.517-8.305 5.695-13.64 5.695s-10.161-2.178-13.638-5.694l-103.821-103.82c-3.515-3.48-5.691-8.305-5.691-13.64s2.176-10.16 5.69-13.638l0.002-0.002 59.62-59.698c-23.276-36.405-41.412-78.745-52.035-123.981l-0.548-2.768h-84.209c-0.021 0-0.045 0-0.070 0-10.661 0-19.304-8.643-19.304-19.304 0-0.025 0-0.049 0-0.074v0.004-146.755c0-0.002 0-0.004 0-0.006 0-10.653 8.636-19.288 19.288-19.288 0.030 0 0.060 0 0.091 0h84.124c11.2-48.037 29.362-90.402 53.648-128.482l-0.986 1.653-59.697-59.62c-3.482-3.509-5.633-8.343-5.633-13.679s2.152-10.169 5.635-13.68l103.816-103.818c3.509-3.482 8.343-5.634 13.679-5.634s10.17 2.152 13.681 5.635l59.619 59.619c36.412-23.227 78.746-41.358 123.96-52.029l2.79-0.555v-84.288c0.052-10.661 8.703-19.284 19.369-19.292h146.835c10.668 0.007 19.32 8.63 19.372 19.287v84.292c48.005 11.226 90.34 29.356 128.422 53.576l-1.67-0.992 59.616-59.62c3.481-3.481 8.29-5.634 13.602-5.634 0.017 0 0.033 0 0.050 0h-0.003c0.006 0 0.014 0 0.022 0 5.339 0 10.175 2.152 13.688 5.635l103.819 103.818c3.482 3.509 5.634 8.343 5.634 13.679s-2.152 10.17-5.636 13.68l0.001-0.001-59.698 59.62c23.263 36.432 41.42 78.792 52.104 124.038l0.556 2.79h84.211c0.010 0 0.022 0 0.034 0 10.664 0 19.312 8.633 19.337 19.291v146.757c0 0.006 0 0.013 0 0.020 0 10.689-8.665 19.354-19.354 19.354-0.006 0-0.012 0-0.018 0h0.001zM767.398 387.948c-22.892-97.34-98.122-172.571-193.696-195.114l-1.765-0.351c-18.011-4.202-38.699-6.624-59.949-6.652h-0.020c-0.042 0-0.092 0-0.141 0-144.822 0-262.223 117.401-262.223 262.223 0 123.595 85.508 227.218 200.593 254.94l1.789 0.364c18.016 4.202 38.711 6.626 59.967 6.656h0.021c144.876-0.074 262.292-117.536 262.292-262.422 0-21.155-2.503-41.725-7.23-61.431l0.362 1.788z" />
<glyph unicode="&#xe903;" glyph-name="nav_support_on" d="M85.181 954.88v-754.729c122.129-92.162 260.129-178.266 405.552-251.826l15.708-7.205c167.067 84.613 308.593 170.66 442.933 266.156l-10.556-7.125v754.729h-853.638zM536.314 240.595h-66.606v67.251h66.606zM642.040 594.953c0.002-0.297 0.004-0.647 0.004-0.998 0-28.066-8.516-54.144-23.105-75.789l0.307 0.483c-18.164-26.579-38.014-49.765-60.093-70.615l-0.205-0.192c-9.394-8.351-16.659-18.893-21.011-30.835l-0.168-0.528c-2.428-11.178-3.819-24.018-3.819-37.183 0-2.16 0.037-4.312 0.112-6.454l-0.009 0.311h-63.695c-0.153 2.845-0.24 6.175-0.24 9.525 0 19.792 3.043 38.873 8.686 56.801l-0.363-1.338c10.718 18.818 24.325 34.694 40.415 47.602l0.322 0.25c15.163 17.321 30.125 36.285 44.106 55.994l1.482 2.201c8.539 13.184 13.616 29.302 13.616 46.605 0 0.893-0.014 1.784-0.040 2.67l0.003-0.13c0.099 1.413 0.156 3.062 0.156 4.724 0 18.481-6.994 35.328-18.479 48.040l0.055-0.062c-12.478 11.519-29.218 18.583-47.609 18.583-1.621 0-3.229-0.055-4.822-0.163l0.216 0.012c-0.668 0.020-1.454 0.032-2.242 0.032-18.063 0-34.719-6.027-48.066-16.179l0.195 0.143c-12.735-10.317-20.808-25.955-20.808-43.479 0-1.255 0.041-2.5 0.123-3.734l-0.009 0.168h-60.782l-0.97 1.941c-0.101 1.689-0.159 3.664-0.159 5.652 0 31.269 14.285 59.202 36.685 77.628l0.174 0.139c24.487 19.611 55.919 31.473 90.122 31.473 2.018 0 4.027-0.041 6.025-0.123l-0.286 0.009c2.612 0.173 5.663 0.272 8.737 0.272 34.433 0 65.974-12.383 90.412-32.939l-0.214 0.175c21.87-21.313 35.436-51.057 35.436-83.97 0-2.364-0.070-4.712-0.208-7.042l0.015 0.321z" />
<glyph unicode="&#xe904;" glyph-name="A_accordian_collapsed" d="M5.12 549.376h1013.76v-202.752h-1013.76z" />
<glyph unicode="&#xe905;" glyph-name="a_nav_home" d="M804.987 954.88h213.893l-220.206-1013.76h-215.47l78.631 357.478h-364.904l-83.219-357.478h-208.592l208.592 1013.76h212.198l-102.243-462.55h380.625z" />
<glyph unicode="&#xe906;" glyph-name="B_accordian_close" d="M1018.855 809.029l-360.993-361.014 360.993-360.994-145.851-145.901-361.004 361.025-361.004-361.025-145.851 145.901 360.993 360.994-360.993 361.014 145.851 145.851 361.004-361.003 361.004 361.003z" />
<glyph unicode="&#xe907;" glyph-name="b_nav_profile" d="M508.657 899.92c170.553 0 196.019-190.552 196.019-304.137 0-114.599-32.836-213.292-87.836-264.008l-13.098-12.077-2.875-17.584c-5.934-36.291 11.544-109.562 114.686-153.994 18.999-8.184 39.186-16.197 60.559-24.681 60.346-23.955 161.346-64.048 176.005-97.021 3.941-8.433 7.636-18.517 10.501-28.946l0.326-1.393h-901.827c3.214 11.833 6.924 21.923 11.387 31.594l-0.512-1.237c14.656 32.968 115.653 73.068 175.997 97.027 21.348 8.475 41.511 16.481 60.508 24.664 94.616 40.798 114.338 78.512 117.632 133.835 0.184 3.112 0.364 6.313 0.69 9.633l2.519 25.629-18.941 17.448c-61.212 56.387-97.758 153.998-97.758 261.111 0 272.609 111.87 304.137 196.018 304.137zM508.657 951.61c-192.518 0-247.709-159.266-247.709-355.829 0-125.877 45.73-235.849 114.427-299.131-3.565-36.267 6.308-60.675-87.347-101.058-93.585-40.314-234.408-83.233-263.27-148.159-28.933-64.859-17.347-103.048-17.347-103.048h1009.141s11.656 38.189-17.209 103.048c-28.864 64.926-169.755 107.845-263.34 148.159s-84.124 98.179-84.124 98.179c68.628 63.281 104.486 176.131 104.486 302.009 0 196.565-70.824 355.831-247.71 355.831z" />
<glyph unicode="&#xe908;" glyph-name="C_arrow_down" d="M955.472 734.293l63.403-63.17-507.050-509.415-506.7 509.036 63.403 63.17 443.298-445.341z" />
<glyph unicode="&#xe909;" glyph-name="c_nav_reservation" d="M980.559 606.149h-98.835c-53.378 140.931-72.641 174.61-82.5 187.543-27.349 36.011-191.482 40.363-287.080 39.682-95.432 0.846-259.834-3.651-287.306-39.662-9.859-12.953-29.123-46.633-82.521-187.564h-98.834c-21.354-0.621-38.428-18.080-38.428-39.527 0-0.802 0.024-1.599 0.071-2.389l-0.005 0.109v-25.266c-0.004-0.319-0.006-0.696-0.006-1.073 0-42.321 27.614-78.193 65.807-90.581l0.674-0.189c-12.552-30.281-19.841-65.449-19.841-102.318 0-2.024 0.022-4.043 0.066-6.057l-0.005 0.3v-221.471c0-55.151 51.728-55.151 79.901-55.151h71.899c24.832 0 76.519 0 76.519 55.151v47.808h463.732v-47.809c0-55.151 51.728-55.151 80.149-55.151h71.651c24.832 0 76.519 0 76.519 55.151v220.935c0.045 1.857 0.071 4.043 0.071 6.236 0 36.895-7.285 72.089-20.494 104.222l0.665-1.826c38.929 13.008 66.491 49.131 66.491 91.691 0 0.938-0.013 1.873-0.040 2.805l0.003-0.137v25.204c0.002 0.135 0.003 0.295 0.003 0.455 0 21.277-17.091 38.563-38.294 38.877h-0.030zM976.64 539.077c0.021-0.543 0.032-1.182 0.032-1.822 0-27.687-21.86-50.269-49.262-51.428l-0.105-0.004h-41.209l16.335-30.979c17.363-32.009 27.57-70.083 27.57-110.54 0-1.809-0.020-3.614-0.061-5.413l0.005 0.268v-221.471c0-9.405 0-12.911-37.827-12.911h-71.651c-34.361 0-34.361 3.506-34.361 12.911v90.048h-548.212v-90.049c0-9.405 0-12.911-37.888-12.911h-71.61c-34.341 0-34.341 3.506-34.341 12.911v222.008c-0.030 1.404-0.047 3.058-0.047 4.717 0 40.423 10.212 78.46 28.197 111.673l-0.615-1.241 16.335 30.979h-41.168c-27.658 1.478-49.524 24.265-49.524 52.159 0 1.278 0.046 2.545 0.136 3.8l-0.010-0.168v22.296h124.184l5.136 13.695c51.067 135.774 72.662 178.551 80.953 189.626 12.354 10.251 102.547 25.080 254.512 23.904 153.058 0.99 241.91-13.654 253.46-23.017 9.116-11.963 30.69-54.739 81.758-190.513l5.115-13.695h124.163zM330.974 469.096h-123.709c-0.478 0.021-1.039 0.033-1.602 0.033-20.7 0-37.6-16.268-38.613-36.717l-0.004-0.091v-49.644c1.007-20.549 17.913-36.828 38.621-36.828 0.562 0 1.121 0.012 1.678 0.036l-0.079-0.003h123.709c0.477-0.021 1.036-0.033 1.598-0.033 20.708 0 37.613 16.279 38.617 36.738l0.004 0.090v49.644c-1.017 20.539-17.917 36.807-38.617 36.807-0.563 0-1.124-0.012-1.682-0.036l0.080 0.003zM328.953 388.123l-119.666 0.082v38.651l119.666-0.061zM816.755 469.096h-123.668c-0.492 0.022-1.069 0.035-1.649 0.035-20.708 0-37.617-16.265-38.648-36.717l-0.004-0.092v-49.644c1.025-20.553 17.94-36.83 38.655-36.83 0.579 0 1.155 0.013 1.727 0.038l-0.082-0.003h123.667c0.481-0.021 1.044-0.034 1.611-0.034 20.705 0 37.608 16.281 38.605 36.739l0.003 0.089v49.644c-1.010 20.538-17.907 36.807-38.604 36.807-0.568 0-1.133-0.012-1.694-0.036l0.080 0.003zM814.734 388.123l-119.707 0.082v38.651l119.707-0.061zM739.635 716.704c-5.325 9.325-103.128 14.633-206.43 14.633-7.080 0-14.156 0-21.233-0.054-7.080 0.054-14.156 0.054-21.236 0.054-103.303 0-201.047-5.308-206.371-14.633-26.673-46.685-58.201-135.978-55.569-146.59-0.119-0.485 141.792-0.699 283.583-0.699 141.503 0 282.885 0.214 282.826 0.699 2.632 10.612-28.895 99.905-55.569 146.59zM512.379 609.614c-95.463 0-177.357 0.054-227.84 0.216 10.61 29.972 21.112 54.442 32.933 78.14l-1.812-4.014c45.446 4.685 98.197 7.357 151.572 7.357 8.265 0 16.514-0.064 24.749-0.192l-1.246 0.015 21.586-0.052 20.883 0.052c6.989 0.112 15.236 0.176 23.498 0.176 53.398 0 106.172-2.672 158.195-7.889l-6.559 0.532c9.9-19.547 20.4-44.015 29.535-69.138l1.585-4.988c-50.364-0.162-131.965-0.217-227.079-0.217z" />
<glyph unicode="&#xe90a;" glyph-name="D_check" d="M931.505 864.6l87.375-72.188-628.719-761.011-385.041 385.071 80.181 80.118 296.866-296.895z" />
<glyph unicode="&#xe90b;" glyph-name="d_nav_settings" d="M553.058 903.188v-93.082l40.059-9.252c41.991-9.87 79.014-25.735 112.34-46.899l-1.473 0.874 34.884-21.847 65.929 65.93 58.076-58.077-65.957-65.958 21.9-34.896c20.331-31.827 36.187-68.837 45.495-108.372l0.482-2.429 9.19-40.161h93.167v-82.039h-93.039l-9.227-40.1c-9.827-42.012-25.707-79.059-46.922-112.378l0.867 1.457-21.944-34.927 65.972-65.886-58.059-58.059-65.85 65.854-34.885-21.849c-31.841-20.324-68.862-36.186-108.405-45.518l-2.438-0.485-40.163-9.189v-93.088h-82.194v93.088l-40.163 9.189c-41.981 9.817-79.001 25.679-112.299 46.87l1.458-0.867-34.884 21.85-65.855-65.854-58.058 58.059 65.974 65.888-21.946 34.927c-20.372 31.833-36.249 68.857-45.557 108.415l-0.481 2.423-9.177 40.182h-93.028v82.038h93.091l9.189 40.161c9.746 41.939 25.591 78.931 46.795 112.174l-0.858-1.439 21.971 34.894-65.887 65.972 58.027 58.027 65.904-65.811 34.859 21.832c31.852 20.291 68.875 36.155 108.408 45.533l2.458 0.492 40.059 9.252v93.083h82.194zM585.377 954.88h-146.834c-10.704-0.027-19.37-8.711-19.37-19.418 0-0.011 0-0.023 0-0.034v0.002-84.209c-47.977-11.284-90.277-29.408-128.357-53.582l1.686 1-59.699 59.617c-3.479 3.517-8.305 5.694-13.64 5.694s-10.161-2.178-13.638-5.693l-103.822-103.82c-3.515-3.48-5.692-8.306-5.692-13.64s2.177-10.161 5.69-13.639l0.002-0.002 59.62-59.697c-23.276-36.404-41.412-78.745-52.034-123.98l-0.548-2.768h-84.209c-0.021 0-0.045 0-0.070 0-10.662 0-19.304-8.643-19.304-19.304 0-0.025 0-0.049 0-0.074v0.004-146.756c0-0.002 0-0.003 0-0.005 0-10.652 8.635-19.287 19.287-19.287 0.031 0 0.061 0 0.092 0h84.124c11.2-48.037 29.362-90.402 53.648-128.482l-0.986 1.653-59.697-59.62c-3.482-3.509-5.633-8.343-5.633-13.679s2.152-10.17 5.635-13.68l103.816-103.817c3.509-3.482 8.343-5.634 13.679-5.634s10.17 2.152 13.681 5.635l59.619 59.619c36.412-23.227 78.745-41.358 123.96-52.029l2.79-0.555v-84.287c0.053-10.661 8.703-19.284 19.369-19.292h146.835c10.668 0.007 19.32 8.631 19.372 19.287v84.292c48.006 11.226 90.34 29.357 128.423 53.577l-1.67-0.993 59.616-59.62c3.481-3.481 8.289-5.634 13.601-5.634 0.017 0 0.035 0 0.052 0h-0.003c0.007 0 0.015 0 0.023 0 5.338 0 10.174 2.152 13.687 5.635l103.819 103.817c3.482 3.509 5.634 8.343 5.634 13.679s-2.152 10.17-5.636 13.68l0.001-0.001-59.698 59.62c23.263 36.432 41.421 78.792 52.105 124.039l0.556 2.79h84.211c0.010 0 0.023 0 0.035 0 10.664 0 19.311 8.632 19.336 19.29v146.759c0 0.006 0 0.013 0 0.020 0 10.689-8.665 19.354-19.354 19.354-0.006 0-0.012 0-0.019 0h-84.288c-11.211 48.004-29.343 90.339-53.573 128.414l0.991-1.665 59.698 59.697c3.482 3.509 5.634 8.343 5.634 13.679s-2.152 10.17-5.636 13.68l-103.819 103.819c-3.502 3.516-8.347 5.692-13.701 5.692-0.003 0-0.005 0-0.008 0v0c-0.010 0-0.022 0-0.033 0-5.327 0-10.146-2.177-13.615-5.69l-59.7-59.7c-36.394 23.174-78.694 41.297-123.859 52.019l-2.812 0.563v84.209c0 0.010 0 0.021 0 0.032 0 10.708-8.668 19.392-19.37 19.419h-0.003zM511.996 710.011v-51.692h0.004c0.030 0 0.066 0 0.101 0 116.275 0 210.534-94.259 210.534-210.534 0-99.014-68.351-182.064-160.444-204.539l-1.442-0.297c-14.647-3.417-31.476-5.393-48.76-5.427h-0.024c-0.041 0-0.090 0-0.139 0-116.275 0-210.534 94.259-210.534 210.534 0 99.011 68.347 182.059 160.436 204.537l1.441 0.297c14.654 3.418 31.49 5.394 48.782 5.43h0.024l0.017 51.692zM511.972 710.012c-21.277-0.031-41.972-2.454-61.851-7.016l1.863 0.36c-116.874-28.086-202.381-131.709-202.381-255.304 0-144.822 117.401-262.223 262.223-262.223 0.049 0 0.099 0 0.148 0h-0.008c21.269 0.028 41.958 2.451 61.83 7.012l-1.862-0.36c116.875 28.085 202.383 131.71 202.383 255.305 0 144.823-117.402 262.224-262.224 262.224-0.043 0-0.086 0-0.129 0h0.007z" />
<glyph unicode="&#xe90c;" glyph-name="E_hamburger" d="M5.12 222.72h1013.76v-112.64h-1013.76zM5.12 673.28h1013.76v112.641h-1013.76zM1018.88 504.32h-1013.76v-112.64h1013.76z" />
<glyph unicode="&#xe90d;" glyph-name="e_nav_support" d="M887.127 903.188v-676.159c-107.861-75.713-232.373-151.438-361.739-219.152l-18.893-9.006c-142.092 73.25-263.059 148.662-377.375 232.6l7.751-5.43v677.147h750.256zM938.819 954.88h-853.638v-754.729c122.13-92.162 260.129-178.266 405.551-251.826l15.709-7.205c167.069 84.614 308.595 170.662 442.936 266.158l-10.558-7.127v754.729zM536.315 240.595h-66.606v67.251h66.606zM642.040 594.953c0.002-0.297 0.004-0.647 0.004-0.998 0-28.066-8.516-54.144-23.105-75.789l0.307 0.483c-18.164-26.579-38.014-49.765-60.093-70.615l-0.205-0.192c-9.394-8.351-16.659-18.893-21.011-30.835l-0.168-0.528c-2.428-11.178-3.819-24.018-3.819-37.183 0-2.16 0.037-4.312 0.112-6.454l-0.009 0.311h-63.695c-0.153 2.845-0.24 6.175-0.24 9.525 0 19.792 3.043 38.873 8.686 56.801l-0.363-1.338c10.718 18.818 24.325 34.694 40.415 47.602l0.322 0.25c15.163 17.321 30.125 36.285 44.106 55.994l1.482 2.201c8.539 13.184 13.616 29.302 13.616 46.605 0 0.893-0.014 1.784-0.040 2.67l0.003-0.13c0.099 1.413 0.156 3.062 0.156 4.724 0 18.481-6.994 35.328-18.479 48.040l0.055-0.062c-12.478 11.519-29.218 18.583-47.609 18.583-1.621 0-3.229-0.055-4.822-0.163l0.216 0.012c-0.668 0.020-1.454 0.032-2.242 0.032-18.063 0-34.719-6.027-48.066-16.179l0.195 0.143c-12.735-10.317-20.808-25.955-20.808-43.479 0-1.255 0.041-2.5 0.123-3.734l-0.009 0.168h-60.782l-0.97 1.941c-0.101 1.689-0.159 3.664-0.159 5.652 0 31.269 14.285 59.202 36.685 77.628l0.174 0.139c24.487 19.611 55.919 31.473 90.122 31.473 2.018 0 4.027-0.041 6.025-0.123l-0.286 0.009c2.612 0.173 5.663 0.272 8.737 0.272 34.433 0 65.974-12.383 90.412-32.939l-0.214 0.175c21.87-21.313 35.436-51.057 35.436-83.97 0-2.364-0.070-4.712-0.208-7.042l0.015 0.321z" />
<glyph unicode="&#xe90e;" glyph-name="f_mapview" d="M998.841 759.414l-316.545 128.246c-0.175 0.072-0.361 0.079-0.538 0.146-1.17 0.427-2.605 0.827-4.077 1.124l-0.201 0.034c-0.87 0.266-1.993 0.532-3.136 0.738l-0.196 0.029c-1.172 0.198-2.522 0.311-3.899 0.311-2.534 0-4.979-0.384-7.279-1.097l0.174 0.046c-1.724-0.339-3.208-0.756-4.643-1.274l0.218 0.069c-0.153-0.060-0.317-0.064-0.47-0.128l-304.463-123.376-304.582 123.375c-3.557 1.48-7.689 2.339-12.022 2.339-17.703 0-32.055-14.347-32.063-32.049v-691.675c0-0.013 0-0.028 0-0.043 0-13.36 8.191-24.807 19.826-29.593l0.213-0.078 316.609-128.247c0.606-0.246 1.241-0.344 1.856-0.55 0.651-0.22 1.289-0.401 1.951-0.579 2.458-0.773 5.284-1.219 8.215-1.219s5.757 0.446 8.416 1.272l-0.201-0.054c0.663 0.178 1.3 0.359 1.951 0.579 0.614 0.206 1.249 0.305 1.856 0.55l304.461 123.375 304.521-123.375c3.557-1.479 7.688-2.338 12.020-2.338 17.705 0 32.058 14.349 32.065 32.052v691.673c0 0.006 0 0.013 0 0.020 0 13.367-8.19 24.82-19.826 29.616l-0.213 0.078zM321.729 85.62l-252.486 102.258v622.478l252.486-102.259zM638.211 187.877l-252.36-102.257v622.476l252.36 102.259zM954.756 85.62l-252.421 102.257v622.479l252.422-102.259z" />
<glyph unicode="&#xe90f;" glyph-name="F_search" d="M742.296 287.104c54.894 69.503 88.052 158.382 88.052 255.006 0 113.945-46.112 217.12-120.694 291.882l0.008-0.008v0.030c-74.686 74.654-177.847 120.826-291.792 120.826-227.92 0-412.692-184.737-412.75-412.643v-0.006c0.104-227.902 184.844-412.62 412.743-412.69h0.007c0.354-0.001 0.772-0.002 1.19-0.002 96.291 0 184.818 33.242 254.731 88.876l-0.835-0.642 262.211-262.243c8.873-8.873 21.131-14.361 34.671-14.361 27.079 0 49.032 21.952 49.032 49.032 0 13.54-5.488 25.798-14.361 34.671v0zM640.441 319.888c-0.239-0.329-0.239-0.179-0.239-0.269-61.626-69.043-150.877-112.305-250.234-112.305-184.978 0-334.933 149.955-334.933 334.933s149.955 334.933 334.933 334.933c184.978 0 334.933-149.955 334.933-334.933 0-85.496-32.034-163.51-84.753-222.694l0.293 0.335z" />
<glyph unicode="&#xe910;" glyph-name="G_chat" d="M862.74 954.88h-701.453c-1.185 0.049-2.576 0.077-3.974 0.077-55.376 0-100.564-43.62-103.078-98.375l-0.008-0.226v-549.919c2.523-54.981 47.711-98.601 103.087-98.601 1.397 0 2.788 0.028 4.172 0.083l-0.199-0.006h194.376l341.064-266.791v266.791h166.013c1.179-0.048 2.562-0.076 3.952-0.076 55.374 0 100.561 43.621 103.071 98.375l0.008 0.226v549.919c-2.518 54.98-47.704 98.601-103.079 98.601-1.39 0-2.774-0.027-4.151-0.082l0.198 0.006zM883.245 306.436c0-4.787-8.167-11.999-20.504-11.999h-252.54v-175.758l-224.738 175.758h-224.176c-12.336 0-20.532 7.211-20.532 11.999v549.919c0 4.789 8.196 11.999 20.532 11.999h701.453c12.336 0 20.504-7.21 20.504-11.999z" />
<glyph unicode="&#xe911;" glyph-name="g_listview" d="M241.664 481.792h67.584v-67.584h-67.584zM241.664 616.96h67.584v67.584h-67.584zM241.664 211.456h67.584v67.584h-67.584zM376.832 414.208h405.504v67.584h-405.504zM376.832 211.456h405.504v67.584h-405.504zM106.496 954.88h811.008v-1013.76h-811.008zM174.080 8.704h675.839v878.592h-675.839zM376.832 616.96h405.504v67.584h-405.504z" />
<glyph unicode="&#xe912;" glyph-name="H_arrow_down_small" d="M936.941 742.41l81.939-81.94-506.88-506.88-506.88 506.88 81.939 81.94 424.941-424.941z" />
<glyph unicode="&#xe913;" glyph-name="h_info_modal" d="M503.18 649.499c-7.339 7.089-11.896 17.018-11.896 28.011 0 0.187 0.001 0.373 0.004 0.559v-0.028c-0.004 0.204-0.006 0.445-0.006 0.687 0 10.845 4.48 20.644 11.691 27.647l0.009 0.009c7.098 7.225 16.972 11.703 27.892 11.703 0.298 0 0.595-0.003 0.891-0.010l-0.044 0.001c0.033 0 0.072 0 0.111 0 22.051 0 39.928-17.876 39.928-39.928 0-0.039 0-0.078 0-0.117v0.006c0.002-0.165 0.004-0.36 0.004-0.554 0-10.949-4.474-20.853-11.694-27.983l-0.004-0.004c-6.989-7.336-16.833-11.897-27.742-11.897-0.212 0-0.423 0.002-0.634 0.005h0.032c-0.157-0.002-0.342-0.004-0.528-0.004-10.994 0-20.923 4.558-28.002 11.887l-0.011 0.011zM569.579 191.055c-3.316 11.062-5.224 23.773-5.224 36.929 0 2.976 0.098 5.93 0.29 8.858l-0.021-0.398v291.756h-17.442l-109.409-44.398 5.55-14.271c7.934 3.375 17.138 5.521 26.79 5.94l0.165 0.006c0.422 0.026 0.915 0.041 1.412 0.041 5.604 0 10.769-1.878 14.901-5.039l-0.059 0.043c4.589-4.632 7.734-10.702 8.701-17.474l0.019-0.166c2.422-18.388 3.805-39.651 3.805-61.238 0-5.369-0.086-10.718-0.255-16.046l0.020 0.777v-139.932c0.163-2.419 0.256-5.244 0.256-8.090 0-13.38-2.050-26.281-5.852-38.406l0.245 0.908c-2.943-7.204-7.965-13.057-14.315-16.957l-0.153-0.088c-8.71-3.416-18.796-5.396-29.344-5.396-2.229 0-4.438 0.088-6.622 0.262l0.288-0.018v-14.271h176.401v14.271c-1.789-0.146-3.874-0.229-5.977-0.229-10.636 0-20.776 2.123-30.019 5.968l0.518-0.191c-6.583 3.879-11.677 9.677-14.582 16.62l-0.085 0.229zM1018.88 448c0-279.942-226.938-506.88-506.88-506.88s-506.88 226.938-506.88 506.88c0 279.942 226.938 506.88 506.88 506.88v0c279.81-0.33 506.551-227.071 506.88-506.849v-0.031zM942.77 448c0 237.908-192.862 430.77-430.77 430.77s-430.77-192.862-430.77-430.77c0-237.908 192.862-430.77 430.77-430.77v0c237.795 0.281 430.489 192.975 430.77 430.743v0.027z" />
<glyph unicode="&#xe914;" glyph-name="I_caret_calendar_up" d="M512 782.876l506.885-669.751h-1013.77z" />
<glyph unicode="&#xe915;" glyph-name="i_info_expand" d="M473.725 238.854h64.734v-76.501h-64.734zM1018.88 448c0-279.942-226.938-506.88-506.88-506.88s-506.88 226.938-506.88 506.88c0 279.942 226.938 506.88 506.88 506.88v0c279.81-0.33 506.551-227.071 506.88-506.849v-0.031zM942.77 448c0 237.908-192.862 430.77-430.77 430.77s-430.77-192.862-430.77-430.77c0-237.908 192.862-430.77 430.77-430.77v0c237.795 0.281 430.489 192.975 430.77 430.743v0.027zM636.077 643.519c-26.934 19.598-60.673 31.353-97.157 31.353-2.841 0-5.665-0.071-8.471-0.212l0.394 0.016c-20.469-0.178-40.262-2.692-59.242-7.288l1.778 0.364c-18.917-4.066-35.572-9.791-51.264-17.218l1.416 0.603v-57.464c12.478 6.408 27.172 12.295 42.447 16.834l1.863 0.475c16.67 5.25 35.842 8.285 55.72 8.307h0.012c1.524 0.077 3.31 0.122 5.106 0.122 21.357 0 41.257-6.239 57.977-16.994l-0.425 0.256c14.635-10.66 24.039-27.738 24.039-47.013 0-1.485-0.056-2.957-0.165-4.414l0.012 0.194c-0.154-13.607-3.727-26.346-9.898-37.441l0.205 0.402c-15.56-24.89-33.913-46.216-55.026-64.429l-0.36-0.304c-11.424-11.077-21.809-21.809-31.501-31.847-19.249-19.345-31.725-45.445-33.562-74.434l-0.017-0.337v-49.154h51.579v34.27c-0.346 34.615 27.001 64.385 56.771 90.694 41.195 37.386 87.927 76.156 87.927 135.004 0.117 1.864 0.183 4.043 0.183 6.237 0 33.707-15.67 63.754-40.122 83.254l-0.215 0.165z" />
<glyph unicode="&#xe916;" glyph-name="j_advisory_info" d="M512 954.88c-279.942 0-506.88-226.938-506.88-506.88s226.938-506.88 506.88-506.88c279.942 0 506.88 226.938 506.88 506.88v0c-0.322 279.813-227.067 506.558-506.849 506.88h-0.031zM512-21.333c0 0-0.001 0-0.001 0-259.206 0-469.334 210.128-469.334 469.334s210.128 469.334 469.334 469.334c259.206 0 469.334-210.128 469.334-469.334 0 0 0-0.001 0-0.001v0c-0.301-259.084-210.248-469.032-469.304-469.333h-0.029zM482.959 634.89c-6.027 6.047-9.753 14.39-9.753 23.604 0 18.468 14.971 33.44 33.44 33.44s33.44-14.971 33.44-33.44c0-9.214-3.726-17.557-9.754-23.605l0.001 0.001c-5.823-6.107-14.022-9.904-23.107-9.904-0.178 0-0.356 0.001-0.533 0.004h0.027c-0.132-0.002-0.287-0.003-0.442-0.003-9.151 0-17.417 3.793-23.309 9.894l-0.009 0.009zM550.461 239.22c7.272-3.040 15.721-4.805 24.582-4.805 1.737 0 3.458 0.068 5.161 0.201l-0.225-0.014v-11.88h-146.813v11.88c1.592-0.132 3.446-0.207 5.318-0.207 8.766 0 17.146 1.65 24.847 4.656l-0.465-0.16c5.407 3.323 9.581 8.195 11.956 13.994l0.071 0.196c2.972 9.347 4.685 20.097 4.685 31.247 0 2.359-0.077 4.7-0.228 7.020l0.016-0.316v116.489c0.122 3.742 0.192 8.141 0.192 12.556 0 18.026-1.163 35.78-3.417 53.192l0.218-2.057c-0.828 5.78-3.445 10.837-7.263 14.705l0.003-0.003c-3.403 2.583-7.709 4.138-12.378 4.138-0.392 0-0.781-0.011-1.168-0.033l0.054 0.002c-8.173-0.356-15.835-2.142-22.876-5.113l0.434 0.163-4.62 11.88 91.080 36.959h14.52v-242.879c-0.141-2.098-0.221-4.548-0.221-7.016 0-10.967 1.581-21.564 4.527-31.577l-0.199 0.79c2.503-5.956 6.74-10.772 12.074-13.934l0.135-0.074z" />
<glyph unicode="&#xe917;" glyph-name="J_caret_calendar_down" d="M5.115 782.876h1013.77l-506.885-669.751z" />
<glyph unicode="&#xe918;" glyph-name="K_arrow_right" d="M299.493 954.88l506.955-506.88-506.955-506.88-81.94 81.94 425.016 424.94-425.015 424.94z" />
<glyph unicode="&#xe919;" glyph-name="k_info_expand_large" d="M451.722 265.141h60.571v-67.185h-60.571zM1018.914 448c0-0.021 0-0.045 0-0.070 0-279.961-226.953-506.914-506.914-506.914s-506.914 226.953-506.914 506.914c0 279.961 226.953 506.914 506.914 506.914 0.013 0 0.027 0 0.040 0h-0.003c279.796-0.328 506.53-227.050 506.876-506.81v-0.033zM981.093 448c0 0.020 0 0.044 0 0.068 0 259.073-210.020 469.093-469.093 469.093s-469.093-210.020-469.093-469.093c0-259.073 210.020-469.093 469.093-469.093 0.013 0 0.026 0 0.039 0h-0.001c258.925 0.289 468.749 210.102 469.055 468.996v0.029zM506.087 709.024c-0.502 0.004-1.096 0.006-1.69 0.006-37.12 0-72.27-8.436-103.636-23.496l1.44 0.623v-47.096c27.772 16.902 61.342 26.935 97.251 27.005h0.019c1.581 0.075 3.435 0.118 5.298 0.118 24.326 0 46.952-7.278 65.82-19.775l-0.443 0.276c16.558-12.322 27.168-31.835 27.168-53.826 0-1.645-0.059-3.276-0.176-4.891l0.013 0.217c-2.018-30.051-15.162-56.693-35.303-76.132l-0.034-0.033c-10.045-10.4-20.801-21.451-32.56-33.21-22.523-19.223-41.692-41.492-57.101-66.337l-0.694-1.201c-6.131-11.217-9.824-24.535-10.044-38.696l-0.001-0.067v-46.385h39.475v37.699c3.39 28.086 17.418 52.375 37.869 69.105l0.187 0.148 35.337 33.563c25.371 21.202 46.33 46.704 61.965 75.515l0.675 1.36c6.875 13.859 10.959 30.16 11.11 47.4v0.050c0 77.527-53.302 118.062-141.945 118.062z" />
<glyph unicode="&#xe91a;" glyph-name="l_advisory_warning" d="M473.466 644.482h77.102l-19.486-381.413h-38.13zM479.499 129.8h65.761v77.765h-65.761zM1010.801 91.476c5.015-8.548 7.977-18.826 7.977-29.796 0-32.931-26.691-59.627-59.62-59.636h-894.316c-32.929 0.009-59.62 26.705-59.62 59.636 0 10.969 2.962 21.247 8.129 30.077l-0.152-0.282 447.274 774.52c11.145 16.936 30.069 27.962 51.567 27.962 21.522 0 40.464-11.050 51.461-27.786l0.144-0.233zM959.157 61.665l-447.157 774.52-447.215-774.52-25.794 14.905 25.735-15.051z" />
<glyph unicode="&#xe91b;" glyph-name="L_seats" d="M804.28 954.8c-114.406 2.203-153.39-40.729-169.113-164.494l-0.236-35.421c0-0.007 0-0.015 0-0.023 0-26.823 20.93-48.758 47.35-50.363l0.141-0.007 122.691-7.274c0.526-0.033 1.14-0.052 1.759-0.052 15.18 0 27.704 11.374 29.514 26.064l0.014 0.144 20.514 171.568c0.222 1.833 0.348 3.956 0.348 6.108 0 29.416-23.628 53.314-52.941 53.75h-0.041zM780.669 758.249l-86.262 5.115v23.195c11.676 90.072 27.389 109.357 102.663 108.854zM276.644-58.88h456.436c0.003 0 0.007 0 0.011 0 22.712 0 41.36 17.398 43.344 39.594l0.012 0.167 58.076 646.468-186.618 11.068-9.532-10.136c-21.229-22.571-49.717-79.165-77.16-184.351-17.396-65.57-32.599-146.008-42.437-228.095l-0.861-8.819c-1.952-14.797-14.161-26.196-29.163-26.872l-0.066-0.002-225.025-10.008c-54.046-2.691-96.848-47.167-96.848-101.639 0-16.652 4-32.37 11.091-46.246l-0.267 0.575 15.053-29.954c15.808-30.937 47.45-51.751 83.953-51.751v0zM266.455 110.722l224.834 10c44.229 1.988 80.051 35.513 85.604 78.524l0.048 0.452c10.333 87.955 25.019 165.782 44.542 241.668l-2.718-12.452c12.171 49.815 27.918 93.195 47.7 134.264l-1.755-4.043c3.841 7.63 7.171 13.61 9.892 18.116l95.199-5.646-51.296-571.009h-441.859c0 0 0 0 0 0-13.395 0-25.006 7.635-30.719 18.79l-0.090 0.195-15.047 29.94c-2.842 5.53-4.508 12.066-4.508 18.992 0 22.607 17.751 41.067 40.075 42.204l0.102 0.004z" />
<glyph unicode="&#xe91c;" glyph-name="M_suitcase" d="M913.175 766.683h-197.737v47.246c-0.987 33.209-28.144 59.755-61.501 59.755-0.594 0-1.186-0.008-1.776-0.025l0.087 0.002h-280.518c-0.494 0.014-1.076 0.022-1.66 0.022-33.354 0-60.509-26.546-61.488-59.663l-0.002-0.090v-47.246h-197.754c-0.846 0.025-1.84 0.039-2.838 0.039-55.784 0-101.201-44.387-102.86-99.769l-0.004-0.153v-544.57c1.662-55.535 47.080-99.922 102.864-99.922 0.998 0 1.992 0.014 2.983 0.042l-0.146-0.003h802.35c0.838-0.024 1.824-0.038 2.813-0.038 55.789 0 101.212 44.384 102.885 99.767l0.004 0.154v544.57c-1.677 55.538-47.099 99.921-102.888 99.921-0.989 0-1.975-0.014-2.957-0.042l0.145 0.003zM146.332 75.553h-35.507c-0.398-0.012-0.867-0.019-1.336-0.019-26.071 0-47.297 20.742-48.076 46.624l-0.002 0.072v544.57c0.779 25.953 22.004 46.696 48.074 46.696 0.471 0 0.941-0.007 1.408-0.020l-0.069 0.002h35.507zM239.462 75.553h-36.846v637.914h36.846zM364.861 813.929c0.099 3.626 3.063 6.528 6.704 6.528 0.057 0 0.114-0.001 0.171-0.002h280.511c0.057 0.002 0.125 0.003 0.193 0.003 3.643 0 6.609-2.901 6.713-6.519v-47.256h-294.291zM728.234 75.553h-432.488v637.925h432.488zM821.364 75.553h-36.846v637.914h36.846zM962.593 122.23c-0.793-25.956-22.024-46.695-48.099-46.695-0.464 0-0.926 0.007-1.387 0.020l0.068-0.002h-35.527v637.925h35.527c0.393 0.012 0.855 0.018 1.318 0.018 26.075 0 47.306-20.739 48.098-46.623l0.002-0.073z" />
<glyph unicode="&#xe91d;" glyph-name="m_warning_error" d="M998.199 590.804c-1.234 4.188-2.81 8.221-4.149 12.364-3.329 10.404-6.799 20.772-10.818 30.984-3.034 7.639-6.504 15.050-9.892 22.504-2.861 6.345-5.649 12.711-8.784 18.958-4.553 9.003-9.504 17.76-14.568 26.446-2.565 4.425-5.095 8.861-7.804 13.223-5.78 9.26-11.894 18.286-18.243 27.136q-3.859 5.394-7.868 10.71-10.2 13.468-21.216 26.257c-7.851 9.061-15.61 18.183-24.211 26.794l-0.476 0.476c-8.008 7.996-16.444 15.281-24.842 22.629-9.387 8.215-19.144 16.008-29.118 23.526-2.228 1.675-4.428 3.396-6.678 5.030-9.395 6.843-19.101 13.274-28.966 19.473-3.37 2.106-6.726 4.239-10.134 6.257-8.706 5.19-17.644 10.019-26.676 14.693-5.215 2.676-10.434 5.339-15.72 7.821-7.308 3.466-14.759 6.661-22.253 9.781-7.482 3.082-14.988 6.083-22.582 8.791-5.52 1.991-11.118 3.809-16.724 5.612-9.669 3.072-19.378 5.97-29.182 8.451-3.858 0.989-7.76 1.857-11.651 2.756-11.343 2.587-22.736 4.9-34.202 6.702-2.761 0.439-5.553 0.78-8.33 1.172-12.349 1.732-24.738 3.121-37.165 3.948-11.144 0.745-22.271 1.559-33.599 1.567h-0.989c-10.455-0.014-20.811-0.44-31.111-1.080v-0.254c-62.985-4.023-121.505-18.902-175.126-42.79l3.233 1.286c-1.66-0.731-3.303-1.495-4.954-2.244q-17.656-7.939-34.789-17.306c-3.085-1.696-6.098-3.505-9.144-5.263q-13.971-8.019-27.522-16.992c-4.591-3.056-9.087-6.239-13.572-9.438q-10.866-7.731-21.393-16.115-8.172-6.502-16.058-13.334-9.953-8.602-19.549-17.806-7.037-6.754-13.817-13.763-12.321-12.761-23.611-26.131c-3.644-4.335-7.17-8.767-10.67-13.224-7.578-9.659-14.903-19.45-21.68-29.514-2.429-3.598-4.701-7.306-7.039-10.969-6.836-10.744-13.378-21.621-19.324-32.744-1.529-2.844-2.949-5.752-4.425-8.629-6.361-12.472-12.324-25.099-17.587-37.955-0.601-1.459-1.151-2.94-1.741-4.405-22.806-55.777-36.044-120.504-36.044-188.322 0-50.845 7.44-99.951 21.292-146.291l-0.926 3.61c1.231-4.175 2.803-8.196 4.137-12.328 3.333-10.418 6.808-20.797 10.83-31.022 3.025-7.618 6.484-15.006 9.864-22.439 2.871-6.371 5.672-12.765 8.82-19.038 4.54-8.977 9.48-17.713 14.529-26.375 2.579-4.45 5.123-8.911 7.848-13.297 5.769-9.24 11.87-18.245 18.203-27.076q3.881-5.427 7.915-10.775 10.18-13.438 21.172-26.203c7.858-9.070 15.623-18.199 24.232-26.818l0.476-0.476c8.012-8 16.452-15.29 24.855-22.64 9.375-8.206 19.121-15.989 29.082-23.498 2.24-1.684 4.454-3.416 6.717-5.059 9.383-6.834 19.077-13.256 28.928-19.447 3.384-2.114 6.753-4.255 10.175-6.282 8.694-5.181 17.615-10.002 26.633-14.67 5.23-2.683 10.464-5.352 15.766-7.842 7.294-3.457 14.728-6.649 22.207-9.762 7.498-3.089 15.019-6.096 22.63-8.81 5.503-1.985 11.084-3.795 16.672-5.594 9.687-3.079 19.418-5.984 29.241-8.469 3.835-0.981 7.715-1.846 11.584-2.739 11.363-2.593 22.778-4.909 34.265-6.715 2.739-0.434 5.509-0.773 8.263-1.162 12.37-1.738 24.781-3.126 37.229-3.954 11.141-0.744 22.263-1.559 33.589-1.566l0.95-0.001c10.464 0.012 20.827 0.44 31.136 1.081v0.254c62.993 4.022 121.52 18.904 175.147 42.798l-3.233-1.287c1.645 0.725 3.271 1.481 4.906 2.222q17.678 7.95 34.832 17.328c3.070 1.689 6.066 3.489 9.098 5.238q13.994 8.028 27.56 17.016c4.584 3.050 9.072 6.228 13.549 9.421q10.892 7.749 21.446 16.154 8.138 6.478 15.993 13.281 9.974 8.619 19.589 17.843 7.031 6.746 13.804 13.751 12.321 12.761 23.611 26.131c3.644 4.335 7.17 8.767 10.67 13.224 7.578 9.659 14.903 19.45 21.68 29.514 2.429 3.598 4.701 7.307 7.039 10.969 6.836 10.744 13.378 21.62 19.324 32.744 1.529 2.844 2.949 5.752 4.425 8.629 6.361 12.475 12.327 25.101 17.589 37.96 0.599 1.454 1.149 2.933 1.735 4.393 22.808 55.779 36.047 120.509 36.047 188.332 0 50.842-7.439 99.946-21.289 146.283l0.926-3.609zM68.614 448c0 0.101 0 0.222 0 0.342 0 244.679 198.351 443.030 443.030 443.030 111.342 0 213.091-41.074 290.922-108.895l-0.531 0.453-624.974-624.956c-67.365 77.077-108.447 178.625-108.447 289.768 0 0.091 0 0.181 0 0.272v-0.014zM512 4.628c-0.077 0-0.168 0-0.258 0-111.146 0-212.696 41.082-290.295 108.889l0.518-0.444 624.974 624.955c67.372-77.298 108.447-179.046 108.447-290.389 0-244.668-198.343-443.011-443.011-443.011-0.132 0-0.264 0-0.396 0h0.020z" />
<glyph unicode="&#xe91e;" glyph-name="n_afterhours" d="M328.451 656.924c0 0.202-0.001 0.442-0.001 0.682 0 113.728 41.421 217.782 110.001 297.899l-0.522-0.624c-238.569-46.384-416.201-253.655-416.201-502.415 0-282.408 228.937-511.345 511.345-511.345 208.947 0 388.622 125.324 467.96 304.904l1.289 3.27c-61.937-33.093-135.472-52.53-213.547-52.53-254.172 0-460.231 206.001-460.324 460.151v0.009zM532.966 18.944c-239.412 0.079-433.464 194.179-433.464 433.603 0 139.653 66.021 263.886 168.555 343.189l0.999 0.743c-11.702-41.868-18.429-89.947-18.429-139.598 0-297.097 240.844-537.941 537.941-537.941 0.015 0 0.029 0 0.044 0h-0.002q10.995 0 21.965 0.451c-74.581-62.492-171.569-100.447-277.422-100.447-0.066 0-0.131 0-0.197 0h0.011z" />
<glyph unicode="&#xe91f;" glyph-name="N_gas" d="M631.562 834.986h-433.68v-347.972h433.68zM568.14 550.437h-306.835v221.126h306.834zM911.565 850.506c-0.044 50.029-40.578 90.575-90.597 90.641h-0.006v-64.337c14.508-0.030 26.258-11.794 26.266-26.304v-55.224h-23.216v-211.542h23.237v-565.18c-0.029-6.829-5.572-12.355-12.405-12.355s-12.376 5.525-12.405 12.352v343.642c-0.030 42.352-34.344 76.679-76.687 76.731h-7.324v515.95h-649.246v-1013.76h649.246v433.474h7.319c6.828-0.024 12.355-5.564 12.356-12.395v0-343.639c0-42.383 34.358-76.741 76.741-76.741s76.741 34.358 76.741 76.741v0 565.18h23.234v211.542h-23.253zM673.5 5.456h-519.386v885.087h519.386z" />
<glyph unicode="&#xe920;" glyph-name="O_doors" d="M428.708 334.707c0-0.061 0.001-0.132 0.001-0.204 0-15.549-12.536-28.17-28.053-28.308h-173.958c-15.573 0.244-28.105 12.925-28.105 28.534s12.531 28.29 28.082 28.533h173.969c15.531-0.143 28.065-12.766 28.065-28.317 0-0.084 0-0.167-0.001-0.251v0.013zM943.416 528.978c5.384-7.142 8.63-16.159 8.651-25.934v-519.237c0.001-0.095 0.001-0.207 0.001-0.319 0-23.276-18.769-42.169-41.998-42.368h-796.118c-23.25 0.198-42.021 19.091-42.021 42.369 0 0.112 0 0.223 0.001 0.335v-0.017 928.391c-0.001 0.093-0.001 0.203-0.001 0.313 0 23.278 18.771 42.172 42.002 42.37h481.367c0.068 0 0.147 0.001 0.227 0.001 13.543 0 25.557-6.542 33.056-16.638l0.078-0.11zM893.366 497.195l-306.186 398.050h-456.546v-894.49h762.733zM570.727 860.535c11.936-0.036 22.522-5.785 29.172-14.654l0.068-0.095 254.59-340.967c4.763-6.198 7.633-14.066 7.633-22.605 0-20.403-16.388-36.979-36.719-37.282h-619.555c-20.293 0.162-36.681 16.65-36.681 36.965 0 0.105 0 0.211 0.001 0.316v-0.016 341.074c-0.001 0.081-0.001 0.178-0.001 0.274 0 20.321 16.385 36.815 36.664 36.991h0.017zM559.804 800.901h-331.865v-296.336h553.132z" />
<glyph unicode="&#xe921;" glyph-name="o_location_rail" d="M931.429 164.71v-58.805h-926.312v58.805zM994.541 370.53c15.009-16.852 24.18-39.19 24.18-63.671 0-52.975-42.945-95.92-95.92-95.92-0.036 0-0.072 0-0.108 0h-917.577v579.156h465.396c100.629-0.026 190.997-43.932 253.016-113.624l0.298-0.341zM662.895 643.254h-121.516v-160.681h264.743zM63.924 482.543h66.96v162.462h-66.96zM950.551 331.538l-81.7 92.229h-386.279v278.294h111.613c-36.047 18.321-78.586 29.105-123.631 29.23h-406.63v-27.479h373.625v-280.074h-373.625v-153.991h858.775c0.019 0 0.042 0 0.065 0 20.514 0 37.144 16.63 37.144 37.144 0 9.476-3.548 18.123-9.388 24.685l0.033-0.037zM256.765 482.543v162.462h-67.075v-162.463zM378.742 482.543v162.462h-63.171v-162.463z" />
<glyph unicode="&#xe922;" glyph-name="p_location_current" d="M463.483 399.54l122.661-458.418 432.717 1013.756-1013.722-432.828zM602.587 172.961l-77.181 288.502-288.427 77.107 638.039 272.391z" />
<glyph unicode="&#xe923;" glyph-name="P_transmission_auto" d="M463.456 669.761l-173.216-432.135h82.611l40.861 105.361h174.104l41.75-105.361h84.98l-174.697 432.135zM441.842 413.327q39.083 112.187 58.331 168.284 23.094-67.226 57.146-168.284zM512 954.88c-279.942 0-506.88-226.938-506.88-506.88s226.938-506.88 506.88-506.88c279.942 0 506.88 226.938 506.88 506.88v0c0 279.942-226.938 506.88-506.88 506.88v0zM512 0.752c-247.007 0.001-447.245 200.24-447.245 447.246s200.239 447.246 447.246 447.246c247.007 0 447.246-200.239 447.246-447.246v0c0-247.008-200.24-447.247-447.247-447.247v0z" />
<glyph unicode="&#xe924;" glyph-name="Q_drive" d="M512 747.026c-165.137-0.001-299.006-133.87-299.006-299.007s133.87-299.007 299.007-299.007c165.137 0 299.006 133.869 299.007 299.006v0c-0.019 165.13-133.878 298.989-299.006 299.008h-0.002zM567.495 448.563c-0.023-33.671-27.323-60.957-60.997-60.957-33.688 0-60.997 27.309-60.997 60.997s27.309 60.996 60.996 60.997v0c33.69-0.010 60.997-27.323 60.997-61.015 0-0.008 0-0.015 0-0.023v0.001zM484.696 686.13c0.86-5.355 1.378-11.565 1.431-17.886v-0.055c0-0.003 0-0.007 0-0.011 0-75.582-61.272-136.854-136.854-136.854-0.004 0-0.008 0-0.012 0h0.001c-20.636 0.158-40.098 5.024-57.416 13.574l0.773-0.345c34.413 76.733 105.849 131.374 190.943 141.467l1.133 0.109zM272.224 448.018c0.012 17.591 1.911 34.732 5.505 51.24l-0.29-1.588c63.273-12.79 110.243-67.945 110.243-134.071 0-35.972-13.9-68.697-36.621-93.098l0.076 0.083c-48.543 43.897-78.913 107.107-78.913 177.41 0 0.008 0 0.017 0 0.025v-0.001zM512 208.243c-46.319 0.010-89.549 13.234-126.125 36.107l1.001-0.584c23.155 43.306 68.069 72.27 119.748 72.27 53.651 0 100.011-31.217 121.906-76.479l0.352-0.807c-33.598-19.192-73.837-30.508-116.719-30.508-0.058 0-0.115 0-0.173 0h0.009zM751.776 448.018c0-0.041 0-0.090 0-0.138 0-73.019-32.73-138.393-84.32-182.252l-0.341-0.282c-25.923 24.864-42.032 59.787-42.032 98.472 0 69.918 52.619 127.545 120.418 135.443l0.636 0.060c3.552-15.406 5.605-33.106 5.639-51.279v-0.023zM662.262 531.325c-75.57 0.011-136.827 61.275-136.827 136.846 0 0.007 0 0.013 0 0.020v-0.001c0.055 6.698 0.624 13.219 1.669 19.579l-0.099-0.731c89.479-5.755 165.084-59.842 201.439-136.218l0.621-1.449c-19.15-11.307-42.19-18.004-66.791-18.047h-0.012zM512 954.88c-0.006 0-0.013 0-0.020 0-279.942 0-506.88-226.938-506.88-506.88s226.938-506.88 506.88-506.88c279.942 0 506.88 226.938 506.88 506.88 0 0.007 0 0.013 0 0.020v-0.001c0 0.003 0 0.007 0 0.010 0 279.926-226.925 506.852-506.852 506.852-0.003 0-0.006 0-0.008 0v0zM512 0.35c-0.006 0-0.012 0-0.019 0-247.23 0-447.649 200.419-447.649 447.649s200.419 447.649 447.649 447.649c247.223 0 447.638-200.408 447.649-447.628v-0.001c0-0.004 0-0.009 0-0.014 0-247.224-200.408-447.64-447.628-447.654h-0.002z" />
<glyph unicode="&#xe925;" glyph-name="q_location_airport" d="M960.853 954.851l-29.985-0.86c-44.088-1.221-83.675-19.53-112.567-48.508l-160.258-160.319-596.895 17.083c-0.481 0.015-1.046 0.024-1.613 0.024-30.017 0-54.351-24.334-54.351-54.351 0-22.084 13.171-41.092 32.087-49.596l0.343-0.138 370.401-162.987-126.395-126.428-172.667-21.598c-23.041-2.925-40.677-22.405-40.677-46.005 0-21.263 14.317-39.183 33.837-44.644l0.326-0.078 171.253-46.7 46.699-171.284c5.702-19.837 23.685-34.106 45.001-34.106 1.052 0 2.096 0.035 3.131 0.103l-0.141-0.007c22.27 1.391 40.148 18.488 42.745 40.276l0.021 0.217 21.569 172.665 126.457 126.457 162.956-370.586c8.505-19.2 27.393-32.351 49.352-32.351 0.018 0 0.036 0 0.054 0h-0.003c0.017 0 0.038 0 0.058 0 4.38 0 8.642 0.504 12.732 1.457l-0.378-0.074c24.372 5.465 42.311 26.917 42.311 52.56 0 0.694-0.013 1.385-0.039 2.073l0.003-0.099-17.083 597.079 160.254 160.193c28.982 28.905 47.312 68.479 48.598 112.329l0.006 0.241 0.862 29.956c0.014 0.476 0.023 1.036 0.023 1.597 0 15.579-6.3 29.686-16.492 39.912l0.002-0.002c-10.323 10.208-24.524 16.514-40.197 16.514-0.472 0-0.942-0.006-1.411-0.017l0.070 0.001zM955.077 868.733c-0.79-27.387-12.171-51.971-30.169-69.924l-179.426-179.364 16.589-580.428-182.374 414.612-206.706-206.769-13.885-111.096-34.165 125.229-125.167 34.134 111.095 13.918 206.646 206.737-414.397 182.314 580.242-16.591 179.425 179.456c17.917 18.013 42.497 29.385 69.73 30.106l0.135 0.003 23.104 0.676z" />
<glyph unicode="&#xe926;" glyph-name="R_arrow_up" d="M512 742.411l506.88-506.88-81.939-81.94-424.941 424.941-424.941-424.94-81.939 81.94z" />
<glyph unicode="&#xe927;" glyph-name="r_location_city" d="M567.2 615.757h-110.4v110.328h110.4zM812.626 229.076h-110.33v-110.327h110.33zM812.626 477.616h-110.33v-110.328h110.33zM812.626 726.085h-110.33v-110.327h110.33zM567.2 477.616h-110.4v-110.328h110.4zM5.12 949.254h1013.76v-125.268h-38.808v-877.239h-446.689v248.259h-42.767v-248.259h-446.754v877.239h-38.742zM111.446 14.331h311.586v248.259h177.935v-248.259h311.521v822.282h-801.042zM208.261 118.749h110.399v110.327h-110.399zM208.261 615.757h110.399v110.328h-110.399zM208.261 367.288h110.399v110.329h-110.399z" />
<glyph unicode="&#xe928;" glyph-name="S_gridview" d="M5.12-58.245h422.4v422.4h-422.4zM88.332 280.943h255.975v-255.974h-255.975zM427.52 954.245h-422.4v-422.4h422.4zM344.308 615.058h-255.975v255.975h255.975zM596.48 364.155v-422.4h422.4v422.4zM935.668 24.97h-255.974v255.974h255.974zM596.48 531.845h422.4v422.4h-422.4zM679.694 871.033h255.974v-255.975h-255.974z" />
<glyph unicode="&#xe929;" glyph-name="s_location_pin" d="M545.664 953.375h-0.109c-10.811 0.949-21.709 1.51-32.628 1.51-10.983-0.128-22.27-0.496-33.296-1.425-112.939-10.207-208.042-77.827-256.708-173.112l-0.838-1.807c-25.871-47.866-41.076-104.775-41.076-165.235 0-64.12 17.101-124.245 46.992-176.064l-0.908 1.707 282.923-497.832 285.661 496.323c29.747 50.568 47.318 111.393 47.318 176.321 0 59.673-14.841 115.879-41.034 165.129l0.924-1.903c-49.086 97.612-144.133 165.775-255.946 176.292l-1.274 0.097zM757.418 459.556l-247.187-429.361-244.727 430.591c-25.328 43.838-40.272 96.428-40.272 152.508 0 52.958 13.326 102.803 36.808 146.365l-0.809-1.641c42.646 83.94 124.715 142.456 221.157 151.342l1.084 0.081c9.257 0.797 18.624 1.251 28.161 1.251 0.94 0.012 2.051 0.019 3.163 0.019 9.466 0 18.816-0.493 28.027-1.454l-1.151 0.097c97.654-9.31 179.675-68.289 221.24-151.085l0.722-1.589c22.137-41.453 35.139-90.665 35.139-142.914 0-56.783-15.356-109.979-42.142-155.662l0.787 1.452zM512 775.066c-0.41 0.004-0.894 0.006-1.38 0.006-82.481 0-149.346-66.864-149.346-149.346s66.864-149.346 149.346-149.346c82.477 0 149.339 66.858 149.346 149.333v0.001c0.001 0.148 0.001 0.322 0.001 0.497 0 81.899-66.139 148.35-147.919 148.854h-0.048zM512 520.581c-0.411-0.006-0.896-0.009-1.381-0.009-58.075 0-105.154 47.079-105.154 105.154s47.079 105.154 105.154 105.154c58.075 0 105.154-47.079 105.154-105.154 0-0.004 0-0.009 0-0.013v0.001c0.001-0.158 0.001-0.346 0.001-0.533 0-57.479-46.361-104.129-103.729-104.598h-0.045z" />
<glyph unicode="&#xe92a;" glyph-name="T_caret_right" d="M258.56 954.88l506.88-506.88-506.88-506.88z" />
<glyph unicode="&#xe92b;" glyph-name="t_solid_airport" d="M1018.868 927.577l-0.92-32.012c-1.178-38.075-16.992-72.241-41.974-97.246l-181.070-181.017 18.597-651.064c0.006-0.199 0.009-0.433 0.009-0.667 0-13.487-10.934-24.421-24.421-24.421-9.915 0-18.45 5.909-22.276 14.397l-0.062 0.154-193.507 439.878-177.616-177.621-24.412-195.526c-1.017-7.902-7.701-13.945-15.798-13.945-7.291 0-13.436 4.9-15.324 11.587l-0.027 0.112-54.809 201.112-201.049 54.811c-6.812 1.89-11.729 8.036-11.729 15.33 0 8.079 6.031 14.749 13.837 15.753l0.079 0.008 195.58 24.469 177.559 177.621-439.809 193.511c-8.651 3.873-14.569 12.406-14.569 22.321 0 13.467 10.917 24.384 24.384 24.384 0.254 0 0.506-0.004 0.758-0.012l-0.037 0.001 650.99-18.597 181.071 181.132c24.973 24.985 59.13 40.787 96.974 41.909l0.211 0.005 32.069 0.922c0.248 0.008 0.54 0.013 0.833 0.013 14.619 0 26.47-11.851 26.47-26.47 0-0.293-0.005-0.585-0.014-0.875l0.001 0.042z" />
<glyph unicode="&#xe92c;" glyph-name="U_arrow_down_thick" d="M921.675 750.043l97.205-97.205-507.059-506.88-506.701 506.521 97.205 97.205 409.496-409.316z" />
<glyph unicode="&#xe92d;" glyph-name="u_solid_city" d="M5.124 887.056h41.475v-939.907h406.259v265.989h118.285v-265.989h406.183v939.907h41.551v61.796h-1013.753zM715.887 745.949h118.207v-118.209h-118.207zM715.887 479.732h118.207v-118.209h-118.207zM715.887 213.44h118.207v-118.208h-118.207zM452.857 745.95h118.285v-118.209h-118.285zM452.857 479.733h118.285v-118.209h-118.285zM186.569 745.95h118.282v-118.209h-118.282zM186.569 479.733h118.282v-118.209h-118.282zM186.569 213.441h118.282v-118.209h-118.282z" />
<glyph unicode="&#xe92e;" glyph-name="V_arrow_up_thick" d="M511.821 750.043l507.059-506.88-97.205-97.205-409.854 409.675-409.496-409.317-97.205 97.205z" />
<glyph unicode="&#xe92f;" glyph-name="v_solid_rail" d="M930.43 156.030v-48.304h-925.304v48.304zM995.689 366.052c14.302-16.066 23.040-37.359 23.040-60.693 0-50.513-40.949-91.462-91.462-91.462-0.009 0-0.017 0-0.026 0h-922.115v574.378h464.97c0.073 0 0.16 0 0.246 0 91.339 0 174.13-36.598 234.509-95.93l-0.048 0.047 38.45-41.445 196.838-221.906h-0.241zM132.31 652.735h-78.88v-175.391h78.88zM259.54 652.735h-78.927v-175.391h78.927zM382.86 652.735h-75.015v-175.391h75.015zM832.326 477.344l-154.814 173.602h-130.853v-173.602z" />
<glyph unicode="&#xe930;" glyph-name="w_arrow_left" d="M808.047 869.695l-421.724-421.695 421.724-421.694-85.186-85.186-506.909 506.88 506.909 506.88z" />
<glyph unicode="&#xe931;" glyph-name="W_caret_down" d="M5.12 701.44h1013.76l-506.88-506.88z" />
<glyph unicode="&#xe932;" glyph-name="X_arrow_right_thick" d="M696.836 770.043l322.044-322.002-322.044-322.084-58.546 58.547 222.1 222.134h-855.27v82.805h855.26l-222.090 222.055z" />
<glyph unicode="&#xe933;" glyph-name="x_close" d="M1018.88 870.531l-422.531-422.531 422.531-422.53-84.349-84.35-422.531 422.531-422.531-422.531-84.349 84.35 422.531 422.53-422.531 422.531 84.349 84.349 422.531-422.53 422.531 422.53z" />
<glyph unicode="&#xe934;" glyph-name="y_arrow_right" d="M660.394 806.487l358.493-358.487-358.493-358.487-29.801 29.802 301.954 301.95h-927.432v42.151h938.753l-313.274 313.27z" />
<glyph unicode="&#xe935;" glyph-name="Y_nav_parking" d="M471.491 522.845h63.615c4.52-0.335 9.792-0.526 15.108-0.526 37.947 0 73.62 9.735 104.658 26.844l-1.121-0.566c28.934 18.597 43.271 50.243 43.271 96.379 0.136 2.224 0.214 4.825 0.214 7.443 0 21.81-5.383 42.362-14.892 60.402l0.34-0.708c-8.479 16.285-21.876 29.025-38.199 36.46l-0.503 0.205c-16.599 8.37-35.973 13.97-56.461 15.633l-0.558 0.036c-11.759 1.485-22.925 2.356-33.245 2.662-10.026 0.307-22.079 0.61-36.124 0.61h-118.901v-430.608h72.796zM471.491 702.377h48.98c8.884 0 15.229 0 19.501-0.304 4.315 0 10.023-0.307 17.171-0.614 5.7-0.028 11.256-0.566 16.647-1.57l-0.573 0.089c9.478-1.093 18.105-3.811 25.918-7.878l-0.411 0.195c7.050-4.133 12.64-10.087 16.217-17.224l0.108-0.238c3.44-8.495 5.435-18.348 5.435-28.667 0-0.633-0.008-1.265-0.022-1.894l0.002 0.094c0.176-1.536 0.277-3.316 0.277-5.119 0-17.823-9.827-33.352-24.358-41.462l-0.241-0.123c-15.676-6.924-33.956-10.955-53.177-10.955-3.167 0-6.309 0.109-9.421 0.325l0.42-0.023h-62.472zM873.641 954.88h-723.282c-25.32-0.19-45.772-20.76-45.772-46.107 0-0.093 0-0.186 0.001-0.279v0.014-921.016c0-0.079-0.001-0.172-0.001-0.265 0-25.347 20.452-45.917 45.754-46.107h723.3c25.32 0.19 45.772 20.76 45.772 46.107 0 0.093 0 0.186-0.001 0.279v-0.014 921.016c0 0.079 0.001 0.172 0.001 0.265 0 25.347-20.452 45.917-45.754 46.107h-0.018zM865.939-5.407h-707.877v906.813h707.877zM778.626 127.129h-538.109v53.473h538.108z" />
<glyph unicode="&#xe936;" glyph-name="z_accordian_expand" d="M613.376 549.376h405.504v-202.752h-405.504v-405.504h-202.752v405.504h-405.504v202.752h405.504v405.504h202.752z" />
<glyph unicode="&#xe937;" glyph-name="Z_nav_parking_on" d="M533.963 587.009h-62.472v115.369h48.98c8.884 0 15.229 0 19.501-0.304 4.314 0 10.023-0.307 17.17-0.614 5.701-0.028 11.256-0.566 16.648-1.57l-0.573 0.089c9.478-1.093 18.105-3.812 25.918-7.879l-0.411 0.195c7.050-4.133 12.639-10.087 16.217-17.224l0.108-0.238c3.44-8.495 5.436-18.348 5.436-28.667 0-0.633-0.008-1.265-0.022-1.894l0.002 0.093c0.176-1.536 0.277-3.315 0.277-5.118 0-17.824-9.827-33.352-24.359-41.463l-0.241-0.123c-15.675-6.923-33.953-10.954-53.173-10.954-3.168 0-6.311 0.11-9.425 0.325l0.42-0.023zM919.413 908.509v-921.016c0-0.079 0.001-0.172 0.001-0.265 0-25.347-20.452-45.917-45.754-46.107h-723.3c-25.32 0.191-45.772 20.76-45.772 46.107 0 0.093 0 0.187 0.001 0.28v-0.014 921.016c0 0.079-0.001 0.172-0.001 0.265 0 25.347 20.452 45.916 45.754 46.107h723.3c25.32-0.19 45.772-20.76 45.772-46.107 0-0.093 0-0.186-0.001-0.279v0.014zM778.626 180.604h-538.109v-53.473h538.109zM471.491 337.112v185.733h63.615c4.52-0.335 9.791-0.526 15.107-0.526 37.947 0 73.62 9.735 104.658 26.845l-1.121-0.566c28.934 18.596 43.271 50.243 43.271 96.379 0.136 2.224 0.214 4.824 0.214 7.443 0 21.81-5.382 42.363-14.892 60.402l0.34-0.709c-8.479 16.286-21.876 29.026-38.199 36.461l-0.503 0.205c-16.599 8.369-35.974 13.97-56.461 15.632l-0.558 0.036c-11.759 1.485-22.925 2.356-33.245 2.664-10.026 0.307-22.079 0.61-36.124 0.61h-118.9v-430.609z" />
<glyph unicode="&#xe938;" glyph-name="ic_social_icon_email" horiz-adv-x="1344" d="M128 76.8v665.6l550.4-467.2 537.6 454.4v-652.8h-1088zM1139.2 832l-454.4-390.4-460.8 390.4h915.2zM1216 960h-1088c-70.4 0-128-57.6-128-128v-755.2c0-70.4 57.6-128 128-128h1088c70.4 0 128 57.6 128 128v755.2c0 70.4-57.6 128-128 128v0z" />
<glyph unicode="&#xe939;" glyph-name="ic_social_icon_facebook" horiz-adv-x="512" d="M317.44-12.8h-215.040v486.4h-102.4v168.96h102.4v102.4c0 133.12 61.44 215.040 230.4 215.040h138.24v-168.96h-87.040c-66.56 0-71.68-25.6-71.68-66.56v-81.92h158.72l-15.36-168.96h-138.24v-486.4z" />
<glyph unicode="&#xe93a;" glyph-name="ic_social_icon_google" horiz-adv-x="1638" d="M1460.907 509.44v177.493h-122.88v-177.493h-177.493v-122.88h177.493v-177.493h122.88v177.493h177.493v122.88h-177.493zM518.827 550.4v-204.8c0 0 197.973 0 279.893 0-40.96-129.707-109.227-204.8-279.893-204.8s-300.373 136.533-300.373 307.2 129.707 307.2 300.373 307.2c88.747 0 150.187-34.133 204.8-75.093 40.96 40.96 40.96 47.787 150.187 150.187-95.573 81.92-211.627 136.533-348.16 136.533-293.547-6.827-525.653-238.933-525.653-518.827s232.107-512 518.827-512c430.080 0 532.48 368.64 498.347 614.4h-498.347z" />
<glyph unicode="&#xe93b;" glyph-name="ic_social_icon_instagram" d="M512 960c-140.126 0-156.295 0-210.189-5.389-53.895 0-91.621-10.779-123.958-21.558s-64.674-26.947-91.621-59.284c-26.947-26.947-48.505-53.895-59.284-91.621-10.779-26.947-21.558-64.674-21.558-118.568-5.389-53.895-5.389-70.063-5.389-204.8s0-156.295 5.389-210.189c0-53.895 10.779-91.621 21.558-123.958s32.337-59.284 59.284-91.621c26.947-26.947 59.284-43.116 91.621-59.284 32.337-10.779 70.063-21.558 123.958-21.558s70.063-5.389 210.189-5.389c140.126 0 156.295 0 210.189 5.389 53.895 0 91.621 10.779 123.958 21.558s64.674 32.337 91.621 59.284c26.947 26.947 48.505 53.895 59.284 91.621 10.779 32.337 21.558 70.063 21.558 123.958s5.389 70.063 5.389 210.189c0 134.737 0 156.295-5.389 210.189 0 53.895-10.779 91.621-21.558 123.958s-32.337 59.284-59.284 91.621c-26.947 26.947-59.284 43.116-91.621 59.284-32.337 10.779-70.063 21.558-123.958 21.558-53.895-5.389-70.063-5.389-210.189-5.389zM512 868.379c134.737 0 150.905 0 204.8-5.389 48.505 0 75.453-10.779 97.011-16.168 21.558-10.779 43.116-21.558 59.284-37.726s26.947-32.337 37.726-59.284c5.389-16.168 16.168-43.116 16.168-91.621 0-53.895 5.389-70.063 5.389-204.8s0-150.905-5.389-204.8c0-48.505-10.779-75.453-16.168-91.621-10.779-21.558-21.558-37.726-37.726-59.284-16.168-16.168-32.337-26.947-59.284-37.726-16.168-5.389-43.116-16.168-97.011-16.168s-70.063-5.389-204.8-5.389-150.905 5.389-204.8 5.389c-48.505 0-75.453 10.779-97.011 16.168-21.558 10.779-43.116 21.558-59.284 37.726s-26.947 32.337-37.726 59.284c-5.389 21.558-16.168 48.505-16.168 97.011 0 53.895-5.389 70.063-5.389 204.8s0 150.905 5.389 204.8c0 48.505 10.779 75.453 16.168 91.621 10.779 21.558 21.558 37.726 37.726 59.284 16.168 16.168 32.337 26.947 59.284 37.726 16.168 5.389 43.116 16.168 97.011 16.168s70.063 0 204.8 0zM512 264.758c-102.4 0-183.242 80.842-183.242 183.242s80.842 183.242 183.242 183.242 183.242-80.842 183.242-183.242-80.842-183.242-183.242-183.242zM512 733.642c-156.295 0-285.642-129.347-285.642-285.642s129.347-285.642 285.642-285.642 285.642 129.347 285.642 285.642c0 156.295-129.347 285.642-285.642 285.642zM851.537 733.642c0-32.337-26.947-59.284-59.284-59.284s-59.284 26.947-59.284 59.284 26.947 59.284 59.284 59.284c37.726-5.389 59.284-26.947 59.284-59.284z" />
<glyph unicode="&#xe93c;" glyph-name="ic_social_icon_twitter" horiz-adv-x="1205" d="M1036.047 803.388c48.188 30.118 90.353 78.306 108.424 138.541-48.188-30.118-96.376-48.188-150.588-60.235-48.188 48.188-108.424 78.306-180.706 78.306-132.518 0-240.941-114.447-240.941-252.988 0-18.071 0-36.141 6.024-54.212-198.776 12.047-379.482 108.424-493.929 259.012-24.094-36.141-36.141-78.306-36.141-120.471 0-84.329 42.165-162.635 108.424-210.824-42.165 0-78.306 12.047-108.424 30.118v-6.024c0-120.471 84.329-222.871 192.753-246.965-18.071-6.024-42.165-6.024-66.259-6.024-18.071 0-30.118 0-48.188 6.024 30.118-96.376 120.471-174.682 222.871-174.682-84.329-66.259-186.729-108.424-301.176-108.424-18.071 0-36.141 0-60.235 6.024 108.424-72.282 234.918-114.447 367.435-114.447 445.741 0 686.682 379.482 686.682 710.776 0 12.047 0 24.094 0 30.118 48.188 36.141 90.353 78.306 120.471 132.518-30.118-18.071-78.306-30.118-126.494-36.141z" />
<glyph unicode="&#xe93d;" glyph-name="ic_social_icon_youtube" horiz-adv-x="1408" d="M556.8 659.2l371.2-198.4-371.2-211.2v409.6zM704 960v0c0 0-294.4 0-492.8-12.8-25.6-6.4-89.6-6.4-140.8-64-44.8-44.8-57.6-147.2-57.6-147.2-6.4-76.8-12.8-153.6-12.8-230.4v-108.8c0-76.8 6.4-160 12.8-236.8 0 0 12.8-102.4 57.6-147.2 51.2-57.6 121.6-57.6 153.6-64 115.2-6.4 480-12.8 480-12.8s294.4 0 492.8 12.8c25.6 6.4 89.6 6.4 140.8 64 44.8 44.8 57.6 147.2 57.6 147.2 6.4 76.8 12.8 160 12.8 236.8v108.8c0 76.8-6.4 160-12.8 236.8 0 0-12.8 102.4-57.6 147.2-51.2 57.6-115.2 57.6-140.8 64-198.4 6.4-492.8 6.4-492.8 6.4v0z" />
</font>
</defs>
</svg>
