<?xml version="1.0" encoding="UTF-8"?>
<svg xmlns="http://www.w3.org/2000/svg" xmlns:xlink="http://www.w3.org/1999/xlink" version="1.2" >
<font id="Ride Condensed Italic">
<font-face  font-family="Ride Condensed" units-per-em="2048" ascent="2412" descent="-607" font-style="italic" font-weight="400" font-stretch="normal" cap-height="1434" x-height="1024" underline-position="-154" underline-thickness="102" />
<missing-glyph  horiz-adv-x="599" d="M54 0 L221 1365 L657 1365 L490 0 L54 0 Z M117 68 L443 68 L594 1297 L268 1297 L117 68 Z " />
<glyph glyph-name="_1" d="" />
<glyph glyph-name="nonmarkingreturn" unicode="&#xd;" horiz-adv-x="480" d="" />
<glyph glyph-name="space" unicode="&#x20;" horiz-adv-x="480" d="" />
<glyph glyph-name="quotedbl" unicode="&#x22;" horiz-adv-x="606" d="M478 955 L498 1456 L679 1456 L581 955 L478 955 Z M205 955 L225 1456 L407 1456 L308 955 L205 955 Z " />
<glyph glyph-name="numbersign" unicode="&#x23;" horiz-adv-x="1140" d="M504 608 L693 608 L770 890 L582 890 L504 608 Z M165 42 L289 483 L98 483 L120 608 L328 608 L405 890 L193 890 L215 1015 L444 1015 L562 1431 L739 1431 L621 1015 L809 1015 L928 1431 L1104 1431 L985 1015 L1165 1015 L1144 890 L946 890 L869 608 L1070 608 L1049 483 L830 483 L705 42 L529 42 L654 483 L466 483 L341 42 L165 42 Z " />
<glyph glyph-name="dollar" unicode="&#x24;" horiz-adv-x="982" d="M432 -22 Q374 -20 321 -3 Q268 14 223 38.5 Q178 63 142 91 Q106 119 82 142 L181 280 Q202 262 233 238 Q264 214 300 192.5 Q336 171 375 155.5 Q414 140 452 139 L516 665 L457 681 Q380 711 326 747 Q272 783 240.5 831.5 Q209 880 199 945 Q189 1010 200 1098 Q211 1188 247.5 1258.5 Q284 1329 339 1378 Q394 1427 465 1453.5 Q536 1480 616 1482 L634 1628 L711 1628 L693 1481 Q759 1476 807 1460.5 Q855 1445 893 1424 Q931 1403 961.5 1378.5 Q992 1354 1022 1330 L909 1201 Q869 1246 810.5 1280 Q752 1314 674 1320 L613 827 Q713 789 777.5 748 Q842 707 877.5 655 Q913 603 922.5 537.5 Q932 472 922 384 Q910 289 872.5 217 Q835 145 779.5 95 Q724 45 654.5 16.5 Q585 -12 509 -19 L487 -203 L410 -203 L432 -22 Z M529 144 Q612 161 659.5 222.5 Q707 284 720 390 Q726 436 724.5 471 Q723 506 709.5 535 Q696 564 667.5 588.5 Q639 613 590 638 L529 144 Z M596 1319 Q519 1309 468 1255 Q417 1201 405 1104 Q399 1052 400.5 1014 Q402 976 416.5 946.5 Q431 917 460.5 894.5 Q490 872 539 851 L596 1319 Z " />
<glyph glyph-name="percent" unicode="&#x25;" horiz-adv-x="1513" d="M1110 -19 Q978 -19 912 88 Q847 197 868 371 Q879 459 907.5 529.5 Q936 600 982 655 Q1075 765 1206 765 Q1338 765 1404 656 Q1470 547 1448 372 Q1427 197 1334 89 Q1244 -19 1110 -19 Z M1125 104 Q1257 104 1290 372 Q1307 509 1283 576 Q1259 643 1191 643 Q1123 643 1083.5 575.5 Q1044 508 1027 371 Q994 104 1125 104 Z M289 0 L1195 1456 L1349 1456 L442 0 L289 0 Z M424 692 Q290 692 224 796 Q160 902 182 1081 Q204 1261 295 1368 Q387 1475 521 1475 Q656 1475 720 1369 Q784 1263 762 1082 Q741 903 649 797 Q560 692 424 692 Z M439 814 Q570 814 603 1083 Q620 1219 597 1286 Q574 1353 506 1353 Q438 1353 398 1286 Q358 1219 341 1082 Q308 814 439 814 Z " />
<glyph glyph-name="ampersand" unicode="&#x26;" horiz-adv-x="1260" d="M568 920 Q641 984 683 1047.5 Q725 1111 733 1175 Q742 1252 715.5 1289 Q689 1326 645 1326 Q597 1326 563 1286.5 Q529 1247 520 1175 Q503 1040 568 920 Z M489 138 Q558 138 622.5 177.5 Q687 217 753 293 L511 729 Q468 700 432 668.5 Q396 637 369 599.5 Q342 562 324.5 516 Q307 470 300 413 Q292 352 303 301.5 Q314 251 339.5 214.5 Q365 178 403 158 Q441 138 489 138 Z M470 -24 Q382 -26 310.5 4 Q239 34 191.5 90.5 Q144 147 123 228 Q102 309 114 411 Q124 490 151 552.5 Q178 615 218.5 666.5 Q259 718 310.5 761.5 Q362 805 421 846 Q394 892 375.5 932.5 Q357 973 346.5 1012 Q336 1051 333.5 1091.5 Q331 1132 337 1179 Q346 1250 374.5 1305 Q403 1360 445.5 1398 Q488 1436 542 1456 Q596 1476 656 1476 Q711 1476 762 1458.5 Q813 1441 850 1405 Q887 1369 905.5 1314.5 Q924 1260 915 1185 Q901 1076 837 981.5 Q773 887 666 815 L867 423 Q894 471 917.5 529 Q941 587 960 649.5 Q979 712 992 776.5 Q1005 841 1013 903 L1181 875 Q1172 799 1152 720 Q1132 641 1104.5 565.5 Q1077 490 1043 420.5 Q1009 351 971 293 Q999 255 1031 224 Q1063 193 1094 169 Q1125 145 1152.5 127.5 Q1180 110 1199 100 L1064 -9 Q1026 -4 999 10 Q972 24 948.5 47 Q925 70 902 101.5 Q879 133 850 174 Q670 -24 470 -24 Z " />
<glyph glyph-name="quotesingle" unicode="&#x27;" horiz-adv-x="392" d="M226 936 L259 1456 L453 1456 L362 936 L226 936 Z " />
<glyph glyph-name="parenleft" unicode="&#x28;" horiz-adv-x="541" d="M274 -173 Q195 19 159 232.5 Q123 446 149 663 Q201 1088 476 1516 L657 1516 Q526 1305 443.5 1093 Q361 881 335 665 Q323 565 325.5 457.5 Q328 350 343 242 Q358 134 385 28.5 Q412 -77 449 -173 L274 -173 Z " />
<glyph glyph-name="parenright" unicode="&#x29;" horiz-adv-x="540" d="M-13 -193 Q116 15 198.5 228 Q281 441 307 659 Q319 758 316.5 865.5 Q314 973 299 1081 Q284 1189 257 1294.5 Q230 1400 193 1496 L369 1496 Q408 1401 437.5 1299 Q467 1197 484 1090.5 Q501 984 504 875.5 Q507 767 494 660 Q441 232 168 -193 L-13 -193 Z " />
<glyph glyph-name="asterisk" unicode="&#x2a;" horiz-adv-x="854" d="M605 711 L503 974 L338 716 L211 806 L410 1044 L200 1133 L279 1275 L461 1155 L474 1457 L649 1457 L589 1155 L800 1275 L845 1133 L614 1044 L753 798 L605 711 Z " />
<glyph glyph-name="plus" unicode="&#x2b;" horiz-adv-x="1002" d="M394 103 L445 518 L141 518 L160 674 L466 674 L515 1075 L689 1075 L640 674 L945 674 L926 518 L620 518 L569 103 L394 103 Z " />
<glyph glyph-name="comma" unicode="&#x2c;" horiz-adv-x="424" d="M-17 -265 L128 202 L327 202 L129 -265 L-17 -265 Z " />
<glyph glyph-name="hyphen" unicode="&#x2d;" horiz-adv-x="580" d="M74 487 L92 629 L582 629 L564 487 L74 487 Z " />
<glyph glyph-name="period" unicode="&#x2e;" horiz-adv-x="432" d="M67 0 L94 225 L315 225 L288 0 L67 0 Z " />
<glyph glyph-name="slash" unicode="&#x2f;" horiz-adv-x="591" d="M-55 0 L617 1456 L783 1456 L108 0 L-55 0 Z " />
<glyph glyph-name="zero" unicode="0" horiz-adv-x="1009" d="M473 -22 Q375 -22 305.5 32 Q236 86 196.5 185 Q157 284 147 423 Q137 562 158 732 Q180 910 224 1049.5 Q268 1189 331.5 1285 Q395 1381 477 1431.5 Q559 1482 658 1482 Q756 1482 825 1431 Q894 1380 933.5 1283.5 Q973 1187 982 1048 Q991 909 969 732 Q946 547 902 406 Q858 265 795 170 Q732 75 650.5 26.5 Q569 -22 473 -22 Z M496 139 Q702 139 774 732 Q790 861 792.5 969 Q795 1077 780 1155.5 Q765 1234 731.5 1277.5 Q698 1321 641 1321 Q581 1321 535 1276.5 Q489 1232 454 1153 Q419 1074 394.5 966.5 Q370 859 354 732 Q337 593 335 483 Q333 373 349 296.5 Q365 220 401 179.5 Q437 139 496 139 Z " />
<glyph glyph-name="one" unicode="1" horiz-adv-x="1010" d="M202 0 L220 150 L431 150 L566 1250 Q509 1222 447 1190.5 Q385 1159 316 1122 L338 1295 Q368 1307 402.5 1326 Q437 1345 473 1367.5 Q509 1390 545.5 1413 Q582 1436 616 1456 L782 1456 L622 150 L832 150 L814 0 L202 0 Z " />
<glyph glyph-name="two" unicode="2" horiz-adv-x="1011" d="M631 1482 Q711 1482 773 1449.5 Q835 1417 874.5 1359.5 Q914 1302 930 1222 Q946 1142 934 1046 Q925 971 894.5 898.5 Q864 826 820.5 756 Q777 686 724.5 618 Q672 550 618 485 L347 158 L817 158 L798 0 L125 0 L143 150 L542 620 Q586 674 621 718.5 Q656 763 681.5 809 Q707 855 723.5 908 Q740 961 749 1031 Q754 1097 745.5 1150.5 Q737 1204 717 1241.5 Q697 1279 666 1299.5 Q635 1320 596 1320 Q560 1320 522 1311 Q484 1302 449 1291 Q420 1282 392 1266.5 Q364 1251 342 1235.5 Q320 1220 306 1209 Q292 1198 289 1198 L243 1347 Q251 1347 261 1359 Q275 1368 309.5 1388.5 Q344 1409 393.5 1430 Q443 1451 504 1466.5 Q565 1482 631 1482 Z " />
<glyph glyph-name="three" unicode="3" horiz-adv-x="1010" d="M457 -22 Q389 -22 334 -8.5 Q279 5 236 22.5 Q193 40 163 57 Q133 74 115 81 L190 227 Q197 205 220.5 188.5 Q244 172 278.5 161 Q313 150 356.5 144.5 Q400 139 447 139 Q502 139 548 158 Q594 177 627.5 212.5 Q661 248 682.5 298 Q704 348 712 410 Q729 549 658 616 Q587 683 448 683 L371 682 L391 845 L450 845 Q527 845 582.5 859.5 Q638 874 675.5 905.5 Q713 937 734.5 986.5 Q756 1036 765 1107 Q771 1158 759 1197.5 Q747 1237 721.5 1264.5 Q696 1292 661 1306.5 Q626 1321 586 1321 Q511 1321 447 1288 Q383 1255 317 1189 L247 1317 Q298 1359 340.5 1390 Q383 1421 426.5 1441.5 Q470 1462 518.5 1472 Q567 1482 630 1482 Q702 1482 766.5 1458.5 Q831 1435 877 1388 Q923 1341 945.5 1271 Q968 1201 957 1109 Q949 1047 929.5 991 Q910 935 878.5 890 Q847 845 802 813 Q757 781 698 767 Q753 753 794.5 720.5 Q836 688 862 640.5 Q888 593 897.5 532.5 Q907 472 898 403 Q886 304 845.5 225 Q805 146 745 91.5 Q685 37 610.5 7.5 Q536 -22 457 -22 Z " />
<glyph glyph-name="four" unicode="4" horiz-adv-x="1010" d="M621 527 L708 1232 L279 527 L621 527 Z M555 0 L602 385 L102 385 L117 513 L703 1456 L922 1456 L808 527 L989 527 L972 385 L793 385 L746 0 L555 0 Z " />
<glyph glyph-name="five" unicode="5" horiz-adv-x="1010" d="M461 -23 Q359 -23 269 19 Q179 61 117 147 L232 289 Q280 213 344.5 176 Q409 139 478 139 Q525 139 568.5 162.5 Q612 186 647 229 Q682 272 706.5 333 Q731 394 740 469 Q748 535 743 590.5 Q738 646 721 686.5 Q704 727 675.5 750 Q647 773 608 773 Q557 773 517 747 Q477 721 451 673 L265 690 L360 1456 L1001 1456 L981 1293 L509 1293 L444 839 Q480 890 536 915 Q592 940 665 940 Q734 940 789.5 904 Q845 868 882 804.5 Q919 741 934 654 Q949 567 937 465 Q923 354 877 264 Q831 174 765.5 110 Q700 46 620.5 11.5 Q541 -23 461 -23 Z " />
<glyph glyph-name="six" unicode="6" horiz-adv-x="1010" d="M526 139 Q572 139 612 163.5 Q652 188 683.5 231 Q715 274 736.5 333.5 Q758 393 767 463 Q776 533 770.5 592 Q765 651 746 694 Q727 737 694 760.5 Q661 784 615 784 Q570 784 530 761.5 Q490 739 457.5 701 Q425 663 401 612 Q377 561 365 503 Q362 483 359.5 463.5 Q357 444 355 425 Q348 360 359 307 Q370 254 393.5 216.5 Q417 179 451 159 Q485 139 526 139 Z M511 -22 Q403 -22 329.5 30 Q256 82 214.5 176.5 Q173 271 163.5 402.5 Q154 534 174 694 Q194 858 241.5 1002 Q289 1146 361 1252.5 Q433 1359 528 1420.5 Q623 1482 737 1482 Q827 1482 896 1453.5 Q965 1425 1013 1367 L933 1227 Q843 1321 719 1321 Q659 1321 604.5 1273 Q550 1225 505.5 1146.5 Q461 1068 429.5 967 Q398 866 383 761 Q435 842 502 891.5 Q569 941 648 941 Q733 941 798 907 Q863 873 904 810.5 Q945 748 961 660.5 Q977 573 964 466 Q951 361 911.5 271.5 Q872 182 812.5 117 Q753 52 676 15 Q599 -22 511 -22 Z " />
<glyph glyph-name="seven" unicode="7" horiz-adv-x="1010" d="M228 0 L823 1295 L250 1295 L269 1456 L1062 1456 L1045 1312 L433 0 L228 0 Z " />
<glyph glyph-name="eight" unicode="8" horiz-adv-x="1011" d="M577 843 Q665 870 720 940 Q775 1010 788 1115 Q794 1166 785 1206 Q776 1246 755.5 1274.5 Q735 1303 704.5 1318 Q674 1333 637 1333 Q557 1333 501 1275.5 Q445 1218 432 1113 Q419 1010 457.5 939.5 Q496 869 577 843 Z M491 131 Q585 131 647 196.5 Q709 262 724 384 Q731 439 721.5 487 Q712 535 689.5 573.5 Q667 612 634.5 640 Q602 668 562 682 Q516 668 475.5 640.5 Q435 613 403 575 Q371 537 349.5 488 Q328 439 321 382 Q307 261 353.5 196 Q400 131 491 131 Z M475 -22 Q388 -22 319 6 Q250 34 203.5 86 Q157 138 136.5 212.5 Q116 287 127 380 Q144 515 210.5 613.5 Q277 712 382 763 Q297 811 261.5 899 Q226 987 241 1110 Q251 1196 287.5 1265 Q324 1334 378.5 1382 Q433 1430 503.5 1456 Q574 1482 654 1482 Q738 1482 803.5 1456 Q869 1430 911.5 1381.5 Q954 1333 972 1263.5 Q990 1194 979 1107 Q964 983 908 895.5 Q852 808 756 763 Q798 738 831 699.5 Q864 661 885.5 611.5 Q907 562 915 503 Q923 444 915 377 Q903 280 860.5 205.5 Q818 131 757.5 80.5 Q697 30 623.5 4 Q550 -22 475 -22 Z " />
<glyph glyph-name="nine" unicode="9" horiz-adv-x="1010" d="M534 692 Q578 692 618 714 Q658 736 691 775 Q724 814 748.5 867.5 Q773 921 785 984 Q788 1003 790.5 1021 Q793 1039 795 1057 Q800 1111 791.5 1159 Q783 1207 761 1243 Q739 1279 705 1300 Q671 1321 626 1321 Q578 1321 536.5 1297.5 Q495 1274 462 1231.5 Q429 1189 407 1131 Q385 1073 377 1004 Q368 935 373 877.5 Q378 820 397.5 778.5 Q417 737 451 714.5 Q485 692 534 692 Z M414 -22 Q278 -22 128 71 L215 223 Q311 139 418 139 Q479 139 534.5 179.5 Q590 220 634.5 293.5 Q679 367 711 470.5 Q743 574 759 701 Q711 620 645.5 577 Q580 534 496 534 Q412 534 348 568 Q284 602 243 663.5 Q202 725 186 810.5 Q170 896 183 1000 Q196 1103 235 1191.5 Q274 1280 334 1344.5 Q394 1409 471.5 1445.5 Q549 1482 638 1482 Q736 1482 806 1435.5 Q876 1389 916.5 1299 Q957 1209 967.5 1076.5 Q978 944 957 772 Q934 581 884 433 Q834 285 763.5 184 Q693 83 604.5 30.5 Q516 -22 414 -22 Z " />
<glyph glyph-name="colon" unicode="&#x3a;" horiz-adv-x="429" d="M183 800 L210 1026 L405 1026 L378 800 L183 800 Z M85 1 L112 227 L307 227 L280 1 L85 1 Z " />
<glyph glyph-name="semicolon" unicode="&#x3b;" horiz-adv-x="432" d="M209 800 L236 1026 L433 1026 L406 800 L209 800 Z M-3 -265 L142 222 L352 222 L152 -265 L-3 -265 Z " />
<glyph glyph-name="less" unicode="&#x3c;" horiz-adv-x="1102" d="M905 67 L145 534 L157 630 L1031 1072 L1010 900 L395 579 L926 238 L905 67 Z " />
<glyph glyph-name="equal" unicode="&#x3d;" horiz-adv-x="1146" d="M218 683 L237 837 L1053 837 L1034 683 L218 683 Z M169 292 L188 445 L1006 445 L987 292 L169 292 Z " />
<glyph glyph-name="greater" unicode="&#x3e;" horiz-adv-x="1103" d="M149 68 L170 242 L781 560 L255 903 L276 1075 L1036 602 L1024 504 L149 68 Z " />
<glyph glyph-name="question" unicode="&#x3f;" horiz-adv-x="822" d="M192 -4 L219 217 L445 217 L418 -4 L192 -4 Z M268 379 L285 521 Q291 568 308.5 609 Q326 650 350.5 687 Q375 724 405 759 Q435 794 466 829 Q497 863 526.5 897 Q556 931 580.5 966.5 Q605 1002 622 1040.5 Q639 1079 644 1123 Q650 1174 642.5 1211 Q635 1248 615.5 1272 Q596 1296 565.5 1307.5 Q535 1319 497 1319 Q467 1319 432.5 1312 Q398 1305 364 1294.5 Q330 1284 300 1270.5 Q270 1257 249 1245 L270 1411 Q326 1439 394.5 1459 Q463 1479 535 1479 Q612 1479 673 1454 Q734 1429 773.5 1383.5 Q813 1338 830.5 1273.5 Q848 1209 838 1130 Q832 1085 817 1044.5 Q802 1004 780 968 Q758 932 731 899 Q704 866 675 835 Q637 794 596.5 753 Q556 712 521 669 Q486 626 461.5 579 Q437 532 430 478 L418 379 L268 379 Z " />
<glyph glyph-name="at" unicode="&#x40;" horiz-adv-x="1443" d="M940 822 Q951 909 929 959.5 Q907 1010 859 1010 Q812 1010 771 973 Q730 936 697.5 877 Q665 818 642.5 744 Q620 670 611 596 Q600 509 624 457.5 Q648 406 696 406 Q738 404 778 439 Q818 474 851 532.5 Q884 591 907.5 666.5 Q931 742 940 822 Z M854 1142 Q917 1142 955 1105 Q993 1068 1001 992 L1034 1114 L1196 1114 L1059 605 Q1028 496 1022 443 Q1017 409 1026.5 384 Q1036 359 1061 359 Q1089 359 1126 395.5 Q1163 432 1198.5 493 Q1234 554 1262.5 634.5 Q1291 715 1302 802 Q1318 935 1291.5 1038 Q1265 1141 1209 1211.5 Q1153 1282 1074.5 1318.5 Q996 1355 909 1355 Q798 1355 695 1309.5 Q592 1264 509 1177.5 Q426 1091 369 964.5 Q312 838 292 676 Q273 521 301.5 401.5 Q330 282 393 200 Q456 118 546 76 Q636 34 740 34 Q840 34 942 76 Q1044 118 1141 194 L1194 112 Q1088 15 965.5 -36.5 Q843 -88 710 -88 Q565 -88 449.5 -33 Q334 22 257.5 122.5 Q181 223 149 364 Q117 505 138 677 Q160 861 232 1009 Q304 1157 409 1261 Q514 1365 645 1421.5 Q776 1478 917 1478 Q1042 1478 1144 1428.5 Q1246 1379 1314.5 1289 Q1383 1199 1413 1074 Q1443 949 1424 798 Q1410 685 1375 587 Q1340 489 1291 415.5 Q1242 342 1183 300 Q1124 258 1063 258 Q982 258 941.5 310 Q901 362 913 462 Q896 420 870 384 Q844 348 811 321.5 Q778 295 739 280.5 Q700 266 655 266 Q607 266 561.5 288.5 Q516 311 483.5 355 Q451 399 435 464 Q419 529 430 614 Q439 688 462.5 756 Q486 824 520 882.5 Q554 941 595 989 Q636 1037 680.5 1071 Q725 1105 769.5 1123.5 Q814 1142 854 1142 Z " />
<glyph glyph-name="A" unicode="A" horiz-adv-x="1155" d="M813 545 L706 1236 L427 545 L813 545 Z M-4 0 L638 1456 L834 1456 L1124 0 L925 0 L857 389 L350 389 L191 0 L-4 0 Z " />
<glyph glyph-name="B" unicode="B" horiz-adv-x="1092" d="M418 840 L599 840 Q644 840 685.5 854.5 Q727 869 760.5 899 Q794 929 816.5 973.5 Q839 1018 847 1078 Q854 1140 843.5 1181.5 Q833 1223 804.5 1248.5 Q776 1274 729 1284.5 Q682 1295 617 1295 L474 1295 L418 840 Z M337 163 L533 163 Q660 163 731.5 228.5 Q803 294 818 419 Q827 492 819.5 542 Q812 592 785 623 Q758 654 709.5 668 Q661 682 587 682 L400 682 L337 163 Z M124 0 L302 1456 L621 1456 Q670 1456 724 1451 Q778 1446 829 1432.5 Q880 1419 925 1394.5 Q970 1370 1001.5 1330.5 Q1033 1291 1047 1234.5 Q1061 1178 1052 1101 Q1037 980 986 895 Q935 810 849 777 Q953 751 996.5 655 Q1040 559 1022 414 Q1011 325 975 249 Q939 173 879 117.5 Q819 62 735.5 31 Q652 0 546 0 L124 0 Z " />
<glyph glyph-name="C" unicode="C" horiz-adv-x="1141" d="M633 -22 Q517 -22 417.5 26 Q318 74 249.5 167.5 Q181 261 150.5 398.5 Q120 536 142 716 Q156 831 190.5 933 Q225 1035 274.5 1120 Q324 1205 385.5 1272 Q447 1339 515.5 1386 Q584 1433 657 1457.5 Q730 1482 803 1482 Q1029 1482 1169 1332 L1078 1202 Q961 1321 800 1321 Q717 1321 640.5 1273 Q564 1225 503 1143 Q442 1061 400 951 Q358 841 343 718 Q326 585 342.5 478 Q359 371 402 295.5 Q445 220 512 179.5 Q579 139 665 139 Q840 139 1005 283 L1051 131 Q863 -22 633 -22 Z " />
<glyph glyph-name="D" unicode="D" horiz-adv-x="1251" d="M124 0 L302 1456 L618 1456 Q963 1456 1116.5 1278 Q1270 1100 1224 726 Q1203 552 1143.5 417 Q1084 282 989 189 Q894 96 765.5 48 Q637 0 477 0 L124 0 Z M334 161 L506 161 Q614 161 702 198.5 Q790 236 855.5 308.5 Q921 381 963 486 Q1005 591 1022 726 Q1057 1017 957 1156 Q857 1295 616 1295 L474 1295 L334 161 Z " />
<glyph glyph-name="E" unicode="E" horiz-adv-x="991" d="M124 0 L302 1456 L1028 1456 L1009 1295 L474 1295 L417 837 L923 837 L903 675 L399 675 L336 161 L893 161 L874 0 L124 0 Z " />
<glyph glyph-name="F" unicode="F" horiz-adv-x="911" d="M124 0 L302 1456 L1004 1456 L985 1295 L474 1295 L417 837 L897 837 L877 675 L397 675 L315 0 L124 0 Z " />
<glyph glyph-name="G" unicode="G" horiz-adv-x="1228" d="M646 -22 Q503 -23 398.5 29 Q294 81 230 176 Q166 271 143 405.5 Q120 540 141 704 Q162 876 221 1019.5 Q280 1163 371 1265.5 Q462 1368 583 1425 Q704 1482 850 1482 Q923 1482 981 1473 Q1039 1464 1084 1446 Q1129 1428 1162.5 1400.5 Q1196 1373 1219 1336 L1126 1203 Q1021 1321 832 1321 Q731 1321 647.5 1274 Q564 1227 501 1145.5 Q438 1064 397.5 952.5 Q357 841 341 712 Q325 582 337 476 Q349 370 390.5 295 Q432 220 503 179.5 Q574 139 675 139 Q786 139 894 191 L945 603 L667 603 L687 766 L1158 766 L1074 84 Q865 -22 646 -22 Z " />
<glyph glyph-name="H" unicode="H" horiz-adv-x="1255" d="M124 0 L302 1456 L494 1456 L417 827 L980 827 L1057 1456 L1248 1456 L1070 0 L883 0 L964 666 L400 666 L319 0 L124 0 Z " />
<glyph glyph-name="I" unicode="I" horiz-adv-x="472" d="M109 0 L287 1456 L478 1456 L300 0 L109 0 Z " />
<glyph glyph-name="K" unicode="K" horiz-adv-x="1070" d="M124 0 L302 1456 L493 1456 L413 800 L955 1456 L1193 1456 L594 755 L1054 0 L807 0 L401 692 L317 0 L124 0 Z " />
<glyph glyph-name="L" unicode="L" horiz-adv-x="926" d="M124 0 L302 1456 L493 1456 L334 161 L874 161 L855 0 L124 0 Z " />
<glyph glyph-name="M" unicode="M" horiz-adv-x="1536" d="M124 0 L302 1456 L528 1456 L792 253 Q813 293 836.5 341.5 Q860 390 890.5 455.5 Q921 521 961 609 Q1001 697 1055 817.5 Q1109 938 1180 1095 Q1251 1252 1344 1456 L1571 1456 L1393 0 L1216 0 L1355 1139 L833 0 L687 0 L446 1147 L306 0 L124 0 Z " />
<glyph glyph-name="N" unicode="N" horiz-adv-x="1298" d="M124 0 L302 1456 L505 1456 L966 282 L1110 1456 L1292 1456 L1114 0 L910 0 L444 1166 L301 0 L124 0 Z " />
<glyph glyph-name="O" unicode="O" horiz-adv-x="1300" d="M624 -22 Q489 -22 389 31 Q289 84 227.5 181.5 Q166 279 144.5 418 Q123 557 144 729 Q165 900 221.5 1039 Q278 1178 364 1276.5 Q450 1375 563 1428.5 Q676 1482 811 1482 Q942 1482 1040 1427 Q1138 1372 1198.5 1273 Q1259 1174 1281 1035.5 Q1303 897 1282 729 Q1261 558 1206 419.5 Q1151 281 1067 183 Q983 85 871 31.5 Q759 -22 624 -22 Z M640 139 Q732 139 806.5 180 Q881 221 937.5 297.5 Q994 374 1031 483 Q1068 592 1085 729 Q1101 862 1090.5 971 Q1080 1080 1043 1158 Q1006 1236 942 1278.5 Q878 1321 788 1321 Q698 1321 622.5 1278.5 Q547 1236 489.5 1158 Q432 1080 394 971 Q356 862 340 729 Q323 592 333.5 483 Q344 374 381.5 297.5 Q419 221 483.5 180 Q548 139 640 139 Z " />
<glyph glyph-name="P" unicode="P" horiz-adv-x="1031" d="M124 0 L302 1456 L635 1456 Q706 1456 769.5 1451.5 Q833 1447 885.5 1432.5 Q938 1418 978.5 1391.5 Q1019 1365 1044.5 1320.5 Q1070 1276 1078.5 1211.5 Q1087 1147 1076 1057 Q1062 947 1023.5 871.5 Q985 796 923 749 Q861 702 775.5 681 Q690 660 583 660 L396 660 L315 0 L124 0 Z M415 821 L599 821 Q659 821 707 833 Q755 845 790 872.5 Q825 900 847 945 Q869 990 877 1056 Q887 1136 871.5 1183 Q856 1230 821.5 1254.5 Q787 1279 736.5 1286 Q686 1293 626 1295 L474 1295 L415 821 Z " />
<glyph glyph-name="Q" unicode="Q" horiz-adv-x="1322" d="M650 139 Q742 139 816.5 180 Q891 221 947.5 297.5 Q1004 374 1041 483 Q1078 592 1095 729 Q1111 862 1100.5 971 Q1090 1080 1053 1158 Q1016 1236 952 1278.5 Q888 1321 798 1321 Q708 1321 632.5 1278.5 Q557 1236 499.5 1158 Q442 1080 404 971 Q366 862 350 729 Q333 592 343.5 483 Q354 374 391.5 297.5 Q429 221 493.5 180 Q558 139 650 139 Z M634 -22 Q499 -22 398.5 31 Q298 84 236 181.5 Q174 279 152 418 Q130 557 151 729 Q172 900 228.5 1039.5 Q285 1179 372 1277 Q459 1375 572.5 1428.5 Q686 1482 821 1482 Q952 1482 1050 1427 Q1148 1372 1208.5 1273 Q1269 1174 1291 1035.5 Q1313 897 1292 729 Q1276 597 1241.5 483 Q1207 369 1154.5 278.5 Q1102 188 1032.5 122 Q963 56 878 20 Q878 -28 892.5 -80 Q907 -132 930 -178 Q953 -224 981.5 -259.5 Q1010 -295 1038 -310 L918 -428 Q828 -343 775.5 -241.5 Q723 -140 708 -17 Q691 -20 672.5 -21 Q654 -22 634 -22 Z " />
<glyph glyph-name="R" unicode="R" horiz-adv-x="1105" d="M124 0 L302 1456 L711 1456 Q804 1456 877 1442 Q950 1428 998 1386.5 Q1046 1345 1065 1269 Q1084 1193 1069 1069 Q1052 932 983.5 840 Q915 748 794 718 Q820 705 841 683 Q862 661 877.5 627.5 Q893 594 904 547.5 Q915 501 921 440 L1019 0 L813 0 L733 428 Q724 489 712.5 531 Q701 573 682.5 599 Q664 625 636.5 636 Q609 647 567 647 L394 647 L315 0 L124 0 Z M412 808 L612 808 Q722 808 785.5 865.5 Q849 923 866 1058 Q875 1127 868.5 1172.5 Q862 1218 840.5 1245 Q819 1272 782 1283.5 Q745 1295 692 1295 L472 1295 L412 808 Z " />
<glyph glyph-name="S" unicode="S" horiz-adv-x="997" d="M471 139 Q526 139 574.5 155 Q623 171 660.5 202 Q698 233 722 279 Q746 325 754 385 Q760 434 742.5 478 Q725 522 691 560.5 Q657 599 610.5 633 Q564 667 512 696 Q443 734 382 769 Q321 804 277 848 Q233 892 211 951.5 Q189 1011 200 1098 Q212 1193 252 1265 Q292 1337 352 1385 Q412 1433 487.5 1457.5 Q563 1482 646 1482 Q720 1482 775.5 1472.5 Q831 1463 875 1444 Q919 1425 954 1396.5 Q989 1368 1022 1330 L909 1201 Q888 1225 861 1248 Q834 1271 801.5 1288 Q769 1305 731 1315.5 Q693 1326 650 1326 Q602 1326 553.5 1312 Q505 1298 465 1270.5 Q425 1243 397.5 1202 Q370 1161 364 1108 Q357 1044 378 1002 Q399 960 435.5 930 Q472 900 518 876.5 Q564 853 607 828 Q685 782 748 737.5 Q811 693 854 642 Q897 591 916 528.5 Q935 466 925 384 Q912 280 869 203.5 Q826 127 763 77 Q700 27 622 2.5 Q544 -22 462 -22 Q402 -22 345 -7 Q288 8 238.5 32 Q189 56 148.5 85 Q108 114 82 142 L181 280 Q204 255 239 230 Q274 205 313.5 184.5 Q353 164 394 151.5 Q435 139 471 139 Z " />
<glyph glyph-name="T" unicode="T" horiz-adv-x="938" d="M361 0 L520 1295 L158 1295 L177 1456 L1097 1456 L1078 1295 L711 1295 L552 0 L361 0 Z " />
<glyph glyph-name="U" unicode="U" horiz-adv-x="1205" d="M569 -22 Q432 -22 346 13.5 Q260 49 215 121 Q170 193 161 302.5 Q152 412 170 560 L280 1456 L471 1456 L361 556 Q348 449 359 370.5 Q370 292 400.5 240.5 Q431 189 479 164 Q527 139 589 139 Q718 139 805.5 242.5 Q893 346 918 552 L1029 1456 L1220 1456 L1111 562 Q1094 429 1060 321 Q1026 213 963.5 137 Q901 61 805 19.5 Q709 -22 569 -22 Z " />
<glyph glyph-name="V" unicode="V" horiz-adv-x="1106" d="M438 0 L174 1456 L378 1456 L565 228 L1047 1456 L1248 1456 L629 0 L438 0 Z " />
<glyph glyph-name="W" unicode="W" horiz-adv-x="1662" d="M318 0 L166 1456 L363 1456 L457 217 L891 1456 L1083 1456 L1222 220 L1608 1456 L1798 1456 L1299 0 L1079 0 L951 1199 L534 0 L318 0 Z " />
<glyph glyph-name="X" unicode="X" horiz-adv-x="1106" d="M-7 0 L506 740 L198 1456 L429 1456 L646 896 L1004 1456 L1225 1456 L736 747 L1057 0 L827 0 L597 589 L220 0 L-7 0 Z " />
<glyph glyph-name="Y" unicode="Y" horiz-adv-x="1054" d="M407 0 L477 575 L174 1456 L390 1456 L597 743 L977 1456 L1198 1456 L668 578 L598 0 L407 0 Z " />
<glyph glyph-name="Z" unicode="Z" horiz-adv-x="958" d="M42 0 L54 103 L792 1295 L223 1295 L242 1456 L1033 1456 L1021 1357 L280 161 L873 161 L854 0 L42 0 Z " />
<glyph glyph-name="bracketleft" unicode="&#x5b;" horiz-adv-x="560" d="M60 -227 L268 1470 L603 1470 L586 1331 L439 1331 L265 -88 L413 -88 L396 -227 L60 -227 Z " />
<glyph glyph-name="backslash" unicode="&#x5c;" horiz-adv-x="640" d="M475 13 L117 1456 L316 1456 L671 13 L475 13 Z " />
<glyph glyph-name="bracketright" unicode="&#x5d;" horiz-adv-x="560" d="M53 -227 L70 -88 L214 -88 L388 1331 L244 1331 L261 1470 L593 1470 L385 -227 L53 -227 Z " />
<glyph glyph-name="asciicircum" unicode="&#x5e;" horiz-adv-x="1071" d="M221 688 L666 1456 L786 1456 L1042 688 L855 688 L699 1256 L411 688 L221 688 Z " />
<glyph glyph-name="underscore" unicode="&#x5f;" horiz-adv-x="796" d="M-41 -268 L-24 -123 L789 -123 L772 -268 L-41 -268 Z " />
<glyph glyph-name="grave" unicode="&#x60;" horiz-adv-x="485" d="M392 1173 L158 1533 L397 1533 L560 1173 L392 1173 Z " />
<glyph glyph-name="a" unicode="a" horiz-adv-x="1030" d="M495 128 Q554 128 600.5 156 Q647 184 681 235.5 Q715 287 737 359.5 Q759 432 770 521 Q780 605 774.5 675 Q769 745 746.5 795.5 Q724 846 684 874 Q644 902 586 902 Q528 902 480.5 874 Q433 846 397 795 Q361 744 337 673.5 Q313 603 303 518 Q292 433 298.5 361.5 Q305 290 328.5 238 Q352 186 393.5 157 Q435 128 495 128 Z M453 -22 Q353 -22 283 20.5 Q213 63 172 136 Q131 209 117.5 306.5 Q104 404 117 513 Q132 630 170.5 728.5 Q209 827 270 899 Q331 971 412 1011.5 Q493 1052 592 1052 Q630 1052 663 1037.5 Q696 1023 723 998 Q750 973 770.5 938 Q791 903 806 863 L826 1026 L1009 1026 L884 0 L697 0 L718 175 Q664 82 597 30 Q530 -22 453 -22 Z " />
<glyph glyph-name="b" unicode="b" horiz-adv-x="1029" d="M515 128 Q572 128 617 156.5 Q662 185 695.5 236.5 Q729 288 751 361 Q773 434 784 524 Q794 608 788.5 677.5 Q783 747 762 797 Q741 847 704 874.5 Q667 902 615 902 Q561 902 513.5 873.5 Q466 845 429.5 794 Q393 743 367.5 672 Q342 601 332 516 Q309 331 356 229.5 Q403 128 515 128 Z M530 -22 Q488 -22 450 -7.5 Q412 7 382 33.5 Q352 60 330.5 96 Q309 132 299 174 L278 0 L87 0 L120 223 Q123 240 124.5 252 Q126 264 127 270 L276 1486 L461 1486 L383 852 Q395 892 419 928.5 Q443 965 479 992.5 Q515 1020 563 1036 Q611 1052 670 1052 Q757 1052 821 1014 Q885 976 925 907 Q965 838 979 741 Q993 644 978 526 Q963 403 921 302 Q879 201 819 129 Q759 57 684.5 17.5 Q610 -22 530 -22 Z " />
<glyph glyph-name="c" unicode="c" horiz-adv-x="855" d="M478 -22 Q377 -22 303 17 Q229 56 183 126.5 Q137 197 120 294 Q103 391 117 507 Q133 637 178 738.5 Q223 840 289 909.5 Q355 979 437 1015.5 Q519 1052 609 1052 Q798 1052 885 930 L804 808 Q726 901 609 901 Q488 901 410.5 799.5 Q333 698 310 508 Q299 421 308 351 Q317 281 344 231.5 Q371 182 414.5 155 Q458 128 518 128 Q656 128 740 224 L781 91 Q707 35 634.5 6.5 Q562 -22 478 -22 Z " />
<glyph glyph-name="d" unicode="d" horiz-adv-x="1013" d="M481 128 Q538 128 582.5 156 Q627 184 660 235.5 Q693 287 714.5 360 Q736 433 747 522 Q757 606 751.5 676 Q746 746 725 796 Q704 846 666.5 874 Q629 902 575 902 Q518 902 474 872.5 Q430 843 397.5 791.5 Q365 740 344 669 Q323 598 313 514 Q302 428 305.5 357 Q309 286 329 235 Q349 184 386.5 156 Q424 128 481 128 Z M427 -22 Q347 -22 283 16 Q219 54 177.5 123.5 Q136 193 119 291 Q102 389 117 510 Q131 627 168.5 726.5 Q206 826 264 898.5 Q322 971 399.5 1011.5 Q477 1052 572 1052 Q615 1052 651 1037.5 Q687 1023 714 998.5 Q741 974 759 941 Q777 908 785 872 L860 1486 L1045 1486 L895 266 Q890 220 883.5 154 Q877 88 869 0 L679 0 L698 174 Q685 135 661 99.5 Q637 64 603 37 Q569 10 525 -6 Q481 -22 427 -22 Z " />
<glyph glyph-name="e" unicode="e" horiz-adv-x="957" d="M752 613 Q757 755 714 830.5 Q671 906 592 906 Q547 906 507 886 Q467 866 433 828 Q399 790 372.5 735.5 Q346 681 328 613 L752 613 Z M494 -22 Q392 -22 315 16 Q238 54 189 123.5 Q140 193 121 291.5 Q102 390 117 510 Q132 628 173 727.5 Q214 827 277 899 Q340 971 422 1011.5 Q504 1052 601 1052 Q696 1052 760.5 1014.5 Q825 977 861.5 909 Q898 841 907.5 746 Q917 651 903 536 Q901 515 893 487 L310 487 Q293 314 351 221 Q409 128 527 128 Q664 128 801 242 L836 106 Q753 42 671 10 Q589 -22 494 -22 Z " />
<glyph glyph-name="f" unicode="f" horiz-adv-x="638" d="M177 0 L287 903 L136 903 L151 1026 L302 1026 L313 1110 Q325 1211 344.5 1282 Q364 1353 404.5 1398 Q445 1443 514.5 1464 Q584 1485 697 1485 L738 1485 L714 1342 Q651 1342 612.5 1332 Q574 1322 551.5 1297 Q529 1272 518 1230 Q507 1188 500 1125 L487 1026 L675 1026 L660 903 L472 903 L362 0 L177 0 Z " />
<glyph glyph-name="g" unicode="g" horiz-adv-x="994" d="M484 158 Q545 158 589.5 185 Q634 212 665 261 Q696 310 715 379 Q734 448 745 532 Q755 615 750 683.5 Q745 752 724.5 800.5 Q704 849 667.5 875.5 Q631 902 579 902 Q522 902 477.5 872 Q433 842 399.5 790.5 Q366 739 344.5 669 Q323 599 313 518 Q292 347 334 252.5 Q376 158 484 158 Z M379 -418 Q219 -418 80 -331 L131 -172 Q241 -269 385 -269 Q505 -269 582 -181.5 Q659 -94 681 85 L694 192 Q671 153 644.5 120.5 Q618 88 588 64.5 Q558 41 524 27.5 Q490 14 453 14 Q363 14 294.5 49 Q226 84 182 149.5 Q138 215 121 307.5 Q104 400 118 516 Q133 636 169 735 Q205 834 262 904.5 Q319 975 396 1013.5 Q473 1052 569 1052 Q650 1052 703 1002 Q756 952 779 874 L797 1026 L993 1026 Q982 963 973 910.5 Q964 858 956.5 812.5 Q949 767 943.5 727 Q938 687 933 648 L871 140 Q856 19 817.5 -83.5 Q779 -186 717.5 -260 Q656 -334 571 -376 Q486 -418 379 -418 Z " />
<glyph glyph-name="h" unicode="h" horiz-adv-x="978" d="M89 0 L271 1486 L457 1486 L381 865 Q402 907 435 941 Q468 975 506 1000 Q544 1025 583.5 1038.5 Q623 1052 658 1052 Q753 1052 809.5 1018 Q866 984 893 925 Q920 866 923 787 Q926 708 915 619 L839 0 L653 0 L728 614 Q747 765 717.5 833.5 Q688 902 611 902 Q569 902 526 879 Q483 856 446 817 Q409 778 383.5 727.5 Q358 677 351 622 L275 0 L89 0 Z " />
<glyph glyph-name="i" unicode="i" horiz-adv-x="418" d="M247 1285 L268 1456 L448 1456 L427 1285 L247 1285 Z M90 0 L215 1026 L395 1026 L270 0 L90 0 Z " />
<glyph glyph-name="j" unicode="j" horiz-adv-x="461" d="M293 1277 L315 1456 L500 1456 L478 1277 L293 1277 Z M-128 -423 Q-132 -423 -135 -411 Q-131 -373 -127 -335.5 Q-123 -298 -118 -260 Q-109 -272 -101 -272 Q-78 -272 -51 -267.5 Q-24 -263 3 -254 Q38 -240 61 -215 Q84 -190 99 -154 Q114 -118 123 -70.5 Q132 -23 139 36 L260 1026 L447 1026 L333 94 Q326 37 315.5 -23.5 Q305 -84 287.5 -141.5 Q270 -199 244.5 -250 Q219 -301 182.5 -339.5 Q146 -378 97 -400.5 Q48 -423 -16 -423 L-128 -423 Z " />
<glyph glyph-name="k" unicode="k" horiz-adv-x="868" d="M89 0 L271 1486 L457 1486 L347 587 L731 1026 L967 1026 L510 537 L868 0 L632 0 L334 485 L275 0 L89 0 Z " />
<glyph glyph-name="l" unicode="l" horiz-adv-x="421" d="M90 0 L272 1486 L457 1486 L275 0 L90 0 Z " />
<glyph glyph-name="m" unicode="m" horiz-adv-x="1479" d="M101 0 L194 758 Q196 775 198.5 810.5 Q201 846 204 900 L213 1026 L408 1026 L388 860 Q409 905 438.5 940.5 Q468 976 502.5 1001 Q537 1026 575 1039 Q613 1052 650 1052 Q731 1052 789.5 994 Q848 936 868 830 Q932 935 1008 993.5 Q1084 1052 1169 1052 Q1244 1052 1296 1023 Q1348 994 1378.5 939.5 Q1409 885 1418 806.5 Q1427 728 1415 628 L1338 0 L1152 0 L1227 613 Q1235 680 1235 733.5 Q1235 787 1225 824.5 Q1215 862 1193 882 Q1171 902 1136 902 Q1091 902 1049 877.5 Q1007 853 973.5 811 Q940 769 917 712.5 Q894 656 886 592 L814 0 L628 0 L705 629 Q712 689 712 739.5 Q712 790 701.5 826 Q691 862 667.5 882 Q644 902 604 902 Q561 902 521 880 Q481 858 448.5 820.5 Q416 783 393.5 732.5 Q371 682 363 625 L287 0 L101 0 Z " />
<glyph glyph-name="n" unicode="n" horiz-adv-x="983" d="M100 0 L179 649 Q183 685 188 732.5 Q193 780 197.5 828 Q202 876 205 919 Q208 962 210 989 L211 1026 L407 1026 L388 865 Q414 909 448 944 Q482 979 519.5 1003 Q557 1027 595.5 1039.5 Q634 1052 669 1052 Q812 1052 878 934 Q944 816 914 578 L844 0 L658 0 L728 577 Q748 743 722.5 822.5 Q697 902 613 902 Q581 902 540.5 880.5 Q500 859 463.5 823 Q427 787 399 740.5 Q371 694 364 643 L286 0 L100 0 Z " />
<glyph glyph-name="o" unicode="o" horiz-adv-x="1023" d="M482 -22 Q375 -22 299.5 17 Q224 56 178.5 126.5 Q133 197 118 295 Q103 393 117 512 Q132 633 172.5 732.5 Q213 832 276 903 Q339 974 424 1013 Q509 1052 614 1052 Q720 1052 794.5 1013 Q869 974 913 902.5 Q957 831 971 731.5 Q985 632 970 512 Q956 394 917 295.5 Q878 197 816 126.5 Q754 56 670 17 Q586 -22 482 -22 Z M497 128 Q558 128 605.5 156 Q653 184 687.5 234.5 Q722 285 744 355.5 Q766 426 777 512 Q788 599 782 671 Q776 743 753.5 794 Q731 845 690.5 873.5 Q650 902 592 902 Q533 902 486 874 Q439 846 403.5 794.5 Q368 743 344.5 671 Q321 599 311 512 Q288 326 333 227 Q378 128 497 128 Z " />
<glyph glyph-name="p" unicode="p" horiz-adv-x="1016" d="M509 127 Q566 127 610.5 155.5 Q655 184 687.5 235.5 Q720 287 741 358.5 Q762 430 773 516 Q796 703 754.5 802 Q713 901 603 901 Q547 901 502 870.5 Q457 840 423.5 787 Q390 734 368 661 Q346 588 336 503 Q326 419 330 349.5 Q334 280 354.5 230.5 Q375 181 413 154 Q451 127 509 127 Z M48 -428 L190 728 Q194 762 200 836 Q206 910 213 1026 L409 1026 Q404 980 398.5 934 Q393 888 388 842 Q400 884 427 922 Q454 960 492 988.5 Q530 1017 576.5 1034 Q623 1051 673 1051 Q759 1051 820.5 1008.5 Q882 966 919 893.5 Q956 821 968 725 Q980 629 967 522 Q952 405 915 305.5 Q878 206 821.5 133 Q765 60 691.5 18.5 Q618 -23 531 -23 Q483 -23 442.5 -7.5 Q402 8 372 34.5 Q342 61 324.5 95 Q307 129 305 166 L232 -428 L48 -428 Z " />
<glyph glyph-name="q" unicode="q" horiz-adv-x="1002" d="M478 129 Q536 129 580.5 157.5 Q625 186 657.5 238.5 Q690 291 711.5 365.5 Q733 440 744 531 Q754 614 748.5 682 Q743 750 722 799 Q701 848 663.5 874.5 Q626 901 573 901 Q516 901 472 871.5 Q428 842 395 790 Q362 738 340.5 666.5 Q319 595 309 510 Q298 424 302 354 Q306 284 326 234 Q346 184 383.5 156.5 Q421 129 478 129 Z M618 -419 L688 150 Q660 115 629.5 84 Q599 53 567 29.5 Q535 6 501.5 -8 Q468 -22 434 -22 Q338 -22 271 17 Q204 56 164.5 126.5 Q125 197 113 295.5 Q101 394 115 512 Q130 632 168.5 731.5 Q207 831 265.5 902.5 Q324 974 400.5 1013 Q477 1052 569 1052 Q632 1052 688 1007 Q744 962 780 884 L797 1026 L987 1026 Q972 931 963 873 Q954 815 952 792 L803 -419 L618 -419 Z " />
<glyph glyph-name="r" unicode="r" horiz-adv-x="628" d="M103 0 L198 774 Q200 791 201.5 815 Q203 839 205 871 Q207 898 208.5 925.5 Q210 953 212 980 L213 1026 L411 1026 L392 866 Q450 959 505 1004.5 Q560 1050 624 1050 Q663 1050 705 1038 L685 875 Q636 891 590 891 Q503 891 441 808 Q377 724 359 571 L289 0 L103 0 Z " />
<glyph glyph-name="s" unicode="s" horiz-adv-x="789" d="M391 -22 Q338 -22 290 -11 Q242 0 201 18 Q160 36 127 58 Q94 80 71 102 L135 239 Q157 218 187 198.5 Q217 179 251 163.5 Q285 148 321.5 138.5 Q358 129 393 129 Q469 129 506 166.5 Q543 204 553 279 Q556 308 554 328 Q552 348 541.5 364 Q531 380 510 394.5 Q489 409 455 427 L343 479 Q296 499 259 522 Q222 545 198 578 Q174 611 163.5 656.5 Q153 702 160 767 Q169 842 200 896 Q231 950 276.5 984.5 Q322 1019 379 1035 Q436 1051 497 1051 Q576 1051 648.5 1029 Q721 1007 775 962 L709 830 Q688 848 661 861.5 Q634 875 605.5 884 Q577 893 548 897.5 Q519 902 493 902 Q422 902 384.5 868.5 Q347 835 339 772 Q336 737 338.5 715 Q341 693 355 676 Q369 659 398 643 Q427 627 475 605 L507 593 Q561 570 605 547 Q649 524 679 490 Q709 456 722 407.5 Q735 359 726 286 Q715 203 681.5 144.5 Q648 86 601 49 Q554 12 499 -5 Q444 -22 391 -22 Z " />
<glyph glyph-name="t" unicode="t" horiz-adv-x="643" d="M564 0 L487 0 Q409 0 349.5 15 Q290 30 252.5 69.5 Q215 109 201 178 Q187 247 200 355 L267 903 L99 903 L114 1026 L289 1026 L322 1290 L506 1343 L467 1026 L684 1026 L669 903 L452 903 L384 345 Q376 278 379.5 238 Q383 198 404 177 Q425 156 467.5 150 Q510 144 581 144 L564 0 Z " />
<glyph glyph-name="u" unicode="u" horiz-adv-x="958" d="M392 -23 Q316 -23 261 6.5 Q206 36 172.5 90 Q139 144 127.5 220.5 Q116 297 128 392 L205 1026 L389 1026 L312 392 Q295 259 331.5 193 Q368 127 447 127 Q494 127 532 147.5 Q570 168 598 204.5 Q626 241 643.5 291.5 Q661 342 669 403 L745 1026 L931 1026 L837 254 Q830 185 824.5 122 Q819 59 815 0 L623 0 L636 135 Q621 100 600 71 Q579 42 549.5 21 Q520 0 481.5 -11.5 Q443 -23 392 -23 Z " />
<glyph glyph-name="v" unicode="v" horiz-adv-x="887" d="M338 0 L117 1026 L318 1026 L455 196 L785 1026 L981 1026 L508 0 L338 0 Z " />
<glyph glyph-name="w" unicode="w" horiz-adv-x="1338" d="M286 0 L119 1026 L298 1026 L389 226 L687 1026 L874 1026 L967 225 L1256 1026 L1429 1026 L1002 0 L843 0 L748 793 L446 0 L286 0 Z " />
<glyph glyph-name="x" unicode="x" horiz-adv-x="837" d="M-15 0 L347 512 L126 1027 L331 1026 L471 645 L721 1026 L914 1026 L560 524 L791 0 L586 0 L438 392 L181 0 L-15 0 Z " />
<glyph glyph-name="y" unicode="y" horiz-adv-x="881" d="M49 -307 Q163 -266 227.5 -199.5 Q292 -133 324 -44 L342 8 L121 1026 L315 1026 L456 206 L769 1026 L958 1026 L494 -54 Q459 -126 415 -187 Q371 -248 321.5 -297 Q272 -346 218 -380.5 Q164 -415 110 -433 L49 -307 Z " />
<glyph glyph-name="z" unicode="z" horiz-adv-x="792" d="M49 0 L61 100 L553 877 L174 877 L192 1026 L812 1026 L800 928 L306 148 L724 148 L706 0 L49 0 Z " />
<glyph glyph-name="braceleft" unicode="&#x7b;" horiz-adv-x="751" d="M536 868 Q525 774 471.5 712.5 Q418 651 324 624 Q411 591 448 522 Q485 453 473 354 L449 162 Q447 146 446 130 Q445 114 443 98 Q439 46 445 12 Q451 -22 471.5 -42 Q492 -62 528 -70 Q564 -78 619 -78 L601 -221 Q512 -221 450.5 -204 Q389 -187 349.5 -157.5 Q310 -128 289 -87.5 Q268 -47 260.5 0.5 Q253 48 255 100.5 Q257 153 264 206 L279 329 Q286 386 286.5 428.5 Q287 471 274.5 500 Q262 529 233.5 545 Q205 561 154 565 L169 691 Q215 695 246.5 710 Q278 725 299 752.5 Q320 780 332 819 Q344 858 350 910 L373 1094 Q375 1109 377.5 1124 Q380 1139 382 1155 Q393 1225 422.5 1283.5 Q452 1342 504 1384.5 Q556 1427 631.5 1451 Q707 1475 810 1475 L792 1332 Q736 1332 696.5 1321.5 Q657 1311 630 1287.5 Q603 1264 588.5 1225.5 Q574 1187 568 1130 L536 868 Z " />
<glyph glyph-name="bar" unicode="&#x7c;" horiz-adv-x="424" d="M33 -482 L281 1535 L459 1535 L211 -482 L33 -482 Z " />
<glyph glyph-name="braceright" unicode="&#x7d;" horiz-adv-x="748" d="M46 -77 Q108 -77 148.5 -66.5 Q189 -56 214 -32 Q239 -8 251.5 30.5 Q264 69 271 125 L303 387 Q314 481 367.5 542.5 Q421 604 514 631 Q428 664 391 733 Q354 802 366 901 L390 1093 Q392 1109 393 1125 Q394 1141 396 1157 Q400 1207 387 1240.5 Q374 1274 349.5 1294.5 Q325 1315 291 1324 Q257 1333 219 1333 L237 1475 Q323 1475 383 1457.5 Q443 1440 482.5 1410 Q522 1380 543.5 1339 Q565 1298 574 1250.5 Q583 1203 581.5 1151.5 Q580 1100 574 1049 L559 926 Q552 869 552 826.5 Q552 784 564.5 755 Q577 726 605.5 710 Q634 694 685 690 L670 564 Q625 560 593 544.5 Q561 529 540 501.5 Q519 474 506.5 435 Q494 396 488 345 L465 161 Q463 146 461 130.5 Q459 115 457 100 Q446 30 415.5 -29 Q385 -88 333 -130.5 Q281 -173 205.5 -197 Q130 -221 28 -221 L46 -77 Z " />
<glyph glyph-name="asciitilde" unicode="&#x7e;" horiz-adv-x="1157" d="M242 1122 Q268 1179 297 1226 Q326 1273 359 1306.5 Q392 1340 428.5 1358 Q465 1376 506 1376 Q531 1376 565.5 1366 Q600 1356 638 1340.5 Q676 1325 715.5 1307.5 Q755 1290 791.5 1274.5 Q828 1259 859 1249 Q890 1239 911 1239 Q934 1239 951 1253.5 Q968 1268 982.5 1292 Q997 1316 1009.5 1348.5 Q1022 1381 1036 1417 L1155 1372 Q1129 1306 1102.5 1253.5 Q1076 1201 1046 1164 Q1016 1127 981 1107 Q946 1087 904 1087 Q880 1087 846.5 1097 Q813 1107 774 1122.5 Q735 1138 694 1156 Q653 1174 616 1189.5 Q579 1205 548.5 1215 Q518 1225 500 1225 Q474 1225 454.5 1214.5 Q435 1204 418.5 1183 Q402 1162 386.5 1131 Q371 1100 353 1058 L242 1122 Z " />
<glyph glyph-name="uni007F" unicode="&#x7f;" horiz-adv-x="1216" d="M150 0 L328 1456 L1244 1456 L1066 0 L150 0 Z M303 124 L944 124 L1092 1330 L451 1330 L303 124 Z " />
<glyph glyph-name="uni00A0" unicode="&#xa0;" horiz-adv-x="479" d="" />
<glyph glyph-name="exclamdown" unicode="&#xa1;" horiz-adv-x="587" d="M282 1140 L508 1140 L481 920 L255 920 L282 1140 Z M295 763 L405 763 L328 -316 L107 -316 L295 763 Z " />
<glyph glyph-name="cent" unicode="&#xa2;" horiz-adv-x="851" d="M524 -213 L424 -213 L448 -21 Q355 -17 286 25.5 Q217 68 175 138.5 Q133 209 118 303.5 Q103 398 117 507 Q131 623 171 720 Q211 817 271 888 Q331 959 409.5 1001.5 Q488 1044 580 1051 L604 1252 L704 1252 L680 1051 Q818 1039 885 930 L804 808 Q745 891 661 900 L566 129 Q626 134 667.5 157.5 Q709 181 740 224 L781 91 Q722 40 665 12 Q608 -16 548 -21 L524 -213 Z M561 897 Q461 880 396 779.5 Q331 679 310 508 Q300 428 305.5 362.5 Q311 297 331.5 248 Q352 199 386 169 Q420 139 467 131 L561 897 Z " />
<glyph glyph-name="sterling" unicode="&#xa3;" horiz-adv-x="994" d="M791 1323 Q682 1323 623 1238 Q564 1153 543 982 L523 820 L798 820 L783 696 L508 696 L495 589 Q486 514 473 447.5 Q460 381 444.5 325.5 Q429 270 410 227 Q391 184 369 157 L905 157 L886 0 L89 0 L107 150 Q184 213 236.5 326 Q289 439 308 591 L321 696 L172 696 L187 820 L334 820 L349 939 Q362 1047 386.5 1145 Q411 1243 460 1317.5 Q509 1392 589.5 1436 Q670 1480 796 1480 Q953 1480 1045 1405 L982 1265 Q887 1323 791 1323 Z " />
<glyph glyph-name="currency" unicode="&#xa4;" horiz-adv-x="974" d="M574 712 Q678 712 758 802 Q837 892 854 1024 Q871 1155 812 1244 Q753 1333 650 1333 Q546 1333 466 1244 Q388 1155 371 1024 Q355 893 412 802 Q470 712 574 712 Z M203 545 L169 596 L342 783 Q283 887 300 1026 Q309 1098 336 1161 Q363 1224 407 1278 L275 1473 L323 1524 L457 1328 Q551 1411 661 1411 Q769 1411 845 1329 L1025 1524 L1059 1473 L882 1280 Q945 1171 927 1026 Q911 888 825 781 L952 596 L904 545 L779 731 Q680 641 566 641 Q453 641 375 732 L203 545 Z " />
<glyph glyph-name="yen" unicode="&#xa5;" horiz-adv-x="1013" d="M151 281 L165 397 L454 397 L474 558 L185 558 L200 678 L426 678 L172 1456 L389 1456 L596 743 L976 1456 L1196 1456 L744 678 L969 678 L954 558 L665 558 L645 397 L936 397 L922 281 L631 281 L597 0 L406 0 L440 281 L151 281 Z " />
<glyph glyph-name="brokenbar" unicode="&#xa6;" horiz-adv-x="400" d="M173 648 L282 1535 L463 1535 L354 648 L173 648 Z M35 -482 L143 399 L324 399 L216 -482 L35 -482 Z " />
<glyph glyph-name="section" unicode="&#xa7;" horiz-adv-x="877" d="M543 530 Q563 555 577.5 590.5 Q592 626 600 668 Q602 676 602 684.5 Q602 693 602 701 Q602 730 597 751.5 Q592 773 586 788 Q582 807 569 818 Q556 829 539 838 Q522 847 503.5 858 Q485 869 471 888 Q458 876 444.5 858.5 Q431 841 419 820 Q407 799 398.5 775.5 Q390 752 387 727 Q382 684 396 654 Q410 624 437 601 L483 567 Q500 558 514.5 548.5 Q529 539 543 530 Z M375 -75 Q243 -75 120 -19 L139 131 Q165 114 195.5 102 Q226 90 258.5 81.5 Q291 73 322.5 69 Q354 65 383 65 Q434 65 474.5 107 Q515 149 534 225 Q541 238 543 252 Q545 282 529.5 308.5 Q514 335 484 366 L427 391 Q418 394 407 401.5 Q396 409 384 417.5 Q372 426 359 433.5 Q346 441 334 444 Q260 495 223 559.5 Q186 624 197 714 Q202 753 215 789.5 Q228 826 247 858 Q266 890 290.5 915.5 Q315 941 344 958 Q322 985 306.5 1011.5 Q291 1038 283 1066.5 Q275 1095 273 1128 Q271 1161 276 1201 Q285 1273 317 1326.5 Q349 1380 396 1415.5 Q443 1451 501 1468.5 Q559 1486 620 1486 Q737 1486 845 1446 L828 1311 Q814 1321 790 1329 Q766 1337 738.5 1342 Q711 1347 682 1349.5 Q653 1352 629 1352 Q602 1352 577 1343 Q552 1334 531 1316 Q510 1298 495.5 1271 Q481 1244 477 1208 Q470 1156 490 1111 Q502 1094 531.5 1070 Q561 1046 597 1019 Q633 992 670.5 964.5 Q708 937 735 915 L763 887 Q823 828 810 721 Q801 646 763 579.5 Q725 513 665 464 Q756 390 747 277 Q746 266 744 254.5 Q742 243 740 231 Q724 153 688 95.5 Q652 38 602.5 0 Q553 -38 494.5 -56.5 Q436 -75 375 -75 Z " />
<glyph glyph-name="dieresis" unicode="&#xa8;" horiz-adv-x="594" d="M497 1182 L520 1371 L704 1371 L681 1182 L497 1182 Z M141 1182 L164 1371 L350 1371 L327 1182 L141 1182 Z " />
<glyph glyph-name="copyright" unicode="&#xa9;" horiz-adv-x="1373" d="M653 -25 Q573 -25 500.5 0.5 Q428 26 367 74 Q306 122 258.5 189.5 Q211 257 181 340.5 Q151 424 140.5 522 Q130 620 144 728 Q157 833 191.5 929.5 Q226 1026 277 1110 Q328 1194 392.5 1262.5 Q457 1331 530 1380 Q603 1429 681.5 1456 Q760 1483 839 1483 Q922 1483 995.5 1455.5 Q1069 1428 1129.5 1378.5 Q1190 1329 1236.5 1260 Q1283 1191 1311.5 1107 Q1340 1023 1349.5 927 Q1359 831 1347 728 Q1334 625 1300.5 529.5 Q1267 434 1217 350 Q1167 266 1103 197 Q1039 128 966 78.5 Q893 29 813.5 2 Q734 -25 653 -25 Z M665 75 Q776 75 874.5 128.5 Q973 182 1049.5 272 Q1126 362 1176.5 479.5 Q1227 597 1243 725 Q1259 861 1233.5 980.5 Q1208 1100 1151 1189 Q1094 1278 1009.5 1329.5 Q925 1381 825 1381 Q747 1381 676 1355.5 Q605 1330 544 1284.5 Q483 1239 432.5 1177.5 Q382 1116 344 1043 Q306 970 281 889 Q256 808 246 725 Q229 593 255.5 475 Q282 357 339.5 268 Q397 179 481.5 127 Q566 75 665 75 Z M708 286 Q624 286 562.5 317.5 Q501 349 463.5 406 Q426 463 412.5 542.5 Q399 622 411 718 Q423 820 458.5 904 Q494 988 547 1048 Q600 1108 668.5 1140.5 Q737 1173 816 1173 Q968 1173 1042 1072 L976 970 Q911 1047 815 1047 Q718 1047 654 965 Q590 883 570 719 Q552 573 596.5 492 Q641 411 740 411 Q768 411 791.5 416 Q815 421 836.5 431 Q858 441 879 455.5 Q900 470 923 490 L956 381 Q841 286 708 286 Z " />
<glyph glyph-name="ordfeminine" unicode="&#xaa;" horiz-adv-x="680" d="M392 867 Q417 867 445.5 881.5 Q474 896 499.5 922.5 Q525 949 544 986 Q563 1023 569 1067 L571 1089 Q514 1089 471.5 1090 Q429 1091 400 1082 Q371 1073 353.5 1048.5 Q336 1024 330 974 Q324 923 343 895 Q362 867 392 867 Z M368 760 Q328 760 295 774.5 Q262 789 239 816.5 Q216 844 205.5 882.5 Q195 921 201 969 Q213 1067 280.5 1122.5 Q348 1178 469 1178 L584 1178 L589 1214 Q599 1296 577 1331.5 Q555 1367 501 1367 Q483 1367 461 1363 Q439 1359 416.5 1352.5 Q394 1346 374 1339 Q354 1332 341 1326 L313 1313 L281 1414 Q280 1415 297 1425.5 Q314 1436 347 1448.5 Q380 1461 426.5 1471 Q473 1481 530 1481 Q579 1482 620.5 1468.5 Q662 1455 691 1424.5 Q720 1394 733 1345.5 Q746 1297 738 1229 Q729 1151 719.5 1073 Q710 995 702 917 Q700 896 697.5 862.5 Q695 829 693 783 L556 783 L555 878 Q536 827 486.5 793.5 Q437 760 368 760 Z " />
<glyph glyph-name="guillemotleft" unicode="&#xab;" horiz-adv-x="931" d="M699 170 L525 543 L796 918 L949 918 L710 543 L850 170 L699 170 Z M348 170 L174 543 L445 918 L598 918 L360 543 L499 170 L348 170 Z " />
<glyph glyph-name="logicalnot" unicode="&#xac;" horiz-adv-x="1166" d="M840 234 L891 646 L216 646 L235 802 L1084 802 L1014 234 L840 234 Z " />
<glyph glyph-name="uni00AD" unicode="&#xad;" horiz-adv-x="579" d="M104 487 L122 629 L612 629 L594 487 L104 487 Z " />
<glyph glyph-name="registered" unicode="&#xae;" horiz-adv-x="1373" d="M653 -25 Q573 -25 500.5 0.5 Q428 26 367 74 Q306 122 258.5 189.5 Q211 257 181 340.5 Q151 424 140.5 522 Q130 620 144 728 Q157 833 191.5 929.5 Q226 1026 277 1110 Q328 1194 392.5 1262.5 Q457 1331 530 1380 Q603 1429 681.5 1456 Q760 1483 839 1483 Q922 1483 995.5 1455.5 Q1069 1428 1129.5 1378.5 Q1190 1329 1236.5 1260 Q1283 1191 1311.5 1107 Q1340 1023 1349.5 927 Q1359 831 1347 728 Q1334 625 1300.5 529.5 Q1267 434 1217 350 Q1167 266 1103 197 Q1039 128 966 78.5 Q893 29 813.5 2 Q734 -25 653 -25 Z M665 75 Q776 75 874.5 128.5 Q973 182 1049.5 272 Q1126 362 1176.5 479.5 Q1227 597 1243 725 Q1259 861 1233.5 980.5 Q1208 1100 1151 1189 Q1094 1278 1009.5 1329.5 Q925 1381 825 1381 Q747 1381 676 1355.5 Q605 1330 544 1284.5 Q483 1239 432.5 1177.5 Q382 1116 344 1043 Q306 970 281 889 Q256 808 246 725 Q229 593 255.5 475 Q282 357 339.5 268 Q397 179 481.5 127 Q566 75 665 75 Z M647 777 L725 777 Q767 777 798.5 783 Q830 789 852 804.5 Q874 820 887.5 846.5 Q901 873 906 914 Q912 960 909 987.5 Q906 1015 889 1030 Q872 1045 838.5 1050 Q805 1055 748 1055 L681 1055 L647 777 Z M424 278 L535 1187 L783 1187 Q948 1187 1016.5 1121.5 Q1085 1056 1069 928 Q1058 831 1014.5 768 Q971 705 892 681 L997 278 L819 278 L739 660 L633 660 L586 278 L424 278 Z " />
<glyph glyph-name="overscore" unicode="&#xaf;" horiz-adv-x="598" d="M205 1242 L220 1366 L712 1366 L697 1242 L205 1242 Z " />
<glyph glyph-name="degree" unicode="&#xb0;" horiz-adv-x="703" d="M425 854 Q323 854 260 941 Q198 1027 213 1152 Q228 1278 312 1363 Q396 1450 499 1450 Q602 1450 664 1363 Q727 1277 712 1152 Q697 1030 613 941 Q529 854 425 854 Z M439 968 Q499 968 544 1021 Q591 1076 600 1153 Q609 1232 576 1283 Q543 1336 485 1336 Q426 1336 381 1283 Q336 1229 327 1153 Q318 1074 349 1021 Q382 968 439 968 Z " />
<glyph glyph-name="plusminus" unicode="&#xb1;" horiz-adv-x="1010" d="M151 0 L167 132 L876 132 L860 0 L151 0 Z M446 255 L487 594 L225 594 L244 749 L502 749 L544 1089 L721 1089 L679 749 L945 749 L926 594 L667 594 L626 255 L446 255 Z " />
<glyph glyph-name="uni00B2" unicode="&#xb2;" horiz-adv-x="865" d="M272 619 L284 719 L528 985 Q592 1054 626 1113 Q660 1172 667 1224 Q673 1275 655 1305.5 Q637 1336 593 1336 Q550 1336 498 1304 Q446 1272 387 1212 L347 1295 Q414 1371 482.5 1413.5 Q551 1456 617 1456 Q720 1456 777 1394 Q835 1333 821 1226 Q811 1145 757.5 1065.5 Q704 986 612 894 L504 728 L752 728 L739 619 L272 619 Z " />
<glyph glyph-name="uni00B3" unicode="&#xb3;" horiz-adv-x="757" d="M482 601 Q418 601 362 625.5 Q306 650 261 696 L322 793 Q407 715 485 715 Q537 715 571 752.5 Q605 790 613 854 Q621 920 591 954.5 Q561 989 499 989 L427 989 L441 1102 L511 1102 Q562 1102 598 1132.5 Q634 1163 642 1223 Q649 1281 625 1311 Q601 1341 554 1341 Q472 1341 372 1265 L335 1357 Q398 1403 463 1429.5 Q528 1456 592 1456 Q687 1456 740 1396 Q793 1338 781 1231 Q773 1168 739.5 1119.5 Q706 1071 647 1051 Q715 1031 740.5 977 Q766 923 757 851 Q744 736 692 668 Q652 634 598.5 617.5 Q545 601 482 601 Z " />
<glyph glyph-name="acute" unicode="&#xb4;" horiz-adv-x="485" d="M151 1172 L402 1532 L640 1532 L319 1172 L151 1172 Z " />
<glyph glyph-name="mu" unicode="&#xb5;" horiz-adv-x="978" d="M785 1082 L1007 1082 L875 0 L684 0 L689 135 Q579 -20 407 -20 Q361 -20 330 23 L292 -288 L71 -288 L239 1082 L460 1082 L378 408 Q360 261 384 187 Q408 113 486 113 Q598 113 684 259 L785 1082 Z " />
<glyph glyph-name="paragraph" unicode="&#xb6;" horiz-adv-x="977" d="M291 -179 L412 813 Q287 818 228.5 901 Q170 984 189 1133 Q201 1228 237 1290.5 Q273 1353 328.5 1389.5 Q384 1426 455.5 1441 Q527 1456 610 1456 L996 1456 L979 1315 L915 1315 L732 -179 L581 -179 L764 1315 L625 1315 L442 -179 L291 -179 Z " />
<glyph glyph-name="middot" unicode="&#xb7;" horiz-adv-x="460" d="M231 517 L256 717 L479 717 L454 517 L231 517 Z " />
<glyph glyph-name="cedilla" unicode="&#xb8;" horiz-adv-x="423" d="M104 -447 Q12 -447 -62 -419 L-41 -322 Q-29 -326 -13.5 -331 Q2 -336 20 -340 Q38 -344 56 -346.5 Q74 -349 91 -349 Q132 -349 154.5 -329.5 Q177 -310 182 -274 Q186 -240 158.5 -213.5 Q131 -187 70 -187 L48 -187 L97 9 L191 9 L160 -119 Q245 -130 286 -171 Q327 -212 319 -279 Q314 -321 294.5 -352.5 Q275 -384 245.5 -405 Q216 -426 179.5 -436.5 Q143 -447 104 -447 Z " />
<glyph glyph-name="uni00B9" unicode="&#xb9;" horiz-adv-x="720" d="M228 618 L243 736 L404 736 L472 1291 Q474 1289 463 1287 Q452 1285 435 1282 Q418 1279 397.5 1275.5 Q377 1272 360 1268 L292 1225 L308 1352 Q340 1355 377 1367 Q414 1379 446 1392.5 Q478 1406 499 1418 Q520 1430 520 1433 L639 1441 L553 733 L695 733 L680 618 L228 618 Z " />
<glyph glyph-name="ordmasculine" unicode="&#xba;" horiz-adv-x="725" d="M457 752 Q384 752 330.5 778.5 Q277 805 243.5 852.5 Q210 900 197.5 966 Q185 1032 195 1111 Q204 1187 233.5 1252 Q263 1317 308.5 1364.5 Q354 1412 413.5 1439 Q473 1466 543 1466 Q613 1466 666 1439 Q719 1412 752 1364 Q785 1316 798 1250.5 Q811 1185 801 1107 Q792 1032 763.5 967.5 Q735 903 690.5 855 Q646 807 586.5 779.5 Q527 752 457 752 Z M471 879 Q506 879 537 895 Q568 911 592 940.5 Q616 970 632.5 1012 Q649 1054 655 1105 Q669 1213 634.5 1274.5 Q600 1336 528 1336 Q493 1336 462 1320 Q431 1304 407 1274.5 Q383 1245 366 1203 Q349 1161 343 1109 Q329 1000 362.5 939.5 Q396 879 471 879 Z " />
<glyph glyph-name="guillemotright" unicode="&#xbb;" horiz-adv-x="930" d="M478 168 L717 543 L576 916 L728 916 L902 543 L631 168 L478 168 Z M127 168 L366 543 L226 916 L377 916 L552 543 L281 168 L127 168 Z " />
<glyph glyph-name="onequarter" unicode="&#xbc;" horiz-adv-x="1663" d="M1224 300 L1379 300 L1421 643 L1224 300 Z M477 0 L1366 1456 L1526 1456 L638 0 L477 0 Z M1345 0 L1368 190 L1071 190 L1082 285 L1441 800 L1578 800 L1516 300 L1608 300 L1595 190 L1503 190 L1480 0 L1345 0 Z M254 631 L268 744 L429 744 L499 1317 L320 1253 Q324 1282 327.5 1312 Q331 1342 335 1371 Q357 1373 383.5 1383 Q410 1393 441 1412 Q489 1430 518 1441 Q547 1452 546 1456 L663 1456 L576 742 L717 742 L703 631 L254 631 Z " />
<glyph glyph-name="onehalf" unicode="&#xbd;" horiz-adv-x="1961" d="M235 631 L249 744 L409 744 L479 1317 L301 1253 Q305 1282 308.5 1312 Q312 1342 316 1371 Q338 1373 364.5 1383 Q391 1393 422 1412 Q470 1430 499 1441 Q528 1452 527 1456 L644 1456 L557 742 L698 742 L684 631 L235 631 Z M476 0 L1365 1456 L1525 1456 L637 0 L476 0 Z M1567 840 Q1615 840 1654.5 823 Q1694 806 1721 774.5 Q1748 743 1760.5 696.5 Q1773 650 1768 592 Q1762 539 1745.5 498.5 Q1729 458 1702.5 422 Q1676 386 1640.5 350.5 Q1605 315 1560 272 L1453 124 L1702 124 L1687 0 L1222 0 L1237 126 L1486 377 Q1521 415 1544.5 443.5 Q1568 472 1582.5 495.5 Q1597 519 1605 541 Q1613 563 1616 589 Q1623 647 1604.5 680.5 Q1586 714 1541 714 Q1496 714 1445 683 Q1394 652 1338 597 L1297 692 Q1363 762 1431.5 801 Q1500 840 1567 840 Z " />
<glyph glyph-name="threequarters" unicode="&#xbe;" horiz-adv-x="1948" d="M1245 300 L1400 300 L1442 643 L1245 300 Z M496 0 L1386 1456 L1546 1456 L658 0 L496 0 Z M1366 0 L1389 190 L1092 190 L1103 285 L1461 800 L1599 800 L1537 300 L1628 300 L1615 190 L1524 190 L1501 0 L1366 0 Z M491 603 Q358 603 270 697 L330 792 Q415 715 493 715 Q545 715 579.5 755.5 Q614 796 622 859 Q630 922 599 955.5 Q568 989 506 989 L435 989 L449 1100 L518 1100 Q569 1100 605.5 1133.5 Q642 1167 650 1224 Q657 1281 635 1315 Q613 1349 564 1349 Q481 1349 382 1274 L345 1362 Q408 1407 473 1432.5 Q538 1458 601 1458 Q695 1458 748 1399 Q801 1340 788 1236 Q781 1178 747.5 1129.5 Q714 1081 654 1057 Q722 1033 747.5 979.5 Q773 926 765 857 Q750 739 672 670 Q593 603 491 603 Z " />
<glyph glyph-name="questiondown" unicode="&#xbf;" horiz-adv-x="826" d="M702 1136 L675 915 L449 915 L476 1136 L702 1136 Z M626 753 L609 611 Q603 564 585.5 523 Q568 482 543.5 444.5 Q519 407 489 372.5 Q459 338 429 303 Q398 269 368.5 235 Q339 201 314 165.5 Q289 130 272 91 Q255 52 250 9 Q237 -92 279 -139.5 Q321 -187 398 -187 Q428 -187 462.5 -180 Q497 -173 530.5 -162.5 Q564 -152 594.5 -138.5 Q625 -125 646 -113 L625 -279 Q569 -307 500.5 -327 Q432 -347 359 -347 Q282 -347 221.5 -322.5 Q161 -298 121 -252 Q81 -206 63.5 -142 Q46 -78 56 2 Q61 44 75.5 82 Q90 120 111.5 154.5 Q133 189 159 220.5 Q185 252 214 281 Q253 325 294.5 367.5 Q336 410 371.5 455 Q407 500 432.5 548.5 Q458 597 465 654 L477 753 L626 753 Z " />
<glyph glyph-name="Agrave" unicode="&#xc0;" horiz-adv-x="1155" d="M665 1603 L432 1963 L672 1963 L834 1603 L665 1603 Z M775 545 Q749 725 729.5 902 Q710 1079 696 1256 Q641 1076 577 899.5 Q513 723 439 545 L775 545 Z M-17 0 L625 1456 L821 1456 L1111 0 L897 0 L829 389 L352 389 L193 0 L-17 0 Z " />
<glyph glyph-name="Aacute" unicode="&#xc1;" horiz-adv-x="1155" d="M664 1602 L914 1962 L1153 1962 L832 1602 L664 1602 Z M775 545 Q749 725 729.5 902 Q710 1079 696 1256 Q641 1076 577 899.5 Q513 723 439 545 L775 545 Z M-17 0 L625 1456 L821 1456 L1111 0 L897 0 L829 389 L352 389 L193 0 L-17 0 Z " />
<glyph glyph-name="Acircumflex" unicode="&#xc2;" horiz-adv-x="1155" d="M476 1584 L720 1931 L904 1931 L1067 1584 L887 1584 L801 1802 L658 1584 L476 1584 Z M805 545 Q779 725 759.5 902 Q740 1079 726 1256 Q671 1076 607 899.5 Q543 723 469 545 L805 545 Z M13 0 L655 1456 L851 1456 L1141 0 L927 0 L859 389 L382 389 L223 0 L13 0 Z " />
<glyph glyph-name="Atilde" unicode="&#xc3;" horiz-adv-x="1155" d="M812 1605 Q796 1605 776.5 1612.5 Q757 1620 735.5 1631 Q714 1642 692.5 1655.5 Q671 1669 652 1680 Q633 1691 617 1698.5 Q601 1706 592 1706 Q573 1706 554.5 1683 Q536 1660 526 1613 L407 1613 Q413 1667 430.5 1710 Q448 1753 473.5 1783 Q499 1813 531.5 1829.5 Q564 1846 602 1846 Q631 1846 663 1834 Q695 1822 724 1806.5 Q753 1791 777 1775 Q801 1759 813 1751 Q816 1748 820.5 1746.5 Q825 1745 828 1745 Q852 1745 867 1767 Q882 1789 889 1844 L1011 1844 Q997 1732 945 1668.5 Q893 1605 812 1605 Z M775 545 Q749 725 729.5 902 Q710 1079 696 1256 Q641 1076 577 899.5 Q513 723 439 545 L775 545 Z M-17 0 L625 1456 L821 1456 L1111 0 L897 0 L829 389 L352 389 L193 0 L-17 0 Z " />
<glyph glyph-name="Adieresis" unicode="&#xc4;" horiz-adv-x="1155" d="M837 1612 L861 1801 L1045 1801 L1021 1612 L837 1612 Z M481 1612 L505 1801 L691 1801 L667 1612 L481 1612 Z M785 545 Q759 725 739.5 902 Q720 1079 706 1256 Q651 1076 587 899.5 Q523 723 449 545 L785 545 Z M-7 0 L635 1456 L831 1456 L1121 0 L907 0 L839 389 L362 389 L203 0 L-7 0 Z " />
<glyph glyph-name="Aring" unicode="&#xc5;" horiz-adv-x="1155" d="M747 1567 Q711 1567 681.5 1582 Q652 1597 631.5 1623 Q611 1649 602 1685 Q593 1721 598 1762 Q603 1804 621 1839.5 Q639 1875 666 1901 Q693 1927 726 1942 Q759 1957 795 1957 Q830 1957 859.5 1942 Q889 1927 909.5 1901 Q930 1875 939.5 1839.5 Q949 1804 944 1762 Q939 1721 920.5 1685 Q902 1649 875.5 1623 Q849 1597 815.5 1582 Q782 1567 747 1567 Z M757 1652 Q774 1652 791 1660.5 Q808 1669 821.5 1684 Q835 1699 844.5 1719 Q854 1739 857 1762 Q862 1809 840.5 1840.5 Q819 1872 784 1872 Q767 1872 750.5 1863.5 Q734 1855 720.5 1840 Q707 1825 698 1805 Q689 1785 686 1762 Q683 1739 687 1719 Q691 1699 701 1684 Q711 1669 725 1660.5 Q739 1652 757 1652 Z M785 545 Q759 725 739.5 902 Q720 1079 706 1256 Q651 1076 587 899.5 Q523 723 449 545 L785 545 Z M-7 0 L635 1456 L831 1456 L1121 0 L907 0 L839 389 L362 389 L203 0 L-7 0 Z " />
<glyph glyph-name="AE" unicode="&#xc6;" horiz-adv-x="1743" d="M557 548 L942 548 L993 1291 L964 1291 L557 548 Z M16 0 L884 1456 L1738 1456 L1718 1291 L1186 1291 L1157 829 L1654 829 L1635 671 L1158 671 L1129 163 L1601 163 L1581 0 L913 0 L937 401 L465 401 L249 0 L16 0 Z " />
<glyph glyph-name="Ccedilla" unicode="&#xc7;" horiz-adv-x="1141" d="M594 -447 Q501 -447 427 -419 L448 -322 Q460 -326 475.5 -331 Q491 -336 509 -340 Q527 -344 545 -346.5 Q563 -349 580 -349 Q621 -349 644 -329.5 Q667 -310 672 -274 Q676 -240 648.5 -213.5 Q621 -187 559 -187 L537 -187 L575 -19 Q469 -9 380.5 44 Q292 97 232 190 Q172 283 146.5 415 Q121 547 142 716 Q156 830 190.5 931.5 Q225 1033 274 1118 Q323 1203 384.5 1270.5 Q446 1338 514.5 1385 Q583 1432 656.5 1457 Q730 1482 803 1482 Q1029 1482 1169 1332 L1078 1202 Q961 1321 800 1321 Q719 1321 643.5 1273 Q568 1225 506 1143 Q444 1061 401 951 Q358 841 343 718 Q326 585 342.5 478 Q359 371 402 295.5 Q445 220 512 179.5 Q579 139 665 139 Q840 139 1005 283 L1051 131 Q878 -14 670 -21 L650 -119 Q735 -130 776 -171 Q817 -212 809 -279 Q804 -321 784.5 -352.5 Q765 -384 735.5 -405 Q706 -426 669.5 -436.5 Q633 -447 594 -447 Z " />
<glyph glyph-name="Egrave" unicode="&#xc8;" horiz-adv-x="991" d="M618 1603 L385 1963 L624 1963 L786 1603 L618 1603 Z M124 0 L302 1456 L1028 1456 L1009 1295 L474 1295 L417 837 L923 837 L903 675 L399 675 L336 161 L893 161 L874 0 L124 0 Z " />
<glyph glyph-name="Eacute" unicode="&#xc9;" horiz-adv-x="991" d="M617 1602 L866 1962 L1105 1962 L785 1602 L617 1602 Z M124 0 L302 1456 L1028 1456 L1009 1295 L474 1295 L417 837 L923 837 L903 675 L399 675 L336 161 L893 161 L874 0 L124 0 Z " />
<glyph glyph-name="Ecircumflex" unicode="&#xca;" horiz-adv-x="991" d="M398 1584 L642 1931 L826 1931 L990 1584 L810 1584 L723 1802 L580 1584 L398 1584 Z M124 0 L302 1456 L1028 1456 L1009 1295 L474 1295 L417 837 L923 837 L903 675 L399 675 L336 161 L893 161 L874 0 L124 0 Z " />
<glyph glyph-name="Edieresis" unicode="&#xcb;" horiz-adv-x="991" d="M779 1612 L803 1801 L987 1801 L963 1612 L779 1612 Z M423 1612 L447 1801 L633 1801 L609 1612 L423 1612 Z M124 0 L302 1456 L1028 1456 L1009 1295 L474 1295 L417 837 L923 837 L903 675 L399 675 L336 161 L893 161 L874 0 L124 0 Z " />
<glyph glyph-name="Igrave" unicode="&#xcc;" horiz-adv-x="472" d="M323 1603 L90 1963 L329 1963 L492 1603 L323 1603 Z M109 0 L287 1456 L478 1456 L300 0 L109 0 Z " />
<glyph glyph-name="Iacute" unicode="&#xcd;" horiz-adv-x="472" d="M322 1602 L571 1962 L810 1962 L490 1602 L322 1602 Z M109 0 L287 1456 L478 1456 L300 0 L109 0 Z " />
<glyph glyph-name="Icircumflex" unicode="&#xce;" horiz-adv-x="472" d="M103 1584 L347 1931 L531 1931 L694 1584 L514 1584 L428 1802 L285 1584 L103 1584 Z M109 0 L287 1456 L478 1456 L300 0 L109 0 Z " />
<glyph glyph-name="Idieresis" unicode="&#xcf;" horiz-adv-x="472" d="M484 1612 L508 1801 L692 1801 L668 1612 L484 1612 Z M128 1612 L152 1801 L338 1801 L314 1612 L128 1612 Z M109 0 L287 1456 L478 1456 L300 0 L109 0 Z " />
<glyph glyph-name="Eth" unicode="&#xd0;" horiz-adv-x="1251" d="M124 0 L210 704 L81 704 L98 846 L227 846 L302 1456 L618 1456 Q964 1456 1117 1278 Q1270 1100 1224 726 Q1203 552 1143.5 417 Q1084 282 989.5 189 Q895 96 766 48 Q637 0 477 0 L124 0 Z M418 846 L582 846 L565 704 L401 704 L334 161 L506 161 Q614 161 702 198.5 Q790 236 855.5 308.5 Q921 381 963 486 Q1005 591 1022 726 Q1057 1017 957 1156 Q857 1295 616 1295 L474 1295 L418 846 Z " />
<glyph glyph-name="Ntilde" unicode="&#xd1;" horiz-adv-x="1298" d="M898 1605 Q882 1605 862.5 1612.5 Q843 1620 821.5 1631 Q800 1642 778.5 1655.5 Q757 1669 738 1680 Q719 1691 703.5 1698.5 Q688 1706 679 1706 Q659 1706 640.5 1683 Q622 1660 613 1613 L493 1613 Q499 1667 516.5 1710 Q534 1753 559.5 1783 Q585 1813 618 1829.5 Q651 1846 688 1846 Q717 1846 749 1834 Q781 1822 810 1806.5 Q839 1791 863 1775 Q887 1759 899 1751 Q906 1745 914 1745 Q939 1745 954 1767 Q969 1789 975 1844 L1097 1844 Q1083 1732 1031 1668.5 Q979 1605 898 1605 Z M124 0 L302 1456 L505 1456 L889 432 L964 262 L1110 1456 L1292 1456 L1114 0 L910 0 L518 986 L446 1186 L301 0 L124 0 Z " />
<glyph glyph-name="Ograve" unicode="&#xd2;" horiz-adv-x="1328" d="M753 1603 L520 1963 L759 1963 L922 1603 L753 1603 Z M634 -22 Q499 -22 397.5 31 Q296 84 232.5 181.5 Q169 279 146 418 Q123 557 144 729 Q165 900 223 1039 Q281 1178 369 1276.5 Q457 1375 571.5 1428.5 Q686 1482 821 1482 Q952 1482 1051.5 1427 Q1151 1372 1213.5 1273 Q1276 1174 1299.5 1035.5 Q1323 897 1302 729 Q1281 558 1224.5 419.5 Q1168 281 1082 183 Q996 85 882.5 31.5 Q769 -22 634 -22 Z M650 139 Q742 139 816.5 180 Q891 221 947.5 297.5 Q1004 374 1041 483 Q1078 592 1095 729 Q1111 862 1100.5 971 Q1090 1080 1053 1158 Q1016 1236 952 1278.5 Q888 1321 798 1321 Q708 1321 632.5 1278.5 Q557 1236 499.5 1158 Q442 1080 404 971 Q366 862 350 729 Q333 592 343.5 483 Q354 374 391.5 297.5 Q429 221 493.5 180 Q558 139 650 139 Z " />
<glyph glyph-name="Oacute" unicode="&#xd3;" horiz-adv-x="1328" d="M752 1602 L1002 1962 L1240 1962 L920 1602 L752 1602 Z M634 -22 Q499 -22 397.5 31 Q296 84 232.5 181.5 Q169 279 146 418 Q123 557 144 729 Q165 900 223 1039 Q281 1178 369 1276.5 Q457 1375 571.5 1428.5 Q686 1482 821 1482 Q952 1482 1051.5 1427 Q1151 1372 1213.5 1273 Q1276 1174 1299.5 1035.5 Q1323 897 1302 729 Q1281 558 1224.5 419.5 Q1168 281 1082 183 Q996 85 882.5 31.5 Q769 -22 634 -22 Z M650 139 Q742 139 816.5 180 Q891 221 947.5 297.5 Q1004 374 1041 483 Q1078 592 1095 729 Q1111 862 1100.5 971 Q1090 1080 1053 1158 Q1016 1236 952 1278.5 Q888 1321 798 1321 Q708 1321 632.5 1278.5 Q557 1236 499.5 1158 Q442 1080 404 971 Q366 862 350 729 Q333 592 343.5 483 Q354 374 391.5 297.5 Q429 221 493.5 180 Q558 139 650 139 Z " />
<glyph glyph-name="Ocircumflex" unicode="&#xd4;" horiz-adv-x="1328" d="M534 1584 L778 1931 L962 1931 L1125 1584 L945 1584 L859 1802 L715 1584 L534 1584 Z M634 -22 Q499 -22 397.5 31 Q296 84 232.5 181.5 Q169 279 146 418 Q123 557 144 729 Q165 900 223 1039 Q281 1178 369 1276.5 Q457 1375 571.5 1428.5 Q686 1482 821 1482 Q952 1482 1051.5 1427 Q1151 1372 1213.5 1273 Q1276 1174 1299.5 1035.5 Q1323 897 1302 729 Q1281 558 1224.5 419.5 Q1168 281 1082 183 Q996 85 882.5 31.5 Q769 -22 634 -22 Z M650 139 Q742 139 816.5 180 Q891 221 947.5 297.5 Q1004 374 1041 483 Q1078 592 1095 729 Q1111 862 1100.5 971 Q1090 1080 1053 1158 Q1016 1236 952 1278.5 Q888 1321 798 1321 Q708 1321 632.5 1278.5 Q557 1236 499.5 1158 Q442 1080 404 971 Q366 862 350 729 Q333 592 343.5 483 Q354 374 391.5 297.5 Q429 221 493.5 180 Q558 139 650 139 Z " />
<glyph glyph-name="Otilde" unicode="&#xd5;" horiz-adv-x="1328" d="M900 1605 Q884 1605 864.5 1612.5 Q845 1620 823.5 1631 Q802 1642 780.5 1655.5 Q759 1669 740 1680 Q721 1691 705 1698.5 Q689 1706 680 1706 Q661 1706 642.5 1683 Q624 1660 614 1613 L494 1613 Q500 1667 517.5 1710 Q535 1753 561 1783 Q587 1813 619.5 1829.5 Q652 1846 690 1846 Q719 1846 751 1834 Q783 1822 812 1806.5 Q841 1791 864.5 1775 Q888 1759 900 1751 Q904 1748 908.5 1746.5 Q913 1745 916 1745 Q940 1745 955 1767 Q970 1789 977 1844 L1099 1844 Q1085 1732 1033 1668.5 Q981 1605 900 1605 Z M634 -22 Q499 -22 397.5 31 Q296 84 232.5 181.5 Q169 279 146 418 Q123 557 144 729 Q165 900 223 1039 Q281 1178 369 1276.5 Q457 1375 571.5 1428.5 Q686 1482 821 1482 Q952 1482 1051.5 1427 Q1151 1372 1213.5 1273 Q1276 1174 1299.5 1035.5 Q1323 897 1302 729 Q1281 558 1224.5 419.5 Q1168 281 1082 183 Q996 85 882.5 31.5 Q769 -22 634 -22 Z M650 139 Q742 139 816.5 180 Q891 221 947.5 297.5 Q1004 374 1041 483 Q1078 592 1095 729 Q1111 862 1100.5 971 Q1090 1080 1053 1158 Q1016 1236 952 1278.5 Q888 1321 798 1321 Q708 1321 632.5 1278.5 Q557 1236 499.5 1158 Q442 1080 404 971 Q366 862 350 729 Q333 592 343.5 483 Q354 374 391.5 297.5 Q429 221 493.5 180 Q558 139 650 139 Z " />
<glyph glyph-name="Odieresis" unicode="&#xd6;" horiz-adv-x="1328" d="M914 1612 L938 1801 L1123 1801 L1099 1612 L914 1612 Z M559 1612 L583 1801 L769 1801 L745 1612 L559 1612 Z M634 -22 Q499 -22 397.5 31 Q296 84 232.5 181.5 Q169 279 146 418 Q123 557 144 729 Q165 900 223 1039 Q281 1178 369 1276.5 Q457 1375 571.5 1428.5 Q686 1482 821 1482 Q952 1482 1051.5 1427 Q1151 1372 1213.5 1273 Q1276 1174 1299.5 1035.5 Q1323 897 1302 729 Q1281 558 1224.5 419.5 Q1168 281 1082 183 Q996 85 882.5 31.5 Q769 -22 634 -22 Z M650 139 Q742 139 816.5 180 Q891 221 947.5 297.5 Q1004 374 1041 483 Q1078 592 1095 729 Q1111 862 1100.5 971 Q1090 1080 1053 1158 Q1016 1236 952 1278.5 Q888 1321 798 1321 Q708 1321 632.5 1278.5 Q557 1236 499.5 1158 Q442 1080 404 971 Q366 862 350 729 Q333 592 343.5 483 Q354 374 391.5 297.5 Q429 221 493.5 180 Q558 139 650 139 Z " />
<glyph glyph-name="multiply" unicode="&#xd7;" horiz-adv-x="1010" d="M301 145 L196 262 L450 553 L267 842 L401 960 L586 670 L841 960 L947 842 L691 553 L876 263 L741 145 L557 433 L301 145 Z " />
<glyph glyph-name="Oslash" unicode="&#xd8;" horiz-adv-x="1328" d="M664 -22 Q531 -22 428 34 L339 -131 L257 -83 L346 81 Q236 175 191.5 340.5 Q147 506 174 729 Q195 900 253 1039.5 Q311 1179 399 1277 Q487 1375 601.5 1428.5 Q716 1482 851 1482 Q985 1482 1085 1417 L1168 1572 L1250 1525 L1165 1366 Q1272 1269 1315 1105.5 Q1358 942 1332 729 Q1311 558 1254.5 419.5 Q1198 281 1112 183 Q1026 85 912.5 31.5 Q799 -22 664 -22 Z M526 183 Q590 139 680 139 Q771 139 846 180 Q921 221 977 297.5 Q1033 374 1070.5 483 Q1108 592 1125 729 Q1145 886 1128.5 1008 Q1112 1130 1060 1208 L526 183 Z M986 1268 Q954 1294 915 1307.5 Q876 1321 828 1321 Q738 1321 662.5 1278.5 Q587 1236 529.5 1158 Q472 1080 434 971 Q396 862 380 729 Q360 563 376.5 438 Q393 313 450 238 L986 1268 Z " />
<glyph glyph-name="Ugrave" unicode="&#xd9;" horiz-adv-x="1205" d="M684 1603 L451 1963 L690 1963 L852 1603 L684 1603 Z M569 -22 Q432 -22 346 13.5 Q260 49 215 121 Q170 193 161 302.5 Q152 412 170 560 L280 1456 L471 1456 L361 556 Q348 449 359 370.5 Q370 292 400.5 240.5 Q431 189 479 164 Q527 139 589 139 Q718 139 805.5 242.5 Q893 346 918 552 L1029 1456 L1220 1456 L1111 562 Q1094 429 1060 321 Q1026 213 963.5 137 Q901 61 805 19.5 Q709 -22 569 -22 Z " />
<glyph glyph-name="Uacute" unicode="&#xda;" horiz-adv-x="1205" d="M683 1602 L932 1962 L1171 1962 L851 1602 L683 1602 Z M569 -22 Q432 -22 346 13.5 Q260 49 215 121 Q170 193 161 302.5 Q152 412 170 560 L280 1456 L471 1456 L361 556 Q348 449 359 370.5 Q370 292 400.5 240.5 Q431 189 479 164 Q527 139 589 139 Q718 139 805.5 242.5 Q893 346 918 552 L1029 1456 L1220 1456 L1111 562 Q1094 429 1060 321 Q1026 213 963.5 137 Q901 61 805 19.5 Q709 -22 569 -22 Z " />
<glyph glyph-name="Ucircumflex" unicode="&#xdb;" horiz-adv-x="1205" d="M464 1584 L708 1931 L892 1931 L1056 1584 L876 1584 L789 1802 L646 1584 L464 1584 Z M569 -22 Q432 -22 346 13.5 Q260 49 215 121 Q170 193 161 302.5 Q152 412 170 560 L280 1456 L471 1456 L361 556 Q348 449 359 370.5 Q370 292 400.5 240.5 Q431 189 479 164 Q527 139 589 139 Q718 139 805.5 242.5 Q893 346 918 552 L1029 1456 L1220 1456 L1111 562 Q1094 429 1060 321 Q1026 213 963.5 137 Q901 61 805 19.5 Q709 -22 569 -22 Z " />
<glyph glyph-name="Udieresis" unicode="&#xdc;" horiz-adv-x="1205" d="M845 1612 L869 1801 L1054 1801 L1030 1612 L845 1612 Z M489 1612 L513 1801 L699 1801 L675 1612 L489 1612 Z M569 -22 Q432 -22 346 13.5 Q260 49 215 121 Q170 193 161 302.5 Q152 412 170 560 L280 1456 L471 1456 L361 556 Q348 449 359 370.5 Q370 292 400.5 240.5 Q431 189 479 164 Q527 139 589 139 Q718 139 805.5 242.5 Q893 346 918 552 L1029 1456 L1220 1456 L1111 562 Q1094 429 1060 321 Q1026 213 963.5 137 Q901 61 805 19.5 Q709 -22 569 -22 Z " />
<glyph glyph-name="Yacute" unicode="&#xdd;" horiz-adv-x="1017" d="M607 1602 L857 1962 L1096 1962 L775 1602 L607 1602 Z M377 0 L447 575 L144 1456 L360 1456 L567 743 L947 1456 L1168 1456 L638 578 L568 0 L377 0 Z " />
<glyph glyph-name="Thorn" unicode="&#xde;" horiz-adv-x="1036" d="M375 508 L558 508 Q677 508 746.5 574 Q816 640 833 776 Q843 857 831 910 Q819 963 787 994.5 Q755 1026 705 1038.5 Q655 1051 588 1051 L442 1051 L375 508 Z M124 0 L302 1456 L492 1456 L462 1212 L598 1212 Q703 1212 790.5 1196 Q878 1180 938.5 1132.5 Q999 1085 1026.5 1000 Q1054 915 1039 777 Q1025 662 976.5 580.5 Q928 499 856.5 447 Q785 395 696 371 Q607 347 512 347 L355 347 L313 0 L124 0 Z " />
<glyph glyph-name="germandbls" unicode="&#xdf;" horiz-adv-x="1009" d="M533 124 Q574 124 613 138 Q741 179 759 331 Q768 400 759 457 Q750 514 721.5 564 Q693 614 642 659.5 Q591 705 516 751 L533 891 Q574 916 609.5 945 Q645 974 672.5 1008.5 Q700 1043 718 1084 Q736 1125 742 1174 Q747 1216 740 1249.5 Q733 1283 716.5 1306.5 Q700 1330 675.5 1342.5 Q651 1355 621 1355 Q579 1355 542.5 1332.5 Q506 1310 477 1267.5 Q448 1225 427.5 1164.5 Q407 1104 398 1028 L272 0 L91 0 L214 1026 Q228 1142 264 1231 Q300 1320 355 1380.5 Q410 1441 481.5 1472 Q553 1503 639 1503 Q714 1503 774.5 1480 Q835 1457 875.5 1414.5 Q916 1372 934.5 1312.5 Q953 1253 944 1181 Q932 1087 885.5 1019 Q839 951 762 900 Q739 880 713.5 862.5 Q688 845 658 827 Q675 823 691 817.5 Q707 812 724 805 Q785 768 834 721 Q883 674 915.5 616.5 Q948 559 962 490.5 Q976 422 966 343 Q956 261 925 193.5 Q894 126 848 77.5 Q802 29 744.5 2.5 Q687 -24 624 -24 Q586 -24 548.5 -20 Q511 -16 478 -8.5 Q445 -1 417.5 10.5 Q390 22 372 37 L422 182 Q430 178 439.5 168.5 Q449 159 462.5 149 Q476 139 493 131.5 Q510 124 533 124 Z " />
<glyph glyph-name="agrave" unicode="&#xe0;" horiz-adv-x="1030" d="M570 1173 L336 1533 L575 1533 L738 1173 L570 1173 Z M495 128 Q554 128 600.5 156 Q647 184 681 235.5 Q715 287 737 359.5 Q759 432 770 521 Q780 605 774.5 675 Q769 745 746.5 795.5 Q724 846 684 874 Q644 902 586 902 Q528 902 480.5 874 Q433 846 397 795 Q361 744 337 673.5 Q313 603 303 518 Q292 433 298.5 361.5 Q305 290 328.5 238 Q352 186 393.5 157 Q435 128 495 128 Z M453 -22 Q353 -22 283 20.5 Q213 63 172 136 Q131 209 117.5 306.5 Q104 404 117 513 Q132 630 170.5 728.5 Q209 827 270 899 Q331 971 412 1011.5 Q493 1052 592 1052 Q630 1052 663 1037.5 Q696 1023 723 998 Q750 973 770.5 938 Q791 903 806 863 L826 1026 L1009 1026 L884 0 L697 0 L718 175 Q664 82 597 30 Q530 -22 453 -22 Z " />
<glyph glyph-name="aacute" unicode="&#xe1;" horiz-adv-x="1030" d="M567 1172 L818 1532 L1056 1532 L735 1172 L567 1172 Z M495 128 Q554 128 600.5 156 Q647 184 681 235.5 Q715 287 737 359.5 Q759 432 770 521 Q780 605 774.5 675 Q769 745 746.5 795.5 Q724 846 684 874 Q644 902 586 902 Q528 902 480.5 874 Q433 846 397 795 Q361 744 337 673.5 Q313 603 303 518 Q292 433 298.5 361.5 Q305 290 328.5 238 Q352 186 393.5 157 Q435 128 495 128 Z M453 -22 Q353 -22 283 20.5 Q213 63 172 136 Q131 209 117.5 306.5 Q104 404 117 513 Q132 630 170.5 728.5 Q209 827 270 899 Q331 971 412 1011.5 Q493 1052 592 1052 Q630 1052 663 1037.5 Q696 1023 723 998 Q750 973 770.5 938 Q791 903 806 863 L826 1026 L1009 1026 L884 0 L697 0 L718 175 Q664 82 597 30 Q530 -22 453 -22 Z " />
<glyph glyph-name="acircumflex" unicode="&#xe2;" horiz-adv-x="1030" d="M349 1154 L593 1501 L777 1501 L940 1154 L760 1154 L673 1372 L530 1154 L349 1154 Z M495 128 Q554 128 600.5 156 Q647 184 681 235.5 Q715 287 737 359.5 Q759 432 770 521 Q780 605 774.5 675 Q769 745 746.5 795.5 Q724 846 684 874 Q644 902 586 902 Q528 902 480.5 874 Q433 846 397 795 Q361 744 337 673.5 Q313 603 303 518 Q292 433 298.5 361.5 Q305 290 328.5 238 Q352 186 393.5 157 Q435 128 495 128 Z M453 -22 Q353 -22 283 20.5 Q213 63 172 136 Q131 209 117.5 306.5 Q104 404 117 513 Q132 630 170.5 728.5 Q209 827 270 899 Q331 971 412 1011.5 Q493 1052 592 1052 Q630 1052 663 1037.5 Q696 1023 723 998 Q750 973 770.5 938 Q791 903 806 863 L826 1026 L1009 1026 L884 0 L697 0 L718 175 Q664 82 597 30 Q530 -22 453 -22 Z " />
<glyph glyph-name="atilde" unicode="&#xe3;" horiz-adv-x="1030" d="M715 1175 Q699 1175 679.5 1182.5 Q660 1190 638.5 1201 Q617 1212 595.5 1225.5 Q574 1239 555 1250 Q536 1261 520 1268.5 Q504 1276 495 1276 Q476 1276 457.5 1253 Q439 1230 429 1183 L309 1183 Q315 1237 332.5 1280 Q350 1323 375.5 1353 Q401 1383 434 1399.5 Q467 1416 504 1416 Q533 1416 565 1404 Q597 1392 626.5 1376.5 Q656 1361 679.5 1345 Q703 1329 716 1321 Q719 1318 723.5 1316.5 Q728 1315 731 1315 Q755 1315 770 1337 Q785 1359 792 1414 L914 1414 Q900 1302 847.5 1238.5 Q795 1175 715 1175 Z M495 128 Q554 128 600.5 156 Q647 184 681 235.5 Q715 287 737 359.5 Q759 432 770 521 Q780 605 774.5 675 Q769 745 746.5 795.5 Q724 846 684 874 Q644 902 586 902 Q528 902 480.5 874 Q433 846 397 795 Q361 744 337 673.5 Q313 603 303 518 Q292 433 298.5 361.5 Q305 290 328.5 238 Q352 186 393.5 157 Q435 128 495 128 Z M453 -22 Q353 -22 283 20.5 Q213 63 172 136 Q131 209 117.5 306.5 Q104 404 117 513 Q132 630 170.5 728.5 Q209 827 270 899 Q331 971 412 1011.5 Q493 1052 592 1052 Q630 1052 663 1037.5 Q696 1023 723 998 Q750 973 770.5 938 Q791 903 806 863 L826 1026 L1009 1026 L884 0 L697 0 L718 175 Q664 82 597 30 Q530 -22 453 -22 Z " />
<glyph glyph-name="adieresis" unicode="&#xe4;" horiz-adv-x="1030" d="M731 1182 L754 1371 L938 1371 L915 1182 L731 1182 Z M375 1182 L398 1371 L584 1371 L561 1182 L375 1182 Z M495 128 Q554 128 600.5 156 Q647 184 681 235.5 Q715 287 737 359.5 Q759 432 770 521 Q780 605 774.5 675 Q769 745 746.5 795.5 Q724 846 684 874 Q644 902 586 902 Q528 902 480.5 874 Q433 846 397 795 Q361 744 337 673.5 Q313 603 303 518 Q292 433 298.5 361.5 Q305 290 328.5 238 Q352 186 393.5 157 Q435 128 495 128 Z M453 -22 Q353 -22 283 20.5 Q213 63 172 136 Q131 209 117.5 306.5 Q104 404 117 513 Q132 630 170.5 728.5 Q209 827 270 899 Q331 971 412 1011.5 Q493 1052 592 1052 Q630 1052 663 1037.5 Q696 1023 723 998 Q750 973 770.5 938 Q791 903 806 863 L826 1026 L1009 1026 L884 0 L697 0 L718 175 Q664 82 597 30 Q530 -22 453 -22 Z " />
<glyph glyph-name="aring" unicode="&#xe5;" horiz-adv-x="1030" d="M640 1137 Q604 1137 574.5 1152 Q545 1167 525 1193 Q505 1219 495.5 1255 Q486 1291 491 1332 Q496 1374 514 1409.5 Q532 1445 559 1471 Q586 1497 619 1512 Q652 1527 688 1527 Q723 1527 753 1512 Q783 1497 803 1471 Q823 1445 832.5 1409.5 Q842 1374 837 1332 Q832 1291 813.5 1255 Q795 1219 768 1193 Q741 1167 708 1152 Q675 1137 640 1137 Z M651 1222 Q686 1222 714.5 1253.5 Q743 1285 749 1332 Q755 1379 734 1410.5 Q713 1442 678 1442 Q661 1442 644.5 1433.5 Q628 1425 614.5 1410 Q601 1395 591.5 1375 Q582 1355 579 1332 Q576 1309 580.5 1289 Q585 1269 594.5 1254 Q604 1239 618.5 1230.5 Q633 1222 651 1222 Z M495 128 Q554 128 600.5 156 Q647 184 681 235.5 Q715 287 737 359.5 Q759 432 770 521 Q780 605 774.5 675 Q769 745 746.5 795.5 Q724 846 684 874 Q644 902 586 902 Q528 902 480.5 874 Q433 846 397 795 Q361 744 337 673.5 Q313 603 303 518 Q292 433 298.5 361.5 Q305 290 328.5 238 Q352 186 393.5 157 Q435 128 495 128 Z M453 -22 Q353 -22 283 20.5 Q213 63 172 136 Q131 209 117.5 306.5 Q104 404 117 513 Q132 630 170.5 728.5 Q209 827 270 899 Q331 971 412 1011.5 Q493 1052 592 1052 Q630 1052 663 1037.5 Q696 1023 723 998 Q750 973 770.5 938 Q791 903 806 863 L826 1026 L1009 1026 L884 0 L697 0 L718 175 Q664 82 597 30 Q530 -22 453 -22 Z " />
<glyph glyph-name="ae" unicode="&#xe6;" horiz-adv-x="1425" d="M1215 612 Q1215 616 1215 620 Q1215 624 1216 628 Q1221 689 1212 739.5 Q1203 790 1183 827 Q1163 864 1133.5 884.5 Q1104 905 1069 905 Q1028 905 992 882.5 Q956 860 925 820 Q894 780 869.5 726.5 Q845 673 828 612 L1215 612 Z M370 126 Q428 126 472 156 Q516 186 547.5 236 Q579 286 598.5 350.5 Q618 415 628 485 L547 485 Q492 485 441 478 Q390 471 349.5 450.5 Q309 430 281.5 392.5 Q254 355 247 294 Q236 207 271 166.5 Q306 126 370 126 Z M977 -22 Q860 -22 788 44.5 Q716 111 687 226 Q660 171 621.5 125 Q583 79 538.5 46 Q494 13 444.5 -5.5 Q395 -24 345 -24 Q273 -24 216.5 -3 Q160 18 123 58 Q86 98 70 155.5 Q54 213 63 285 Q77 396 116.5 461.5 Q156 527 223 561 Q290 595 385 605 Q480 615 606 615 L644 615 Q651 679 645 732.5 Q639 786 619.5 824 Q600 862 568 883 Q536 904 491 904 Q392 904 246 822 L207 952 Q367 1053 549 1053 Q584 1054 620.5 1040 Q657 1026 688.5 998.5 Q720 971 744.5 931 Q769 891 781 840 Q806 889 842 928.5 Q878 968 919.5 996 Q961 1024 1004 1038.5 Q1047 1053 1088 1053 Q1178 1053 1238.5 1014 Q1299 975 1332.5 905 Q1366 835 1374 737.5 Q1382 640 1367 523 L1359 486 L810 486 L807 459 Q796 298 844 213 Q892 128 1001 128 Q1033 128 1068.5 141 Q1104 154 1137 171 Q1170 188 1197 206 Q1224 224 1239 233 L1267 239 L1301 105 L1285 91 Q1269 79 1239.5 59.5 Q1210 40 1169.5 22 Q1129 4 1080 -9 Q1031 -22 977 -22 Z " />
<glyph glyph-name="ccedilla" unicode="&#xe7;" horiz-adv-x="855" d="M429 -447 Q337 -447 262 -419 L283 -322 Q294 -326 310.5 -331 Q327 -336 345 -340 Q363 -344 381.5 -346.5 Q400 -349 416 -349 Q457 -349 480 -329.5 Q503 -310 508 -274 Q512 -240 484.5 -213.5 Q457 -187 395 -187 L373 -187 L411 -20 Q326 -12 264.5 31 Q203 74 165.5 143.5 Q128 213 115.5 306 Q103 399 117 507 Q133 638 178.5 739.5 Q224 841 290 910.5 Q356 980 438 1016 Q520 1052 609 1052 Q798 1052 885 930 L804 808 Q726 901 609 901 Q488 901 410.5 799.5 Q333 698 310 508 Q299 421 308 351 Q317 281 344 231.5 Q371 182 414.5 155 Q458 128 518 128 Q656 128 740 224 L781 91 Q712 40 646 12.5 Q580 -15 505 -21 L486 -119 Q570 -130 611 -171 Q652 -212 644 -279 Q639 -321 619.5 -352.5 Q600 -384 570.5 -405 Q541 -426 504.5 -436.5 Q468 -447 429 -447 Z " />
<glyph glyph-name="egrave" unicode="&#xe8;" horiz-adv-x="957" d="M561 1173 L327 1533 L566 1533 L729 1173 L561 1173 Z M752 613 Q757 755 714 830.5 Q671 906 592 906 Q547 906 507 886 Q467 866 433 828 Q399 790 372.5 735.5 Q346 681 328 613 L752 613 Z M494 -22 Q392 -22 315 16 Q238 54 189 123.5 Q140 193 121 291.5 Q102 390 117 510 Q132 628 173 727.5 Q214 827 277 899 Q340 971 422 1011.5 Q504 1052 601 1052 Q696 1052 760.5 1014.5 Q825 977 861.5 909 Q898 841 907.5 746 Q917 651 903 536 Q901 515 893 487 L310 487 Q293 314 351 221 Q409 128 527 128 Q664 128 801 242 L836 106 Q753 42 671 10 Q589 -22 494 -22 Z " />
<glyph glyph-name="eacute" unicode="&#xe9;" horiz-adv-x="957" d="M752 613 Q757 755 714 830.5 Q671 906 592 906 Q547 906 507 886 Q467 866 433 828 Q399 790 372.5 735.5 Q346 681 328 613 L752 613 Z M494 -22 Q392 -22 315 16 Q238 54 189 123.5 Q140 193 121 291.5 Q102 390 117 510 Q132 628 173 727.5 Q214 827 277 899 Q340 971 422 1011.5 Q504 1052 601 1052 Q696 1052 760.5 1014.5 Q825 977 861.5 909 Q898 841 907.5 746 Q917 651 903 536 Q901 515 893 487 L310 487 Q293 314 351 221 Q409 128 527 128 Q664 128 801 242 L836 106 Q753 42 671 10 Q589 -22 494 -22 Z M559 1172 L809 1532 L1048 1532 L727 1172 L559 1172 Z " />
<glyph glyph-name="ecircumflex" unicode="&#xea;" horiz-adv-x="957" d="M752 613 Q757 755 714 830.5 Q671 906 592 906 Q547 906 507 886 Q467 866 433 828 Q399 790 372.5 735.5 Q346 681 328 613 L752 613 Z M494 -22 Q392 -22 315 16 Q238 54 189 123.5 Q140 193 121 291.5 Q102 390 117 510 Q132 628 173 727.5 Q214 827 277 899 Q340 971 422 1011.5 Q504 1052 601 1052 Q696 1052 760.5 1014.5 Q825 977 861.5 909 Q898 841 907.5 746 Q917 651 903 536 Q901 515 893 487 L310 487 Q293 314 351 221 Q409 128 527 128 Q664 128 801 242 L836 106 Q753 42 671 10 Q589 -22 494 -22 Z M312 1154 L557 1501 L741 1501 L904 1154 L724 1154 L637 1372 L494 1154 L312 1154 Z " />
<glyph glyph-name="edieresis" unicode="&#xeb;" horiz-adv-x="957" d="M752 613 Q757 755 714 830.5 Q671 906 592 906 Q547 906 507 886 Q467 866 433 828 Q399 790 372.5 735.5 Q346 681 328 613 L752 613 Z M494 -22 Q392 -22 315 16 Q238 54 189 123.5 Q140 193 121 291.5 Q102 390 117 510 Q132 628 173 727.5 Q214 827 277 899 Q340 971 422 1011.5 Q504 1052 601 1052 Q696 1052 760.5 1014.5 Q825 977 861.5 909 Q898 841 907.5 746 Q917 651 903 536 Q901 515 893 487 L310 487 Q293 314 351 221 Q409 128 527 128 Q664 128 801 242 L836 106 Q753 42 671 10 Q589 -22 494 -22 Z M722 1182 L745 1371 L930 1371 L907 1182 L722 1182 Z M367 1182 L390 1371 L576 1371 L553 1182 L367 1182 Z " />
<glyph glyph-name="igrave" unicode="&#xec;" horiz-adv-x="398" d="M225 1173 L-8 1533 L230 1533 L393 1173 L225 1173 Z M67 0 L192 1026 L378 1026 L254 0 L67 0 Z " />
<glyph glyph-name="iacute" unicode="&#xed;" horiz-adv-x="397" d="M67 0 L192 1026 L378 1026 L254 0 L67 0 Z M223 1172 L473 1532 L712 1532 L391 1172 L223 1172 Z " />
<glyph glyph-name="icircumflex" unicode="&#xee;" horiz-adv-x="397" d="M67 0 L192 1026 L378 1026 L254 0 L67 0 Z M4 1154 L248 1501 L432 1501 L595 1154 L415 1154 L329 1372 L185 1154 L4 1154 Z " />
<glyph glyph-name="idieresis" unicode="&#xef;" horiz-adv-x="397" d="M67 0 L192 1026 L378 1026 L254 0 L67 0 Z M386 1182 L409 1371 L593 1371 L570 1182 L386 1182 Z M30 1182 L53 1371 L239 1371 L216 1182 L30 1182 Z " />
<glyph glyph-name="eth" unicode="&#xf0;" horiz-adv-x="975" d="M468 138 Q506 138 545.5 162.5 Q585 187 618.5 231.5 Q652 276 677.5 338 Q703 400 712 475 Q719 535 708 586 Q697 637 672 674 Q647 711 611 731.5 Q575 752 533 752 Q494 752 455 731.5 Q416 711 384 672 Q352 633 329 577.5 Q306 522 297 452 Q288 380 298 322 Q308 264 331.5 223 Q355 182 390 160 Q425 138 468 138 Z M436 -22 Q355 -22 292 14.5 Q229 51 187 114.5 Q145 178 125 265 Q105 352 109 454 Q111 479 113 502.5 Q115 526 119 549 Q132 630 166 695.5 Q200 761 251.5 807.5 Q303 854 370 879.5 Q437 905 517 905 Q559 905 596 890.5 Q633 876 664.5 851 Q696 826 722 794 Q748 762 768 726 Q772 756 776.5 792.5 Q781 829 783 872 Q788 976 757 1061.5 Q726 1147 656 1211 L443 1069 L402 1171 L550 1290 Q491 1386 376 1427 L452 1552 Q474 1541 504.5 1524 Q535 1507 570 1485.5 Q605 1464 642 1436.5 Q679 1409 713 1377 L927 1516 L967 1414 L805 1296 Q890 1159 921 992 Q952 825 927 623 Q908 469 866.5 349 Q825 229 763 146.5 Q701 64 618.5 21 Q536 -22 436 -22 Z " />
<glyph glyph-name="ntilde" unicode="&#xf1;" horiz-adv-x="983" d="M718 1175 Q702 1175 682.5 1182.5 Q663 1190 641.5 1201 Q620 1212 598.5 1225.5 Q577 1239 558 1250 Q539 1261 523 1268.5 Q507 1276 498 1276 Q479 1276 460.5 1253 Q442 1230 433 1183 L313 1183 Q319 1237 336.5 1280 Q354 1323 379.5 1353 Q405 1383 437.5 1399.5 Q470 1416 508 1416 Q537 1416 569 1404 Q601 1392 630 1376.5 Q659 1361 683 1345 Q707 1329 720 1321 Q722 1318 726.5 1316.5 Q731 1315 734 1315 Q759 1315 774 1337 Q789 1359 795 1414 L917 1414 Q903 1302 851 1238.5 Q799 1175 718 1175 Z M100 0 L179 649 Q183 685 188 732.5 Q193 780 197.5 828 Q202 876 205 919 Q208 962 210 989 L211 1026 L407 1026 L388 865 Q414 909 448 944 Q482 979 519.5 1003 Q557 1027 595.5 1039.5 Q634 1052 669 1052 Q812 1052 878 934 Q944 816 914 578 L844 0 L658 0 L728 577 Q748 743 722.5 822.5 Q697 902 613 902 Q581 902 540.5 880.5 Q500 859 463.5 823 Q427 787 399 740.5 Q371 694 364 643 L286 0 L100 0 Z " />
<glyph glyph-name="ograve" unicode="&#xf2;" horiz-adv-x="1023" d="M482 -22 Q375 -22 299.5 17 Q224 56 178.5 126.5 Q133 197 118 295 Q103 393 117 512 Q132 633 172.5 732.5 Q213 832 276 903 Q339 974 424 1013 Q509 1052 614 1052 Q720 1052 794.5 1013 Q869 974 913 902.5 Q957 831 971 731.5 Q985 632 970 512 Q956 394 917 295.5 Q878 197 816 126.5 Q754 56 670 17 Q586 -22 482 -22 Z M497 128 Q558 128 605.5 156 Q653 184 687.5 234.5 Q722 285 744 355.5 Q766 426 777 512 Q788 599 782 671 Q776 743 753.5 794 Q731 845 690.5 873.5 Q650 902 592 902 Q533 902 486 874 Q439 846 403.5 794.5 Q368 743 344.5 671 Q321 599 311 512 Q288 326 333 227 Q378 128 497 128 Z M549 1173 L315 1533 L554 1533 L718 1173 L549 1173 Z " />
<glyph glyph-name="oacute" unicode="&#xf3;" horiz-adv-x="1023" d="M482 -22 Q375 -22 299.5 17 Q224 56 178.5 126.5 Q133 197 118 295 Q103 393 117 512 Q132 633 172.5 732.5 Q213 832 276 903 Q339 974 424 1013 Q509 1052 614 1052 Q720 1052 794.5 1013 Q869 974 913 902.5 Q957 831 971 731.5 Q985 632 970 512 Q956 394 917 295.5 Q878 197 816 126.5 Q754 56 670 17 Q586 -22 482 -22 Z M497 128 Q558 128 605.5 156 Q653 184 687.5 234.5 Q722 285 744 355.5 Q766 426 777 512 Q788 599 782 671 Q776 743 753.5 794 Q731 845 690.5 873.5 Q650 902 592 902 Q533 902 486 874 Q439 846 403.5 794.5 Q368 743 344.5 671 Q321 599 311 512 Q288 326 333 227 Q378 128 497 128 Z M547 1172 L798 1532 L1036 1532 L715 1172 L547 1172 Z " />
<glyph glyph-name="ocircumflex" unicode="&#xf4;" horiz-adv-x="1023" d="M482 -22 Q375 -22 299.5 17 Q224 56 178.5 126.5 Q133 197 118 295 Q103 393 117 512 Q132 633 172.5 732.5 Q213 832 276 903 Q339 974 424 1013 Q509 1052 614 1052 Q720 1052 794.5 1013 Q869 974 913 902.5 Q957 831 971 731.5 Q985 632 970 512 Q956 394 917 295.5 Q878 197 816 126.5 Q754 56 670 17 Q586 -22 482 -22 Z M497 128 Q558 128 605.5 156 Q653 184 687.5 234.5 Q722 285 744 355.5 Q766 426 777 512 Q788 599 782 671 Q776 743 753.5 794 Q731 845 690.5 873.5 Q650 902 592 902 Q533 902 486 874 Q439 846 403.5 794.5 Q368 743 344.5 671 Q321 599 311 512 Q288 326 333 227 Q378 128 497 128 Z M328 1154 L572 1501 L756 1501 L919 1154 L740 1154 L653 1372 L510 1154 L328 1154 Z " />
<glyph glyph-name="otilde" unicode="&#xf5;" horiz-adv-x="1023" d="M695 1175 Q679 1175 659.5 1182.5 Q640 1190 618.5 1201 Q597 1212 575.5 1225.5 Q554 1239 535 1250 Q516 1261 500 1268.5 Q484 1276 475 1276 Q456 1276 437.5 1253 Q419 1230 409 1183 L289 1183 Q295 1237 312.5 1280 Q330 1323 355.5 1353 Q381 1383 414 1399.5 Q447 1416 484 1416 Q513 1416 545 1404 Q577 1392 606.5 1376.5 Q636 1361 659.5 1345 Q683 1329 696 1321 Q699 1318 703.5 1316.5 Q708 1315 711 1315 Q735 1315 750 1337 Q765 1359 772 1414 L894 1414 Q880 1302 827.5 1238.5 Q775 1175 695 1175 Z M482 -22 Q375 -22 299.5 17 Q224 56 178.5 126.5 Q133 197 118 295 Q103 393 117 512 Q132 633 172.5 732.5 Q213 832 276 903 Q339 974 424 1013 Q509 1052 614 1052 Q720 1052 794.5 1013 Q869 974 913 902.5 Q957 831 971 731.5 Q985 632 970 512 Q956 394 917 295.5 Q878 197 816 126.5 Q754 56 670 17 Q586 -22 482 -22 Z M497 128 Q558 128 605.5 156 Q653 184 687.5 234.5 Q722 285 744 355.5 Q766 426 777 512 Q788 599 782 671 Q776 743 753.5 794 Q731 845 690.5 873.5 Q650 902 592 902 Q533 902 486 874 Q439 846 403.5 794.5 Q368 743 344.5 671 Q321 599 311 512 Q288 326 333 227 Q378 128 497 128 Z " />
<glyph glyph-name="odieresis" unicode="&#xf6;" horiz-adv-x="1023" d="M482 -22 Q375 -22 299.5 17 Q224 56 178.5 126.5 Q133 197 118 295 Q103 393 117 512 Q132 633 172.5 732.5 Q213 832 276 903 Q339 974 424 1013 Q509 1052 614 1052 Q720 1052 794.5 1013 Q869 974 913 902.5 Q957 831 971 731.5 Q985 632 970 512 Q956 394 917 295.5 Q878 197 816 126.5 Q754 56 670 17 Q586 -22 482 -22 Z M497 128 Q558 128 605.5 156 Q653 184 687.5 234.5 Q722 285 744 355.5 Q766 426 777 512 Q788 599 782 671 Q776 743 753.5 794 Q731 845 690.5 873.5 Q650 902 592 902 Q533 902 486 874 Q439 846 403.5 794.5 Q368 743 344.5 671 Q321 599 311 512 Q288 326 333 227 Q378 128 497 128 Z M710 1182 L733 1371 L917 1371 L894 1182 L710 1182 Z M354 1182 L377 1371 L563 1371 L540 1182 L354 1182 Z " />
<glyph glyph-name="divide" unicode="&#xf7;" horiz-adv-x="1158" d="M582 865 L609 1090 L776 1090 L749 865 L582 865 Z M190 476 L209 632 L1054 632 L1035 476 L190 476 Z M479 11 L507 237 L674 237 L648 11 L479 11 Z " />
<glyph glyph-name="oslash" unicode="&#xf8;" horiz-adv-x="1013" d="M512 -22 Q432 -22 368 4 L266 -214 L194 -176 L293 39 Q247 71 214.5 118.5 Q182 166 164 226.5 Q146 287 141.5 359 Q137 431 147 512 Q162 633 202.5 732.5 Q243 832 306 903 Q369 974 454 1013 Q539 1052 644 1052 Q682 1052 716 1046.5 Q750 1041 782 1029 L874 1227 L946 1189 L857 995 Q951 929 985.5 803 Q1020 677 1000 512 Q986 394 947 295.5 Q908 197 846 126.5 Q784 56 700 17 Q616 -22 512 -22 Z M451 146 Q482 128 527 128 Q588 128 635.5 156 Q683 184 717.5 234.5 Q752 285 774 355.5 Q796 426 807 512 Q821 624 810.5 708 Q800 792 765 843 L451 146 Z M697 886 Q664 902 622 902 Q563 902 515 874 Q467 846 432 794.5 Q397 743 374 671 Q351 599 341 512 Q328 404 338 321.5 Q348 239 383 190 L697 886 Z " />
<glyph glyph-name="ugrave" unicode="&#xf9;" horiz-adv-x="958" d="M392 -23 Q316 -23 261 6.5 Q206 36 172.5 90 Q139 144 127.5 220.5 Q116 297 128 392 L205 1026 L389 1026 L312 392 Q295 259 331.5 193 Q368 127 447 127 Q494 127 532 147.5 Q570 168 598 204.5 Q626 241 643.5 291.5 Q661 342 669 403 L745 1026 L931 1026 L837 254 Q830 185 824.5 122 Q819 59 815 0 L623 0 L640 165 Q628 126 607 91.5 Q586 57 555 31.5 Q524 6 483.5 -8.5 Q443 -23 392 -23 Z M518 1173 L284 1533 L523 1533 L686 1173 L518 1173 Z " />
<glyph glyph-name="uacute" unicode="&#xfa;" horiz-adv-x="958" d="M392 -23 Q316 -23 261 6.5 Q206 36 172.5 90 Q139 144 127.5 220.5 Q116 297 128 392 L205 1026 L389 1026 L312 392 Q295 259 331.5 193 Q368 127 447 127 Q494 127 532 147.5 Q570 168 598 204.5 Q626 241 643.5 291.5 Q661 342 669 403 L745 1026 L931 1026 L837 254 Q830 185 824.5 122 Q819 59 815 0 L623 0 L640 165 Q628 126 607 91.5 Q586 57 555 31.5 Q524 6 483.5 -8.5 Q443 -23 392 -23 Z M515 1172 L765 1532 L1004 1532 L683 1172 L515 1172 Z " />
<glyph glyph-name="ucircumflex" unicode="&#xfb;" horiz-adv-x="958" d="M392 -23 Q316 -23 261 6.5 Q206 36 172.5 90 Q139 144 127.5 220.5 Q116 297 128 392 L205 1026 L389 1026 L312 392 Q295 259 331.5 193 Q368 127 447 127 Q494 127 532 147.5 Q570 168 598 204.5 Q626 241 643.5 291.5 Q661 342 669 403 L745 1026 L931 1026 L837 254 Q830 185 824.5 122 Q819 59 815 0 L623 0 L640 165 Q628 126 607 91.5 Q586 57 555 31.5 Q524 6 483.5 -8.5 Q443 -23 392 -23 Z M296 1154 L540 1501 L725 1501 L888 1154 L708 1154 L621 1372 L478 1154 L296 1154 Z " />
<glyph glyph-name="udieresis" unicode="&#xfc;" horiz-adv-x="958" d="M392 -23 Q316 -23 261 6.5 Q206 36 172.5 90 Q139 144 127.5 220.5 Q116 297 128 392 L205 1026 L389 1026 L312 392 Q295 259 331.5 193 Q368 127 447 127 Q494 127 532 147.5 Q570 168 598 204.5 Q626 241 643.5 291.5 Q661 342 669 403 L745 1026 L931 1026 L837 254 Q830 185 824.5 122 Q819 59 815 0 L623 0 L640 165 Q628 126 607 91.5 Q586 57 555 31.5 Q524 6 483.5 -8.5 Q443 -23 392 -23 Z M678 1182 L701 1371 L886 1371 L863 1182 L678 1182 Z M323 1182 L346 1371 L532 1371 L509 1182 L323 1182 Z " />
<glyph glyph-name="yacute" unicode="&#xfd;" horiz-adv-x="881" d="M49 -307 Q163 -266 227.5 -199.5 Q292 -133 324 -44 L342 8 L121 1026 L315 1026 L456 206 L769 1026 L958 1026 L494 -54 Q459 -126 415 -187 Q371 -248 321.5 -297 Q272 -346 218 -380.5 Q164 -415 110 -433 L49 -307 Z M499 1172 L750 1532 L989 1532 L667 1172 L499 1172 Z " />
<glyph glyph-name="thorn" unicode="&#xfe;" horiz-adv-x="984" d="M483 126 Q538 126 581.5 156.5 Q625 187 657.5 240.5 Q690 294 711 365.5 Q732 437 742 519 Q752 601 749.5 671 Q747 741 729 792 Q711 843 676 871.5 Q641 900 585 900 Q525 900 480.5 867.5 Q436 835 404 779.5 Q372 724 352 651.5 Q332 579 322 498 Q312 416 317 347.5 Q322 279 342 230 Q362 181 397 153.5 Q432 126 483 126 Z M33 -419 L264 1458 L443 1458 L370 879 Q391 919 422 950.5 Q453 982 487.5 1004.5 Q522 1027 556.5 1039 Q591 1051 619 1051 Q713 1051 779.5 1009.5 Q846 968 885.5 896 Q925 824 938 728 Q951 632 938 523 Q924 412 887.5 312.5 Q851 213 793.5 139 Q736 65 659 21.5 Q582 -22 486 -22 Q423 -22 367.5 19 Q312 60 277 138 Q260 -2 242.5 -140.5 Q225 -279 208 -419 L33 -419 Z " />
<glyph glyph-name="ydieresis" unicode="&#xff;" horiz-adv-x="881" d="M79 -307 Q193 -266 257.5 -199.5 Q322 -133 354 -44 L372 8 L151 1026 L345 1026 L486 206 L799 1026 L988 1026 L524 -54 Q489 -126 445 -187 Q401 -248 351.5 -297 Q302 -346 248 -380.5 Q194 -415 140 -433 L79 -307 Z M692 1182 L715 1371 L900 1371 L877 1182 L692 1182 Z M336 1182 L359 1371 L545 1371 L522 1182 L336 1182 Z " />
<glyph glyph-name="Amacron" unicode="&#x100;" horiz-adv-x="1155" d="M522 1672 L537 1796 L1029 1796 L1014 1672 L522 1672 Z M805 545 Q779 725 759.5 902 Q740 1079 726 1256 Q671 1076 607 899.5 Q543 723 469 545 L805 545 Z M13 0 L655 1456 L851 1456 L1141 0 L927 0 L859 389 L382 389 L223 0 L13 0 Z " />
<glyph glyph-name="amacron" unicode="&#x101;" horiz-adv-x="1030" d="M425 1242 L440 1366 L931 1366 L916 1242 L425 1242 Z M525 128 Q584 128 630.5 156 Q677 184 711 235.5 Q745 287 767 359.5 Q789 432 800 521 Q810 605 804.5 675 Q799 745 776.5 795.5 Q754 846 714 874 Q674 902 616 902 Q558 902 510.5 874 Q463 846 427 795 Q391 744 367 673.5 Q343 603 333 518 Q322 433 328.5 361.5 Q335 290 358.5 238 Q382 186 423.5 157 Q465 128 525 128 Z M483 -22 Q383 -22 313 20.5 Q243 63 202 136 Q161 209 147.5 306.5 Q134 404 147 513 Q162 630 200.5 728.5 Q239 827 300 899 Q361 971 442 1011.5 Q523 1052 622 1052 Q660 1052 693 1037.5 Q726 1023 753 998 Q780 973 800.5 938 Q821 903 836 863 L856 1026 L1039 1026 L914 0 L727 0 L748 175 Q694 82 627 30 Q560 -22 483 -22 Z " />
<glyph glyph-name="Abreve" unicode="&#x102;" horiz-adv-x="1155" d="M778 1610 Q660 1610 606 1672.5 Q552 1735 561 1870 L691 1870 Q688 1800 717.5 1771 Q747 1742 794 1742 Q845 1742 878.5 1771.5 Q912 1801 926 1870 L1056 1870 Q1008 1610 778 1610 Z M805 545 Q779 725 759.5 902 Q740 1079 726 1256 Q671 1076 607 899.5 Q543 723 469 545 L805 545 Z M13 0 L655 1456 L851 1456 L1141 0 L927 0 L859 389 L382 389 L223 0 L13 0 Z " />
<glyph glyph-name="abreve" unicode="&#x103;" horiz-adv-x="1030" d="M680 1180 Q563 1180 509 1242.5 Q455 1305 463 1440 L594 1440 Q592 1405 599 1380.5 Q606 1356 620 1341 Q634 1326 654 1319 Q674 1312 697 1312 Q748 1312 781.5 1341.5 Q815 1371 829 1440 L959 1440 Q935 1309 865 1244.5 Q795 1180 680 1180 Z M525 128 Q584 128 630.5 156 Q677 184 711 235.5 Q745 287 767 359.5 Q789 432 800 521 Q810 605 804.5 675 Q799 745 776.5 795.5 Q754 846 714 874 Q674 902 616 902 Q558 902 510.5 874 Q463 846 427 795 Q391 744 367 673.5 Q343 603 333 518 Q322 433 328.5 361.5 Q335 290 358.5 238 Q382 186 423.5 157 Q465 128 525 128 Z M483 -22 Q383 -22 313 20.5 Q243 63 202 136 Q161 209 147.5 306.5 Q134 404 147 513 Q162 630 200.5 728.5 Q239 827 300 899 Q361 971 442 1011.5 Q523 1052 622 1052 Q660 1052 693 1037.5 Q726 1023 753 998 Q780 973 800.5 938 Q821 903 836 863 L856 1026 L1039 1026 L914 0 L727 0 L748 175 Q694 82 627 30 Q560 -22 483 -22 Z " />
<glyph glyph-name="Aogonek" unicode="&#x104;" horiz-adv-x="1155" d="M13 0 L655 1456 L851 1456 L1141 0 L1064 0 Q1039 -23 1018 -51.5 Q997 -80 980.5 -110 Q964 -140 953.5 -169 Q943 -198 940 -221 Q935 -263 947.5 -285 Q960 -307 990 -307 Q1029 -307 1124 -284 L1110 -396 Q1036 -424 967 -424 Q931 -424 902 -413 Q831 -394 795 -353 Q759 -312 767 -250 Q771 -214 790.5 -179 Q810 -144 837 -111.5 Q864 -79 895.5 -51 Q927 -23 956 0 L927 0 L859 389 L382 389 L223 0 L13 0 Z M805 545 Q779 725 759.5 902 Q740 1079 726 1256 Q671 1076 607 899.5 Q543 723 469 545 L805 545 Z " />
<glyph glyph-name="aogonek" unicode="&#x105;" horiz-adv-x="1029" d="M483 -22 Q383 -22 313 20.5 Q243 63 202 136 Q161 209 147.5 306.5 Q134 404 147 513 Q162 629 201 728 Q240 827 301 899 Q362 971 443 1011.5 Q524 1052 622 1052 Q660 1052 693 1037.5 Q726 1023 753 998 Q780 973 801 938 Q822 903 836 863 L856 1026 L1039 1026 L914 0 L858 0 Q833 -23 812 -51.5 Q791 -80 774.5 -110 Q758 -140 747.5 -169 Q737 -198 734 -221 Q728 -277 773 -297 Q786 -307 810 -307 Q849 -307 918 -284 L904 -396 Q823 -424 749 -424 Q736 -424 724.5 -423 Q713 -422 701 -419 Q627 -406 590 -362.5 Q553 -319 561 -250 Q565 -211 587 -175.5 Q609 -140 637.5 -108.5 Q666 -77 696.5 -49.5 Q727 -22 750 0 L727 0 L748 175 Q694 82 627 30 Q560 -22 483 -22 Z M525 128 Q584 128 630.5 156 Q677 184 711 235.5 Q745 287 767 359.5 Q789 432 800 521 Q810 605 804.5 675 Q799 745 776.5 795.5 Q754 846 714 874 Q674 902 616 902 Q558 902 510.5 874 Q463 846 427 795 Q391 744 367 673.5 Q343 603 333 518 Q322 433 328.5 361.5 Q335 290 358.5 238 Q382 186 423.5 157 Q465 128 525 128 Z " />
<glyph glyph-name="Cacute" unicode="&#x106;" horiz-adv-x="1141" d="M775 1602 L1025 1962 L1263 1962 L943 1602 L775 1602 Z M663 -22 Q547 -22 447.5 26 Q348 74 279.5 167.5 Q211 261 180.5 398.5 Q150 536 172 716 Q186 831 220.5 933 Q255 1035 304.5 1120 Q354 1205 415.5 1272 Q477 1339 545.5 1386 Q614 1433 687 1457.5 Q760 1482 833 1482 Q1059 1482 1199 1332 L1108 1202 Q991 1321 830 1321 Q747 1321 670.5 1273 Q594 1225 533 1143 Q472 1061 430 951 Q388 841 373 718 Q356 585 372.5 478 Q389 371 432 295.5 Q475 220 542 179.5 Q609 139 695 139 Q870 139 1035 283 L1081 131 Q893 -22 663 -22 Z " />
<glyph glyph-name="cacute" unicode="&#x107;" horiz-adv-x="855" d="M508 -22 Q407 -22 333 17 Q259 56 213 126.5 Q167 197 150 294 Q133 391 147 507 Q163 637 208 738.5 Q253 840 319 909.5 Q385 979 467 1015.5 Q549 1052 639 1052 Q828 1052 915 930 L834 808 Q756 901 639 901 Q518 901 440.5 799.5 Q363 698 340 508 Q329 421 338 351 Q347 281 374 231.5 Q401 182 444.5 155 Q488 128 548 128 Q686 128 770 224 L811 91 Q737 35 664.5 6.5 Q592 -22 508 -22 Z M571 1172 L822 1532 L1060 1532 L739 1172 L571 1172 Z " />
<glyph glyph-name="Ccircumflex" unicode="&#x108;" horiz-adv-x="1141" d="M556 1584 L801 1931 L985 1931 L1148 1584 L968 1584 L881 1802 L738 1584 L556 1584 Z M663 -22 Q547 -22 447.5 26 Q348 74 279.5 167.5 Q211 261 180.5 398.5 Q150 536 172 716 Q186 831 220.5 933 Q255 1035 304.5 1120 Q354 1205 415.5 1272 Q477 1339 545.5 1386 Q614 1433 687 1457.5 Q760 1482 833 1482 Q1059 1482 1199 1332 L1108 1202 Q991 1321 830 1321 Q747 1321 670.5 1273 Q594 1225 533 1143 Q472 1061 430 951 Q388 841 373 718 Q356 585 372.5 478 Q389 371 432 295.5 Q475 220 542 179.5 Q609 139 695 139 Q870 139 1035 283 L1081 131 Q893 -22 663 -22 Z " />
<glyph glyph-name="ccircumflex" unicode="&#x109;" horiz-adv-x="855" d="M352 1154 L597 1501 L781 1501 L944 1154 L764 1154 L677 1372 L534 1154 L352 1154 Z M508 -22 Q407 -22 333 17 Q259 56 213 126.5 Q167 197 150 294 Q133 391 147 507 Q163 637 208 738.5 Q253 840 319 909.5 Q385 979 467 1015.5 Q549 1052 639 1052 Q828 1052 915 930 L834 808 Q756 901 639 901 Q518 901 440.5 799.5 Q363 698 340 508 Q329 421 338 351 Q347 281 374 231.5 Q401 182 444.5 155 Q488 128 548 128 Q686 128 770 224 L811 91 Q737 35 664.5 6.5 Q592 -22 508 -22 Z " />
<glyph glyph-name="Cdotaccent" unicode="&#x10a;" horiz-adv-x="1141" d="M778 1686 L800 1868 L985 1868 L963 1686 L778 1686 Z M663 -22 Q547 -22 447.5 26 Q348 74 279.5 167.5 Q211 261 180.5 398.5 Q150 536 172 716 Q186 831 220.5 933 Q255 1035 304.5 1120 Q354 1205 415.5 1272 Q477 1339 545.5 1386 Q614 1433 687 1457.5 Q760 1482 833 1482 Q1059 1482 1199 1332 L1108 1202 Q991 1321 830 1321 Q747 1321 670.5 1273 Q594 1225 533 1143 Q472 1061 430 951 Q388 841 373 718 Q356 585 372.5 478 Q389 371 432 295.5 Q475 220 542 179.5 Q609 139 695 139 Q870 139 1035 283 L1081 131 Q893 -22 663 -22 Z " />
<glyph glyph-name="cdotaccent" unicode="&#x10b;" horiz-adv-x="855" d="M574 1256 L596 1438 L782 1438 L760 1256 L574 1256 Z M508 -22 Q407 -22 333 17 Q259 56 213 126.5 Q167 197 150 294 Q133 391 147 507 Q163 637 208 738.5 Q253 840 319 909.5 Q385 979 467 1015.5 Q549 1052 639 1052 Q828 1052 915 930 L834 808 Q756 901 639 901 Q518 901 440.5 799.5 Q363 698 340 508 Q329 421 338 351 Q347 281 374 231.5 Q401 182 444.5 155 Q488 128 548 128 Q686 128 770 224 L811 91 Q737 35 664.5 6.5 Q592 -22 508 -22 Z " />
<glyph glyph-name="Ccaron" unicode="&#x10c;" horiz-adv-x="1141" d="M766 1584 L591 1935 L777 1935 L852 1705 L986 1935 L1180 1935 L920 1584 L766 1584 Z M663 -22 Q547 -22 447.5 26 Q348 74 279.5 167.5 Q211 261 180.5 398.5 Q150 536 172 716 Q186 831 220.5 933 Q255 1035 304.5 1120 Q354 1205 415.5 1272 Q477 1339 545.5 1386 Q614 1433 687 1457.5 Q760 1482 833 1482 Q1059 1482 1199 1332 L1108 1202 Q991 1321 830 1321 Q747 1321 670.5 1273 Q594 1225 533 1143 Q472 1061 430 951 Q388 841 373 718 Q356 585 372.5 478 Q389 371 432 295.5 Q475 220 542 179.5 Q609 139 695 139 Q870 139 1035 283 L1081 131 Q893 -22 663 -22 Z " />
<glyph glyph-name="ccaron" unicode="&#x10d;" horiz-adv-x="855" d="M562 1154 L387 1505 L573 1505 L648 1275 L782 1505 L976 1505 L716 1154 L562 1154 Z M508 -22 Q407 -22 333 17 Q259 56 213 126.5 Q167 197 150 294 Q133 391 147 507 Q163 637 208 738.5 Q253 840 319 909.5 Q385 979 467 1015.5 Q549 1052 639 1052 Q828 1052 915 930 L834 808 Q756 901 639 901 Q518 901 440.5 799.5 Q363 698 340 508 Q329 421 338 351 Q347 281 374 231.5 Q401 182 444.5 155 Q488 128 548 128 Q686 128 770 224 L811 91 Q737 35 664.5 6.5 Q592 -22 508 -22 Z " />
<glyph glyph-name="Dcaron" unicode="&#x10e;" horiz-adv-x="1251" d="M690 1584 L515 1935 L700 1935 L776 1705 L910 1935 L1104 1935 L844 1584 L690 1584 Z M154 0 L332 1456 L648 1456 Q993 1456 1146.5 1278 Q1300 1100 1254 726 Q1233 552 1173.5 417 Q1114 282 1019 189 Q924 96 795.5 48 Q667 0 507 0 L154 0 Z M364 161 L536 161 Q644 161 732 198.5 Q820 236 885.5 308.5 Q951 381 993 486 Q1035 591 1052 726 Q1087 1017 987 1156 Q887 1295 646 1295 L504 1295 L364 161 Z " />
<glyph glyph-name="dcaron" unicode="&#x10f;" horiz-adv-x="1013" d="M511 128 Q568 128 612.5 156 Q657 184 690 235.5 Q723 287 744.5 360 Q766 433 777 522 Q787 606 781.5 676 Q776 746 755 796 Q734 846 696.5 874 Q659 902 605 902 Q548 902 504 872.5 Q460 843 427.5 791.5 Q395 740 374 669 Q353 598 343 514 Q332 428 335.5 357 Q339 286 359 235 Q379 184 416.5 156 Q454 128 511 128 Z M457 -22 Q377 -22 313 16 Q249 54 207.5 123.5 Q166 193 149 291 Q132 389 147 510 Q161 627 198.5 726.5 Q236 826 294 898.5 Q352 971 429.5 1011.5 Q507 1052 602 1052 Q645 1052 681 1037.5 Q717 1023 744 998.5 Q771 974 789 941 Q807 908 815 872 L890 1486 L1075 1486 L925 266 Q920 220 913.5 154 Q907 88 899 0 L709 0 L728 174 Q715 135 691 99.5 Q667 64 633 37 Q599 10 555 -6 Q511 -22 457 -22 Z M1106 994 L1254 1468 L1464 1468 L1264 994 L1106 994 Z " />
<glyph glyph-name="Dcroat" unicode="&#x110;" horiz-adv-x="1251" d="M154 0 L240 704 L111 704 L128 846 L257 846 L332 1456 L648 1456 Q994 1456 1147 1278 Q1300 1100 1254 726 Q1233 552 1173.5 417 Q1114 282 1019.5 189 Q925 96 796 48 Q667 0 507 0 L154 0 Z M448 846 L612 846 L595 704 L431 704 L364 161 L536 161 Q644 161 732 198.5 Q820 236 885.5 308.5 Q951 381 993 486 Q1035 591 1052 726 Q1087 1017 987 1156 Q887 1295 646 1295 L504 1295 L448 846 Z " />
<glyph glyph-name="dslash" unicode="&#x111;" horiz-adv-x="1013" d="M457 -22 Q377 -22 313 16 Q249 54 207.5 123.5 Q166 193 149 291 Q132 389 147 510 Q161 627 198.5 726.5 Q236 826 294 898 Q352 970 429.5 1011 Q507 1052 602 1052 Q645 1052 681 1037.5 Q717 1023 744 998.5 Q771 974 789 941 Q807 908 815 872 L854 1191 L675 1191 L690 1315 L869 1315 L890 1486 L1075 1486 L1054 1315 L1181 1315 L1166 1191 L1039 1191 L925 266 Q920 220 913.5 154 Q907 88 899 0 L709 0 L728 174 Q715 135 691 99.5 Q667 64 633 37 Q599 10 555 -6 Q511 -22 457 -22 Z M511 128 Q568 128 612.5 156 Q657 184 690 235.5 Q723 287 744.5 360 Q766 433 777 522 Q787 606 781.5 676 Q776 746 755 796 Q734 846 696.5 874 Q659 902 605 902 Q548 902 504 872.5 Q460 843 427.5 791.5 Q395 740 374 669 Q353 598 343 514 Q332 428 335.5 357 Q339 286 359 235 Q379 184 416.5 156 Q454 128 511 128 Z " />
<glyph glyph-name="Emacron" unicode="&#x112;" horiz-adv-x="991" d="M474 1672 L489 1796 L981 1796 L966 1672 L474 1672 Z M154 0 L332 1456 L1058 1456 L1039 1295 L504 1295 L447 837 L953 837 L933 675 L429 675 L366 161 L923 161 L904 0 L154 0 Z " />
<glyph glyph-name="emacron" unicode="&#x113;" horiz-adv-x="957" d="M417 1242 L432 1366 L923 1366 L908 1242 L417 1242 Z M782 613 Q787 755 744 830.5 Q701 906 622 906 Q577 906 537 886 Q497 866 463 828 Q429 790 402.5 735.5 Q376 681 358 613 L782 613 Z M524 -22 Q422 -22 345 16 Q268 54 219 123.5 Q170 193 151 291.5 Q132 390 147 510 Q162 628 203 727.5 Q244 827 307 899 Q370 971 452 1011.5 Q534 1052 631 1052 Q726 1052 790.5 1014.5 Q855 977 891.5 909 Q928 841 937.5 746 Q947 651 933 536 Q931 515 923 487 L340 487 Q323 314 381 221 Q439 128 557 128 Q694 128 831 242 L866 106 Q783 42 701 10 Q619 -22 524 -22 Z " />
<glyph glyph-name="Ebreve" unicode="&#x114;" horiz-adv-x="991" d="M730 1610 Q613 1610 558.5 1672.5 Q504 1735 513 1870 L644 1870 Q642 1835 649 1810.5 Q656 1786 670 1771 Q684 1756 703.5 1749 Q723 1742 746 1742 Q797 1742 831 1771.5 Q865 1801 879 1870 L1009 1870 Q959 1610 730 1610 Z M154 0 L332 1456 L1058 1456 L1039 1295 L504 1295 L447 837 L953 837 L933 675 L429 675 L366 161 L923 161 L904 0 L154 0 Z " />
<glyph glyph-name="ebreve" unicode="&#x115;" horiz-adv-x="957" d="M782 613 Q787 755 744 830.5 Q701 906 622 906 Q577 906 537 886 Q497 866 463 828 Q429 790 402.5 735.5 Q376 681 358 613 L782 613 Z M524 -22 Q422 -22 345 16 Q268 54 219 123.5 Q170 193 151 291.5 Q132 390 147 510 Q162 628 203 727.5 Q244 827 307 899 Q370 971 452 1011.5 Q534 1052 631 1052 Q726 1052 790.5 1014.5 Q855 977 891.5 909 Q928 841 937.5 746 Q947 651 933 536 Q931 515 923 487 L340 487 Q323 314 381 221 Q439 128 557 128 Q694 128 831 242 L866 106 Q783 42 701 10 Q619 -22 524 -22 Z M672 1180 Q555 1180 500.5 1242.5 Q446 1305 455 1440 L586 1440 Q584 1405 591 1380.5 Q598 1356 612 1341 Q626 1326 646 1319 Q666 1312 689 1312 Q740 1312 773.5 1341.5 Q807 1371 821 1440 L951 1440 Q901 1180 672 1180 Z " />
<glyph glyph-name="Edotaccent" unicode="&#x116;" horiz-adv-x="991" d="M650 1686 L672 1868 L857 1868 L835 1686 L650 1686 Z M154 0 L332 1456 L1058 1456 L1039 1295 L504 1295 L447 837 L953 837 L933 675 L429 675 L366 161 L923 161 L904 0 L154 0 Z " />
<glyph glyph-name="edotaccent" unicode="&#x117;" horiz-adv-x="957" d="M782 613 Q787 755 744 830.5 Q701 906 622 906 Q577 906 537 886 Q497 866 463 828 Q429 790 402.5 735.5 Q376 681 358 613 L782 613 Z M524 -22 Q422 -22 345 16 Q268 54 219 123.5 Q170 193 151 291.5 Q132 390 147 510 Q162 628 203 727.5 Q244 827 307 899 Q370 971 452 1011.5 Q534 1052 631 1052 Q726 1052 790.5 1014.5 Q855 977 891.5 909 Q928 841 937.5 746 Q947 651 933 536 Q931 515 923 487 L340 487 Q323 314 381 221 Q439 128 557 128 Q694 128 831 242 L866 106 Q783 42 701 10 Q619 -22 524 -22 Z M592 1256 L614 1438 L799 1438 L777 1256 L592 1256 Z " />
<glyph glyph-name="Eogonek" unicode="&#x118;" horiz-adv-x="991" d="M698 0 Q673 -23 651.5 -51.5 Q630 -80 614 -110 Q598 -140 587.5 -169 Q577 -198 574 -221 Q569 -263 581.5 -285 Q594 -307 624 -307 Q663 -307 758 -284 L744 -396 Q706 -410 670 -417 Q634 -424 601 -424 Q583 -424 567 -421.5 Q551 -419 536 -413 Q465 -394 428.5 -353 Q392 -312 400 -250 Q404 -214 425.5 -179 Q447 -144 475.5 -111.5 Q504 -79 535 -51 Q566 -23 589 0 L154 0 L332 1456 L1058 1456 L1039 1295 L504 1295 L447 837 L953 837 L933 675 L429 675 L366 161 L923 161 L904 0 L698 0 Z " />
<glyph glyph-name="eogonek" unicode="&#x119;" horiz-adv-x="957" d="M547 -424 Q508 -424 477.5 -412.5 Q447 -401 427 -379 Q407 -357 398.5 -324.5 Q390 -292 395 -250 Q399 -219 413.5 -188 Q428 -157 449 -128 Q470 -99 495.5 -72 Q521 -45 548 -22 Q538 -22 528 -21 Q518 -20 508 -18 Q411 -6 337.5 37 Q264 80 217.5 149 Q171 218 152.5 309.5 Q134 401 147 510 Q162 628 203 727.5 Q244 827 307 899 Q370 971 452 1011.5 Q534 1052 631 1052 Q727 1052 791.5 1014.5 Q856 977 892 909 Q928 841 937.5 746 Q947 651 933 536 Q931 515 923 487 L340 487 Q332 401 343 334 Q354 267 382 221.5 Q410 176 454.5 152 Q499 128 557 128 Q694 128 831 242 L866 106 Q784 16 707 -10 Q701 -30 695 -52.5 Q689 -75 683 -102 Q632 -136 602.5 -165.5 Q573 -195 569 -221 Q564 -263 576.5 -285 Q589 -307 619 -307 Q658 -307 753 -284 L739 -396 Q688 -410 640 -417 Q592 -424 547 -424 Z M782 613 Q787 755 744 830.5 Q701 906 622 906 Q577 906 537 886 Q497 866 463 828 Q429 790 402.5 735.5 Q376 681 358 613 L782 613 Z " />
<glyph glyph-name="Ecaron" unicode="&#x11a;" horiz-adv-x="991" d="M637 1584 L462 1935 L648 1935 L723 1705 L858 1935 L1051 1935 L792 1584 L637 1584 Z M154 0 L332 1456 L1058 1456 L1039 1295 L504 1295 L447 837 L953 837 L933 675 L429 675 L366 161 L923 161 L904 0 L154 0 Z " />
<glyph glyph-name="ecaron" unicode="&#x11b;" horiz-adv-x="957" d="M782 613 Q787 755 744 830.5 Q701 906 622 906 Q577 906 537 886 Q497 866 463 828 Q429 790 402.5 735.5 Q376 681 358 613 L782 613 Z M524 -22 Q422 -22 345 16 Q268 54 219 123.5 Q170 193 151 291.5 Q132 390 147 510 Q162 628 203 727.5 Q244 827 307 899 Q370 971 452 1011.5 Q534 1052 631 1052 Q726 1052 790.5 1014.5 Q855 977 891.5 909 Q928 841 937.5 746 Q947 651 933 536 Q931 515 923 487 L340 487 Q323 314 381 221 Q439 128 557 128 Q694 128 831 242 L866 106 Q783 42 701 10 Q619 -22 524 -22 Z M580 1154 L405 1505 L590 1505 L666 1275 L800 1505 L994 1505 L734 1154 L580 1154 Z " />
<glyph glyph-name="Gcircumflex" unicode="&#x11c;" horiz-adv-x="1228" d="M566 1584 L810 1931 L994 1931 L1158 1584 L978 1584 L891 1802 L748 1584 L566 1584 Z M676 -22 Q533 -23 428.5 29 Q324 81 260 176 Q196 271 173 405.5 Q150 540 171 704 Q192 876 251 1019.5 Q310 1163 401 1265.5 Q492 1368 613 1425 Q734 1482 880 1482 Q953 1482 1011 1473 Q1069 1464 1114 1446 Q1159 1428 1192.5 1400.5 Q1226 1373 1249 1336 L1156 1203 Q1051 1321 862 1321 Q761 1321 677.5 1274 Q594 1227 531 1145.5 Q468 1064 427.5 952.5 Q387 841 371 712 Q355 582 367 476 Q379 370 420.5 295 Q462 220 533 179.5 Q604 139 705 139 Q816 139 924 191 L975 603 L697 603 L717 766 L1188 766 L1104 84 Q895 -22 676 -22 Z " />
<glyph glyph-name="gcircumflex" unicode="&#x11d;" horiz-adv-x="994" d="M514 158 Q575 158 619.5 185 Q664 212 695 261 Q726 310 745 379 Q764 448 775 532 Q785 615 780 683.5 Q775 752 754.5 800.5 Q734 849 697.5 875.5 Q661 902 609 902 Q552 902 507.5 872 Q463 842 429.5 790.5 Q396 739 374.5 669 Q353 599 343 518 Q322 347 364 252.5 Q406 158 514 158 Z M409 -418 Q249 -418 110 -331 L161 -172 Q271 -269 415 -269 Q535 -269 612 -181.5 Q689 -94 711 85 L724 192 Q701 153 674.5 120.5 Q648 88 618 64.5 Q588 41 554 27.5 Q520 14 483 14 Q393 14 324.5 49 Q256 84 212 149.5 Q168 215 151 307.5 Q134 400 148 516 Q163 636 199 735 Q235 834 292 904.5 Q349 975 426 1013.5 Q503 1052 599 1052 Q680 1052 733 1002 Q786 952 809 874 L827 1026 L1023 1026 Q1012 963 1003 910.5 Q994 858 986.5 812.5 Q979 767 973.5 727 Q968 687 963 648 L901 140 Q886 19 847.5 -83.5 Q809 -186 747.5 -260 Q686 -334 601 -376 Q516 -418 409 -418 Z M326 1154 L570 1501 L755 1501 L918 1154 L738 1154 L651 1372 L508 1154 L326 1154 Z " />
<glyph glyph-name="Gbreve" unicode="&#x11e;" horiz-adv-x="1228" d="M868 1610 Q751 1610 696.5 1672.5 Q642 1735 651 1870 L782 1870 Q780 1835 787 1810.5 Q794 1786 808 1771 Q822 1756 841.5 1749 Q861 1742 884 1742 Q935 1742 968.5 1771.5 Q1002 1801 1016 1870 L1146 1870 Q1098 1610 868 1610 Z M676 -22 Q533 -23 428.5 29 Q324 81 260 176 Q196 271 173 405.5 Q150 540 171 704 Q192 876 251 1019.5 Q310 1163 401 1265.5 Q492 1368 613 1425 Q734 1482 880 1482 Q953 1482 1011 1473 Q1069 1464 1114 1446 Q1159 1428 1192.5 1400.5 Q1226 1373 1249 1336 L1156 1203 Q1051 1321 862 1321 Q761 1321 677.5 1274 Q594 1227 531 1145.5 Q468 1064 427.5 952.5 Q387 841 371 712 Q355 582 367 476 Q379 370 420.5 295 Q462 220 533 179.5 Q604 139 705 139 Q816 139 924 191 L975 603 L697 603 L717 766 L1188 766 L1104 84 Q895 -22 676 -22 Z " />
<glyph glyph-name="gbreve" unicode="&#x11f;" horiz-adv-x="994" d="M514 158 Q575 158 619.5 185 Q664 212 695 261 Q726 310 745 379 Q764 448 775 532 Q785 615 780 683.5 Q775 752 754.5 800.5 Q734 849 697.5 875.5 Q661 902 609 902 Q552 902 507.5 872 Q463 842 429.5 790.5 Q396 739 374.5 669 Q353 599 343 518 Q322 347 364 252.5 Q406 158 514 158 Z M409 -418 Q249 -418 110 -331 L161 -172 Q271 -269 415 -269 Q535 -269 612 -181.5 Q689 -94 711 85 L724 192 Q701 153 674.5 120.5 Q648 88 618 64.5 Q588 41 554 27.5 Q520 14 483 14 Q393 14 324.5 49 Q256 84 212 149.5 Q168 215 151 307.5 Q134 400 148 516 Q163 636 199 735 Q235 834 292 904.5 Q349 975 426 1013.5 Q503 1052 599 1052 Q680 1052 733 1002 Q786 952 809 874 L827 1026 L1023 1026 Q1012 963 1003 910.5 Q994 858 986.5 812.5 Q979 767 973.5 727 Q968 687 963 648 L901 140 Q886 19 847.5 -83.5 Q809 -186 747.5 -260 Q686 -334 601 -376 Q516 -418 409 -418 Z M628 1180 Q511 1180 456.5 1242.5 Q402 1305 411 1440 L542 1440 Q540 1405 547 1380.5 Q554 1356 568 1341 Q582 1326 602 1319 Q622 1312 645 1312 Q696 1312 729.5 1341.5 Q763 1371 777 1440 L907 1440 Q857 1180 628 1180 Z " />
<glyph glyph-name="Gdotaccent" unicode="&#x120;" horiz-adv-x="1228" d="M787 1686 L809 1868 L995 1868 L973 1686 L787 1686 Z M676 -22 Q533 -23 428.5 29 Q324 81 260 176 Q196 271 173 405.5 Q150 540 171 704 Q192 876 251 1019.5 Q310 1163 401 1265.5 Q492 1368 613 1425 Q734 1482 880 1482 Q953 1482 1011 1473 Q1069 1464 1114 1446 Q1159 1428 1192.5 1400.5 Q1226 1373 1249 1336 L1156 1203 Q1051 1321 862 1321 Q761 1321 677.5 1274 Q594 1227 531 1145.5 Q468 1064 427.5 952.5 Q387 841 371 712 Q355 582 367 476 Q379 370 420.5 295 Q462 220 533 179.5 Q604 139 705 139 Q816 139 924 191 L975 603 L697 603 L717 766 L1188 766 L1104 84 Q895 -22 676 -22 Z " />
<glyph glyph-name="gdotaccent" unicode="&#x121;" horiz-adv-x="994" d="M514 158 Q575 158 619.5 185 Q664 212 695 261 Q726 310 745 379 Q764 448 775 532 Q785 615 780 683.5 Q775 752 754.5 800.5 Q734 849 697.5 875.5 Q661 902 609 902 Q552 902 507.5 872 Q463 842 429.5 790.5 Q396 739 374.5 669 Q353 599 343 518 Q322 347 364 252.5 Q406 158 514 158 Z M409 -418 Q249 -418 110 -331 L161 -172 Q271 -269 415 -269 Q535 -269 612 -181.5 Q689 -94 711 85 L724 192 Q701 153 674.5 120.5 Q648 88 618 64.5 Q588 41 554 27.5 Q520 14 483 14 Q393 14 324.5 49 Q256 84 212 149.5 Q168 215 151 307.5 Q134 400 148 516 Q163 636 199 735 Q235 834 292 904.5 Q349 975 426 1013.5 Q503 1052 599 1052 Q680 1052 733 1002 Q786 952 809 874 L827 1026 L1023 1026 Q1012 963 1003 910.5 Q994 858 986.5 812.5 Q979 767 973.5 727 Q968 687 963 648 L901 140 Q886 19 847.5 -83.5 Q809 -186 747.5 -260 Q686 -334 601 -376 Q516 -418 409 -418 Z M548 1256 L570 1438 L756 1438 L734 1256 L548 1256 Z " />
<glyph glyph-name="Gcommaaccent" unicode="&#x122;" horiz-adv-x="1228" d="M422 -607 L570 -134 L779 -134 L580 -607 L422 -607 Z M676 -22 Q533 -23 428.5 29 Q324 81 260 176 Q196 271 173 405.5 Q150 540 171 704 Q192 876 251 1019.5 Q310 1163 401 1265.5 Q492 1368 613 1425 Q734 1482 880 1482 Q953 1482 1011 1473 Q1069 1464 1114 1446 Q1159 1428 1192.5 1400.5 Q1226 1373 1249 1336 L1156 1203 Q1051 1321 862 1321 Q761 1321 677.5 1274 Q594 1227 531 1145.5 Q468 1064 427.5 952.5 Q387 841 371 712 Q355 582 367 476 Q379 370 420.5 295 Q462 220 533 179.5 Q604 139 705 139 Q816 139 924 191 L975 603 L697 603 L717 766 L1188 766 L1104 84 Q895 -22 676 -22 Z " />
<glyph glyph-name="gcommaaccent" unicode="&#x123;" horiz-adv-x="994" d="M911 1681 L763 1192 L554 1192 L755 1681 L911 1681 Z M514 158 Q575 158 619.5 185 Q664 212 695 261 Q726 310 745 379 Q764 448 775 532 Q785 615 780 683.5 Q775 752 754.5 800.5 Q734 849 697.5 875.5 Q661 902 609 902 Q552 902 507.5 872 Q463 842 429.5 790.5 Q396 739 374.5 669 Q353 599 343 518 Q322 347 364 252.5 Q406 158 514 158 Z M409 -418 Q249 -418 110 -331 L161 -172 Q271 -269 415 -269 Q535 -269 612 -181.5 Q689 -94 711 85 L724 192 Q701 153 674.5 120.5 Q648 88 618 64.5 Q588 41 554 27.5 Q520 14 483 14 Q393 14 324.5 49 Q256 84 212 149.5 Q168 215 151 307.5 Q134 400 148 516 Q163 636 199 735 Q235 834 292 904.5 Q349 975 426 1013.5 Q503 1052 599 1052 Q680 1052 733 1002 Q786 952 809 874 L827 1026 L1023 1026 Q1012 963 1003 910.5 Q994 858 986.5 812.5 Q979 767 973.5 727 Q968 687 963 648 L901 140 Q886 19 847.5 -83.5 Q809 -186 747.5 -260 Q686 -334 601 -376 Q516 -418 409 -418 Z " />
<glyph glyph-name="Hcircumflex" unicode="&#x124;" horiz-adv-x="1255" d="M516 1584 L760 1931 L944 1931 L1107 1584 L927 1584 L841 1802 L697 1584 L516 1584 Z M154 0 L332 1456 L524 1456 L447 827 L1010 827 L1087 1456 L1278 1456 L1100 0 L913 0 L994 666 L430 666 L349 0 L154 0 Z " />
<glyph glyph-name="hcircumflex" unicode="&#x125;" horiz-adv-x="979" d="M119 0 L301 1486 L487 1486 L411 865 Q432 907 465 941 Q498 975 536 1000 Q574 1025 613.5 1038.5 Q653 1052 688 1052 Q783 1052 839.5 1018 Q896 984 923 925 Q950 866 953 787 Q956 708 945 619 L869 0 L683 0 L758 614 Q777 765 747.5 833.5 Q718 902 641 902 Q599 902 556 879 Q513 856 476 817 Q439 778 413.5 727.5 Q388 677 381 622 L305 0 L119 0 Z M459 1154 L703 1501 L887 1501 L1051 1154 L871 1154 L784 1372 L641 1154 L459 1154 Z " />
<glyph glyph-name="Hbar" unicode="&#x126;" horiz-adv-x="1256" d="M154 0 L296 1161 L219 1161 L231 1269 L309 1269 L332 1456 L524 1456 L501 1269 L1064 1269 L1087 1456 L1278 1456 L1255 1269 L1323 1269 L1310 1161 L1242 1161 L1100 0 L913 0 L994 666 L430 666 L349 0 L154 0 Z M1010 827 L1051 1161 L488 1161 L447 827 L1010 827 Z " />
<glyph glyph-name="hbar" unicode="&#x127;" horiz-adv-x="978" d="M119 0 L265 1190 L127 1190 L142 1314 L280 1314 L301 1486 L487 1486 L466 1314 L633 1314 L618 1190 L451 1190 L411 865 Q432 907 465 941 Q498 975 536 1000 Q574 1025 613.5 1038.5 Q653 1052 688 1052 Q783 1052 839.5 1017.5 Q896 983 923 924 Q950 865 953 786.5 Q956 708 945 619 L869 0 L683 0 L758 614 Q777 765 747.5 833.5 Q718 902 641 902 Q599 902 556 879 Q513 856 476 817 Q439 778 413.5 727.5 Q388 677 381 622 L305 0 L119 0 Z " />
<glyph glyph-name="Itilde" unicode="&#x128;" horiz-adv-x="472" d="M552 1605 Q536 1605 516.5 1612.5 Q497 1620 475.5 1631 Q454 1642 432.5 1655.5 Q411 1669 392 1680 Q373 1691 357 1698.5 Q341 1706 332 1706 Q313 1706 294.5 1683 Q276 1660 266 1613 L146 1613 Q152 1667 169.5 1710 Q187 1753 213 1783 Q239 1813 271.5 1829.5 Q304 1846 342 1846 Q371 1846 403 1834 Q435 1822 464 1806.5 Q493 1791 516.5 1775 Q540 1759 552 1751 Q556 1748 560.5 1746.5 Q565 1745 568 1745 Q592 1745 607 1767 Q622 1789 629 1844 L751 1844 Q737 1732 684.5 1668.5 Q632 1605 552 1605 Z M139 0 L317 1456 L508 1456 L330 0 L139 0 Z " />
<glyph glyph-name="itilde" unicode="&#x129;" horiz-adv-x="397" d="M452 1175 Q436 1175 416.5 1182.5 Q397 1190 375.5 1201 Q354 1212 332.5 1225.5 Q311 1239 292 1250 Q273 1261 257 1268.5 Q241 1276 232 1276 Q213 1276 194.5 1253 Q176 1230 167 1183 L47 1183 Q53 1237 70.5 1280 Q88 1323 113.5 1353 Q139 1383 171.5 1399.5 Q204 1416 242 1416 Q271 1416 303 1404 Q335 1392 364 1376.5 Q393 1361 417 1345 Q441 1329 454 1321 Q456 1318 460.5 1316.5 Q465 1315 468 1315 Q493 1315 508 1337 Q523 1359 529 1414 L651 1414 Q637 1302 585 1238.5 Q533 1175 452 1175 Z M97 0 Q128 258 159 513 Q190 768 222 1026 L408 1026 Q376 768 345.5 513 Q315 258 284 0 L97 0 Z " />
<glyph glyph-name="Imacron" unicode="&#x12a;" horiz-adv-x="472" d="M199 1672 L214 1796 L706 1796 L691 1672 L199 1672 Z M139 0 L317 1456 L508 1456 L330 0 L139 0 Z " />
<glyph glyph-name="imacron" unicode="&#x12b;" horiz-adv-x="397" d="M100 1242 L115 1366 L607 1366 L592 1242 L100 1242 Z M97 0 L222 1026 L408 1026 L284 0 L97 0 Z " />
<glyph glyph-name="Ibreve" unicode="&#x12c;" horiz-adv-x="472" d="M433 1610 Q315 1610 261 1672.5 Q207 1735 216 1870 L347 1870 Q345 1835 352 1810.5 Q359 1786 373 1771 Q387 1756 406.5 1749 Q426 1742 449 1742 Q500 1742 533.5 1771.5 Q567 1801 581 1870 L711 1870 Q663 1610 433 1610 Z M139 0 L317 1456 L508 1456 L330 0 L139 0 Z " />
<glyph glyph-name="ibreve" unicode="&#x12d;" horiz-adv-x="397" d="M97 0 Q128 258 159 513 Q190 768 222 1026 L408 1026 Q376 768 345.5 513 Q315 258 284 0 L97 0 Z M334 1180 Q216 1180 162 1242.5 Q108 1305 117 1440 L248 1440 Q246 1405 253 1380.5 Q260 1356 274 1341 Q288 1326 307.5 1319 Q327 1312 351 1312 Q402 1312 435 1341.5 Q468 1371 482 1440 L612 1440 Q564 1180 334 1180 Z " />
<glyph glyph-name="Iogonek" unicode="&#x12e;" horiz-adv-x="472" d="M297 0 Q272 -23 251 -51.5 Q230 -80 213.5 -110 Q197 -140 186.5 -169 Q176 -198 173 -221 Q168 -263 180.5 -285 Q193 -307 223 -307 Q262 -307 357 -284 L343 -396 Q292 -410 244 -417 Q196 -424 151 -424 Q72 -424 30.5 -379.5 Q-11 -335 0 -250 Q4 -214 25 -179 Q46 -144 74.5 -112 Q103 -80 133.5 -51.5 Q164 -23 188 0 L139 0 L317 1456 L508 1456 L331 10 L332 10 Q332 9 331 9 Q330 9 330 8 L330 0 L297 0 Z " />
<glyph glyph-name="iogonek" unicode="&#x12f;" horiz-adv-x="398" d="M279 0 Q270 -21 262.5 -46.5 Q255 -72 247 -102 Q199 -136 172 -165.5 Q145 -195 141 -221 Q136 -263 148.5 -285 Q161 -307 191 -307 Q230 -307 325 -284 L311 -396 Q273 -410 237 -417 Q201 -424 168 -424 Q152 -424 137 -423 Q122 -422 108 -419 Q34 -406 -3 -362.5 Q-40 -319 -32 -250 Q-28 -214 -6.5 -179 Q15 -144 43 -112 Q71 -80 101.5 -51.5 Q132 -23 156 0 L97 0 Q128 258 159 513 Q190 768 222 1026 L408 1026 Q379 789 351 555 Q323 321 294 85 L292 0 L279 0 Z M256 1256 L278 1438 L463 1438 L441 1256 L256 1256 Z " />
<glyph glyph-name="Idot" unicode="&#x130;" horiz-adv-x="471" d="M355 1686 L377 1868 L562 1868 L540 1686 L355 1686 Z M139 0 L317 1456 L508 1456 L330 0 L139 0 Z " />
<glyph glyph-name="dotlessi" unicode="&#x131;" horiz-adv-x="398" d="M67 0 L192 1026 L378 1026 L254 0 L67 0 Z " />
<glyph glyph-name="IJ" unicode="&#x132;" horiz-adv-x="1242" d="M842 -326 Q781 -326 727 -323.5 Q673 -321 630 -315.5 Q587 -310 557 -302.5 Q527 -295 514 -284 L680 -134 Q691 -150 720.5 -157.5 Q750 -165 789 -165 Q810 -165 832.5 -161 Q855 -157 877 -149 Q930 -127 973 -63.5 Q1016 0 1051 120 Q1110 270 1128 417 L1255 1456 L1446 1456 L1319 418 Q1310 343 1299.5 269.5 Q1289 196 1276 121 Q1254 5 1219.5 -79 Q1185 -163 1132.5 -218 Q1080 -273 1008.5 -299.5 Q937 -326 842 -326 Z M139 0 L317 1456 L508 1456 L330 0 L139 0 Z " />
<glyph glyph-name="ij" unicode="&#x133;" horiz-adv-x="879" d="M742 1277 L764 1456 L948 1456 L926 1277 L742 1277 Z M319 -423 Q315 -423 312 -411 Q317 -373 321 -335.5 Q325 -298 330 -260 Q339 -272 346 -272 Q395 -272 451 -254 Q487 -240 510 -215 Q533 -190 547.5 -154 Q562 -118 571 -70.5 Q580 -23 587 36 L708 1026 L895 1026 L781 94 Q774 37 763.5 -23.5 Q753 -84 735.5 -141.5 Q718 -199 692.5 -250 Q667 -301 630.5 -339.5 Q594 -378 544.5 -400.5 Q495 -423 431 -423 L319 -423 Z M277 1285 L298 1456 L478 1456 L457 1285 L277 1285 Z M120 0 L245 1026 L425 1026 L300 0 L120 0 Z " />
<glyph glyph-name="Jcircumflex" unicode="&#x134;" horiz-adv-x="770" d="M419 1584 L663 1931 L848 1931 L1011 1584 L831 1584 L744 1802 L601 1584 L419 1584 Z M370 -326 Q309 -326 255 -323.5 Q201 -321 158 -315.5 Q115 -310 85 -302.5 Q55 -295 42 -284 L208 -134 Q219 -150 248.5 -157.5 Q278 -165 317 -165 Q338 -165 360.5 -161 Q383 -157 405 -149 Q458 -127 501.5 -63.5 Q545 0 580 120 Q609 195 628 268.5 Q647 342 656 417 L783 1456 L974 1456 L847 418 Q838 343 827.5 269.5 Q817 196 804 121 Q782 5 747.5 -79 Q713 -163 660.5 -218 Q608 -273 536.5 -299.5 Q465 -326 370 -326 Z " />
<glyph glyph-name="jcircumflex" unicode="&#x135;" horiz-adv-x="461" d="M-98 -423 Q-102 -423 -105 -411 Q-101 -373 -97 -335.5 Q-93 -298 -88 -260 Q-42 -272 15 -272 Q76 -272 112.5 -197.5 Q149 -123 169 36 L290 1026 L477 1026 L364 104 Q357 47 347.5 -14.5 Q338 -76 321.5 -134.5 Q305 -193 280.5 -245.5 Q256 -298 219.5 -337.5 Q183 -377 132 -400 Q81 -423 13 -423 L-87 -423 L-98 -423 Z M100 1154 L344 1501 L528 1501 L692 1154 L512 1154 L425 1372 L282 1154 L100 1154 Z " />
<glyph glyph-name="Kcommaaccent" unicode="&#x136;" horiz-adv-x="1071" d="M340 -607 L487 -134 L697 -134 L497 -607 L340 -607 Z M154 0 L332 1456 L523 1456 L443 800 L985 1456 L1223 1456 L624 755 L1084 0 L837 0 L431 692 L347 0 L154 0 Z " />
<glyph glyph-name="kcommaaccent" unicode="&#x137;" horiz-adv-x="868" d="M207 -607 L355 -134 L565 -134 L365 -607 L207 -607 Z M119 0 L301 1486 L487 1486 L377 587 L741 1026 L997 1026 L540 537 L898 0 L652 0 L364 485 L305 0 L119 0 Z " />
<glyph glyph-name="kgreenlandic" unicode="&#x138;" horiz-adv-x="866" d="M121 0 L246 1026 L431 1026 L376 571 L732 1026 L986 1026 L511 517 L628 310 L672 310 L686 310 L713 207 L889 0 L641 0 L361 455 L306 0 L121 0 Z " />
<glyph glyph-name="Lacute" unicode="&#x139;" horiz-adv-x="926" d="M409 1602 L658 1962 L897 1962 L577 1602 L409 1602 Z M154 0 L332 1456 L523 1456 L364 161 L904 161 L885 0 L154 0 Z " />
<glyph glyph-name="lacute" unicode="&#x13a;" horiz-adv-x="421" d="M120 0 L302 1486 L487 1486 L305 0 L120 0 Z M334 1602 L584 1962 L823 1962 L502 1602 L334 1602 Z " />
<glyph glyph-name="Lcommaaccent" unicode="&#x13b;" horiz-adv-x="926" d="M254 -607 L402 -134 L612 -134 L412 -607 L254 -607 Z M154 0 L332 1456 L523 1456 L364 161 L904 161 L885 0 L154 0 Z " />
<glyph glyph-name="lcommaaccent" unicode="&#x13c;" horiz-adv-x="421" d="M-45 -607 L102 -134 L312 -134 L112 -607 L-45 -607 Z M120 0 L302 1486 L487 1486 L305 0 L120 0 Z " />
<glyph glyph-name="Lcaron" unicode="&#x13d;" horiz-adv-x="926" d="M607 994 L755 1468 L965 1468 L765 994 L607 994 Z M154 0 L332 1456 L523 1456 L364 161 L904 161 L885 0 L154 0 Z " />
<glyph glyph-name="lcaron" unicode="&#x13e;" horiz-adv-x="421" d="M120 0 L302 1486 L487 1486 L305 0 L120 0 Z M511 994 L659 1468 L869 1468 L669 994 L511 994 Z " />
<glyph glyph-name="Ldot" unicode="&#x13f;" horiz-adv-x="926" d="M554 643 L579 843 L802 843 L777 643 L554 643 Z M154 0 L332 1456 L523 1456 L364 161 L904 161 L885 0 L154 0 Z " />
<glyph glyph-name="ldot" unicode="&#x140;" horiz-adv-x="421" d="M456 639 L481 839 L704 839 L679 639 L456 639 Z M120 0 L302 1486 L487 1486 L305 0 L120 0 Z " />
<glyph glyph-name="Lslash" unicode="&#x141;" horiz-adv-x="926" d="M124 0 L193 568 L58 472 L78 631 L213 727 L302 1456 L493 1456 L419 849 L602 1038 L582 879 L399 690 L334 161 L874 161 L855 0 L124 0 Z " />
<glyph glyph-name="lslash" unicode="&#x142;" horiz-adv-x="403" d="M72 0 L157 698 L47 598 L66 756 L176 856 L253 1483 L440 1483 L377 977 L482 1077 L462 919 L359 817 L259 0 L72 0 Z " />
<glyph glyph-name="Nacute" unicode="&#x143;" horiz-adv-x="1298" d="M780 1602 L1030 1962 L1269 1962 L948 1602 L780 1602 Z M154 0 L332 1456 L535 1456 L919 432 L994 262 L1140 1456 L1322 1456 L1144 0 L940 0 L548 986 L476 1186 L331 0 L154 0 Z " />
<glyph glyph-name="nacute" unicode="&#x144;" horiz-adv-x="983" d="M130 0 L209 649 Q213 685 218 732.5 Q223 780 227.5 828 Q232 876 235 919 Q238 962 240 989 L241 1026 L437 1026 L418 865 Q444 909 478 944 Q512 979 549.5 1003 Q587 1027 625.5 1039.5 Q664 1052 699 1052 Q842 1052 908 934 Q974 816 944 578 L874 0 L688 0 L758 577 Q778 743 752.5 822.5 Q727 902 643 902 Q611 902 570.5 880.5 Q530 859 493.5 823 Q457 787 429 740.5 Q401 694 394 643 L316 0 L130 0 Z M600 1172 L851 1532 L1090 1532 L768 1172 L600 1172 Z " />
<glyph glyph-name="Ncommaaccent" unicode="&#x145;" horiz-adv-x="1298" d="M415 -607 L563 -134 L773 -134 L573 -607 L415 -607 Z M154 0 L332 1456 L535 1456 L919 432 L994 262 L1140 1456 L1322 1456 L1144 0 L940 0 L548 986 L476 1186 L331 0 L154 0 Z " />
<glyph glyph-name="ncommaaccent" unicode="&#x146;" horiz-adv-x="983" d="M246 -607 L394 -134 L603 -134 L404 -607 L246 -607 Z M130 0 L209 649 Q213 685 218 732.5 Q223 780 227.5 828 Q232 876 235 919 Q238 962 240 989 L241 1026 L437 1026 L418 865 Q444 909 478 944 Q512 979 549.5 1003 Q587 1027 625.5 1039.5 Q664 1052 699 1052 Q842 1052 908 934 Q974 816 944 578 L874 0 L688 0 L758 577 Q778 743 752.5 822.5 Q727 902 643 902 Q611 902 570.5 880.5 Q530 859 493.5 823 Q457 787 429 740.5 Q401 694 394 643 L316 0 L130 0 Z " />
<glyph glyph-name="Ncaron" unicode="&#x147;" horiz-adv-x="1298" d="M772 1584 L596 1935 L782 1935 L858 1705 L992 1935 L1186 1935 L926 1584 L772 1584 Z M154 0 L332 1456 L535 1456 L919 432 L994 262 L1140 1456 L1322 1456 L1144 0 L940 0 L548 986 L476 1186 L331 0 L154 0 Z " />
<glyph glyph-name="ncaron" unicode="&#x148;" horiz-adv-x="983" d="M130 0 L209 649 Q213 685 218 732.5 Q223 780 227.5 828 Q232 876 235 919 Q238 962 240 989 L241 1026 L437 1026 L418 865 Q444 909 478 944 Q512 979 549.5 1003 Q587 1027 625.5 1039.5 Q664 1052 699 1052 Q842 1052 908 934 Q974 816 944 578 L874 0 L688 0 L758 577 Q778 743 752.5 822.5 Q727 902 643 902 Q611 902 570.5 880.5 Q530 859 493.5 823 Q457 787 429 740.5 Q401 694 394 643 L316 0 L130 0 Z M591 1154 L416 1505 L601 1505 L677 1275 L811 1505 L1005 1505 L745 1154 L591 1154 Z " />
<glyph glyph-name="napostrophe" unicode="&#x149;" horiz-adv-x="983" d="M130 0 L209 649 Q213 685 218 732.5 Q223 780 227.5 828 Q232 876 235 919 Q238 962 240 989 L241 1026 L437 1026 L418 865 Q444 909 478 944 Q512 979 549.5 1003 Q587 1027 625.5 1039.5 Q664 1052 699 1052 Q842 1052 908 934 Q974 816 944 578 L874 0 L688 0 L758 577 Q778 743 752.5 822.5 Q727 902 643 902 Q611 902 570.5 880.5 Q530 859 493.5 823 Q457 787 429 740.5 Q401 694 394 643 L316 0 L130 0 Z M195 1215 L338 1789 L550 1789 L331 1215 L195 1215 Z " />
<glyph glyph-name="Eng" unicode="&#x14a;" horiz-adv-x="1287" d="M1313 1456 L1141 56 Q1112 -188 993 -312 Q874 -436 660 -436 L678 -289 Q731 -289 776 -274 Q821 -259 856.5 -227 Q892 -195 916 -146 Q940 -97 950 -28 L960 55 L559 1044 L479 1200 L332 0 L156 0 L334 1456 L536 1456 L915 488 L994 327 L1132 1456 L1313 1456 Z " />
<glyph glyph-name="eng" unicode="&#x14b;" horiz-adv-x="961" d="M400 -269 Q451 -269 497 -248 Q543 -227 579.5 -182 Q616 -137 642 -67 Q668 3 680 100 L735 549 Q744 624 749 688.5 Q754 753 745.5 800 Q737 847 710.5 873.5 Q684 900 631 900 Q598 900 559 876 Q520 852 484.5 814.5 Q449 777 423.5 731.5 Q398 686 393 643 L315 0 L129 0 L208 649 Q212 685 217 732.5 Q222 780 226 828 Q230 876 233.5 919 Q237 962 239 989 L240 1026 L436 1026 Q432 990 428 954 Q424 918 419 882 Q441 924 473 955.5 Q505 987 541 1008 Q577 1029 615 1040 Q653 1051 688 1051 Q831 1051 891.5 926.5 Q952 802 922 559 L869 130 Q853 -2 811.5 -102.5 Q770 -203 707.5 -271 Q645 -339 562.5 -373.5 Q480 -408 383 -408 L400 -269 Z " />
<glyph glyph-name="Omacron" unicode="&#x14c;" horiz-adv-x="1328" d="M610 1672 L625 1796 L1116 1796 L1101 1672 L610 1672 Z M664 -22 Q529 -22 427.5 31 Q326 84 262.5 181.5 Q199 279 176 418 Q153 557 174 729 Q195 900 253 1039 Q311 1178 399 1276.5 Q487 1375 601.5 1428.5 Q716 1482 851 1482 Q982 1482 1081.5 1427 Q1181 1372 1243.5 1273 Q1306 1174 1329.5 1035.5 Q1353 897 1332 729 Q1311 558 1254.5 419.5 Q1198 281 1112 183 Q1026 85 912.5 31.5 Q799 -22 664 -22 Z M680 139 Q772 139 846.5 180 Q921 221 977.5 297.5 Q1034 374 1071 483 Q1108 592 1125 729 Q1141 862 1130.5 971 Q1120 1080 1083 1158 Q1046 1236 982 1278.5 Q918 1321 828 1321 Q738 1321 662.5 1278.5 Q587 1236 529.5 1158 Q472 1080 434 971 Q396 862 380 729 Q363 592 373.5 483 Q384 374 421.5 297.5 Q459 221 523.5 180 Q588 139 680 139 Z " />
<glyph glyph-name="omacron" unicode="&#x14d;" horiz-adv-x="1023" d="M512 -22 Q405 -22 329.5 17 Q254 56 208.5 126.5 Q163 197 148 295 Q133 393 147 512 Q162 633 202.5 732.5 Q243 832 306 903 Q369 974 454 1013 Q539 1052 644 1052 Q750 1052 824.5 1013 Q899 974 943 902.5 Q987 831 1001 731.5 Q1015 632 1000 512 Q986 394 947 295.5 Q908 197 846 126.5 Q784 56 700 17 Q616 -22 512 -22 Z M527 128 Q588 128 635.5 156 Q683 184 717.5 234.5 Q752 285 774 355.5 Q796 426 807 512 Q818 599 812 671 Q806 743 783.5 794 Q761 845 720.5 873.5 Q680 902 622 902 Q563 902 516 874 Q469 846 433.5 794.5 Q398 743 374.5 671 Q351 599 341 512 Q318 326 363 227 Q408 128 527 128 Z M404 1242 L419 1366 L911 1366 L896 1242 L404 1242 Z " />
<glyph glyph-name="Obreve" unicode="&#x14e;" horiz-adv-x="1328" d="M865 1610 Q748 1610 694 1672.5 Q640 1735 648 1870 L779 1870 Q777 1835 784 1810.5 Q791 1786 805 1771 Q819 1756 838.5 1749 Q858 1742 881 1742 Q932 1742 966 1771.5 Q1000 1801 1014 1870 L1144 1870 Q1094 1610 865 1610 Z M664 -22 Q529 -22 427.5 31 Q326 84 262.5 181.5 Q199 279 176 418 Q153 557 174 729 Q195 900 253 1039 Q311 1178 399 1276.5 Q487 1375 601.5 1428.5 Q716 1482 851 1482 Q982 1482 1081.5 1427 Q1181 1372 1243.5 1273 Q1306 1174 1329.5 1035.5 Q1353 897 1332 729 Q1311 558 1254.5 419.5 Q1198 281 1112 183 Q1026 85 912.5 31.5 Q799 -22 664 -22 Z M680 139 Q772 139 846.5 180 Q921 221 977.5 297.5 Q1034 374 1071 483 Q1108 592 1125 729 Q1141 862 1130.5 971 Q1120 1080 1083 1158 Q1046 1236 982 1278.5 Q918 1321 828 1321 Q738 1321 662.5 1278.5 Q587 1236 529.5 1158 Q472 1080 434 971 Q396 862 380 729 Q363 592 373.5 483 Q384 374 421.5 297.5 Q459 221 523.5 180 Q588 139 680 139 Z " />
<glyph glyph-name="obreve" unicode="&#x14f;" horiz-adv-x="1023" d="M512 -22 Q405 -22 329.5 17 Q254 56 208.5 126.5 Q163 197 148 295 Q133 393 147 512 Q162 633 202.5 732.5 Q243 832 306 903 Q369 974 454 1013 Q539 1052 644 1052 Q750 1052 824.5 1013 Q899 974 943 902.5 Q987 831 1001 731.5 Q1015 632 1000 512 Q986 394 947 295.5 Q908 197 846 126.5 Q784 56 700 17 Q616 -22 512 -22 Z M527 128 Q588 128 635.5 156 Q683 184 717.5 234.5 Q752 285 774 355.5 Q796 426 807 512 Q818 599 812 671 Q806 743 783.5 794 Q761 845 720.5 873.5 Q680 902 622 902 Q563 902 516 874 Q469 846 433.5 794.5 Q398 743 374.5 671 Q351 599 341 512 Q318 326 363 227 Q408 128 527 128 Z M660 1180 Q543 1180 488.5 1242.5 Q434 1305 443 1440 L574 1440 Q572 1405 579 1380.5 Q586 1356 600 1341 Q614 1326 634 1319 Q654 1312 677 1312 Q728 1312 761.5 1341.5 Q795 1371 809 1440 L939 1440 Q889 1180 660 1180 Z " />
<glyph glyph-name="Ohungarumlaut" unicode="&#x150;" horiz-adv-x="1328" d="M948 1590 L1166 1962 L1386 1962 L1087 1590 L948 1590 Z M680 1590 L859 1962 L1057 1962 L814 1590 L680 1590 Z M664 -22 Q529 -22 427.5 31 Q326 84 262.5 181.5 Q199 279 176 418 Q153 557 174 729 Q195 900 253 1039 Q311 1178 399 1276.5 Q487 1375 601.5 1428.5 Q716 1482 851 1482 Q982 1482 1081.5 1427 Q1181 1372 1243.5 1273 Q1306 1174 1329.5 1035.5 Q1353 897 1332 729 Q1311 558 1254.5 419.5 Q1198 281 1112 183 Q1026 85 912.5 31.5 Q799 -22 664 -22 Z M680 139 Q772 139 846.5 180 Q921 221 977.5 297.5 Q1034 374 1071 483 Q1108 592 1125 729 Q1141 862 1130.5 971 Q1120 1080 1083 1158 Q1046 1236 982 1278.5 Q918 1321 828 1321 Q738 1321 662.5 1278.5 Q587 1236 529.5 1158 Q472 1080 434 971 Q396 862 380 729 Q363 592 373.5 483 Q384 374 421.5 297.5 Q459 221 523.5 180 Q588 139 680 139 Z " />
<glyph glyph-name="ohungarumlaut" unicode="&#x151;" horiz-adv-x="1024" d="M512 -22 Q405 -22 329.5 17 Q254 56 208.5 126.5 Q163 197 148 295 Q133 393 147 512 Q162 633 202.5 732.5 Q243 832 306 903 Q369 974 454 1013 Q539 1052 644 1052 Q750 1052 824.5 1013 Q899 974 943 902.5 Q987 831 1001 731.5 Q1015 632 1000 512 Q986 394 947 295.5 Q908 197 846 126.5 Q784 56 700 17 Q616 -22 512 -22 Z M527 128 Q588 128 635.5 156 Q683 184 717.5 234.5 Q752 285 774 355.5 Q796 426 807 512 Q818 599 812 671 Q806 743 783.5 794 Q761 845 720.5 873.5 Q680 902 622 902 Q563 902 516 874 Q469 846 433.5 794.5 Q398 743 374.5 671 Q351 599 341 512 Q318 326 363 227 Q408 128 527 128 Z M743 1160 L962 1532 L1182 1532 L882 1160 L743 1160 Z M475 1160 L655 1532 L853 1532 L609 1160 L475 1160 Z " />
<glyph glyph-name="OE" unicode="&#x152;" horiz-adv-x="1644" d="M644 132 Q696 132 736 143.5 Q776 155 804.5 173 Q833 191 850.5 212.5 Q868 234 876 254 L993 1212 Q961 1260 914 1290 Q867 1320 802 1320 Q730 1320 656.5 1276 Q583 1232 520.5 1153.5 Q458 1075 412 965.5 Q366 856 350 725 Q334 598 345.5 489.5 Q357 381 394.5 301.5 Q432 222 495 177 Q558 132 644 132 Z M856 94 Q850 75 830 54.5 Q810 34 779 17 Q748 0 706.5 -11 Q665 -22 616 -22 Q497 -22 400.5 29.5 Q304 81 239.5 177 Q175 273 148.5 410.5 Q122 548 143 721 Q157 834 189 934.5 Q221 1035 267.5 1120 Q314 1205 372.5 1272 Q431 1339 498 1386 Q565 1433 638.5 1458 Q712 1483 789 1483 Q846 1483 886.5 1474.5 Q927 1466 954 1451.5 Q981 1437 995.5 1418.5 Q1010 1400 1014 1381 L1023 1456 L1687 1456 L1667 1291 L1193 1291 L1136 829 L1580 829 L1560 663 L1118 663 L1057 165 L1552 165 L1532 0 L845 0 L856 94 Z " />
<glyph glyph-name="oe" unicode="&#x153;" horiz-adv-x="1598" d="M1354 615 L1357 639 Q1362 696 1352 744 Q1342 792 1320 827 Q1298 862 1266 882 Q1234 902 1196 902 Q1154 902 1116 879.5 Q1078 857 1046.5 818.5 Q1015 780 992 727.5 Q969 675 957 615 L1354 615 Z M495 128 Q549 128 593 158 Q637 188 669 240 Q701 292 722.5 362 Q744 432 753 511 Q764 598 759.5 670 Q755 742 735 793.5 Q715 845 677.5 873.5 Q640 902 585 902 Q531 902 484.5 872.5 Q438 843 402 790.5 Q366 738 341 665.5 Q316 593 306 506 Q296 424 302 354.5 Q308 285 331 235 Q354 185 395 156.5 Q436 128 495 128 Z M475 -22 Q376 -22 302 17 Q228 56 181 126.5 Q134 197 116 294.5 Q98 392 112 509 Q127 628 169 728 Q211 828 274.5 900 Q338 972 421.5 1012 Q505 1052 602 1052 Q711 1052 782.5 992 Q854 932 888 823 Q951 939 1029.5 996.5 Q1108 1054 1218 1054 Q1305 1054 1369 1016 Q1433 978 1472 908.5 Q1511 839 1524 741 Q1537 643 1522 524 L1515 471 L937 471 Q937 471 937 466 Q937 461 936.5 455.5 Q936 450 936 445 Q936 440 936 440 Q931 369 942 311 Q953 253 980 212.5 Q1007 172 1050 150 Q1093 128 1151 128 Q1194 128 1235 135 Q1276 142 1311.5 155.5 Q1347 169 1374 189 Q1401 209 1418 235 L1454 101 Q1450 38 1361.5 8 Q1273 -22 1112 -22 Q1063 -22 1016 -5.5 Q969 11 928.5 41 Q888 71 857.5 113.5 Q827 156 812 208 Q786 155 748 112.5 Q710 70 665 40 Q620 10 571 -6 Q522 -22 475 -22 Z " />
<glyph glyph-name="Racute" unicode="&#x154;" horiz-adv-x="1105" d="M154 0 L332 1456 L741 1456 Q834 1456 907 1442 Q980 1428 1028 1386.5 Q1076 1345 1095 1269 Q1114 1193 1099 1069 Q1082 932 1013.5 840 Q945 748 824 718 Q850 705 871 683 Q892 661 907.5 627.5 Q923 594 934 547.5 Q945 501 951 440 L1049 0 L843 0 L763 428 Q754 489 742.5 531 Q731 573 712.5 599 Q694 625 666.5 636 Q639 647 597 647 L424 647 L345 0 L154 0 Z M442 808 L642 808 Q752 808 815.5 865.5 Q879 923 896 1058 Q905 1127 898.5 1172.5 Q892 1218 870.5 1245 Q849 1272 812 1283.5 Q775 1295 722 1295 L502 1295 L442 808 Z M643 1602 L893 1962 L1132 1962 L811 1602 L643 1602 Z " />
<glyph glyph-name="racute" unicode="&#x155;" horiz-adv-x="628" d="M133 0 L228 774 Q230 791 231.5 815 Q233 839 235 871 Q237 898 238.5 925.5 Q240 953 242 980 L243 1026 L441 1026 L422 866 Q480 959 535 1004.5 Q590 1050 654 1050 Q693 1050 735 1038 L715 875 Q666 891 620 891 Q533 891 471 808 Q407 724 389 571 L319 0 L133 0 Z M429 1172 L680 1532 L919 1532 L597 1172 L429 1172 Z " />
<glyph glyph-name="Rcommaaccent" unicode="&#x156;" horiz-adv-x="1105" d="M154 0 L332 1456 L741 1456 Q834 1456 907 1442 Q980 1428 1028 1386.5 Q1076 1345 1095 1269 Q1114 1193 1099 1069 Q1082 932 1013.5 840 Q945 748 824 718 Q850 705 871 683 Q892 661 907.5 627.5 Q923 594 934 547.5 Q945 501 951 440 L1049 0 L843 0 L763 428 Q754 489 742.5 531 Q731 573 712.5 599 Q694 625 666.5 636 Q639 647 597 647 L424 647 L345 0 L154 0 Z M442 808 L642 808 Q752 808 815.5 865.5 Q879 923 896 1058 Q905 1127 898.5 1172.5 Q892 1218 870.5 1245 Q849 1272 812 1283.5 Q775 1295 722 1295 L502 1295 L442 808 Z M320 -607 L468 -134 L678 -134 L478 -607 L320 -607 Z " />
<glyph glyph-name="rcommaaccent" unicode="&#x157;" horiz-adv-x="628" d="M4 -607 L151 -134 L361 -134 L161 -607 L4 -607 Z M133 0 L228 774 Q230 791 231.5 815 Q233 839 235 871 Q237 898 238.5 925.5 Q240 953 242 980 L243 1026 L441 1026 L422 866 Q480 959 535 1004.5 Q590 1050 654 1050 Q693 1050 735 1038 L715 875 Q666 891 620 891 Q533 891 471 808 Q407 724 389 571 L319 0 L133 0 Z " />
<glyph glyph-name="Rcaron" unicode="&#x158;" horiz-adv-x="1105" d="M154 0 L332 1456 L741 1456 Q834 1456 907 1442 Q980 1428 1028 1386.5 Q1076 1345 1095 1269 Q1114 1193 1099 1069 Q1082 932 1013.5 840 Q945 748 824 718 Q850 705 871 683 Q892 661 907.5 627.5 Q923 594 934 547.5 Q945 501 951 440 L1049 0 L843 0 L763 428 Q754 489 742.5 531 Q731 573 712.5 599 Q694 625 666.5 636 Q639 647 597 647 L424 647 L345 0 L154 0 Z M442 808 L642 808 Q752 808 815.5 865.5 Q879 923 896 1058 Q905 1127 898.5 1172.5 Q892 1218 870.5 1245 Q849 1272 812 1283.5 Q775 1295 722 1295 L502 1295 L442 808 Z M634 1584 L459 1935 L644 1935 L720 1705 L854 1935 L1048 1935 L788 1584 L634 1584 Z " />
<glyph glyph-name="rcaron" unicode="&#x159;" horiz-adv-x="628" d="M133 0 L228 774 Q230 791 231.5 815 Q233 839 235 871 Q237 898 238.5 925.5 Q240 953 242 980 L243 1026 L441 1026 L422 866 Q480 959 535 1004.5 Q590 1050 654 1050 Q693 1050 735 1038 L715 875 Q666 891 620 891 Q533 891 471 808 Q407 724 389 571 L319 0 L133 0 Z M420 1154 L245 1505 L431 1505 L506 1275 L640 1505 L834 1505 L575 1154 L420 1154 Z " />
<glyph glyph-name="Sacute" unicode="&#x15a;" horiz-adv-x="997" d="M605 1602 L855 1962 L1094 1962 L774 1602 L605 1602 Z M501 139 Q613 139 674.5 204 Q736 269 750 390 Q756 439 754 477 Q752 515 736.5 545.5 Q721 576 689 602.5 Q657 629 603 655 Q595 659 581.5 663 Q568 667 552 670.5 Q536 674 519.5 676.5 Q503 679 490 681 Q412 711 357.5 747 Q303 783 271.5 831.5 Q240 880 229.5 945 Q219 1010 230 1098 Q242 1193 282 1265 Q322 1337 382 1385 Q442 1433 517.5 1457.5 Q593 1482 676 1482 Q750 1482 805.5 1472.5 Q861 1463 905 1444 Q949 1425 984 1396.5 Q1019 1368 1052 1330 L939 1201 Q918 1225 891.5 1247 Q865 1269 833 1285.5 Q801 1302 763.5 1311.5 Q726 1321 683 1321 Q635 1321 592.5 1307 Q550 1293 517 1265.5 Q484 1238 462.5 1197.5 Q441 1157 435 1104 Q429 1050 430.5 1013.5 Q432 977 447.5 950 Q463 923 495 901 Q527 879 581 853 Q585 853 592 850 Q599 847 610 842 Q719 807 790.5 765.5 Q862 724 901.5 669 Q941 614 952 544 Q963 474 952 384 Q939 280 896.5 203.5 Q854 127 791.5 77 Q729 27 651.5 2.5 Q574 -22 492 -22 Q432 -22 375 -7 Q318 8 268.5 32 Q219 56 178.5 85 Q138 114 112 142 L211 280 Q234 255 269 230 Q304 205 343.5 184.5 Q383 164 424 151.5 Q465 139 501 139 Z " />
<glyph glyph-name="sacute" unicode="&#x15b;" horiz-adv-x="788" d="M421 -22 Q368 -22 320 -11 Q272 0 231 18 Q190 36 157 58 Q124 80 101 102 L165 239 Q187 218 217 198.5 Q247 179 281 163.5 Q315 148 351.5 138.5 Q388 129 423 129 Q499 129 536 166.5 Q573 204 583 279 Q586 308 584 328 Q582 348 571.5 364 Q561 380 540 394.5 Q519 409 485 427 L373 479 Q326 499 289 522 Q252 545 228 578 Q204 611 193.5 656.5 Q183 702 190 767 Q199 842 230 896 Q261 950 306.5 984.5 Q352 1019 409 1035 Q466 1051 527 1051 Q606 1051 678.5 1029 Q751 1007 805 962 L739 830 Q718 848 691 861.5 Q664 875 635.5 884 Q607 893 578 897.5 Q549 902 523 902 Q452 902 414.5 868.5 Q377 835 369 772 Q366 737 368.5 715 Q371 693 385 676 Q399 659 428 643 Q457 627 505 605 L537 593 Q591 570 635 547 Q679 524 709 490 Q739 456 752 407.5 Q765 359 756 286 Q745 203 711.5 144.5 Q678 86 631 49 Q584 12 529 -5 Q474 -22 421 -22 Z M461 1172 L711 1532 L950 1532 L629 1172 L461 1172 Z " />
<glyph glyph-name="Scircumflex" unicode="&#x15c;" horiz-adv-x="997" d="M395 1584 L639 1931 L823 1931 L987 1584 L807 1584 L720 1802 L577 1584 L395 1584 Z M501 139 Q613 139 674.5 204 Q736 269 750 390 Q756 439 754 477 Q752 515 736.5 545.5 Q721 576 689 602.5 Q657 629 603 655 Q595 659 581.5 663 Q568 667 552 670.5 Q536 674 519.5 676.5 Q503 679 490 681 Q412 711 357.5 747 Q303 783 271.5 831.5 Q240 880 229.5 945 Q219 1010 230 1098 Q242 1193 282 1265 Q322 1337 382 1385 Q442 1433 517.5 1457.5 Q593 1482 676 1482 Q750 1482 805.5 1472.5 Q861 1463 905 1444 Q949 1425 984 1396.5 Q1019 1368 1052 1330 L939 1201 Q918 1225 891.5 1247 Q865 1269 833 1285.5 Q801 1302 763.5 1311.5 Q726 1321 683 1321 Q635 1321 592.5 1307 Q550 1293 517 1265.5 Q484 1238 462.5 1197.5 Q441 1157 435 1104 Q429 1050 430.5 1013.5 Q432 977 447.5 950 Q463 923 495 901 Q527 879 581 853 Q585 853 592 850 Q599 847 610 842 Q719 807 790.5 765.5 Q862 724 901.5 669 Q941 614 952 544 Q963 474 952 384 Q939 280 896.5 203.5 Q854 127 791.5 77 Q729 27 651.5 2.5 Q574 -22 492 -22 Q432 -22 375 -7 Q318 8 268.5 32 Q219 56 178.5 85 Q138 114 112 142 L211 280 Q234 255 269 230 Q304 205 343.5 184.5 Q383 164 424 151.5 Q465 139 501 139 Z " />
<glyph glyph-name="scircumflex" unicode="&#x15d;" horiz-adv-x="789" d="M421 -22 Q368 -22 320 -11 Q272 0 231 18 Q190 36 157 58 Q124 80 101 102 L165 239 Q187 218 217 198.5 Q247 179 281 163.5 Q315 148 351.5 138.5 Q388 129 423 129 Q499 129 536 166.5 Q573 204 583 279 Q586 308 584 328 Q582 348 571.5 364 Q561 380 540 394.5 Q519 409 485 427 L373 479 Q326 499 289 522 Q252 545 228 578 Q204 611 193.5 656.5 Q183 702 190 767 Q199 842 230 896 Q261 950 306.5 984.5 Q352 1019 409 1035 Q466 1051 527 1051 Q606 1051 678.5 1029 Q751 1007 805 962 L739 830 Q718 848 691 861.5 Q664 875 635.5 884 Q607 893 578 897.5 Q549 902 523 902 Q452 902 414.5 868.5 Q377 835 369 772 Q366 737 368.5 715 Q371 693 385 676 Q399 659 428 643 Q457 627 505 605 L537 593 Q591 570 635 547 Q679 524 709 490 Q739 456 752 407.5 Q765 359 756 286 Q745 203 711.5 144.5 Q678 86 631 49 Q584 12 529 -5 Q474 -22 421 -22 Z M242 1154 L486 1501 L670 1501 L833 1154 L653 1154 L566 1372 L423 1154 L242 1154 Z " />
<glyph glyph-name="Scedilla" unicode="&#x15e;" horiz-adv-x="997" d="M501 139 Q613 139 674.5 204 Q736 269 750 390 Q756 439 754 477 Q752 515 736 546 Q720 577 688.5 603 Q657 629 603 655 Q595 659 581.5 663.5 Q568 668 552 671 Q536 674 519.5 676.5 Q503 679 490 681 Q415 710 360.5 745.5 Q306 781 273.5 829.5 Q241 878 230 943 Q219 1008 230 1098 Q242 1194 282.5 1266 Q323 1338 383 1386 Q443 1434 518.5 1458 Q594 1482 676 1482 Q750 1482 805.5 1472.5 Q861 1463 905 1443.5 Q949 1424 984 1395.5 Q1019 1367 1052 1330 L939 1201 Q918 1225 891.5 1247 Q865 1269 833 1285.5 Q801 1302 763.5 1311.5 Q726 1321 683 1321 Q635 1321 593 1307 Q551 1293 518 1266 Q485 1239 463.5 1198.5 Q442 1158 435 1104 Q429 1047 430.5 1009.5 Q432 972 447.5 944 Q463 916 496.5 893 Q530 870 587 842 Q698 807 772.5 764.5 Q847 722 890.5 667.5 Q934 613 948.5 543 Q963 473 952 384 Q940 291 902.5 219.5 Q865 148 810.5 98 Q756 48 687.5 19 Q619 -10 546 -18 L526 -119 Q611 -129 652 -171 Q693 -213 685 -279 Q680 -320 660.5 -351.5 Q641 -383 612 -404 Q583 -425 546 -436 Q509 -447 470 -447 Q424 -447 382.5 -440.5 Q341 -434 303 -419 L324 -322 Q335 -326 351 -331 Q367 -336 385 -340 Q403 -344 421.5 -346.5 Q440 -349 456 -349 Q497 -349 520 -329.5 Q543 -310 548 -274 Q552 -240 524.5 -213.5 Q497 -187 435 -187 L413 -187 L451 -22 Q396 -21 344.5 -5 Q293 11 249 34.5 Q205 58 170 86.5 Q135 115 112 142 L211 280 Q234 256 269 230.5 Q304 205 343.5 185 Q383 165 424 152 Q465 139 501 139 Z " />
<glyph glyph-name="scedilla" unicode="&#x15f;" horiz-adv-x="789" d="M380 -447 Q287 -447 213 -419 L234 -322 Q246 -326 262 -331 Q278 -336 296 -340 Q314 -344 332 -346.5 Q350 -349 367 -349 Q408 -349 430.5 -329.5 Q453 -310 458 -274 Q462 -240 434.5 -213.5 Q407 -187 346 -187 L324 -187 L361 -21 Q318 -18 279 -5.5 Q240 7 207 24 Q174 41 147 61.5 Q120 82 101 102 L165 239 Q187 218 217 198.5 Q247 179 281 163.5 Q315 148 351.5 138.5 Q388 129 423 129 Q563 129 583 279 Q586 308 586 328 Q586 348 576 364 Q566 380 545 394.5 Q524 409 485 427 L373 479 Q326 499 289 522 Q252 545 228 578 Q204 611 193.5 656.5 Q183 702 190 767 Q199 842 230 896 Q261 950 306.5 984.5 Q352 1019 409 1035 Q466 1051 527 1051 Q606 1051 678.5 1029 Q751 1007 805 962 L739 830 Q718 848 691 861.5 Q664 875 635.5 884 Q607 893 578 897.5 Q549 902 523 902 Q452 902 414.5 868.5 Q377 835 369 772 Q366 737 369 715 Q372 693 386 676 Q400 659 428.5 643 Q457 627 505 605 L537 593 Q591 570 635 547 Q679 524 709 490 Q739 456 752 407.5 Q765 359 756 286 Q747 211 717.5 156.5 Q688 102 646.5 65 Q605 28 555 8 Q505 -12 456 -19 L436 -119 Q521 -130 562 -171 Q603 -212 595 -279 Q590 -321 570.5 -352.5 Q551 -384 521.5 -405 Q492 -426 455.5 -436.5 Q419 -447 380 -447 Z " />
<glyph glyph-name="Scaron" unicode="&#x160;" horiz-adv-x="997" d="M567 1584 L391 1935 L577 1935 L653 1705 L787 1935 L981 1935 L721 1584 L567 1584 Z M471 139 Q583 139 644.5 204 Q706 269 720 390 Q726 439 724 477 Q722 515 706.5 545.5 Q691 576 659 602.5 Q627 629 573 655 Q565 659 551.5 663 Q538 667 522 670.5 Q506 674 489.5 676.5 Q473 679 460 681 Q382 711 327.5 747 Q273 783 241.5 831.5 Q210 880 199.5 945 Q189 1010 200 1098 Q212 1193 252 1265 Q292 1337 352 1385 Q412 1433 487.5 1457.5 Q563 1482 646 1482 Q720 1482 775.5 1472.5 Q831 1463 875 1444 Q919 1425 954 1396.5 Q989 1368 1022 1330 L909 1201 Q888 1225 861.5 1247 Q835 1269 803 1285.5 Q771 1302 733.5 1311.5 Q696 1321 653 1321 Q605 1321 562.5 1307 Q520 1293 487 1265.5 Q454 1238 432.5 1197.5 Q411 1157 405 1104 Q399 1050 400.5 1013.5 Q402 977 417.5 950 Q433 923 465 901 Q497 879 551 853 Q555 853 562 850 Q569 847 580 842 Q689 807 760.5 765.5 Q832 724 871.5 669 Q911 614 922 544 Q933 474 922 384 Q909 280 866.5 203.5 Q824 127 761.5 77 Q699 27 621.5 2.5 Q544 -22 462 -22 Q402 -22 345 -7 Q288 8 238.5 32 Q189 56 148.5 85 Q108 114 82 142 L181 280 Q204 255 239 230 Q274 205 313.5 184.5 Q353 164 394 151.5 Q435 139 471 139 Z " />
<glyph glyph-name="scaron" unicode="&#x161;" horiz-adv-x="789" d="M391 -22 Q338 -22 290 -11 Q242 0 201 18 Q160 36 127 58 Q94 80 71 102 L135 239 Q157 218 187 198.5 Q217 179 251 163.5 Q285 148 321.5 138.5 Q358 129 393 129 Q469 129 506 166.5 Q543 204 553 279 Q556 308 554 328 Q552 348 541.5 364 Q531 380 510 394.5 Q489 409 455 427 L343 479 Q296 499 259 522 Q222 545 198 578 Q174 611 163.5 656.5 Q153 702 160 767 Q169 842 200 896 Q231 950 276.5 984.5 Q322 1019 379 1035 Q436 1051 497 1051 Q576 1051 648.5 1029 Q721 1007 775 962 L709 830 Q688 848 661 861.5 Q634 875 605.5 884 Q577 893 548 897.5 Q519 902 493 902 Q422 902 384.5 868.5 Q347 835 339 772 Q336 737 338.5 715 Q341 693 355 676 Q369 659 398 643 Q427 627 475 605 L507 593 Q561 570 605 547 Q649 524 679 490 Q709 456 722 407.5 Q735 359 726 286 Q715 203 681.5 144.5 Q648 86 601 49 Q554 12 499 -5 Q444 -22 391 -22 Z M421 1154 L246 1505 L432 1505 L507 1275 L641 1505 L835 1505 L575 1154 L421 1154 Z " />
<glyph glyph-name="Tcommaaccent" unicode="&#x162;" horiz-adv-x="938" d="M516 0 L491 -119 Q576 -128 617 -170.5 Q658 -213 650 -279 Q645 -320 625.5 -351.5 Q606 -383 577 -404 Q548 -425 511 -436 Q474 -447 435 -447 Q389 -447 347.5 -440.5 Q306 -434 268 -419 L289 -322 Q300 -326 316 -331 Q332 -336 350 -340 Q368 -344 386 -346.5 Q404 -349 421 -349 Q462 -349 485 -329.5 Q508 -310 513 -274 Q517 -240 489.5 -213.5 Q462 -187 400 -187 L378 -187 L422 0 L371 0 L530 1295 L168 1295 L187 1456 L1107 1456 L1088 1295 L721 1295 L562 0 L516 0 Z " />
<glyph glyph-name="tcommaaccent" unicode="&#x163;" horiz-adv-x="643" d="M333 -441 Q239 -441 167 -413 L188 -316 Q199 -320 214.5 -325 Q230 -330 248 -334 Q266 -338 284.5 -340.5 Q303 -343 319 -343 Q360 -343 383.5 -323.5 Q407 -304 412 -268 Q416 -234 388 -207.5 Q360 -181 298 -181 L276 -181 L325 9 Q290 19 265 41.5 Q240 64 226.5 104.5 Q213 145 211 206 Q209 267 220 355 L287 903 L119 903 L134 1026 L309 1026 L342 1290 L526 1343 L487 1026 L704 1026 L689 903 L472 903 L404 345 Q395 273 401.5 232.5 Q408 192 431 172.5 Q454 153 496 148.5 Q538 144 601 144 L584 0 L515 0 L444 0 L415 0 L390 -113 Q475 -123 516 -165 Q557 -207 549 -273 Q544 -315 524 -346.5 Q504 -378 474.5 -399 Q445 -420 408.5 -430.5 Q372 -441 333 -441 Z " />
<glyph glyph-name="Tcaron" unicode="&#x164;" horiz-adv-x="938" d="M582 1584 L407 1935 L592 1935 L668 1705 L802 1935 L996 1935 L736 1584 L582 1584 Z M371 0 L530 1295 L168 1295 L187 1456 L1107 1456 L1088 1295 L721 1295 L562 0 L371 0 Z " />
<glyph glyph-name="tcaron" unicode="&#x165;" horiz-adv-x="643" d="M584 0 L507 0 Q429 0 369.5 15 Q310 30 272.5 69.5 Q235 109 221 178 Q207 247 220 355 L287 903 L119 903 L134 1026 L309 1026 L342 1290 L526 1343 L487 1026 L704 1026 L689 903 L472 903 L404 345 Q396 278 399.5 238 Q403 198 424 177 Q445 156 487.5 150 Q530 144 601 144 L584 0 Z M592 1248 L740 1722 L950 1722 L750 1248 L592 1248 Z " />
<glyph glyph-name="Tbar" unicode="&#x166;" horiz-adv-x="938" d="M371 0 L455 686 L309 686 L324 810 L470 810 L530 1295 L168 1295 L187 1456 L1107 1456 L1088 1295 L721 1295 L661 810 L815 810 L800 686 L646 686 L562 0 L371 0 Z " />
<glyph glyph-name="tbar" unicode="&#x167;" horiz-adv-x="643" d="M428 540 L404 345 Q396 278 399.5 238 Q403 198 424 177 Q445 156 487.5 150 Q530 144 601 144 L584 0 L507 0 Q431 0 372 15 Q313 30 274.5 69.5 Q236 109 221.5 178 Q207 247 220 355 L243 540 L92 540 L107 664 L258 664 L287 903 L119 903 L134 1026 L309 1026 L342 1290 L526 1343 L487 1026 L704 1026 L689 903 L472 903 L443 664 L598 664 L583 540 L428 540 Z " />
<glyph glyph-name="Utilde" unicode="&#x168;" horiz-adv-x="1205" d="M861 1605 Q845 1605 825.5 1612.5 Q806 1620 784.5 1631 Q763 1642 741.5 1655.5 Q720 1669 701 1680 Q682 1691 666 1698.5 Q650 1706 641 1706 Q621 1706 602.5 1683 Q584 1660 575 1613 L455 1613 Q461 1667 478.5 1710 Q496 1753 521.5 1783 Q547 1813 580 1829.5 Q613 1846 650 1846 Q679 1846 711 1834 Q743 1822 772 1806.5 Q801 1791 825 1775 Q849 1759 861 1751 Q865 1748 869.5 1746.5 Q874 1745 876 1745 Q901 1745 916 1767 Q931 1789 938 1844 L1060 1844 Q1046 1732 993.5 1668.5 Q941 1605 861 1605 Z M599 -22 Q462 -22 376 13.5 Q290 49 245 121 Q200 193 191 302.5 Q182 412 200 560 L310 1456 L501 1456 L391 556 Q378 449 389 370.5 Q400 292 430.5 240.5 Q461 189 509 164 Q557 139 619 139 Q748 139 835.5 242.5 Q923 346 948 552 L1059 1456 L1250 1456 L1141 562 Q1124 429 1090 321 Q1056 213 993.5 137 Q931 61 835 19.5 Q739 -22 599 -22 Z " />
<glyph glyph-name="utilde" unicode="&#x169;" horiz-adv-x="958" d="M422 -23 Q346 -23 291 6.5 Q236 36 202.5 90 Q169 144 157.5 220.5 Q146 297 158 392 L235 1026 L419 1026 L342 392 Q325 259 361.5 193 Q398 127 477 127 Q524 127 562 147.5 Q600 168 628 204.5 Q656 241 673.5 291.5 Q691 342 699 403 L775 1026 L961 1026 L867 254 Q860 185 854.5 122 Q849 59 845 0 L653 0 L670 165 Q658 126 637 91.5 Q616 57 585 31.5 Q554 6 513.5 -8.5 Q473 -23 422 -23 Z M693 1175 Q677 1175 657.5 1182.5 Q638 1190 616.5 1201 Q595 1212 573.5 1225.5 Q552 1239 533 1250 Q514 1261 498 1268.5 Q482 1276 473 1276 Q453 1276 435 1253 Q417 1230 407 1183 L287 1183 Q293 1237 310.5 1280 Q328 1323 353.5 1353 Q379 1383 412 1399.5 Q445 1416 482 1416 Q511 1416 543 1404 Q575 1392 604.5 1376.5 Q634 1361 657.5 1345 Q681 1329 694 1321 Q697 1318 701.5 1316.5 Q706 1315 709 1315 Q733 1315 748 1337 Q763 1359 770 1414 L892 1414 Q878 1302 825.5 1238.5 Q773 1175 693 1175 Z " />
<glyph glyph-name="Umacron" unicode="&#x16a;" horiz-adv-x="1205" d="M541 1672 L556 1796 L1047 1796 L1032 1672 L541 1672 Z M599 -22 Q462 -22 376 13.5 Q290 49 245 121 Q200 193 191 302.5 Q182 412 200 560 L310 1456 L501 1456 L391 556 Q378 449 389 370.5 Q400 292 430.5 240.5 Q461 189 509 164 Q557 139 619 139 Q748 139 835.5 242.5 Q923 346 948 552 L1059 1456 L1250 1456 L1141 562 Q1124 429 1090 321 Q1056 213 993.5 137 Q931 61 835 19.5 Q739 -22 599 -22 Z " />
<glyph glyph-name="umacron" unicode="&#x16b;" horiz-adv-x="958" d="M422 -23 Q346 -23 291 6.5 Q236 36 202.5 90 Q169 144 157.5 220.5 Q146 297 158 392 L235 1026 L419 1026 L342 392 Q325 259 361.5 193 Q398 127 477 127 Q524 127 562 147.5 Q600 168 628 204.5 Q656 241 673.5 291.5 Q691 342 699 403 L775 1026 L961 1026 L867 254 Q860 185 854.5 122 Q849 59 845 0 L653 0 L670 165 Q658 126 637 91.5 Q616 57 585 31.5 Q554 6 513.5 -8.5 Q473 -23 422 -23 Z M373 1242 L388 1366 L879 1366 L864 1242 L373 1242 Z " />
<glyph glyph-name="Ubreve" unicode="&#x16c;" horiz-adv-x="1205" d="M796 1610 Q679 1610 624.5 1672.5 Q570 1735 579 1870 L710 1870 Q708 1835 715 1810.5 Q722 1786 736 1771 Q750 1756 769.5 1749 Q789 1742 812 1742 Q863 1742 896.5 1771.5 Q930 1801 944 1870 L1074 1870 Q1026 1610 796 1610 Z M599 -22 Q462 -22 376 13.5 Q290 49 245 121 Q200 193 191 302.5 Q182 412 200 560 L310 1456 L501 1456 L391 556 Q378 449 389 370.5 Q400 292 430.5 240.5 Q461 189 509 164 Q557 139 619 139 Q748 139 835.5 242.5 Q923 346 948 552 L1059 1456 L1250 1456 L1141 562 Q1124 429 1090 321 Q1056 213 993.5 137 Q931 61 835 19.5 Q739 -22 599 -22 Z " />
<glyph glyph-name="ubreve" unicode="&#x16d;" horiz-adv-x="958" d="M422 -23 Q346 -23 291 6.5 Q236 36 202.5 90 Q169 144 157.5 220.5 Q146 297 158 392 L235 1026 L419 1026 L342 392 Q325 259 361.5 193 Q398 127 477 127 Q524 127 562 147.5 Q600 168 628 204.5 Q656 241 673.5 291.5 Q691 342 699 403 L775 1026 L961 1026 L867 254 Q860 185 854.5 122 Q849 59 845 0 L653 0 L670 165 Q658 126 637 91.5 Q616 57 585 31.5 Q554 6 513.5 -8.5 Q473 -23 422 -23 Z M628 1180 Q511 1180 456.5 1242.5 Q402 1305 411 1440 L542 1440 Q540 1405 547 1380.5 Q554 1356 568 1341 Q582 1326 602 1319 Q622 1312 645 1312 Q696 1312 729.5 1341.5 Q763 1371 777 1440 L907 1440 Q857 1180 628 1180 Z " />
<glyph glyph-name="Uring" unicode="&#x16e;" horiz-adv-x="1205" d="M785 1567 Q750 1567 720.5 1582 Q691 1597 670.5 1623 Q650 1649 641 1685 Q632 1721 637 1762 Q642 1804 660 1839.5 Q678 1875 704.5 1901 Q731 1927 764 1942 Q797 1957 833 1957 Q869 1957 898.5 1942 Q928 1927 948 1901 Q968 1875 977.5 1839.5 Q987 1804 982 1762 Q977 1721 958.5 1685 Q940 1649 913.5 1623 Q887 1597 853.5 1582 Q820 1567 785 1567 Z M796 1652 Q813 1652 829.5 1660.5 Q846 1669 859.5 1684 Q873 1699 882.5 1719 Q892 1739 895 1762 Q900 1809 879 1840.5 Q858 1872 823 1872 Q805 1872 788.5 1863.5 Q772 1855 759 1840 Q746 1825 737 1805 Q728 1785 725 1762 Q722 1739 726 1719 Q730 1699 740 1684 Q750 1669 764 1660.5 Q778 1652 796 1652 Z M599 -22 Q462 -22 376 13.5 Q290 49 245 121 Q200 193 191 302.5 Q182 412 200 560 L310 1456 L501 1456 L391 556 Q378 449 389 370.5 Q400 292 430.5 240.5 Q461 189 509 164 Q557 139 619 139 Q748 139 835.5 242.5 Q923 346 948 552 L1059 1456 L1250 1456 L1141 562 Q1124 429 1090 321 Q1056 213 993.5 137 Q931 61 835 19.5 Q739 -22 599 -22 Z " />
<glyph glyph-name="uring" unicode="&#x16f;" horiz-adv-x="958" d="M422 -23 Q346 -23 291 6.5 Q236 36 202.5 90 Q169 144 157.5 220.5 Q146 297 158 392 L235 1026 L419 1026 L342 392 Q325 259 361.5 193 Q398 127 477 127 Q524 127 562 147.5 Q600 168 628 204.5 Q656 241 673.5 291.5 Q691 342 699 403 L775 1026 L961 1026 L867 254 Q860 185 854.5 122 Q849 59 845 0 L653 0 L670 165 Q658 126 637 91.5 Q616 57 585 31.5 Q554 6 513.5 -8.5 Q473 -23 422 -23 Z M618 1137 Q582 1137 552.5 1152 Q523 1167 503 1193 Q483 1219 473.5 1255 Q464 1291 469 1332 Q474 1374 492 1409.5 Q510 1445 536.5 1471 Q563 1497 596.5 1512 Q630 1527 666 1527 Q701 1527 730.5 1512 Q760 1497 780.5 1471 Q801 1445 810 1409.5 Q819 1374 814 1332 Q809 1291 791 1255 Q773 1219 746 1193 Q719 1167 686 1152 Q653 1137 618 1137 Z M629 1222 Q664 1222 692.5 1253.5 Q721 1285 727 1332 Q733 1379 712 1410.5 Q691 1442 656 1442 Q639 1442 622.5 1433.5 Q606 1425 592.5 1410 Q579 1395 569.5 1375 Q560 1355 557 1332 Q554 1309 558.5 1289 Q563 1269 572.5 1254 Q582 1239 596.5 1230.5 Q611 1222 629 1222 Z " />
<glyph glyph-name="Uhungarumlaut" unicode="&#x170;" horiz-adv-x="1204" d="M878 1590 L1097 1962 L1316 1962 L1018 1590 L878 1590 Z M611 1590 L789 1962 L988 1962 L745 1590 L611 1590 Z M599 -22 Q462 -22 376 13.5 Q290 49 245 121 Q200 193 191 302.5 Q182 412 200 560 L310 1456 L501 1456 L391 556 Q378 449 389 370.5 Q400 292 430.5 240.5 Q461 189 509 164 Q557 139 619 139 Q748 139 835.5 242.5 Q923 346 948 552 L1059 1456 L1250 1456 L1141 562 Q1124 429 1090 321 Q1056 213 993.5 137 Q931 61 835 19.5 Q739 -22 599 -22 Z " />
<glyph glyph-name="uhungarumlaut" unicode="&#x171;" horiz-adv-x="958" d="M422 -23 Q346 -23 291 6.5 Q236 36 202.5 90 Q169 144 157.5 220.5 Q146 297 158 392 L235 1026 L419 1026 L342 392 Q325 259 361.5 193 Q398 127 477 127 Q524 127 562 147.5 Q600 168 628 204.5 Q656 241 673.5 291.5 Q691 342 699 403 L775 1026 L961 1026 L867 254 Q860 185 854.5 122 Q849 59 845 0 L653 0 L670 165 Q658 126 637 91.5 Q616 57 585 31.5 Q554 6 513.5 -8.5 Q473 -23 422 -23 Z M710 1160 L930 1532 L1150 1532 L850 1160 L710 1160 Z M443 1160 L623 1532 L821 1532 L577 1160 L443 1160 Z " />
<glyph glyph-name="Uogonek" unicode="&#x172;" horiz-adv-x="1205" d="M602 -424 Q523 -424 481 -379.5 Q439 -335 450 -250 Q454 -218 468 -187.5 Q482 -157 503 -128 Q524 -99 549.5 -72.5 Q575 -46 602 -21 Q464 -16 377.5 24 Q291 64 246 137 Q201 210 192 316 Q183 422 200 560 L310 1456 L501 1456 L391 556 Q378 449 389 370.5 Q400 292 430.5 240.5 Q461 189 509 164 Q557 139 619 139 Q748 139 835.5 242.5 Q923 346 948 552 L1059 1456 L1250 1456 L1141 562 Q1126 442 1098 340.5 Q1070 239 1023 162.5 Q976 86 907 39 Q838 -8 740 -19 Q716 -42 696 -68.5 Q676 -95 660.5 -122 Q645 -149 635.5 -174.5 Q626 -200 623 -221 Q618 -263 630.5 -285 Q643 -307 674 -307 Q713 -307 807 -284 L793 -396 Q693 -424 602 -424 Z " />
<glyph glyph-name="uogonek" unicode="&#x173;" horiz-adv-x="958" d="M655 -424 Q576 -424 534 -379.5 Q492 -335 503 -250 Q507 -214 526.5 -179 Q546 -144 573 -111.5 Q600 -79 631.5 -51 Q663 -23 692 0 L653 0 L670 165 Q658 126 637 91.5 Q616 57 585 31.5 Q554 6 513.5 -8.5 Q473 -23 422 -23 Q337 -23 280.5 6.5 Q224 36 193 90 Q162 144 154 220.5 Q146 297 158 392 L235 1026 L419 1026 L342 392 Q325 259 361.5 193 Q398 127 477 127 Q524 127 561.5 147.5 Q599 168 627 204.5 Q655 241 673 291.5 Q691 342 699 403 L775 1026 L961 1026 L867 254 Q860 185 854.5 122 Q849 59 845 0 L801 0 Q776 -23 754.5 -51.5 Q733 -80 716.5 -110 Q700 -140 689.5 -169 Q679 -198 676 -221 Q671 -263 683.5 -285 Q696 -307 727 -307 Q766 -307 860 -284 L846 -396 Q746 -424 655 -424 Z " />
<glyph glyph-name="Wcircumflex" unicode="&#x174;" horiz-adv-x="1662" d="M730 1584 L974 1931 L1158 1931 L1322 1584 L1142 1584 L1055 1802 L912 1584 L730 1584 Z M345 0 L193 1456 L397 1456 L425 1054 Q438 953 448 853.5 Q458 754 466 653 L479 452 Q481 393 483.5 334.5 Q486 276 488 217 Q514 304 545.5 403.5 Q577 503 610.5 607 Q644 711 679 814.5 Q714 918 746.5 1013 Q779 1108 809 1189.5 Q839 1271 862 1331 Q885 1391 901 1424 Q917 1457 922 1456 L1106 1456 Q1163 1393 1191 930 L1216 712 Q1221 558 1228.5 436 Q1236 314 1245 220 Q1273 314 1306.5 435.5 Q1340 557 1380 710 L1449 927 L1628 1456 L1825 1456 L1326 0 L1106 0 L978 1199 L561 0 L345 0 Z " />
<glyph glyph-name="wcircumflex" unicode="&#x175;" horiz-adv-x="1338" d="M306 0 L139 1026 L338 1026 L386 675 Q402 375 428 216 Q451 296 491 409.5 Q531 523 589 672 L727 1026 L892 1026 L942 671 Q953 521 963 407.5 Q973 294 984 215 Q1004 294 1042.5 407.5 Q1081 521 1138 670 L1274 1026 L1449 1026 L1022 0 L863 0 L811 341 Q794 644 769 803 Q754 772 734.5 721.5 Q715 671 694 609.5 Q673 548 650.5 479.5 Q628 411 606 344 Q584 277 563 215.5 Q542 154 523.5 107 Q505 60 490.5 31 Q476 2 466 0 L306 0 Z M529 1154 L773 1501 L957 1501 L1121 1154 L941 1154 L854 1372 L711 1154 L529 1154 Z " />
<glyph glyph-name="Ycircumflex" unicode="&#x176;" horiz-adv-x="1017" d="M418 1584 L662 1931 L847 1931 L1010 1584 L830 1584 L743 1802 L600 1584 L418 1584 Z M407 0 L477 575 L174 1456 L390 1456 L597 743 L977 1456 L1198 1456 L668 578 L598 0 L407 0 Z " />
<glyph glyph-name="ycircumflex" unicode="&#x177;" horiz-adv-x="881" d="M79 -307 Q193 -266 257.5 -199.5 Q322 -133 354 -44 L372 8 L151 1026 L345 1026 L486 206 L799 1026 L988 1026 L524 -54 Q489 -126 445 -187 Q401 -248 351.5 -297 Q302 -346 248 -380.5 Q194 -415 140 -433 L79 -307 Z M310 1154 L554 1501 L738 1501 L902 1154 L722 1154 L635 1372 L492 1154 L310 1154 Z " />
<glyph glyph-name="Ydieresis" unicode="&#x178;" horiz-adv-x="1017" d="M799 1612 L823 1801 L1008 1801 L984 1612 L799 1612 Z M443 1612 L467 1801 L653 1801 L629 1612 L443 1612 Z M407 0 L477 575 L174 1456 L390 1456 L597 743 L977 1456 L1198 1456 L668 578 L598 0 L407 0 Z " />
<glyph glyph-name="Zacute" unicode="&#x179;" horiz-adv-x="958" d="M616 1602 L866 1962 L1105 1962 L784 1602 L616 1602 Z M62 0 L74 103 L782 1295 L243 1295 L262 1456 L1063 1456 L1051 1357 L340 161 L903 161 L884 0 L62 0 Z " />
<glyph glyph-name="zacute" unicode="&#x17a;" horiz-adv-x="793" d="M79 0 L91 100 L583 877 L204 877 L222 1026 L842 1026 L830 928 L336 148 L754 148 L736 0 L79 0 Z M495 1172 L746 1532 L985 1532 L663 1172 L495 1172 Z " />
<glyph glyph-name="Zdotaccent" unicode="&#x17b;" horiz-adv-x="958" d="M619 1686 L641 1868 L827 1868 L805 1686 L619 1686 Z M62 0 L74 103 L782 1295 L243 1295 L262 1456 L1063 1456 L1051 1357 L340 161 L903 161 L884 0 L62 0 Z " />
<glyph glyph-name="zdotaccent" unicode="&#x17c;" horiz-adv-x="793" d="M79 0 L91 100 L583 877 L204 877 L222 1026 L842 1026 L830 928 L336 148 L754 148 L736 0 L79 0 Z M498 1256 L520 1438 L706 1438 L684 1256 L498 1256 Z " />
<glyph glyph-name="Zcaron" unicode="&#x17d;" horiz-adv-x="958" d="M577 1584 L402 1935 L588 1935 L664 1705 L798 1935 L992 1935 L732 1584 L577 1584 Z M32 0 L44 103 L752 1295 L213 1295 L232 1456 L1033 1456 L1021 1357 L310 161 L873 161 L854 0 L32 0 Z " />
<glyph glyph-name="zcaron" unicode="&#x17e;" horiz-adv-x="793" d="M49 0 L61 100 L553 877 L174 877 L192 1026 L812 1026 L800 928 L306 148 L724 148 L706 0 L49 0 Z M456 1154 L281 1505 L467 1505 L543 1275 L677 1505 L871 1505 L611 1154 L456 1154 Z " />
<glyph glyph-name="longs" unicode="&#x17f;" horiz-adv-x="789" d="M421 -22 Q368 -22 320 -11 Q272 0 231 18 Q190 36 157 58 Q124 80 101 102 L165 239 Q187 218 217 198.5 Q247 179 281 163.5 Q315 148 351.5 138.5 Q388 129 423 129 Q499 129 536 166.5 Q573 204 583 279 Q586 308 584 328 Q582 348 571.5 364 Q561 380 540 394.5 Q519 409 485 427 L373 479 Q326 499 289 522 Q252 545 228 578 Q204 611 193.5 656.5 Q183 702 190 767 Q199 842 230 896 Q261 950 306.5 984.5 Q352 1019 409 1035 Q466 1051 527 1051 Q606 1051 678.5 1029 Q751 1007 805 962 L739 830 Q718 848 691 861.5 Q664 875 635.5 884 Q607 893 578 897.5 Q549 902 523 902 Q452 902 414.5 868.5 Q377 835 369 772 Q366 737 368.5 715 Q371 693 385 676 Q399 659 428 643 Q457 627 505 605 L537 593 Q591 570 635 547 Q679 524 709 490 Q739 456 752 407.5 Q765 359 756 286 Q745 203 711.5 144.5 Q678 86 631 49 Q584 12 529 -5 Q474 -22 421 -22 Z " />
<glyph glyph-name="florin" unicode="&#x192;" horiz-adv-x="881" d="M125 -299 Q87 -299 41 -282 L69 -157 Q89 -162 107 -164.5 Q125 -167 142 -167 Q163 -167 180.5 -155 Q198 -143 218 -117 Q242 -81 262 -26 Q282 29 302 112 L473 815 L359 815 L402 935 L510 935 L576 1126 Q591 1192 613.5 1254 Q636 1316 672.5 1364 Q709 1412 764 1440.5 Q819 1469 899 1469 Q941 1469 976.5 1461 Q1012 1453 1026 1444 L1041 1435 L1014 1313 Q988 1322 965.5 1327.5 Q943 1333 922 1333 Q874 1333 840 1291 Q806 1249 774 1157 Q741 1046 711 935 L843 935 L805 815 L670 815 L491 86 Q440 -98 352 -198.5 Q264 -299 125 -299 Z " />
<glyph glyph-name="uni01C4" unicode="&#x1c4;" horiz-adv-x="2209" d="M1858 1584 L1683 1935 L1869 1935 L1944 1705 L2078 1935 L2272 1935 L2012 1584 L1858 1584 Z M1312 0 L1324 103 L2032 1295 L1493 1295 L1512 1456 L2314 1456 L2302 1357 L1590 161 L2153 161 L2134 0 L1312 0 Z M154 0 L332 1456 L648 1456 Q993 1456 1146.5 1278 Q1300 1100 1254 726 Q1233 552 1173.5 417 Q1114 282 1019 189 Q924 96 795.5 48 Q667 0 507 0 L154 0 Z M364 161 L536 161 Q644 161 732 198.5 Q820 236 885.5 308.5 Q951 381 993 486 Q1035 591 1052 726 Q1087 1017 987 1156 Q887 1295 646 1295 L504 1295 L364 161 Z " />
<glyph glyph-name="uni01C5" unicode="&#x1c5;" horiz-adv-x="2044" d="M1330 0 L1342 100 L1834 877 L1455 877 L1473 1026 L2093 1026 L2081 928 L1586 148 L2005 148 L1987 0 L1330 0 Z M1737 1154 L1562 1505 L1748 1505 L1823 1275 L1957 1505 L2151 1505 L1891 1154 L1737 1154 Z M154 0 L332 1456 L648 1456 Q993 1456 1146.5 1278 Q1300 1100 1254 726 Q1233 552 1173.5 417 Q1114 282 1019 189 Q924 96 795.5 48 Q667 0 507 0 L154 0 Z M364 161 L536 161 Q644 161 732 198.5 Q820 236 885.5 308.5 Q951 381 993 486 Q1035 591 1052 726 Q1087 1017 987 1156 Q887 1295 646 1295 L504 1295 L364 161 Z " />
<glyph glyph-name="uni01C6" unicode="&#x1c6;" horiz-adv-x="1806" d="M1092 0 L1104 100 L1596 877 L1217 877 L1235 1026 L1855 1026 L1843 928 L1349 148 L1767 148 L1749 0 L1092 0 Z M1499 1154 L1324 1505 L1510 1505 L1586 1275 L1720 1505 L1914 1505 L1654 1154 L1499 1154 Z M511 128 Q568 128 612.5 156 Q657 184 690 235.5 Q723 287 744.5 360 Q766 433 777 522 Q787 606 781.5 676 Q776 746 755 796 Q734 846 696.5 874 Q659 902 605 902 Q548 902 504 872.5 Q460 843 427.5 791.5 Q395 740 374 669 Q353 598 343 514 Q332 428 335.5 357 Q339 286 359 235 Q379 184 416.5 156 Q454 128 511 128 Z M457 -22 Q377 -22 313 16 Q249 54 207.5 123.5 Q166 193 149 291 Q132 389 147 510 Q161 627 198.5 726.5 Q236 826 294 898.5 Q352 971 429.5 1011.5 Q507 1052 602 1052 Q645 1052 681 1037.5 Q717 1023 744 998.5 Q771 974 789 941 Q807 908 815 872 L890 1486 L1075 1486 L925 266 Q920 220 913.5 154 Q907 88 899 0 L709 0 L728 174 Q715 135 691 99.5 Q667 64 633 37 Q599 10 555 -6 Q511 -22 457 -22 Z " />
<glyph glyph-name="uni01C7" unicode="&#x1c7;" horiz-adv-x="1696" d="M154 0 L332 1456 L523 1456 L364 161 L904 161 L885 0 L154 0 Z M1296 -326 Q1235 -326 1181 -323.5 Q1127 -321 1084 -315.5 Q1041 -310 1011 -302.5 Q981 -295 968 -284 L1134 -134 Q1145 -150 1174.5 -157.5 Q1204 -165 1243 -165 Q1264 -165 1286.5 -161 Q1309 -157 1331 -149 Q1384 -127 1427.5 -63.5 Q1471 0 1506 120 Q1535 195 1554 268.5 Q1573 342 1582 417 L1709 1456 L1900 1456 L1773 418 Q1764 343 1753.5 269.5 Q1743 196 1730 121 Q1708 5 1673.5 -79 Q1639 -163 1586.5 -218 Q1534 -273 1462.5 -299.5 Q1391 -326 1296 -326 Z " />
<glyph glyph-name="uni01C8" unicode="&#x1c8;" horiz-adv-x="1387" d="M1249 1277 L1271 1456 L1456 1456 L1434 1277 L1249 1277 Z M827 -423 Q823 -423 820 -411 Q824 -373 828 -335.5 Q832 -298 837 -260 Q846 -272 854 -272 Q877 -272 904 -267.5 Q931 -263 959 -254 Q995 -240 1018 -215 Q1041 -190 1055.5 -154 Q1070 -118 1079 -70.5 Q1088 -23 1095 36 L1216 1026 L1403 1026 L1289 94 Q1282 37 1271.5 -23.5 Q1261 -84 1243.5 -141.5 Q1226 -199 1200.5 -250 Q1175 -301 1138.5 -339.5 Q1102 -378 1052.5 -400.5 Q1003 -423 939 -423 L827 -423 Z M154 0 L332 1456 L523 1456 L364 161 L904 161 L885 0 L154 0 Z " />
<glyph glyph-name="uni01C9" unicode="&#x1c9;" horiz-adv-x="882" d="M120 0 L302 1486 L487 1486 L305 0 L120 0 Z M744 1277 L766 1456 L951 1456 L929 1277 L744 1277 Z M321 -423 Q316 -423 315 -411 Q319 -373 323 -335.5 Q327 -298 332 -260 Q341 -272 349 -272 Q372 -272 398.5 -267.5 Q425 -263 453 -254 Q489 -240 512 -215 Q535 -190 550 -154 Q565 -118 574 -70.5 Q583 -23 590 36 L711 1026 L898 1026 L784 94 Q777 37 766 -23.5 Q755 -84 737.5 -141.5 Q720 -199 694.5 -250 Q669 -301 632.5 -339.5 Q596 -378 547 -400.5 Q498 -423 434 -423 L321 -423 Z " />
<glyph glyph-name="uni01CB" unicode="&#x1cb;" horiz-adv-x="1759" d="M1621 1277 L1643 1456 L1828 1456 L1806 1277 L1621 1277 Z M1198 -423 Q1193 -423 1192 -411 Q1196 -373 1200 -335.5 Q1204 -298 1209 -260 Q1218 -272 1226 -272 Q1249 -272 1275.5 -267.5 Q1302 -263 1330 -254 Q1366 -240 1389 -215 Q1412 -190 1427 -154 Q1442 -118 1451 -70.5 Q1460 -23 1467 36 L1588 1026 L1775 1026 L1661 94 Q1654 37 1643 -23.5 Q1632 -84 1614.5 -141.5 Q1597 -199 1571.5 -250 Q1546 -301 1509.5 -339.5 Q1473 -378 1424 -400.5 Q1375 -423 1311 -423 L1198 -423 Z M154 0 L332 1456 L535 1456 L919 432 L994 262 L1140 1456 L1322 1456 L1144 0 L940 0 L548 986 L476 1186 L331 0 L154 0 Z " />
<glyph glyph-name="uni01CC" unicode="&#x1cc;" horiz-adv-x="1444" d="M130 0 L209 649 Q213 685 218 732.5 Q223 780 227.5 828 Q232 876 235 919 Q238 962 240 989 L241 1026 L437 1026 L418 865 Q444 909 478 944 Q512 979 549.5 1003 Q587 1027 625.5 1039.5 Q664 1052 699 1052 Q842 1052 908 934 Q974 816 944 578 L874 0 L688 0 L758 577 Q778 743 752.5 822.5 Q727 902 643 902 Q611 902 570.5 880.5 Q530 859 493.5 823 Q457 787 429 740.5 Q401 694 394 643 L316 0 L130 0 Z M1306 1277 L1328 1456 L1513 1456 L1491 1277 L1306 1277 Z M884 -423 Q880 -423 877 -411 Q881 -373 885 -335.5 Q889 -298 894 -260 Q904 -272 911 -272 Q934 -272 961 -267.5 Q988 -263 1016 -254 Q1052 -240 1075 -215 Q1098 -190 1112.5 -154 Q1127 -118 1136 -70.5 Q1145 -23 1152 36 L1273 1026 L1460 1026 L1346 94 Q1339 37 1328.5 -23.5 Q1318 -84 1300.5 -141.5 Q1283 -199 1257.5 -250 Q1232 -301 1195.5 -339.5 Q1159 -378 1109.5 -400.5 Q1060 -423 996 -423 L884 -423 Z " />
<glyph glyph-name="uni01CD" unicode="&#x1cd;" horiz-adv-x="1155" d="M685 1584 L510 1935 L696 1935 L771 1705 L906 1935 L1099 1935 L840 1584 L685 1584 Z M805 545 Q779 725 759.5 902 Q740 1079 726 1256 Q671 1076 607 899.5 Q543 723 469 545 L805 545 Z M13 0 L655 1456 L851 1456 L1141 0 L927 0 L859 389 L382 389 L223 0 L13 0 Z " />
<glyph glyph-name="uni01CE" unicode="&#x1ce;" horiz-adv-x="1030" d="M588 1154 L413 1505 L599 1505 L674 1275 L808 1505 L1002 1505 L742 1154 L588 1154 Z M525 128 Q584 128 630.5 156 Q677 184 711 235.5 Q745 287 767 359.5 Q789 432 800 521 Q810 605 804.5 675 Q799 745 776.5 795.5 Q754 846 714 874 Q674 902 616 902 Q558 902 510.5 874 Q463 846 427 795 Q391 744 367 673.5 Q343 603 333 518 Q322 433 328.5 361.5 Q335 290 358.5 238 Q382 186 423.5 157 Q465 128 525 128 Z M483 -22 Q383 -22 313 20.5 Q243 63 202 136 Q161 209 147.5 306.5 Q134 404 147 513 Q162 630 200.5 728.5 Q239 827 300 899 Q361 971 442 1011.5 Q523 1052 622 1052 Q660 1052 693 1037.5 Q726 1023 753 998 Q780 973 800.5 938 Q821 903 836 863 L856 1026 L1039 1026 L914 0 L727 0 L748 175 Q694 82 627 30 Q560 -22 483 -22 Z " />
<glyph glyph-name="uni01CF" unicode="&#x1cf;" horiz-adv-x="472" d="M342 1584 L167 1935 L353 1935 L428 1705 L563 1935 L756 1935 L497 1584 L342 1584 Z M139 0 L317 1456 L508 1456 L330 0 L139 0 Z " />
<glyph glyph-name="uni01D0" unicode="&#x1d0;" horiz-adv-x="397" d="M97 0 L222 1026 L408 1026 L284 0 L97 0 Z M243 1154 L68 1505 L254 1505 L329 1275 L464 1505 L657 1505 L398 1154 L243 1154 Z " />
<glyph glyph-name="uni01D1" unicode="&#x1d1;" horiz-adv-x="1328" d="M772 1584 L597 1935 L783 1935 L859 1705 L993 1935 L1187 1935 L927 1584 L772 1584 Z M664 -22 Q529 -22 427.5 31 Q326 84 262.5 181.5 Q199 279 176 418 Q153 557 174 729 Q195 900 253 1039 Q311 1178 399 1276.5 Q487 1375 601.5 1428.5 Q716 1482 851 1482 Q982 1482 1081.5 1427 Q1181 1372 1243.5 1273 Q1306 1174 1329.5 1035.5 Q1353 897 1332 729 Q1311 558 1254.5 419.5 Q1198 281 1112 183 Q1026 85 912.5 31.5 Q799 -22 664 -22 Z M680 139 Q772 139 846.5 180 Q921 221 977.5 297.5 Q1034 374 1071 483 Q1108 592 1125 729 Q1141 862 1130.5 971 Q1120 1080 1083 1158 Q1046 1236 982 1278.5 Q918 1321 828 1321 Q738 1321 662.5 1278.5 Q587 1236 529.5 1158 Q472 1080 434 971 Q396 862 380 729 Q363 592 373.5 483 Q384 374 421.5 297.5 Q459 221 523.5 180 Q588 139 680 139 Z " />
<glyph glyph-name="uni01D2" unicode="&#x1d2;" horiz-adv-x="1023" d="M512 -22 Q405 -22 329.5 17 Q254 56 208.5 126.5 Q163 197 148 295 Q133 393 147 512 Q162 633 202.5 732.5 Q243 832 306 903 Q369 974 454 1013 Q539 1052 644 1052 Q750 1052 824.5 1013 Q899 974 943 902.5 Q987 831 1001 731.5 Q1015 632 1000 512 Q986 394 947 295.5 Q908 197 846 126.5 Q784 56 700 17 Q616 -22 512 -22 Z M527 128 Q588 128 635.5 156 Q683 184 717.5 234.5 Q752 285 774 355.5 Q796 426 807 512 Q818 599 812 671 Q806 743 783.5 794 Q761 845 720.5 873.5 Q680 902 622 902 Q563 902 516 874 Q469 846 433.5 794.5 Q398 743 374.5 671 Q351 599 341 512 Q318 326 363 227 Q408 128 527 128 Z M567 1154 L392 1505 L578 1505 L654 1275 L788 1505 L981 1505 L722 1154 L567 1154 Z " />
<glyph glyph-name="uni01D3" unicode="&#x1d3;" horiz-adv-x="1205" d="M703 1584 L528 1935 L714 1935 L789 1705 L923 1935 L1117 1935 L857 1584 L703 1584 Z M599 -22 Q462 -22 376 13.5 Q290 49 245 121 Q200 193 191 302.5 Q182 412 200 560 L310 1456 L501 1456 L391 556 Q378 449 389 370.5 Q400 292 430.5 240.5 Q461 189 509 164 Q557 139 619 139 Q748 139 835.5 242.5 Q923 346 948 552 L1059 1456 L1250 1456 L1141 562 Q1124 429 1090 321 Q1056 213 993.5 137 Q931 61 835 19.5 Q739 -22 599 -22 Z " />
<glyph glyph-name="uni01D4" unicode="&#x1d4;" horiz-adv-x="958" d="M422 -23 Q346 -23 291 6.5 Q236 36 202.5 90 Q169 144 157.5 220.5 Q146 297 158 392 L235 1026 L419 1026 L342 392 Q325 259 361.5 193 Q398 127 477 127 Q524 127 562 147.5 Q600 168 628 204.5 Q656 241 673.5 291.5 Q691 342 699 403 L775 1026 L961 1026 L867 254 Q860 185 854.5 122 Q849 59 845 0 L653 0 L670 165 Q658 126 637 91.5 Q616 57 585 31.5 Q554 6 513.5 -8.5 Q473 -23 422 -23 Z M536 1154 L361 1505 L546 1505 L622 1275 L756 1505 L950 1505 L690 1154 L536 1154 Z " />
<glyph glyph-name="uni01E2" unicode="&#x1e2;" horiz-adv-x="1743" d="M994 1672 L1009 1796 L1501 1796 L1486 1672 L994 1672 Z M557 548 L942 548 L993 1291 L964 1291 L557 548 Z M16 0 L884 1456 L1738 1456 L1718 1291 L1186 1291 L1157 829 L1654 829 L1635 671 L1158 671 L1129 163 L1601 163 L1581 0 L913 0 L937 401 L465 401 L249 0 L16 0 Z " />
<glyph glyph-name="uni01E3" unicode="&#x1e3;" horiz-adv-x="1425" d="M602 1242 L617 1366 L1108 1366 L1093 1242 L602 1242 Z M1245 612 Q1245 616 1245 620 Q1245 624 1246 628 Q1251 689 1242 739.5 Q1233 790 1213 827 Q1193 864 1163.5 884.5 Q1134 905 1099 905 Q1058 905 1022 882.5 Q986 860 955 820 Q924 780 899.5 726.5 Q875 673 858 612 L1245 612 Z M400 126 Q458 126 502 156 Q546 186 577.5 236 Q609 286 628.5 350.5 Q648 415 658 485 L577 485 Q522 485 471 478 Q420 471 379.5 450.5 Q339 430 311.5 392.5 Q284 355 277 294 Q266 207 301 166.5 Q336 126 400 126 Z M1007 -22 Q890 -22 818 44.5 Q746 111 717 226 Q690 171 651.5 125 Q613 79 568.5 46 Q524 13 474.5 -5.5 Q425 -24 375 -24 Q303 -24 246.5 -3 Q190 18 153 58 Q116 98 100 155.5 Q84 213 93 285 Q107 396 146.5 461.5 Q186 527 253 561 Q320 595 415 605 Q510 615 636 615 L674 615 Q681 679 675 732.5 Q669 786 649.5 824 Q630 862 598 883 Q566 904 521 904 Q422 904 276 822 L237 952 Q397 1053 579 1053 Q614 1054 650.5 1040 Q687 1026 718.5 998.5 Q750 971 774.5 931 Q799 891 811 840 Q836 889 872 928.5 Q908 968 949.5 996 Q991 1024 1034 1038.5 Q1077 1053 1118 1053 Q1208 1053 1268.5 1014 Q1329 975 1362.5 905 Q1396 835 1404 737.5 Q1412 640 1397 523 L1389 486 L840 486 L837 459 Q826 298 874 213 Q922 128 1031 128 Q1063 128 1098.5 141 Q1134 154 1167 171 Q1200 188 1227 206 Q1254 224 1269 233 L1297 239 L1331 105 L1315 91 Q1299 79 1269.5 59.5 Q1240 40 1199.5 22 Q1159 4 1110 -9 Q1061 -22 1007 -22 Z " />
<glyph glyph-name="Gcaron" unicode="&#x1e6;" horiz-adv-x="1228" d="M776 1584 L600 1935 L786 1935 L862 1705 L996 1935 L1190 1935 L930 1584 L776 1584 Z M676 -22 Q533 -23 428.5 29 Q324 81 260 176 Q196 271 173 405.5 Q150 540 171 704 Q192 876 251 1019.5 Q310 1163 401 1265.5 Q492 1368 613 1425 Q734 1482 880 1482 Q953 1482 1011 1473 Q1069 1464 1114 1446 Q1159 1428 1192.5 1400.5 Q1226 1373 1249 1336 L1156 1203 Q1051 1321 862 1321 Q761 1321 677.5 1274 Q594 1227 531 1145.5 Q468 1064 427.5 952.5 Q387 841 371 712 Q355 582 367 476 Q379 370 420.5 295 Q462 220 533 179.5 Q604 139 705 139 Q816 139 924 191 L975 603 L697 603 L717 766 L1188 766 L1104 84 Q895 -22 676 -22 Z " />
<glyph glyph-name="gcaron" unicode="&#x1e7;" horiz-adv-x="994" d="M514 158 Q575 158 619.5 185 Q664 212 695 261 Q726 310 745 379 Q764 448 775 532 Q785 615 780 683.5 Q775 752 754.5 800.5 Q734 849 697.5 875.5 Q661 902 609 902 Q552 902 507.5 872 Q463 842 429.5 790.5 Q396 739 374.5 669 Q353 599 343 518 Q322 347 364 252.5 Q406 158 514 158 Z M409 -418 Q249 -418 110 -331 L161 -172 Q271 -269 415 -269 Q535 -269 612 -181.5 Q689 -94 711 85 L724 192 Q701 153 674.5 120.5 Q648 88 618 64.5 Q588 41 554 27.5 Q520 14 483 14 Q393 14 324.5 49 Q256 84 212 149.5 Q168 215 151 307.5 Q134 400 148 516 Q163 636 199 735 Q235 834 292 904.5 Q349 975 426 1013.5 Q503 1052 599 1052 Q680 1052 733 1002 Q786 952 809 874 L827 1026 L1023 1026 Q1012 963 1003 910.5 Q994 858 986.5 812.5 Q979 767 973.5 727 Q968 687 963 648 L901 140 Q886 19 847.5 -83.5 Q809 -186 747.5 -260 Q686 -334 601 -376 Q516 -418 409 -418 Z M536 1154 L361 1505 L547 1505 L622 1275 L756 1505 L950 1505 L690 1154 L536 1154 Z " />
<glyph glyph-name="uni01E8" unicode="&#x1e8;" horiz-adv-x="1071" d="M662 1584 L487 1935 L672 1935 L748 1705 L882 1935 L1076 1935 L816 1584 L662 1584 Z M154 0 L332 1456 L523 1456 L443 800 L985 1456 L1223 1456 L624 755 L1084 0 L837 0 L431 692 L347 0 L154 0 Z " />
<glyph glyph-name="uni01E9" unicode="&#x1e9;" horiz-adv-x="901" d="M89 0 L271 1486 L457 1486 L347 587 L731 1026 L967 1026 L510 537 L868 0 L632 0 L334 485 L275 0 L89 0 Z M659 1135 L484 1486 L670 1486 L746 1256 L880 1486 L1074 1486 L814 1135 L659 1135 Z " />
<glyph glyph-name="uni01EA" unicode="&#x1ea;" horiz-adv-x="1328" d="M581 -424 Q501 -424 459.5 -379.5 Q418 -335 429 -250 Q433 -218 448 -187 Q463 -156 485 -127 Q507 -98 534 -71 Q561 -44 588 -21 Q469 -15 382 40.5 Q295 96 242 193.5 Q189 291 171 426.5 Q153 562 174 729 Q195 900 253 1039.5 Q311 1179 398.5 1277 Q486 1375 601 1428.5 Q716 1482 851 1482 Q982 1482 1081.5 1427 Q1181 1372 1243.5 1273 Q1306 1174 1329.5 1035.5 Q1353 897 1332 729 Q1312 571 1259 439 Q1206 307 1124.5 209.5 Q1043 112 936 53 Q829 -6 701 -18 Q681 -40 664.5 -66.5 Q648 -93 635 -121 Q622 -149 613.5 -175 Q605 -201 602 -221 Q597 -263 609.5 -285 Q622 -307 653 -307 Q691 -307 786 -284 L772 -396 Q721 -410 673 -417 Q625 -424 581 -424 Z M680 139 Q772 139 846.5 180 Q921 221 977.5 297.5 Q1034 374 1071 483 Q1108 592 1125 729 Q1141 862 1130.5 971 Q1120 1080 1083 1158 Q1046 1236 982 1278.5 Q918 1321 828 1321 Q738 1321 662.5 1278.5 Q587 1236 529.5 1158 Q472 1080 434 971 Q396 862 380 729 Q363 592 373.5 483 Q384 374 421.5 297.5 Q459 221 523.5 180 Q588 139 680 139 Z " />
<glyph glyph-name="uni01EB" unicode="&#x1eb;" horiz-adv-x="1023" d="M421 -424 Q342 -424 300.5 -379.5 Q259 -335 270 -250 Q274 -216 290 -184 Q306 -152 329 -122.5 Q352 -93 379 -66.5 Q406 -40 432 -18 Q346 -6 286 37.5 Q226 81 190.5 151 Q155 221 144.5 312.5 Q134 404 147 512 Q162 633 202.5 732.5 Q243 832 306 903 Q369 974 454 1013 Q539 1052 644 1052 Q750 1052 824.5 1013 Q899 974 943 902.5 Q987 831 1001 731.5 Q1015 632 1000 512 Q986 398 949.5 302.5 Q913 207 855 137 Q797 67 718.5 25.5 Q640 -16 542 -21 Q522 -43 505 -69.5 Q488 -96 475 -123 Q462 -150 454 -175.5 Q446 -201 443 -221 Q438 -263 450.5 -285 Q463 -307 493 -307 Q532 -307 627 -284 L613 -396 Q562 -410 514 -417 Q466 -424 421 -424 Z M527 128 Q588 128 635.5 156 Q683 184 717.5 234.5 Q752 285 774 355.5 Q796 426 807 512 Q818 599 812 671 Q806 743 783.5 794 Q761 845 720.5 873.5 Q680 902 622 902 Q563 902 516 874 Q469 846 433.5 794.5 Q398 743 374.5 671 Q351 599 341 512 Q318 326 363 227 Q408 128 527 128 Z " />
<glyph glyph-name="uni01F0" unicode="&#x1f0;" horiz-adv-x="461" d="M-98 -423 Q-102 -423 -105 -411 Q-101 -373 -97 -335.5 Q-93 -298 -88 -260 Q-42 -272 15 -272 Q76 -272 112.5 -197.5 Q149 -123 169 36 L290 1026 L477 1026 L364 104 Q357 47 347.5 -14.5 Q338 -76 321.5 -134.5 Q305 -193 280.5 -245.5 Q256 -298 219.5 -337.5 Q183 -377 132 -400 Q81 -423 13 -423 L-87 -423 L-98 -423 Z M309 1154 L134 1505 L319 1505 L395 1275 L529 1505 L723 1505 L463 1154 L309 1154 Z " />
<glyph glyph-name="uni01F1" unicode="&#x1f1;" horiz-adv-x="2209" d="M1312 0 L1324 103 L2032 1295 L1493 1295 L1512 1456 L2314 1456 L2302 1357 L1590 161 L2153 161 L2134 0 L1312 0 Z M154 0 L332 1456 L648 1456 Q993 1456 1146.5 1278 Q1300 1100 1254 726 Q1233 552 1173.5 417 Q1114 282 1019 189 Q924 96 795.5 48 Q667 0 507 0 L154 0 Z M364 161 L536 161 Q644 161 732 198.5 Q820 236 885.5 308.5 Q951 381 993 486 Q1035 591 1052 726 Q1087 1017 987 1156 Q887 1295 646 1295 L504 1295 L364 161 Z " />
<glyph glyph-name="uni01F2" unicode="&#x1f2;" horiz-adv-x="2043" d="M1330 0 L1342 100 L1834 877 L1455 877 L1473 1026 L2093 1026 L2081 928 L1586 148 L2005 148 L1987 0 L1330 0 Z M154 0 L332 1456 L648 1456 Q993 1456 1146.5 1278 Q1300 1100 1254 726 Q1233 552 1173.5 417 Q1114 282 1019 189 Q924 96 795.5 48 Q667 0 507 0 L154 0 Z M364 161 L536 161 Q644 161 732 198.5 Q820 236 885.5 308.5 Q951 381 993 486 Q1035 591 1052 726 Q1087 1017 987 1156 Q887 1295 646 1295 L504 1295 L364 161 Z " />
<glyph glyph-name="uni01F3" unicode="&#x1f3;" horiz-adv-x="1805" d="M1092 0 L1104 100 L1596 877 L1217 877 L1235 1026 L1855 1026 L1843 928 L1349 148 L1767 148 L1749 0 L1092 0 Z M511 128 Q568 128 612.5 156 Q657 184 690 235.5 Q723 287 744.5 360 Q766 433 777 522 Q787 606 781.5 676 Q776 746 755 796 Q734 846 696.5 874 Q659 902 605 902 Q548 902 504 872.5 Q460 843 427.5 791.5 Q395 740 374 669 Q353 598 343 514 Q332 428 335.5 357 Q339 286 359 235 Q379 184 416.5 156 Q454 128 511 128 Z M457 -22 Q377 -22 313 16 Q249 54 207.5 123.5 Q166 193 149 291 Q132 389 147 510 Q161 627 198.5 726.5 Q236 826 294 898.5 Q352 971 429.5 1011.5 Q507 1052 602 1052 Q645 1052 681 1037.5 Q717 1023 744 998.5 Q771 974 789 941 Q807 908 815 872 L890 1486 L1075 1486 L925 266 Q920 220 913.5 154 Q907 88 899 0 L709 0 L728 174 Q715 135 691 99.5 Q667 64 633 37 Q599 10 555 -6 Q511 -22 457 -22 Z " />
<glyph glyph-name="uni01F4" unicode="&#x1f4;" horiz-adv-x="1228" d="M784 1602 L1034 1962 L1273 1962 L952 1602 L784 1602 Z M676 -22 Q533 -23 428.5 29 Q324 81 260 176 Q196 271 173 405.5 Q150 540 171 704 Q192 876 251 1019.5 Q310 1163 401 1265.5 Q492 1368 613 1425 Q734 1482 880 1482 Q953 1482 1011 1473 Q1069 1464 1114 1446 Q1159 1428 1192.5 1400.5 Q1226 1373 1249 1336 L1156 1203 Q1051 1321 862 1321 Q761 1321 677.5 1274 Q594 1227 531 1145.5 Q468 1064 427.5 952.5 Q387 841 371 712 Q355 582 367 476 Q379 370 420.5 295 Q462 220 533 179.5 Q604 139 705 139 Q816 139 924 191 L975 603 L697 603 L717 766 L1188 766 L1104 84 Q895 -22 676 -22 Z " />
<glyph glyph-name="uni01F5" unicode="&#x1f5;" horiz-adv-x="994" d="M514 158 Q575 158 619.5 185 Q664 212 695 261 Q726 310 745 379 Q764 448 775 532 Q785 615 780 683.5 Q775 752 754.5 800.5 Q734 849 697.5 875.5 Q661 902 609 902 Q552 902 507.5 872 Q463 842 429.5 790.5 Q396 739 374.5 669 Q353 599 343 518 Q322 347 364 252.5 Q406 158 514 158 Z M409 -418 Q249 -418 110 -331 L161 -172 Q271 -269 415 -269 Q535 -269 612 -181.5 Q689 -94 711 85 L724 192 Q701 153 674.5 120.5 Q648 88 618 64.5 Q588 41 554 27.5 Q520 14 483 14 Q393 14 324.5 49 Q256 84 212 149.5 Q168 215 151 307.5 Q134 400 148 516 Q163 636 199 735 Q235 834 292 904.5 Q349 975 426 1013.5 Q503 1052 599 1052 Q680 1052 733 1002 Q786 952 809 874 L827 1026 L1023 1026 Q1012 963 1003 910.5 Q994 858 986.5 812.5 Q979 767 973.5 727 Q968 687 963 648 L901 140 Q886 19 847.5 -83.5 Q809 -186 747.5 -260 Q686 -334 601 -376 Q516 -418 409 -418 Z M545 1172 L796 1532 L1034 1532 L713 1172 L545 1172 Z " />
<glyph glyph-name="uni01F8" unicode="&#x1f8;" horiz-adv-x="1298" d="M782 1603 L549 1963 L788 1963 L950 1603 L782 1603 Z M154 0 L332 1456 L535 1456 L919 432 L994 262 L1140 1456 L1322 1456 L1144 0 L940 0 L548 986 L476 1186 L331 0 L154 0 Z " />
<glyph glyph-name="uni01F9" unicode="&#x1f9;" horiz-adv-x="983" d="M130 0 L209 649 Q213 685 218 732.5 Q223 780 227.5 828 Q232 876 235 919 Q238 962 240 989 L241 1026 L437 1026 L418 865 Q444 909 478 944 Q512 979 549.5 1003 Q587 1027 625.5 1039.5 Q664 1052 699 1052 Q842 1052 908 934 Q974 816 944 578 L874 0 L688 0 L758 577 Q778 743 752.5 822.5 Q727 902 643 902 Q611 902 570.5 880.5 Q530 859 493.5 823 Q457 787 429 740.5 Q401 694 394 643 L316 0 L130 0 Z M603 1173 L368 1533 L608 1533 L771 1173 L603 1173 Z " />
<glyph glyph-name="Aringacute" unicode="&#x1fa;" horiz-adv-x="1155" d="M767 1567 Q731 1567 701.5 1582 Q672 1597 651.5 1623 Q631 1649 622 1685 Q613 1721 618 1762 Q623 1804 641 1839.5 Q659 1875 686 1901 Q713 1927 746 1942 Q779 1957 815 1957 Q850 1957 879.5 1942 Q909 1927 929.5 1901 Q950 1875 959.5 1839.5 Q969 1804 964 1762 Q959 1721 940.5 1685 Q922 1649 895.5 1623 Q869 1597 835.5 1582 Q802 1567 767 1567 Z M777 1652 Q794 1652 811 1660.5 Q828 1669 841.5 1684 Q855 1699 864.5 1719 Q874 1739 877 1762 Q882 1809 860.5 1840.5 Q839 1872 804 1872 Q787 1872 770.5 1863.5 Q754 1855 740.5 1840 Q727 1825 718 1805 Q709 1785 706 1762 Q703 1739 707 1719 Q711 1699 721 1684 Q731 1669 745 1660.5 Q759 1652 777 1652 Z M740 2052 L991 2412 L1230 2412 L909 2052 L740 2052 Z M805 545 Q779 725 759.5 902 Q740 1079 726 1256 Q671 1076 607 899.5 Q543 723 469 545 L805 545 Z M13 0 L655 1456 L851 1456 L1141 0 L927 0 L859 389 L382 389 L223 0 L13 0 Z " />
<glyph glyph-name="aringacute" unicode="&#x1fb;" horiz-adv-x="1030" d="M670 1137 Q634 1137 604.5 1152 Q575 1167 555 1193 Q535 1219 525.5 1255 Q516 1291 521 1332 Q526 1374 544 1409.5 Q562 1445 589 1471 Q616 1497 649 1512 Q682 1527 718 1527 Q753 1527 783 1512 Q813 1497 833 1471 Q853 1445 862.5 1409.5 Q872 1374 867 1332 Q862 1291 843.5 1255 Q825 1219 798 1193 Q771 1167 738 1152 Q705 1137 670 1137 Z M681 1222 Q716 1222 744.5 1253.5 Q773 1285 779 1332 Q785 1379 764 1410.5 Q743 1442 708 1442 Q691 1442 674.5 1433.5 Q658 1425 644.5 1410 Q631 1395 621.5 1375 Q612 1355 609 1332 Q606 1309 610.5 1289 Q615 1269 624.5 1254 Q634 1239 648.5 1230.5 Q663 1222 681 1222 Z M644 1622 L894 1982 L1133 1982 L812 1622 L644 1622 Z M525 128 Q584 128 630.5 156 Q677 184 711 235.5 Q745 287 767 359.5 Q789 432 800 521 Q810 605 804.5 675 Q799 745 776.5 795.5 Q754 846 714 874 Q674 902 616 902 Q558 902 510.5 874 Q463 846 427 795 Q391 744 367 673.5 Q343 603 333 518 Q322 433 328.5 361.5 Q335 290 358.5 238 Q382 186 423.5 157 Q465 128 525 128 Z M483 -22 Q383 -22 313 20.5 Q243 63 202 136 Q161 209 147.5 306.5 Q134 404 147 513 Q162 630 200.5 728.5 Q239 827 300 899 Q361 971 442 1011.5 Q523 1052 622 1052 Q660 1052 693 1037.5 Q726 1023 753 998 Q780 973 800.5 938 Q821 903 836 863 L856 1026 L1039 1026 L914 0 L727 0 L748 175 Q694 82 627 30 Q560 -22 483 -22 Z " />
<glyph glyph-name="AEacute" unicode="&#x1fc;" horiz-adv-x="1743" d="M1167 1602 L1417 1962 L1656 1962 L1335 1602 L1167 1602 Z M557 548 L942 548 L993 1291 L964 1291 L557 548 Z M16 0 L884 1456 L1738 1456 L1718 1291 L1186 1291 L1157 829 L1654 829 L1635 671 L1158 671 L1129 163 L1601 163 L1581 0 L913 0 L937 401 L465 401 L249 0 L16 0 Z " />
<glyph glyph-name="aeacute" unicode="&#x1fd;" horiz-adv-x="1425" d="M1245 612 Q1245 616 1245 620 Q1245 624 1246 628 Q1251 689 1242 739.5 Q1233 790 1213 827 Q1193 864 1163.5 884.5 Q1134 905 1099 905 Q1058 905 1022 882.5 Q986 860 955 820 Q924 780 899.5 726.5 Q875 673 858 612 L1245 612 Z M400 126 Q458 126 502 156 Q546 186 577.5 236 Q609 286 628.5 350.5 Q648 415 658 485 L577 485 Q522 485 471 478 Q420 471 379.5 450.5 Q339 430 311.5 392.5 Q284 355 277 294 Q266 207 301 166.5 Q336 126 400 126 Z M1007 -22 Q890 -22 818 44.5 Q746 111 717 226 Q690 171 651.5 125 Q613 79 568.5 46 Q524 13 474.5 -5.5 Q425 -24 375 -24 Q303 -24 246.5 -3 Q190 18 153 58 Q116 98 100 155.5 Q84 213 93 285 Q107 396 146.5 461.5 Q186 527 253 561 Q320 595 415 605 Q510 615 636 615 L674 615 Q681 679 675 732.5 Q669 786 649.5 824 Q630 862 598 883 Q566 904 521 904 Q422 904 276 822 L237 952 Q397 1053 579 1053 Q614 1054 650.5 1040 Q687 1026 718.5 998.5 Q750 971 774.5 931 Q799 891 811 840 Q836 889 872 928.5 Q908 968 949.5 996 Q991 1024 1034 1038.5 Q1077 1053 1118 1053 Q1208 1053 1268.5 1014 Q1329 975 1362.5 905 Q1396 835 1404 737.5 Q1412 640 1397 523 L1389 486 L840 486 L837 459 Q826 298 874 213 Q922 128 1031 128 Q1063 128 1098.5 141 Q1134 154 1167 171 Q1200 188 1227 206 Q1254 224 1269 233 L1297 239 L1331 105 L1315 91 Q1299 79 1269.5 59.5 Q1240 40 1199.5 22 Q1159 4 1110 -9 Q1061 -22 1007 -22 Z M774 1172 L1025 1532 L1264 1532 L942 1172 L774 1172 Z " />
<glyph glyph-name="Oslashacute" unicode="&#x1fe;" horiz-adv-x="1328" d="M782 1602 L1032 1962 L1270 1962 L950 1602 L782 1602 Z M664 -22 Q531 -22 428 34 L339 -131 L257 -83 L346 81 Q236 175 191.5 340.5 Q147 506 174 729 Q195 900 253 1039.5 Q311 1179 399 1277 Q487 1375 601.5 1428.5 Q716 1482 851 1482 Q985 1482 1085 1417 L1168 1572 L1250 1525 L1165 1366 Q1272 1269 1315 1105.5 Q1358 942 1332 729 Q1311 558 1254.5 419.5 Q1198 281 1112 183 Q1026 85 912.5 31.5 Q799 -22 664 -22 Z M526 183 Q590 139 680 139 Q771 139 846 180 Q921 221 977 297.5 Q1033 374 1070.5 483 Q1108 592 1125 729 Q1145 886 1128.5 1008 Q1112 1130 1060 1208 L526 183 Z M986 1268 Q954 1294 915 1307.5 Q876 1321 828 1321 Q738 1321 662.5 1278.5 Q587 1236 529.5 1158 Q472 1080 434 971 Q396 862 380 729 Q360 563 376.5 438 Q393 313 450 238 L986 1268 Z " />
<glyph glyph-name="oslashacute" unicode="&#x1ff;" horiz-adv-x="1013" d="M512 -22 Q432 -22 368 4 L266 -214 L194 -176 L293 39 Q247 71 214.5 118.5 Q182 166 164 226.5 Q146 287 141.5 359 Q137 431 147 512 Q162 633 202.5 732.5 Q243 832 306 903 Q369 974 454 1013 Q539 1052 644 1052 Q682 1052 716 1046.5 Q750 1041 782 1029 L874 1227 L946 1189 L857 995 Q951 929 985.5 803 Q1020 677 1000 512 Q986 394 947 295.5 Q908 197 846 126.5 Q784 56 700 17 Q616 -22 512 -22 Z M451 146 Q482 128 527 128 Q588 128 635.5 156 Q683 184 717.5 234.5 Q752 285 774 355.5 Q796 426 807 512 Q821 624 810.5 708 Q800 792 765 843 L451 146 Z M697 886 Q664 902 622 902 Q563 902 515 874 Q467 846 432 794.5 Q397 743 374 671 Q351 599 341 512 Q328 404 338 321.5 Q348 239 383 190 L697 886 Z M577 1172 L828 1532 L1066 1532 L745 1172 L577 1172 Z " />
<glyph glyph-name="uni0200" unicode="&#x200;" horiz-adv-x="1155" d="M831 1604 L681 1997 L876 1997 L963 1604 L831 1604 Z M555 1604 L352 1997 L566 1997 L693 1604 L555 1604 Z M805 545 Q779 725 759.5 902 Q740 1079 726 1256 Q671 1076 607 899.5 Q543 723 469 545 L805 545 Z M13 0 L655 1456 L851 1456 L1141 0 L927 0 L859 389 L382 389 L223 0 L13 0 Z " />
<glyph glyph-name="uni0201" unicode="&#x201;" horiz-adv-x="1030" d="M735 1174 L584 1567 L779 1567 L867 1174 L735 1174 Z M459 1174 L255 1567 L469 1567 L597 1174 L459 1174 Z M525 128 Q584 128 630.5 156 Q677 184 711 235.5 Q745 287 767 359.5 Q789 432 800 521 Q810 605 804.5 675 Q799 745 776.5 795.5 Q754 846 714 874 Q674 902 616 902 Q558 902 510.5 874 Q463 846 427 795 Q391 744 367 673.5 Q343 603 333 518 Q322 433 328.5 361.5 Q335 290 358.5 238 Q382 186 423.5 157 Q465 128 525 128 Z M483 -22 Q383 -22 313 20.5 Q243 63 202 136 Q161 209 147.5 306.5 Q134 404 147 513 Q162 630 200.5 728.5 Q239 827 300 899 Q361 971 442 1011.5 Q523 1052 622 1052 Q660 1052 693 1037.5 Q726 1023 753 998 Q780 973 800.5 938 Q821 903 836 863 L856 1026 L1039 1026 L914 0 L727 0 L748 175 Q694 82 627 30 Q560 -22 483 -22 Z " />
<glyph glyph-name="uni0202" unicode="&#x202;" horiz-adv-x="1155" d="M805 1870 Q926 1870 980 1807.5 Q1034 1745 1025 1610 L887 1610 Q892 1680 866.5 1709 Q841 1738 787 1738 Q735 1738 703.5 1708.5 Q672 1679 660 1610 L521 1610 Q544 1741 614 1805.5 Q684 1870 805 1870 Z M805 545 Q779 725 759.5 902 Q740 1079 726 1256 Q671 1076 607 899.5 Q543 723 469 545 L805 545 Z M13 0 L655 1456 L851 1456 L1141 0 L927 0 L859 389 L382 389 L223 0 L13 0 Z " />
<glyph glyph-name="uni0203" unicode="&#x203;" horiz-adv-x="1030" d="M707 1440 Q828 1440 882.5 1377.5 Q937 1315 928 1180 L789 1180 Q794 1250 769 1279 Q744 1308 690 1308 Q638 1308 606.5 1278.5 Q575 1249 563 1180 L424 1180 Q448 1311 517 1375.5 Q586 1440 707 1440 Z M525 128 Q584 128 630.5 156 Q677 184 711 235.5 Q745 287 767 359.5 Q789 432 800 521 Q810 605 804.5 675 Q799 745 776.5 795.5 Q754 846 714 874 Q674 902 616 902 Q558 902 510.5 874 Q463 846 427 795 Q391 744 367 673.5 Q343 603 333 518 Q322 433 328.5 361.5 Q335 290 358.5 238 Q382 186 423.5 157 Q465 128 525 128 Z M483 -22 Q383 -22 313 20.5 Q243 63 202 136 Q161 209 147.5 306.5 Q134 404 147 513 Q162 630 200.5 728.5 Q239 827 300 899 Q361 971 442 1011.5 Q523 1052 622 1052 Q660 1052 693 1037.5 Q726 1023 753 998 Q780 973 800.5 938 Q821 903 836 863 L856 1026 L1039 1026 L914 0 L727 0 L748 175 Q694 82 627 30 Q560 -22 483 -22 Z " />
<glyph glyph-name="uni0204" unicode="&#x204;" horiz-adv-x="991" d="M803 1604 L653 1997 L848 1997 L935 1604 L803 1604 Z M527 1604 L324 1997 L538 1997 L665 1604 L527 1604 Z M154 0 L332 1456 L1058 1456 L1039 1295 L504 1295 L447 837 L953 837 L933 675 L429 675 L366 161 L923 161 L904 0 L154 0 Z " />
<glyph glyph-name="uni0205" unicode="&#x205;" horiz-adv-x="957" d="M719 1174 L568 1567 L763 1567 L851 1174 L719 1174 Z M443 1174 L239 1567 L453 1567 L580 1174 L443 1174 Z M782 613 Q787 755 744 830.5 Q701 906 622 906 Q577 906 537 886 Q497 866 463 828 Q429 790 402.5 735.5 Q376 681 358 613 L782 613 Z M524 -22 Q422 -22 345 16 Q268 54 219 123.5 Q170 193 151 291.5 Q132 390 147 510 Q162 628 203 727.5 Q244 827 307 899 Q370 971 452 1011.5 Q534 1052 631 1052 Q726 1052 790.5 1014.5 Q855 977 891.5 909 Q928 841 937.5 746 Q947 651 933 536 Q931 515 923 487 L340 487 Q323 314 381 221 Q439 128 557 128 Q694 128 831 242 L866 106 Q783 42 701 10 Q619 -22 524 -22 Z " />
<glyph glyph-name="uni0206" unicode="&#x206;" horiz-adv-x="991" d="M757 1870 Q878 1870 932 1807.5 Q986 1745 977 1610 L839 1610 Q844 1680 819 1709 Q794 1738 740 1738 Q687 1738 655.5 1708.5 Q624 1679 613 1610 L473 1610 Q496 1741 566 1805.5 Q636 1870 757 1870 Z M154 0 L332 1456 L1058 1456 L1039 1295 L504 1295 L447 837 L953 837 L933 675 L429 675 L366 161 L923 161 L904 0 L154 0 Z " />
<glyph glyph-name="uni0207" unicode="&#x207;" horiz-adv-x="957" d="M671 1440 Q792 1440 846.5 1377.5 Q901 1315 892 1180 L753 1180 Q758 1250 733 1279 Q708 1308 654 1308 Q601 1308 570 1278.5 Q539 1249 527 1180 L388 1180 Q412 1311 481 1375.5 Q550 1440 671 1440 Z M782 613 Q787 755 744 830.5 Q701 906 622 906 Q577 906 537 886 Q497 866 463 828 Q429 790 402.5 735.5 Q376 681 358 613 L782 613 Z M524 -22 Q422 -22 345 16 Q268 54 219 123.5 Q170 193 151 291.5 Q132 390 147 510 Q162 628 203 727.5 Q244 827 307 899 Q370 971 452 1011.5 Q534 1052 631 1052 Q726 1052 790.5 1014.5 Q855 977 891.5 909 Q928 841 937.5 746 Q947 651 933 536 Q931 515 923 487 L340 487 Q323 314 381 221 Q439 128 557 128 Q694 128 831 242 L866 106 Q783 42 701 10 Q619 -22 524 -22 Z " />
<glyph glyph-name="uni0208" unicode="&#x208;" horiz-adv-x="471" d="M508 1604 L358 1997 L553 1997 L640 1604 L508 1604 Z M232 1604 L29 1997 L243 1997 L370 1604 L232 1604 Z M139 0 L317 1456 L508 1456 L330 0 L139 0 Z " />
<glyph glyph-name="uni0209" unicode="&#x209;" horiz-adv-x="397" d="M410 1174 L259 1567 L454 1567 L542 1174 L410 1174 Z M134 1174 L-69 1567 L144 1567 L272 1174 L134 1174 Z M97 0 L222 1026 L408 1026 L284 0 L97 0 Z " />
<glyph glyph-name="uni020A" unicode="&#x20a;" horiz-adv-x="472" d="M462 1870 Q583 1870 637 1807.5 Q691 1745 682 1610 L544 1610 Q549 1680 523.5 1709 Q498 1738 444 1738 Q392 1738 360.5 1708.5 Q329 1679 317 1610 L178 1610 Q201 1741 271 1805.5 Q341 1870 462 1870 Z M139 0 L317 1456 L508 1456 L330 0 L139 0 Z " />
<glyph glyph-name="uni020B" unicode="&#x20b;" horiz-adv-x="397" d="M363 1440 Q484 1440 538 1377.5 Q592 1315 583 1180 L445 1180 Q450 1250 424.5 1279 Q399 1308 345 1308 Q293 1308 262 1278.5 Q231 1249 218 1180 L79 1180 Q103 1311 172.5 1375.5 Q242 1440 363 1440 Z M97 0 Q128 258 159 513 Q190 768 222 1026 L408 1026 Q376 768 345.5 513 Q315 258 284 0 L97 0 Z " />
<glyph glyph-name="uni020C" unicode="&#x20c;" horiz-adv-x="1328" d="M938 1604 L788 1997 L983 1997 L1071 1604 L938 1604 Z M662 1604 L459 1997 L673 1997 L800 1604 L662 1604 Z M664 -22 Q529 -22 427.5 31 Q326 84 262.5 181.5 Q199 279 176 418 Q153 557 174 729 Q195 900 253 1039 Q311 1178 399 1276.5 Q487 1375 601.5 1428.5 Q716 1482 851 1482 Q982 1482 1081.5 1427 Q1181 1372 1243.5 1273 Q1306 1174 1329.5 1035.5 Q1353 897 1332 729 Q1311 558 1254.5 419.5 Q1198 281 1112 183 Q1026 85 912.5 31.5 Q799 -22 664 -22 Z M680 139 Q772 139 846.5 180 Q921 221 977.5 297.5 Q1034 374 1071 483 Q1108 592 1125 729 Q1141 862 1130.5 971 Q1120 1080 1083 1158 Q1046 1236 982 1278.5 Q918 1321 828 1321 Q738 1321 662.5 1278.5 Q587 1236 529.5 1158 Q472 1080 434 971 Q396 862 380 729 Q363 592 373.5 483 Q384 374 421.5 297.5 Q459 221 523.5 180 Q588 139 680 139 Z " />
<glyph glyph-name="uni020D" unicode="&#x20d;" horiz-adv-x="1023" d="M734 1174 L583 1567 L778 1567 L867 1174 L734 1174 Z M458 1174 L254 1567 L468 1567 L596 1174 L458 1174 Z M512 -22 Q405 -22 329.5 17 Q254 56 208.5 126.5 Q163 197 148 295 Q133 393 147 512 Q162 633 202.5 732.5 Q243 832 306 903 Q369 974 454 1013 Q539 1052 644 1052 Q750 1052 824.5 1013 Q899 974 943 902.5 Q987 831 1001 731.5 Q1015 632 1000 512 Q986 394 947 295.5 Q908 197 846 126.5 Q784 56 700 17 Q616 -22 512 -22 Z M527 128 Q588 128 635.5 156 Q683 184 717.5 234.5 Q752 285 774 355.5 Q796 426 807 512 Q818 599 812 671 Q806 743 783.5 794 Q761 845 720.5 873.5 Q680 902 622 902 Q563 902 516 874 Q469 846 433.5 794.5 Q398 743 374.5 671 Q351 599 341 512 Q318 326 363 227 Q408 128 527 128 Z " />
<glyph glyph-name="uni020E" unicode="&#x20e;" horiz-adv-x="1328" d="M892 1870 Q1013 1870 1067 1807.5 Q1121 1745 1113 1610 L974 1610 Q979 1680 954 1709 Q929 1738 875 1738 Q822 1738 790.5 1708.5 Q759 1679 748 1610 L608 1610 Q631 1741 701 1805.5 Q771 1870 892 1870 Z M664 -22 Q529 -22 427.5 31 Q326 84 262.5 181.5 Q199 279 176 418 Q153 557 174 729 Q195 900 253 1039 Q311 1178 399 1276.5 Q487 1375 601.5 1428.5 Q716 1482 851 1482 Q982 1482 1081.5 1427 Q1181 1372 1243.5 1273 Q1306 1174 1329.5 1035.5 Q1353 897 1332 729 Q1311 558 1254.5 419.5 Q1198 281 1112 183 Q1026 85 912.5 31.5 Q799 -22 664 -22 Z M680 139 Q772 139 846.5 180 Q921 221 977.5 297.5 Q1034 374 1071 483 Q1108 592 1125 729 Q1141 862 1130.5 971 Q1120 1080 1083 1158 Q1046 1236 982 1278.5 Q918 1321 828 1321 Q738 1321 662.5 1278.5 Q587 1236 529.5 1158 Q472 1080 434 971 Q396 862 380 729 Q363 592 373.5 483 Q384 374 421.5 297.5 Q459 221 523.5 180 Q588 139 680 139 Z " />
<glyph glyph-name="uni020F" unicode="&#x20f;" horiz-adv-x="1023" d="M687 1440 Q808 1440 862 1377.5 Q916 1315 907 1180 L769 1180 Q774 1250 748.5 1279 Q723 1308 669 1308 Q617 1308 586 1278.5 Q555 1249 543 1180 L403 1180 Q427 1311 496.5 1375.5 Q566 1440 687 1440 Z M512 -22 Q405 -22 329.5 17 Q254 56 208.5 126.5 Q163 197 148 295 Q133 393 147 512 Q162 633 202.5 732.5 Q243 832 306 903 Q369 974 454 1013 Q539 1052 644 1052 Q750 1052 824.5 1013 Q899 974 943 902.5 Q987 831 1001 731.5 Q1015 632 1000 512 Q986 394 947 295.5 Q908 197 846 126.5 Q784 56 700 17 Q616 -22 512 -22 Z M527 128 Q588 128 635.5 156 Q683 184 717.5 234.5 Q752 285 774 355.5 Q796 426 807 512 Q818 599 812 671 Q806 743 783.5 794 Q761 845 720.5 873.5 Q680 902 622 902 Q563 902 516 874 Q469 846 433.5 794.5 Q398 743 374.5 671 Q351 599 341 512 Q318 326 363 227 Q408 128 527 128 Z " />
<glyph glyph-name="uni0210" unicode="&#x210;" horiz-adv-x="1105" d="M154 0 L332 1456 L741 1456 Q834 1456 907 1442 Q980 1428 1028 1386.5 Q1076 1345 1095 1269 Q1114 1193 1099 1069 Q1082 932 1013.5 840 Q945 748 824 718 Q850 705 871 683 Q892 661 907.5 627.5 Q923 594 934 547.5 Q945 501 951 440 L1049 0 L843 0 L763 428 Q754 489 742.5 531 Q731 573 712.5 599 Q694 625 666.5 636 Q639 647 597 647 L424 647 L345 0 L154 0 Z M442 808 L642 808 Q752 808 815.5 865.5 Q879 923 896 1058 Q905 1127 898.5 1172.5 Q892 1218 870.5 1245 Q849 1272 812 1283.5 Q775 1295 722 1295 L502 1295 L442 808 Z M524 1604 L320 1997 L535 1997 L661 1604 L524 1604 Z M800 1604 L650 1997 L845 1997 L932 1604 L800 1604 Z " />
<glyph glyph-name="uni0211" unicode="&#x211;" horiz-adv-x="628" d="M587 1174 L436 1567 L630 1567 L719 1174 L587 1174 Z M311 1174 L106 1567 L320 1567 L448 1174 L311 1174 Z M133 0 L228 774 Q230 791 231.5 815 Q233 839 235 871 Q237 898 238.5 925.5 Q240 953 242 980 L243 1026 L441 1026 L422 866 Q480 959 535 1004.5 Q590 1050 654 1050 Q693 1050 735 1038 L715 875 Q666 891 620 891 Q533 891 471 808 Q407 724 389 571 L319 0 L133 0 Z " />
<glyph glyph-name="uni0212" unicode="&#x212;" horiz-adv-x="1105" d="M154 0 L332 1456 L741 1456 Q834 1456 907 1442 Q980 1428 1028 1386.5 Q1076 1345 1095 1269 Q1114 1193 1099 1069 Q1082 932 1013.5 840 Q945 748 824 718 Q850 705 871 683 Q892 661 907.5 627.5 Q923 594 934 547.5 Q945 501 951 440 L1049 0 L843 0 L763 428 Q754 489 742.5 531 Q731 573 712.5 599 Q694 625 666.5 636 Q639 647 597 647 L424 647 L345 0 L154 0 Z M442 808 L642 808 Q752 808 815.5 865.5 Q879 923 896 1058 Q905 1127 898.5 1172.5 Q892 1218 870.5 1245 Q849 1272 812 1283.5 Q775 1295 722 1295 L502 1295 L442 808 Z M753 1870 Q874 1870 928.5 1807.5 Q983 1745 974 1610 L835 1610 Q840 1680 815 1709 Q790 1738 736 1738 Q683 1738 651.5 1708.5 Q620 1679 609 1610 L469 1610 Q492 1741 562 1805.5 Q632 1870 753 1870 Z " />
<glyph glyph-name="uni0213" unicode="&#x213;" horiz-adv-x="629" d="M539 1440 Q660 1440 714 1377.5 Q768 1315 760 1180 L621 1180 Q626 1250 601 1279 Q576 1308 522 1308 Q469 1308 438 1278.5 Q407 1249 395 1180 L255 1180 Q279 1311 348.5 1375.5 Q418 1440 539 1440 Z M133 0 L228 774 Q229 789 231 812.5 Q233 836 234.5 863.5 Q236 891 238 921.5 Q240 952 242 980 L243 1026 L441 1026 L422 866 Q480 959 535 1004.5 Q590 1050 654 1050 Q693 1050 735 1038 Q730 997 725 956.5 Q720 916 715 875 Q666 891 620 891 Q517 891 462.5 808.5 Q408 726 389 571 L319 0 L133 0 Z " />
<glyph glyph-name="uni0214" unicode="&#x214;" horiz-adv-x="1205" d="M869 1604 L719 1997 L914 1997 L1001 1604 L869 1604 Z M593 1604 L390 1997 L604 1997 L731 1604 L593 1604 Z M599 -22 Q462 -22 376 13.5 Q290 49 245 121 Q200 193 191 302.5 Q182 412 200 560 L310 1456 L501 1456 L391 556 Q378 449 389 370.5 Q400 292 430.5 240.5 Q461 189 509 164 Q557 139 619 139 Q748 139 835.5 242.5 Q923 346 948 552 L1059 1456 L1250 1456 L1141 562 Q1124 429 1090 321 Q1056 213 993.5 137 Q931 61 835 19.5 Q739 -22 599 -22 Z " />
</font>
</svg>
