<?xml version="1.0" encoding="UTF-8"?>
<svg xmlns="http://www.w3.org/2000/svg" xmlns:xlink="http://www.w3.org/1999/xlink" version="1.2" >
<font id="Ride Extrabold Italic">
<font-face  font-family="Ride" units-per-em="2048" ascent="2412" descent="-607" font-style="italic" font-weight="800" font-stretch="normal" cap-height="1456" x-height="1026" underline-position="0" underline-thickness="0" />
<missing-glyph  horiz-adv-x="748" d="M25 0 L193 1370 L804 1370 L636 0 L25 0 Z M206 148 L491 148 L623 1223 L338 1223 L206 148 Z " />
<glyph glyph-name="uni000D" unicode="&#xd;" horiz-adv-x="599" d="" />
<glyph glyph-name="space" unicode="&#x20;" horiz-adv-x="688" d="" />
<glyph glyph-name="exclam" unicode="&#x21;" horiz-adv-x="688" d="M267 454 L315 1456 L699 1456 L500 454 L267 454 Z M166 0 L206 329 L531 329 L491 0 L166 0 Z " />
<glyph glyph-name="quotedbl" unicode="&#x22;" horiz-adv-x="772" d="M556 902 L565 1456 L898 1456 L773 902 L556 902 Z M182 902 L192 1456 L526 1456 L402 902 L182 902 Z " />
<glyph glyph-name="numbersign" unicode="&#x23;" horiz-adv-x="1465" d="M709 640 L860 640 L925 837 L772 837 L709 640 Z M198 -10 L340 432 L117 432 L152 640 L405 640 L469 837 L215 837 L254 1045 L536 1045 L669 1462 L973 1462 L840 1045 L989 1045 L1124 1462 L1430 1462 L1298 1045 L1505 1045 L1471 837 L1230 837 L1165 640 L1403 640 L1370 432 L1099 432 L959 -10 L653 -10 L796 432 L644 432 L503 -10 L198 -10 Z " />
<glyph glyph-name="dollar" unicode="&#x24;" horiz-adv-x="1238" d="M545 1079 Q538 1026 556.5 994 Q575 962 628 940 L658 1184 Q638 1178 619 1167 Q600 1156 584 1142.5 Q568 1129 557.5 1112.5 Q547 1096 545 1079 Z M739 273 Q760 281 781 295 Q802 309 820 327.5 Q838 346 850.5 368.5 Q863 391 866 415 Q872 461 846.5 496.5 Q821 532 773 553 L739 273 Z M510 -18 Q455 -13 402.5 -1.5 Q350 10 301 29 L301 28 Q238 49 185.5 85.5 Q133 122 88 171 L266 417 Q313 375 355 342.5 Q397 310 438 294 L438 295 Q467 284 494 277 Q521 270 545 265 L589 620 Q584 622 578 624.5 Q572 627 563.5 630 Q555 633 542.5 638 Q530 643 511 649 Q438 679 378 715 Q318 751 276.5 799.5 Q235 848 216.5 913 Q198 978 209 1067 Q220 1158 266 1234.5 Q312 1311 383 1365 Q445 1409 525 1438 Q605 1467 694 1477 L711 1616 L904 1616 L887 1480 Q1017 1471 1096 1437 Q1145 1417 1196 1377.5 Q1247 1338 1298 1284 L1092 1054 Q1038 1115 979.5 1152.5 Q921 1190 852 1197 L812 870 Q845 858 864 851.5 Q883 845 892.5 841.5 Q902 838 905 837 Q908 836 910 836 Q986 803 1044 766.5 Q1102 730 1139 681 Q1176 632 1190 566 Q1204 500 1193 410 Q1180 304 1129.5 223 Q1079 142 1000 88 Q872 5 704 -16 L680 -206 L487 -206 L510 -18 Z " />
<glyph glyph-name="percent" unicode="&#x25;" horiz-adv-x="1899" d="M1376 -19 Q1286 -19 1217.5 10.5 Q1149 40 1102 96 Q1057 153 1038 225 Q1019 297 1029 380 Q1040 462 1077 534 Q1114 606 1172 664 Q1232 721 1308 751 Q1384 781 1473 781 Q1562 781 1630.5 752 Q1699 723 1746 664 Q1842 548 1821 380 Q1811 296 1773 224 Q1735 152 1677 95 Q1617 39 1541.5 10 Q1466 -19 1376 -19 Z M1404 212 Q1453 212 1482.5 251.5 Q1512 291 1523 380 Q1534 465 1515 507 Q1496 549 1445 549 Q1394 549 1365 508 Q1336 467 1325 381 Q1314 292 1334.5 252 Q1355 212 1404 212 Z M307 0 L1416 1456 L1722 1456 L612 0 L307 0 Z M547 674 Q365 674 272 780 Q177 889 200 1073 Q211 1161 248 1234.5 Q285 1308 343 1362 Q403 1416 478 1444.5 Q553 1473 645 1473 Q736 1473 804.5 1444 Q873 1415 920 1362 Q966 1307 985 1234 Q1004 1161 993 1073 Q971 891 849 780 Q734 674 547 674 Z M576 905 Q626 905 655 944 Q684 983 695 1072 Q706 1158 687.5 1200.5 Q669 1243 617 1243 Q566 1243 537.5 1200.5 Q509 1158 498 1073 Q487 983 507 944 Q527 905 576 905 Z " />
<glyph glyph-name="ampersand" unicode="&#x26;" horiz-adv-x="1587" d="M689 1130 Q685 1098 694.5 1066.5 Q704 1035 732 1003 Q786 1034 817.5 1066.5 Q849 1099 854 1133 Q858 1168 836.5 1188 Q815 1208 782 1208 Q744 1208 719 1187 Q694 1166 689 1130 Z M647 254 Q703 254 758.5 277 Q814 300 871 342 L779 455 Q741 503 705 546.5 Q669 590 626 643 Q555 601 515 554 Q475 507 467 441 Q462 399 474.5 364.5 Q487 330 512 305.5 Q537 281 572 267.5 Q607 254 647 254 Z M1476 811 Q1464 751 1446 693 Q1428 635 1405 578 Q1376 509 1343.5 448 Q1311 387 1270 332 Q1293 306 1319.5 287 Q1346 268 1376 253 L1435 225 L1434 226 L1576 180 L1329 -23 Q1266 -12 1219.5 3.5 Q1173 19 1145 36 Q1126 49 1101.5 71.5 Q1077 94 1049 125 Q947 50 837.5 11.5 Q728 -27 611 -27 Q496 -27 404.5 5 Q313 37 246 97 Q180 161 150.5 248 Q121 335 135 440 Q144 515 180.5 586 Q217 657 270 713 Q352 792 461 857 Q437 890 419.5 920 Q402 950 392 973 Q360 1045 370 1130 Q389 1287 516 1382 Q576 1425 646 1447 Q716 1469 799 1469 Q875 1469 945 1449 Q1015 1429 1066.5 1388 Q1118 1347 1144.5 1284.5 Q1171 1222 1161 1138 Q1150 1042 1088 959 Q1026 876 905 798 L981 703 Q993 687 1003.5 673.5 Q1014 660 1025 646 Q1036 632 1048.5 616 Q1061 600 1078 580 Q1109 641 1132 716 Q1155 791 1172 881 L1476 811 Z " />
<glyph glyph-name="quotesingle" unicode="&#x27;" horiz-adv-x="484" d="M226 857 L256 1456 L604 1456 L491 857 L226 857 Z " />
<glyph glyph-name="parenleft" unicode="&#x28;" horiz-adv-x="689" d="M346 -161 Q289 -56 247.5 51.5 Q206 159 182 258 Q157 362 149.5 466.5 Q142 571 154 669 Q202 1063 541 1512 L882 1512 Q785 1387 715 1273 Q645 1159 599 1056 Q510 857 486 667 Q476 584 482.5 486.5 Q489 389 508 293 Q519 245 536 190 Q553 135 574 76.5 Q595 18 621 -42 Q647 -102 676 -161 L346 -161 Z " />
<glyph glyph-name="parenright" unicode="&#x29;" horiz-adv-x="689" d="M-18 -180 Q77 -54 147.5 60 Q218 174 264 277 Q309 377 337 473.5 Q365 570 376 667 Q387 753 381.5 846 Q376 939 353 1040 Q330 1145 290 1257.5 Q250 1370 188 1494 L518 1494 Q574 1388 615 1281.5 Q656 1175 680 1075 Q705 970 712.5 865.5 Q720 761 708 664 Q659 267 321 -180 L-18 -180 Z " />
<glyph glyph-name="asterisk" unicode="&#x2a;" horiz-adv-x="1054" d="M706 586 L588 799 L417 585 L182 761 L405 970 L168 1067 L318 1318 L502 1216 Q503 1275 503.5 1336.5 Q504 1398 506 1456 L836 1456 L778 1215 Q806 1228 834.5 1242.5 Q863 1257 890 1269 L889 1269 Q913 1281 942 1294.5 Q971 1308 991 1318 L1076 1067 L815 971 L927 833 L984 762 L706 586 Z " />
<glyph glyph-name="plus" unicode="&#x2b;" horiz-adv-x="1268" d="M463 72 L509 443 L152 443 L186 721 L546 721 L592 1093 L908 1093 L862 721 L1221 721 L1187 443 L827 443 L781 72 L463 72 Z " />
<glyph glyph-name="comma" unicode="&#x2c;" horiz-adv-x="545" d="M0 -215 L192 336 L531 336 L265 -215 L0 -215 Z " />
<glyph glyph-name="hyphen" unicode="&#x2d;" horiz-adv-x="741" d="M64 431 L97 693 L791 693 L758 431 L64 431 Z " />
<glyph glyph-name="period" unicode="&#x2e;" horiz-adv-x="539" d="M63 0 L104 339 L476 339 L435 0 L63 0 Z " />
<glyph glyph-name="slash" unicode="&#x2f;" horiz-adv-x="831" d="M-91 -223 L754 1456 L1065 1456 L215 -223 L-91 -223 Z " />
<glyph glyph-name="zero" unicode="0" horiz-adv-x="1272" d="M612 -22 Q354 -22 239 194 Q132 400 173 740 Q194 912 243.5 1046.5 Q293 1181 371 1278 Q534 1482 798 1482 Q927 1482 1020.5 1429 Q1114 1376 1171 1274 Q1223 1174 1241 1038.5 Q1259 903 1239 740 Q1212 521 1136 351 Q1059 182 923 79 Q789 -22 612 -22 Z M652 275 Q832 275 889 739 Q900 832 897.5 913.5 Q895 995 881 1062 Q866 1119 836.5 1152 Q807 1185 765 1185 Q719 1185 680 1152.5 Q641 1120 612 1062 Q578 994 556.5 914.5 Q535 835 523 738 Q510 631 512 543.5 Q514 456 528 390 Q544 338 575 306.5 Q606 275 652 275 Z " />
<glyph glyph-name="one" unicode="1" horiz-adv-x="1272" d="M241 0 L275 283 L516 283 L615 1091 Q556 1068 486 1044.5 Q416 1021 331 995 L369 1310 Q460 1336 548.5 1373 Q637 1410 725 1456 L1006 1456 L862 279 L1107 279 L1073 0 L241 0 Z " />
<glyph glyph-name="two" unicode="2" horiz-adv-x="1272" d="M761 1480 Q972 1480 1086 1352 Q1143 1286 1164.5 1196.5 Q1186 1107 1172 990 Q1166 941 1150 894 Q1131 834 1100.5 776.5 Q1070 719 1028 669 Q1023 663 1014.5 653 Q1006 643 987.5 624 Q969 605 938 574.5 Q907 544 858 496 L633 287 L1075 287 L1040 0 L141 0 L169 233 L633 686 Q665 716 698.5 748.5 Q732 781 760.5 816.5 Q789 852 809.5 892 Q830 932 836 978 Q840 1016 838 1053 Q836 1090 821.5 1119.5 Q807 1149 779 1167 Q751 1185 705 1185 Q657 1185 604.5 1170.5 Q552 1156 500 1134 Q448 1112 400 1087.5 Q352 1063 315 1044 L234 1313 Q278 1336 335.5 1365.5 Q393 1395 466 1429 Q493 1442 531.5 1451.5 Q570 1461 610.5 1467.5 Q651 1474 691 1477 Q731 1480 761 1480 Z " />
<glyph glyph-name="three" unicode="3" horiz-adv-x="1272" d="M599 -22 Q511 -22 437 -7.5 Q363 7 303.5 29 Q244 51 199.5 76 Q155 101 126 122 L274 401 Q275 400 289 390.5 Q303 381 326.5 367 Q350 353 381.5 336.5 Q413 320 448 306.5 Q483 293 521 284 Q559 275 595 275 Q695 275 754 320 Q813 365 823 444 Q828 486 812 517 Q796 548 761.5 568.5 Q727 589 674 599 Q621 609 553 609 L407 607 L443 902 L564 902 Q640 902 694 910.5 Q748 919 783.5 939.5 Q819 960 837.5 993 Q856 1026 862 1074 Q865 1101 852.5 1121.5 Q840 1142 816.5 1156 Q793 1170 762 1177.5 Q731 1185 697 1185 Q623 1185 546 1151.5 Q469 1118 377 1064 L251 1317 Q329 1365 388.5 1396.5 Q448 1428 505 1447 Q562 1466 623.5 1474 Q685 1482 766 1482 Q861 1482 947 1456.5 Q1033 1431 1095 1380.5 Q1157 1330 1189 1254.5 Q1221 1179 1209 1080 Q1204 1036 1189.5 991 Q1175 946 1150 904 Q1125 862 1088 825.5 Q1051 789 1002 762 Q1092 710 1133.5 623.5 Q1175 537 1162 433 Q1149 327 1098 242.5 Q1047 158 970.5 99.5 Q894 41 798 9.5 Q702 -22 599 -22 Z " />
<glyph glyph-name="four" unicode="4" horiz-adv-x="1272" d="M726 636 L768 981 L493 636 L726 636 Z M645 0 L688 358 L110 358 L139 591 L815 1456 L1167 1456 L1067 636 L1282 636 L1247 358 L1037 358 L994 0 L645 0 Z " />
<glyph glyph-name="five" unicode="5" horiz-adv-x="1272" d="M599 -22 Q462 -22 345.5 34 Q229 90 144 192 L316 459 Q350 411 391.5 376 Q433 341 475.5 318.5 Q518 296 559 285.5 Q600 275 632 275 Q679 275 717.5 291.5 Q756 308 784.5 337 Q813 366 831 405.5 Q849 445 855 492 Q859 528 855 563 Q851 598 837 625.5 Q823 653 797.5 670.5 Q772 688 733 688 Q690 688 650 671.5 Q610 655 584 623 L272 665 L369 1456 L1264 1456 L1228 1160 L650 1160 L618 960 Q658 977 709 984.5 Q760 992 817 992 Q919 992 997 950 Q1075 908 1126 838 Q1177 768 1198 677 Q1219 586 1207 488 Q1197 403 1167 332 Q1137 261 1092 204.5 Q1047 148 989.5 105.5 Q932 63 868 34.5 Q804 6 735.5 -8 Q667 -22 599 -22 Z " />
<glyph glyph-name="six" unicode="6" horiz-adv-x="1272" d="M691 275 Q766 275 820 333 Q849 362 866 400.5 Q883 439 890 490 Q902 590 863 650 Q846 679 819.5 692 Q793 705 758 705 Q716 705 678.5 689.5 Q641 674 613 648 Q584 618 565.5 577.5 Q547 537 541 486 Q535 435 545.5 395.5 Q556 356 578 331 Q631 275 691 275 Z M662 -22 Q570 -22 495 2.5 Q420 27 364 74 Q252 168 210 327 Q168 486 194 699 Q214 860 269.5 998 Q325 1136 410 1244 Q454 1299 508 1343 Q562 1387 623.5 1418 Q685 1449 753.5 1465.5 Q822 1482 894 1482 Q1015 1482 1113 1442 Q1211 1402 1286 1324 L1152 1079 Q1114 1111 1075.5 1131.5 Q1037 1152 999.5 1164 Q962 1176 926.5 1180.5 Q891 1185 860 1185 Q806 1185 763 1164 Q720 1143 687.5 1108.5 Q655 1074 634 1030 Q613 986 602 941 Q649 967 700 980.5 Q751 994 808 994 Q923 994 1009 959.5 Q1095 925 1152 854 Q1269 719 1242 493 Q1228 383 1182.5 290.5 Q1137 198 1056 123 Q976 51 878 14.5 Q780 -22 662 -22 Z " />
<glyph glyph-name="seven" unicode="7" horiz-adv-x="1272" d="M233 0 L894 1169 L245 1169 L280 1456 L1337 1456 L1308 1220 L605 0 L233 0 Z " />
<glyph glyph-name="eight" unicode="8" horiz-adv-x="1274" d="M601 1061 Q593 1004 625.5 962.5 Q658 921 721 899 Q793 922 835.5 967 Q878 1012 886 1072 Q889 1095 882 1114.5 Q875 1134 861 1147 Q820 1179 757 1179 Q691 1179 649.5 1149.5 Q608 1120 601 1061 Z M648 280 Q728 280 777.5 317.5 Q827 355 837 433 Q841 464 829.5 495 Q818 526 801 552 Q781 575 752 596.5 Q723 618 697 629 Q661 619 626 600.5 Q591 582 565 556 Q537 530 520 499 Q503 468 498 430 Q489 357 529.5 318.5 Q570 280 648 280 Z M615 -22 Q543 -22 478.5 -9 Q414 4 361 28 Q305 54 261.5 92.5 Q218 131 190 180.5 Q162 230 150.5 289.5 Q139 349 147 416 Q153 468 173 517 Q193 566 224 611 Q255 656 295 695 Q335 734 381 765 Q307 827 275 903.5 Q243 980 255 1076 Q278 1261 432 1375 Q507 1428 596 1455 Q685 1482 793 1482 Q903 1482 990.5 1453 Q1078 1424 1136 1372 Q1196 1315 1221.5 1237.5 Q1247 1160 1235 1065 Q1223 966 1175 891 Q1127 816 1037 759 Q1069 733 1092.5 702.5 Q1116 672 1136 640 Q1198 531 1183 409 Q1175 343 1148.5 283 Q1122 223 1077 172 Q1035 125 982.5 89 Q930 53 871 28.5 Q812 4 747 -9 Q682 -22 615 -22 Z " />
<glyph glyph-name="nine" unicode="9" horiz-adv-x="1237" d="M678 774 Q761 774 820 829 Q881 883 895 998 Q900 1040 891.5 1072.5 Q883 1105 862 1132 Q822 1185 745 1185 Q703 1185 668.5 1172 Q634 1159 604 1130 Q548 1077 536 979 Q531 937 538.5 895 Q546 853 561 826 Q580 805 610.5 789.5 Q641 774 678 774 Z M538 -25 Q452 -25 351 6 Q250 37 133 100 L297 387 Q449 277 555 277 Q606 277 652 295.5 Q698 314 740 355 Q771 382 794.5 427.5 Q818 473 835 532 Q745 484 618 484 Q506 484 420.5 518 Q335 552 277 621 L278 621 Q218 690 196 778.5 Q174 867 187 974 Q214 1191 374 1336 Q535 1482 770 1482 Q898 1482 992.5 1432.5 Q1087 1383 1145 1292 Q1200 1200 1218.5 1068.5 Q1237 937 1217 768 Q1203 653 1175 553 Q1147 453 1104 365 Q1019 191 869 81 Q725 -25 538 -25 Z " />
<glyph glyph-name="colon" unicode="&#x3a;" horiz-adv-x="536" d="M181 696 L221 1026 L546 1026 L506 696 L181 696 Z M96 0 L136 329 L461 329 L421 0 L96 0 Z " />
<glyph glyph-name="semicolon" unicode="&#x3b;" horiz-adv-x="539" d="M202 696 L242 1026 L568 1026 L528 696 L202 696 Z M-38 -241 L149 310 L491 310 L225 -241 L-38 -241 Z " />
<glyph glyph-name="less" unicode="&#x3c;" horiz-adv-x="1416" d="M1197 6 L171 497 L190 655 L1343 1164 L1305 854 L647 579 L875 475 Q966 433 1058.5 391.5 Q1151 350 1235 312 L1197 6 Z " />
<glyph glyph-name="equal" unicode="&#x3d;" horiz-adv-x="1307" d="M209 678 L242 951 L1274 951 L1241 678 L209 678 Z M149 196 L182 469 L1217 469 L1184 196 L149 196 Z " />
<glyph glyph-name="greater" unicode="&#x3e;" horiz-adv-x="1418" d="M174 11 L212 324 L866 583 L283 861 L321 1172 L1347 655 L1326 487 L174 11 Z " />
<glyph glyph-name="question" unicode="&#x3f;" horiz-adv-x="1018" d="M296 387 L317 558 Q324 612 347.5 658.5 Q371 705 404.5 746.5 Q438 788 478 825 Q518 862 558 896 Q584 919 610.5 943.5 Q637 968 658.5 993 Q680 1018 695 1043.5 Q710 1069 713 1094 Q719 1147 684 1171 Q649 1195 584 1195 Q499 1195 413.5 1168.5 Q328 1142 238 1106 L274 1398 Q448 1484 641 1484 Q702 1484 755.5 1474 Q809 1464 857 1444 Q961 1402 1014 1315 Q1040 1269 1051.5 1215 Q1063 1161 1056 1101 Q1050 1051 1030.5 1008 Q1011 965 983.5 927 Q956 889 921 855.5 Q886 822 849 792 L801 755 Q766 728 731.5 698.5 Q697 669 668.5 636 Q640 603 620.5 567 Q601 531 596 491 L583 387 L296 387 Z M226 0 L266 329 L591 329 L551 0 L226 0 Z " />
<glyph glyph-name="at" unicode="&#x40;" horiz-adv-x="1786" d="M861 494 Q901 493 937 520.5 Q973 548 1001.5 593 Q1030 638 1049.5 695 Q1069 752 1075 812 Q1081 859 1064.5 883 Q1048 907 1012 907 Q986 907 964.5 896.5 Q943 886 918 863 Q866 815 835.5 744.5 Q805 674 796 599 Q790 551 806.5 522.5 Q823 494 861 494 Z M1565 795 Q1580 917 1546 1006 Q1512 1095 1446 1153.5 Q1380 1212 1291 1240.5 Q1202 1269 1107 1269 Q975 1269 858.5 1228 Q742 1187 652 1109.5 Q562 1032 503 920.5 Q444 809 427 668 Q411 542 443.5 441 Q476 340 547 268 Q618 196 722 156 Q826 116 954 113 Q998 113 1053.5 118.5 Q1109 124 1168 135.5 Q1227 147 1285.5 163.5 Q1344 180 1395 203 L1466 30 Q1415 1 1346.5 -22.5 Q1278 -46 1202.5 -62.5 Q1127 -79 1051 -87.5 Q975 -96 909 -96 Q731 -96 585 -43 Q439 10 339 109 Q237 208 190.5 351.5 Q144 495 166 668 Q177 760 205 846 Q233 932 275.5 1008 Q318 1084 373 1149.5 Q428 1215 494 1266 Q623 1369 784.5 1425.5 Q946 1482 1123 1482 Q1281 1482 1411.5 1431.5 Q1542 1381 1630 1290 Q1720 1199 1762 1070 Q1804 941 1785 790 Q1770 666 1706 539 Q1674 476 1634 424 Q1594 372 1544 330 Q1493 285 1433 263.5 Q1373 242 1316 242 Q1287 242 1257.5 246 Q1228 250 1201 258.5 Q1174 267 1151.5 280 Q1129 293 1114 310 Q1103 323 1093 338 Q1083 353 1077 368 Q1028 311 959.5 278 Q891 245 798 244 Q727 243 671 276.5 Q615 310 578.5 365 Q542 420 526 490 Q510 560 519 633 Q525 684 540.5 736.5 Q556 789 581 839 Q606 889 641 935 Q676 981 721 1019 Q798 1082 867 1116.5 Q936 1151 1013 1151 Q1070 1151 1110 1137.5 Q1150 1124 1177 1098 L1188 1134 L1444 1134 L1305 641 Q1292 595 1282.5 557.5 Q1273 520 1269 491 L1267 478 Q1266 472 1270 463 Q1274 454 1281.5 446 Q1289 438 1299.5 432 Q1310 426 1321 426 Q1357 426 1388 444 Q1419 462 1444.5 491.5 Q1470 521 1490 559.5 Q1510 598 1525.5 639 Q1541 680 1550.5 720.5 Q1560 761 1565 795 Z " />
<glyph glyph-name="A" unicode="A" horiz-adv-x="1521" d="M953 541 Q950 553 943.5 580 Q937 607 925.5 656.5 Q914 706 897 781.5 Q880 857 856 965 Q805 858 754.5 753.5 Q704 649 651 540 L953 541 Z M-1 0 L761 1456 L1080 1456 L1491 0 L1108 0 L1044 226 Q902 226 767.5 225.5 Q633 225 491 225 L374 0 L-1 0 Z " />
<glyph glyph-name="B" unicode="B" horiz-adv-x="1367" d="M601 891 L750 891 Q784 891 818.5 897 Q853 903 881.5 919 Q910 935 930 961.5 Q950 988 955 1030 Q961 1079 942.5 1105 Q924 1131 891.5 1143 Q859 1155 817 1156.5 Q775 1158 734 1159 L634 1159 L601 891 Z M531 296 L692 296 Q924 296 942 442 Q949 501 936.5 533.5 Q924 566 894.5 582 Q865 598 821.5 601 Q778 604 724 605 L569 605 L531 296 Z M147 0 L325 1456 L755 1456 Q785 1456 813.5 1455.5 Q842 1455 865 1453 Q888 1452 920 1449.5 Q952 1447 976 1443 Q1009 1438 1036.5 1432 Q1064 1426 1087 1418 L1086 1418 Q1110 1410 1136 1398.5 Q1162 1387 1186 1371.5 Q1210 1356 1231.5 1338 Q1253 1320 1268 1300 Q1299 1257 1314 1196 Q1329 1135 1320 1061 Q1309 973 1267 902 Q1225 831 1156 779 Q1194 759 1219 733 Q1244 707 1264 672 Q1292 621 1303 560 Q1314 499 1306 432 Q1295 344 1249 267.5 Q1203 191 1129 128 Q1056 68 945 34 Q834 0 699 0 L147 0 Z " />
<glyph glyph-name="C" unicode="C" horiz-adv-x="1436" d="M801 -24 Q730 -24 662 -11 Q594 2 531.5 26.5 Q469 51 414.5 86.5 Q360 122 315 167 Q267 215 232.5 275 Q198 335 178 404 Q156 478 151 557 Q146 636 157 724 Q166 795 185.5 862.5 Q205 930 232 992 Q259 1054 293.5 1108.5 Q328 1163 367 1207 Q427 1268 499 1318.5 Q571 1369 649.5 1405 Q728 1441 809 1460.5 Q890 1480 967 1479 Q1255 1479 1464 1296 L1294 1046 Q1116 1180 949 1180 Q874 1180 803 1149.5 Q732 1119 673 1064 Q613 1008 570.5 921 Q528 834 515 727 Q489 515 587 396 Q684 275 854 275 Q1036 275 1273 447 L1359 164 Q1226 70 1088 23 Q950 -24 801 -24 Z " />
<glyph glyph-name="D" unicode="D" horiz-adv-x="1571" d="M150 0 L328 1456 L763 1456 Q981 1456 1138 1409 Q1295 1362 1392 1270.5 Q1489 1179 1526 1045 Q1563 911 1542 737 Q1520 557 1449.5 419 Q1379 281 1263 188 Q1147 95 986 47.5 Q825 0 622 0 L150 0 Z M532 297 L670 297 Q891 297 1023 408.5 Q1155 520 1181 738 Q1206 943 1099.5 1051 Q993 1159 748 1159 L638 1159 L532 297 Z " />
<glyph glyph-name="E" unicode="E" horiz-adv-x="1249" d="M144 0 L322 1456 L1292 1456 L1256 1159 L633 1159 L600 888 L1189 888 L1152 590 L566 590 L530 297 L1176 297 L1140 0 L144 0 Z " />
<glyph glyph-name="F" unicode="F" horiz-adv-x="1184" d="M144 0 L322 1456 L1262 1456 L1226 1159 L632 1159 L598 880 L1158 880 L1121 582 L561 582 L490 0 L144 0 Z " />
<glyph glyph-name="G" unicode="G" horiz-adv-x="1538" d="M817 -22 Q455 -22 284 176 Q198 276 166 408 Q134 540 154 705 Q169 827 215 942.5 Q261 1058 336 1156 Q392 1225 465.5 1285 Q539 1345 626.5 1388.5 Q714 1432 815 1457 Q916 1482 1026 1482 Q1126 1482 1210.5 1466.5 Q1295 1451 1351 1424 Q1380 1410 1401.5 1399 Q1423 1388 1434 1381 Q1453 1369 1476 1351 Q1499 1333 1525 1312 L1350 1060 Q1194 1183 991 1183 Q886 1183 798.5 1144 Q711 1105 654 1040 Q594 974 558 891 Q522 808 511 716 Q499 619 514.5 538 Q530 457 573.5 398.5 Q617 340 689.5 307.5 Q762 275 864 275 Q907 275 951 280 Q995 285 1046 298 L1079 569 L761 569 L798 864 L1466 864 L1372 100 Q1083 -22 817 -22 Z " />
<glyph glyph-name="H" unicode="H" horiz-adv-x="1488" d="M149 0 L327 1456 L673 1456 L604 895 L1134 895 L1203 1456 L1550 1456 L1372 0 L1030 0 L1103 597 L573 597 L500 0 L149 0 Z " />
<glyph glyph-name="I" unicode="I" horiz-adv-x="586" d="M104 0 L282 1456 L629 1456 L451 0 L104 0 Z " />
<glyph glyph-name="J" unicode="J" horiz-adv-x="1270" d="M468 480 Q467 439 479 402 Q491 365 512 336.5 Q533 308 560.5 291.5 Q588 275 619 275 Q669 275 709 299.5 Q749 324 778 367.5 Q807 411 826 470 Q845 529 854 598 L959 1456 L1305 1456 L1201 607 Q1184 470 1145.5 355 Q1107 240 1035.5 156 Q964 72 854 25 Q744 -22 584 -22 Q488 -22 406.5 10 Q325 42 265 99.5 Q205 157 169.5 237 Q134 317 130 413 L468 480 Z " />
<glyph glyph-name="K" unicode="K" horiz-adv-x="1435" d="M149 0 L327 1456 L673 1456 L611 952 L1118 1456 L1550 1456 L833 752 Q918 643 1004.5 531 Q1091 419 1178 308 L1418 0 L974 0 L561 519 L498 0 L149 0 Z " />
<glyph glyph-name="L" unicode="L" horiz-adv-x="1201" d="M144 0 L322 1456 L669 1456 L527 297 L1158 297 L1122 0 L144 0 Z " />
<glyph glyph-name="M" unicode="M" horiz-adv-x="1958" d="M155 0 L333 1456 L705 1456 L1023 480 Q1027 488 1033 497.5 Q1039 507 1049 525 Q1059 543 1076 572.5 Q1093 602 1120 650 Q1147 698 1186 767 Q1225 836 1280 933.5 Q1335 1031 1408 1160 Q1481 1289 1575 1456 L1946 1456 L1768 0 L1436 0 L1530 769 L1090 0 L840 0 L587 769 L493 0 L155 0 Z " />
<glyph glyph-name="N" unicode="N" horiz-adv-x="1613" d="M150 0 L328 1456 L665 1456 L1163 576 L1271 1456 L1606 1456 L1428 0 L1089 0 L586 884 L478 0 L150 0 Z " />
<glyph glyph-name="O" unicode="O" horiz-adv-x="1584" d="M794 -22 Q626 -22 494 32.5 Q362 87 276 186 Q191 289 157.5 427.5 Q124 566 145 735 Q186 1065 411 1274 Q636 1482 980 1482 Q1143 1482 1272 1426.5 Q1401 1371 1487 1274 Q1571 1170 1605.5 1033 Q1640 896 1620 735 Q1578 392 1357 186 Q1245 82 1106 30 Q967 -22 794 -22 Z M824 275 Q915 275 988.5 305.5 Q1062 336 1116.5 394.5 Q1171 453 1205.5 538.5 Q1240 624 1254 735 Q1281 956 1198 1072 Q1117 1185 940 1185 Q761 1185 649 1071 Q538 957 511 735 Q484 514 562 394.5 Q640 275 824 275 Z " />
<glyph glyph-name="P" unicode="P" horiz-adv-x="1318" d="M598 864 L748 864 Q785 864 826 868.5 Q867 873 902.5 888 Q938 903 963.5 932 Q989 961 995 1011 Q1001 1058 983.5 1086.5 Q966 1115 931 1130.5 Q896 1146 846.5 1151 Q797 1156 739 1156 L633 1156 L598 864 Z M145 0 L323 1456 L767 1456 Q922 1456 1039 1436 Q1156 1416 1231 1366 Q1306 1316 1337.5 1230 Q1369 1144 1353 1011 Q1339 895 1291.5 811 Q1244 727 1164 673 Q1084 619 971.5 593.5 Q859 568 715 568 L561 568 L492 0 L145 0 Z " />
<glyph glyph-name="Q" unicode="Q" horiz-adv-x="1671" d="M840 275 Q931 275 1004 305.5 Q1077 336 1131.5 394.5 Q1186 453 1220.5 538.5 Q1255 624 1269 735 Q1296 957 1214 1072 Q1131 1185 956 1185 Q778 1185 664 1071 Q554 956 527 735 Q500 514 578 394.5 Q656 275 840 275 Z M1073 -350 Q1050 -321 1022 -281 Q994 -241 963 -194 Q933 -147 910 -106 Q887 -65 864 -22 Q852 -23 838 -22.5 Q824 -22 810 -22 Q642 -22 510 32.5 Q378 87 292 186 Q207 289 173.5 427.5 Q140 566 161 735 Q202 1065 427 1274 Q652 1482 996 1482 Q1159 1482 1288 1426.5 Q1417 1371 1503 1274 Q1587 1170 1621.5 1033 Q1656 896 1636 735 Q1620 608 1579 499.5 Q1538 391 1472 297 Q1415 219 1342.5 158.5 Q1270 98 1182 56 Q1251 -69 1377 -231 L1151 -446 L1073 -350 Z " />
<glyph glyph-name="R" unicode="R" horiz-adv-x="1388" d="M595 851 L768 851 Q869 851 924 893.5 Q979 936 989 1012 Q995 1063 989 1091.5 Q983 1120 963.5 1134 Q944 1148 911 1152.5 Q878 1157 831 1159 L633 1159 L595 851 Z M148 0 L326 1456 L872 1456 Q987 1458 1082 1438 Q1177 1418 1241.5 1368 Q1306 1318 1335.5 1234 Q1365 1150 1349 1023 Q1341 959 1313.5 895.5 Q1286 832 1239 780 Q1210 749 1170.5 721 Q1131 693 1084 674 Q1119 638 1145.5 592 Q1172 546 1187 495 Q1204 433 1222.5 373.5 Q1241 314 1259 254 Q1278 194 1298 127.5 Q1318 61 1336 0 L965 0 L848 416 Q836 457 822.5 487.5 Q809 518 794 530 Q764 557 696 557 L562 557 L494 0 L148 0 Z " />
<glyph glyph-name="S" unicode="S" horiz-adv-x="1256" d="M600 -22 Q527 -22 455.5 -11.5 Q384 -1 317.5 22.5 Q251 46 191.5 83.5 Q132 121 84 174 L267 426 Q315 382 363.5 352.5 Q412 323 455 307 L455 308 Q551 275 620 275 Q720 275 771.5 310 Q823 345 832 417 Q836 456 827 478.5 Q818 501 789.5 519.5 Q761 538 709.5 558 Q658 578 578 611 L506 635 Q421 669 359 711 Q297 753 261 798 Q223 849 209 916.5 Q195 984 205 1065 Q222 1198 306 1297 Q389 1392 510 1437 Q631 1482 780 1482 Q865 1482 935.5 1473.5 Q1006 1465 1067.5 1442.5 Q1129 1420 1185.5 1381 Q1242 1342 1299 1280 L1086 1045 Q958 1183 778 1183 Q730 1183 689.5 1174.5 Q649 1166 617 1151 L618 1151 Q598 1140 584.5 1120.5 Q571 1101 567 1075 Q564 1048 569 1026.5 Q574 1005 598 984.5 Q622 964 670.5 941 Q719 918 802 887 Q839 875 867.5 865 Q896 855 914 849 Q1002 812 1060 770 Q1118 728 1150 680 Q1181 629 1192 562.5 Q1203 496 1192 412 Q1178 298 1120.5 211 Q1063 124 975 73 Q895 25 801.5 1.5 Q708 -22 600 -22 Z " />
<glyph glyph-name="T" unicode="T" horiz-adv-x="1211" d="M415 0 L557 1159 L137 1159 L173 1456 L1366 1456 L1330 1159 L903 1159 L761 0 L415 0 Z " />
<glyph glyph-name="U" unicode="U" horiz-adv-x="1493" d="M728 -22 Q585 -22 481.5 13.5 Q378 49 317 104 Q285 135 262 171.5 Q239 208 223 249 Q209 291 201 333 Q193 375 190 418.5 Q187 462 189.5 508.5 Q192 555 198 607 L302 1456 L647 1456 L542 597 Q530 502 542.5 440 Q555 378 585.5 341.5 Q616 305 662 290 Q708 275 763 275 Q823 275 870 290 Q917 305 959 340 Q1000 372 1026 437 Q1052 502 1064 598 L1169 1456 L1515 1456 L1411 607 Q1399 507 1372.5 420.5 Q1346 334 1298 251 Q1272 210 1240.5 172.5 Q1209 135 1171 106 Q1097 49 984.5 13.5 Q872 -22 728 -22 Z " />
<glyph glyph-name="V" unicode="V" horiz-adv-x="1417" d="M538 0 L162 1456 L544 1456 L589 1256 Q606 1187 622 1115 Q638 1043 655 973 Q660 956 663 938 Q666 920 670 903 Q674 885 677.5 867.5 Q681 850 686 835 Q700 772 709.5 729.5 Q719 687 727 652.5 Q735 618 743 586 Q751 554 762 513 L1216 1456 L1583 1456 L852 0 L538 0 Z " />
<glyph glyph-name="W" unicode="W" horiz-adv-x="2110" d="M411 0 L173 1456 L539 1456 L669 550 L1062 1456 L1372 1456 L1551 542 L1893 1456 L2251 1456 L1668 0 L1311 0 L1144 898 L764 0 L411 0 Z " />
<glyph glyph-name="X" unicode="X" horiz-adv-x="1486" d="M-15 0 L611 737 L200 1456 L625 1456 L861 1029 L1217 1456 L1621 1456 L1024 746 L1451 0 L1027 0 L775 453 L398 0 L-15 0 Z " />
<glyph glyph-name="Y" unicode="Y" horiz-adv-x="1397" d="M508 0 L577 562 Q475 783 371 1009 Q267 1235 166 1456 L559 1456 L794 895 Q827 946 861 995.5 Q895 1045 927 1096 Q987 1186 1046.5 1276.5 Q1106 1367 1165 1456 L1563 1456 L924 564 L855 0 L508 0 Z " />
<glyph glyph-name="Z" unicode="Z" horiz-adv-x="1249" d="M51 0 L73 186 L802 1159 L218 1159 L254 1456 L1311 1456 L1289 1274 L557 297 L1168 297 L1132 0 L51 0 Z " />
<glyph glyph-name="bracketleft" unicode="&#x5b;" horiz-adv-x="620" d="M73 -149 L276 1499 L772 1499 L739 1237 L580 1237 L442 114 L602 114 L570 -149 L73 -149 Z " />
<glyph glyph-name="backslash" unicode="&#x5c;" horiz-adv-x="884" d="M570 -106 L61 1456 L427 1456 L929 -106 L570 -106 Z " />
<glyph glyph-name="bracketright" unicode="&#x5d;" horiz-adv-x="620" d="M26 -149 L58 114 L212 114 L350 1237 L196 1237 L229 1499 L721 1499 L518 -149 L26 -149 Z " />
<glyph glyph-name="asciicircum" unicode="&#x5e;" horiz-adv-x="1559" d="M178 502 L826 1456 L1038 1456 L1457 502 L1112 502 L879 1045 Q792 908 704 773 Q616 638 528 502 L178 502 Z " />
<glyph glyph-name="underscore" unicode="&#x5f;" horiz-adv-x="1012" d="M-88 -328 L-55 -61 L1022 -61 L989 -328 L-88 -328 Z " />
<glyph glyph-name="grave" unicode="&#x60;" horiz-adv-x="610" d="M405 1163 L87 1455 L455 1455 L685 1163 L405 1163 Z " />
<glyph glyph-name="a" unicode="a" horiz-adv-x="1291" d="M649 255 Q707 255 748.5 275 Q790 295 818 330 Q846 365 862 412 Q878 459 884 513 Q900 638 856.5 705.5 Q813 773 707 773 Q650 773 607 753 Q564 733 534 698 Q504 663 486 616 Q468 569 462 515 Q456 463 461.5 416 Q467 369 488.5 333 Q510 297 549 276 Q588 255 649 255 Z M586 -22 Q457 -22 362 23.5 Q267 69 216 145 Q165 223 145 313.5 Q125 404 137 503 Q150 608 193.5 702.5 Q237 797 307 876 Q380 956 487.5 1003 Q595 1050 728 1050 Q793 1050 843.5 1031.5 Q894 1013 935 983 L940 1026 L1260 1026 L1135 0 L809 0 L816 60 Q764 24 707.5 1 Q651 -22 586 -22 Z " />
<glyph glyph-name="b" unicode="b" horiz-adv-x="1248" d="M663 255 Q715 255 754.5 275.5 Q794 296 822 331.5 Q850 367 867 413.5 Q884 460 890 511 Q896 560 892 607 Q888 654 870.5 691 Q853 728 819.5 750.5 Q786 773 733 773 Q679 773 636.5 752 Q594 731 563 695 Q532 659 513 612.5 Q494 566 488 515 Q482 467 488 420.5 Q494 374 514 337 Q534 300 570.5 277.5 Q607 255 663 255 Z M671 -22 Q604 -22 545.5 1.5 Q487 25 446 67 L438 0 L107 0 L141 222 Q147 257 148.5 269.5 Q150 282 151 291 L294 1456 L617 1456 L557 968 Q579 982 608 996.5 Q637 1011 670 1023 Q703 1035 739.5 1042.5 Q776 1050 814 1050 Q1037 1050 1147 898 Q1255 747 1226 518 Q1212 402 1161 301 Q1110 200 1035 129 Q960 58 865.5 18 Q771 -22 671 -22 Z " />
<glyph glyph-name="c" unicode="c" horiz-adv-x="1071" d="M612 -22 Q484 -22 385.5 22 Q287 66 229 142 Q172 218 147.5 313 Q123 408 137 514 Q146 588 169 655.5 Q192 723 230 783 Q268 842 323 892 Q378 942 445 978 Q510 1013 584 1031.5 Q658 1050 740 1050 Q987 1050 1119 887 L982 666 Q922 726 856 755 Q790 784 732 784 Q623 784 554 713 Q486 643 469 513 Q461 450 472 400.5 Q483 351 509 315 Q537 285 580 265 Q623 245 674 245 Q694 245 727.5 251.5 Q761 258 800.5 272.5 Q840 287 881.5 310.5 Q923 334 961 367 L1018 112 Q964 77 913.5 52 Q863 27 813.5 10.5 Q764 -6 714.5 -14 Q665 -22 612 -22 Z " />
<glyph glyph-name="d" unicode="d" horiz-adv-x="1267" d="M633 255 Q684 255 722.5 276 Q761 297 787.5 332 Q814 367 830 414 Q846 461 852 512 Q858 556 855 602.5 Q852 649 834.5 687 Q817 725 783.5 749 Q750 773 694 773 Q642 773 604 752.5 Q566 732 539.5 697 Q513 662 497 615 Q481 568 475 516 Q468 463 472.5 415.5 Q477 368 495.5 332.5 Q514 297 547.5 276 Q581 255 633 255 Z M552 -22 Q346 -22 227 126 Q108 275 137 508 Q150 615 193 710 Q236 805 303 882 Q374 960 476 1005 Q578 1050 700 1050 Q755 1050 803.5 1031.5 Q852 1013 903 982 L962 1458 L1286 1458 L1142 293 Q1142 292 1140 269 Q1138 246 1134.5 207 Q1131 168 1126 115 Q1121 62 1116 0 L784 0 L790 51 Q768 38 741 25 Q714 12 683 1.5 Q652 -9 619 -15.5 Q586 -22 552 -22 Z " />
<glyph glyph-name="e" unicode="e" horiz-adv-x="1168" d="M866 651 Q858 730 820 767.5 Q782 805 718 805 Q639 805 580.5 762.5 Q522 720 496 651 L866 651 Z M634 -22 Q373 -22 239 127 Q106 280 134 512 Q148 618 195 713.5 Q242 809 317 886 Q394 963 501.5 1006.5 Q609 1050 735 1050 Q862 1050 952.5 1006.5 Q1043 963 1088 885 Q1132 809 1147 716.5 Q1162 624 1149 515 Q1147 498 1144 478.5 Q1141 459 1138 442 L463 442 Q466 396 483 358 Q500 320 529.5 292.5 Q559 265 598.5 250 Q638 235 686 235 Q755 235 845 263 Q935 291 1037 357 L1095 121 Q977 45 865 11.5 Q753 -22 634 -22 Z " />
<glyph glyph-name="f" unicode="f" horiz-adv-x="820" d="M208 0 L305 791 L129 791 L157 1026 L333 1026 Q338 1058 342 1089 Q346 1120 351 1141 Q355 1164 361 1188.5 Q367 1213 375.5 1236.5 Q384 1260 394.5 1281 Q405 1302 417 1318 Q453 1367 502 1394.5 Q551 1422 606.5 1436 Q662 1450 720 1453.5 Q778 1457 833 1458 L932 1458 L888 1198 Q875 1198 856 1198 Q837 1198 818.5 1198 Q800 1198 784 1197.5 Q768 1197 760 1197 Q739 1195 719.5 1189 Q700 1183 692 1175 Q684 1168 678 1150 Q672 1132 668.5 1109.5 Q665 1087 662 1064.5 Q659 1042 657 1026 L869 1026 L841 791 L629 791 L532 0 L208 0 Z " />
<glyph glyph-name="g" unicode="g" horiz-adv-x="1235" d="M633 265 Q688 265 726.5 287 Q765 309 790 344 Q815 379 828.5 424 Q842 469 848 516 Q854 564 850.5 610.5 Q847 657 830.5 693 Q814 729 782 751 Q750 773 698 773 Q645 773 606 752 Q567 731 540 695.5 Q513 660 497 613.5 Q481 567 475 515 Q460 393 497.5 329 Q535 265 633 265 Z M509 -384 Q411 -384 310.5 -365 Q210 -346 106 -305 L200 -15 Q375 -113 526 -113 Q577 -113 620.5 -102.5 Q664 -92 697 -70.5 Q730 -49 751 -17 Q772 15 778 57 Q737 34 688.5 17 Q640 0 585 0 Q352 0 232 141 Q109 282 138 515 Q151 621 191.5 713.5 Q232 806 299 883 Q368 961 469 1005.5 Q570 1050 695 1050 Q755 1050 805.5 1030 Q856 1010 894 984 L899 1026 L1244 1026 Q1221 935 1204 845.5 Q1187 756 1176 668 L1115 176 Q1046 -384 509 -384 Z " />
<glyph glyph-name="h" unicode="h" horiz-adv-x="1184" d="M108 0 L287 1458 L613 1458 L552 967 Q578 989 608.5 1004.5 Q639 1020 671.5 1030 Q704 1040 735.5 1045 Q767 1050 796 1050 Q912 1050 983.5 1012 Q1055 974 1093 913 Q1116 874 1129.5 828.5 Q1143 783 1148 738 Q1152 693 1150.5 650.5 Q1149 608 1144 566 L1075 0 L750 0 L820 574 Q833 685 810 734 Q787 783 728 783 Q710 783 685.5 778 Q661 773 632 757 Q603 741 572 711 Q541 681 511 632 L434 0 L108 0 Z " />
<glyph glyph-name="i" unicode="i" horiz-adv-x="544" d="M252 1165 L286 1448 L603 1448 L569 1165 L252 1165 Z M110 0 L235 1026 L551 1026 L426 0 L110 0 Z " />
<glyph glyph-name="j" unicode="j" horiz-adv-x="600" d="M307 1157 L342 1449 L666 1449 L631 1157 L307 1157 Z M52 -383 Q-2 -383 -60 -371 Q-118 -359 -165 -342 L-96 -105 Q-45 -122 -4 -129.5 Q37 -137 70 -137 Q96 -137 112 -125.5 Q128 -114 138 -94.5 Q148 -75 152.5 -48.5 Q157 -22 161 9 L285 1026 L614 1026 L486 -18 Q474 -116 445 -185.5 Q416 -255 364 -299 Q312 -343 235.5 -363 Q159 -383 52 -383 Z " />
<glyph glyph-name="k" unicode="k" horiz-adv-x="1153" d="M107 0 L286 1458 L611 1458 L520 722 Q598 799 674.5 874.5 Q751 950 826 1026 L1268 1026 L717 529 L1173 0 L744 0 L472 331 L432 0 L107 0 Z " />
<glyph glyph-name="l" unicode="l" horiz-adv-x="526" d="M103 0 L281 1456 L603 1456 L425 0 L103 0 Z " />
<glyph glyph-name="m" unicode="m" horiz-adv-x="1827" d="M135 0 L218 681 Q230 776 233 879 L239 1026 L580 1026 L574 972 Q610 995 641 1010 Q672 1025 699.5 1034 Q727 1043 752 1046.5 Q777 1050 801 1050 Q889 1050 961.5 1016 Q1034 982 1077 915 Q1147 981 1227.5 1015.5 Q1308 1050 1397 1050 Q1496 1050 1568 1020.5 Q1640 991 1683 932 Q1765 813 1743 620 L1667 0 L1341 0 L1415 606 Q1417 626 1417.5 656 Q1418 686 1412 714.5 Q1406 743 1391 763 Q1376 783 1347 783 Q1307 783 1271 765 Q1235 747 1206.5 718 Q1178 689 1159 652 Q1140 615 1134 576 L1064 0 L739 0 L814 618 Q817 639 817 667.5 Q817 696 809.5 721.5 Q802 747 785 765 Q768 783 737 783 Q702 783 668 770.5 Q634 758 606.5 736 Q579 714 560.5 682.5 Q542 651 536 614 L461 0 L135 0 Z " />
<glyph glyph-name="n" unicode="n" horiz-adv-x="1224" d="M121 0 L197 625 Q204 676 208 722 Q212 768 215 813 Q220 858 221 889 Q222 920 222 940 L224 1026 L566 1026 L559 963 Q584 985 615.5 1001 Q647 1017 680 1028 Q713 1039 746.5 1044.5 Q780 1050 809 1050 Q904 1050 970.5 1025.5 Q1037 1001 1084 945 L1083 945 Q1181 835 1150 579 L1079 0 L754 0 L827 595 Q831 628 832 661.5 Q833 695 824.5 722 Q816 749 794 766 Q772 783 730 783 Q704 783 670 771 Q636 759 604.5 736.5 Q573 714 549 681 Q525 648 520 606 L446 0 L121 0 Z " />
<glyph glyph-name="o" unicode="o" horiz-adv-x="1248" d="M619 -22 Q482 -22 382 21.5 Q282 65 226 141 Q169 218 147 312 Q125 406 138 513 Q152 621 197.5 716 Q243 811 319 887 Q395 964 505 1007 Q615 1050 749 1050 Q885 1050 985 1006.5 Q1085 963 1139 888 Q1191 814 1212.5 717.5 Q1234 621 1220 511 Q1207 406 1162.5 312.5 Q1118 219 1044 142 Q971 67 861 22.5 Q751 -22 619 -22 Z M647 245 Q703 245 744.5 267.5 Q786 290 815.5 327.5 Q845 365 862 414 Q879 463 886 516 Q894 578 886.5 626.5 Q879 675 855 713 Q835 748 799 765.5 Q763 783 714 783 Q661 783 619 761.5 Q577 740 546.5 704 Q516 668 498 619.5 Q480 571 474 516 Q463 433 478 376 Q491 319 534 282 Q577 245 647 245 Z " />
<glyph glyph-name="p" unicode="p" horiz-adv-x="1248" d="M655 255 Q707 255 745.5 275.5 Q784 296 811 331.5 Q838 367 854 414 Q870 461 877 514 Q882 557 879 603 Q876 649 858.5 687 Q841 725 807 749 Q773 773 717 773 Q664 773 625 751.5 Q586 730 559.5 694.5 Q533 659 517.5 613 Q502 567 496 519 Q490 465 494.5 417 Q499 369 517.5 333 Q536 297 569.5 276 Q603 255 655 255 Z M79 -364 L205 667 Q208 688 211 724.5 Q214 761 217 808.5 Q220 856 223 911.5 Q226 967 229 1026 L571 1026 L564 968 Q629 1014 689.5 1032 Q750 1050 817 1050 Q888 1050 947 1030.5 Q1006 1011 1055 974 Q1104 936 1137.5 887 Q1171 838 1190.5 780 Q1210 722 1215.5 657.5 Q1221 593 1213 524 Q1200 421 1157.5 325.5 Q1115 230 1048 152 Q1014 113 972.5 80.5 Q931 48 883 25.5 Q835 3 782.5 -9.5 Q730 -22 674 -22 Q611 -22 558 -6 Q505 10 465 36 L451 48 L401 -364 L79 -364 Z " />
<glyph glyph-name="q" unicode="q" horiz-adv-x="1250" d="M628 255 Q680 255 718.5 276 Q757 297 784 332 Q811 367 827 413.5 Q843 460 849 511 Q855 561 851.5 608 Q848 655 830 692 Q812 729 777.5 751 Q743 773 689 773 Q637 773 599 752.5 Q561 732 534.5 697 Q508 662 492 615 Q476 568 470 516 Q463 463 467.5 415.5 Q472 368 490.5 332.5 Q509 297 542.5 276 Q576 255 628 255 Z M730 -364 L778 32 Q726 7 670.5 -7.5 Q615 -22 561 -22 Q435 -22 348.5 25 Q262 72 210.5 149 Q159 226 141 324.5 Q123 423 136 527 Q149 629 192.5 722 Q236 815 306 888 Q377 963 476.5 1006.5 Q576 1050 694 1050 Q721 1050 749.5 1044.5 Q778 1039 805 1029 Q832 1019 855.5 1005 Q879 991 896 975 L902 1026 L1235 1026 Q1229 995 1222 956 Q1215 917 1208 875 Q1201 833 1194.5 791 Q1188 749 1184 712 L1052 -364 L730 -364 Z " />
<glyph glyph-name="r" unicode="r" horiz-adv-x="814" d="M119 0 L210 746 Q214 773 215.5 801 Q217 829 219 858 L221 1026 L565 1026 L559 971 Q575 988 598 1002.5 Q621 1017 647 1027.5 Q673 1038 701 1044 Q729 1050 757 1050 Q807 1050 896 1026 L861 735 Q801 756 762.5 765 Q724 774 703 774 Q630 774 578 726 Q552 701 536 664.5 Q520 628 513 576 L443 0 L119 0 Z " />
<glyph glyph-name="s" unicode="s" horiz-adv-x="988" d="M508 -22 Q440 -22 381 -12 Q322 -2 269 16 Q214 34 166 62.5 Q118 91 77 126 L197 378 Q294 293 367 267 Q408 253 446 247 Q484 241 520 241 Q573 241 601 256.5 Q629 272 634 309 Q637 328 625.5 341.5 Q614 355 588 367.5 Q562 380 520 393.5 Q478 407 420 427 Q363 445 315 469 Q267 493 233 528 Q199 563 181.5 612.5 Q164 662 169 733 Q179 816 221 879 Q263 942 329 981 Q442 1048 605 1048 Q705 1048 804.5 1018.5 Q904 989 985 932 L869 697 Q776 749 708 769 Q676 778 645.5 783 Q615 788 590 788 Q539 788 514 779 Q489 770 486 750 Q485 736 489 726.5 Q493 717 506 708 Q519 699 544.5 688.5 Q570 678 612 662 Q675 639 716 624 Q757 609 783.5 597.5 Q810 586 825.5 578 Q841 570 852 562 Q902 526 927 464 Q952 402 940 308 Q929 214 885.5 151 Q842 88 780.5 49.5 Q719 11 647.5 -5.5 Q576 -22 508 -22 Z " />
<glyph glyph-name="t" unicode="t" horiz-adv-x="865" d="M772 1 L631 1 Q604 1 578 1.5 Q552 2 532 4 Q487 7 439.5 17 Q392 27 362 43 Q326 63 299 91.5 Q272 120 256.5 161.5 Q241 203 236.5 258.5 Q232 314 241 387 L291 791 L116 791 L144 1026 L328 1026 L354 1233 L681 1332 L643 1026 L890 1026 L862 791 L615 791 L563 373 Q558 337 560 315.5 Q562 294 569 281 Q575 274 584.5 270.5 Q594 267 605.5 265 Q617 263 628.5 262 Q640 261 650 260 Q661 259 680 258.5 Q699 258 720.5 257.5 Q742 257 764 257 Q786 257 803 257 L772 1 Z " />
<glyph glyph-name="u" unicode="u" horiz-adv-x="1186" d="M502 -22 Q309 -22 213 89 Q167 145 148.5 219 Q130 293 141 387 L219 1026 L543 1026 L465 390 Q456 317 487.5 281 Q519 245 582 245 Q660 245 702.5 286 Q745 327 756 420 L830 1026 L1155 1026 L1066 297 L1043 0 L709 0 L715 53 Q676 24 620.5 1 Q565 -22 502 -22 Z " />
<glyph glyph-name="v" unicode="v" horiz-adv-x="1157" d="M422 0 L114 1026 L472 1026 L620 431 Q692 582 762.5 728.5 Q833 875 904 1026 L1258 1026 L697 0 L422 0 Z " />
<glyph glyph-name="w" unicode="w" horiz-adv-x="1685" d="M362 0 L116 1026 L460 1026 L572 474 Q635 611 699 750 Q763 889 826 1026 L1097 1026 L1206 475 Q1269 612 1332 750.5 Q1395 889 1457 1026 L1772 1026 L1257 0 L996 0 L881 536 Q818 402 753.5 268 Q689 134 626 0 L362 0 Z " />
<glyph glyph-name="x" unicode="x" horiz-adv-x="1123" d="M-17 0 L416 503 L129 1026 L492 1026 L639 760 L868 1026 L1217 1026 L794 532 L1090 0 L726 0 L572 273 Q514 204 455 136 Q396 68 338 0 L-17 0 Z " />
<glyph glyph-name="y" unicode="y" horiz-adv-x="1114" d="M81 -195 Q167 -162 226 -134 Q285 -106 320 -79 Q378 -35 405 27 L404 26 L417 59 Q342 299 266 543 Q190 787 115 1026 L457 1026 L621 442 L894 1026 L1229 1026 L697 -26 Q670 -76 636.5 -122 Q603 -168 563 -209 Q485 -287 392.5 -337 Q300 -387 191 -420 L81 -195 Z " />
<glyph glyph-name="z" unicode="z" horiz-adv-x="997" d="M61 0 L82 173 L563 762 L177 762 L209 1026 L1025 1026 L1004 855 L518 263 L955 263 L923 0 L61 0 Z " />
<glyph glyph-name="braceleft" unicode="&#x7b;" horiz-adv-x="987" d="M742 940 Q731 849 696 786 Q661 723 600 688 Q654 653 673 592.5 Q692 532 681 442 L654 228 Q649 184 648 158 Q648 140 657.5 128 Q667 116 682 109.5 Q697 103 714.5 100.5 Q732 98 747 99 Q757 99 775 98.5 Q793 98 813.5 98 Q834 98 854.5 98 Q875 98 890 98 L857 -170 L799 -170 Q743 -170 695.5 -168.5 Q648 -167 611 -163 Q574 -159 539 -152 Q504 -145 473.5 -135.5 Q443 -126 418 -114.5 Q393 -103 377 -90 Q358 -73 343 -51 Q328 -29 321 -5 Q313 19 309.5 44 Q306 69 306 98 Q306 127 308.5 160.5 Q311 194 316 236 L343 452 Q348 493 346 516.5 Q344 540 336 549 Q325 561 300.5 566 Q276 571 237 571 L176 571 L203 795 L264 795 Q303 795 327.5 799 Q352 803 366 816.5 Q380 830 387.5 855 Q395 880 401 922 L427 1139 Q437 1221 450 1273 Q465 1333 497 1382 Q529 1431 574 1462 Q594 1476 623 1487.5 Q652 1499 686 1508 Q746 1525 836.5 1531 Q927 1537 1066 1537 L1033 1269 L912 1269 Q890 1269 874.5 1269 Q859 1269 847 1268 Q822 1266 808 1258.5 Q794 1251 786.5 1236.5 Q779 1222 775.5 1200.5 Q772 1179 768 1150 L742 940 Z " />
<glyph glyph-name="bar" unicode="&#x7c;" horiz-adv-x="395" d="M-21 -429 L215 1503 L537 1503 L300 -429 L-21 -429 Z " />
<glyph glyph-name="braceright" unicode="&#x7d;" horiz-adv-x="982" d="M77 97 L198 97 Q220 97 235 97 Q250 97 262 98 Q276 99 290.5 101.5 Q305 104 310 108 Q322 118 329 142.5 Q336 167 342 216 L368 427 Q391 607 512 680 Q406 745 429 925 L455 1138 Q458 1161 459.5 1177.5 Q461 1194 462 1208 Q464 1226 457 1239.5 Q450 1253 445 1257 L444 1258 Q442 1258 439 1259 Q437 1259 433 1259.5 Q429 1260 424 1261 Q407 1263 391 1264.5 Q375 1266 363 1267 Q353 1267 335 1267.5 Q317 1268 296.5 1268 Q276 1268 255.5 1268 Q235 1268 220 1268 L253 1537 L310 1537 Q367 1537 414 1535.5 Q461 1534 496 1530 Q575 1523 638 1502.5 Q701 1482 731 1456 Q751 1439 765.5 1417 Q780 1395 787 1372 Q795 1347 799 1321.5 Q803 1296 804 1267.5 Q805 1239 802 1205 Q799 1171 794 1130 L768 914 Q758 835 774 817 Q793 795 874 795 L935 795 L908 571 L847 571 Q767 571 741 548 Q721 531 710 445 L683 227 Q678 186 672.5 152 Q667 118 660 93 Q646 36 613 -15 Q580 -66 537 -94 Q517 -108 488 -119.5 Q459 -131 425 -141 Q364 -158 274 -164 Q184 -170 45 -170 L77 97 Z " />
<glyph glyph-name="asciitilde" unicode="&#x7e;" horiz-adv-x="1508" d="M189 437 Q277 651 372 717 Q417 748 461 759 Q505 770 560 770 Q618 770 688.5 754.5 Q759 739 844 707 Q910 681 961.5 668 Q1013 655 1058 655 Q1072 656 1082 659 Q1092 662 1102.5 677.5 Q1113 693 1127 725.5 Q1141 758 1164 817 L1392 709 Q1363 634 1337.5 579 Q1312 524 1287 489 Q1263 456 1236.5 432 Q1210 408 1179 394 Q1127 371 1049 371 Q925 371 724 440 Q595 484 543 484 Q523 484 509.5 474.5 Q496 465 481.5 445.5 Q467 426 450 396 Q433 366 406 325 L189 437 Z " />
<glyph glyph-name="uni007F" unicode="&#x7f;" horiz-adv-x="1521" d="M150 0 L328 1456 L1505 1456 L1327 0 L150 0 Z M435 201 L1090 201 L1219 1254 L564 1254 L435 201 Z " />
<glyph glyph-name="uni00A0" unicode="&#xa0;" horiz-adv-x="599" d="" />
<glyph glyph-name="exclamdown" unicode="&#xa1;" horiz-adv-x="786" d="M343 729 L575 729 L527 -283 L143 -283 L343 729 Z M310 845 L351 1174 L676 1174 L635 845 L310 845 Z " />
<glyph glyph-name="cent" unicode="&#xa2;" horiz-adv-x="1076" d="M536 -16 Q488 -7 441 9.5 Q394 26 352.5 48.5 Q311 71 276.5 98.5 Q242 126 220 157 Q164 234 142 328 Q120 422 133 526 Q147 637 195 733.5 Q243 830 318 908 Q385 972 477.5 1014.5 Q570 1057 669 1071 L692 1261 L921 1261 L897 1061 Q970 1044 1031.5 1006.5 Q1093 969 1140 909 L984 680 Q946 718 916.5 742.5 Q887 767 862 779 L800 273 Q811 278 821.5 283 Q832 288 841 293 Q850 299 881 319.5 Q912 340 960 374 L1037 115 Q963 67 895.5 36 Q828 5 766 -8 L739 -228 L510 -228 L536 -16 Z M502 341 Q517 318 532.5 301.5 Q548 285 571 275 L633 781 Q568 752 526 685.5 Q484 619 473 526 Q459 415 503 341 L502 341 Z M482 332 L484 330 L502 341 Q502 341 502 343 L482 332 Z " />
<glyph glyph-name="sterling" unicode="&#xa3;" horiz-adv-x="1255" d="M1217 1129 Q1050 1208 949 1208 Q901 1208 863 1193 Q825 1178 800 1151 Q776 1122 757 1067 Q738 1012 728 936 L721 877 L1039 877 L1007 611 L688 611 Q673 500 653.5 418 Q634 336 603 276 L1211 276 L1178 0 L107 0 L135 232 L185 276 L185 275 L204 290 L211 296 L257 345 Q276 365 288 388.5 Q300 412 315 447 Q330 479 339.5 519.5 Q349 560 357 611 L182 611 L214 877 L386 877 L387 882 Q399 982 421 1064.5 Q443 1147 484 1225 Q505 1263 533 1298 Q561 1333 593 1361 Q656 1416 751 1449.5 Q846 1483 968 1483 Q1174 1483 1332 1391 L1217 1129 Z " />
<glyph glyph-name="yen" unicode="&#xa5;" horiz-adv-x="1387" d="M188 259 L212 449 L561 449 L574 556 L225 556 L249 752 L490 752 Q446 847 399 948 Q352 1049 306 1151 L165 1456 L549 1456 L787 886 L1163 1456 L1554 1456 L1048 752 L1286 752 L1262 556 L913 556 L900 449 L1252 449 L1228 259 L876 259 L845 0 L506 0 L537 259 L188 259 Z " />
<glyph glyph-name="brokenbar" unicode="&#xa6;" horiz-adv-x="500" d="M109 532 L228 1503 L560 1503 L441 532 L109 532 Z M-7 -429 L103 475 L435 475 L324 -429 L-7 -429 Z " />
<glyph glyph-name="section" unicode="&#xa7;" horiz-adv-x="1104" d="M703 632 Q714 654 717 684 Q721 698 713 711 Q705 724 697 733 L698 733 Q693 737 685.5 742 Q678 747 669 752 Q660 757 651.5 761 Q643 765 637 768 L584 792 Q581 793 571.5 797.5 Q562 802 557 804 Q546 792 536.5 774.5 Q527 757 525 737 Q523 725 526.5 718.5 Q530 712 540 704 Q550 696 559 692 Q568 688 576 686 L574 686 L609 671 Q621 666 632 661 Q643 656 655 651 L703 632 Z M501 -57 Q416 -57 327 -39.5 Q238 -22 144 15 L180 304 Q245 278 294 261.5 Q343 245 381 236 L380 236 Q460 219 524 219 Q568 219 596.5 235 Q625 251 629 283 Q630 292 609 307 L608 307 Q596 315 576 327 Q556 339 529 354 Q502 369 470 386 Q438 403 403 421 Q358 445 320.5 477 Q283 509 258 546.5 Q233 584 221 626 Q209 668 215 713 Q230 838 345 931 Q307 976 295 1029 Q283 1082 291 1153 Q310 1309 445 1400 Q508 1439 583 1459.5 Q658 1480 746 1480 Q823 1480 903.5 1464.5 Q984 1449 1071 1419 L1037 1146 Q1011 1155 976.5 1167 Q942 1179 903 1189.5 Q864 1200 823.5 1207 Q783 1214 746 1214 Q726 1214 705.5 1208.5 Q685 1203 668 1195 Q650 1184 649 1167 Q645 1138 684.5 1106.5 Q724 1075 808 1033 Q841 1015 866.5 1000.5 Q892 986 903 978 L902 978 Q922 965 939.5 950.5 Q957 936 975 919 Q1020 877 1037.5 828 Q1055 779 1048 722 Q1041 663 1012 612 Q983 561 923 510 Q962 469 979 414.5 Q996 360 987 288 Q980 234 955.5 183.5 Q931 133 896 92 Q824 15 723 -21 Q622 -57 501 -57 Z " />
<glyph glyph-name="dieresis" unicode="&#xa8;" horiz-adv-x="743" d="M574 1105 L608 1381 L909 1381 L875 1105 L574 1105 Z M113 1105 L147 1381 L448 1381 L414 1105 L113 1105 Z " />
<glyph glyph-name="copyright" unicode="&#xa9;" horiz-adv-x="1713" d="M829 -21 Q770 -21 711.5 -10 Q653 1 597.5 21 Q542 41 491.5 67.5 Q441 94 399 126 Q339 177 290.5 244.5 Q242 312 210 390.5 Q178 469 165 555.5 Q152 642 164 732 Q174 807 197.5 879 Q221 951 260 1022 Q335 1159 450 1260 Q565 1361 711 1421 Q859 1482 1013 1482 Q1087 1482 1161.5 1465.5 Q1236 1449 1299 1421 Q1364 1392 1421 1350.5 Q1478 1309 1520 1261 Q1567 1208 1600.5 1148.5 Q1634 1089 1653 1023 Q1698 885 1678 732 Q1660 579 1582 440 L1582 441 Q1546 373 1497.5 313 Q1449 253 1390 200 Q1334 150 1269.5 110 Q1205 70 1130 40 Q986 -21 829 -21 Z M851 172 Q919 172 991 192.5 Q1063 213 1128 247 Q1188 283 1246 335.5 Q1304 388 1346 450 Q1391 514 1416.5 583 Q1442 652 1452 729 Q1462 806 1453 874.5 Q1444 943 1415 1006 Q1361 1134 1246 1207 Q1187 1245 1123 1264 Q1059 1283 987 1283 Q847 1283 710 1207 Q645 1172 590 1120 Q535 1068 491 1006 Q404 881 386 729 Q366 575 423 450 Q450 390 496 336 Q542 282 592 247 Q648 213 716 192.5 Q784 172 851 172 Z M889 318 Q791 318 716 351 Q641 384 599 444 Q558 503 541.5 575 Q525 647 535 727 Q546 812 582.5 886 Q619 960 679 1017 Q740 1074 819 1104.5 Q898 1135 988 1135 Q1171 1135 1274 1008 L1154 827 Q1106 874 1062.5 898 Q1019 922 979 922 Q941 922 910 908.5 Q879 895 856 869.5 Q833 844 818 808 Q803 772 798 727 Q793 683 799.5 646 Q806 609 823 584 Q863 532 936 532 Q958 532 980.5 536.5 Q1003 541 1017 546 Q1030 551 1052 565 Q1055 567 1057.5 568 Q1060 569 1069 576 L1141 625 L1197 420 Q1042 318 889 318 Z " />
<glyph glyph-name="ordfeminine" unicode="&#xaa;" horiz-adv-x="868" d="M460 885 Q476 885 496 890.5 Q516 896 535.5 907.5 Q555 919 571 937.5 Q587 956 596 983 Q579 980 564 979 Q549 978 535 978 L506 978 Q491 978 479 976.5 Q467 975 458 969.5 Q449 964 443 953.5 Q437 943 435 924 Q433 907 440.5 896 Q448 885 460 885 Z M423 680 Q363 680 314.5 697.5 Q266 715 233 747.5 Q200 780 185 825 Q170 870 177 924 Q191 1044 274.5 1107 Q358 1170 507 1170 L626 1170 Q627 1187 624.5 1205.5 Q622 1224 614.5 1239 Q607 1254 595 1263.5 Q583 1273 566 1273 Q541 1273 517 1271 Q493 1269 462.5 1263 Q432 1257 392 1245.5 Q352 1234 297 1214 L254 1385 Q333 1432 426 1453.5 Q519 1475 612 1475 Q679 1475 738 1459 Q797 1443 838.5 1406.5 Q880 1370 900 1309 Q920 1248 909 1158 Q907 1148 899.5 1083.5 Q892 1019 880 898 Q875 853 873 805.5 Q871 758 874 710 L596 710 L598 729 L593 726 L594 727 Q525 680 423 680 Z " />
<glyph glyph-name="guillemotleft" unicode="&#xab;" horiz-adv-x="1177" d="M843 149 L600 552 L947 952 L1244 952 L944 550 L1024 385 Q1050 330 1080.5 267 Q1111 204 1137 149 L843 149 Z M377 149 L135 552 L481 952 L778 952 L478 550 L558 385 Q585 330 615 267 Q645 204 671 149 L377 149 Z " />
<glyph glyph-name="logicalnot" unicode="&#xac;" horiz-adv-x="1457" d="M933 207 L978 574 L194 574 L228 850 L1331 850 L1252 207 L933 207 Z " />
<glyph glyph-name="registered" unicode="&#xae;" horiz-adv-x="1713" d="M829 -21 Q770 -21 711.5 -10 Q653 1 597.5 21 Q542 41 491.5 67.5 Q441 94 399 126 Q339 177 290.5 244.5 Q242 312 210 390.5 Q178 469 165 555.5 Q152 642 164 732 Q174 807 197.5 879 Q221 951 260 1022 Q335 1159 450 1260 Q565 1361 711 1421 Q859 1482 1013 1482 Q1087 1482 1161.5 1465.5 Q1236 1449 1299 1421 Q1364 1392 1421 1350.5 Q1478 1309 1520 1261 Q1567 1208 1600.5 1148.5 Q1634 1089 1653 1023 Q1698 885 1678 732 Q1660 579 1582 440 L1582 441 Q1546 373 1497.5 313 Q1449 253 1390 200 Q1334 150 1269.5 110 Q1205 70 1130 40 Q986 -21 829 -21 Z M851 172 Q919 172 991 192.5 Q1063 213 1128 247 Q1188 283 1246 335.5 Q1304 388 1346 450 Q1391 514 1416.5 583 Q1442 652 1452 729 Q1462 806 1453 874.5 Q1444 943 1415 1006 Q1361 1134 1246 1207 Q1187 1245 1123 1264 Q1059 1283 987 1283 Q847 1283 710 1207 Q645 1172 590 1120 Q535 1068 491 1006 Q404 881 386 729 Q366 575 423 450 Q450 390 496 336 Q542 282 592 247 Q648 213 716 192.5 Q784 172 851 172 Z M874 814 L903 814 Q960 814 989 825.5 Q1018 837 1022 865 Q1025 893 1003 902.5 Q981 912 929 912 L886 912 L874 814 Z M554 342 L650 1119 L950 1119 Q1138 1119 1218.5 1057 Q1299 995 1283 871 Q1274 793 1236.5 740 Q1199 687 1127 658 Q1139 626 1153 591 Q1167 556 1181 520 Q1195 484 1208.5 449 Q1222 414 1234 383 L1233 383 L1249 342 L962 342 L873 613 L850 613 L816 342 L554 342 Z " />
<glyph glyph-name="degree" unicode="&#xb0;" horiz-adv-x="886" d="M528 800 Q386 800 296 896 Q206 995 223 1132 Q241 1268 353 1367 Q468 1466 610 1466 Q752 1466 839 1368 Q932 1268 914 1132 Q897 992 783 896 L783 897 Q671 800 528 800 Z M554 1011 Q600 1011 636 1044 L635 1044 Q672 1078 678 1131 Q682 1159 676 1179.5 Q670 1200 656 1217 Q628 1252 583 1252 Q540 1252 503 1218 Q469 1186 462 1131 Q456 1074 482 1044 Q510 1011 554 1011 Z " />
<glyph glyph-name="plusminus" unicode="&#xb1;" horiz-adv-x="1272" d="M148 0 L179 257 L1116 257 L1085 0 L148 0 Z M487 275 L522 558 L216 558 L249 830 L549 830 L585 1119 L908 1119 L872 830 L1184 830 L1151 558 L848 558 L813 275 L487 275 Z " />
<glyph glyph-name="acute" unicode="&#xb4;" horiz-adv-x="607" d="M187 1163 L491 1456 L859 1456 L465 1163 L187 1163 Z " />
<glyph glyph-name="mu" unicode="&#xb5;" horiz-adv-x="1230" d="M838 1025 L1217 1025 L1092 0 L757 0 L758 66 Q700 22 632.5 1.5 Q565 -19 485 -19 L468 -19 L435 -291 L57 -291 L218 1025 L596 1025 L525 446 Q512 339 530.5 293.5 Q549 248 605 248 Q645 248 680.5 263.5 Q716 279 751 314 L838 1025 Z " />
<glyph glyph-name="paragraph" unicode="&#xb6;" horiz-adv-x="1226" d="M334 -168 L447 750 Q305 776 237.5 866.5 Q170 957 188 1106 Q199 1187 233 1249 Q267 1311 318 1352 Q340 1370 371.5 1386 Q403 1402 438 1415 Q501 1435 575 1445 Q649 1455 732 1455 L1247 1455 L1215 1190 L1146 1190 L979 -168 L686 -168 L853 1190 L793 1190 L626 -168 L334 -168 Z " />
<glyph glyph-name="cedilla" unicode="&#xb8;" horiz-adv-x="529" d="M-4 -159 Q18 -170 42.5 -180 Q67 -190 91 -197.5 Q115 -205 135.5 -210 Q156 -215 171 -215 Q210 -215 213 -192 Q216 -168 193.5 -151.5 Q171 -135 133 -128 L66 -118 L130 105 L321 105 L295 0 Q333 -8 359 -23.5 Q385 -39 404 -64 Q454 -131 444 -212 Q437 -269 412.5 -309.5 Q388 -350 352 -376 Q316 -402 271 -414 Q226 -426 178 -426 Q121 -426 66 -408 Q11 -390 -43 -355 L-4 -159 Z " />
<glyph glyph-name="ordmasculine" unicode="&#xba;" horiz-adv-x="913" d="M528 672 Q432 672 358.5 700.5 Q285 729 237 780 Q192 835 171.5 906.5 Q151 978 162 1060 Q172 1142 208 1209.5 Q244 1277 308 1335 Q430 1444 620 1444 Q810 1444 907 1332 Q956 1274 974.5 1205.5 Q993 1137 983 1056 Q963 895 840 782 Q718 672 528 672 Z M554 907 Q611 907 653 946 Q694 982 703 1056 Q712 1127 682 1168 Q652 1209 592 1209 Q535 1209 492 1170 Q472 1152 459.5 1123.5 Q447 1095 442 1058 Q434 988 463.5 947.5 Q493 907 554 907 Z " />
<glyph glyph-name="guillemotright" unicode="&#xbb;" horiz-adv-x="1177" d="M525 149 L826 552 L633 952 L928 952 L1170 550 L824 149 L525 149 Z M59 149 L360 552 L277 724 L166 952 L462 952 L704 550 L358 149 L59 149 Z " />
<glyph glyph-name="onequarter" unicode="&#xbc;" horiz-adv-x="2113" d="M1628 394 L1660 394 L1665 438 L1628 394 Z M545 0 L1606 1456 L1917 1456 L857 0 L545 0 Z M1614 1 L1636 184 L1288 184 L1308 344 L1740 850 L1986 850 L1930 394 L2040 394 L2014 184 L1904 184 L1882 1 L1614 1 Z M265 584 L295 825 L494 825 L537 1173 Q485 1161 428 1147 Q371 1133 320 1121 L351 1371 L518 1419 Q562 1432 593.5 1439 Q625 1446 648 1449.5 Q671 1453 688 1454 Q705 1455 721 1455 Q727 1455 733.5 1455 Q740 1455 748 1456 L857 1456 L780 823 L953 823 L923 584 L265 584 Z " />
<glyph glyph-name="onehalf" unicode="&#xbd;" horiz-adv-x="2554" d="M238 584 L268 825 L468 825 L511 1173 Q459 1161 401 1147 Q343 1133 292 1121 L323 1371 L490 1419 Q537 1432 584 1445 Q631 1458 668 1464.5 Q705 1471 725.5 1470 Q746 1469 740 1456 L830 1456 L753 823 L926 823 L896 584 L238 584 Z M554 0 L1617 1456 L1929 1456 L867 0 L554 0 Z M1944 572 Q1952 636 1901 636 Q1812 636 1632 553 L1571 784 Q1674 835 1767 860.5 Q1860 886 1945 886 Q2010 886 2066.5 869.5 Q2123 853 2162.5 818.5 Q2202 784 2222.5 729.5 Q2243 675 2236 600 L2235 589 Q2230 547 2208.5 505 Q2187 463 2154 422 Q2121 381 2077.5 342 Q2034 303 1984 266 L2185 266 L2153 0 L1498 0 L1524 219 L1827 441 Q1859 465 1883 486.5 Q1907 508 1921 524 Q1941 547 1944 572 Z " />
<glyph glyph-name="threequarters" unicode="&#xbe;" horiz-adv-x="2534" d="M1658 394 L1690 394 L1695 438 L1658 394 Z M564 0 L1627 1456 L1938 1456 L877 0 L564 0 Z M1644 1 L1666 184 L1318 184 L1338 344 L1768 850 L2016 850 L1960 394 L2069 394 L2043 184 L1934 184 L1912 1 L1644 1 Z M606 568 Q432 568 282 688 L400 893 Q547 796 620 796 Q656 796 678.5 815 Q701 834 705 866 Q708 893 683.5 910.5 Q659 928 613 928 L476 928 L503 1146 L638 1146 Q673 1146 698 1158.5 Q723 1171 725 1191 Q731 1241 666 1241 Q583 1241 422 1156 L353 1355 Q455 1408 547.5 1435 Q640 1462 723 1462 Q787 1462 839 1446.5 Q891 1431 929 1402 Q969 1369 987 1322.5 Q1005 1276 997 1216 Q990 1161 969 1121.5 Q948 1082 901 1053 Q948 1019 969 968.5 Q990 918 983 863 Q975 791 941.5 735 Q908 679 851 641 Q746 568 606 568 Z " />
<glyph glyph-name="questiondown" unicode="&#xbf;" horiz-adv-x="1032" d="M861.018 777.024 L840.019 606.034 Q833.02 552.037 809.521 505.54 Q786.023 459.043 752.525 417.546 Q719.027 376.048 679.029 339.05 Q639.032 302.053 599.034 268.055 Q573.036 245.056 546.537 220.558 Q520.039 196.059 498.54 171.061 Q477.042 146.062 462.042 120.564 Q447.043 95.0652 444.044 70.0668 Q438.044 17.07 473.042 -6.92853 Q508.04 -30.9271 573.036 -30.9271 Q658.03 -30.9271 743.525 -4.42868 Q829.02 22.0697 919.015 58.0675 L883.017 -233.915 Q709.027 -319.909 516.039 -319.909 Q455.043 -319.909 401.546 -309.91 Q348.049 -299.911 300.052 -279.912 Q196.059 -237.914 143.062 -150.92 Q117.063 -104.923 105.564 -50.9258 Q94.0649 3.07086 101.064 63.0672 Q107.064 113.064 126.563 156.062 Q146.062 199.059 173.56 237.057 Q201.058 275.054 236.056 308.552 Q271.054 342.05 308.052 372.048 L356.049 409.046 Q391.047 436.044 425.545 465.543 Q460.043 495.041 488.541 528.039 Q517.039 561.037 536.538 597.035 Q556.037 633.032 561.036 673.03 L574.036 777.024 L861.018 777.024 Z M931.014 1164 L891.016 835.02 L566.036 835.02 L606.034 1164 L931.014 1164 Z " />
<glyph glyph-name="Agrave" unicode="&#xc0;" horiz-adv-x="1526" d="M779 1578 L461 1870 L829 1870 L1059 1578 L779 1578 Z M953 541 Q950 553 943.5 580 Q937 607 925.5 656.5 Q914 706 897 781.5 Q880 857 856 965 Q805 858 754.5 753.5 Q704 649 651 540 L953 541 Z M-1 0 L761 1456 L1080 1456 L1491 0 L1108 0 L1044 226 Q902 226 767.5 225.5 Q633 225 491 225 L374 0 L-1 0 Z " />
<glyph glyph-name="Aacute" unicode="&#xc1;" horiz-adv-x="1458" d="M820 1593 L1124 1886 L1492 1886 L1098 1593 L820 1593 Z M953 541 Q950 553 943.5 580 Q937 607 925.5 656.5 Q914 706 897 781.5 Q880 857 856 965 Q805 858 754.5 753.5 Q704 649 651 540 L953 541 Z M-1 0 L761 1456 L1080 1456 L1491 0 L1108 0 L1044 226 Q902 226 767.5 225.5 Q633 225 491 225 L374 0 L-1 0 Z " />
<glyph glyph-name="Acircumflex" unicode="&#xc2;" horiz-adv-x="1458" d="M552 1606 L837 1953 L1073 1953 L1280 1606 L1021 1606 L937 1752 L812 1606 L552 1606 Z M953 541 Q950 553 943.5 580 Q937 607 925.5 656.5 Q914 706 897 781.5 Q880 857 856 965 Q805 858 754.5 753.5 Q704 649 651 540 L953 541 Z M-1 0 L761 1456 L1080 1456 L1491 0 L1108 0 L1044 226 Q902 226 767.5 225.5 Q633 225 491 225 L374 0 L-1 0 Z " />
<glyph glyph-name="Atilde" unicode="&#xc3;" horiz-adv-x="1524" d="M1041 1568 Q997 1568 947 1593 L864 1635 Q834 1653 827 1653 Q820 1653 804 1572 L596 1572 Q605 1647 626 1703 Q647 1759 678 1796 Q746 1874 844 1875 Q868 1876 892.5 1870.5 Q917 1865 940.5 1856 Q964 1847 985.5 1835 Q1007 1823 1025 1813 Q1042 1803 1051 1797 Q1060 1791 1062 1790 L1070 1790 Q1073 1790 1077 1807.5 Q1081 1825 1086 1875 L1299 1875 Q1280 1721 1212.5 1645 Q1145 1569 1042 1568 L1041 1568 Z M953 541 Q950 553 943.5 580 Q937 607 925.5 656.5 Q914 706 897 781.5 Q880 857 856 965 Q805 858 754.5 753.5 Q704 649 651 540 L953 541 Z M-1 0 L761 1456 L1080 1456 L1491 0 L1108 0 L1044 226 Q902 226 767.5 225.5 Q633 225 491 225 L374 0 L-1 0 Z " />
<glyph glyph-name="Adieresis" unicode="&#xc4;" horiz-adv-x="1516" d="M1013 1582 L1047 1858 L1348 1858 L1314 1582 L1013 1582 Z M552 1582 L586 1858 L887 1858 L853 1582 L552 1582 Z M953 541 Q950 553 943.5 580 Q937 607 925.5 656.5 Q914 706 897 781.5 Q880 857 856 965 Q805 858 754.5 753.5 Q704 649 651 540 L953 541 Z M-1 0 L761 1456 L1080 1456 L1491 0 L1108 0 L1044 226 Q902 226 767.5 225.5 Q633 225 491 225 L374 0 L-1 0 Z " />
<glyph glyph-name="Aring" unicode="&#xc5;" horiz-adv-x="1513" d="M900 1517 Q792 1517 728 1587 L727 1586 Q660 1656 673 1760 Q685 1863 769 1933 Q850 2002 960 2002 Q1067 2002 1132 1934 Q1164 1899 1179 1854.5 Q1194 1810 1188 1760 Q1175 1660 1091 1587 Q1009 1517 900 1517 Z M923 1698 Q942 1698 962 1716 L961 1716 Q978 1733 982 1760 Q985 1785 972 1801 Q957 1819 938 1819 Q917 1819 900.5 1802 Q884 1785 881 1760 Q877 1734 889 1717 Q905 1698 923 1698 Z M953 541 Q950 553 943.5 580 Q937 607 925.5 656.5 Q914 706 897 781.5 Q880 857 856 965 Q805 858 754.5 753.5 Q704 649 651 540 L953 541 Z M-1 0 L761 1456 L1080 1456 L1491 0 L1108 0 L1044 226 Q902 226 767.5 225.5 Q633 225 491 225 L374 0 L-1 0 Z " />
<glyph glyph-name="AE" unicode="&#xc6;" horiz-adv-x="2215" d="M1113 1090 L778 609 L1087 609 L1113 1090 Z M-34 0 L1011 1456 L2113 1456 L2077 1160 L1462 1160 L1458 1037 Q1456 1001 1456 966 Q1456 931 1454 889 L2042 889 L2006 598 L1451 598 L1446 429 Q1444 394 1445 362.5 Q1446 331 1444 296 L1995 296 L1959 0 L1064 0 L1076 335 L604 335 Q547 251 488 167.5 Q429 84 372 0 L-34 0 Z " />
<glyph glyph-name="Ccedilla" unicode="&#xc7;" horiz-adv-x="1436" d="M543 -265 Q565 -276 589.5 -286 Q614 -296 638 -303.5 Q662 -311 682.5 -316 Q703 -321 718 -321 Q757 -321 760 -298 Q763 -274 740.5 -257.5 Q718 -241 680 -234 L613 -224 L677 -1 L868 -1 L842 -106 Q880 -114 906 -129.5 Q932 -145 951 -170 Q1001 -237 991 -318 Q984 -375 959.5 -415.5 Q935 -456 899 -482 Q863 -508 818 -520 Q773 -532 725 -532 Q668 -532 613 -514 Q558 -496 504 -461 L543 -265 Z M801 -24 Q730 -24 662 -11 Q594 2 531.5 26.5 Q469 51 414.5 86.5 Q360 122 315 167 Q267 215 232.5 275 Q198 335 178 404 Q156 478 151 557 Q146 636 157 724 Q166 795 185.5 862.5 Q205 930 232 992 Q259 1054 293.5 1108.5 Q328 1163 367 1207 Q427 1268 499 1318.5 Q571 1369 649.5 1405 Q728 1441 809 1460.5 Q890 1480 967 1479 Q1255 1479 1464 1296 L1294 1046 Q1116 1180 949 1180 Q874 1180 803 1149.5 Q732 1119 673 1064 Q613 1008 570.5 921 Q528 834 515 727 Q489 515 587 396 Q684 275 854 275 Q1036 275 1273 447 L1359 164 Q1226 70 1088 23 Q950 -24 801 -24 Z " />
<glyph glyph-name="Egrave" unicode="&#xc8;" horiz-adv-x="1249" d="M686 1593 L368 1885 L736 1885 L966 1593 L686 1593 Z M144 0 L322 1456 L1292 1456 L1256 1159 L633 1159 L600 888 L1189 888 L1152 590 L566 590 L530 297 L1176 297 L1140 0 L144 0 Z " />
<glyph glyph-name="Eacute" unicode="&#xc9;" horiz-adv-x="1249" d="M667 1538 L971 1831 L1339 1831 L945 1538 L667 1538 Z M144 0 L322 1456 L1292 1456 L1256 1159 L633 1159 L600 888 L1189 888 L1152 590 L566 590 L530 297 L1176 297 L1140 0 L144 0 Z " />
<glyph glyph-name="Ecircumflex" unicode="&#xca;" horiz-adv-x="1249" d="M490 1606 L775 1953 L1011 1953 L1218 1606 L959 1606 L875 1752 L750 1606 L490 1606 Z M144 0 L322 1456 L1292 1456 L1256 1159 L633 1159 L600 888 L1189 888 L1152 590 L566 590 L530 297 L1176 297 L1140 0 L144 0 Z " />
<glyph glyph-name="Edieresis" unicode="&#xcb;" horiz-adv-x="1249" d="M918 1535 L952 1811 L1253 1811 L1219 1535 L918 1535 Z M457 1535 L491 1811 L792 1811 L758 1535 L457 1535 Z M144 0 L322 1456 L1292 1456 L1256 1159 L633 1159 L600 888 L1189 888 L1152 590 L566 590 L530 297 L1176 297 L1140 0 L144 0 Z " />
<glyph glyph-name="Igrave" unicode="&#xcc;" horiz-adv-x="586" d="M304 1593 L-14 1885 L354 1885 L584 1593 L304 1593 Z M104 0 L282 1456 L629 1456 L451 0 L104 0 Z " />
<glyph glyph-name="Iacute" unicode="&#xcd;" horiz-adv-x="586" d="M332 1570 L636 1863 L1004 1863 L610 1570 L332 1570 Z M104 0 L282 1456 L629 1456 L451 0 L104 0 Z " />
<glyph glyph-name="Icircumflex" unicode="&#xce;" horiz-adv-x="586" d="M105 1576 L390 1923 L626 1923 L833 1576 L574 1576 L490 1722 L365 1576 L105 1576 Z M104 0 L282 1456 L629 1456 L451 0 L104 0 Z " />
<glyph glyph-name="Idieresis" unicode="&#xcf;" horiz-adv-x="586" d="M536 1535 L570 1811 L871 1811 L837 1535 L536 1535 Z M75 1535 L109 1811 L410 1811 L376 1535 L75 1535 Z M104 0 L282 1456 L629 1456 L451 0 L104 0 Z " />
<glyph glyph-name="Eth" unicode="&#xd0;" horiz-adv-x="1571" d="M73.7812 644.244 L106.153 851.074 L786.937 851.074 L754.565 644.244 L73.7812 644.244 Z M150 0 L328 1456 L763 1456 Q981 1456 1138 1409 Q1295 1362 1392 1270.5 Q1489 1179 1526 1045 Q1563 911 1542 737 Q1520 557 1449.5 419 Q1379 281 1263 188 Q1147 95 986 47.5 Q825 0 622 0 L150 0 Z M532 297 L670 297 Q891 297 1023 408.5 Q1155 520 1181 738 Q1206 943 1099.5 1051 Q993 1159 748 1159 L638 1159 L532 297 Z " />
<glyph glyph-name="Ntilde" unicode="&#xd1;" horiz-adv-x="1567" d="M1059 1546 Q1015 1546 965 1571 L882 1613 Q852 1631 845 1631 Q838 1631 822 1550 L614 1550 Q623 1625 644 1681 Q665 1737 696 1774 Q764 1852 862 1853 Q886 1854 910.5 1848.5 Q935 1843 958.5 1834 Q982 1825 1003.5 1813 Q1025 1801 1043 1791 Q1060 1781 1069 1775 Q1078 1769 1080 1768 L1088 1768 Q1091 1768 1095 1785.5 Q1099 1803 1104 1853 L1317 1853 Q1298 1699 1230.5 1623 Q1163 1547 1060 1546 L1059 1546 Z M150 0 L328 1456 L665 1456 L1163 576 L1271 1456 L1606 1456 L1428 0 L1089 0 L586 884 L478 0 L150 0 Z " />
<glyph glyph-name="Ograve" unicode="&#xd2;" horiz-adv-x="1671" d="M854 1593 L536 1885 L904 1885 L1134 1593 L854 1593 Z M810 -22 Q642 -22 510 32.5 Q378 87 292 186 Q207 289 173.5 427.5 Q140 566 161 735 Q202 1065 427 1274 Q652 1482 996 1482 Q1159 1482 1288 1426.5 Q1417 1371 1503 1274 Q1587 1170 1621.5 1033 Q1656 896 1636 735 Q1594 392 1373 186 Q1261 82 1122 30 Q983 -22 810 -22 Z M840 275 Q931 275 1004.5 305.5 Q1078 336 1132.5 394.5 Q1187 453 1221.5 538.5 Q1256 624 1270 735 Q1297 956 1214 1072 Q1133 1185 956 1185 Q777 1185 665 1071 Q554 957 527 735 Q500 514 578 394.5 Q656 275 840 275 Z " />
<glyph glyph-name="Oacute" unicode="&#xd3;" horiz-adv-x="1671" d="M843 1575 L1147 1868 L1515 1868 L1121 1575 L843 1575 Z M810 -22 Q642 -22 510 32.5 Q378 87 292 186 Q207 289 173.5 427.5 Q140 566 161 735 Q202 1065 427 1274 Q652 1482 996 1482 Q1159 1482 1288 1426.5 Q1417 1371 1503 1274 Q1587 1170 1621.5 1033 Q1656 896 1636 735 Q1594 392 1373 186 Q1261 82 1122 30 Q983 -22 810 -22 Z M840 275 Q931 275 1004.5 305.5 Q1078 336 1132.5 394.5 Q1187 453 1221.5 538.5 Q1256 624 1270 735 Q1297 956 1214 1072 Q1133 1185 956 1185 Q777 1185 665 1071 Q554 957 527 735 Q500 514 578 394.5 Q656 275 840 275 Z " />
<glyph glyph-name="Ocircumflex" unicode="&#xd4;" horiz-adv-x="1671" d="M626 1543 L911 1890 L1147 1890 L1354 1543 L1095 1543 L1011 1689 L886 1543 L626 1543 Z M810 -22 Q642 -22 510 32.5 Q378 87 292 186 Q207 289 173.5 427.5 Q140 566 161 735 Q202 1065 427 1274 Q652 1482 996 1482 Q1159 1482 1288 1426.5 Q1417 1371 1503 1274 Q1587 1170 1621.5 1033 Q1656 896 1636 735 Q1594 392 1373 186 Q1261 82 1122 30 Q983 -22 810 -22 Z M840 275 Q931 275 1004.5 305.5 Q1078 336 1132.5 394.5 Q1187 453 1221.5 538.5 Q1256 624 1270 735 Q1297 956 1214 1072 Q1133 1185 956 1185 Q777 1185 665 1071 Q554 957 527 735 Q500 514 578 394.5 Q656 275 840 275 Z " />
<glyph glyph-name="Otilde" unicode="&#xd5;" horiz-adv-x="1671" d="M1049 1568 Q1005 1568 955 1593 L872 1635 Q842 1653 835 1653 Q828 1653 812 1572 L604 1572 Q613 1647 634 1703 Q655 1759 686 1796 Q754 1874 852 1875 Q876 1876 900.5 1870.5 Q925 1865 948.5 1856 Q972 1847 993.5 1835 Q1015 1823 1033 1813 Q1050 1803 1059 1797 Q1068 1791 1070 1790 L1078 1790 Q1081 1790 1085 1807.5 Q1089 1825 1094 1875 L1307 1875 Q1288 1721 1220.5 1645 Q1153 1569 1050 1568 L1049 1568 Z M810 -22 Q642 -22 510 32.5 Q378 87 292 186 Q207 289 173.5 427.5 Q140 566 161 735 Q202 1065 427 1274 Q652 1482 996 1482 Q1159 1482 1288 1426.5 Q1417 1371 1503 1274 Q1587 1170 1621.5 1033 Q1656 896 1636 735 Q1594 392 1373 186 Q1261 82 1122 30 Q983 -22 810 -22 Z M840 275 Q931 275 1004.5 305.5 Q1078 336 1132.5 394.5 Q1187 453 1221.5 538.5 Q1256 624 1270 735 Q1297 956 1214 1072 Q1133 1185 956 1185 Q777 1185 665 1071 Q554 957 527 735 Q500 514 578 394.5 Q656 275 840 275 Z " />
<glyph glyph-name="Odieresis" unicode="&#xd6;" horiz-adv-x="1671" d="M1080 1578 L1114 1854 L1415 1854 L1381 1578 L1080 1578 Z M619 1578 L653 1854 L954 1854 L920 1578 L619 1578 Z M810 -22 Q642 -22 510 32.5 Q378 87 292 186 Q207 289 173.5 427.5 Q140 566 161 735 Q202 1065 427 1274 Q652 1482 996 1482 Q1159 1482 1288 1426.5 Q1417 1371 1503 1274 Q1587 1170 1621.5 1033 Q1656 896 1636 735 Q1594 392 1373 186 Q1261 82 1122 30 Q983 -22 810 -22 Z M840 275 Q931 275 1004.5 305.5 Q1078 336 1132.5 394.5 Q1187 453 1221.5 538.5 Q1256 624 1270 735 Q1297 956 1214 1072 Q1133 1185 956 1185 Q777 1185 665 1071 Q554 957 527 735 Q500 514 578 394.5 Q656 275 840 275 Z " />
<glyph glyph-name="multiply" unicode="&#xd7;" horiz-adv-x="1272" d="M367 86 L181 304 L465 557 L243 811 L484 1026 L707 772 L993 1026 L1181 812 L898 557 L1119 302 L878 88 L654 342 L367 86 Z " />
<glyph glyph-name="Oslash" unicode="&#xd8;" horiz-adv-x="1671" d="M813 -22 Q739 -22 675 -13.5 Q611 -5 555 14 Q544 -3 531 -22.5 Q518 -42 505 -62 Q492 -82 479.5 -101 Q467 -120 457 -136 L272 -46 L376 109 Q245 209 191.5 367.5 Q138 526 164 735 Q204 1066 430 1275 Q653 1482 999 1482 Q1075 1482 1135.5 1474 Q1196 1466 1253 1446 Q1274 1480 1299.5 1518 Q1325 1556 1344 1583 L1530 1496 L1432 1347 Q1558 1248 1610.5 1092 Q1663 936 1639 735 Q1597 392 1375 185 Q1154 -22 813 -22 Z M728 279 Q754 273 783 270 Q812 267 842 267 Q1028 267 1139.5 388 Q1251 509 1279 735 Q1291 838 1281.5 917 Q1272 996 1239 1053 L728 279 Z M522 735 Q508 623 518.5 539.5 Q529 456 564 398 L1077 1178 Q1021 1193 960 1193 Q776 1193 662 1076 Q549 962 522 735 Z " />
<glyph glyph-name="Ugrave" unicode="&#xd9;" horiz-adv-x="1509" d="M762 1593 L444 1885 L812 1885 L1042 1593 L762 1593 Z M728 -22 Q585 -22 481.5 13.5 Q378 49 317 104 Q285 135 262 171.5 Q239 208 223 249 Q209 291 201 333 Q193 375 190 418.5 Q187 462 189.5 508.5 Q192 555 198 607 L302 1456 L647 1456 L542 597 Q530 502 542.5 440 Q555 378 585.5 341.5 Q616 305 662 290 Q708 275 763 275 Q823 275 870 290 Q917 305 959 340 Q1000 372 1026 437 Q1052 502 1064 598 L1169 1456 L1515 1456 L1411 607 Q1399 507 1372.5 420.5 Q1346 334 1298 251 Q1272 210 1240.5 172.5 Q1209 135 1171 106 Q1097 49 984.5 13.5 Q872 -22 728 -22 Z " />
<glyph glyph-name="Uacute" unicode="&#xda;" horiz-adv-x="1509" d="M760 1560 L1064 1853 L1432 1853 L1038 1560 L760 1560 Z M728 -22 Q585 -22 481.5 13.5 Q378 49 317 104 Q285 135 262 171.5 Q239 208 223 249 Q209 291 201 333 Q193 375 190 418.5 Q187 462 189.5 508.5 Q192 555 198 607 L302 1456 L647 1456 L542 597 Q530 502 542.5 440 Q555 378 585.5 341.5 Q616 305 662 290 Q708 275 763 275 Q823 275 870 290 Q917 305 959 340 Q1000 372 1026 437 Q1052 502 1064 598 L1169 1456 L1515 1456 L1411 607 Q1399 507 1372.5 420.5 Q1346 334 1298 251 Q1272 210 1240.5 172.5 Q1209 135 1171 106 Q1097 49 984.5 13.5 Q872 -22 728 -22 Z " />
<glyph glyph-name="Ucircumflex" unicode="&#xdb;" horiz-adv-x="1509" d="M567 1606 L852 1953 L1088 1953 L1295 1606 L1036 1606 L952 1752 L827 1606 L567 1606 Z M728 -22 Q585 -22 481.5 13.5 Q378 49 317 104 Q285 135 262 171.5 Q239 208 223 249 Q209 291 201 333 Q193 375 190 418.5 Q187 462 189.5 508.5 Q192 555 198 607 L302 1456 L647 1456 L542 597 Q530 502 542.5 440 Q555 378 585.5 341.5 Q616 305 662 290 Q708 275 763 275 Q823 275 870 290 Q917 305 959 340 Q1000 372 1026 437 Q1052 502 1064 598 L1169 1456 L1515 1456 L1411 607 Q1399 507 1372.5 420.5 Q1346 334 1298 251 Q1272 210 1240.5 172.5 Q1209 135 1171 106 Q1097 49 984.5 13.5 Q872 -22 728 -22 Z " />
<glyph glyph-name="Udieresis" unicode="&#xdc;" horiz-adv-x="1475" d="M1005 1561 L1039 1837 L1340 1837 L1306 1561 L1005 1561 Z M544 1561 L578 1837 L879 1837 L845 1561 L544 1561 Z M728 -22 Q585 -22 481.5 13.5 Q378 49 317 104 Q285 135 262 171.5 Q239 208 223 249 Q209 291 201 333 Q193 375 190 418.5 Q187 462 189.5 508.5 Q192 555 198 607 L302 1456 L647 1456 L542 597 Q530 502 542.5 440 Q555 378 585.5 341.5 Q616 305 662 290 Q708 275 763 275 Q823 275 870 290 Q917 305 959 340 Q1000 372 1026 437 Q1052 502 1064 598 L1169 1456 L1515 1456 L1411 607 Q1399 507 1372.5 420.5 Q1346 334 1298 251 Q1272 210 1240.5 172.5 Q1209 135 1171 106 Q1097 49 984.5 13.5 Q872 -22 728 -22 Z " />
<glyph glyph-name="Yacute" unicode="&#xdd;" horiz-adv-x="1333" d="M753 1550 L1057 1843 L1425 1843 L1031 1550 L753 1550 Z M508 0 L577 562 Q475 783 371 1009 Q267 1235 166 1456 L559 1456 L794 895 Q827 946 861 995.5 Q895 1045 927 1096 Q987 1186 1046.5 1276.5 Q1106 1367 1165 1456 L1563 1456 L924 564 L855 0 L508 0 Z " />
<glyph glyph-name="Thorn" unicode="&#xde;" horiz-adv-x="1300" d="M557 598 L716 598 Q826 598 887 640.5 Q948 683 959 771 Q972 879 914 911 Q878 932 830.5 940.5 Q783 949 713 949 L600 949 L557 598 Z M149 0 L327 1456 L665 1456 L638 1237 L737 1237 Q844 1237 930.5 1225.5 Q1017 1214 1092 1185 Q1152 1162 1197.5 1126.5 Q1243 1091 1272 1040 Q1301 989 1312 922 Q1323 855 1314 770 Q1299 649 1237.5 561.5 Q1176 474 1084.5 417.5 Q993 361 878 334 Q763 307 642 307 L521 307 L484 0 L149 0 Z " />
<glyph glyph-name="germandbls" unicode="&#xdf;" horiz-adv-x="1265" d="M758 243 Q856 243 868 349 Q880 440 828 500 Q799 537 738.5 579 Q678 621 586 671 L613 891 Q660 911 698 935.5 Q736 960 765 988 Q788 1012 804 1040 Q820 1068 823 1096 Q825 1114 820 1128.5 Q815 1143 804 1153 Q788 1164 769.5 1170.5 Q751 1177 730 1177 Q660 1177 611 1121.5 Q562 1066 548 960 L431 0 L114 0 L228 961 Q242 1070 287 1163.5 Q332 1257 399 1319 Q469 1378 561.5 1410 Q654 1442 762 1442 Q858 1442 934.5 1418.5 Q1011 1395 1068 1351 Q1127 1303 1153.5 1242.5 Q1180 1182 1171 1110 Q1165 1063 1145.5 1016.5 Q1126 970 1094 924 Q1035 843 939 793 Q993 773 1036.5 744.5 Q1080 716 1119 681 Q1179 623 1206 543.5 Q1233 464 1222 367 Q1201 195 1075 86 Q950 -21 786 -21 Q711 -21 633 -6 Q591 3 561.5 10 Q532 17 515 22 L441 50 L533 316 L614 276 L648 265 L677 256 Q700 250 720 246.5 Q740 243 758 243 Z " />
<glyph glyph-name="agrave" unicode="&#xe0;" horiz-adv-x="1291" d="M657 1163 L339 1455 L707 1455 L937 1163 L657 1163 Z M649 255 Q707 255 748.5 275 Q790 295 818 330 Q846 365 862 412 Q878 459 884 513 Q900 638 856.5 705.5 Q813 773 707 773 Q650 773 607 753 Q564 733 534 698 Q504 663 486 616 Q468 569 462 515 Q456 463 461.5 416 Q467 369 488.5 333 Q510 297 549 276 Q588 255 649 255 Z M586 -22 Q457 -22 362 23.5 Q267 69 216 145 Q165 223 145 313.5 Q125 404 137 503 Q150 608 193.5 702.5 Q237 797 307 876 Q380 956 487.5 1003 Q595 1050 728 1050 Q793 1050 843.5 1031.5 Q894 1013 935 983 L940 1026 L1260 1026 L1135 0 L809 0 L816 60 Q764 24 707.5 1 Q651 -22 586 -22 Z " />
<glyph glyph-name="aacute" unicode="&#xe1;" horiz-adv-x="1291" d="M729 1163 L1033 1456 L1401 1456 L1007 1163 L729 1163 Z M649 255 Q707 255 748.5 275 Q790 295 818 330 Q846 365 862 412 Q878 459 884 513 Q900 638 856.5 705.5 Q813 773 707 773 Q650 773 607 753 Q564 733 534 698 Q504 663 486 616 Q468 569 462 515 Q456 463 461.5 416 Q467 369 488.5 333 Q510 297 549 276 Q588 255 649 255 Z M586 -22 Q457 -22 362 23.5 Q267 69 216 145 Q165 223 145 313.5 Q125 404 137 503 Q150 608 193.5 702.5 Q237 797 307 876 Q380 956 487.5 1003 Q595 1050 728 1050 Q793 1050 843.5 1031.5 Q894 1013 935 983 L940 1026 L1260 1026 L1135 0 L809 0 L816 60 Q764 24 707.5 1 Q651 -22 586 -22 Z " />
<glyph glyph-name="acircumflex" unicode="&#xe2;" horiz-adv-x="1291" d="M461 1176 L746 1523 L982 1523 L1189 1176 L930 1176 L846 1322 L721 1176 L461 1176 Z M649 255 Q707 255 748.5 275 Q790 295 818 330 Q846 365 862 412 Q878 459 884 513 Q900 638 856.5 705.5 Q813 773 707 773 Q650 773 607 753 Q564 733 534 698 Q504 663 486 616 Q468 569 462 515 Q456 463 461.5 416 Q467 369 488.5 333 Q510 297 549 276 Q588 255 649 255 Z M586 -22 Q457 -22 362 23.5 Q267 69 216 145 Q165 223 145 313.5 Q125 404 137 503 Q150 608 193.5 702.5 Q237 797 307 876 Q380 956 487.5 1003 Q595 1050 728 1050 Q793 1050 843.5 1031.5 Q894 1013 935 983 L940 1026 L1260 1026 L1135 0 L809 0 L816 60 Q764 24 707.5 1 Q651 -22 586 -22 Z " />
<glyph glyph-name="atilde" unicode="&#xe3;" horiz-adv-x="1291" d="M854 1152 Q810 1152 760 1177 L677 1219 Q647 1237 640 1237 Q633 1237 617 1156 L409 1156 Q418 1231 439 1287 Q460 1343 491 1380 Q559 1458 657 1459 Q681 1460 705.5 1454.5 Q730 1449 753.5 1440 Q777 1431 798.5 1419 Q820 1407 838 1397 Q855 1387 864 1381 Q873 1375 875 1374 L883 1374 Q886 1374 890 1391.5 Q894 1409 899 1459 L1112 1459 Q1093 1305 1025.5 1229 Q958 1153 855 1152 L854 1152 Z M649 255 Q707 255 748.5 275 Q790 295 818 330 Q846 365 862 412 Q878 459 884 513 Q900 638 856.5 705.5 Q813 773 707 773 Q650 773 607 753 Q564 733 534 698 Q504 663 486 616 Q468 569 462 515 Q456 463 461.5 416 Q467 369 488.5 333 Q510 297 549 276 Q588 255 649 255 Z M586 -22 Q457 -22 362 23.5 Q267 69 216 145 Q165 223 145 313.5 Q125 404 137 503 Q150 608 193.5 702.5 Q237 797 307 876 Q380 956 487.5 1003 Q595 1050 728 1050 Q793 1050 843.5 1031.5 Q894 1013 935 983 L940 1026 L1260 1026 L1135 0 L809 0 L816 60 Q764 24 707.5 1 Q651 -22 586 -22 Z " />
<glyph glyph-name="adieresis" unicode="&#xe4;" horiz-adv-x="1291" d="M890 1179 L924 1455 L1225 1455 L1191 1179 L890 1179 Z M429 1179 L463 1455 L764 1455 L730 1179 L429 1179 Z M649 255 Q707 255 748.5 275 Q790 295 818 330 Q846 365 862 412 Q878 459 884 513 Q900 638 856.5 705.5 Q813 773 707 773 Q650 773 607 753 Q564 733 534 698 Q504 663 486 616 Q468 569 462 515 Q456 463 461.5 416 Q467 369 488.5 333 Q510 297 549 276 Q588 255 649 255 Z M586 -22 Q457 -22 362 23.5 Q267 69 216 145 Q165 223 145 313.5 Q125 404 137 503 Q150 608 193.5 702.5 Q237 797 307 876 Q380 956 487.5 1003 Q595 1050 728 1050 Q793 1050 843.5 1031.5 Q894 1013 935 983 L940 1026 L1260 1026 L1135 0 L809 0 L816 60 Q764 24 707.5 1 Q651 -22 586 -22 Z " />
<glyph glyph-name="aring" unicode="&#xe5;" horiz-adv-x="1291" d="M761 1139 Q653 1139 589 1209 L588 1208 Q521 1278 534 1382 Q546 1485 630 1555 Q711 1624 821 1624 Q928 1624 993 1556 Q1025 1521 1040 1476.5 Q1055 1432 1049 1382 Q1036 1282 952 1209 Q870 1139 761 1139 Z M784 1320 Q803 1320 823 1338 L822 1338 Q839 1355 843 1382 Q846 1407 833 1423 Q818 1441 799 1441 Q778 1441 761.5 1424 Q745 1407 742 1382 Q738 1356 750 1339 Q766 1320 784 1320 Z M649 255 Q707 255 748.5 275 Q790 295 818 330 Q846 365 862 412 Q878 459 884 513 Q900 638 856.5 705.5 Q813 773 707 773 Q650 773 607 753 Q564 733 534 698 Q504 663 486 616 Q468 569 462 515 Q456 463 461.5 416 Q467 369 488.5 333 Q510 297 549 276 Q588 255 649 255 Z M586 -22 Q457 -22 362 23.5 Q267 69 216 145 Q165 223 145 313.5 Q125 404 137 503 Q150 608 193.5 702.5 Q237 797 307 876 Q380 956 487.5 1003 Q595 1050 728 1050 Q793 1050 843.5 1031.5 Q894 1013 935 983 L940 1026 L1260 1026 L1135 0 L809 0 L816 60 Q764 24 707.5 1 Q651 -22 586 -22 Z " />
<glyph glyph-name="ae" unicode="&#xe6;" horiz-adv-x="1776" d="M1415 663 Q1419 694 1408 721.5 Q1397 749 1376 769 Q1355 789 1325.5 800.5 Q1296 812 1262 812 Q1230 812 1196.5 798.5 Q1163 785 1135 763 Q1107 741 1086.5 714.5 Q1066 688 1059 663 L1415 663 Z M507 245 Q553 245 587.5 260 Q622 275 647 300.5 Q672 326 687.5 359.5 Q703 393 711 429 L670 429 Q616 429 568.5 422 Q521 415 479 400 Q450 389 430.5 368.5 Q411 348 408 320 Q403 281 431 263 Q459 245 507 245 Z M467 -21 Q379 -21 303.5 3.5 Q228 28 177 64 Q125 109 101.5 171.5 Q78 234 88 312 Q112 513 285 596 L284 596 Q430 667 740 669 Q735 725 699 757.5 Q663 790 599 790 Q504 790 299 697 L227 923 Q342 986 454.5 1018 Q567 1050 682 1050 Q727 1050 772.5 1037 Q818 1024 861 999 Q890 983 915.5 960.5 Q941 938 958 915 Q991 946 1032.5 971.5 Q1074 997 1119 1014.5 Q1164 1032 1209.5 1041 Q1255 1050 1296 1050 Q1415 1049 1495 1006.5 Q1575 964 1621 891.5 Q1667 819 1680.5 722.5 Q1694 626 1681 517 L1666 449 L1019 449 Q1023 408 1038.5 369 Q1054 330 1080.5 300 Q1107 270 1142.5 251.5 Q1178 233 1221 233 Q1266 233 1305 238 Q1344 243 1385.5 254.5 Q1427 266 1474 285 Q1521 304 1581 332 L1632 85 Q1533 38 1421 6.5 Q1309 -25 1185 -22 L1175 -22 Q1053 -22 969 10 Q885 42 835 113 Q808 85 774.5 64 Q741 43 702 26 Q593 -21 467 -21 Z " />
<glyph glyph-name="ccedilla" unicode="&#xe7;" horiz-adv-x="1071" d="M366 -240 Q388 -251 412.5 -261 Q437 -271 461 -278.5 Q485 -286 505.5 -291 Q526 -296 541 -296 Q580 -296 583 -273 Q586 -249 563.5 -232.5 Q541 -216 503 -209 L436 -199 L500 24 L691 24 L665 -81 Q703 -89 729 -104.5 Q755 -120 774 -145 Q824 -212 814 -293 Q807 -350 782.5 -390.5 Q758 -431 722 -457 Q686 -483 641 -495 Q596 -507 548 -507 Q491 -507 436 -489 Q381 -471 327 -436 L366 -240 Z M612 -22 Q484 -22 385.5 22 Q287 66 229 142 Q172 218 147.5 313 Q123 408 137 514 Q146 588 169 655.5 Q192 723 230 783 Q268 842 323 892 Q378 942 445 978 Q510 1013 584 1031.5 Q658 1050 740 1050 Q987 1050 1119 887 L982 666 Q922 726 856 755 Q790 784 732 784 Q623 784 554 713 Q486 643 469 513 Q461 450 472 400.5 Q483 351 509 315 Q537 285 580 265 Q623 245 674 245 Q694 245 727.5 251.5 Q761 258 800.5 272.5 Q840 287 881.5 310.5 Q923 334 961 367 L1018 112 Q964 77 913.5 52 Q863 27 813.5 10.5 Q764 -6 714.5 -14 Q665 -22 612 -22 Z " />
<glyph glyph-name="egrave" unicode="&#xe8;" horiz-adv-x="1206" d="M558 1163 L240 1455 L608 1455 L838 1163 L558 1163 Z M866 651 Q858 730 820 767.5 Q782 805 718 805 Q639 805 580.5 762.5 Q522 720 496 651 L866 651 Z M634 -22 Q373 -22 239 127 Q106 280 134 512 Q148 618 195 713.5 Q242 809 317 886 Q394 963 501.5 1006.5 Q609 1050 735 1050 Q862 1050 952.5 1006.5 Q1043 963 1088 885 Q1132 809 1147 716.5 Q1162 624 1149 515 Q1147 498 1144 478.5 Q1141 459 1138 442 L463 442 Q466 396 483 358 Q500 320 529.5 292.5 Q559 265 598.5 250 Q638 235 686 235 Q755 235 845 263 Q935 291 1037 357 L1095 121 Q977 45 865 11.5 Q753 -22 634 -22 Z " />
<glyph glyph-name="eacute" unicode="&#xe9;" horiz-adv-x="1206" d="M866 651 Q858 730 820 767.5 Q782 805 718 805 Q639 805 580.5 762.5 Q522 720 496 651 L866 651 Z M634 -22 Q373 -22 239 127 Q106 280 134 512 Q148 618 195 713.5 Q242 809 317 886 Q394 963 501.5 1006.5 Q609 1050 735 1050 Q862 1050 952.5 1006.5 Q1043 963 1088 885 Q1132 809 1147 716.5 Q1162 624 1149 515 Q1147 498 1144 478.5 Q1141 459 1138 442 L463 442 Q466 396 483 358 Q500 320 529.5 292.5 Q559 265 598.5 250 Q638 235 686 235 Q755 235 845 263 Q935 291 1037 357 L1095 121 Q977 45 865 11.5 Q753 -22 634 -22 Z M642 1163 L946 1456 L1314 1456 L920 1163 L642 1163 Z " />
<glyph glyph-name="ecircumflex" unicode="&#xea;" horiz-adv-x="1206" d="M866 651 Q858 730 820 767.5 Q782 805 718 805 Q639 805 580.5 762.5 Q522 720 496 651 L866 651 Z M634 -22 Q373 -22 239 127 Q106 280 134 512 Q148 618 195 713.5 Q242 809 317 886 Q394 963 501.5 1006.5 Q609 1050 735 1050 Q862 1050 952.5 1006.5 Q1043 963 1088 885 Q1132 809 1147 716.5 Q1162 624 1149 515 Q1147 498 1144 478.5 Q1141 459 1138 442 L463 442 Q466 396 483 358 Q500 320 529.5 292.5 Q559 265 598.5 250 Q638 235 686 235 Q755 235 845 263 Q935 291 1037 357 L1095 121 Q977 45 865 11.5 Q753 -22 634 -22 Z M392 1160 L677 1507 L913 1507 L1120 1160 L861 1160 L777 1306 L652 1160 L392 1160 Z " />
<glyph glyph-name="edieresis" unicode="&#xeb;" horiz-adv-x="1206" d="M866 651 Q858 730 820 767.5 Q782 805 718 805 Q639 805 580.5 762.5 Q522 720 496 651 L866 651 Z M634 -22 Q373 -22 239 127 Q106 280 134 512 Q148 618 195 713.5 Q242 809 317 886 Q394 963 501.5 1006.5 Q609 1050 735 1050 Q862 1050 952.5 1006.5 Q1043 963 1088 885 Q1132 809 1147 716.5 Q1162 624 1149 515 Q1147 498 1144 478.5 Q1141 459 1138 442 L463 442 Q466 396 483 358 Q500 320 529.5 292.5 Q559 265 598.5 250 Q638 235 686 235 Q755 235 845 263 Q935 291 1037 357 L1095 121 Q977 45 865 11.5 Q753 -22 634 -22 Z M832 1181 L866 1457 L1167 1457 L1133 1181 L832 1181 Z M371 1181 L405 1457 L706 1457 L672 1181 L371 1181 Z " />
<glyph glyph-name="igrave" unicode="&#xec;" horiz-adv-x="485" d="M220 1165 L-98 1457 L270 1457 L500 1165 L220 1165 Z M55 0 L180 1026 L506 1026 L381 0 L55 0 Z " />
<glyph glyph-name="iacute" unicode="&#xed;" horiz-adv-x="485" d="M55 0 L180 1026 L506 1026 L381 0 L55 0 Z M223 1166 L527 1459 L895 1459 L501 1166 L223 1166 Z " />
<glyph glyph-name="icircumflex" unicode="&#xee;" horiz-adv-x="485" d="M55 0 L180 1026 L506 1026 L381 0 L55 0 Z M-16 1181 L269 1528 L505 1528 L712 1181 L453 1181 L369 1327 L244 1181 L-16 1181 Z " />
<glyph glyph-name="idieresis" unicode="&#xef;" horiz-adv-x="485" d="M55 0 L180 1026 L506 1026 L381 0 L55 0 Z M427 1181 L461 1457 L762 1457 L728 1181 L427 1181 Z M-34 1181 L0 1457 L301 1457 L267 1181 L-34 1181 Z " />
<glyph glyph-name="eth" unicode="&#xf0;" horiz-adv-x="1217" d="M608 241 Q636 241 667 253.5 Q698 266 726 291.5 Q754 317 774.5 355.5 Q795 394 801 447 Q807 491 797 525 Q787 559 763 585 Q712 638 641 638 Q611 638 580 628 Q549 618 522.5 596 Q496 574 477 539 Q458 504 452 454 Q439 345 485 296 Q536 241 608 241 Z M557 -23 Q444 -23 355 17.5 Q266 58 212 127 Q159 197 135.5 286.5 Q112 376 124 475 Q148 672 280 792 Q366 872 489 898 L416 1090 L514 1136 Q485 1144 454.5 1152 Q424 1160 395 1167 Q390 1168 382 1168 Q374 1168 372 1168 L505 1386 Q545 1386 590.5 1379 Q636 1372 678 1360 Q718 1349 763 1330 Q808 1311 846 1291 Q912 1323 982 1356 Q1052 1389 1118 1419 L1191 1221 L1026 1143 Q1107 1042 1143 907.5 Q1179 773 1159 612 Q1139 450 1091 330.5 Q1043 211 965 133 Q889 54 787 15.5 Q685 -23 557 -23 Z M758 1017 Q701 990 640.5 960.5 Q580 931 520 904 Q544 908 570 910 Q596 912 622 912 Q772 912 877 835 Q871 882 841 926.5 Q811 971 758 1017 Z " />
<glyph glyph-name="ntilde" unicode="&#xf1;" horiz-adv-x="1224" d="M828 1176 Q784 1176 734 1201 L651 1243 Q621 1261 614 1261 Q607 1261 591 1180 L383 1180 Q392 1255 413 1311 Q434 1367 465 1404 Q533 1482 631 1483 Q655 1484 679.5 1478.5 Q704 1473 727.5 1464 Q751 1455 772.5 1443 Q794 1431 812 1421 Q829 1411 838 1405 Q847 1399 849 1398 L857 1398 Q860 1398 864 1415.5 Q868 1433 873 1483 L1086 1483 Q1067 1329 999.5 1253 Q932 1177 829 1176 L828 1176 Z M121 0 L197 625 Q204 676 208 722 Q212 768 215 813 Q220 858 221 889 Q222 920 222 940 L224 1026 L566 1026 L559 963 Q584 985 615.5 1001 Q647 1017 680 1028 Q713 1039 746.5 1044.5 Q780 1050 809 1050 Q904 1050 970.5 1025.5 Q1037 1001 1084 945 L1083 945 Q1181 835 1150 579 L1079 0 L754 0 L827 595 Q831 628 832 661.5 Q833 695 824.5 722 Q816 749 794 766 Q772 783 730 783 Q704 783 670 771 Q636 759 604.5 736.5 Q573 714 549 681 Q525 648 520 606 L446 0 L121 0 Z " />
<glyph glyph-name="ograve" unicode="&#xf2;" horiz-adv-x="1286" d="M619 -22 Q482 -22 382 21.5 Q282 65 226 141 Q169 218 147 312 Q125 406 138 513 Q152 621 197.5 716 Q243 811 319 887 Q395 964 505 1007 Q615 1050 749 1050 Q885 1050 985 1006.5 Q1085 963 1139 888 Q1191 814 1212.5 717.5 Q1234 621 1220 511 Q1207 406 1162.5 312.5 Q1118 219 1044 142 Q971 67 861 22.5 Q751 -22 619 -22 Z M647 245 Q703 245 744.5 267.5 Q786 290 815.5 327.5 Q845 365 862 414 Q879 463 886 516 Q894 578 886.5 626.5 Q879 675 855 713 Q835 748 799 765.5 Q763 783 714 783 Q661 783 619 761.5 Q577 740 546.5 704 Q516 668 498 619.5 Q480 571 474 516 Q463 433 478 376 Q491 319 534 282 Q577 245 647 245 Z M625 1163 L307 1455 L675 1455 L905 1163 L625 1163 Z " />
<glyph glyph-name="oacute" unicode="&#xf3;" horiz-adv-x="1286" d="M619 -22 Q482 -22 382 21.5 Q282 65 226 141 Q169 218 147 312 Q125 406 138 513 Q152 621 197.5 716 Q243 811 319 887 Q395 964 505 1007 Q615 1050 749 1050 Q885 1050 985 1006.5 Q1085 963 1139 888 Q1191 814 1212.5 717.5 Q1234 621 1220 511 Q1207 406 1162.5 312.5 Q1118 219 1044 142 Q971 67 861 22.5 Q751 -22 619 -22 Z M647 245 Q703 245 744.5 267.5 Q786 290 815.5 327.5 Q845 365 862 414 Q879 463 886 516 Q894 578 886.5 626.5 Q879 675 855 713 Q835 748 799 765.5 Q763 783 714 783 Q661 783 619 761.5 Q577 740 546.5 704 Q516 668 498 619.5 Q480 571 474 516 Q463 433 478 376 Q491 319 534 282 Q577 245 647 245 Z M640 1165 L944 1458 L1312 1458 L918 1165 L640 1165 Z " />
<glyph glyph-name="ocircumflex" unicode="&#xf4;" horiz-adv-x="1286" d="M619 -22 Q482 -22 382 21.5 Q282 65 226 141 Q169 218 147 312 Q125 406 138 513 Q152 621 197.5 716 Q243 811 319 887 Q395 964 505 1007 Q615 1050 749 1050 Q885 1050 985 1006.5 Q1085 963 1139 888 Q1191 814 1212.5 717.5 Q1234 621 1220 511 Q1207 406 1162.5 312.5 Q1118 219 1044 142 Q971 67 861 22.5 Q751 -22 619 -22 Z M647 245 Q703 245 744.5 267.5 Q786 290 815.5 327.5 Q845 365 862 414 Q879 463 886 516 Q894 578 886.5 626.5 Q879 675 855 713 Q835 748 799 765.5 Q763 783 714 783 Q661 783 619 761.5 Q577 740 546.5 704 Q516 668 498 619.5 Q480 571 474 516 Q463 433 478 376 Q491 319 534 282 Q577 245 647 245 Z M385 1171 L670 1518 L906 1518 L1113 1171 L854 1171 L770 1317 L645 1171 L385 1171 Z " />
<glyph glyph-name="otilde" unicode="&#xf5;" horiz-adv-x="1286" d="M830 1140 Q786 1140 736 1165 L653 1207 Q623 1225 616 1225 Q609 1225 593 1144 L385 1144 Q394 1219 415 1275 Q436 1331 467 1368 Q535 1446 633 1447 Q657 1448 681.5 1442.5 Q706 1437 729.5 1428 Q753 1419 774.5 1407 Q796 1395 814 1385 Q831 1375 840 1369 Q849 1363 851 1362 L859 1362 Q862 1362 866 1379.5 Q870 1397 875 1447 L1088 1447 Q1069 1293 1001.5 1217 Q934 1141 831 1140 L830 1140 Z M619 -22 Q482 -22 382 21.5 Q282 65 226 141 Q169 218 147 312 Q125 406 138 513 Q152 621 197.5 716 Q243 811 319 887 Q395 964 505 1007 Q615 1050 749 1050 Q885 1050 985 1006.5 Q1085 963 1139 888 Q1191 814 1212.5 717.5 Q1234 621 1220 511 Q1207 406 1162.5 312.5 Q1118 219 1044 142 Q971 67 861 22.5 Q751 -22 619 -22 Z M647 245 Q703 245 744.5 267.5 Q786 290 815.5 327.5 Q845 365 862 414 Q879 463 886 516 Q894 578 886.5 626.5 Q879 675 855 713 Q835 748 799 765.5 Q763 783 714 783 Q661 783 619 761.5 Q577 740 546.5 704 Q516 668 498 619.5 Q480 571 474 516 Q463 433 478 376 Q491 319 534 282 Q577 245 647 245 Z " />
<glyph glyph-name="odieresis" unicode="&#xf6;" horiz-adv-x="1252" d="M619 -22 Q482 -22 382 21.5 Q282 65 226 141 Q169 218 147 312 Q125 406 138 513 Q152 621 197.5 716 Q243 811 319 887 Q395 964 505 1007 Q615 1050 749 1050 Q885 1050 985 1006.5 Q1085 963 1139 888 Q1191 814 1212.5 717.5 Q1234 621 1220 511 Q1207 406 1162.5 312.5 Q1118 219 1044 142 Q971 67 861 22.5 Q751 -22 619 -22 Z M647 245 Q703 245 744.5 267.5 Q786 290 815.5 327.5 Q845 365 862 414 Q879 463 886 516 Q894 578 886.5 626.5 Q879 675 855 713 Q835 748 799 765.5 Q763 783 714 783 Q661 783 619 761.5 Q577 740 546.5 704 Q516 668 498 619.5 Q480 571 474 516 Q463 433 478 376 Q491 319 534 282 Q577 245 647 245 Z M834 1177 L868 1453 L1169 1453 L1135 1177 L834 1177 Z M373 1177 L407 1453 L708 1453 L674 1177 L373 1177 Z " />
<glyph glyph-name="divide" unicode="&#xf7;" horiz-adv-x="1499" d="M649 791 L690 1131 L979 1131 L938 791 L649 791 Z M179 423 L214 702 L1337 702 L1302 423 L179 423 Z M552 -18 L594 322 L883 322 L843 -18 L552 -18 Z " />
<glyph glyph-name="oslash" unicode="&#xf8;" horiz-adv-x="1271" d="M474 516 Q462 424 483 362 L731 783 L714 783 Q661 783 619 761.5 Q577 740 546.5 704 Q516 668 498 619.5 Q480 571 474 516 Z M631 245 L647 245 Q703 245 744.5 267.5 Q786 290 815.5 327.5 Q845 365 862 414 Q879 463 886 516 Q896 608 877 667 L631 245 Z M619 -22 Q539 -22 479 -10 Q453 -55 423.5 -103.5 Q394 -152 368 -197 L201 -115 L307 64 Q258 98 224 141.5 Q190 185 169 239 Q146 299 138 370 Q130 441 138 513 Q152 621 197.5 716 Q243 811 319 887 Q395 964 505 1007 Q615 1050 749 1050 Q786 1050 818.5 1047.5 Q851 1045 881 1039 L984 1213 L1152 1132 L1055 969 Q1105 936 1138.5 892 Q1172 848 1192 794 Q1215 732 1222.5 659.5 Q1230 587 1220 511 Q1207 406 1162.5 312.5 Q1118 219 1044 142 Q971 67 861 22.5 Q751 -22 619 -22 Z " />
<glyph glyph-name="ugrave" unicode="&#xf9;" horiz-adv-x="1186" d="M502 -22 Q309 -22 213 89 Q167 145 148.5 219 Q130 293 141 387 L219 1026 L543 1026 L465 390 Q456 317 487.5 281 Q519 245 582 245 Q660 245 702.5 286 Q745 327 756 420 L830 1026 L1155 1026 L1066 297 L1043 0 L709 0 L715 53 Q676 24 620.5 1 Q565 -22 502 -22 Z M566 1163 L248 1455 L616 1455 L846 1163 L566 1163 Z " />
<glyph glyph-name="uacute" unicode="&#xfa;" horiz-adv-x="1186" d="M502 -22 Q309 -22 213 89 Q167 145 148.5 219 Q130 293 141 387 L219 1026 L543 1026 L465 390 Q456 317 487.5 281 Q519 245 582 245 Q660 245 702.5 286 Q745 327 756 420 L830 1026 L1155 1026 L1066 297 L1043 0 L709 0 L715 53 Q676 24 620.5 1 Q565 -22 502 -22 Z M587 1163 L891 1456 L1259 1456 L865 1163 L587 1163 Z " />
<glyph glyph-name="ucircumflex" unicode="&#xfb;" horiz-adv-x="1186" d="M502 -22 Q309 -22 213 89 Q167 145 148.5 219 Q130 293 141 387 L219 1026 L543 1026 L465 390 Q456 317 487.5 281 Q519 245 582 245 Q660 245 702.5 286 Q745 327 756 420 L830 1026 L1155 1026 L1066 297 L1043 0 L709 0 L715 53 Q676 24 620.5 1 Q565 -22 502 -22 Z M354 1174 L639 1521 L875 1521 L1082 1174 L823 1174 L739 1320 L614 1174 L354 1174 Z " />
<glyph glyph-name="udieresis" unicode="&#xfc;" horiz-adv-x="1186" d="M502 -22 Q309 -22 213 89 Q167 145 148.5 219 Q130 293 141 387 L219 1026 L543 1026 L465 390 Q456 317 487.5 281 Q519 245 582 245 Q660 245 702.5 286 Q745 327 756 420 L830 1026 L1155 1026 L1066 297 L1043 0 L709 0 L715 53 Q676 24 620.5 1 Q565 -22 502 -22 Z M797 1179 L831 1455 L1132 1455 L1098 1179 L797 1179 Z M336 1179 L370 1455 L671 1455 L637 1179 L336 1179 Z " />
<glyph glyph-name="thorn" unicode="&#xfe;" horiz-adv-x="1229" d="M624 245 Q672 245 709 267.5 Q746 290 772.5 328 Q799 366 815.5 416 Q832 466 838 520 Q844 571 841.5 618 Q839 665 823 701 Q807 737 776.5 759 Q746 781 697 781 Q645 781 607 757.5 Q569 734 542.5 694.5 Q516 655 500 603 Q484 551 477 495 Q470 437 477.5 390 Q485 343 502 309 Q543 245 624 245 Z M61 -364 L283 1448 L599 1448 L541 1000 Q554 1006 566.5 1010.5 Q579 1015 593 1020 Q634 1034 673.5 1041.5 Q713 1049 748 1049 Q865 1049 955 1006 Q1045 963 1097 889 Q1146 816 1167 721 Q1188 626 1176 524 Q1163 418 1120 319.5 Q1077 221 1006.5 145 Q936 69 837.5 23.5 Q739 -22 615 -22 Q562 -22 512.5 -10 Q463 2 418 23 Q413 -23 406.5 -68.5 Q400 -114 395 -162 L370 -364 L61 -364 Z " />
<glyph glyph-name="ydieresis" unicode="&#xff;" horiz-adv-x="1114" d="M81 -195 Q167 -162 226 -134 Q285 -106 320 -79 Q378 -35 405 27 L404 26 L417 59 Q342 299 266 543 Q190 787 115 1026 L457 1026 L621 442 L894 1026 L1229 1026 L697 -26 Q670 -76 636.5 -122 Q603 -168 563 -209 Q485 -287 392.5 -337 Q300 -387 191 -420 L81 -195 Z M790 1105 L824 1381 L1125 1381 L1091 1105 L790 1105 Z M329 1105 L363 1381 L664 1381 L630 1105 L329 1105 Z " />
<glyph glyph-name="dotlessi" unicode="&#x131;" horiz-adv-x="485" d="M55 0 L180 1026 L506 1026 L381 0 L55 0 Z " />
<glyph glyph-name="Lslash" unicode="&#x141;" horiz-adv-x="1166" d="M41 343 L81 669 L786 1171 L746 845 L41 343 Z M146 0 L324 1456 L662 1456 L519 289 L1155 289 L1120 0 L146 0 Z " />
<glyph glyph-name="lslash" unicode="&#x142;" horiz-adv-x="503" d="M70 0 L144 606 Q116 584 85 559 Q54 534 31 514 L70 834 L181 928 L242 1423 L569 1423 L540 1187 L644 1276 L604 950 L501 859 L396 0 L70 0 Z " />
<glyph glyph-name="OE" unicode="&#x152;" horiz-adv-x="2057" d="M837 248 Q916 248 965 264.5 Q1014 281 1036 294 L1140 1146 Q1106 1169 1062 1182 Q1018 1195 967 1195 Q957 1195 943 1194.5 Q929 1194 916 1192 L917 1192 Q865 1185 815.5 1168 Q766 1151 718 1116 Q648 1068 596.5 972.5 Q545 877 526 725 Q496 490 583 368 Q626 307 688.5 278 Q751 249 834 248 L837 248 Z M1151 1451 Q1160 1447 1164 1447 Q1168 1447 1177 1442 L1178 1456 L2065 1456 L2030 1168 L1480 1168 L1446 889 L1960 889 L1924 600 L1413 600 L1375 288 L1948 288 L1913 0 L1000 0 L1002 22 Q965 6 913 -7.5 Q861 -21 797 -23 L771 -23 Q625 -23 508.5 23 Q392 69 308 160 Q265 206 233.5 266.5 Q202 327 184 399 Q166 471 162 554.5 Q158 638 169 731 Q179 812 203.5 889 Q228 966 263 1036 Q298 1106 341.5 1166.5 Q385 1227 433 1274 Q483 1319 540.5 1355.5 Q598 1392 661 1419 Q724 1446 790.5 1462 Q857 1478 924 1481 L932 1481 Q934 1481 937 1481.5 Q940 1482 943 1482 L958 1482 Q1018 1482 1069 1473 Q1120 1464 1151 1452 L1151 1451 Z " />
<glyph glyph-name="oe" unicode="&#x153;" horiz-adv-x="1924" d="M1579 672 Q1579 700 1563.5 721.5 Q1548 743 1523.5 758 Q1499 773 1469.5 780.5 Q1440 788 1413 788 Q1353 788 1302 759 Q1251 730 1226 672 L1579 672 Z M659 245 Q707 245 744 266.5 Q781 288 807.5 325 Q834 362 850.5 410 Q867 458 873 511 Q889 640 848 715 Q812 783 719 783 Q626 783 562 711 Q498 638 481 511 Q473 451 481.5 401 Q490 351 513 313 Q535 281 572.5 263 Q610 245 659 245 Z M624 -21 Q375 -21 245 129 Q116 279 145 511 Q174 745 336 897 Q498 1050 748 1050 Q865 1050 950.5 1013.5 Q1036 977 1088 917 Q1157 984 1243.5 1018.5 Q1330 1053 1450 1053 Q1676 1053 1782 899 Q1888 746 1858 500 L1848 418 L1188 418 Q1191 381 1207 349.5 Q1223 318 1251 294.5 Q1279 271 1319 258 Q1359 245 1410 245 Q1442 245 1477 245.5 Q1512 246 1553 254.5 Q1594 263 1641.5 282.5 Q1689 302 1747 340 L1813 108 Q1753 65 1701 39.5 Q1649 14 1595.5 0.5 Q1542 -13 1483 -17 Q1424 -21 1351 -21 Q1290 -21 1232 -8 Q1174 5 1120 29 Q1082 47 1048.5 69 Q1015 91 993 116 Q980 104 963.5 92.5 Q947 81 929 69.5 Q911 58 892.5 48 Q874 38 857 30 Q803 6 743 -7.5 Q683 -21 624 -21 Z " />
<glyph glyph-name="Scaron" unicode="&#x160;" horiz-adv-x="1256" d="M669 1578 L434 1945 L740 1945 L801 1855 L888 1945 L1204 1945 L878 1578 L669 1578 Z M600 -22 Q527 -22 455.5 -11.5 Q384 -1 317.5 22.5 Q251 46 191.5 83.5 Q132 121 84 174 L267 426 Q315 382 363.5 352.5 Q412 323 455 307 L455 308 Q551 275 620 275 Q720 275 771.5 310 Q823 345 832 417 Q836 456 827 478.5 Q818 501 789.5 519.5 Q761 538 709.5 558 Q658 578 578 611 L506 635 Q421 669 359 711 Q297 753 261 798 Q223 849 209 916.5 Q195 984 205 1065 Q222 1198 306 1297 Q389 1392 510 1437 Q631 1482 780 1482 Q865 1482 935.5 1473.5 Q1006 1465 1067.5 1442.5 Q1129 1420 1185.5 1381 Q1242 1342 1299 1280 L1086 1045 Q958 1183 778 1183 Q730 1183 689.5 1174.5 Q649 1166 617 1151 L618 1151 Q598 1140 584.5 1120.5 Q571 1101 567 1075 Q564 1048 569 1026.5 Q574 1005 598 984.5 Q622 964 670.5 941 Q719 918 802 887 Q839 875 867.5 865 Q896 855 914 849 Q1002 812 1060 770 Q1118 728 1150 680 Q1181 629 1192 562.5 Q1203 496 1192 412 Q1178 298 1120.5 211 Q1063 124 975 73 Q895 25 801.5 1.5 Q708 -22 600 -22 Z " />
<glyph glyph-name="scaron" unicode="&#x161;" horiz-adv-x="988" d="M508 -22 Q440 -22 381 -12 Q322 -2 269 16 Q214 34 166 62.5 Q118 91 77 126 L197 378 Q294 293 367 267 Q408 253 446 247 Q484 241 520 241 Q573 241 601 256.5 Q629 272 634 309 Q637 328 625.5 341.5 Q614 355 588 367.5 Q562 380 520 393.5 Q478 407 420 427 Q363 445 315 469 Q267 493 233 528 Q199 563 181.5 612.5 Q164 662 169 733 Q179 816 221 879 Q263 942 329 981 Q442 1048 605 1048 Q705 1048 804.5 1018.5 Q904 989 985 932 L869 697 Q776 749 708 769 Q676 778 645.5 783 Q615 788 590 788 Q539 788 514 779 Q489 770 486 750 Q485 736 489 726.5 Q493 717 506 708 Q519 699 544.5 688.5 Q570 678 612 662 Q675 639 716 624 Q757 609 783.5 597.5 Q810 586 825.5 578 Q841 570 852 562 Q902 526 927 464 Q952 402 940 308 Q929 214 885.5 151 Q842 88 780.5 49.5 Q719 11 647.5 -5.5 Q576 -22 508 -22 Z M508 1148 L273 1515 L579 1515 L640 1425 L727 1515 L1043 1515 L717 1148 L508 1148 Z " />
<glyph glyph-name="Ydieresis" unicode="&#x178;" horiz-adv-x="1369" d="M904 1535 L938 1811 L1239 1811 L1205 1535 L904 1535 Z M443 1535 L477 1811 L778 1811 L744 1535 L443 1535 Z M508 0 L577 562 Q475 783 371 1009 Q267 1235 166 1456 L559 1456 L794 895 Q827 946 861 995.5 Q895 1045 927 1096 Q987 1186 1046.5 1276.5 Q1106 1367 1165 1456 L1563 1456 L924 564 L855 0 L508 0 Z " />
<glyph glyph-name="Zcaron" unicode="&#x17d;" horiz-adv-x="1202" d="M691 1578 L456 1945 L762 1945 L823 1855 L910 1945 L1226 1945 L900 1578 L691 1578 Z M51 0 L73 186 L802 1159 L218 1159 L254 1456 L1311 1456 L1289 1274 L557 297 L1168 297 L1132 0 L51 0 Z " />
<glyph glyph-name="zcaron" unicode="&#x17e;" horiz-adv-x="998" d="M61 0 L82 173 L563 762 L177 762 L209 1026 L1025 1026 L1004 855 L518 263 L955 263 L923 0 L61 0 Z M560 1148 L325 1515 L631 1515 L692 1425 L779 1515 L1095 1515 L769 1148 L560 1148 Z " />
<glyph glyph-name="florin" unicode="&#x192;" horiz-adv-x="1111" d="M174 -290 Q118 -290 28 -259 L83 10 Q135 -1 167 -5.5 Q199 -10 215 -10 Q228 -10 237 -7 Q246 -4 259 6 Q273 15 289 49 Q305 83 320 129 Q327 155 336 184 Q345 213 354 242 Q363 271 371.5 299 Q380 327 388 351 Q403 404 422 466.5 Q441 529 457 583 L326 583 L412 815 L530 815 Q549 878 568.5 941 Q588 1004 608 1067 L613 1084 Q616 1095 619.5 1105 Q623 1115 627 1126 Q632 1138 640 1155 Q648 1172 657.5 1190 Q667 1208 677 1225.5 Q687 1243 697 1258 Q721 1289 752.5 1318 Q784 1347 824 1368.5 Q864 1390 914 1403 Q964 1416 1025 1416 Q1083 1416 1131.5 1404.5 Q1180 1393 1202 1380 L1229 1364 L1244 1354 L1189 1091 Q1134 1108 1097.5 1117.5 Q1061 1127 1044 1127 Q1034 1127 1022 1124.5 Q1010 1122 998 1113 Q986 1104 974.5 1087 Q963 1070 954 1040 Q935 980 917.5 927 Q900 874 882 815 L1022 815 L946 583 L804 583 Q766 456 727 329 Q688 202 651 75 Q621 -23 575.5 -92.5 Q530 -162 468 -207 Q410 -248 337 -269 Q264 -290 174 -290 Z " />
<glyph glyph-name="circumflex" unicode="&#x2c6;" horiz-adv-x="699" d="M122 1176 L407 1523 L643 1523 L850 1176 L591 1176 L507 1322 L382 1176 L122 1176 Z " />
<glyph glyph-name="caron" unicode="&#x2c7;" horiz-adv-x="699" d="M376 1148 L141 1515 L447 1515 L508 1425 L595 1515 L911 1515 L585 1148 L376 1148 Z " />
<glyph glyph-name="breve" unicode="&#x2d8;" horiz-adv-x="700" d="M481 1146 Q186 1146 202 1456 L437 1456 Q434 1378 448 1371 Q461 1363 474 1360.5 Q487 1358 507 1358 Q523 1358 537 1362.5 Q551 1367 562.5 1378 Q574 1389 583.5 1408 Q593 1427 599 1456 L834 1456 Q802 1295 714 1220.5 Q626 1146 481 1146 Z " />
<glyph glyph-name="dotaccent" unicode="&#x2d9;" horiz-adv-x="524" d="M232 1117 L265 1385 L563 1385 L530 1117 L232 1117 Z " />
<glyph glyph-name="ring" unicode="&#x2da;" horiz-adv-x="700" d="M461 1087 Q353 1087 289 1157 L288 1156 Q221 1226 234 1330 Q246 1433 330 1503 Q411 1572 521 1572 Q628 1572 693 1504 Q725 1469 740 1424.5 Q755 1380 749 1330 Q736 1230 652 1157 Q570 1087 461 1087 Z M484 1268 Q503 1268 523 1286 L522 1286 Q539 1303 543 1330 Q546 1355 533 1371 Q518 1389 499 1389 Q478 1389 461.5 1372 Q445 1355 442 1330 Q438 1304 450 1287 Q466 1268 484 1268 Z " />
<glyph glyph-name="ogonek" unicode="&#x2db;" horiz-adv-x="508" d="M238 -314 Q189 -314 146 -303 Q103 -292 71.5 -271.5 Q40 -251 23.5 -221.5 Q7 -192 12 -154 Q16 -115 32.5 -83 Q49 -51 73.5 -24.5 Q98 2 129.5 24 Q161 46 196 65 L195 65 L226 81 L262 99 L483 100 Q417 34 382 -16.5 Q347 -67 361 -94 Q363 -99 380.5 -98.5 Q398 -98 424.5 -92.5 Q451 -87 483.5 -78 Q516 -69 548 -56 L522 -267 Q486 -278 446.5 -287 Q407 -296 369 -302 Q331 -308 297 -311 Q263 -314 238 -314 Z " />
<glyph glyph-name="tilde" unicode="&#x2dc;" horiz-adv-x="739" d="M614 1138 Q570 1138 520 1163 L437 1205 Q407 1223 400 1223 Q393 1223 377 1142 L169 1142 Q178 1217 199 1273 Q220 1329 251 1366 Q319 1444 417 1445 Q441 1446 465.5 1440.5 Q490 1435 513.5 1426 Q537 1417 558.5 1405 Q580 1393 598 1383 Q615 1373 624 1367 Q633 1361 635 1360 L643 1360 Q646 1360 650 1377.5 Q654 1395 659 1445 L872 1445 Q853 1291 785.5 1215 Q718 1139 615 1138 L614 1138 Z " />
<glyph glyph-name="hungarumlaut" unicode="&#x2dd;" horiz-adv-x="969" d="M524 1114 L783 1463 L1115 1463 L741 1114 L524 1114 Z M205 1114 L407 1463 L702 1463 L412 1114 L205 1114 Z " />
<glyph glyph-name="pi" unicode="&#x3c0;" horiz-adv-x="1477" d="M1084 -12 Q961 -12 897 41 Q825 103 841 235 Q844 258 849.5 290 Q855 322 862 359 Q869 396 878 437 Q887 478 896 520 Q914 599 931.5 666 Q949 733 966 792 L761 792 Q741 677 721 564 Q701 451 682 336 Q674 293 664.5 258 Q655 223 641 194 Q627 164 605 137 Q583 110 555 85 Q501 41 403.5 22.5 Q306 4 152 4 L174 184 Q199 184 234 194 Q269 204 304 229 Q339 254 369.5 296.5 Q400 339 416 403 L518 792 L496 792 Q464 790 442.5 761 Q421 732 404 671 L223 671 Q248 883 338 980 Q383 1030 450 1053.5 Q517 1077 608 1077 L1473 1077 L1438 792 L1219 792 Q1196 677 1177.5 546 Q1159 415 1139 260 Q1137 240 1149 233.5 Q1161 227 1184 227 Q1206 227 1242 235.5 Q1278 244 1329 260 L1306 68 Q1212 -12 1084 -12 Z " />
<glyph glyph-name="endash" unicode="&#x2013;" horiz-adv-x="1161" d="M53 423 L88 704 L1227 704 L1192 423 L53 423 Z " />
<glyph glyph-name="emdash" unicode="&#x2014;" horiz-adv-x="2171" d="M61 427 L95 704 L2185 704 L2151 427 L61 427 Z " />
<glyph glyph-name="quoteleft" unicode="&#x2018;" horiz-adv-x="576" d="M371 835 L268 1456 L616 1456 L581 835 L371 835 Z " />
<glyph glyph-name="quoteright" unicode="&#x2019;" horiz-adv-x="632" d="M189 836 L372 1456 L713 1456 L425 836 L189 836 Z " />
<glyph glyph-name="quotesinglbase" unicode="&#x201a;" horiz-adv-x="696" d="M64 -306 L265 331 L631 331 L368 -306 L64 -306 Z " />
<glyph glyph-name="quotedblleft" unicode="&#x201c;" horiz-adv-x="1024" d="M623 835 L893 1456 L1157 1456 L958 835 L623 835 Z M185 835 L469 1456 L731 1456 L533 835 L185 835 Z " />
<glyph glyph-name="quotedblright" unicode="&#x201d;" horiz-adv-x="1024" d="M618 835 L817 1456 L1149 1456 L888 835 L618 835 Z M227 835 L421 1456 L757 1456 L498 835 L227 835 Z " />
<glyph glyph-name="quotedblbase" unicode="&#x201e;" horiz-adv-x="1024" d="M386 -207 L577 331 L942 331 L687 -207 L386 -207 Z M8 -207 L199 331 L563 331 L317 -207 L8 -207 Z " />
<glyph glyph-name="dagger" unicode="&#x2020;" horiz-adv-x="1022" d="M322 0 L426 849 L119 849 L150 1100 L457 1100 L495 1415 L781 1415 L743 1100 L1054 1100 L1023 849 L715 849 L611 0 L322 0 Z " />
<glyph glyph-name="daggerdbl" unicode="&#x2021;" horiz-adv-x="1174" d="M241 1104 L559 1104 L602 1456 L909 1456 L866 1104 L1172 1104 L1140 844 L834 844 L802 585 L1100 585 L1069 332 L771 332 L717 -106 L410 -106 L464 332 L142 332 L173 585 L495 585 L527 844 L209 844 L241 1104 Z " />
<glyph glyph-name="bullet" unicode="&#x2022;" horiz-adv-x="989" d="M516 338 Q350 338 261 440 Q171 545 189 685 Q206 826 327 931 Q388 985 456 1010 Q524 1035 602 1035 Q684 1035 746.5 1010 Q809 985 854 931 L853 931 Q947 827 930 685 Q921 616 886 553.5 Q851 491 791 440 Q734 391 663.5 364.5 Q593 338 516 338 Z " />
<glyph glyph-name="ellipsis" unicode="&#x2026;" horiz-adv-x="1620" d="M1064 0 L1101 309 L1451 309 L1414 0 L1064 0 Z M573 0 L610 309 L962 309 L926 0 L573 0 Z M82 0 L119 309 L471 309 L435 0 L82 0 Z " />
<glyph glyph-name="perthousand" unicode="&#x2030;" horiz-adv-x="2755" d="M2195 -19 Q2016 -19 1921 96 Q1875 153 1855.5 224 Q1836 295 1847 380 Q1858 465 1894 535 Q1930 605 1991 664 Q2114 781 2292 781 Q2380 781 2448.5 750.5 Q2517 720 2565 664 Q2612 607 2631 535.5 Q2650 464 2639 380 Q2618 210 2496 95 Q2434 38 2360 9.5 Q2286 -19 2195 -19 Z M2224 212 Q2273 212 2302 251.5 Q2331 291 2342 380 Q2353 465 2334 507 Q2315 549 2264 549 Q2212 549 2183.5 508 Q2155 467 2144 381 Q2133 292 2153.5 252 Q2174 212 2224 212 Z M1388 -19 Q1209 -19 1114 96 Q1068 153 1049 224 Q1030 295 1041 380 Q1062 546 1184 664 Q1307 781 1485 781 Q1664 781 1759 664 Q1854 549 1833 380 Q1823 296 1785.5 224 Q1748 152 1690 95 Q1629 39 1554 10 Q1479 -19 1388 -19 Z M1416 212 Q1465 212 1494.5 251.5 Q1524 291 1535 380 Q1546 465 1527 507 Q1508 549 1457 549 Q1406 549 1377 508 Q1348 467 1337 381 Q1326 292 1346 252 Q1366 212 1416 212 Z M319 0 L1429 1456 L1734 1456 L624 0 L319 0 Z M559 674 Q377 674 284 780 Q190 891 212 1073 Q223 1161 260.5 1234.5 Q298 1308 355 1362 Q415 1416 490.5 1444.5 Q566 1473 657 1473 Q748 1473 817 1444 Q886 1415 933 1362 Q978 1308 997.5 1234.5 Q1017 1161 1006 1073 Q995 981 958.5 908.5 Q922 836 862 780 Q747 674 559 674 Z M588 905 Q639 905 667.5 944 Q696 983 707 1072 Q718 1158 700 1200.5 Q682 1243 629 1243 Q578 1243 550 1200.5 Q522 1158 511 1073 Q500 983 519.5 944 Q539 905 588 905 Z " />
<glyph glyph-name="guilsinglleft" unicode="&#x2039;" horiz-adv-x="725" d="M393 149 L150 552 L497 952 L794 952 L493 550 Q502 532 511.5 514 Q521 496 531 476 Q549 438 570 394.5 Q591 351 611.5 307.5 Q632 264 651.5 223 Q671 182 687 149 L393 149 Z " />
<glyph glyph-name="guilsinglright" unicode="&#x203a;" horiz-adv-x="725" d="M31 148 L331 550 Q316 582 301 613 Q286 644 272 676 Q255 710 237.5 746 Q220 782 202.5 818 Q185 854 168.5 888.5 Q152 923 139 952 L433 952 L676 549 L329 148 L31 148 Z " />
<glyph glyph-name="fraction" unicode="&#x2044;" horiz-adv-x="1134" d="M-77 0 L986 1456 L1331 1456 L270 0 L-77 0 Z " />
<glyph glyph-name="Euro" unicode="&#x20ac;" horiz-adv-x="1579" d="M142 475 L211 665 L330 665 Q331 679 333.5 695 Q336 711 338 727 L340 746 Q340 750 340.5 752 Q341 754 341 756.5 Q341 759 341.5 763.5 Q342 768 344 776 L178 776 L248 972 L399 972 Q437 1066 496.5 1146.5 Q556 1227 628 1288 Q684 1335 747 1371.5 Q810 1408 877 1432.5 Q944 1457 1012 1469.5 Q1080 1482 1147 1482 Q1435 1482 1644 1300 L1478 1058 Q1303 1191 1132 1191 Q1013 1191 907 1119 Q866 1093 832 1055.5 Q798 1018 769 972 L1210 972 L1135 776 L695 776 Q693 766 691.5 753 Q690 740 688 730 Q686 712 685 696 Q684 680 683 665 L1137 665 L1064 475 L713 475 Q732 431 758 397.5 Q784 364 816 338 L816 339 Q914 270 1035 270 Q1222 270 1455 442 L1537 164 Q1277 -21 982 -21 Q819 -21 686 39 Q615 69 557 113.5 Q499 158 454 218 Q412 274 384 338.5 Q356 403 343 475 L142 475 Z " />
<glyph glyph-name="trademark" unicode="&#x2122;" horiz-adv-x="1719" d="M341 770 L400 1250 L197 1250 L222 1454 L890 1454 L865 1250 L655 1250 L596 770 L341 770 Z M837 770 L921 1454 L1192 1454 L1315 1135 L1512 1454 L1782 1454 L1698 770 L1439 770 L1462 953 L1431 901 Q1411 869 1391 835 Q1371 801 1354 770 L1186 770 L1116 957 L1093 770 L837 770 Z " />
<glyph glyph-name="Omega" unicode="&#x2126;" horiz-adv-x="1603" d="M43 0 L48 283 L282 281 Q245 323 219.5 369 Q194 415 178 463 Q134 607 158 806 Q170 903 205.5 993 Q241 1083 296 1161 Q350 1233 422.5 1294 Q495 1355 581 1397 Q750 1478 954 1478 Q1028 1478 1097.5 1465.5 Q1167 1453 1229.5 1430 Q1292 1407 1346 1374.5 Q1400 1342 1442 1302 Q1484 1260 1516 1205.5 Q1548 1151 1568 1088 Q1588 1025 1595 954.5 Q1602 884 1593 809 Q1581 709 1555.5 622.5 Q1530 536 1491 465 L1491 466 Q1466 420 1426 371.5 Q1386 323 1341 281 Q1401 281 1465.5 282 Q1530 283 1589 283 L1520 0 L836 0 L863 223 Q943 270 1007.5 328.5 Q1072 387 1123 457 Q1171 526 1199.5 602.5 Q1228 679 1239 767 Q1241 782 1242 800 Q1243 818 1244 836 Q1244 853 1243 874 Q1242 895 1239 917 Q1236 939 1232 960.5 Q1228 982 1222 1000 Q1208 1039 1185 1075.5 Q1162 1112 1126 1139.5 Q1090 1167 1040 1184 Q990 1201 922 1201 Q871 1201 827.5 1190.5 Q784 1180 747 1163 Q710 1146 679.5 1122.5 Q649 1099 626 1074 Q597 1038 574.5 997 Q552 956 538 913 Q522 866 515 832.5 Q508 799 504 766 Q481 590 544 458 Q609 319 748 223 L721 0 L43 0 Z " />
<glyph glyph-name="partialdiff" unicode="&#x2202;" horiz-adv-x="1162" d="M498 253 Q539 253 577.5 271 Q616 289 653 333.5 Q690 378 724.5 453.5 Q759 529 791 645 Q781 668 767 687.5 Q753 707 736 724 Q700 760 660 760 Q575 760 498 671 Q457 623 433.5 566 Q410 509 402 442 Q391 354 416 303.5 Q441 253 498 253 Z M464 -23 Q244 -23 142 111 Q40 244 64 445 Q83 600 173 737 Q263 872 396 951 Q528 1028 680 1028 Q728 1028 768.5 1018.5 Q809 1009 841 992 L844 991 Q844 1042 833.5 1083.5 Q823 1125 804 1155 Q781 1187 749 1205 Q717 1223 680 1223 Q660 1223 639 1220.5 Q618 1218 589.5 1210.5 Q561 1203 522 1189.5 Q483 1176 426 1155 L427 1155 Q421 1152 415 1149 Q409 1146 400 1144.5 Q391 1143 376.5 1142 Q362 1141 338 1141 L349 1369 Q391 1397 438.5 1420 Q486 1443 534.5 1459.5 Q583 1476 632 1484.5 Q681 1493 727 1493 Q852 1493 944 1451.5 Q1036 1410 1092.5 1326.5 Q1149 1243 1168 1116.5 Q1187 990 1166 819 Q1151 695 1114.5 575.5 Q1078 456 1018 349 Q990 298 955 250 Q920 202 880 159 Q799 75 692.5 26 Q586 -23 464 -23 Z " />
<glyph glyph-name="product" unicode="&#x220f;" horiz-adv-x="1568" d="M144 -94 L301 1182 L152 1182 L185 1456 L1617 1456 L1589 1182 L1469 1182 L1312 -94 L945 -94 L1102 1182 L661 1182 L504 -94 L144 -94 Z " />
<glyph glyph-name="summation" unicode="&#x2211;" horiz-adv-x="1262" d="M15 -252 L37 -73 L601 612 Q553 695 507.5 778 Q462 861 414 943 Q367 1026 318 1113.5 Q269 1201 224 1282 L245 1456 L1348 1456 L1314 1180 L696 1180 L1003 613 L542 32 L1213 32 L1179 -252 L15 -252 Z " />
<glyph glyph-name="minus" unicode="&#x2212;" horiz-adv-x="1499" d="M194 268 L228 541 L1360 541 L1326 268 L194 268 Z " />
<glyph glyph-name="radical" unicode="&#x221a;" horiz-adv-x="1314" d="M450 -133 L254 593 Q216 586 174 577.5 Q132 569 94 563 L63 815 L511 885 L624 448 L779 845 Q849 1022 919.5 1199.5 Q990 1377 1057 1549 L1374 1549 L718 -133 L450 -133 Z " />
<glyph glyph-name="infinity" unicode="&#x221e;" horiz-adv-x="1742" d="M1285 446 Q1358 446 1397 497.5 Q1436 549 1447 633 Q1454 694 1422 732 Q1388 772 1320 772 Q1205 772 1061 611 Q1091 569 1119.5 538 Q1148 507 1171 487 Q1222 446 1285 446 Z M535 446 Q590 446 656 486.5 Q722 527 795 607 Q744 688 685 730 Q626 772 565 772 Q497 772 453 729 Q410 686 399 610 Q395 577 403 547.5 Q411 518 428 495 Q446 472 473.5 459 Q501 446 535 446 Z M492 217 Q314 217 217 340 Q121 463 142 632 Q162 785 294 893 L294 892 Q423 1002 584 1002 Q690 1002 781.5 948.5 Q873 895 948 796 Q1042 896 1141.5 949 Q1241 1002 1356 1002 Q1534 1002 1627 892 Q1723 781 1702 614 Q1681 444 1550 330 Q1422 217 1257 217 Q1151 217 1063.5 270 Q976 323 901 426 Q802 328 696.5 272.5 Q591 217 492 217 Z " />
<glyph glyph-name="integral" unicode="&#x222b;" horiz-adv-x="820" d="M161 -305 Q137 -305 113 -303 Q89 -301 68 -298 Q47 -295 30 -291 Q13 -287 3 -283 L-45 -265 L-13 -7 Q48 -21 91 -27.5 Q134 -34 160 -34 Q186 -34 197.5 -7.5 Q209 19 217 80 L347 1133 Q358 1221 390 1293 Q422 1365 473 1422 Q526 1476 599 1506.5 Q672 1537 759 1537 Q781 1537 803.5 1535 Q826 1533 847 1530 Q868 1527 885 1523.5 Q902 1520 913 1517 L912 1517 Q910 1517 913.5 1516 Q917 1515 923 1513.5 Q929 1512 936.5 1510 Q944 1508 949 1507 Q956 1506 971 1499 L937 1229 Q872 1248 829 1256.5 Q786 1265 763 1265 Q731 1265 715.5 1238 Q700 1211 692 1153 L563 98 Q541 -81 444 -191 Q343 -305 161 -305 Z " />
<glyph glyph-name="approxequal" unicode="&#x2248;" horiz-adv-x="1351" d="M49 203 Q94 310 136 377.5 Q178 445 225 477 Q248 493 270 504 Q292 515 315 521.5 Q338 528 362.5 530.5 Q387 533 416 533 Q475 533 546 518 Q617 503 706 472 Q835 425 927 425 Q952 425 965 436 Q972 447 985.5 486.5 Q999 526 1021 595 L1258 478 Q1217 370 1179.5 303 Q1142 236 1100 199 Q1078 180 1057 167 Q1036 154 1014 146.5 Q992 139 967 136 Q942 133 913 133 Q809 133 604 193 Q524 217 474 229.5 Q424 242 401 242 Q367 242 346 227 L346 228 Q336 219 315.5 181.5 Q295 144 263 75 L49 203 Z M119 766 Q162 870 205 936 Q248 1002 296 1036 Q320 1053 341.5 1064 Q363 1075 385.5 1081 Q408 1087 432.5 1089.5 Q457 1092 486 1092 Q535 1092 606.5 1077.5 Q678 1063 776 1033 Q924 984 996 984 Q1021 984 1034 995 Q1047 1017 1091 1154 L1328 1035 Q1271 887 1221 815 Q1171 745 1110 716 Q1059 692 982 692 Q891 692 675 752 Q513 800 471 800 Q453 800 438 795.5 Q423 791 413 784 L415 785 Q404 774 382 734.5 Q360 695 331 629 L119 766 Z " />
<glyph glyph-name="notequal" unicode="&#x2260;" horiz-adv-x="1387" d="M530 27 L251 72 L376 283 L151 283 L183 543 L541 543 Q557 567 569.5 588.5 Q582 610 599 634 L194 634 L227 896 L759 896 L797 956 L913 1146 L1198 1103 L1071 896 L1333 896 L1300 634 L910 634 Q906 629 903 624.5 Q900 620 897 615 Q890 605 885.5 598.5 Q881 592 875.5 584.5 Q870 577 864 567.5 Q858 558 848 543 L1289 543 L1257 283 L685 283 L530 27 Z " />
<glyph glyph-name="lessequal" unicode="&#x2264;" horiz-adv-x="1351" d="M64 0 L96 262 L1204 262 L1172 0 L64 0 Z M1190 289 L162 781 L182 937 L1336 1448 L1298 1137 L639 863 L897 746 Q977 710 1062.5 670.5 Q1148 631 1228 596 L1190 289 Z " />
<glyph glyph-name="greaterequal" unicode="&#x2265;" horiz-adv-x="1351" d="M59 0 L91 262 L1199 262 L1167 0 L59 0 Z M101 287 L139 597 L796 871 Q649 940 499 1006 Q428 1038 353.5 1072.5 Q279 1107 208 1139 L246 1444 L1275 954 L1255 796 L101 287 Z " />
<glyph glyph-name="lozenge" unicode="&#x25ca;" horiz-adv-x="1248" d="M618 349 Q683 437 746.5 523.5 Q810 610 873 698 L708 1039 Q645 953 581.5 869 Q518 785 455 698 L618 349 Z M462 -38 L113 698 L649 1437 L863 1437 L1215 699 L677 -38 L462 -38 Z " />
<glyph glyph-name="commaaccent" unicode="&#xf6c3;" horiz-adv-x="688" d="M138 215 L330 766 L669 766 L403 215 L138 215 Z " />
<glyph glyph-name="uni0163" unicode="&#x163;" horiz-adv-x="865" d="M772 1 L631 1 Q604 1 578 1.5 Q552 2 532 4 Q487 7 439.5 17 Q392 27 362 43 Q326 63 299 91.5 Q272 120 256.5 161.5 Q241 203 236.5 258.5 Q232 314 241 387 L291 791 L116 791 L144 1026 L328 1026 L354 1233 L681 1332 L643 1026 L890 1026 L862 791 L615 791 L563 373 Q558 337 560 315.5 Q562 294 569 281 Q575 274 584.5 270.5 Q594 267 605.5 265 Q617 263 628.5 262 Q640 261 650 260 Q661 259 680 258.5 Q699 258 720.5 257.5 Q742 257 764 257 Q786 257 803 257 L772 1 Z M238 -696 L430 -145 L769 -145 L503 -696 L238 -696 Z " />
<glyph glyph-name="Aogonek" unicode="&#x104;" horiz-adv-x="1521" d="M953 541 Q950 553 943.5 580 Q937 607 925.5 656.5 Q914 706 897 781.5 Q880 857 856 965 Q805 858 754.5 753.5 Q704 649 651 540 L953 541 Z M-1 0 L761 1456 L1080 1456 L1491 0 L1108 0 L1044 226 Q902 226 767.5 225.5 Q633 225 491 225 L374 0 L-1 0 Z M1123.54 -390.767 Q1071.55 -390.767 1025.92 -379.74 Q980.293 -368.713 946.868 -348.163 Q913.444 -327.613 895.936 -298.041 Q878.428 -268.469 883.733 -230.376 Q887.978 -191.281 905.486 -159.203 Q922.994 -127.125 948.991 -100.56 Q974.987 -73.9951 1008.41 -51.9414 Q1041.84 -29.8877 1078.97 -10.8413 L1077.91 -10.8413 L1110.81 5.19775 L1149.01 23.2417 L1383.51 24.2441 Q1313.48 -41.917 1276.34 -92.5403 Q1239.2 -143.164 1254.06 -170.229 Q1256.18 -175.242 1274.75 -174.74 Q1293.32 -174.239 1321.44 -168.726 Q1349.55 -163.212 1384.04 -154.19 Q1418.53 -145.168 1452.48 -132.137 L1424.89 -343.652 Q1386.69 -354.679 1344.78 -363.701 Q1302.87 -372.723 1262.54 -378.737 Q1222.22 -384.752 1186.15 -387.759 Q1150.07 -390.767 1123.54 -390.767 Z " />
<glyph glyph-name="sacute" unicode="&#x15b;" horiz-adv-x="988" d="M508 -22 Q440 -22 381 -12 Q322 -2 269 16 Q214 34 166 62.5 Q118 91 77 126 L197 378 Q294 293 367 267 Q408 253 446 247 Q484 241 520 241 Q573 241 601 256.5 Q629 272 634 309 Q637 328 625.5 341.5 Q614 355 588 367.5 Q562 380 520 393.5 Q478 407 420 427 Q363 445 315 469 Q267 493 233 528 Q199 563 181.5 612.5 Q164 662 169 733 Q179 816 221 879 Q263 942 329 981 Q442 1048 605 1048 Q705 1048 804.5 1018.5 Q904 989 985 932 L869 697 Q776 749 708 769 Q676 778 645.5 783 Q615 788 590 788 Q539 788 514 779 Q489 770 486 750 Q485 736 489 726.5 Q493 717 506 708 Q519 699 544.5 688.5 Q570 678 612 662 Q675 639 716 624 Q757 609 783.5 597.5 Q810 586 825.5 578 Q841 570 852 562 Q902 526 927 464 Q952 402 940 308 Q929 214 885.5 151 Q842 88 780.5 49.5 Q719 11 647.5 -5.5 Q576 -22 508 -22 Z M318 1163 L622 1456 L990 1456 L596 1163 L318 1163 Z " />
<glyph glyph-name="tcaron" unicode="&#x165;" horiz-adv-x="1092" d="M772 1 L631 1 Q604 1 578 1.5 Q552 2 532 4 Q487 7 439.5 17 Q392 27 362 43 Q326 63 299 91.5 Q272 120 256.5 161.5 Q241 203 236.5 258.5 Q232 314 241 387 L291 791 L116 791 L144 1026 L328 1026 L354 1233 L681 1332 L643 1026 L890 1026 L862 791 L615 791 L563 373 Q558 337 560 315.5 Q562 294 569 281 Q575 274 584.5 270.5 Q594 267 605.5 265 Q617 263 628.5 262 Q640 261 650 260 Q661 259 680 258.5 Q699 258 720.5 257.5 Q742 257 764 257 Q786 257 803 257 L772 1 Z M752 1128 L935 1748 L1276 1748 L988 1128 L752 1128 Z " />
<glyph glyph-name="zacute" unicode="&#x17a;" horiz-adv-x="997" d="M61 0 L82 173 L563 762 L177 762 L209 1026 L1025 1026 L1004 855 L518 263 L955 263 L923 0 L61 0 Z M322 1163 L626 1456 L994 1456 L600 1163 L322 1163 Z " />
<glyph glyph-name="Zacute" unicode="&#x179;" horiz-adv-x="1249" d="M51 0 L73 186 L802 1159 L218 1159 L254 1456 L1311 1456 L1289 1274 L557 297 L1168 297 L1132 0 L51 0 Z M500 1593 L804 1886 L1172 1886 L778 1593 L500 1593 Z " />
<glyph glyph-name="Tcaron" unicode="&#x164;" horiz-adv-x="1211" d="M415 0 L557 1159 L137 1159 L173 1456 L1366 1456 L1330 1159 L903 1159 L761 0 L415 0 Z M693 1578 L458 1945 L764 1945 L825 1855 L912 1945 L1228 1945 L902 1578 L693 1578 Z " />
<glyph glyph-name="Sacute" unicode="&#x15a;" horiz-adv-x="1256" d="M600 -22 Q527 -22 455.5 -11.5 Q384 -1 317.5 22.5 Q251 46 191.5 83.5 Q132 121 84 174 L267 426 Q315 382 363.5 352.5 Q412 323 455 307 L455 308 Q551 275 620 275 Q720 275 771.5 310 Q823 345 832 417 Q836 456 827 478.5 Q818 501 789.5 519.5 Q761 538 709.5 558 Q658 578 578 611 L506 635 Q421 669 359 711 Q297 753 261 798 Q223 849 209 916.5 Q195 984 205 1065 Q222 1198 306 1297 Q389 1392 510 1437 Q631 1482 780 1482 Q865 1482 935.5 1473.5 Q1006 1465 1067.5 1442.5 Q1129 1420 1185.5 1381 Q1242 1342 1299 1280 L1086 1045 Q958 1183 778 1183 Q730 1183 689.5 1174.5 Q649 1166 617 1151 L618 1151 Q598 1140 584.5 1120.5 Q571 1101 567 1075 Q564 1048 569 1026.5 Q574 1005 598 984.5 Q622 964 670.5 941 Q719 918 802 887 Q839 875 867.5 865 Q896 855 914 849 Q1002 812 1060 770 Q1118 728 1150 680 Q1181 629 1192 562.5 Q1203 496 1192 412 Q1178 298 1120.5 211 Q1063 124 975 73 Q895 25 801.5 1.5 Q708 -22 600 -22 Z M504 1593 L808 1886 L1176 1886 L782 1593 L504 1593 Z " />
<glyph glyph-name="Scedilla" unicode="&#x15e;" horiz-adv-x="1256" d="M600 -22 Q527 -22 455.5 -11.5 Q384 -1 317.5 22.5 Q251 46 191.5 83.5 Q132 121 84 174 L267 426 Q315 382 363.5 352.5 Q412 323 455 307 L455 308 Q551 275 620 275 Q720 275 771.5 310 Q823 345 832 417 Q836 456 827 478.5 Q818 501 789.5 519.5 Q761 538 709.5 558 Q658 578 578 611 L506 635 Q421 669 359 711 Q297 753 261 798 Q223 849 209 916.5 Q195 984 205 1065 Q222 1198 306 1297 Q389 1392 510 1437 Q631 1482 780 1482 Q865 1482 935.5 1473.5 Q1006 1465 1067.5 1442.5 Q1129 1420 1185.5 1381 Q1242 1342 1299 1280 L1086 1045 Q958 1183 778 1183 Q730 1183 689.5 1174.5 Q649 1166 617 1151 L618 1151 Q598 1140 584.5 1120.5 Q571 1101 567 1075 Q564 1048 569 1026.5 Q574 1005 598 984.5 Q622 964 670.5 941 Q719 918 802 887 Q839 875 867.5 865 Q896 855 914 849 Q1002 812 1060 770 Q1118 728 1150 680 Q1181 629 1192 562.5 Q1203 496 1192 412 Q1178 298 1120.5 211 Q1063 124 975 73 Q895 25 801.5 1.5 Q708 -22 600 -22 Z M376 -253 Q398 -264 422.5 -274 Q447 -284 471 -291.5 Q495 -299 515.5 -304 Q536 -309 551 -309 Q590 -309 593 -286 Q596 -262 573.5 -245.5 Q551 -229 513 -222 L446 -212 L510 11 L701 11 L675 -94 Q713 -102 739 -117.5 Q765 -133 784 -158 Q834 -225 824 -306 Q817 -363 792.5 -403.5 Q768 -444 732 -470 Q696 -496 651 -508 Q606 -520 558 -520 Q501 -520 446 -502 Q391 -484 337 -449 L376 -253 Z " />
<glyph glyph-name="Zdotaccent" unicode="&#x17b;" horiz-adv-x="1249" d="M51 0 L73 186 L802 1159 L218 1159 L254 1456 L1311 1456 L1289 1274 L557 297 L1168 297 L1132 0 L51 0 Z M635 1575 L668 1843 L966 1843 L933 1575 L635 1575 Z " />
<glyph glyph-name="periodcentered" unicode="&#xb7;" horiz-adv-x="620" d="M188 425 L229 764 L601 764 L560 425 L188 425 Z " />
<glyph glyph-name="aogonek" unicode="&#x105;" horiz-adv-x="1291" d="M649 255 Q707 255 748.5 275 Q790 295 818 330 Q846 365 862 412 Q878 459 884 513 Q900 638 856.5 705.5 Q813 773 707 773 Q650 773 607 753 Q564 733 534 698 Q504 663 486 616 Q468 569 462 515 Q456 463 461.5 416 Q467 369 488.5 333 Q510 297 549 276 Q588 255 649 255 Z M586 -22 Q457 -22 362 23.5 Q267 69 216 145 Q165 223 145 313.5 Q125 404 137 503 Q150 608 193.5 702.5 Q237 797 307 876 Q380 956 487.5 1003 Q595 1050 728 1050 Q793 1050 843.5 1031.5 Q894 1013 935 983 L940 1026 L1260 1026 L1135 0 L809 0 L816 60 Q764 24 707.5 1 Q651 -22 586 -22 Z M807 -397 Q758 -397 715 -386 Q672 -375 640.5 -354.5 Q609 -334 592.5 -304.5 Q576 -275 581 -237 Q585 -198 601.5 -166 Q618 -134 642.5 -107.5 Q667 -81 698.5 -59 Q730 -37 765 -18 L764 -18 L795 -2 L831 16 L1052 17 Q986 -49 951 -99.5 Q916 -150 930 -177 Q932 -182 949.5 -181.5 Q967 -181 993.5 -175.5 Q1020 -170 1052.5 -161 Q1085 -152 1117 -139 L1091 -350 Q1055 -361 1015.5 -370 Q976 -379 938 -385 Q900 -391 866 -394 Q832 -397 807 -397 Z " />
<glyph glyph-name="scedilla" unicode="&#x15f;" horiz-adv-x="988" d="M508 -22 Q440 -22 381 -12 Q322 -2 269 16 Q214 34 166 62.5 Q118 91 77 126 L197 378 Q294 293 367 267 Q408 253 446 247 Q484 241 520 241 Q573 241 601 256.5 Q629 272 634 309 Q637 328 625.5 341.5 Q614 355 588 367.5 Q562 380 520 393.5 Q478 407 420 427 Q363 445 315 469 Q267 493 233 528 Q199 563 181.5 612.5 Q164 662 169 733 Q179 816 221 879 Q263 942 329 981 Q442 1048 605 1048 Q705 1048 804.5 1018.5 Q904 989 985 932 L869 697 Q776 749 708 769 Q676 778 645.5 783 Q615 788 590 788 Q539 788 514 779 Q489 770 486 750 Q485 736 489 726.5 Q493 717 506 708 Q519 699 544.5 688.5 Q570 678 612 662 Q675 639 716 624 Q757 609 783.5 597.5 Q810 586 825.5 578 Q841 570 852 562 Q902 526 927 464 Q952 402 940 308 Q929 214 885.5 151 Q842 88 780.5 49.5 Q719 11 647.5 -5.5 Q576 -22 508 -22 Z M286 -242 Q308 -253 332.5 -263 Q357 -273 381 -280.5 Q405 -288 425.5 -293 Q446 -298 461 -298 Q500 -298 503 -275 Q506 -251 483.5 -234.5 Q461 -218 423 -211 L356 -201 L420 22 L611 22 L585 -83 Q623 -91 649 -106.5 Q675 -122 694 -147 Q744 -214 734 -295 Q727 -352 702.5 -392.5 Q678 -433 642 -459 Q606 -485 561 -497 Q516 -509 468 -509 Q411 -509 356 -491 Q301 -473 247 -438 L286 -242 Z " />
<glyph glyph-name="Lcaron" unicode="&#x13d;" horiz-adv-x="1201" d="M144 0 L322 1456 L669 1456 L527 297 L1158 297 L1122 0 L144 0 Z M677 835 L860 1455 L1201 1455 L913 835 L677 835 Z " />
<glyph glyph-name="lcaron" unicode="&#x13e;" horiz-adv-x="1158" d="M103 0 L281 1456 L603 1456 L425 0 L103 0 Z M715 836 L898 1456 L1239 1456 L951 836 L715 836 Z " />
<glyph glyph-name="zdotaccent" unicode="&#x17c;" horiz-adv-x="997" d="M61 0 L82 173 L563 762 L177 762 L209 1026 L1025 1026 L1004 855 L518 263 L955 263 L923 0 L61 0 Z M486 1117 L519 1385 L817 1385 L784 1117 L486 1117 Z " />
<glyph glyph-name="Racute" unicode="&#x154;" horiz-adv-x="1388" d="M595 851 L768 851 Q869 851 924 893.5 Q979 936 989 1012 Q995 1063 989 1091.5 Q983 1120 963.5 1134 Q944 1148 911 1152.5 Q878 1157 831 1159 L633 1159 L595 851 Z M148 0 L326 1456 L872 1456 Q987 1458 1082 1438 Q1177 1418 1241.5 1368 Q1306 1318 1335.5 1234 Q1365 1150 1349 1023 Q1341 959 1313.5 895.5 Q1286 832 1239 780 Q1210 749 1170.5 721 Q1131 693 1084 674 Q1119 638 1145.5 592 Q1172 546 1187 495 Q1204 433 1222.5 373.5 Q1241 314 1259 254 Q1278 194 1298 127.5 Q1318 61 1336 0 L965 0 L848 416 Q836 457 822.5 487.5 Q809 518 794 530 Q764 557 696 557 L562 557 L494 0 L148 0 Z M570 1593 L874 1886 L1242 1886 L848 1593 L570 1593 Z " />
<glyph glyph-name="Abreve" unicode="&#x102;" horiz-adv-x="1521" d="M953 541 Q950 553 943.5 580 Q937 607 925.5 656.5 Q914 706 897 781.5 Q880 857 856 965 Q805 858 754.5 753.5 Q704 649 651 540 L953 541 Z M-1 0 L761 1456 L1080 1456 L1491 0 L1108 0 L1044 226 Q902 226 767.5 225.5 Q633 225 491 225 L374 0 L-1 0 Z M953 1576 Q658 1576 674 1886 L909 1886 Q906 1808 920 1801 Q933 1793 946 1790.5 Q959 1788 979 1788 Q995 1788 1009 1792.5 Q1023 1797 1034.5 1808 Q1046 1819 1055.5 1838 Q1065 1857 1071 1886 L1306 1886 Q1274 1725 1186 1650.5 Q1098 1576 953 1576 Z " />
<glyph glyph-name="Lacute" unicode="&#x139;" horiz-adv-x="1201" d="M144 0 L322 1456 L669 1456 L527 297 L1158 297 L1122 0 L144 0 Z M378 1573 L682 1866 L1050 1866 L656 1573 L378 1573 Z " />
<glyph glyph-name="Cacute" unicode="&#x106;" horiz-adv-x="1436" d="M801 -24 Q730 -24 662 -11 Q594 2 531.5 26.5 Q469 51 414.5 86.5 Q360 122 315 167 Q267 215 232.5 275 Q198 335 178 404 Q156 478 151 557 Q146 636 157 724 Q166 795 185.5 862.5 Q205 930 232 992 Q259 1054 293.5 1108.5 Q328 1163 367 1207 Q427 1268 499 1318.5 Q571 1369 649.5 1405 Q728 1441 809 1460.5 Q890 1480 967 1479 Q1255 1479 1464 1296 L1294 1046 Q1116 1180 949 1180 Q874 1180 803 1149.5 Q732 1119 673 1064 Q613 1008 570.5 921 Q528 834 515 727 Q489 515 587 396 Q684 275 854 275 Q1036 275 1273 447 L1359 164 Q1226 70 1088 23 Q950 -24 801 -24 Z M742 1573 L1046 1866 L1414 1866 L1020 1573 L742 1573 Z " />
<glyph glyph-name="Ccaron" unicode="&#x10c;" horiz-adv-x="1436" d="M801 -24 Q730 -24 662 -11 Q594 2 531.5 26.5 Q469 51 414.5 86.5 Q360 122 315 167 Q267 215 232.5 275 Q198 335 178 404 Q156 478 151 557 Q146 636 157 724 Q166 795 185.5 862.5 Q205 930 232 992 Q259 1054 293.5 1108.5 Q328 1163 367 1207 Q427 1268 499 1318.5 Q571 1369 649.5 1405 Q728 1441 809 1460.5 Q890 1480 967 1479 Q1255 1479 1464 1296 L1294 1046 Q1116 1180 949 1180 Q874 1180 803 1149.5 Q732 1119 673 1064 Q613 1008 570.5 921 Q528 834 515 727 Q489 515 587 396 Q684 275 854 275 Q1036 275 1273 447 L1359 164 Q1226 70 1088 23 Q950 -24 801 -24 Z M806 1578 L571 1945 L877 1945 L938 1855 L1025 1945 L1341 1945 L1015 1578 L806 1578 Z " />
<glyph glyph-name="Eogonek" unicode="&#x118;" horiz-adv-x="1249" d="M144 0 L322 1456 L1292 1456 L1256 1159 L633 1159 L600 888 L1189 888 L1152 590 L566 590 L530 297 L1176 297 L1140 0 L144 0 Z M813 -393 Q764 -393 721 -382 Q678 -371 646.5 -350.5 Q615 -330 598.5 -300.5 Q582 -271 587 -233 Q591 -194 607.5 -162 Q624 -130 648.5 -103.5 Q673 -77 704.5 -55 Q736 -33 771 -14 L770 -14 L801 2 L837 20 L1058 21 Q992 -45 957 -95.5 Q922 -146 936 -173 Q938 -178 955.5 -177.5 Q973 -177 999.5 -171.5 Q1026 -166 1058.5 -157 Q1091 -148 1123 -135 L1097 -346 Q1061 -357 1021.5 -366 Q982 -375 944 -381 Q906 -387 872 -390 Q838 -393 813 -393 Z " />
<glyph glyph-name="Ecaron" unicode="&#x11a;" horiz-adv-x="1249" d="M144 0 L322 1456 L1292 1456 L1256 1159 L633 1159 L600 888 L1189 888 L1152 590 L566 590 L530 297 L1176 297 L1140 0 L144 0 Z M721 1547 L486 1914 L792 1914 L853 1824 L940 1914 L1256 1914 L930 1547 L721 1547 Z " />
<glyph glyph-name="Dcaron" unicode="&#x10e;" horiz-adv-x="1571" d="M150 0 L328 1456 L763 1456 Q981 1456 1138 1409 Q1295 1362 1392 1270.5 Q1489 1179 1526 1045 Q1563 911 1542 737 Q1520 557 1449.5 419 Q1379 281 1263 188 Q1147 95 986 47.5 Q825 0 622 0 L150 0 Z M532 297 L670 297 Q891 297 1023 408.5 Q1155 520 1181 738 Q1206 943 1099.5 1051 Q993 1159 748 1159 L638 1159 L532 297 Z M815 1560 L580 1927 L886 1927 L947 1837 L1034 1927 L1350 1927 L1024 1560 L815 1560 Z " />
<glyph glyph-name="Dcroat" unicode="&#x110;" horiz-adv-x="1665" d="M93 567 L128 848 L934 848 L899 567 L93 567 Z M244 0 L422 1456 L857 1456 Q1075 1456 1232 1409 Q1389 1362 1486 1270.5 Q1583 1179 1620 1045 Q1657 911 1636 737 Q1614 557 1543.5 419 Q1473 281 1357 188 Q1241 95 1080 47.5 Q919 0 716 0 L244 0 Z M626 297 L764 297 Q985 297 1117 408.5 Q1249 520 1275 738 Q1300 943 1193.5 1051 Q1087 1159 842 1159 L732 1159 L626 297 Z " />
<glyph glyph-name="Nacute" unicode="&#x143;" horiz-adv-x="1613" d="M150 0 L328 1456 L665 1456 L1163 576 L1271 1456 L1606 1456 L1428 0 L1089 0 L586 884 L478 0 L150 0 Z M815 1562 L1119 1855 L1487 1855 L1093 1562 L815 1562 Z " />
<glyph glyph-name="Ncaron" unicode="&#x147;" horiz-adv-x="1613" d="M150 0 L328 1456 L665 1456 L1163 576 L1271 1456 L1606 1456 L1428 0 L1089 0 L586 884 L478 0 L150 0 Z M863 1534 L628 1901 L934 1901 L995 1811 L1082 1901 L1398 1901 L1072 1534 L863 1534 Z " />
<glyph glyph-name="Ohungarumlaut" unicode="&#x150;" horiz-adv-x="1584" d="M794 -22 Q626 -22 494 32.5 Q362 87 276 186 Q191 289 157.5 427.5 Q124 566 145 735 Q186 1065 411 1274 Q636 1482 980 1482 Q1143 1482 1272 1426.5 Q1401 1371 1487 1274 Q1571 1170 1605.5 1033 Q1640 896 1620 735 Q1578 392 1357 186 Q1245 82 1106 30 Q967 -22 794 -22 Z M824 275 Q915 275 988.5 305.5 Q1062 336 1116.5 394.5 Q1171 453 1205.5 538.5 Q1240 624 1254 735 Q1281 956 1198 1072 Q1117 1185 940 1185 Q761 1185 649 1071 Q538 957 511 735 Q484 514 562 394.5 Q640 275 824 275 Z M1038 1544 L1297 1893 L1629 1893 L1255 1544 L1038 1544 Z M719 1544 L921 1893 L1216 1893 L926 1544 L719 1544 Z " />
<glyph glyph-name="Rcaron" unicode="&#x158;" horiz-adv-x="1388" d="M595 851 L768 851 Q869 851 924 893.5 Q979 936 989 1012 Q995 1063 989 1091.5 Q983 1120 963.5 1134 Q944 1148 911 1152.5 Q878 1157 831 1159 L633 1159 L595 851 Z M148 0 L326 1456 L872 1456 Q987 1458 1082 1438 Q1177 1418 1241.5 1368 Q1306 1318 1335.5 1234 Q1365 1150 1349 1023 Q1341 959 1313.5 895.5 Q1286 832 1239 780 Q1210 749 1170.5 721 Q1131 693 1084 674 Q1119 638 1145.5 592 Q1172 546 1187 495 Q1204 433 1222.5 373.5 Q1241 314 1259 254 Q1278 194 1298 127.5 Q1318 61 1336 0 L965 0 L848 416 Q836 457 822.5 487.5 Q809 518 794 530 Q764 557 696 557 L562 557 L494 0 L148 0 Z M743 1548 L508 1915 L814 1915 L875 1825 L962 1915 L1278 1915 L952 1548 L743 1548 Z " />
<glyph glyph-name="Uring" unicode="&#x16e;" horiz-adv-x="1493" d="M728 -22 Q585 -22 481.5 13.5 Q378 49 317 104 Q285 135 262 171.5 Q239 208 223 249 Q209 291 201 333 Q193 375 190 418.5 Q187 462 189.5 508.5 Q192 555 198 607 L302 1456 L647 1456 L542 597 Q530 502 542.5 440 Q555 378 585.5 341.5 Q616 305 662 290 Q708 275 763 275 Q823 275 870 290 Q917 305 959 340 Q1000 372 1026 437 Q1052 502 1064 598 L1169 1456 L1515 1456 L1411 607 Q1399 507 1372.5 420.5 Q1346 334 1298 251 Q1272 210 1240.5 172.5 Q1209 135 1171 106 Q1097 49 984.5 13.5 Q872 -22 728 -22 Z M913 1492 Q805 1492 741 1562 L740 1561 Q673 1631 686 1735 Q698 1838 782 1908 Q863 1977 973 1977 Q1080 1977 1145 1909 Q1177 1874 1192 1829.5 Q1207 1785 1201 1735 Q1188 1635 1104 1562 Q1022 1492 913 1492 Z M936 1673 Q955 1673 975 1691 L974 1691 Q991 1708 995 1735 Q998 1760 985 1776 Q970 1794 951 1794 Q930 1794 913.5 1777 Q897 1760 894 1735 Q890 1709 902 1692 Q918 1673 936 1673 Z " />
<glyph glyph-name="Uhungarumlaut" unicode="&#x170;" horiz-adv-x="1493" d="M728 -22 Q585 -22 481.5 13.5 Q378 49 317 104 Q285 135 262 171.5 Q239 208 223 249 Q209 291 201 333 Q193 375 190 418.5 Q187 462 189.5 508.5 Q192 555 198 607 L302 1456 L647 1456 L542 597 Q530 502 542.5 440 Q555 378 585.5 341.5 Q616 305 662 290 Q708 275 763 275 Q823 275 870 290 Q917 305 959 340 Q1000 372 1026 437 Q1052 502 1064 598 L1169 1456 L1515 1456 L1411 607 Q1399 507 1372.5 420.5 Q1346 334 1298 251 Q1272 210 1240.5 172.5 Q1209 135 1171 106 Q1097 49 984.5 13.5 Q872 -22 728 -22 Z M948 1536 L1207 1885 L1539 1885 L1165 1536 L948 1536 Z M629 1536 L831 1885 L1126 1885 L836 1536 L629 1536 Z " />
<glyph glyph-name="uni0162" unicode="&#x162;" horiz-adv-x="1211" d="M415 0 L557 1159 L137 1159 L173 1456 L1366 1456 L1330 1159 L903 1159 L761 0 L415 0 Z M226 -668 L418 -117 L757 -117 L491 -668 L226 -668 Z " />
<glyph glyph-name="racute" unicode="&#x155;" horiz-adv-x="814" d="M119 0 L210 746 Q214 773 215.5 801 Q217 829 219 858 L221 1026 L565 1026 L559 971 Q575 988 598 1002.5 Q621 1017 647 1027.5 Q673 1038 701 1044 Q729 1050 757 1050 Q807 1050 896 1026 L861 735 Q801 756 762.5 765 Q724 774 703 774 Q630 774 578 726 Q552 701 536 664.5 Q520 628 513 576 L443 0 L119 0 Z M231 1163 L535 1456 L903 1456 L509 1163 L231 1163 Z " />
<glyph glyph-name="abreve" unicode="&#x103;" horiz-adv-x="1291" d="M649 255 Q707 255 748.5 275 Q790 295 818 330 Q846 365 862 412 Q878 459 884 513 Q900 638 856.5 705.5 Q813 773 707 773 Q650 773 607 753 Q564 733 534 698 Q504 663 486 616 Q468 569 462 515 Q456 463 461.5 416 Q467 369 488.5 333 Q510 297 549 276 Q588 255 649 255 Z M586 -22 Q457 -22 362 23.5 Q267 69 216 145 Q165 223 145 313.5 Q125 404 137 503 Q150 608 193.5 702.5 Q237 797 307 876 Q380 956 487.5 1003 Q595 1050 728 1050 Q793 1050 843.5 1031.5 Q894 1013 935 983 L940 1026 L1260 1026 L1135 0 L809 0 L816 60 Q764 24 707.5 1 Q651 -22 586 -22 Z M786 1146 Q491 1146 507 1456 L742 1456 Q739 1378 753 1371 Q766 1363 779 1360.5 Q792 1358 812 1358 Q828 1358 842 1362.5 Q856 1367 867.5 1378 Q879 1389 888.5 1408 Q898 1427 904 1456 L1139 1456 Q1107 1295 1019 1220.5 Q931 1146 786 1146 Z " />
<glyph glyph-name="lacute" unicode="&#x13a;" horiz-adv-x="526" d="M103 0 L281 1456 L603 1456 L425 0 L103 0 Z M287 1562 L591 1855 L959 1855 L565 1562 L287 1562 Z " />
<glyph glyph-name="cacute" unicode="&#x107;" horiz-adv-x="1071" d="M612 -22 Q484 -22 385.5 22 Q287 66 229 142 Q172 218 147.5 313 Q123 408 137 514 Q146 588 169 655.5 Q192 723 230 783 Q268 842 323 892 Q378 942 445 978 Q510 1013 584 1031.5 Q658 1050 740 1050 Q987 1050 1119 887 L982 666 Q922 726 856 755 Q790 784 732 784 Q623 784 554 713 Q486 643 469 513 Q461 450 472 400.5 Q483 351 509 315 Q537 285 580 265 Q623 245 674 245 Q694 245 727.5 251.5 Q761 258 800.5 272.5 Q840 287 881.5 310.5 Q923 334 961 367 L1018 112 Q964 77 913.5 52 Q863 27 813.5 10.5 Q764 -6 714.5 -14 Q665 -22 612 -22 Z M519 1163 L823 1456 L1191 1456 L797 1163 L519 1163 Z " />
<glyph glyph-name="ccaron" unicode="&#x10d;" horiz-adv-x="1071" d="M612 -22 Q484 -22 385.5 22 Q287 66 229 142 Q172 218 147.5 313 Q123 408 137 514 Q146 588 169 655.5 Q192 723 230 783 Q268 842 323 892 Q378 942 445 978 Q510 1013 584 1031.5 Q658 1050 740 1050 Q987 1050 1119 887 L982 666 Q922 726 856 755 Q790 784 732 784 Q623 784 554 713 Q486 643 469 513 Q461 450 472 400.5 Q483 351 509 315 Q537 285 580 265 Q623 245 674 245 Q694 245 727.5 251.5 Q761 258 800.5 272.5 Q840 287 881.5 310.5 Q923 334 961 367 L1018 112 Q964 77 913.5 52 Q863 27 813.5 10.5 Q764 -6 714.5 -14 Q665 -22 612 -22 Z M623 1143 L388 1510 L694 1510 L755 1420 L842 1510 L1158 1510 L832 1143 L623 1143 Z " />
<glyph glyph-name="eogonek" unicode="&#x119;" horiz-adv-x="1168" d="M866 651 Q858 730 820 767.5 Q782 805 718 805 Q639 805 580.5 762.5 Q522 720 496 651 L866 651 Z M634 -22 Q373 -22 239 127 Q106 280 134 512 Q148 618 195 713.5 Q242 809 317 886 Q394 963 501.5 1006.5 Q609 1050 735 1050 Q862 1050 952.5 1006.5 Q1043 963 1088 885 Q1132 809 1147 716.5 Q1162 624 1149 515 Q1147 498 1144 478.5 Q1141 459 1138 442 L463 442 Q466 396 483 358 Q500 320 529.5 292.5 Q559 265 598.5 250 Q638 235 686 235 Q755 235 845 263 Q935 291 1037 357 L1095 121 Q977 45 865 11.5 Q753 -22 634 -22 Z M769 -314 Q720 -314 677 -303 Q634 -292 602.5 -271.5 Q571 -251 554.5 -221.5 Q538 -192 543 -154 Q547 -115 563.5 -83 Q580 -51 604.5 -24.5 Q629 2 660.5 24 Q692 46 727 65 L726 65 L757 81 L793 99 L1014 100 Q948 34 913 -16.5 Q878 -67 892 -94 Q894 -99 911.5 -98.5 Q929 -98 955.5 -92.5 Q982 -87 1014.5 -78 Q1047 -69 1079 -56 L1053 -267 Q1017 -278 977.5 -287 Q938 -296 900 -302 Q862 -308 828 -311 Q794 -314 769 -314 Z " />
<glyph glyph-name="ecaron" unicode="&#x11b;" horiz-adv-x="1168" d="M866 651 Q858 730 820 767.5 Q782 805 718 805 Q639 805 580.5 762.5 Q522 720 496 651 L866 651 Z M634 -22 Q373 -22 239 127 Q106 280 134 512 Q148 618 195 713.5 Q242 809 317 886 Q394 963 501.5 1006.5 Q609 1050 735 1050 Q862 1050 952.5 1006.5 Q1043 963 1088 885 Q1132 809 1147 716.5 Q1162 624 1149 515 Q1147 498 1144 478.5 Q1141 459 1138 442 L463 442 Q466 396 483 358 Q500 320 529.5 292.5 Q559 265 598.5 250 Q638 235 686 235 Q755 235 845 263 Q935 291 1037 357 L1095 121 Q977 45 865 11.5 Q753 -22 634 -22 Z M620 1148 L385 1515 L691 1515 L752 1425 L839 1515 L1155 1515 L829 1148 L620 1148 Z " />
<glyph glyph-name="dcaron" unicode="&#x10f;" horiz-adv-x="1663" d="M633 255 Q684 255 722.5 276 Q761 297 787.5 332 Q814 367 830 414 Q846 461 852 512 Q858 556 855 602.5 Q852 649 834.5 687 Q817 725 783.5 749 Q750 773 694 773 Q642 773 604 752.5 Q566 732 539.5 697 Q513 662 497 615 Q481 568 475 516 Q468 463 472.5 415.5 Q477 368 495.5 332.5 Q514 297 547.5 276 Q581 255 633 255 Z M552 -22 Q346 -22 227 126 Q108 275 137 508 Q150 615 193 710 Q236 805 303 882 Q374 960 476 1005 Q578 1050 700 1050 Q755 1050 803.5 1031.5 Q852 1013 903 982 L962 1458 L1286 1458 L1142 293 Q1142 292 1140 269 Q1138 246 1134.5 207 Q1131 168 1126 115 Q1121 62 1116 0 L784 0 L790 51 Q768 38 741 25 Q714 12 683 1.5 Q652 -9 619 -15.5 Q586 -22 552 -22 Z M1324 836 L1507 1456 L1848 1456 L1560 836 L1324 836 Z " />
<glyph glyph-name="dcroat" unicode="&#x111;" horiz-adv-x="1267" d="M633 255 Q684 255 722.5 276 Q761 297 787.5 332 Q814 367 830 414 Q846 461 852 512 Q858 556 855 602.5 Q852 649 834.5 687 Q817 725 783.5 749 Q750 773 694 773 Q642 773 604 752.5 Q566 732 539.5 697 Q513 662 497 615 Q481 568 475 516 Q468 463 472.5 415.5 Q477 368 495.5 332.5 Q514 297 547.5 276 Q581 255 633 255 Z M552 -22 Q346 -22 227 126 Q108 275 137 508 Q150 615 193 710 Q236 805 303 882 Q374 960 476 1005 Q578 1050 700 1050 Q755 1050 803.5 1031.5 Q852 1013 903 982 L962 1458 L1286 1458 L1142 293 Q1142 292 1140 269 Q1138 246 1134.5 207 Q1131 168 1126 115 Q1121 62 1116 0 L784 0 L790 51 Q768 38 741 25 Q714 12 683 1.5 Q652 -9 619 -15.5 Q586 -22 552 -22 Z M745.879 1138.31 L777.785 1371.31 L1448.78 1371.31 L1416.88 1138.31 L745.879 1138.31 Z " />
<glyph glyph-name="nacute" unicode="&#x144;" horiz-adv-x="1224" d="M121 0 L197 625 Q204 676 208 722 Q212 768 215 813 Q220 858 221 889 Q222 920 222 940 L224 1026 L566 1026 L559 963 Q584 985 615.5 1001 Q647 1017 680 1028 Q713 1039 746.5 1044.5 Q780 1050 809 1050 Q904 1050 970.5 1025.5 Q1037 1001 1084 945 L1083 945 Q1181 835 1150 579 L1079 0 L754 0 L827 595 Q831 628 832 661.5 Q833 695 824.5 722 Q816 749 794 766 Q772 783 730 783 Q704 783 670 771 Q636 759 604.5 736.5 Q573 714 549 681 Q525 648 520 606 L446 0 L121 0 Z M527 1161 L831 1454 L1199 1454 L805 1161 L527 1161 Z " />
<glyph glyph-name="ncaron" unicode="&#x148;" horiz-adv-x="1224" d="M121 0 L197 625 Q204 676 208 722 Q212 768 215 813 Q220 858 221 889 Q222 920 222 940 L224 1026 L566 1026 L559 963 Q584 985 615.5 1001 Q647 1017 680 1028 Q713 1039 746.5 1044.5 Q780 1050 809 1050 Q904 1050 970.5 1025.5 Q1037 1001 1084 945 L1083 945 Q1181 835 1150 579 L1079 0 L754 0 L827 595 Q831 628 832 661.5 Q833 695 824.5 722 Q816 749 794 766 Q772 783 730 783 Q704 783 670 771 Q636 759 604.5 736.5 Q573 714 549 681 Q525 648 520 606 L446 0 L121 0 Z M648 1148 L413 1515 L719 1515 L780 1425 L867 1515 L1183 1515 L857 1148 L648 1148 Z " />
<glyph glyph-name="ohungarumlaut" unicode="&#x151;" horiz-adv-x="1248" d="M619 -22 Q482 -22 382 21.5 Q282 65 226 141 Q169 218 147 312 Q125 406 138 513 Q152 621 197.5 716 Q243 811 319 887 Q395 964 505 1007 Q615 1050 749 1050 Q885 1050 985 1006.5 Q1085 963 1139 888 Q1191 814 1212.5 717.5 Q1234 621 1220 511 Q1207 406 1162.5 312.5 Q1118 219 1044 142 Q971 67 861 22.5 Q751 -22 619 -22 Z M647 245 Q703 245 744.5 267.5 Q786 290 815.5 327.5 Q845 365 862 414 Q879 463 886 516 Q894 578 886.5 626.5 Q879 675 855 713 Q835 748 799 765.5 Q763 783 714 783 Q661 783 619 761.5 Q577 740 546.5 704 Q516 668 498 619.5 Q480 571 474 516 Q463 433 478 376 Q491 319 534 282 Q577 245 647 245 Z M768 1112 L1027 1461 L1359 1461 L985 1112 L768 1112 Z M449 1112 L651 1461 L946 1461 L656 1112 L449 1112 Z " />
<glyph glyph-name="rcaron" unicode="&#x159;" horiz-adv-x="814" d="M119 0 L210 746 Q214 773 215.5 801 Q217 829 219 858 L221 1026 L565 1026 L559 971 Q575 988 598 1002.5 Q621 1017 647 1027.5 Q673 1038 701 1044 Q729 1050 757 1050 Q807 1050 896 1026 L861 735 Q801 756 762.5 765 Q724 774 703 774 Q630 774 578 726 Q552 701 536 664.5 Q520 628 513 576 L443 0 L119 0 Z M443 1148 L208 1515 L514 1515 L575 1425 L662 1515 L978 1515 L652 1148 L443 1148 Z " />
<glyph glyph-name="uring" unicode="&#x16f;" horiz-adv-x="1186" d="M502 -22 Q309 -22 213 89 Q167 145 148.5 219 Q130 293 141 387 L219 1026 L543 1026 L465 390 Q456 317 487.5 281 Q519 245 582 245 Q660 245 702.5 286 Q745 327 756 420 L830 1026 L1155 1026 L1066 297 L1043 0 L709 0 L715 53 Q676 24 620.5 1 Q565 -22 502 -22 Z M703 1123 Q595 1123 531 1193 L530 1192 Q463 1262 476 1366 Q488 1469 572 1539 Q653 1608 763 1608 Q870 1608 935 1540 Q967 1505 982 1460.5 Q997 1416 991 1366 Q978 1266 894 1193 Q812 1123 703 1123 Z M726 1304 Q745 1304 765 1322 L764 1322 Q781 1339 785 1366 Q788 1391 775 1407 Q760 1425 741 1425 Q720 1425 703.5 1408 Q687 1391 684 1366 Q680 1340 692 1323 Q708 1304 726 1304 Z " />
<glyph glyph-name="uhungarumlaut" unicode="&#x171;" horiz-adv-x="1186" d="M502 -22 Q309 -22 213 89 Q167 145 148.5 219 Q130 293 141 387 L219 1026 L543 1026 L465 390 Q456 317 487.5 281 Q519 245 582 245 Q660 245 702.5 286 Q745 327 756 420 L830 1026 L1155 1026 L1066 297 L1043 0 L709 0 L715 53 Q676 24 620.5 1 Q565 -22 502 -22 Z M692 1107 L951 1456 L1283 1456 L909 1107 L692 1107 Z M373 1107 L575 1456 L870 1456 L580 1107 L373 1107 Z " />
<glyph glyph-name="yacute" unicode="&#xfd;" horiz-adv-x="1114" d="M81 -195 Q167 -162 226 -134 Q285 -106 320 -79 Q378 -35 405 27 L404 26 L417 59 Q342 299 266 543 Q190 787 115 1026 L457 1026 L621 442 L894 1026 L1229 1026 L697 -26 Q670 -76 636.5 -122 Q603 -168 563 -209 Q485 -287 392.5 -337 Q300 -387 191 -420 L81 -195 Z M530 1160 L834 1453 L1202 1453 L808 1160 L530 1160 Z " />
</font>
</svg>
