<?xml version="1.0" encoding="UTF-8"?>
<svg xmlns="http://www.w3.org/2000/svg" xmlns:xlink="http://www.w3.org/1999/xlink" version="1.2" >
<font id="Ride SemiBold">
<font-face  font-family="Ride" units-per-em="2048" ascent="2412" descent="-607" font-style="normal" font-weight="600" font-stretch="normal" cap-height="1456" x-height="1026" underline-position="0" underline-thickness="0" />
<missing-glyph  horiz-adv-x="748" d="M68 0 L68 1365 L612 1365 L612 0 L68 0 Z M136 68 L544 68 L544 1297 L136 1297 L136 68 Z " />
<glyph glyph-name="uni000D" unicode="&#xd;" horiz-adv-x="599" d="" />
<glyph glyph-name="space" unicode="&#x20;" horiz-adv-x="597" d="" />
<glyph glyph-name="exclam" unicode="&#x21;" horiz-adv-x="648" d="M223 383 L157 1456 L422 1456 L356 383 L223 383 Z M168 0 L168 251 L412 251 L412 0 L168 0 Z " />
<glyph glyph-name="quotedbl" unicode="&#x22;" horiz-adv-x="737" d="M432 959 L383 1456 L605 1456 L562 959 L432 959 Z M103 959 L54 1456 L275 1456 L232 959 L103 959 Z " />
<glyph glyph-name="numbersign" unicode="&#x23;" horiz-adv-x="1357" d="M504 608 L732 608 L784 874 L556 874 L504 608 Z M188 10 L277 459 L35 459 L46 608 L305 608 L357 874 L92 874 L103 1024 L387 1024 L470 1450 L669 1450 L586 1024 L814 1024 L896 1450 L1095 1450 L1012 1024 L1239 1024 L1230 874 L983 874 L931 608 L1183 608 L1174 459 L902 459 L814 10 L615 10 L703 459 L475 459 L387 10 L188 10 Z " />
<glyph glyph-name="dollar" unicode="&#x24;" horiz-adv-x="1222" d="M550 1283 Q451 1272 392 1226 Q333 1180 333 1100 Q333 1011 374 967 Q415 923 550 875 L550 1283 Z M642 1482 Q801 1474 895 1434 Q993 1393 1066 1321 L948 1167 Q835 1276 642 1285 L642 846 Q648 844 656 841.5 Q664 839 672.5 836 Q681 833 688 830.5 Q695 828 698 827 Q919 752 1003 656 Q1087 561 1087 387 Q1087 290 1052 213.5 Q1017 137 954 89 Q829 -7 642 -21 L642 -211 L550 -211 L550 -23 Q402 -18 274 29 Q145 79 81 143 L181 309 Q212 284 253 261 Q294 238 348 218 Q402 198 452 187 Q502 176 550 174 L550 646 L470 672 Q403 694 349.5 717.5 Q296 741 256 766 Q175 817 131.5 896.5 Q88 976 88 1091 Q88 1272 216 1373 Q346 1475 550 1482 L550 1628 L642 1628 L642 1482 Z M642 179 Q843 207 843 390 Q843 433 836 461 Q829 489 808 516 Q787 544 747.5 567 Q708 590 642 614 L642 179 Z " />
<glyph glyph-name="percent" unicode="&#x25;" horiz-adv-x="1845" d="M1352 -22 Q1188 -22 1091 84 Q994 190 994 355 Q994 517 1091 624 Q1188 732 1353 732 Q1517 732 1613 624 Q1710 518 1710 355 Q1710 190 1613 84 Q1516 -22 1352 -22 Z M1353 122 Q1438 122 1478.5 179.5 Q1519 237 1519 355 Q1519 470 1480 529.5 Q1441 589 1353 589 Q1186 589 1186 354 Q1186 236 1226 179 Q1266 122 1353 122 Z M332 0 L1257 1456 L1444 1456 L517 0 L332 0 Z M413 723 Q246 723 150 824 Q55 925 55 1100 Q55 1270 151 1374 Q247 1478 413 1478 Q581 1478 675 1375 Q771 1271 771 1100 Q771 926 675 824 Q580 723 413 723 Z M413 867 Q580 867 580 1101 Q580 1334 413 1334 Q246 1334 246 1100 Q246 982 286 924.5 Q326 867 413 867 Z " />
<glyph glyph-name="ampersand" unicode="&#x26;" horiz-adv-x="1567" d="M566 944 Q738 1053 738 1161 Q738 1226 697 1258 Q656 1290 601 1290 Q538 1290 499.5 1256.5 Q461 1223 461 1160 Q461 1050 566 944 Z M589 168 Q685 168 759.5 204 Q834 240 901 306 L525 710 Q475 681 440 655.5 Q405 630 371 595 Q304 523 304 419 Q304 309 384 238 Q464 168 589 168 Z M588 -26 Q367 -26 223 94 Q79 214 79 418 Q79 496 104 561 Q129 626 177 680 Q202 706 226.5 729 Q251 752 276 771 Q327 808 399 852 Q317 941 280 1010 Q242 1080 242 1165 Q242 1311 341 1391 Q441 1472 592 1472 Q662 1472 726 1453.5 Q790 1435 841 1399 Q893 1364 924 1305 Q955 1246 955 1171 Q955 974 697 811 L1019 459 Q1130 658 1130 928 L1336 887 Q1334 732 1288 575 Q1241 417 1163 300 Q1288 171 1476 117 L1329 -15 Q1238 0 1174 42 Q1142 63 1107 93 Q1072 123 1034 163 Q840 -26 588 -26 Z " />
<glyph glyph-name="quotesingle" unicode="&#x27;" horiz-adv-x="494" d="M142 926 L103 1456 L337 1456 L304 926 L142 926 Z " />
<glyph glyph-name="parenleft" unicode="&#x28;" horiz-adv-x="669" d="M368 -171 Q304 -74 252.5 28 Q201 130 163 239 Q86 458 86 665 Q86 1079 361 1516 L579 1516 Q448 1311 379 1094 Q310 877 310 663 Q310 468 383 248 Q420 136 468.5 32 Q517 -72 579 -171 L368 -171 Z " />
<glyph glyph-name="parenright" unicode="&#x29;" horiz-adv-x="669" d="M11 -191 Q142 14 211 231.5 Q280 449 280 661 Q280 856 207 1076 Q133 1300 11 1496 L221 1496 Q285 1399 336.5 1296.5 Q388 1194 426 1085 Q504 869 504 660 Q504 246 229 -191 L11 -191 Z " />
<glyph glyph-name="asterisk" unicode="&#x2a;" horiz-adv-x="1076" d="M650 670 L485 924 L320 671 L153 784 L362 1018 L87 1118 L161 1283 L408 1160 L378 1456 L587 1456 L561 1160 L803 1283 L881 1118 L607 1018 L817 781 L650 670 Z " />
<glyph glyph-name="plus" unicode="&#x2b;" horiz-adv-x="1242" d="M476 87 L476 488 L95 488 L95 676 L477 676 L477 1073 L686 1073 L686 676 L1068 676 L1068 488 L685 488 L685 87 L476 87 Z " />
<glyph glyph-name="comma" unicode="&#x2c;" horiz-adv-x="523" d="M20 -241 L130 250 L382 250 L207 -241 L20 -241 Z " />
<glyph glyph-name="hyphen" unicode="&#x2d;" horiz-adv-x="717" d="M18 469 L18 641 L620 641 L620 469 L18 469 Z " />
<glyph glyph-name="period" unicode="&#x2e;" horiz-adv-x="541" d="M117 0 L117 253 L385 253 L385 0 L117 0 Z " />
<glyph glyph-name="slash" unicode="&#x2f;" horiz-adv-x="838" d="M-5 -101 L588 1456 L792 1456 L194 -101 L-5 -101 Z " />
<glyph glyph-name="zero" unicode="0" horiz-adv-x="1256" d="M590 -23 Q468 -24 373 31.5 Q278 87 213.5 187.5 Q149 288 115.5 428.5 Q82 569 84 737 Q84 1091 214 1287 Q344 1483 592 1483 Q716 1483 810 1430.5 Q904 1378 966.5 1280.5 Q1029 1183 1060.5 1045 Q1092 907 1092 737 Q1092 508 1037 340 Q982 171 868 74 Q755 -23 590 -23 Z M594 174 Q855 174 855 736 Q855 853 841.5 947 Q828 1041 799 1120 Q770 1199 717.5 1242.5 Q665 1286 593 1286 Q518 1286 464 1242 Q410 1198 379 1120 Q349 1042 334.5 947 Q320 852 320 737 Q320 174 594 174 Z " />
<glyph glyph-name="one" unicode="1" horiz-adv-x="1256" d="M249 0 L249 182 L518 182 L518 1218 Q461 1189 388.5 1159.5 Q316 1130 225 1098 L225 1306 Q383 1361 551 1456 L748 1456 L748 180 L1010 180 L1010 0 L249 0 Z " />
<glyph glyph-name="two" unicode="2" horiz-adv-x="1256" d="M562 1481 Q760 1481 885 1359 Q1009 1238 1009 1025 Q1009 947 989.5 875.5 Q970 804 928 737 Q908 704 886.5 674 Q865 644 843 617 Q821 590 793.5 559 Q766 528 732 493 L440 190 L1001 190 L1001 0 L159 0 L159 173 L586 629 Q641 687 679.5 737 Q718 787 741 829 Q787 912 787 1009 Q787 1144 722.5 1215 Q658 1286 544 1286 Q482 1286 423 1270 Q364 1254 315 1233 Q266 1212 231.5 1191.5 Q197 1171 186 1162 L179 1158 L104 1339 Q107 1342 112 1345.5 Q117 1349 125.5 1354.5 Q134 1360 148.5 1368 Q163 1376 186 1388 Q209 1401 233.5 1411.5 Q258 1422 283 1431 Q330 1450 409 1465 Q483 1481 562 1481 Z " />
<glyph glyph-name="three" unicode="3" horiz-adv-x="1256" d="M566 -23 Q476 -23 395 -8.5 Q314 6 256 30 L176 66 Q152 79 133 91 L131 92 L200 267 Q386 174 535 174 Q674 174 751 238.5 Q828 303 828 418 Q828 480 802.5 526 Q777 572 728.5 602.5 Q680 633 610 648 Q540 663 452 663 L430 663 L364 661 L362 856 L430 856 Q621 856 705 910 Q789 964 789 1101 Q789 1147 766 1182 Q743 1217 706 1240.5 Q669 1264 621.5 1275.5 Q574 1287 525 1286 Q470 1286 421.5 1276.5 Q373 1267 330 1246 Q308 1235 293 1227 Q278 1219 268 1213 Q258 1208 245 1199 Q232 1190 215 1178 L206 1172 L103 1333 Q155 1373 205 1402 Q255 1431 304 1448 Q404 1483 555 1483 Q646 1483 727.5 1459 Q809 1435 875 1389 Q941 1344 980.5 1271 Q1020 1198 1020 1105 Q1020 979 951 885 Q882 790 750 765 Q894 738 973 641 Q1054 545 1054 409 Q1054 279 986 178 Q919 78 809 27.5 Q699 -23 566 -23 Z " />
<glyph glyph-name="four" unicode="4" horiz-adv-x="1256" d="M313 556 L700 556 L700 1196 Q688 1176 591 1015.5 Q494 855 313 556 Z M698 0 L698 383 L67 383 L67 542 L657 1456 L921 1456 L921 556 L1146 556 L1146 383 L924 383 L924 0 L698 0 Z " />
<glyph glyph-name="five" unicode="5" horiz-adv-x="1256" d="M578 -23 Q450 -23 332 24 Q214 71 123 165 L240 337 Q310 255 396.5 214.5 Q483 174 573 174 Q696 174 776 254 Q855 334 855 475 Q855 590 795 670 Q736 751 634 751 Q574 751 521.5 731.5 Q469 712 443 674 L218 698 L218 1456 L1017 1456 L1017 1259 L424 1259 L412 860 Q491 956 671 956 Q850 956 970 817 Q1091 678 1091 471 Q1091 356 1050.5 262 Q1010 168 938 105 Q868 44 775.5 10.5 Q683 -23 578 -23 Z " />
<glyph glyph-name="six" unicode="6" horiz-adv-x="1256" d="M632 174 Q747 174 818 257 Q888 340 888 469 Q888 600 823 683 Q758 766 639 766 Q516 766 439 686 Q364 606 364 481 Q364 342 441 257 Q519 174 632 174 Z M635 -23 Q460 -23 341 68 Q220 161 164 318.5 Q108 476 108 696 Q108 861 145.5 1001.5 Q183 1142 253 1251 Q325 1360 436 1421.5 Q547 1483 688 1483 Q912 1483 1046 1359 L970 1188 Q845 1286 690 1286 Q586 1286 510 1217 Q432 1148 393.5 1039 Q355 930 349 790 Q462 954 663 954 Q870 954 998 823 Q1125 693 1125 472 Q1125 257 991 117 Q857 -23 635 -23 Z " />
<glyph glyph-name="seven" unicode="7" horiz-adv-x="1256" d="M291 0 L822 1266 L117 1266 L117 1456 L1086 1456 L1086 1282 L537 0 L291 0 Z " />
<glyph glyph-name="eight" unicode="8" horiz-adv-x="1258" d="M590 852 Q699 881 760 947 Q821 1013 821 1107 Q821 1193 754 1242 Q687 1292 589 1292 Q487 1292 422 1242 Q358 1193 358 1099 Q358 1008 419.5 943 Q481 878 590 852 Z M591 169 Q711 169 781.5 226.5 Q852 284 852 397 Q852 491 778 571 Q704 650 595 676 Q477 650 405 575 Q332 499 332 395 Q332 341 350 299 Q368 257 402 228 Q436 199 483.5 184 Q531 169 591 169 Z M593 -23 Q381 -23 241 87 Q101 198 101 389 Q101 515 172 612.5 Q243 710 370 764 Q258 818 195 903 Q132 988 132 1103 Q132 1278 260 1380 Q387 1483 588 1483 Q798 1483 923 1379 Q1049 1275 1049 1096 Q1049 978 987 893.5 Q925 809 814 761 Q933 710 1006 607 Q1081 505 1081 383 Q1081 287 1041 209.5 Q1001 132 932 81 Q863 30 776.5 3.5 Q690 -23 593 -23 Z " />
<glyph glyph-name="nine" unicode="9" horiz-adv-x="1256" d="M565 716 Q687 716 762 792 Q837 868 837 1008 Q837 1124 768 1205 Q699 1286 578 1286 Q456 1286 386 1207 Q315 1127 315 1000 Q315 873 378 794 Q441 716 565 716 Z M522 -24 Q346 -24 153 73 L233 259 Q370 174 505 174 Q655 174 750 290 Q844 406 844 637 L844 675 Q752 525 540 525 Q331 525 207 655 Q83 785 83 995 Q81 1097 115.5 1186.5 Q150 1276 214.5 1342.5 Q279 1409 370 1446.5 Q461 1484 573 1483 Q816 1483 944.5 1301.5 Q1073 1120 1073 771 Q1073 398 926 187 Q779 -24 522 -24 Z " />
<glyph glyph-name="colon" unicode="&#x3a;" horiz-adv-x="571" d="M118 772 L118 1025 L384 1025 L385 772 L118 772 Z M118 -1 L118 253 L385 253 L385 -1 L118 -1 Z " />
<glyph glyph-name="semicolon" unicode="&#x3b;" horiz-adv-x="541" d="M137 772 L137 1025 L379 1025 L379 772 L137 772 Z M38 -251 L146 250 L400 250 L226 -251 L38 -251 Z " />
<glyph glyph-name="less" unicode="&#x3c;" horiz-adv-x="1354" d="M1097 48 L92 519 L92 626 L1101 1099 L1101 892 L384 573 L1097 251 L1097 48 Z " />
<glyph glyph-name="equal" unicode="&#x3d;" horiz-adv-x="1407" d="M159 673 L159 856 L1166 856 L1166 673 L159 673 Z M160 273 L160 455 L1168 455 L1168 273 L160 273 Z " />
<glyph glyph-name="greater" unicode="&#x3e;" horiz-adv-x="1356" d="M174 51 L174 260 L886 569 L179 899 L179 1105 L1185 616 L1185 502 L174 51 Z " />
<glyph glyph-name="question" unicode="&#x3f;" horiz-adv-x="1034" d="M265 0 L265 251 L510 251 L510 0 L265 0 Z M291 399 L291 538 Q291 574 301 608.5 Q311 643 328 675.5 Q345 708 368 738 Q391 768 418 794 Q456 831 497.5 870 Q539 909 573.5 949.5 Q608 990 630 1032.5 Q652 1075 651 1119 Q651 1162 635 1194 Q619 1226 590 1247 Q561 1268 520 1278 Q479 1288 430 1288 Q353 1288 266 1265 Q184 1243 134 1218 L134 1413 Q277 1483 453 1483 Q573 1483 669 1445 Q717 1426 756.5 1395.5 Q796 1365 824.5 1324.5 Q853 1284 868.5 1234 Q884 1184 884 1126 Q884 1078 871 1036.5 Q858 995 835.5 958 Q813 921 783.5 888.5 Q754 856 722 827 Q678 786 633.5 747.5 Q589 709 553 667.5 Q517 626 494.5 579 Q472 532 472 476 L472 399 L291 399 Z " />
<glyph glyph-name="at" unicode="&#x40;" horiz-adv-x="1796" d="M800 432 Q852 430 898.5 464 Q945 498 979 553 Q1013 608 1032 678.5 Q1051 749 1050 821 Q1050 893 1014 934 Q978 975 915 975 Q840 975 779 914 Q749 884 726.5 846.5 Q704 809 688.5 767.5 Q673 726 665.5 681.5 Q658 637 658 593 Q658 557 668.5 527.5 Q679 498 697.5 476.5 Q716 455 742 443.5 Q768 432 800 432 Z M897 -97 Q720 -97 568.5 -43.5 Q417 10 305 109 Q249 158 205 219.5 Q161 281 130 352 Q99 423 82.5 503.5 Q66 584 66 671 Q66 853 134 1009 Q202 1164 317 1266 Q434 1369 587 1425 Q740 1481 914 1481 Q1069 1481 1204 1430.5 Q1339 1380 1438 1289 Q1536 1200 1593 1071 Q1650 943 1650 795 Q1650 662 1600 536 Q1551 412 1463 332 Q1376 254 1278 254 Q1227 254 1187 269 Q1147 284 1119.5 311 Q1092 338 1077.5 376.5 Q1063 415 1063 462 Q1031 372 956 316 Q879 260 771 260 Q711 260 653.5 283 Q596 306 548 349 Q500 394 470.5 463.5 Q441 533 441 620 Q441 730 483 829 Q525 927 590 994 Q656 1061 735.5 1099.5 Q815 1138 891 1138 Q1059 1138 1101 1014 L1123 1116 L1317 1116 L1220 628 Q1209 571 1203.5 528.5 Q1198 486 1198 458 Q1198 425 1214 398 Q1230 371 1261 371 Q1297 371 1338.5 403.5 Q1380 436 1416 491 Q1453 547 1476 628 Q1500 710 1500 800 Q1500 903 1468.5 990 Q1437 1077 1382 1140 Q1341 1188 1289 1224 Q1237 1260 1177.5 1284 Q1118 1308 1052.5 1320 Q987 1332 920 1332 Q781 1332 662.5 1290 Q544 1248 450 1167 Q357 1086 304.5 959.5 Q252 833 252 671 Q252 548 287.5 445 Q323 342 386 269 Q434 214 493 172.5 Q552 131 619.5 103.5 Q687 76 761 62 Q835 48 912 48 Q1177 48 1394 190 L1471 86 Q1361 -3 1209 -50 Q1057 -97 897 -97 Z " />
<glyph glyph-name="A" unicode="A" horiz-adv-x="1434" d="M446 576 L892 576 Q846 708 791 863 Q736 1018 671 1199 L446 576 Z M-22 0 L557 1456 L793 1456 L1377 0 L1120 0 L973 373 L373 373 L229 0 L-22 0 Z " />
<glyph glyph-name="B" unicode="B" horiz-adv-x="1361" d="M384 852 L607 852 Q667 852 715 862 Q763 872 806 894 Q849 917 873 960 Q897 1003 897 1063 Q897 1178 816 1219 Q734 1260 568 1260 L384 1260 L384 852 Z M385 197 L638 197 Q797 197 880 255.5 Q963 314 963 426 Q963 561 886 611 Q809 662 622 662 L385 662 L385 197 Z M154 0 L154 1456 L543 1456 Q607 1456 657 1453 Q683 1452 712 1449.5 Q741 1447 773 1442 Q835 1435 887 1419 Q911 1411 936.5 1400.5 Q962 1390 986 1376.5 Q1010 1363 1031 1346.5 Q1052 1330 1068 1312 Q1100 1275 1120.5 1219 Q1141 1163 1141 1093 Q1141 985 1089 903 Q1037 821 926 778 Q995 763 1047.5 730.5 Q1100 698 1135.5 651.5 Q1171 605 1189.5 545.5 Q1208 486 1208 417 Q1208 332 1175 259 Q1142 186 1078 126 Q1015 68 912.5 34 Q810 0 679 0 L154 0 Z " />
<glyph glyph-name="C" unicode="C" horiz-adv-x="1416" d="M791 -22 Q676 -22 571.5 8 Q467 38 374 99 Q306 143 249.5 205 Q193 267 152 346 Q111 425 88.5 519.5 Q66 614 66 723 Q66 899 124 1043 Q183 1190 280 1284 Q380 1380 506.5 1431.5 Q633 1483 775 1483 Q1057 1483 1251 1328 L1160 1169 Q996 1286 794 1286 Q691 1288 601.5 1246 Q512 1204 446 1128.5 Q380 1053 343 949.5 Q306 846 308 726 Q308 473 447 324 Q587 175 804 175 Q1019 175 1210 322 L1287 139 Q1076 -22 791 -22 Z " />
<glyph glyph-name="D" unicode="D" horiz-adv-x="1555" d="M154 0 L154 1456 L530 1456 Q963 1456 1186 1275.5 Q1409 1095 1409 733 Q1409 379 1198 189 Q988 0 591 0 L154 0 Z M384 196 L604 196 Q742 196 847 231.5 Q952 267 1023 335.5 Q1094 404 1130 504.5 Q1166 605 1166 734 Q1166 999 1016 1129.5 Q866 1260 553 1260 L384 1260 L384 196 Z " />
<glyph glyph-name="E" unicode="E" horiz-adv-x="1221" d="M154 0 L154 1456 L1055 1456 L1055 1260 L384 1260 L384 849 L1017 849 L1017 652 L385 652 L385 196 L1084 196 L1084 0 L154 0 Z " />
<glyph glyph-name="F" unicode="F" horiz-adv-x="1133" d="M154 0 L154 1456 L1023 1456 L1023 1260 L384 1260 L384 847 L984 847 L984 650 L384 650 L384 0 L154 0 Z " />
<glyph glyph-name="G" unicode="G" horiz-adv-x="1534" d="M809 -23 Q451 -23 259 173 Q67 369 67 704 Q67 867 121 1008.5 Q175 1150 272 1256 Q369 1361 513 1422 Q657 1483 831 1483 Q1001 1483 1115 1442 Q1172 1422 1221.5 1396 Q1271 1370 1314 1338 L1222 1176 Q1064 1286 834 1286 Q710 1286 609 1240 Q508 1194 442 1115 Q376 1036 341 934 Q306 832 306 715 Q306 466 436 320 Q567 174 819 174 Q966 174 1094 216 L1094 586 L744 586 L744 783 L1326 783 L1326 86 Q1087 -23 809 -23 Z " />
<glyph glyph-name="H" unicode="H" horiz-adv-x="1564" d="M154 0 L154 1456 L384 1456 L384 845 L1101 845 L1101 1456 L1331 1456 L1331 0 L1104 0 L1104 649 L387 649 L387 0 L154 0 Z " />
<glyph glyph-name="I" unicode="I" horiz-adv-x="596" d="M150 0 L150 1456 L380 1456 L380 0 L150 0 Z " />
<glyph glyph-name="K" unicode="K" horiz-adv-x="1329" d="M154 0 L154 1456 L384 1456 L384 812 L969 1456 L1256 1456 L609 753 L1305 0 L1009 0 L385 667 L385 0 L154 0 Z " />
<glyph glyph-name="L" unicode="L" horiz-adv-x="1145" d="M154 0 L154 1456 L384 1456 L384 196 L1058 196 L1058 0 L154 0 Z " />
<glyph glyph-name="M" unicode="M" horiz-adv-x="1961" d="M154 0 L154 1456 L428 1456 L650 953 Q746 736 819 573 Q892 410 943 296 Q990 404 1118 694 Q1246 984 1455 1456 L1727 1456 L1727 0 L1511 0 L1511 1080 Q1461 974 1391 819.5 Q1321 665 1229 457 Q1138 250 1087.5 136.5 Q1037 23 1026 0 L857 0 L633 499 L375 1073 L375 0 L154 0 Z " />
<glyph glyph-name="N" unicode="N" horiz-adv-x="1616" d="M154 0 L154 1456 L399 1456 L641 1102 Q796 877 924.5 688.5 Q1053 500 1164 332 L1164 1456 L1382 1456 L1382 0 L1136 0 Q1091 64 1030.5 152 Q970 240 892 352 Q736 577 607 765 Q478 953 367 1122 L367 0 L154 0 Z " />
<glyph glyph-name="O" unicode="O" horiz-adv-x="1653" d="M790 -23 Q452 -23 259 181 Q66 386 66 733 Q66 955 151 1124 Q236 1293 402 1388 Q569 1483 793 1483 Q956 1484 1088.5 1429.5 Q1221 1375 1315 1275 Q1409 1175 1459 1036.5 Q1509 898 1507 733 Q1507 387 1316 181 Q1125 -23 790 -23 Z M786 174 Q1019 174 1138 321 Q1257 469 1257 733 Q1257 988 1138 1137 Q1019 1286 790 1286 Q560 1286 437 1136 Q314 987 314 733 Q314 469 433 321 Q553 174 786 174 Z " />
<glyph glyph-name="P" unicode="P" horiz-adv-x="1283" d="M384 837 L620 837 Q692 837 750.5 845.5 Q809 854 850 877 Q891 900 913.5 940.5 Q936 981 936 1045 Q936 1121 911 1162.5 Q886 1204 841 1227 Q814 1241 768 1248 Q721 1255 681 1257 Q661 1258 635 1258.5 Q609 1259 577 1259 L384 1259 L384 837 Z M154 0 L154 1456 L569 1456 Q610 1456 645 1455 Q680 1454 711 1452 Q742 1450 773.5 1446.5 Q805 1443 838 1438 Q908 1427 952 1410 Q1000 1392 1044 1361.5 Q1088 1331 1115 1288 Q1143 1246 1159 1185.5 Q1175 1125 1175 1047 Q1175 954 1150 885.5 Q1125 817 1079 769 Q1006 699 892.5 669 Q779 639 624 640 L384 640 L384 0 L154 0 Z " />
<glyph glyph-name="Q" unicode="Q" horiz-adv-x="1653" d="M1155 -382 Q1129 -354 1096 -314 Q1063 -274 1022 -221 Q942 -115 885 -18 Q859 -20 835.5 -21.5 Q812 -23 790 -23 Q452 -23 259 181 Q66 386 66 733 Q66 956 151 1124 Q236 1292 402 1388 Q569 1483 793 1483 Q956 1484 1088.5 1429.5 Q1221 1375 1315 1275 Q1409 1175 1459 1036.5 Q1509 898 1507 733 Q1507 474 1397 289 Q1287 105 1086 28 Q1182 -130 1338 -299 L1207 -439 L1155 -382 Z M786 174 Q1019 174 1138 321 Q1257 469 1257 733 Q1257 988 1138 1137 Q1019 1286 790 1286 Q560 1286 437 1136 Q314 987 314 733 Q314 469 433 321 Q553 174 786 174 Z " />
<glyph glyph-name="R" unicode="R" horiz-adv-x="1372" d="M381 825 L628 825 Q687 825 738.5 835 Q790 845 828.5 870.5 Q867 896 889.5 939 Q912 982 912 1048 Q912 1173 851 1216 Q790 1260 651 1260 L381 1260 L381 825 Z M154 0 L154 1456 L649 1456 Q740 1456 811 1446.5 Q882 1437 949 1411 Q1047 1374 1100 1291 Q1153 1208 1156 1062 Q1156 998 1138.5 942 Q1121 886 1085.5 841 Q1050 796 996.5 764 Q943 732 871 715 Q938 685 987 622 Q1036 559 1078 459 L1263 0 L1014 0 L849 433 Q806 549 756 590 Q709 630 601 630 L384 630 L384 0 L154 0 Z " />
<glyph glyph-name="S" unicode="S" horiz-adv-x="1244" d="M577 -23 Q420 -23 285 26 Q148 75 81 143 L181 309 Q245 257 356 215 Q470 174 565 174 Q843 174 843 390 Q843 413 841.5 431 Q840 449 835.5 465 Q831 481 822.5 495 Q814 509 801 524 Q776 554 728.5 578 Q681 602 600 629 Q589 633 572 638.5 Q555 644 532 651 L470 672 Q403 694 349.5 717.5 Q296 741 256 766 Q175 817 131.5 896.5 Q88 976 88 1091 Q88 1219 155 1308 Q222 1399 331.5 1441 Q441 1483 583 1483 Q709 1483 807 1460 Q904 1437 958 1405 Q1013 1373 1066 1321 L948 1167 Q918 1197 880 1219 Q842 1241 799 1256 Q756 1271 709.5 1278.5 Q663 1286 615 1286 Q491 1286 411 1239 Q333 1192 333 1100 Q334 1053 342 1022 Q350 991 374 966.5 Q398 942 442.5 920 Q487 898 563 871 Q627 851 660.5 840 Q694 829 698 827 Q919 752 1003 656 Q1087 561 1087 387 Q1087 281 1045.5 200.5 Q1004 120 932 72 Q787 -23 577 -23 Z " />
<glyph glyph-name="T" unicode="T" horiz-adv-x="1167" d="M426 0 L426 1260 L-29 1260 L-29 1456 L1116 1456 L1116 1260 L656 1260 L656 0 L426 0 Z " />
<glyph glyph-name="U" unicode="U" horiz-adv-x="1503" d="M711 -23 Q575 -23 472.5 9 Q370 41 304 95 Q272 122 245 155 Q218 188 198 228 Q158 307 142 392.5 Q126 478 126 583 L126 1456 L356 1456 L356 576 Q356 469 379.5 393 Q403 317 448 268.5 Q493 220 559.5 197 Q626 174 712 174 Q883 174 974 268 Q1067 362 1067 575 L1067 1456 L1297 1456 L1297 584 Q1297 478 1280.5 391.5 Q1264 305 1222 226 Q1192 168 1147 122.5 Q1102 77 1039.5 45 Q977 13 895.5 -4.5 Q814 -22 711 -23 Z " />
<glyph glyph-name="V" unicode="V" horiz-adv-x="1363" d="M527 0 L-25 1456 L234 1456 Q242 1434 285 1312 Q328 1190 406 966 Q485 742 545 575 Q605 408 647 293 Q670 357 775 647.5 Q880 938 1065 1456 L1308 1456 L759 0 L527 0 Z " />
<glyph glyph-name="W" unicode="W" horiz-adv-x="2052" d="M384 0 L-24 1456 L222 1456 L318 1085 Q350 964 378.5 854.5 Q407 745 432 646 Q458 547 481 454.5 Q504 362 525 272 Q550 363 576.5 456 Q603 549 632 647 Q661 746 695 855 Q729 964 767 1087 Q843 1331 881 1456 L1105 1456 L1383 562 L1467 269 Q1487 359 1509 452 Q1531 545 1556 645 L1665 1083 L1758 1456 L1996 1456 L1598 0 L1331 0 L987 1141 L647 0 L384 0 Z " />
<glyph glyph-name="X" unicode="X" horiz-adv-x="1345" d="M-22 0 L501 738 L8 1456 L291 1456 L645 932 L1010 1456 L1275 1456 L775 747 L1289 0 L1007 0 L632 554 L250 0 L-22 0 Z " />
<glyph glyph-name="Y" unicode="Y" horiz-adv-x="1258" d="M469 0 L469 567 L-42 1456 L217 1456 L588 771 L960 1456 L1224 1456 L699 570 L699 0 L469 0 Z " />
<glyph glyph-name="Z" unicode="Z" horiz-adv-x="1192" d="M41 0 L41 124 L748 1260 L69 1260 L69 1456 L1063 1456 L1063 1336 L350 196 L1060 196 L1060 0 L41 0 Z " />
<glyph glyph-name="bracketleft" unicode="&#x5b;" horiz-adv-x="636" d="M112 -184 L112 1490 L529 1490 L529 1320 L336 1320 L336 -14 L530 -14 L530 -184 L112 -184 Z " />
<glyph glyph-name="backslash" unicode="&#x5c;" horiz-adv-x="762" d="M543 -48 L-96 1456 L127 1456 L766 -48 L543 -48 Z " />
<glyph glyph-name="bracketright" unicode="&#x5d;" horiz-adv-x="636" d="M63 -184 L63 -14 L251 -14 L251 1320 L62 1320 L62 1490 L476 1490 L476 -184 L63 -184 Z " />
<glyph glyph-name="asciicircum" unicode="&#x5e;" horiz-adv-x="1585" d="M177 544 L678 1456 L821 1456 L1328 544 L1105 544 L747 1205 L404 544 L177 544 Z " />
<glyph glyph-name="underscore" unicode="&#x5f;" horiz-adv-x="984" d="M-50 -260 L-50 -83 L955 -83 L955 -260 L-50 -260 Z " />
<glyph glyph-name="grave" unicode="&#x60;" horiz-adv-x="604" d="M314 1170 L-31 1511 L257 1511 L513 1170 L314 1170 Z " />
<glyph glyph-name="a" unicode="a" horiz-adv-x="1284" d="M592 159 Q739 159 811 256 Q883 353 883 517 Q883 676 808 774 Q735 871 589 871 Q441 871 364 773 Q288 676 288 515 Q288 356 364 258 Q440 159 592 159 Z M561 -23 Q441 -23 344 21.5 Q247 66 187 141 Q127 216 95.5 309.5 Q64 403 64 506 Q64 615 97 712.5 Q130 810 193 886 Q256 962 351.5 1007 Q447 1052 565 1052 Q668 1052 747.5 1008.5 Q827 965 875 892 L875 1026 L1094 1026 L1094 0 L871 0 L871 154 Q825 73 744.5 25 Q664 -23 561 -23 Z " />
<glyph glyph-name="b" unicode="b" horiz-adv-x="1283" d="M628 159 Q764 159 834 259 Q904 359 904 519 Q904 674 832 772 Q760 871 630 871 Q492 871 411 770 Q331 669 331 515 Q331 359 409 259 Q488 159 628 159 Z M664 -23 Q553 -23 465 26 Q377 76 339 145 L339 0 L111 0 Q115 105 116.5 172.5 Q118 240 118 272 L118 1469 L342 1469 L342 872 Q365 928 441 985 Q480 1014 540.5 1033 Q601 1052 673 1052 Q887 1052 1013 906 Q1139 760 1139 524 Q1139 281 1002 129 Q865 -23 664 -23 Z " />
<glyph glyph-name="c" unicode="c" horiz-adv-x="1073" d="M594 -23 Q431 -23 310 49 Q188 122 126 242 Q64 362 64 510 Q62 626 100 726 Q138 826 208 899 Q278 972 376.5 1012.5 Q475 1053 595 1052 Q823 1052 951 920 L872 774 Q762 870 615 870 Q468 870 382 775 Q297 681 297 511 Q297 352 383 255 Q468 159 617 159 Q754 159 882 254 L951 90 Q793 -23 594 -23 Z " />
<glyph glyph-name="d" unicode="d" horiz-adv-x="1267" d="M575 159 Q712 159 783 258 Q853 358 853 518 Q853 672 782 772 Q711 871 577 871 Q442 871 370 772 Q298 673 298 514 Q298 356 368 258 Q438 159 575 159 Z M534 -23 Q330 -23 197 122 Q64 267 64 508 Q64 621 95.5 720 Q127 819 188 893 Q249 967 339.5 1009.5 Q430 1052 549 1052 Q658 1052 738 1005 Q818 958 847 902 L847 1469 L1071 1469 L1071 270 Q1071 247 1072.5 179.5 Q1074 112 1078 0 L850 0 L848 147 Q821 82 740 30 Q660 -23 534 -23 Z " />
<glyph glyph-name="e" unicode="e" horiz-adv-x="1188" d="M303 628 L833 628 Q820 749 756 813 Q692 877 590 877 Q476 877 401 811.5 Q326 746 303 628 Z M610 -23 Q358 -23 211 124 Q64 271 64 512 Q64 662 125 783 Q186 904 305 978 Q424 1052 580 1052 Q695 1052 783 1011.5 Q871 971 925 898 Q979 826 1006 732 Q1033 638 1033 523 Q1033 512 1031.5 501 Q1030 490 1028 477 L298 477 Q304 319 393 239 Q482 159 627 159 Q803 159 949 271 L1012 107 Q840 -23 610 -23 Z " />
<glyph glyph-name="f" unicode="f" horiz-adv-x="784" d="M217 0 L217 876 L30 876 L30 1026 L217 1026 L217 1080 Q217 1138 219.5 1178.5 Q222 1219 229 1261 Q236 1303 249 1331 Q262 1359 283 1386 Q323 1437 408.5 1460 Q494 1483 635 1483 L686 1483 L679 1310 Q596 1310 549 1301.5 Q502 1293 476 1271 Q461 1256 453 1230 Q444 1202 442 1171.5 Q440 1141 440 1089 L440 1026 L677 1026 L677 876 L440 876 L440 0 L217 0 Z " />
<glyph glyph-name="g" unicode="g" horiz-adv-x="1253" d="M572 183 Q649 183 702 211 Q755 239 788 286.5 Q821 334 836 396.5 Q851 459 851 528 Q851 683 781 777 Q711 871 581 871 Q445 871 372 771 Q298 671 298 517 Q298 357 367 270 Q436 183 572 183 Z M536 -414 Q330 -414 148 -332 L185 -138 Q348 -232 524 -232 Q675 -232 758.5 -159 Q842 -86 842 59 L842 156 Q744 12 557 12 Q337 12 201 148 Q64 285 64 515 Q64 626 94 724 Q124 822 184 895 Q244 968 334.5 1010 Q425 1052 546 1052 Q652 1052 726 1009.5 Q800 967 843 900 L843 1026 L1078 1026 Q1070 948 1066 868.5 Q1062 789 1062 708 L1062 147 Q1062 59 1048 -17.5 Q1034 -94 997 -169 Q961 -244 903 -296 Q845 -350 752 -382 Q659 -414 536 -414 Z " />
<glyph glyph-name="h" unicode="h" horiz-adv-x="1227" d="M112 0 L112 1469 L336 1469 L336 883 Q377 959 471 1005 Q567 1052 659 1052 Q750 1052 819 1023 Q888 994 930 949 Q973 903 998 841 Q1025 778 1035 717 Q1045 656 1045 589 L1045 0 L821 0 L821 593 Q821 740 773.5 805.5 Q726 871 625 871 Q513 871 425 795 Q336 718 336 620 L336 0 L112 0 Z " />
<glyph glyph-name="i" unicode="i" horiz-adv-x="526" d="M118 1256 L118 1456 L336 1456 L336 1256 L118 1256 Z M117 0 L117 1026 L336 1026 L336 0 L117 0 Z " />
<glyph glyph-name="j" unicode="j" horiz-adv-x="544" d="M142 1246 L142 1456 L364 1456 L364 1246 L142 1246 Z M16 -394 Q-43 -394 -141 -375 L-129 -208 Q-59 -224 -14 -224 Q26 -224 56 -210.5 Q86 -197 105.5 -166.5 Q125 -136 134.5 -87 Q144 -38 144 32 L144 1026 L361 1026 L361 55 Q361 -21 353.5 -81 Q346 -141 324 -202 Q301 -264 265 -303 Q228 -343 164.5 -368.5 Q101 -394 16 -394 Z " />
<glyph glyph-name="k" unicode="k" horiz-adv-x="1106" d="M116 0 L116 1469 L340 1469 L340 601 L739 1026 L1047 1026 L546 534 L1081 0 L783 0 L340 460 L340 0 L116 0 Z " />
<glyph glyph-name="l" unicode="l" horiz-adv-x="528" d="M118 0 L118 1469 L341 1469 L341 0 L118 0 Z " />
<glyph glyph-name="m" unicode="m" horiz-adv-x="1853" d="M126 0 L126 714 Q126 780 123 840 Q120 900 116 951.5 Q112 1003 111 1026 L346 1026 L346 880 Q384 957 468 1004 Q553 1052 649 1052 Q700 1052 746 1039 Q792 1026 832 1000.5 Q872 975 903.5 937 Q935 899 956 850 Q1016 944 1103.5 998 Q1191 1052 1305 1052 Q1395 1052 1463.5 1023 Q1532 994 1577.5 939.5 Q1623 885 1646.5 806.5 Q1670 728 1670 629 L1670 0 L1446 0 L1446 612 Q1446 648 1442.5 679.5 Q1439 711 1432 739 Q1418 796 1380 833.5 Q1342 871 1284 871 Q1171 871 1092 783 Q1012 695 1012 583 L1012 0 L788 0 L788 629 Q788 677 780 716 Q772 755 753 792 Q735 829 699.5 850 Q664 871 613 871 Q503 871 426 794 Q350 718 350 617 L350 0 L126 0 Z " />
<glyph glyph-name="n" unicode="n" horiz-adv-x="1234" d="M126 0 L126 677 Q126 724 125 768.5 Q124 813 122 857 Q120 901 118 933 Q116 965 114 985 L110 1026 L345 1026 L345 881 Q397 963 489 1007 Q580 1052 672 1052 Q862 1052 957 938 Q1052 824 1052 575 L1052 0 L828 0 L828 582 Q828 734 783 802 Q739 871 627 871 Q530 871 440 796 Q350 722 350 626 L350 0 L126 0 Z " />
<glyph glyph-name="o" unicode="o" horiz-adv-x="1274" d="M600 -23 Q470 -23 367 19 Q264 61 198 134 Q132 207 98 303 Q64 399 64 513 Q64 667 124 787 Q184 908 307 980 Q431 1052 601 1052 Q732 1052 833.5 1011.5 Q935 971 999 896 Q1063 823 1096.5 726 Q1130 629 1130 511 Q1130 399 1096 304 Q1062 209 996 134 Q932 61 830 19 Q728 -23 600 -23 Z M599 159 Q747 159 821 258 Q896 357 896 514 Q896 674 820 772 Q743 871 598 871 Q451 871 375 772 Q298 672 298 514 Q298 356 374 258 Q450 159 599 159 Z " />
<glyph glyph-name="p" unicode="p" horiz-adv-x="1267" d="M616 159 Q752 159 821 258 Q890 358 890 516 Q890 675 820 772 Q749 871 617 871 Q482 871 410 771 Q338 670 338 511 Q338 355 408 257 Q479 159 616 159 Z M126 -405 L126 703 Q126 760 111 1026 L348 1026 L348 867 Q368 935 458 993 Q550 1052 671 1052 Q808 1052 912 980 Q1017 908 1070.5 790 Q1124 672 1124 525 Q1124 377 1070 253 Q1016 130 909 53 Q803 -23 663 -23 Q545 -23 454 33 Q364 91 348 149 L348 -405 L126 -405 Z " />
<glyph glyph-name="q" unicode="q" horiz-adv-x="1256" d="M572 159 Q665 159 729 208 Q793 257 821.5 335.5 Q850 414 850 519 Q850 675 779 773 Q708 871 574 871 Q438 871 368 772 Q297 672 297 514 Q297 411 325 334 Q353 256 416 207.5 Q479 159 572 159 Z M840 -405 L840 108 Q782 48 705 12.5 Q628 -23 543 -23 Q428 -23 336 21 Q244 65 184 140 Q126 216 94.5 313 Q63 410 63 522 Q63 672 118 789 Q174 908 285 980 Q397 1052 547 1052 Q631 1052 708 1014 Q785 976 842 904 L842 1026 L1071 1026 Q1066 962 1063.5 894.5 Q1061 827 1061 754 L1061 -405 L840 -405 Z " />
<glyph glyph-name="r" unicode="r" horiz-adv-x="798" d="M128 0 L128 770 Q128 791 127 817.5 Q126 844 124 876 Q122 908 120 934.5 Q118 961 116 983 L112 1026 L350 1026 L350 881 Q461 1052 612 1052 Q662 1052 716 1037 L716 840 Q656 860 596 860 Q488 860 420 786 Q353 713 353 577 L353 0 L128 0 Z " />
<glyph glyph-name="s" unicode="s" horiz-adv-x="988" d="M490 -23 Q356 -23 248 16 Q138 56 78 104 L136 268 Q197 222 290 189 Q383 156 472 156 Q650 156 650 287 Q650 337 613 364 Q575 393 456 433 L360 466 Q326 478 299 488.5 Q272 499 249 510 Q226 521 206 534 Q186 547 165 564 Q123 597 104 645 Q85 693 85 759 Q85 837 116.5 892.5 Q148 948 200.5 983 Q253 1018 320 1034 Q387 1050 459 1050 Q564 1050 657.5 1024 Q751 998 817 955 L757 799 Q705 827 626 850 Q548 873 481 873 Q304 873 304 767 Q304 719 335 695 Q367 671 474 633 Q476 632 488 628 Q500 624 523 616 L575 598 Q604 588 627.5 578.5 Q651 569 670 561 Q706 545 746 519 Q774 500 795 478 Q816 456 829.5 428.5 Q843 401 850 366.5 Q857 332 859 288 Q859 203 826.5 141 Q794 79 739 44 Q630 -23 490 -23 Z " />
<glyph glyph-name="t" unicode="t" horiz-adv-x="820" d="M694 1 L598 1 Q490 1 417 15 Q347 28 291 68 Q236 107 211.5 180 Q187 253 187 368 L187 876 L-17 876 L-17 1026 L193 1026 L193 1276 L410 1341 L410 1026 L690 1026 L690 876 L410 876 L410 355 Q410 292 421 257.5 Q432 223 467 203 Q484 193 505 186.5 Q526 180 551 178 Q576 176 611 174.5 Q646 173 694 173 L694 1 Z " />
<glyph glyph-name="u" unicode="u" horiz-adv-x="1206" d="M498 -23 Q305 -23 203 87 Q102 199 102 382 L102 1026 L324 1026 L324 384 Q324 270 380 214.5 Q436 159 541 159 Q662 159 723.5 222.5 Q785 286 785 413 L785 1026 L1009 1026 L1009 268 Q1009 204 1011.5 137 Q1014 70 1019 0 L789 0 L785 156 Q773 128 752 100 Q731 72 697 42 Q663 13 611 -5 Q559 -23 498 -23 Z " />
<glyph glyph-name="v" unicode="v" horiz-adv-x="1102" d="M407 0 L-25 1026 L223 1026 L520 243 Q540 302 562.5 363 Q585 424 608 490 L714 780 L805 1026 L1046 1026 L614 0 L407 0 Z " />
<glyph glyph-name="w" unicode="w" horiz-adv-x="1669" d="M342 0 L-18 1026 L220 1026 Q299 772 358.5 584.5 Q418 397 458 271 L591 668 L712 1026 L914 1026 L1036 647 L1157 269 Q1197 397 1256 584.5 Q1315 772 1396 1026 L1607 1026 L1236 0 L1043 0 Q937 316 876 500.5 Q815 685 798 738 L666 369 L536 0 L342 0 Z " />
<glyph glyph-name="x" unicode="x" horiz-adv-x="1048" d="M-11 0 L361 504 L8 1026 L254 1026 L487 675 L743 1026 L975 1026 L611 530 L979 0 L734 0 L486 359 L224 0 L-11 0 Z " />
<glyph glyph-name="y" unicode="y" horiz-adv-x="1098" d="M196 -441 L102 -289 Q171 -264 222.5 -235.5 Q274 -207 311 -175.5 Q348 -144 372 -108 Q396 -72 408 -31 L422 19 L-6 1026 L226 1026 L531 258 L803 1026 L1030 1026 L614 -56 Q585 -131 542.5 -193 Q500 -255 446.5 -303 Q393 -351 329.5 -385.5 Q266 -420 196 -441 Z " />
<glyph glyph-name="z" unicode="z" horiz-adv-x="987" d="M63 0 L63 119 L561 846 L82 846 L82 1026 L851 1026 L851 909 L351 179 L875 179 L875 0 L63 0 Z " />
<glyph glyph-name="braceleft" unicode="&#x7b;" horiz-adv-x="857" d="M510 1146 L510 905 Q510 802 457.5 738.5 Q405 675 306 659 Q406 640 458 573 Q510 506 510 400 L510 162 Q510 113 518 80.5 Q526 48 539 28 Q552 8 581 -2 Q596 -7 610.5 -10 Q625 -13 641.5 -15 Q658 -17 678 -18 Q698 -19 724 -19 L724 -194 Q549 -194 454 -157 Q406 -139 373 -112.5 Q340 -86 320 -48 Q300 -10 291 39.5 Q282 89 282 154 L282 388 Q282 440 272.5 477.5 Q263 515 241 539 Q219 563 184.5 574.5 Q150 586 99 586 L99 735 Q196 736 238.5 780.5 Q281 825 281 925 L281 1158 Q281 1255 300 1318.5 Q319 1382 368 1427 Q419 1473 504.5 1493.5 Q590 1514 724 1514 L724 1339 Q659 1337 618 1329.5 Q577 1322 554 1301.5 Q531 1281 521.5 1244 Q512 1207 510 1146 Z " />
<glyph glyph-name="bar" unicode="&#x7c;" horiz-adv-x="607" d="M157 -465 L157 1518 L370 1518 L370 -465 L157 -465 Z " />
<glyph glyph-name="braceright" unicode="&#x7d;" horiz-adv-x="862" d="M68 -194 L68 -18 Q133 -16 174 -8.5 Q215 -1 238 19.5 Q261 40 270.5 77 Q280 114 282 175 L282 416 Q282 519 334.5 582.5 Q387 646 486 663 Q386 682 334 749 Q282 816 282 921 L282 1159 Q282 1208 274 1240.5 Q266 1273 252 1293 Q238 1312 210 1323 Q182 1333 151.5 1336.5 Q121 1340 69 1340 L69 1514 Q244 1514 339 1477 Q436 1441 473 1368 Q511 1295 511 1167 L511 933 Q511 880 520.5 843 Q530 806 552 782 Q574 758 608.5 746.5 Q643 735 693 735 L693 586 Q596 585 553.5 540.5 Q511 496 511 396 L511 163 Q511 66 492 2.5 Q473 -61 423 -107 Q374 -153 288 -173.5 Q202 -194 68 -194 Z " />
<glyph glyph-name="asciitilde" unicode="&#x7e;" horiz-adv-x="1410" d="M287 363 L132 437 Q203 715 432 715 Q524 715 713 641 Q875 582 923 582 Q977 582 1008 621.5 Q1039 661 1058 748 L1222 687 Q1185 534 1115.5 464 Q1046 394 933 394 Q848 394 658 466 Q489 528 443 528 Q383 528 348 489 Q313 450 287 363 Z " />
<glyph glyph-name="uni007F" unicode="&#x7f;" horiz-adv-x="1521" d="M188 0 L188 1456 L1333 1456 L1333 0 L188 0 Z M360 124 L1161 124 L1161 1330 L360 1330 L360 124 Z " />
<glyph glyph-name="uni00A0" unicode="&#xa0;" horiz-adv-x="599" d="" />
<glyph glyph-name="exclamdown" unicode="&#xa1;" horiz-adv-x="690" d="M179 1152 L423 1152 L423 901 L179 901 L179 1152 Z M234 769 L367 769 L433 -304 L168 -304 L234 769 Z " />
<glyph glyph-name="cent" unicode="&#xa2;" horiz-adv-x="1058" d="M666 -19 L666 -230 L558 -230 L558 -22 Q409 -15 293 60 Q178 135 121 251 Q64 367 64 510 Q64 737 198 888 Q333 1037 558 1051 L558 1250 L666 1250 L666 1048 Q845 1030 951 920 L872 774 Q787 852 666 867 L666 162 Q777 176 882 254 L951 90 Q821 -2 666 -19 Z M558 163 L558 866 Q435 848 366 756 Q297 664 297 511 Q297 368 366 275 Q436 183 558 163 Z " />
<glyph glyph-name="sterling" unicode="&#xa3;" horiz-adv-x="1235" d="M784 1298 Q715 1298 665.5 1278.5 Q616 1259 583.5 1218 Q551 1177 536 1113.5 Q521 1050 521 961 L521 834 L869 834 L869 673 L522 673 L522 606 Q522 465 491 357 Q460 249 411 186 L1068 186 L1068 0 L112 0 L112 172 Q128 185 141 197 Q154 209 166 221 Q178 233 189.5 247.5 Q201 262 214 282 Q240 319 257 363 Q274 406 285.5 470 Q297 534 297 610 L297 673 L110 673 L110 834 L294 834 L294 910 Q294 1011 305.5 1091 Q317 1171 348 1246 Q379 1322 431 1372 Q483 1423 567.5 1452.5 Q652 1482 764 1482 Q951 1482 1072 1409 L1015 1237 Q983 1252 955 1263.5 Q927 1275 899.5 1282.5 Q872 1290 844 1294 Q816 1298 784 1298 Z " />
<glyph glyph-name="currency" unicode="&#xa4;" horiz-adv-x="1218" d="M609 710 Q739 710 825 800 Q911 891 911 1022 Q911 1153 825 1242 Q739 1331 609 1331 Q479 1331 393 1242 Q307 1153 307 1022 Q307 891 393 800 Q478 710 609 710 Z M171 543 L120 594 L307 781 Q219 887 219 1024 Q219 1167 314 1276 L119 1471 L170 1522 L367 1326 Q473 1409 610 1409 Q746 1409 853 1327 L1048 1522 L1099 1471 L906 1278 Q1002 1168 1002 1024 Q1002 886 913 779 L1099 594 L1048 543 L862 729 Q752 639 610 639 Q467 639 358 730 L171 543 Z " />
<glyph glyph-name="yen" unicode="&#xa5;" horiz-adv-x="1258" d="M467 269 L119 269 L119 417 L467 417 L467 549 L119 549 L119 703 L389 703 L-44 1456 L215 1456 L586 771 L958 1456 L1222 1456 L776 703 L1060 703 L1060 549 L697 549 L697 417 L1061 417 L1061 269 L697 269 L697 0 L467 0 L467 269 Z " />
<glyph glyph-name="brokenbar" unicode="&#xa6;" horiz-adv-x="500" d="M110 597 L110 1518 L317 1518 L317 597 L110 597 Z M112 -465 L112 409 L319 409 L319 -465 L112 -465 Z " />
<glyph glyph-name="section" unicode="&#xa7;" horiz-adv-x="1090" d="M591 564 Q654 622 654 691 Q658 719 643 742 Q628 765 612 779 Q607 783 598.5 789 Q590 795 580 801 Q570 807 560.5 812 Q551 817 545 820 L501 840 L456 861 Q439 851 423.5 837 Q408 823 392 806 Q361 772 361 731 Q361 705 373 686.5 Q385 668 410 650 Q425 641 435.5 634.5 Q446 628 468 618 L503 602 Q510 599 521 594.5 Q532 590 546 583 L591 564 Z M474 -67 Q312 -67 155 -8 L155 179 Q314 112 462 112 Q549 112 600 146 Q651 180 651 244 Q651 284 600 317 Q548 351 385 427 L353 442 Q139 541 139 712 Q139 784 183 846.5 Q227 909 297 951 Q231 999 196.5 1055 Q162 1111 162 1187 Q162 1284 216 1352 Q270 1421 355 1451 Q440 1481 549 1481 Q696 1481 828 1437 L828 1265 Q662 1314 582 1314 Q542 1314 508 1306.5 Q474 1299 449.5 1285 Q425 1271 411 1249 Q397 1227 397 1199 Q397 1151 451.5 1106.5 Q506 1062 623 1010 Q655 994 681.5 980.5 Q708 967 728 954 Q770 929 811 894 Q893 825 893 722 Q893 589 744 479 Q886 400 886 250 Q886 97 769 15 Q653 -67 474 -67 Z " />
<glyph glyph-name="dieresis" unicode="&#xa8;" horiz-adv-x="743" d="M436 1165 L436 1380 L661 1380 L661 1165 L436 1165 Z M0 1165 L0 1380 L225 1380 L225 1165 L0 1165 Z " />
<glyph glyph-name="copyright" unicode="&#xa9;" horiz-adv-x="1719" d="M819 -22 Q668 -22 527 37 Q388 97 287 198 Q186 299 126 438 Q66 577 66 730 Q66 882 126 1022 Q186 1161 287 1262 Q388 1363 527 1423 Q666 1483 819 1483 Q971 1483 1111 1423 Q1251 1363 1352 1262 Q1453 1161 1513 1022 Q1573 882 1573 730 Q1573 577 1513 438 Q1453 299 1352 198 Q1251 97 1111 37 Q970 -22 819 -22 Z M819 87 Q947 87 1063 138 Q1180 191 1262 276 Q1345 361 1395 480 Q1445 600 1445 727 Q1445 854 1395 974 Q1345 1093 1263 1180 Q1182 1266 1063 1319 Q949 1371 819 1371 Q690 1371 574 1319 Q457 1266 374 1180 Q290 1092 241.5 974.5 Q193 857 193 727 Q193 556 276 408 Q358 261 503 174 Q648 87 819 87 Z M840 287 Q646 287 524 412 Q403 537 403 723 Q403 919 522 1044 Q642 1169 840 1169 Q1029 1169 1134 1061 L1068 940 Q979 1020 856 1020 Q735 1020 665 941 Q594 861 594 723 Q594 591 666 513 Q740 436 859 436 Q973 436 1077 516 L1135 383 Q1001 287 840 287 Z " />
<glyph glyph-name="ordfeminine" unicode="&#xaa;" horiz-adv-x="838" d="M317 858 Q391 858 449 907 Q508 957 508 1045 L508 1063 Q476 1063 451.5 1063 Q427 1063 410 1062 Q393 1062 374 1061 Q355 1060 337.5 1058 Q320 1056 305 1053.5 Q290 1051 281 1048 Q251 1037 232 1015 Q213 993 217 952 Q217 909 246 883.5 Q275 858 317 858 Z M688 1202 Q688 874 697 766 L532 766 L519 864 Q508 838 488.5 815 Q469 792 441.5 775 Q414 758 379 747.5 Q344 737 302 737 Q200 737 130 794 Q61 851 61 950 Q61 1053 129 1108.5 Q197 1164 333 1164 L509 1164 L509 1204 Q509 1339 375 1339 Q351 1339 324.5 1335.5 Q298 1332 269 1325 Q240 1318 218 1312 Q196 1306 179 1299 L146 1286 L94 1411 Q101 1415 110.5 1420 Q120 1425 133 1430 Q156 1441 235 1461 Q311 1480 392 1480 Q452 1480 505.5 1466 Q559 1452 599.5 1419 Q640 1386 664 1333 Q688 1280 688 1202 Z " />
<glyph glyph-name="guillemotleft" unicode="&#xab;" horiz-adv-x="1155" d="M808 162 L533 541 L814 920 L1000 920 L758 541 L992 162 L808 162 Z M371 162 L96 541 L377 920 L563 920 L321 541 L555 162 L371 162 Z " />
<glyph glyph-name="logicalnot" unicode="&#xac;" horiz-adv-x="1459" d="M987 226 L987 623 L135 623 L135 810 L1196 810 L1196 226 L987 226 Z " />
<glyph glyph-name="uni00AD" unicode="&#xad;" horiz-adv-x="717" d="M58 469 L58 641 L660 641 L660 469 L58 469 Z " />
<glyph glyph-name="registered" unicode="&#xae;" horiz-adv-x="1719" d="M819 -22 Q668 -22 527 37 Q388 97 287 198 Q186 299 126 438 Q66 577 66 730 Q66 882 126 1022 Q186 1161 287 1262 Q388 1363 527 1423 Q666 1483 819 1483 Q971 1483 1111 1423 Q1251 1363 1352 1262 Q1453 1161 1513 1022 Q1573 882 1573 730 Q1573 577 1513 438 Q1453 299 1352 198 Q1251 97 1111 37 Q970 -22 819 -22 Z M819 87 Q947 87 1063 138 Q1180 191 1262 276 Q1345 361 1395 480 Q1445 600 1445 727 Q1445 854 1395 974 Q1345 1093 1263 1180 Q1182 1266 1063 1319 Q949 1371 819 1371 Q690 1371 574 1319 Q457 1266 374 1180 Q290 1092 241.5 974.5 Q193 857 193 727 Q193 556 276 408 Q358 261 503 174 Q648 87 819 87 Z M683 784 L785 784 Q894 784 944.5 809 Q995 834 995 903 Q995 983 958 1002 Q920 1023 795 1023 L683 1023 L683 784 Z M489 286 L489 1177 L793 1177 Q1000 1177 1096.5 1111 Q1193 1045 1193 915 Q1193 716 1004 671 L1200 286 L985 286 L821 642 L684 642 L684 286 L489 286 Z " />
<glyph glyph-name="overscore" unicode="&#xaf;" horiz-adv-x="742" d="M66 1202 L66 1347 L676 1347 L676 1202 L66 1202 Z " />
<glyph glyph-name="degree" unicode="&#xb0;" horiz-adv-x="874" d="M397 851 Q268 851 177 939 Q87 1027 87 1155 Q87 1282 177 1371 Q269 1460 397 1460 Q525 1460 616 1371 Q707 1283 707 1155 Q707 1027 616 939 Q527 851 397 851 Z M397 978 Q473 978 521 1029 Q570 1079 570 1156 Q570 1232 521 1281 Q473 1332 397 1332 Q323 1332 274 1281 Q225 1231 225 1156 Q225 1080 273 1029 Q322 978 397 978 Z " />
<glyph glyph-name="plusminus" unicode="&#xb1;" horiz-adv-x="1256" d="M148 0 L148 160 L1032 160 L1032 0 L148 0 Z M481 277 L481 592 L152 592 L152 776 L477 776 L477 1095 L688 1095 L688 776 L1022 776 L1022 592 L696 592 L696 277 L481 277 Z " />
<glyph glyph-name="uni00B2" unicode="&#xb2;" horiz-adv-x="1120" d="M289 615 L289 755 L556 998 Q695 1125 695 1211 Q695 1259 663 1283 Q631 1307 577 1307 Q523 1307 463.5 1282 Q404 1257 353 1215 L283 1345 Q344 1400 424 1430 Q504 1460 588 1460 Q713 1460 792 1396 Q872 1333 872 1213 Q872 1129 816.5 1049.5 Q761 970 661 882 L530 769 L863 769 L863 615 L289 615 Z " />
<glyph glyph-name="uni00B3" unicode="&#xb3;" horiz-adv-x="1025" d="M544 602 Q382 602 263 697 L323 815 Q436 738 532 738 Q599 738 638.5 773 Q678 808 678 866 Q678 923 631 953.5 Q584 984 499 984 L420 984 L420 1116 L495 1116 Q567 1116 611 1143 Q655 1170 655 1221 Q655 1273 622 1299.5 Q589 1326 529 1326 Q427 1326 315 1255 L256 1368 Q390 1459 550 1459 Q665 1459 742 1402 Q818 1345 818 1239 Q818 1103 673 1061 Q761 1039 803 985.5 Q845 932 845 863 Q845 737 758 670 Q672 602 544 602 Z " />
<glyph glyph-name="acute" unicode="&#xb4;" horiz-adv-x="607" d="M11 1170 L265 1510 L553 1510 L211 1170 L11 1170 Z " />
<glyph glyph-name="mu.001" unicode="&#xb5;" horiz-adv-x="1203" d="M365 -241 L139 -241 L139 1026 L360 1026 L362 422 Q362 158 573 158 Q695 158 758 220.5 Q821 283 821 419 L821 1026 L1046 1026 L1046 262 Q1046 187 1049 122 Q1052 57 1059 0 L827 0 L823 155 Q788 75 712 26 Q636 -23 538 -23 Q432 -23 365 21 L365 -241 Z " />
<glyph glyph-name="paragraph" unicode="&#xb6;" horiz-adv-x="1220" d="M406 -178 L406 799 Q249 809 159 895 Q69 982 69 1131 Q69 1318 203 1390 Q270 1425 351.5 1440 Q433 1455 544 1455 L1022 1455 L1022 1283 L929 1283 L929 -178 L755 -178 L755 1283 L581 1283 L581 -178 L406 -178 Z " />
<glyph glyph-name="middot.001" unicode="&#xb7;" horiz-adv-x="546" d="M247 533 L247 775 L501 775 L501 533 L247 533 Z " />
<glyph glyph-name="cedilla" unicode="&#xb8;" horiz-adv-x="529" d="M192 -476 Q81 -476 -13 -432 L0 -302 Q72 -333 158 -333 Q209 -333 240 -314.5 Q271 -296 271 -257 Q271 -177 116 -166 L89 -164 L120 23 L234 23 L215 -97 Q336 -108 396.5 -155 Q457 -202 457 -274 Q457 -371 382 -423 Q308 -476 192 -476 Z " />
<glyph glyph-name="uni00B9" unicode="&#xb9;" horiz-adv-x="991" d="M263 617 L263 762 L442 762 L442 1270 Q435 1267 342 1240 L244 1212 L244 1365 Q355 1402 412 1422 Q469 1442 474 1444 L612 1448 L612 760 L773 760 L773 617 L263 617 Z " />
<glyph glyph-name="ordmasculine" unicode="&#xba;" horiz-adv-x="903" d="M416 727 Q234 727 134 829 Q35 931 35 1092 Q35 1248 136 1349 Q238 1451 413 1451 Q588 1451 688 1348 Q788 1245 788 1088 Q788 933 689 830 Q590 727 416 727 Z M413 875 Q458 875 494.5 890 Q531 905 557 932.5 Q583 960 597 999 Q611 1038 611 1086 Q611 1188 558 1245.5 Q505 1303 414 1303 Q325 1303 269 1244 Q214 1186 214 1090 Q214 988 266.5 931.5 Q319 875 413 875 Z " />
<glyph glyph-name="guillemotright" unicode="&#xbb;" horiz-adv-x="1155" d="M535 162 L776 541 L543 920 L726 920 L1001 541 L720 162 L535 162 Z M98 162 L339 541 L106 920 L289 920 L564 541 L283 162 L98 162 Z " />
<glyph glyph-name="onequarter" unicode="&#xbc;" horiz-adv-x="2077" d="M1399 319 L1605 319 L1605 609 L1399 319 Z M535 0 L1426 1456 L1621 1456 L731 0 L535 0 Z M1607 1 L1607 193 L1236 193 L1236 300 L1603 808 L1771 808 L1771 319 L1887 319 L1887 193 L1771 193 L1771 1 L1607 1 Z M189 623 L189 766 L376 766 L376 1283 L172 1226 L172 1375 Q177 1377 207.5 1386.5 Q238 1396 294 1415 Q404 1452 410 1456 L552 1456 L552 764 L718 764 L718 623 L189 623 Z " />
<glyph glyph-name="onehalf" unicode="&#xbd;" horiz-adv-x="2390" d="M176 623 L176 766 L363 766 L363 1283 L159 1226 L159 1375 Q164 1377 194.5 1386.5 Q225 1396 281 1415 Q391 1452 397 1456 L539 1456 L539 764 L705 764 L705 623 L176 623 Z M524 0 L1415 1456 L1610 1456 L720 0 L524 0 Z M1733 847 Q1861 847 1940 780 Q2021 712 2021 584 Q2021 493 1968 422 Q1915 353 1806 263 L1683 161 L2011 161 L2011 0 L1433 0 L1433 153 L1703 383 Q1781 449 1809 489 Q1838 530 1838 575 Q1838 691 1722 691 Q1668 691 1607.5 666.5 Q1547 642 1493 602 L1425 738 Q1491 790 1571.5 818.5 Q1652 847 1733 847 Z " />
<glyph glyph-name="threequarters" unicode="&#xbe;" horiz-adv-x="2376" d="M1412 319 L1618 319 L1618 609 L1412 319 Z M558 0 L1449 1456 L1644 1456 L754 0 L558 0 Z M1620 1 L1620 193 L1249 193 L1249 300 L1617 808 L1784 808 L1784 319 L1901 319 L1901 193 L1784 193 L1784 1 L1620 1 Z M472 603 Q310 603 189 697 L250 814 Q365 738 459 738 Q525 738 564.5 774.5 Q604 811 604 869 Q604 923 558 953.5 Q512 984 430 984 L348 984 L348 1115 L426 1115 Q460 1115 488.5 1122.5 Q517 1130 538 1144.5 Q559 1159 570.5 1178.5 Q582 1198 582 1222 Q582 1273 547 1301.5 Q512 1330 454 1330 Q356 1330 241 1260 L182 1370 Q318 1460 479 1460 Q595 1460 672 1404 Q749 1348 749 1242 Q749 1112 606 1064 Q693 1040 734.5 986.5 Q776 933 776 866 Q776 738 688 671 Q600 603 472 603 Z " />
<glyph glyph-name="questiondown" unicode="&#xbf;" horiz-adv-x="1032" d="M724.016 1152 L724.016 901.015 L479.031 901.015 L479.031 1152 L724.016 1152 Z M698.018 753.024 L698.018 614.033 Q698.018 578.035 688.018 543.537 Q678.019 509.039 661.02 476.541 Q644.021 444.043 621.022 414.045 Q598.024 384.047 571.026 358.048 Q533.028 321.051 491.53 282.053 Q450.033 243.055 415.535 202.558 Q381.037 162.06 359.038 119.563 Q337.04 77.0656 338.04 33.0683 Q338.04 -9.92908 354.039 -41.9271 Q370.038 -73.9252 399.036 -94.9239 Q428.034 -115.923 469.032 -125.922 Q510.029 -135.921 559.026 -135.921 Q636.022 -135.921 723.016 -112.923 Q805.011 -90.9241 855.008 -65.9257 L855.008 -260.914 Q712.017 -330.909 536.028 -330.909 Q416.035 -330.909 320.041 -292.912 Q272.044 -273.913 232.546 -243.415 Q193.049 -212.917 164.55 -172.419 Q136.052 -131.922 120.553 -81.9247 Q105.054 -31.9277 105.054 26.0687 Q105.054 74.0658 118.053 115.563 Q131.052 157.061 153.551 194.058 Q176.05 231.056 205.548 263.554 Q235.046 296.052 267.044 325.05 Q311.041 366.048 355.539 404.546 Q400.036 443.043 436.034 484.541 Q472.032 526.038 494.53 573.035 Q517.029 620.032 517.029 676.029 L517.029 753.024 L698.018 753.024 Z " />
<glyph glyph-name="Agrave" unicode="&#xc0;" horiz-adv-x="1434" d="M580 1600 L235 1941 L523 1941 L779 1600 L580 1600 Z M446 576 L892 576 Q846 708 791 863 Q736 1018 671 1199 L446 576 Z M-22 0 L557 1456 L793 1456 L1377 0 L1120 0 L973 373 L373 373 L229 0 L-22 0 Z " />
<glyph glyph-name="Aacute" unicode="&#xc1;" horiz-adv-x="1434" d="M584 1600 L838 1940 L1126 1940 L784 1600 L584 1600 Z M446 576 L892 576 Q846 708 791 863 Q736 1018 671 1199 L446 576 Z M-22 0 L557 1456 L793 1456 L1377 0 L1120 0 L973 373 L373 373 L229 0 L-22 0 Z " />
<glyph glyph-name="Acircumflex" unicode="&#xc2;" horiz-adv-x="1434" d="M319 1589 L568 1957 L784 1957 L1037 1589 L833 1589 L675 1785 L516 1589 L319 1589 Z M446 576 L892 576 Q846 708 791 863 Q736 1018 671 1199 L446 576 Z M-22 0 L557 1456 L793 1456 L1377 0 L1120 0 L973 373 L373 373 L229 0 L-22 0 Z " />
<glyph glyph-name="Atilde" unicode="&#xc3;" horiz-adv-x="1434" d="M791 1596 Q740 1596 637 1648 Q533 1701 504 1701 Q477 1701 458 1676.5 Q439 1652 434 1601 L290 1601 Q290 1721 346 1797 Q401 1872 494 1872 Q543 1872 603 1846 Q632 1833 659 1820 Q686 1807 711 1794 Q783 1756 815.5 1772.5 Q848 1789 850 1872 L998 1872 Q998 1737 943 1666.5 Q888 1596 791 1596 Z M446 576 L892 576 Q846 708 791 863 Q736 1018 671 1199 L446 576 Z M-22 0 L557 1456 L793 1456 L1377 0 L1120 0 L973 373 L373 373 L229 0 L-22 0 Z " />
<glyph glyph-name="Adieresis" unicode="&#xc4;" horiz-adv-x="1434" d="M780 1595 L780 1810 L1005 1810 L1005 1595 L780 1595 Z M344 1595 L344 1810 L569 1810 L569 1595 L344 1595 Z M446 576 L892 576 Q846 708 791 863 Q736 1018 671 1199 L446 576 Z M-22 0 L557 1456 L793 1456 L1377 0 L1120 0 L973 373 L373 373 L229 0 L-22 0 Z " />
<glyph glyph-name="Aring" unicode="&#xc5;" horiz-adv-x="1434" d="M675 1565 Q587 1565 523 1624 Q461 1684 461 1772 Q461 1861 523 1920 Q585 1979 675 1979 Q764 1979 826 1920 Q888 1861 888 1772 Q888 1684 826 1624 Q764 1565 675 1565 Z M674 1663 Q717 1663 749 1695 Q781 1727 781 1772 Q781 1816 749 1848 Q717 1880 674 1880 Q652 1880 632.5 1871.5 Q613 1863 599 1848.5 Q585 1834 576.5 1814 Q568 1794 568 1772 Q568 1726 599 1695 Q631 1663 674 1663 Z M446 576 L892 576 Q846 708 791 863 Q736 1018 671 1199 L446 576 Z M-22 0 L557 1456 L793 1456 L1377 0 L1120 0 L973 373 L373 373 L229 0 L-22 0 Z " />
<glyph glyph-name="AE" unicode="&#xc6;" horiz-adv-x="2157" d="M562 554 L1049 554 L998 1254 L960 1254 L562 554 Z M-19 0 L836 1456 L1898 1456 L1898 1254 L1229 1254 L1265 844 L1884 844 L1884 648 L1289 648 L1330 202 L1924 202 L1924 0 L1096 0 L1065 373 L471 373 L259 0 L-19 0 Z " />
<glyph glyph-name="Ccedilla" unicode="&#xc7;" horiz-adv-x="1416" d="M797 -476 Q686 -476 592 -432 L605 -302 Q677 -333 763 -333 Q814 -333 845 -314.5 Q876 -296 876 -257 Q876 -177 721 -166 L694 -164 L725 23 L839 23 L820 -97 Q941 -108 1001.5 -155 Q1062 -202 1062 -274 Q1062 -371 987 -423 Q913 -476 797 -476 Z M791 -22 Q676 -22 571.5 8 Q467 38 374 99 Q306 143 249.5 205 Q193 267 152 346 Q111 425 88.5 519.5 Q66 614 66 723 Q66 899 124 1043 Q183 1190 280 1284 Q380 1380 506.5 1431.5 Q633 1483 775 1483 Q1057 1483 1251 1328 L1160 1169 Q996 1286 794 1286 Q691 1288 601.5 1246 Q512 1204 446 1128.5 Q380 1053 343 949.5 Q306 846 308 726 Q308 473 447 324 Q587 175 804 175 Q1019 175 1210 322 L1287 139 Q1076 -22 791 -22 Z " />
<glyph glyph-name="Egrave" unicode="&#xc8;" horiz-adv-x="1221" d="M519 1600 L174 1941 L462 1941 L718 1600 L519 1600 Z M154 0 L154 1456 L1055 1456 L1055 1260 L384 1260 L384 849 L1017 849 L1017 652 L385 652 L385 196 L1084 196 L1084 0 L154 0 Z " />
<glyph glyph-name="Eacute" unicode="&#xc9;" horiz-adv-x="1221" d="M523 1600 L777 1940 L1065 1940 L723 1600 L523 1600 Z M154 0 L154 1456 L1055 1456 L1055 1260 L384 1260 L384 849 L1017 849 L1017 652 L385 652 L385 196 L1084 196 L1084 0 L154 0 Z " />
<glyph glyph-name="Ecircumflex" unicode="&#xca;" horiz-adv-x="1221" d="M259 1589 L508 1957 L724 1957 L977 1589 L773 1589 L615 1785 L456 1589 L259 1589 Z M154 0 L154 1456 L1055 1456 L1055 1260 L384 1260 L384 849 L1017 849 L1017 652 L385 652 L385 196 L1084 196 L1084 0 L154 0 Z " />
<glyph glyph-name="Edieresis" unicode="&#xcb;" horiz-adv-x="1221" d="M720 1595 L720 1810 L945 1810 L945 1595 L720 1595 Z M284 1595 L284 1810 L509 1810 L509 1595 L284 1595 Z M154 0 L154 1456 L1055 1456 L1055 1260 L384 1260 L384 849 L1017 849 L1017 652 L385 652 L385 196 L1084 196 L1084 0 L154 0 Z " />
<glyph glyph-name="Igrave" unicode="&#xcc;" horiz-adv-x="596" d="M172 1600 L-173 1941 L115 1941 L371 1600 L172 1600 Z M150 0 L150 1456 L380 1456 L380 0 L150 0 Z " />
<glyph glyph-name="Iacute" unicode="&#xcd;" horiz-adv-x="596" d="M176 1600 L430 1940 L718 1940 L376 1600 L176 1600 Z M150 0 L150 1456 L380 1456 L380 0 L150 0 Z " />
<glyph glyph-name="Icircumflex" unicode="&#xce;" horiz-adv-x="596" d="M-88 1589 L161 1957 L377 1957 L630 1589 L426 1589 L268 1785 L109 1589 L-88 1589 Z M150 0 L150 1456 L380 1456 L380 0 L150 0 Z " />
<glyph glyph-name="Idieresis" unicode="&#xcf;" horiz-adv-x="596" d="M373 1595 L373 1810 L598 1810 L598 1595 L373 1595 Z M-63 1595 L-63 1810 L162 1810 L162 1595 L-63 1595 Z M150 0 L150 1456 L380 1456 L380 0 L150 0 Z " />
<glyph glyph-name="Eth" unicode="&#xd0;" horiz-adv-x="1555" d="M-49 678 L-49 850 L553 850 L553 678 L-49 678 Z M114 0 L114 1456 L490 1456 Q923 1456 1146 1275.5 Q1369 1095 1369 733 Q1369 379 1158 189 Q948 0 551 0 L114 0 Z M344 196 L564 196 Q702 196 807 231.5 Q912 267 983 335.5 Q1054 404 1090 504.5 Q1126 605 1126 734 Q1126 999 976 1129.5 Q826 1260 513 1260 L344 1260 L344 196 Z " />
<glyph glyph-name="Ntilde" unicode="&#xd1;" horiz-adv-x="1616" d="M894 1596 Q843 1596 740 1648 Q636 1701 607 1701 Q580 1701 561 1676.5 Q542 1652 537 1601 L393 1601 Q393 1721 449 1797 Q504 1872 597 1872 Q646 1872 706 1846 Q735 1833 762 1820 Q789 1807 814 1794 Q886 1756 918.5 1772.5 Q951 1789 953 1872 L1101 1872 Q1101 1737 1046 1666.5 Q991 1596 894 1596 Z M154 0 L154 1456 L399 1456 L641 1102 Q796 877 924.5 688.5 Q1053 500 1164 332 L1164 1456 L1382 1456 L1382 0 L1136 0 Q1091 64 1030.5 152 Q970 240 892 352 Q736 577 607 765 Q478 953 367 1122 L367 0 L154 0 Z " />
<glyph glyph-name="Ograve" unicode="&#xd2;" horiz-adv-x="1653" d="M693 1600 L348 1941 L636 1941 L892 1600 L693 1600 Z M790 -23 Q452 -23 259 181 Q66 386 66 733 Q66 955 151 1124 Q236 1293 402 1388 Q569 1483 793 1483 Q956 1484 1088.5 1429.5 Q1221 1375 1315 1275 Q1409 1175 1459 1036.5 Q1509 898 1507 733 Q1507 387 1316 181 Q1125 -23 790 -23 Z M786 174 Q1019 174 1138 321 Q1257 469 1257 733 Q1257 988 1138 1137 Q1019 1286 790 1286 Q560 1286 437 1136 Q314 987 314 733 Q314 469 433 321 Q553 174 786 174 Z " />
<glyph glyph-name="Oacute" unicode="&#xd3;" horiz-adv-x="1653" d="M697 1600 L951 1940 L1239 1940 L897 1600 L697 1600 Z M790 -23 Q452 -23 259 181 Q66 386 66 733 Q66 955 151 1124 Q236 1293 402 1388 Q569 1483 793 1483 Q956 1484 1088.5 1429.5 Q1221 1375 1315 1275 Q1409 1175 1459 1036.5 Q1509 898 1507 733 Q1507 387 1316 181 Q1125 -23 790 -23 Z M786 174 Q1019 174 1138 321 Q1257 469 1257 733 Q1257 988 1138 1137 Q1019 1286 790 1286 Q560 1286 437 1136 Q314 987 314 733 Q314 469 433 321 Q553 174 786 174 Z " />
<glyph glyph-name="Ocircumflex" unicode="&#xd4;" horiz-adv-x="1653" d="M432 1589 L681 1957 L897 1957 L1150 1589 L946 1589 L788 1785 L629 1589 L432 1589 Z M790 -23 Q452 -23 259 181 Q66 386 66 733 Q66 955 151 1124 Q236 1293 402 1388 Q569 1483 793 1483 Q956 1484 1088.5 1429.5 Q1221 1375 1315 1275 Q1409 1175 1459 1036.5 Q1509 898 1507 733 Q1507 387 1316 181 Q1125 -23 790 -23 Z M786 174 Q1019 174 1138 321 Q1257 469 1257 733 Q1257 988 1138 1137 Q1019 1286 790 1286 Q560 1286 437 1136 Q314 987 314 733 Q314 469 433 321 Q553 174 786 174 Z " />
<glyph glyph-name="Otilde" unicode="&#xd5;" horiz-adv-x="1653" d="M904 1596 Q853 1596 750 1648 Q646 1701 617 1701 Q590 1701 571 1676.5 Q552 1652 547 1601 L403 1601 Q403 1721 459 1797 Q514 1872 607 1872 Q656 1872 716 1846 Q745 1833 772 1820 Q799 1807 824 1794 Q896 1756 928.5 1772.5 Q961 1789 963 1872 L1111 1872 Q1111 1737 1056 1666.5 Q1001 1596 904 1596 Z M790 -23 Q452 -23 259 181 Q66 386 66 733 Q66 955 151 1124 Q236 1293 402 1388 Q569 1483 793 1483 Q956 1484 1088.5 1429.5 Q1221 1375 1315 1275 Q1409 1175 1459 1036.5 Q1509 898 1507 733 Q1507 387 1316 181 Q1125 -23 790 -23 Z M786 174 Q1019 174 1138 321 Q1257 469 1257 733 Q1257 988 1138 1137 Q1019 1286 790 1286 Q560 1286 437 1136 Q314 987 314 733 Q314 469 433 321 Q553 174 786 174 Z " />
<glyph glyph-name="Odieresis" unicode="&#xd6;" horiz-adv-x="1653" d="M893 1595 L893 1810 L1118 1810 L1118 1595 L893 1595 Z M457 1595 L457 1810 L682 1810 L682 1595 L457 1595 Z M790 -23 Q452 -23 259 181 Q66 386 66 733 Q66 955 151 1124 Q236 1293 402 1388 Q569 1483 793 1483 Q956 1484 1088.5 1429.5 Q1221 1375 1315 1275 Q1409 1175 1459 1036.5 Q1509 898 1507 733 Q1507 387 1316 181 Q1125 -23 790 -23 Z M786 174 Q1019 174 1138 321 Q1257 469 1257 733 Q1257 988 1138 1137 Q1019 1286 790 1286 Q560 1286 437 1136 Q314 987 314 733 Q314 469 433 321 Q553 174 786 174 Z " />
<glyph glyph-name="multiply" unicode="&#xd7;" horiz-adv-x="1256" d="M316 128 L171 272 L448 549 L171 826 L316 971 L593 693 L870 971 L1014 827 L736 549 L1014 272 L870 128 L593 404 L316 128 Z " />
<glyph glyph-name="Oslash" unicode="&#xd8;" horiz-adv-x="1653" d="M790 -23 Q623 -23 487 30 L404 -126 L297 -75 L381 83 Q228 177 147 343.5 Q66 510 66 733 Q66 955 151 1124 Q236 1293 402 1388 Q569 1483 793 1483 Q959 1483 1097 1425 L1174 1569 L1280 1517 L1202 1370 Q1347 1274 1427 1109 Q1507 943 1507 733 Q1507 387 1316 181 Q1125 -23 790 -23 Z M584 211 Q671 174 786 174 Q1019 174 1138 321 Q1257 469 1257 733 Q1257 1035 1099 1178 L584 211 Z M1001 1244 Q908 1286 790 1286 Q560 1286 437 1136 Q314 987 314 733 Q314 414 482 272 L1001 1244 Z " />
<glyph glyph-name="Ugrave" unicode="&#xd9;" horiz-adv-x="1503" d="M609 1600 L264 1941 L552 1941 L808 1600 L609 1600 Z M711 -23 Q575 -23 472.5 9 Q370 41 304 95 Q272 122 245 155 Q218 188 198 228 Q158 307 142 392.5 Q126 478 126 583 L126 1456 L356 1456 L356 576 Q356 469 379.5 393 Q403 317 448 268.5 Q493 220 559.5 197 Q626 174 712 174 Q883 174 974 268 Q1067 362 1067 575 L1067 1456 L1297 1456 L1297 584 Q1297 478 1280.5 391.5 Q1264 305 1222 226 Q1192 168 1147 122.5 Q1102 77 1039.5 45 Q977 13 895.5 -4.5 Q814 -22 711 -23 Z " />
<glyph glyph-name="Uacute" unicode="&#xda;" horiz-adv-x="1503" d="M613 1600 L867 1940 L1155 1940 L813 1600 L613 1600 Z M711 -23 Q575 -23 472.5 9 Q370 41 304 95 Q272 122 245 155 Q218 188 198 228 Q158 307 142 392.5 Q126 478 126 583 L126 1456 L356 1456 L356 576 Q356 469 379.5 393 Q403 317 448 268.5 Q493 220 559.5 197 Q626 174 712 174 Q883 174 974 268 Q1067 362 1067 575 L1067 1456 L1297 1456 L1297 584 Q1297 478 1280.5 391.5 Q1264 305 1222 226 Q1192 168 1147 122.5 Q1102 77 1039.5 45 Q977 13 895.5 -4.5 Q814 -22 711 -23 Z " />
<glyph glyph-name="Ucircumflex" unicode="&#xdb;" horiz-adv-x="1503" d="M348 1589 L597 1957 L813 1957 L1066 1589 L862 1589 L704 1785 L545 1589 L348 1589 Z M711 -23 Q575 -23 472.5 9 Q370 41 304 95 Q272 122 245 155 Q218 188 198 228 Q158 307 142 392.5 Q126 478 126 583 L126 1456 L356 1456 L356 576 Q356 469 379.5 393 Q403 317 448 268.5 Q493 220 559.5 197 Q626 174 712 174 Q883 174 974 268 Q1067 362 1067 575 L1067 1456 L1297 1456 L1297 584 Q1297 478 1280.5 391.5 Q1264 305 1222 226 Q1192 168 1147 122.5 Q1102 77 1039.5 45 Q977 13 895.5 -4.5 Q814 -22 711 -23 Z " />
<glyph glyph-name="Udieresis" unicode="&#xdc;" horiz-adv-x="1503" d="M809 1595 L809 1810 L1034 1810 L1034 1595 L809 1595 Z M373 1595 L373 1810 L598 1810 L598 1595 L373 1595 Z M711 -23 Q575 -23 472.5 9 Q370 41 304 95 Q272 122 245 155 Q218 188 198 228 Q158 307 142 392.5 Q126 478 126 583 L126 1456 L356 1456 L356 576 Q356 469 379.5 393 Q403 317 448 268.5 Q493 220 559.5 197 Q626 174 712 174 Q883 174 974 268 Q1067 362 1067 575 L1067 1456 L1297 1456 L1297 584 Q1297 478 1280.5 391.5 Q1264 305 1222 226 Q1192 168 1147 122.5 Q1102 77 1039.5 45 Q977 13 895.5 -4.5 Q814 -22 711 -23 Z " />
<glyph glyph-name="Yacute" unicode="&#xdd;" horiz-adv-x="1257" d="M517 1600 L771 1940 L1059 1940 L717 1600 L517 1600 Z M469 0 L469 567 L-42 1456 L217 1456 L588 771 L960 1456 L1224 1456 L699 570 L699 0 L469 0 Z " />
<glyph glyph-name="Thorn" unicode="&#xde;" horiz-adv-x="1292" d="M382 531 L617 531 Q764 531 846 591 Q928 651 928 774 Q928 922 834 975 Q786 1002 725 1012.5 Q664 1023 576 1023 L382 1023 L382 531 Z M154 0 L154 1456 L383 1456 L383 1217 L564 1217 Q619 1217 667.5 1214.5 Q716 1212 760 1206.5 Q804 1201 844.5 1191.5 Q885 1182 926 1167 Q985 1146 1030.5 1113.5 Q1076 1081 1107.5 1033.5 Q1139 986 1156 922 Q1173 858 1175 775 Q1175 661 1129 575.5 Q1083 490 1002 438 Q840 336 592 336 L382 336 L382 0 L154 0 Z " />
<glyph glyph-name="germandbls" unicode="&#xdf;" horiz-adv-x="1259" d="M692 817 Q879 773 1009 660 Q1075 603 1112.5 523.5 Q1150 444 1150 350 Q1150 184 1043 80 Q936 -22 780 -22 Q700 -22 618 -7 Q539 8 496 22 L454 37 L492 212 L528 196 Q539 191 560 185 Q581 179 612 171 Q673 156 723 156 Q808 156 857 199 Q906 242 906 333 Q906 452 816 541 Q724 631 525 725 L525 893 Q633 938 692.5 1005.5 Q752 1073 752 1158 Q752 1193 738 1221 Q724 1249 699.5 1269 Q675 1289 640.5 1299.5 Q606 1310 566 1310 Q455 1310 394 1231 Q333 1152 333 1011 L333 0 L115 0 L112 1010 Q110 1243 232 1365 Q353 1488 565 1488 Q755 1488 873 1399 Q991 1311 991 1169 Q991 1067 937.5 985 Q884 903 779 852 Q742 833 692 817 Z " />
<glyph glyph-name="agrave" unicode="&#xe0;" horiz-adv-x="1283" d="M498 1170 L153 1511 L441 1511 L697 1170 L498 1170 Z M592 159 Q739 159 811 256 Q883 353 883 517 Q883 676 808 774 Q735 871 589 871 Q441 871 364 773 Q288 676 288 515 Q288 356 364 258 Q440 159 592 159 Z M561 -23 Q441 -23 344 21.5 Q247 66 187 141 Q127 216 95.5 309.5 Q64 403 64 506 Q64 615 97 712.5 Q130 810 193 886 Q256 962 351.5 1007 Q447 1052 565 1052 Q668 1052 747.5 1008.5 Q827 965 875 892 L875 1026 L1094 1026 L1094 0 L871 0 L871 154 Q825 73 744.5 25 Q664 -23 561 -23 Z " />
<glyph glyph-name="aacute" unicode="&#xe1;" horiz-adv-x="1283" d="M503 1170 L757 1510 L1045 1510 L703 1170 L503 1170 Z M592 159 Q739 159 811 256 Q883 353 883 517 Q883 676 808 774 Q735 871 589 871 Q441 871 364 773 Q288 676 288 515 Q288 356 364 258 Q440 159 592 159 Z M561 -23 Q441 -23 344 21.5 Q247 66 187 141 Q127 216 95.5 309.5 Q64 403 64 506 Q64 615 97 712.5 Q130 810 193 886 Q256 962 351.5 1007 Q447 1052 565 1052 Q668 1052 747.5 1008.5 Q827 965 875 892 L875 1026 L1094 1026 L1094 0 L871 0 L871 154 Q825 73 744.5 25 Q664 -23 561 -23 Z " />
<glyph glyph-name="acircumflex" unicode="&#xe2;" horiz-adv-x="1283" d="M238 1159 L487 1527 L703 1527 L956 1159 L752 1159 L594 1355 L435 1159 L238 1159 Z M592 159 Q739 159 811 256 Q883 353 883 517 Q883 676 808 774 Q735 871 589 871 Q441 871 364 773 Q288 676 288 515 Q288 356 364 258 Q440 159 592 159 Z M561 -23 Q441 -23 344 21.5 Q247 66 187 141 Q127 216 95.5 309.5 Q64 403 64 506 Q64 615 97 712.5 Q130 810 193 886 Q256 962 351.5 1007 Q447 1052 565 1052 Q668 1052 747.5 1008.5 Q827 965 875 892 L875 1026 L1094 1026 L1094 0 L871 0 L871 154 Q825 73 744.5 25 Q664 -23 561 -23 Z " />
<glyph glyph-name="atilde" unicode="&#xe3;" horiz-adv-x="1283" d="M710 1166 Q659 1166 556 1218 Q452 1271 423 1271 Q396 1271 377 1246.5 Q358 1222 353 1171 L209 1171 Q209 1291 265 1367 Q320 1442 413 1442 Q462 1442 522 1416 Q551 1403 578 1390 Q605 1377 630 1364 Q702 1326 734.5 1342.5 Q767 1359 769 1442 L917 1442 Q917 1307 862 1236.5 Q807 1166 710 1166 Z M592 159 Q739 159 811 256 Q883 353 883 517 Q883 676 808 774 Q735 871 589 871 Q441 871 364 773 Q288 676 288 515 Q288 356 364 258 Q440 159 592 159 Z M561 -23 Q441 -23 344 21.5 Q247 66 187 141 Q127 216 95.5 309.5 Q64 403 64 506 Q64 615 97 712.5 Q130 810 193 886 Q256 962 351.5 1007 Q447 1052 565 1052 Q668 1052 747.5 1008.5 Q827 965 875 892 L875 1026 L1094 1026 L1094 0 L871 0 L871 154 Q825 73 744.5 25 Q664 -23 561 -23 Z " />
<glyph glyph-name="adieresis" unicode="&#xe4;" horiz-adv-x="1283" d="M699 1165 L699 1380 L924 1380 L924 1165 L699 1165 Z M263 1165 L263 1380 L488 1380 L488 1165 L263 1165 Z M592 159 Q739 159 811 256 Q883 353 883 517 Q883 676 808 774 Q735 871 589 871 Q441 871 364 773 Q288 676 288 515 Q288 356 364 258 Q440 159 592 159 Z M561 -23 Q441 -23 344 21.5 Q247 66 187 141 Q127 216 95.5 309.5 Q64 403 64 506 Q64 615 97 712.5 Q130 810 193 886 Q256 962 351.5 1007 Q447 1052 565 1052 Q668 1052 747.5 1008.5 Q827 965 875 892 L875 1026 L1094 1026 L1094 0 L871 0 L871 154 Q825 73 744.5 25 Q664 -23 561 -23 Z " />
<glyph glyph-name="aring" unicode="&#xe5;" horiz-adv-x="1283" d="M594 1135 Q506 1135 442 1194 Q380 1254 380 1342 Q380 1431 442 1490 Q504 1549 594 1549 Q683 1549 745 1490 Q807 1431 807 1342 Q807 1254 745 1194 Q683 1135 594 1135 Z M593 1233 Q636 1233 668 1265 Q700 1297 700 1342 Q700 1386 668 1418 Q636 1450 593 1450 Q571 1450 551.5 1441.5 Q532 1433 518 1418.5 Q504 1404 495.5 1384 Q487 1364 487 1342 Q487 1296 518 1265 Q550 1233 593 1233 Z M592 159 Q739 159 811 256 Q883 353 883 517 Q883 676 808 774 Q735 871 589 871 Q441 871 364 773 Q288 676 288 515 Q288 356 364 258 Q440 159 592 159 Z M561 -23 Q441 -23 344 21.5 Q247 66 187 141 Q127 216 95.5 309.5 Q64 403 64 506 Q64 615 97 712.5 Q130 810 193 886 Q256 962 351.5 1007 Q447 1052 565 1052 Q668 1052 747.5 1008.5 Q827 965 875 892 L875 1026 L1094 1026 L1094 0 L871 0 L871 154 Q825 73 744.5 25 Q664 -23 561 -23 Z " />
<glyph glyph-name="ae" unicode="&#xe6;" horiz-adv-x="1782" d="M1437 626 Q1429 747 1364 814 Q1299 882 1201 882 Q1095 882 1029 810 Q964 740 941 626 L1437 626 Z M443 157 Q518 157 570.5 185 Q623 213 655.5 258 Q688 303 703 360 Q718 417 719 475 L599 475 Q504 475 431 460 Q361 447 308 405 Q257 364 257 300 Q257 264 271 237 Q285 210 309.5 192 Q334 174 368 165.5 Q402 157 443 157 Z M1224 -23 Q1085 -23 983.5 32 Q882 87 827 196 Q775 91 666 33 Q559 -24 430 -24 Q252 -24 145 59 Q38 142 38 290 Q38 374 66.5 434 Q95 494 146 531 Q197 569 279 591 Q321 602 364.5 610 Q408 618 456 622 Q504 626 559.5 628 Q615 630 681 630 L718 630 Q718 739 656 807 Q594 875 481 875 Q351 875 179 794 L115 946 Q125 952 136.5 958.5 Q148 965 163 972 Q178 979 197.5 987.5 Q217 996 244 1006 Q298 1027 371.5 1039.5 Q445 1052 524 1052 Q617 1052 712 1001 Q807 951 849 860 Q903 950 997 1001 Q1091 1052 1198 1052 Q1310 1052 1392.5 1011 Q1475 970 1528.5 899 Q1582 828 1608 730.5 Q1634 633 1634 521 L1629 475 L938 475 L938 452 Q958 159 1234 159 Q1283 159 1333.5 170.5 Q1384 182 1421 198 Q1458 214 1488 230 Q1518 246 1534 258 L1549 269 L1612 106 Q1609 103 1605 100 Q1601 97 1594 92 Q1587 87 1574.5 79.5 Q1562 72 1543 61 Q1504 38 1462 22 Q1441 13 1413.5 5 Q1386 -3 1355 -9 Q1324 -15 1290.5 -19 Q1257 -23 1224 -23 Z " />
<glyph glyph-name="ccedilla" unicode="&#xe7;" horiz-adv-x="1073" d="M603 -476 Q492 -476 398 -432 L411 -302 Q483 -333 569 -333 Q620 -333 651 -314.5 Q682 -296 682 -257 Q682 -177 527 -166 L500 -164 L531 23 L645 23 L626 -97 Q747 -108 807.5 -155 Q868 -202 868 -274 Q868 -371 793 -423 Q719 -476 603 -476 Z M594 -23 Q431 -23 310 49 Q188 122 126 242 Q64 362 64 510 Q62 626 100 726 Q138 826 208 899 Q278 972 376.5 1012.5 Q475 1053 595 1052 Q823 1052 951 920 L872 774 Q762 870 615 870 Q468 870 382 775 Q297 681 297 511 Q297 352 383 255 Q468 159 617 159 Q754 159 882 254 L951 90 Q793 -23 594 -23 Z " />
<glyph glyph-name="egrave" unicode="&#xe8;" horiz-adv-x="1188" d="M492 1170 L147 1511 L435 1511 L691 1170 L492 1170 Z M303 628 L833 628 Q820 749 756 813 Q692 877 590 877 Q476 877 401 811.5 Q326 746 303 628 Z M610 -23 Q358 -23 211 124 Q64 271 64 512 Q64 662 125 783 Q186 904 305 978 Q424 1052 580 1052 Q695 1052 783 1011.5 Q871 971 925 898 Q979 826 1006 732 Q1033 638 1033 523 Q1033 512 1031.5 501 Q1030 490 1028 477 L298 477 Q304 319 393 239 Q482 159 627 159 Q803 159 949 271 L1012 107 Q840 -23 610 -23 Z " />
<glyph glyph-name="eacute" unicode="&#xe9;" horiz-adv-x="1188" d="M303 628 L833 628 Q820 749 756 813 Q692 877 590 877 Q476 877 401 811.5 Q326 746 303 628 Z M610 -23 Q358 -23 211 124 Q64 271 64 512 Q64 662 125 783 Q186 904 305 978 Q424 1052 580 1052 Q695 1052 783 1011.5 Q871 971 925 898 Q979 826 1006 732 Q1033 638 1033 523 Q1033 512 1031.5 501 Q1030 490 1028 477 L298 477 Q304 319 393 239 Q482 159 627 159 Q803 159 949 271 L1012 107 Q840 -23 610 -23 Z M496 1170 L750 1510 L1038 1510 L696 1170 L496 1170 Z " />
<glyph glyph-name="ecircumflex" unicode="&#xea;" horiz-adv-x="1188" d="M303 628 L833 628 Q820 749 756 813 Q692 877 590 877 Q476 877 401 811.5 Q326 746 303 628 Z M610 -23 Q358 -23 211 124 Q64 271 64 512 Q64 662 125 783 Q186 904 305 978 Q424 1052 580 1052 Q695 1052 783 1011.5 Q871 971 925 898 Q979 826 1006 732 Q1033 638 1033 523 Q1033 512 1031.5 501 Q1030 490 1028 477 L298 477 Q304 319 393 239 Q482 159 627 159 Q803 159 949 271 L1012 107 Q840 -23 610 -23 Z M231 1159 L480 1527 L696 1527 L949 1159 L745 1159 L587 1355 L428 1159 L231 1159 Z " />
<glyph glyph-name="edieresis" unicode="&#xeb;" horiz-adv-x="1188" d="M303 628 L833 628 Q820 749 756 813 Q692 877 590 877 Q476 877 401 811.5 Q326 746 303 628 Z M610 -23 Q358 -23 211 124 Q64 271 64 512 Q64 662 125 783 Q186 904 305 978 Q424 1052 580 1052 Q695 1052 783 1011.5 Q871 971 925 898 Q979 826 1006 732 Q1033 638 1033 523 Q1033 512 1031.5 501 Q1030 490 1028 477 L298 477 Q304 319 393 239 Q482 159 627 159 Q803 159 949 271 L1012 107 Q840 -23 610 -23 Z M692 1165 L692 1380 L917 1380 L917 1165 L692 1165 Z M256 1165 L256 1380 L481 1380 L481 1165 L256 1165 Z " />
<glyph glyph-name="igrave" unicode="&#xec;" horiz-adv-x="521" d="M117 1170 L-228 1511 L60 1511 L316 1170 L117 1170 Z M103 0 L103 1026 L328 1026 L328 0 L103 0 Z " />
<glyph glyph-name="iacute" unicode="&#xed;" horiz-adv-x="521" d="M103 0 L103 1026 L328 1026 L328 0 L103 0 Z M121 1170 L375 1510 L663 1510 L321 1170 L121 1170 Z " />
<glyph glyph-name="icircumflex" unicode="&#xee;" horiz-adv-x="521" d="M103 0 L103 1026 L328 1026 L328 0 L103 0 Z M-143 1159 L106 1527 L322 1527 L575 1159 L371 1159 L213 1355 L54 1159 L-143 1159 Z " />
<glyph glyph-name="idieresis" unicode="&#xef;" horiz-adv-x="521" d="M103 0 L103 1026 L328 1026 L328 0 L103 0 Z M318 1165 L318 1380 L543 1380 L543 1165 L318 1165 Z M-118 1165 L-118 1380 L107 1380 L107 1165 L-118 1165 Z " />
<glyph glyph-name="eth" unicode="&#xf0;" horiz-adv-x="1219" d="M559 164 Q670 164 747 244 Q823 323 823 459 Q823 574 740 646 Q658 719 550 719 Q439 719 366 649 Q293 580 293 453 Q293 318 370 241 Q449 164 559 164 Z M547 -23 Q401 -23 289 44 Q177 111 119 221.5 Q61 332 61 465 Q61 663 188 784 Q316 906 524 906 Q624 906 709.5 863 Q795 820 852 745 Q852 773 844.5 811 Q837 849 817 909 Q798 969 751 1035.5 Q704 1102 635 1159 L392 1021 L324 1142 L506 1245 Q387 1315 238 1348 L316 1495 Q392 1481 490 1444 Q539 1425 586.5 1400 Q634 1375 682 1344 L922 1480 L990 1360 L799 1252 Q1064 1003 1064 625 Q1064 301 930 139 Q796 -23 547 -23 Z " />
<glyph glyph-name="ntilde" unicode="&#xf1;" horiz-adv-x="1234" d="M754 1166 Q703 1166 600 1218 Q496 1271 467 1271 Q440 1271 421 1246.5 Q402 1222 397 1171 L253 1171 Q253 1291 309 1367 Q364 1442 457 1442 Q506 1442 566 1416 Q595 1403 622 1390 Q649 1377 674 1364 Q746 1326 778.5 1342.5 Q811 1359 813 1442 L961 1442 Q961 1307 906 1236.5 Q851 1166 754 1166 Z M126 0 L126 677 Q126 724 125 768.5 Q124 813 122 857 Q120 901 118 933 Q116 965 114 985 L110 1026 L345 1026 L345 881 Q397 963 489 1007 Q580 1052 672 1052 Q862 1052 957 938 Q1052 824 1052 575 L1052 0 L828 0 L828 582 Q828 734 783 802 Q739 871 627 871 Q530 871 440 796 Q350 722 350 626 L350 0 L126 0 Z " />
<glyph glyph-name="ograve" unicode="&#xf2;" horiz-adv-x="1274" d="M600 -23 Q470 -23 367 19 Q264 61 198 134 Q132 207 98 303 Q64 399 64 513 Q64 667 124 787 Q184 908 307 980 Q431 1052 601 1052 Q732 1052 833.5 1011.5 Q935 971 999 896 Q1063 823 1096.5 726 Q1130 629 1130 511 Q1130 399 1096 304 Q1062 209 996 134 Q932 61 830 19 Q728 -23 600 -23 Z M599 159 Q747 159 821 258 Q896 357 896 514 Q896 674 820 772 Q743 871 598 871 Q451 871 375 772 Q298 672 298 514 Q298 356 374 258 Q450 159 599 159 Z M503 1170 L158 1511 L446 1511 L702 1170 L503 1170 Z " />
<glyph glyph-name="oacute" unicode="&#xf3;" horiz-adv-x="1274" d="M600 -23 Q470 -23 367 19 Q264 61 198 134 Q132 207 98 303 Q64 399 64 513 Q64 667 124 787 Q184 908 307 980 Q431 1052 601 1052 Q732 1052 833.5 1011.5 Q935 971 999 896 Q1063 823 1096.5 726 Q1130 629 1130 511 Q1130 399 1096 304 Q1062 209 996 134 Q932 61 830 19 Q728 -23 600 -23 Z M599 159 Q747 159 821 258 Q896 357 896 514 Q896 674 820 772 Q743 871 598 871 Q451 871 375 772 Q298 672 298 514 Q298 356 374 258 Q450 159 599 159 Z M507 1170 L761 1510 L1049 1510 L707 1170 L507 1170 Z " />
<glyph glyph-name="ocircumflex" unicode="&#xf4;" horiz-adv-x="1274" d="M600 -23 Q470 -23 367 19 Q264 61 198 134 Q132 207 98 303 Q64 399 64 513 Q64 667 124 787 Q184 908 307 980 Q431 1052 601 1052 Q732 1052 833.5 1011.5 Q935 971 999 896 Q1063 823 1096.5 726 Q1130 629 1130 511 Q1130 399 1096 304 Q1062 209 996 134 Q932 61 830 19 Q728 -23 600 -23 Z M599 159 Q747 159 821 258 Q896 357 896 514 Q896 674 820 772 Q743 871 598 871 Q451 871 375 772 Q298 672 298 514 Q298 356 374 258 Q450 159 599 159 Z M243 1159 L492 1527 L708 1527 L961 1159 L757 1159 L599 1355 L440 1159 L243 1159 Z " />
<glyph glyph-name="otilde" unicode="&#xf5;" horiz-adv-x="1274" d="M714 1166 Q663 1166 560 1218 Q456 1271 427 1271 Q400 1271 381 1246.5 Q362 1222 357 1171 L213 1171 Q213 1291 269 1367 Q324 1442 417 1442 Q466 1442 526 1416 Q555 1403 582 1390 Q609 1377 634 1364 Q706 1326 738.5 1342.5 Q771 1359 773 1442 L921 1442 Q921 1307 866 1236.5 Q811 1166 714 1166 Z M600 -23 Q470 -23 367 19 Q264 61 198 134 Q132 207 98 303 Q64 399 64 513 Q64 667 124 787 Q184 908 307 980 Q431 1052 601 1052 Q732 1052 833.5 1011.5 Q935 971 999 896 Q1063 823 1096.5 726 Q1130 629 1130 511 Q1130 399 1096 304 Q1062 209 996 134 Q932 61 830 19 Q728 -23 600 -23 Z M599 159 Q747 159 821 258 Q896 357 896 514 Q896 674 820 772 Q743 871 598 871 Q451 871 375 772 Q298 672 298 514 Q298 356 374 258 Q450 159 599 159 Z " />
<glyph glyph-name="odieresis" unicode="&#xf6;" horiz-adv-x="1274" d="M600 -23 Q470 -23 367 19 Q264 61 198 134 Q132 207 98 303 Q64 399 64 513 Q64 667 124 787 Q184 908 307 980 Q431 1052 601 1052 Q732 1052 833.5 1011.5 Q935 971 999 896 Q1063 823 1096.5 726 Q1130 629 1130 511 Q1130 399 1096 304 Q1062 209 996 134 Q932 61 830 19 Q728 -23 600 -23 Z M599 159 Q747 159 821 258 Q896 357 896 514 Q896 674 820 772 Q743 871 598 871 Q451 871 375 772 Q298 672 298 514 Q298 356 374 258 Q450 159 599 159 Z M704 1165 L704 1380 L929 1380 L929 1165 L704 1165 Z M268 1165 L268 1380 L493 1380 L493 1165 L268 1165 Z " />
<glyph glyph-name="divide" unicode="&#xf7;" horiz-adv-x="1417" d="M533 850 L533 1103 L766 1103 L766 850 L533 850 Z M125 459 L125 646 L1165 646 L1165 459 L125 459 Z M536 -7 L536 247 L769 247 L769 -7 L536 -7 Z " />
<glyph glyph-name="oslash" unicode="&#xf8;" horiz-adv-x="1265" d="M703 855 Q659 871 598 871 Q451 871 375 772 Q298 672 298 514 Q298 314 410 221 L703 855 Z M506 171 Q548 159 599 159 Q747 159 821 258 Q896 357 896 514 Q896 705 796 799 L506 171 Z M600 -23 Q508 -23 427 -1 L331 -209 L232 -166 L326 38 Q199 102 131 228 Q64 353 64 513 Q64 667 124 787.5 Q184 908 307 980 Q431 1052 601 1052 Q702 1052 783 1028 L867 1211 L966 1167 L883 987 Q943 954 989.5 905.5 Q1036 857 1067 796.5 Q1098 736 1114 664 Q1130 592 1130 511 Q1130 399 1096 304 Q1062 209 996 134 Q932 61 830 19 Q728 -23 600 -23 Z " />
<glyph glyph-name="ugrave" unicode="&#xf9;" horiz-adv-x="1206" d="M498 -23 Q305 -23 203 87 Q102 199 102 382 L102 1026 L324 1026 L324 384 Q324 270 380 214.5 Q436 159 541 159 Q662 159 723.5 222.5 Q785 286 785 413 L785 1026 L1009 1026 L1009 268 Q1009 204 1011.5 137 Q1014 70 1019 0 L789 0 L785 156 Q773 128 752 100 Q731 72 697 42 Q663 13 611 -5 Q559 -23 498 -23 Z M461 1170 L116 1511 L404 1511 L660 1170 L461 1170 Z " />
<glyph glyph-name="uacute" unicode="&#xfa;" horiz-adv-x="1206" d="M498 -23 Q305 -23 203 87 Q102 199 102 382 L102 1026 L324 1026 L324 384 Q324 270 380 214.5 Q436 159 541 159 Q662 159 723.5 222.5 Q785 286 785 413 L785 1026 L1009 1026 L1009 268 Q1009 204 1011.5 137 Q1014 70 1019 0 L789 0 L785 156 Q773 128 752 100 Q731 72 697 42 Q663 13 611 -5 Q559 -23 498 -23 Z M466 1170 L720 1510 L1008 1510 L666 1170 L466 1170 Z " />
<glyph glyph-name="ucircumflex" unicode="&#xfb;" horiz-adv-x="1206" d="M498 -23 Q305 -23 203 87 Q102 199 102 382 L102 1026 L324 1026 L324 384 Q324 270 380 214.5 Q436 159 541 159 Q662 159 723.5 222.5 Q785 286 785 413 L785 1026 L1009 1026 L1009 268 Q1009 204 1011.5 137 Q1014 70 1019 0 L789 0 L785 156 Q773 128 752 100 Q731 72 697 42 Q663 13 611 -5 Q559 -23 498 -23 Z M201 1159 L450 1527 L666 1527 L919 1159 L715 1159 L557 1355 L398 1159 L201 1159 Z " />
<glyph glyph-name="udieresis" unicode="&#xfc;" horiz-adv-x="1206" d="M498 -23 Q305 -23 203 87 Q102 199 102 382 L102 1026 L324 1026 L324 384 Q324 270 380 214.5 Q436 159 541 159 Q662 159 723.5 222.5 Q785 286 785 413 L785 1026 L1009 1026 L1009 268 Q1009 204 1011.5 137 Q1014 70 1019 0 L789 0 L785 156 Q773 128 752 100 Q731 72 697 42 Q663 13 611 -5 Q559 -23 498 -23 Z M662 1165 L662 1380 L887 1380 L887 1165 L662 1165 Z M226 1165 L226 1380 L451 1380 L451 1165 L226 1165 Z " />
<glyph glyph-name="yacute" unicode="&#xfd;" horiz-adv-x="1098" d="M196 -441 L102 -289 Q171 -264 222.5 -235.5 Q274 -207 311 -175.5 Q348 -144 372 -108 Q396 -72 408 -31 L422 19 L-6 1026 L226 1026 L531 258 L803 1026 L1030 1026 L614 -56 Q585 -131 542.5 -193 Q500 -255 446.5 -303 Q393 -351 329.5 -385.5 Q266 -420 196 -441 Z M439 1170 L693 1510 L981 1510 L639 1170 L439 1170 Z " />
<glyph glyph-name="thorn" unicode="&#xfe;" horiz-adv-x="1231" d="M586 157 Q657 157 708 187 Q759 217 792 267 Q825 317 840.5 383 Q856 449 856 521 Q856 593 842.5 652 Q829 711 799 762 Q770 813 717.5 841 Q665 869 593 869 Q516 869 463.5 838 Q411 807 379 755 Q347 703 333 635 Q319 567 319 494 Q319 343 388 250 Q458 157 586 157 Z M106 -405 L106 1462 L322 1462 L321 916 Q364 976 448 1014 Q532 1051 616 1051 Q736 1051 825 1008.5 Q914 966 973.5 894 Q1033 822 1062.5 726.5 Q1092 631 1092 525 Q1092 416 1062 319 Q1032 222 974 144 Q917 66 825 21.5 Q733 -23 616 -23 Q572 -23 529.5 -15 Q487 -7 448.5 8.5 Q410 24 377 46 Q344 68 320 96 L319 -405 L106 -405 Z " />
<glyph glyph-name="ydieresis" unicode="&#xff;" horiz-adv-x="1098" d="M196 -441 L102 -289 Q171 -264 222.5 -235.5 Q274 -207 311 -175.5 Q348 -144 372 -108 Q396 -72 408 -31 L422 19 L-6 1026 L226 1026 L531 258 L803 1026 L1030 1026 L614 -56 Q585 -131 542.5 -193 Q500 -255 446.5 -303 Q393 -351 329.5 -385.5 Q266 -420 196 -441 Z M636 1165 L636 1380 L861 1380 L861 1165 L636 1165 Z M200 1165 L200 1380 L425 1380 L425 1165 L200 1165 Z " />
<glyph glyph-name="Amacron" unicode="&#x100;" horiz-adv-x="1434" d="M413 1632 L413 1777 L1023 1777 L1023 1632 L413 1632 Z M446 576 L892 576 Q846 708 791 863 Q736 1018 671 1199 L446 576 Z M-22 0 L557 1456 L793 1456 L1377 0 L1120 0 L973 373 L373 373 L229 0 L-22 0 Z " />
<glyph glyph-name="amacron" unicode="&#x101;" horiz-adv-x="1283" d="M332 1202 L332 1347 L942 1347 L942 1202 L332 1202 Z M592 159 Q739 159 811 256 Q883 353 883 517 Q883 676 808 774 Q735 871 589 871 Q441 871 364 773 Q288 676 288 515 Q288 356 364 258 Q440 159 592 159 Z M561 -23 Q441 -23 344 21.5 Q247 66 187 141 Q127 216 95.5 309.5 Q64 403 64 506 Q64 615 97 712.5 Q130 810 193 886 Q256 962 351.5 1007 Q447 1052 565 1052 Q668 1052 747.5 1008.5 Q827 965 875 892 L875 1026 L1094 1026 L1094 0 L871 0 L871 154 Q825 73 744.5 25 Q664 -23 561 -23 Z " />
<glyph glyph-name="Abreve" unicode="&#x102;" horiz-adv-x="1434" d="M676 1604 Q389 1604 370 1886 L528 1886 Q534 1815 572.5 1788.5 Q611 1762 676 1762 Q739 1762 777 1788.5 Q815 1815 822 1886 L977 1886 Q959 1604 676 1604 Z M446 576 L892 576 Q846 708 791 863 Q736 1018 671 1199 L446 576 Z M-22 0 L557 1456 L793 1456 L1377 0 L1120 0 L973 373 L373 373 L229 0 L-22 0 Z " />
<glyph glyph-name="abreve" unicode="&#x103;" horiz-adv-x="1283" d="M595 1174 Q308 1174 289 1456 L447 1456 Q453 1385 491.5 1358.5 Q530 1332 595 1332 Q658 1332 696 1358.5 Q734 1385 741 1456 L896 1456 Q878 1174 595 1174 Z M592 159 Q739 159 811 256 Q883 353 883 517 Q883 676 808 774 Q735 871 589 871 Q441 871 364 773 Q288 676 288 515 Q288 356 364 258 Q440 159 592 159 Z M561 -23 Q441 -23 344 21.5 Q247 66 187 141 Q127 216 95.5 309.5 Q64 403 64 506 Q64 615 97 712.5 Q130 810 193 886 Q256 962 351.5 1007 Q447 1052 565 1052 Q668 1052 747.5 1008.5 Q827 965 875 892 L875 1026 L1094 1026 L1094 0 L871 0 L871 154 Q825 73 744.5 25 Q664 -23 561 -23 Z " />
<glyph glyph-name="Aogonek" unicode="&#x104;" horiz-adv-x="1434" d="M1197 -392 Q1147 -392 1106 -382.5 Q1065 -373 1035.5 -354.5 Q1006 -336 989.5 -308 Q973 -280 973 -243 Q973 -195 995.5 -152.5 Q1018 -110 1060 -76 Q1101 -43 1134 -22.5 Q1167 -2 1209 19 L1330 17 Q1262 -24 1216 -85 Q1171 -147 1171 -193 Q1171 -256 1260 -256 Q1307 -256 1419 -225 L1419 -355 Q1299 -392 1197 -392 Z M446 576 L892 576 Q846 708 791 863 Q736 1018 671 1199 L446 576 Z M-22 0 L557 1456 L793 1456 L1377 0 L1120 0 L973 373 L373 373 L229 0 L-22 0 Z " />
<glyph glyph-name="aogonek" unicode="&#x105;" horiz-adv-x="1283" d="M930 -392 Q880 -392 839 -382.5 Q798 -373 768.5 -354.5 Q739 -336 722.5 -308 Q706 -280 706 -243 Q706 -195 728.5 -152.5 Q751 -110 793 -76 Q834 -43 867 -22.5 Q900 -2 942 19 L1063 17 Q995 -24 949 -85 Q904 -147 904 -193 Q904 -256 993 -256 Q1040 -256 1152 -225 L1152 -355 Q1032 -392 930 -392 Z M592 159 Q739 159 811 256 Q883 353 883 517 Q883 676 808 774 Q735 871 589 871 Q441 871 364 773 Q288 676 288 515 Q288 356 364 258 Q440 159 592 159 Z M561 -23 Q441 -23 344 21.5 Q247 66 187 141 Q127 216 95.5 309.5 Q64 403 64 506 Q64 615 97 712.5 Q130 810 193 886 Q256 962 351.5 1007 Q447 1052 565 1052 Q668 1052 747.5 1008.5 Q827 965 875 892 L875 1026 L1094 1026 L1094 0 L871 0 L871 154 Q825 73 744.5 25 Q664 -23 561 -23 Z " />
<glyph glyph-name="Cacute" unicode="&#x106;" horiz-adv-x="1416" d="M688 1600 L942 1940 L1230 1940 L888 1600 L688 1600 Z M791 -22 Q676 -22 571.5 8 Q467 38 374 99 Q306 143 249.5 205 Q193 267 152 346 Q111 425 88.5 519.5 Q66 614 66 723 Q66 899 124 1043 Q183 1190 280 1284 Q380 1380 506.5 1431.5 Q633 1483 775 1483 Q1057 1483 1251 1328 L1160 1169 Q996 1286 794 1286 Q691 1288 601.5 1246 Q512 1204 446 1128.5 Q380 1053 343 949.5 Q306 846 308 726 Q308 473 447 324 Q587 175 804 175 Q1019 175 1210 322 L1287 139 Q1076 -22 791 -22 Z " />
<glyph glyph-name="cacute" unicode="&#x107;" horiz-adv-x="1073" d="M594 -23 Q431 -23 310 49 Q188 122 126 242 Q64 362 64 510 Q62 626 100 726 Q138 826 208 899 Q278 972 376.5 1012.5 Q475 1053 595 1052 Q823 1052 951 920 L872 774 Q762 870 615 870 Q468 870 382 775 Q297 681 297 511 Q297 352 383 255 Q468 159 617 159 Q754 159 882 254 L951 90 Q793 -23 594 -23 Z M491 1170 L745 1510 L1033 1510 L691 1170 L491 1170 Z " />
<glyph glyph-name="Ccircumflex" unicode="&#x108;" horiz-adv-x="1416" d="M423 1589 L672 1957 L888 1957 L1141 1589 L937 1589 L779 1785 L620 1589 L423 1589 Z M791 -22 Q676 -22 571.5 8 Q467 38 374 99 Q306 143 249.5 205 Q193 267 152 346 Q111 425 88.5 519.5 Q66 614 66 723 Q66 899 124 1043 Q183 1190 280 1284 Q380 1380 506.5 1431.5 Q633 1483 775 1483 Q1057 1483 1251 1328 L1160 1169 Q996 1286 794 1286 Q691 1288 601.5 1246 Q512 1204 446 1128.5 Q380 1053 343 949.5 Q306 846 308 726 Q308 473 447 324 Q587 175 804 175 Q1019 175 1210 322 L1287 139 Q1076 -22 791 -22 Z " />
<glyph glyph-name="ccircumflex" unicode="&#x109;" horiz-adv-x="1073" d="M226 1159 L475 1527 L691 1527 L944 1159 L740 1159 L582 1355 L423 1159 L226 1159 Z M594 -23 Q431 -23 310 49 Q188 122 126 242 Q64 362 64 510 Q62 626 100 726 Q138 826 208 899 Q278 972 376.5 1012.5 Q475 1053 595 1052 Q823 1052 951 920 L872 774 Q762 870 615 870 Q468 870 382 775 Q297 681 297 511 Q297 352 383 255 Q468 159 617 159 Q754 159 882 254 L951 90 Q793 -23 594 -23 Z " />
<glyph glyph-name="Cdotaccent" unicode="&#x10a;" horiz-adv-x="1416" d="M672 1650 L672 1860 L894 1860 L894 1650 L672 1650 Z M791 -22 Q676 -22 571.5 8 Q467 38 374 99 Q306 143 249.5 205 Q193 267 152 346 Q111 425 88.5 519.5 Q66 614 66 723 Q66 899 124 1043 Q183 1190 280 1284 Q380 1380 506.5 1431.5 Q633 1483 775 1483 Q1057 1483 1251 1328 L1160 1169 Q996 1286 794 1286 Q691 1288 601.5 1246 Q512 1204 446 1128.5 Q380 1053 343 949.5 Q306 846 308 726 Q308 473 447 324 Q587 175 804 175 Q1019 175 1210 322 L1287 139 Q1076 -22 791 -22 Z " />
<glyph glyph-name="cdotaccent" unicode="&#x10b;" horiz-adv-x="1073" d="M474 1220 L474 1430 L696 1430 L696 1220 L474 1220 Z M594 -23 Q431 -23 310 49 Q188 122 126 242 Q64 362 64 510 Q62 626 100 726 Q138 826 208 899 Q278 972 376.5 1012.5 Q475 1053 595 1052 Q823 1052 951 920 L872 774 Q762 870 615 870 Q468 870 382 775 Q297 681 297 511 Q297 352 383 255 Q468 159 617 159 Q754 159 882 254 L951 90 Q793 -23 594 -23 Z " />
<glyph glyph-name="Ccaron" unicode="&#x10c;" horiz-adv-x="1416" d="M681 1589 L414 1958 L628 1958 L769 1763 L910 1958 L1132 1958 L867 1589 L681 1589 Z M791 -22 Q676 -22 571.5 8 Q467 38 374 99 Q306 143 249.5 205 Q193 267 152 346 Q111 425 88.5 519.5 Q66 614 66 723 Q66 899 124 1043 Q183 1190 280 1284 Q380 1380 506.5 1431.5 Q633 1483 775 1483 Q1057 1483 1251 1328 L1160 1169 Q996 1286 794 1286 Q691 1288 601.5 1246 Q512 1204 446 1128.5 Q380 1053 343 949.5 Q306 846 308 726 Q308 473 447 324 Q587 175 804 175 Q1019 175 1210 322 L1287 139 Q1076 -22 791 -22 Z " />
<glyph glyph-name="ccaron" unicode="&#x10d;" horiz-adv-x="1073" d="M484 1159 L217 1528 L431 1528 L572 1333 L713 1528 L935 1528 L670 1159 L484 1159 Z M594 -23 Q431 -23 310 49 Q188 122 126 242 Q64 362 64 510 Q62 626 100 726 Q138 826 208 899 Q278 972 376.5 1012.5 Q475 1053 595 1052 Q823 1052 951 920 L872 774 Q762 870 615 870 Q468 870 382 775 Q297 681 297 511 Q297 352 383 255 Q468 159 617 159 Q754 159 882 254 L951 90 Q793 -23 594 -23 Z " />
<glyph glyph-name="Dcaron" unicode="&#x10e;" horiz-adv-x="1555" d="M569 1589 L302 1958 L516 1958 L657 1763 L798 1958 L1020 1958 L755 1589 L569 1589 Z M154 0 L154 1456 L530 1456 Q963 1456 1186 1275.5 Q1409 1095 1409 733 Q1409 379 1198 189 Q988 0 591 0 L154 0 Z M384 196 L604 196 Q742 196 847 231.5 Q952 267 1023 335.5 Q1094 404 1130 504.5 Q1166 605 1166 734 Q1166 999 1016 1129.5 Q866 1260 553 1260 L384 1260 L384 196 Z " />
<glyph glyph-name="dcaron" unicode="&#x10f;" horiz-adv-x="1267" d="M575 159 Q712 159 783 258 Q853 358 853 518 Q853 672 782 772 Q711 871 577 871 Q442 871 370 772 Q298 673 298 514 Q298 356 368 258 Q438 159 575 159 Z M534 -23 Q330 -23 197 122 Q64 267 64 508 Q64 621 95.5 720 Q127 819 188 893 Q249 967 339.5 1009.5 Q430 1052 549 1052 Q658 1052 738 1005 Q818 958 847 902 L847 1469 L1071 1469 L1071 270 Q1071 247 1072.5 179.5 Q1074 112 1078 0 L850 0 L848 147 Q821 82 740 30 Q660 -23 534 -23 Z M1210 963 L1321 1456 L1573 1456 L1398 963 L1210 963 Z " />
<glyph glyph-name="Dcroat" unicode="&#x110;" horiz-adv-x="1555" d="M-9 678 L-9 850 L593 850 L593 678 L-9 678 Z M154 0 L154 1456 L530 1456 Q963 1456 1186 1275.5 Q1409 1095 1409 733 Q1409 379 1198 189 Q988 0 591 0 L154 0 Z M384 196 L604 196 Q742 196 847 231.5 Q952 267 1023 335.5 Q1094 404 1130 504.5 Q1166 605 1166 734 Q1166 999 1016 1129.5 Q866 1260 553 1260 L384 1260 L384 196 Z " />
<glyph glyph-name="dslash" unicode="&#x111;" horiz-adv-x="1267" d="M663 1169 L663 1314 L1273 1314 L1273 1169 L663 1169 Z M575 159 Q712 159 783 258 Q853 358 853 518 Q853 672 782 772 Q711 871 577 871 Q442 871 370 772 Q298 673 298 514 Q298 356 368 258 Q438 159 575 159 Z M534 -23 Q330 -23 197 122 Q64 267 64 508 Q64 621 95.5 720 Q127 819 188 893 Q249 967 339.5 1009.5 Q430 1052 549 1052 Q658 1052 738 1005 Q818 958 847 902 L847 1469 L1071 1469 L1071 270 Q1071 247 1072.5 179.5 Q1074 112 1078 0 L850 0 L848 147 Q821 82 740 30 Q660 -23 534 -23 Z " />
<glyph glyph-name="Emacron" unicode="&#x112;" horiz-adv-x="1221" d="M353 1632 L353 1777 L963 1777 L963 1632 L353 1632 Z M154 0 L154 1456 L1055 1456 L1055 1260 L384 1260 L384 849 L1017 849 L1017 652 L385 652 L385 196 L1084 196 L1084 0 L154 0 Z " />
<glyph glyph-name="emacron" unicode="&#x113;" horiz-adv-x="1188" d="M325 1202 L325 1347 L935 1347 L935 1202 L325 1202 Z M303 628 L833 628 Q820 749 756 813 Q692 877 590 877 Q476 877 401 811.5 Q326 746 303 628 Z M610 -23 Q358 -23 211 124 Q64 271 64 512 Q64 662 125 783 Q186 904 305 978 Q424 1052 580 1052 Q695 1052 783 1011.5 Q871 971 925 898 Q979 826 1006 732 Q1033 638 1033 523 Q1033 512 1031.5 501 Q1030 490 1028 477 L298 477 Q304 319 393 239 Q482 159 627 159 Q803 159 949 271 L1012 107 Q840 -23 610 -23 Z " />
<glyph glyph-name="Ebreve" unicode="&#x114;" horiz-adv-x="1221" d="M615 1604 Q328 1604 309 1886 L467 1886 Q473 1815 511.5 1788.5 Q550 1762 615 1762 Q678 1762 716 1788.5 Q754 1815 761 1886 L916 1886 Q898 1604 615 1604 Z M154 0 L154 1456 L1055 1456 L1055 1260 L384 1260 L384 849 L1017 849 L1017 652 L385 652 L385 196 L1084 196 L1084 0 L154 0 Z " />
<glyph glyph-name="ebreve" unicode="&#x115;" horiz-adv-x="1188" d="M303 628 L833 628 Q820 749 756 813 Q692 877 590 877 Q476 877 401 811.5 Q326 746 303 628 Z M610 -23 Q358 -23 211 124 Q64 271 64 512 Q64 662 125 783 Q186 904 305 978 Q424 1052 580 1052 Q695 1052 783 1011.5 Q871 971 925 898 Q979 826 1006 732 Q1033 638 1033 523 Q1033 512 1031.5 501 Q1030 490 1028 477 L298 477 Q304 319 393 239 Q482 159 627 159 Q803 159 949 271 L1012 107 Q840 -23 610 -23 Z M588 1174 Q301 1174 282 1456 L440 1456 Q446 1385 484.5 1358.5 Q523 1332 588 1332 Q651 1332 689 1358.5 Q727 1385 734 1456 L889 1456 Q871 1174 588 1174 Z " />
<glyph glyph-name="Edotaccent" unicode="&#x116;" horiz-adv-x="1221" d="M507 1650 L507 1860 L729 1860 L729 1650 L507 1650 Z M154 0 L154 1456 L1055 1456 L1055 1260 L384 1260 L384 849 L1017 849 L1017 652 L385 652 L385 196 L1084 196 L1084 0 L154 0 Z " />
<glyph glyph-name="edotaccent" unicode="&#x117;" horiz-adv-x="1188" d="M303 628 L833 628 Q820 749 756 813 Q692 877 590 877 Q476 877 401 811.5 Q326 746 303 628 Z M610 -23 Q358 -23 211 124 Q64 271 64 512 Q64 662 125 783 Q186 904 305 978 Q424 1052 580 1052 Q695 1052 783 1011.5 Q871 971 925 898 Q979 826 1006 732 Q1033 638 1033 523 Q1033 512 1031.5 501 Q1030 490 1028 477 L298 477 Q304 319 393 239 Q482 159 627 159 Q803 159 949 271 L1012 107 Q840 -23 610 -23 Z M480 1220 L480 1430 L702 1430 L702 1220 L480 1220 Z " />
<glyph glyph-name="Eogonek" unicode="&#x118;" horiz-adv-x="1221" d="M753 -392 Q703 -392 662 -382.5 Q621 -373 591.5 -354.5 Q562 -336 545.5 -308 Q529 -280 529 -243 Q529 -195 551.5 -152.5 Q574 -110 616 -76 Q657 -43 690 -22.5 Q723 -2 765 19 L886 17 Q818 -24 772 -85 Q727 -147 727 -193 Q727 -256 816 -256 Q863 -256 975 -225 L975 -355 Q855 -392 753 -392 Z M154 0 L154 1456 L1055 1456 L1055 1260 L384 1260 L384 849 L1017 849 L1017 652 L385 652 L385 196 L1084 196 L1084 0 L154 0 Z " />
<glyph glyph-name="eogonek" unicode="&#x119;" horiz-adv-x="1188" d="M692 -392 Q642 -392 601 -382.5 Q560 -373 530.5 -354.5 Q501 -336 484.5 -308 Q468 -280 468 -243 Q468 -195 490.5 -152.5 Q513 -110 555 -76 Q596 -43 629 -22.5 Q662 -2 704 19 L825 17 Q757 -24 711 -85 Q666 -147 666 -193 Q666 -256 755 -256 Q802 -256 914 -225 L914 -355 Q794 -392 692 -392 Z M303 628 L833 628 Q820 749 756 813 Q692 877 590 877 Q476 877 401 811.5 Q326 746 303 628 Z M610 -23 Q358 -23 211 124 Q64 271 64 512 Q64 662 125 783 Q186 904 305 978 Q424 1052 580 1052 Q695 1052 783 1011.5 Q871 971 925 898 Q979 826 1006 732 Q1033 638 1033 523 Q1033 512 1031.5 501 Q1030 490 1028 477 L298 477 Q304 319 393 239 Q482 159 627 159 Q803 159 949 271 L1012 107 Q840 -23 610 -23 Z " />
<glyph glyph-name="Ecaron" unicode="&#x11a;" horiz-adv-x="1221" d="M517 1589 L250 1958 L464 1958 L605 1763 L746 1958 L968 1958 L703 1589 L517 1589 Z M154 0 L154 1456 L1055 1456 L1055 1260 L384 1260 L384 849 L1017 849 L1017 652 L385 652 L385 196 L1084 196 L1084 0 L154 0 Z " />
<glyph glyph-name="ecaron" unicode="&#x11b;" horiz-adv-x="1188" d="M303 628 L833 628 Q820 749 756 813 Q692 877 590 877 Q476 877 401 811.5 Q326 746 303 628 Z M610 -23 Q358 -23 211 124 Q64 271 64 512 Q64 662 125 783 Q186 904 305 978 Q424 1052 580 1052 Q695 1052 783 1011.5 Q871 971 925 898 Q979 826 1006 732 Q1033 638 1033 523 Q1033 512 1031.5 501 Q1030 490 1028 477 L298 477 Q304 319 393 239 Q482 159 627 159 Q803 159 949 271 L1012 107 Q840 -23 610 -23 Z M489 1159 L222 1528 L436 1528 L577 1333 L718 1528 L940 1528 L675 1159 L489 1159 Z " />
<glyph glyph-name="Gcircumflex" unicode="&#x11c;" horiz-adv-x="1534" d="M433 1589 L682 1957 L898 1957 L1151 1589 L947 1589 L789 1785 L630 1589 L433 1589 Z M809 -23 Q451 -23 259 173 Q67 369 67 704 Q67 867 121 1008.5 Q175 1150 272 1256 Q369 1361 513 1422 Q657 1483 831 1483 Q1001 1483 1115 1442 Q1172 1422 1221.5 1396 Q1271 1370 1314 1338 L1222 1176 Q1064 1286 834 1286 Q710 1286 609 1240 Q508 1194 442 1115 Q376 1036 341 934 Q306 832 306 715 Q306 466 436 320 Q567 174 819 174 Q966 174 1094 216 L1094 586 L744 586 L744 783 L1326 783 L1326 86 Q1087 -23 809 -23 Z " />
<glyph glyph-name="gcircumflex" unicode="&#x11d;" horiz-adv-x="1253" d="M572 183 Q649 183 702 211 Q755 239 788 286.5 Q821 334 836 396.5 Q851 459 851 528 Q851 683 781 777 Q711 871 581 871 Q445 871 372 771 Q298 671 298 517 Q298 357 367 270 Q436 183 572 183 Z M536 -414 Q330 -414 148 -332 L185 -138 Q348 -232 524 -232 Q675 -232 758.5 -159 Q842 -86 842 59 L842 156 Q744 12 557 12 Q337 12 201 148 Q64 285 64 515 Q64 626 94 724 Q124 822 184 895 Q244 968 334.5 1010 Q425 1052 546 1052 Q652 1052 726 1009.5 Q800 967 843 900 L843 1026 L1078 1026 Q1070 948 1066 868.5 Q1062 789 1062 708 L1062 147 Q1062 59 1048 -17.5 Q1034 -94 997 -169 Q961 -244 903 -296 Q845 -350 752 -382 Q659 -414 536 -414 Z M179 1159 L428 1527 L644 1527 L897 1159 L693 1159 L535 1355 L376 1159 L179 1159 Z " />
<glyph glyph-name="Gbreve" unicode="&#x11e;" horiz-adv-x="1534" d="M790 1604 Q503 1604 484 1886 L642 1886 Q648 1815 686.5 1788.5 Q725 1762 790 1762 Q853 1762 891 1788.5 Q929 1815 936 1886 L1091 1886 Q1073 1604 790 1604 Z M809 -23 Q451 -23 259 173 Q67 369 67 704 Q67 867 121 1008.5 Q175 1150 272 1256 Q369 1361 513 1422 Q657 1483 831 1483 Q1001 1483 1115 1442 Q1172 1422 1221.5 1396 Q1271 1370 1314 1338 L1222 1176 Q1064 1286 834 1286 Q710 1286 609 1240 Q508 1194 442 1115 Q376 1036 341 934 Q306 832 306 715 Q306 466 436 320 Q567 174 819 174 Q966 174 1094 216 L1094 586 L744 586 L744 783 L1326 783 L1326 86 Q1087 -23 809 -23 Z " />
<glyph glyph-name="gbreve" unicode="&#x11f;" horiz-adv-x="1253" d="M572 183 Q649 183 702 211 Q755 239 788 286.5 Q821 334 836 396.5 Q851 459 851 528 Q851 683 781 777 Q711 871 581 871 Q445 871 372 771 Q298 671 298 517 Q298 357 367 270 Q436 183 572 183 Z M536 -414 Q330 -414 148 -332 L185 -138 Q348 -232 524 -232 Q675 -232 758.5 -159 Q842 -86 842 59 L842 156 Q744 12 557 12 Q337 12 201 148 Q64 285 64 515 Q64 626 94 724 Q124 822 184 895 Q244 968 334.5 1010 Q425 1052 546 1052 Q652 1052 726 1009.5 Q800 967 843 900 L843 1026 L1078 1026 Q1070 948 1066 868.5 Q1062 789 1062 708 L1062 147 Q1062 59 1048 -17.5 Q1034 -94 997 -169 Q961 -244 903 -296 Q845 -350 752 -382 Q659 -414 536 -414 Z M536 1174 Q249 1174 230 1456 L388 1456 Q394 1385 432.5 1358.5 Q471 1332 536 1332 Q599 1332 637 1358.5 Q675 1385 682 1456 L837 1456 Q819 1174 536 1174 Z " />
<glyph glyph-name="Gdotaccent" unicode="&#x120;" horiz-adv-x="1534" d="M682 1650 L682 1860 L904 1860 L904 1650 L682 1650 Z M809 -23 Q451 -23 259 173 Q67 369 67 704 Q67 867 121 1008.5 Q175 1150 272 1256 Q369 1361 513 1422 Q657 1483 831 1483 Q1001 1483 1115 1442 Q1172 1422 1221.5 1396 Q1271 1370 1314 1338 L1222 1176 Q1064 1286 834 1286 Q710 1286 609 1240 Q508 1194 442 1115 Q376 1036 341 934 Q306 832 306 715 Q306 466 436 320 Q567 174 819 174 Q966 174 1094 216 L1094 586 L744 586 L744 783 L1326 783 L1326 86 Q1087 -23 809 -23 Z " />
<glyph glyph-name="gdotaccent" unicode="&#x121;" horiz-adv-x="1253" d="M572 183 Q649 183 702 211 Q755 239 788 286.5 Q821 334 836 396.5 Q851 459 851 528 Q851 683 781 777 Q711 871 581 871 Q445 871 372 771 Q298 671 298 517 Q298 357 367 270 Q436 183 572 183 Z M536 -414 Q330 -414 148 -332 L185 -138 Q348 -232 524 -232 Q675 -232 758.5 -159 Q842 -86 842 59 L842 156 Q744 12 557 12 Q337 12 201 148 Q64 285 64 515 Q64 626 94 724 Q124 822 184 895 Q244 968 334.5 1010 Q425 1052 546 1052 Q652 1052 726 1009.5 Q800 967 843 900 L843 1026 L1078 1026 Q1070 948 1066 868.5 Q1062 789 1062 708 L1062 147 Q1062 59 1048 -17.5 Q1034 -94 997 -169 Q961 -244 903 -296 Q845 -350 752 -382 Q659 -414 536 -414 Z M427 1220 L427 1430 L649 1430 L649 1220 L427 1220 Z " />
<glyph glyph-name="Gcommaaccent" unicode="&#x122;" horiz-adv-x="1534" d="M597 -631 L708 -138 L961 -138 L785 -631 L597 -631 Z M809 -23 Q451 -23 259 173 Q67 369 67 704 Q67 867 121 1008.5 Q175 1150 272 1256 Q369 1361 513 1422 Q657 1483 831 1483 Q1001 1483 1115 1442 Q1172 1422 1221.5 1396 Q1271 1370 1314 1338 L1222 1176 Q1064 1286 834 1286 Q710 1286 609 1240 Q508 1194 442 1115 Q376 1036 341 934 Q306 832 306 715 Q306 466 436 320 Q567 174 819 174 Q966 174 1094 216 L1094 586 L744 586 L744 783 L1326 783 L1326 86 Q1087 -23 809 -23 Z " />
<glyph glyph-name="gcommaaccent" unicode="&#x123;" horiz-adv-x="1253" d="M832 1704 L722 1203 L470 1203 L644 1704 L832 1704 Z M572 183 Q649 183 702 211 Q755 239 788 286.5 Q821 334 836 396.5 Q851 459 851 528 Q851 683 781 777 Q711 871 581 871 Q445 871 372 771 Q298 671 298 517 Q298 357 367 270 Q436 183 572 183 Z M536 -414 Q330 -414 148 -332 L185 -138 Q348 -232 524 -232 Q675 -232 758.5 -159 Q842 -86 842 59 L842 156 Q744 12 557 12 Q337 12 201 148 Q64 285 64 515 Q64 626 94 724 Q124 822 184 895 Q244 968 334.5 1010 Q425 1052 546 1052 Q652 1052 726 1009.5 Q800 967 843 900 L843 1026 L1078 1026 Q1070 948 1066 868.5 Q1062 789 1062 708 L1062 147 Q1062 59 1048 -17.5 Q1034 -94 997 -169 Q961 -244 903 -296 Q845 -350 752 -382 Q659 -414 536 -414 Z " />
<glyph glyph-name="Hcircumflex" unicode="&#x124;" horiz-adv-x="1564" d="M377 1589 L626 1957 L842 1957 L1095 1589 L891 1589 L733 1785 L574 1589 L377 1589 Z M154 0 L154 1456 L384 1456 L384 845 L1101 845 L1101 1456 L1331 1456 L1331 0 L1104 0 L1104 649 L387 649 L387 0 L154 0 Z " />
<glyph glyph-name="hcircumflex" unicode="&#x125;" horiz-adv-x="1227" d="M112 0 L112 1469 L336 1469 L336 883 Q377 959 471 1005 Q567 1052 659 1052 Q750 1052 819 1023 Q888 994 930 949 Q973 903 998 841 Q1025 778 1035 717 Q1045 656 1045 589 L1045 0 L821 0 L821 593 Q821 740 773.5 805.5 Q726 871 625 871 Q513 871 425 795 Q336 718 336 620 L336 0 L112 0 Z M339 1159 L588 1527 L804 1527 L1057 1159 L853 1159 L695 1355 L536 1159 L339 1159 Z " />
<glyph glyph-name="Hbar" unicode="&#x126;" horiz-adv-x="1564" d="M91 1110 L91 1243 L1462 1243 L1462 1110 L91 1110 Z M194 0 L194 1456 L424 1456 L424 845 L1141 845 L1141 1456 L1371 1456 L1371 0 L1144 0 L1144 649 L427 649 L427 0 L194 0 Z " />
<glyph glyph-name="hbar" unicode="&#x127;" horiz-adv-x="1227" d="M-26 1169 L-26 1314 L584 1314 L584 1169 L-26 1169 Z M112 0 L112 1469 L336 1469 L336 883 Q377 959 471 1005 Q567 1052 659 1052 Q750 1052 819 1023 Q888 994 930 949 Q973 903 998 841 Q1025 778 1035 717 Q1045 656 1045 589 L1045 0 L821 0 L821 593 Q821 740 773.5 805.5 Q726 871 625 871 Q513 871 425 795 Q336 718 336 620 L336 0 L112 0 Z " />
<glyph glyph-name="Itilde" unicode="&#x128;" horiz-adv-x="596" d="M383 1596 Q332 1596 229 1648 Q125 1701 96 1701 Q69 1701 50 1676.5 Q31 1652 26 1601 L-118 1601 Q-118 1721 -62 1797 Q-7 1872 86 1872 Q135 1872 195 1846 Q224 1833 251 1820 Q278 1807 303 1794 Q375 1756 407.5 1772.5 Q440 1789 442 1872 L590 1872 Q590 1737 535 1666.5 Q480 1596 383 1596 Z M150 0 L150 1456 L380 1456 L380 0 L150 0 Z " />
<glyph glyph-name="itilde" unicode="&#x129;" horiz-adv-x="521" d="M328 1166 Q277 1166 174 1218 Q70 1271 41 1271 Q14 1271 -5 1246.5 Q-24 1222 -29 1171 L-173 1171 Q-173 1291 -117 1367 Q-62 1442 31 1442 Q80 1442 140 1416 Q169 1403 196 1390 Q223 1377 248 1364 Q320 1326 352.5 1342.5 Q385 1359 387 1442 L535 1442 Q535 1307 480 1236.5 Q425 1166 328 1166 Z M103 0 L103 1026 L328 1026 L328 0 L103 0 Z " />
<glyph glyph-name="Imacron" unicode="&#x12a;" horiz-adv-x="596" d="M6 1632 L6 1777 L616 1777 L616 1632 L6 1632 Z M150 0 L150 1456 L380 1456 L380 0 L150 0 Z " />
<glyph glyph-name="imacron" unicode="&#x12b;" horiz-adv-x="521" d="M-49 1202 L-49 1347 L561 1347 L561 1202 L-49 1202 Z M103 0 L103 1026 L328 1026 L328 0 L103 0 Z " />
<glyph glyph-name="Ibreve" unicode="&#x12c;" horiz-adv-x="596" d="M268 1604 Q-19 1604 -38 1886 L120 1886 Q126 1815 164.5 1788.5 Q203 1762 268 1762 Q331 1762 369 1788.5 Q407 1815 414 1886 L569 1886 Q551 1604 268 1604 Z M150 0 L150 1456 L380 1456 L380 0 L150 0 Z " />
<glyph glyph-name="ibreve" unicode="&#x12d;" horiz-adv-x="521" d="M103 0 L103 1026 L328 1026 L328 0 L103 0 Z M213 1174 Q-74 1174 -93 1456 L65 1456 Q71 1385 109.5 1358.5 Q148 1332 213 1332 Q276 1332 314 1358.5 Q352 1385 359 1456 L514 1456 Q496 1174 213 1174 Z " />
<glyph glyph-name="Iogonek" unicode="&#x12e;" horiz-adv-x="596" d="M245 -392 Q195 -392 154 -382.5 Q113 -373 83.5 -354.5 Q54 -336 37.5 -308 Q21 -280 21 -243 Q21 -195 43.5 -152.5 Q66 -110 108 -76 Q149 -43 182 -22.5 Q215 -2 257 19 L378 17 Q310 -24 264 -85 Q219 -147 219 -193 Q219 -256 308 -256 Q355 -256 467 -225 L467 -355 Q347 -392 245 -392 Z M150 0 L150 1456 L380 1456 L380 0 L150 0 Z " />
<glyph glyph-name="iogonek" unicode="&#x12f;" horiz-adv-x="521" d="M197 -392 Q147 -392 106 -382.5 Q65 -373 35.5 -354.5 Q6 -336 -10.5 -308 Q-27 -280 -27 -243 Q-27 -195 -4.5 -152.5 Q18 -110 60 -76 Q101 -43 134 -22.5 Q167 -2 209 19 L330 17 Q262 -24 216 -85 Q171 -147 171 -193 Q171 -256 260 -256 Q307 -256 419 -225 L419 -355 Q299 -392 197 -392 Z M103 0 L103 1026 L328 1026 L328 0 L103 0 Z M105 1220 L105 1430 L327 1430 L327 1220 L105 1220 Z " />
<glyph glyph-name="Idot" unicode="&#x130;" horiz-adv-x="596" d="M160 1650 L160 1860 L382 1860 L382 1650 L160 1650 Z M150 0 L150 1456 L380 1456 L380 0 L150 0 Z " />
<glyph glyph-name="dotlessi" unicode="&#x131;" horiz-adv-x="521" d="M103 0 L103 1026 L328 1026 L328 0 L103 0 Z " />
<glyph glyph-name="IJ" unicode="&#x132;" horiz-adv-x="1499" d="M925 -331 Q791 -331 632 -273 L670 -96 Q799 -136 887 -136 Q940 -136 976.5 -120.5 Q1013 -105 1035.5 -73.5 Q1058 -42 1068 4.5 Q1078 51 1078 114 L1078 1456 L1308 1456 L1308 120 Q1308 -101 1209 -216 Q1110 -331 925 -331 Z M150 0 L150 1456 L380 1456 L380 0 L150 0 Z " />
<glyph glyph-name="ij" unicode="&#x133;" horiz-adv-x="1070" d="M668 1246 L668 1456 L890 1456 L890 1246 L668 1246 Z M542 -394 Q483 -394 385 -375 L397 -208 Q467 -224 512 -224 Q552 -224 582 -210.5 Q612 -197 631.5 -166.5 Q651 -136 660.5 -87 Q670 -38 670 32 L670 1026 L887 1026 L887 55 Q887 -21 879.5 -81 Q872 -141 850 -202 Q827 -264 791 -303 Q754 -343 690.5 -368.5 Q627 -394 542 -394 Z M118 1256 L118 1456 L336 1456 L336 1256 L118 1256 Z M117 0 L117 1026 L336 1026 L336 0 L117 0 Z " />
<glyph glyph-name="Jcircumflex" unicode="&#x134;" horiz-adv-x="903" d="M205 1589 L454 1957 L670 1957 L923 1589 L719 1589 L561 1785 L402 1589 L205 1589 Z M329 -331 Q195 -331 36 -273 L74 -96 Q203 -136 291 -136 Q344 -136 380.5 -120.5 Q417 -105 439.5 -73.5 Q462 -42 472 4.5 Q482 51 482 114 L482 1456 L712 1456 L712 120 Q712 -101 613 -216 Q514 -331 329 -331 Z " />
<glyph glyph-name="jcircumflex" unicode="&#x135;" horiz-adv-x="544" d="M56 -394 Q-3 -394 -101 -375 L-89 -208 Q-19 -224 26 -224 Q66 -224 96 -210.5 Q126 -197 145.5 -166.5 Q165 -136 174.5 -87 Q184 -38 184 32 L184 1026 L401 1026 L401 55 Q401 -21 393.5 -81 Q386 -141 364 -202 Q341 -264 305 -303 Q268 -343 204.5 -368.5 Q141 -394 56 -394 Z M-107 1159 L142 1527 L358 1527 L611 1159 L407 1159 L249 1355 L90 1159 L-107 1159 Z " />
<glyph glyph-name="Kcommaaccent" unicode="&#x136;" horiz-adv-x="1328" d="M501 -631 L612 -138 L865 -138 L689 -631 L501 -631 Z M154 0 L154 1456 L384 1456 L384 812 L969 1456 L1256 1456 L609 753 L1305 0 L1009 0 L385 667 L385 0 L154 0 Z " />
<glyph glyph-name="kcommaaccent" unicode="&#x137;" horiz-adv-x="1106" d="M358 -631 L469 -138 L722 -138 L546 -631 L358 -631 Z M116 0 L116 1469 L340 1469 L340 601 L739 1026 L1047 1026 L546 534 L1081 0 L783 0 L340 460 L340 0 L116 0 Z " />
<glyph glyph-name="kgreenlandic" unicode="&#x138;" horiz-adv-x="1082" d="M155 0 L155 1026 L378 1026 L378 604 L765 1026 L1065 1026 L553 513 Q595 475 658.5 415.5 Q722 356 810 272 Q898 188 970.5 121 Q1043 54 1101 0 L808 0 L378 415 L378 0 L155 0 Z " />
<glyph glyph-name="Lacute" unicode="&#x139;" horiz-adv-x="1145" d="M213 1600 L467 1940 L755 1940 L413 1600 L213 1600 Z M154 0 L154 1456 L384 1456 L384 196 L1058 196 L1058 0 L154 0 Z " />
<glyph glyph-name="lacute" unicode="&#x13a;" horiz-adv-x="528" d="M118 0 L118 1469 L341 1469 L341 0 L118 0 Z M140 1600 L394 1940 L682 1940 L340 1600 L140 1600 Z " />
<glyph glyph-name="Lcommaaccent" unicode="&#x13b;" horiz-adv-x="1145" d="M424 -631 L535 -138 L788 -138 L612 -631 L424 -631 Z M154 0 L154 1456 L384 1456 L384 196 L1058 196 L1058 0 L154 0 Z " />
<glyph glyph-name="lcommaaccent" unicode="&#x13c;" horiz-adv-x="528" d="M37 -631 L148 -138 L401 -138 L225 -631 L37 -631 Z M118 0 L118 1469 L341 1469 L341 0 L118 0 Z " />
<glyph glyph-name="Lcaron" unicode="&#x13d;" horiz-adv-x="1145" d="M606 963 L717 1456 L969 1456 L794 963 L606 963 Z M154 0 L154 1456 L384 1456 L384 196 L1058 196 L1058 0 L154 0 Z " />
<glyph glyph-name="lcaron" unicode="&#x13e;" horiz-adv-x="528" d="M118 0 L118 1469 L341 1469 L341 0 L118 0 Z M521 963 L632 1456 L884 1456 L709 963 L521 963 Z " />
<glyph glyph-name="Ldot" unicode="&#x13f;" horiz-adv-x="1145" d="M599 635 L599 877 L853 877 L853 635 L599 635 Z M154 0 L154 1456 L384 1456 L384 196 L1058 196 L1058 0 L154 0 Z " />
<glyph glyph-name="ldot" unicode="&#x140;" horiz-adv-x="528" d="M494 640 L494 882 L748 882 L748 640 L494 640 Z M118 0 L118 1469 L341 1469 L341 0 L118 0 Z " />
<glyph glyph-name="Lslash" unicode="&#x141;" horiz-adv-x="1152" d="M3 441 L3 640 L626 1076 L626 877 L3 441 Z M154 0 L154 1456 L384 1456 L384 196 L1058 196 L1058 0 L154 0 Z " />
<glyph glyph-name="lslash" unicode="&#x142;" horiz-adv-x="503" d="M92 0 L92 715 L-35 615 L-35 811 L92 911 L92 1468 L316 1468 L316 1070 L438 1168 L438 971 L317 870 L317 0 L92 0 Z " />
<glyph glyph-name="Nacute" unicode="&#x143;" horiz-adv-x="1616" d="M687 1600 L941 1940 L1229 1940 L887 1600 L687 1600 Z M154 0 L154 1456 L399 1456 L641 1102 Q796 877 924.5 688.5 Q1053 500 1164 332 L1164 1456 L1382 1456 L1382 0 L1136 0 Q1091 64 1030.5 152 Q970 240 892 352 Q736 577 607 765 Q478 953 367 1122 L367 0 L154 0 Z " />
<glyph glyph-name="nacute" unicode="&#x144;" horiz-adv-x="1234" d="M126 0 L126 677 Q126 724 125 768.5 Q124 813 122 857 Q120 901 118 933 Q116 965 114 985 L110 1026 L345 1026 L345 881 Q397 963 489 1007 Q580 1052 672 1052 Q862 1052 957 938 Q1052 824 1052 575 L1052 0 L828 0 L828 582 Q828 734 783 802 Q739 871 627 871 Q530 871 440 796 Q350 722 350 626 L350 0 L126 0 Z M547 1170 L801 1510 L1089 1510 L747 1170 L547 1170 Z " />
<glyph glyph-name="Ncommaaccent" unicode="&#x145;" horiz-adv-x="1616" d="M612 -631 L723 -138 L976 -138 L800 -631 L612 -631 Z M154 0 L154 1456 L399 1456 L641 1102 Q796 877 924.5 688.5 Q1053 500 1164 332 L1164 1456 L1382 1456 L1382 0 L1136 0 Q1091 64 1030.5 152 Q970 240 892 352 Q736 577 607 765 Q478 953 367 1122 L367 0 L154 0 Z " />
<glyph glyph-name="ncommaaccent" unicode="&#x146;" horiz-adv-x="1234" d="M417 -631 L528 -138 L781 -138 L605 -631 L417 -631 Z M126 0 L126 677 Q126 724 125 768.5 Q124 813 122 857 Q120 901 118 933 Q116 965 114 985 L110 1026 L345 1026 L345 881 Q397 963 489 1007 Q580 1052 672 1052 Q862 1052 957 938 Q1052 824 1052 575 L1052 0 L828 0 L828 582 Q828 734 783 802 Q739 871 627 871 Q530 871 440 796 Q350 722 350 626 L350 0 L126 0 Z " />
<glyph glyph-name="Ncaron" unicode="&#x147;" horiz-adv-x="1616" d="M680 1589 L413 1958 L627 1958 L768 1763 L909 1958 L1131 1958 L866 1589 L680 1589 Z M154 0 L154 1456 L399 1456 L641 1102 Q796 877 924.5 688.5 Q1053 500 1164 332 L1164 1456 L1382 1456 L1382 0 L1136 0 Q1091 64 1030.5 152 Q970 240 892 352 Q736 577 607 765 Q478 953 367 1122 L367 0 L154 0 Z " />
<glyph glyph-name="ncaron" unicode="&#x148;" horiz-adv-x="1234" d="M126 0 L126 677 Q126 724 125 768.5 Q124 813 122 857 Q120 901 118 933 Q116 965 114 985 L110 1026 L345 1026 L345 881 Q397 963 489 1007 Q580 1052 672 1052 Q862 1052 957 938 Q1052 824 1052 575 L1052 0 L828 0 L828 582 Q828 734 783 802 Q739 871 627 871 Q530 871 440 796 Q350 722 350 626 L350 0 L126 0 Z M541 1159 L274 1528 L488 1528 L629 1333 L770 1528 L992 1528 L727 1159 L541 1159 Z " />
<glyph glyph-name="napostrophe" unicode="&#x149;" horiz-adv-x="1237" d="M126 0 L126 677 Q126 724 125 768.5 Q124 813 122 857 Q120 901 118 933 Q116 965 114 985 L110 1026 L345 1026 L345 881 Q397 963 489 1007 Q580 1052 672 1052 Q862 1052 957 938 Q1052 824 1052 575 L1052 0 L828 0 L828 582 Q828 734 783 802 Q739 871 627 871 Q530 871 440 796 Q350 722 350 626 L350 0 L126 0 Z M-2 1241 L84 1805 L344 1805 L162 1241 L-2 1241 Z " />
<glyph glyph-name="Eng" unicode="&#x14a;" horiz-adv-x="1602" d="M1410 1456 L1410 41 Q1410 -454 900 -454 L900 -277 Q1038 -277 1114 -221 Q1190 -166 1190 -25 L1190 82 L520 989 L407 1158 L407 0 L191 0 L191 1456 L438 1456 L1077 573 L1190 406 L1190 1456 L1410 1456 Z " />
<glyph glyph-name="eng" unicode="&#x14b;" horiz-adv-x="1207" d="M554 -406 L554 -233 Q697 -233 771.5 -161.5 Q846 -90 846 70 L846 582 Q846 738 806 803 Q766 870 654 870 Q559 870 473 796 Q388 723 388 626 L388 0 L164 0 L164 677 Q164 724 163 768.5 Q162 813 160 857 Q158 901 156 933 Q154 965 152 985 L148 1026 L383 1026 L383 880 Q429 962 518 1007 Q606 1052 699 1052 Q793 1052 863 1024.5 Q933 997 979 938.5 Q1025 880 1047.5 790 Q1070 700 1070 575 L1070 118 Q1070 -139 937 -272.5 Q804 -406 554 -406 Z " />
<glyph glyph-name="Omacron" unicode="&#x14c;" horiz-adv-x="1653" d="M526 1632 L526 1777 L1136 1777 L1136 1632 L526 1632 Z M790 -23 Q452 -23 259 181 Q66 386 66 733 Q66 955 151 1124 Q236 1293 402 1388 Q569 1483 793 1483 Q956 1484 1088.5 1429.5 Q1221 1375 1315 1275 Q1409 1175 1459 1036.5 Q1509 898 1507 733 Q1507 387 1316 181 Q1125 -23 790 -23 Z M786 174 Q1019 174 1138 321 Q1257 469 1257 733 Q1257 988 1138 1137 Q1019 1286 790 1286 Q560 1286 437 1136 Q314 987 314 733 Q314 469 433 321 Q553 174 786 174 Z " />
<glyph glyph-name="omacron" unicode="&#x14d;" horiz-adv-x="1274" d="M600 -23 Q470 -23 367 19 Q264 61 198 134 Q132 207 98 303 Q64 399 64 513 Q64 667 124 787 Q184 908 307 980 Q431 1052 601 1052 Q732 1052 833.5 1011.5 Q935 971 999 896 Q1063 823 1096.5 726 Q1130 629 1130 511 Q1130 399 1096 304 Q1062 209 996 134 Q932 61 830 19 Q728 -23 600 -23 Z M599 159 Q747 159 821 258 Q896 357 896 514 Q896 674 820 772 Q743 871 598 871 Q451 871 375 772 Q298 672 298 514 Q298 356 374 258 Q450 159 599 159 Z M337 1202 L337 1347 L947 1347 L947 1202 L337 1202 Z " />
<glyph glyph-name="Obreve" unicode="&#x14e;" horiz-adv-x="1653" d="M789 1604 Q502 1604 483 1886 L641 1886 Q647 1815 685.5 1788.5 Q724 1762 789 1762 Q852 1762 890 1788.5 Q928 1815 935 1886 L1090 1886 Q1072 1604 789 1604 Z M790 -23 Q452 -23 259 181 Q66 386 66 733 Q66 955 151 1124 Q236 1293 402 1388 Q569 1483 793 1483 Q956 1484 1088.5 1429.5 Q1221 1375 1315 1275 Q1409 1175 1459 1036.5 Q1509 898 1507 733 Q1507 387 1316 181 Q1125 -23 790 -23 Z M786 174 Q1019 174 1138 321 Q1257 469 1257 733 Q1257 988 1138 1137 Q1019 1286 790 1286 Q560 1286 437 1136 Q314 987 314 733 Q314 469 433 321 Q553 174 786 174 Z " />
<glyph glyph-name="obreve" unicode="&#x14f;" horiz-adv-x="1274" d="M600 -23 Q470 -23 367 19 Q264 61 198 134 Q132 207 98 303 Q64 399 64 513 Q64 667 124 787 Q184 908 307 980 Q431 1052 601 1052 Q732 1052 833.5 1011.5 Q935 971 999 896 Q1063 823 1096.5 726 Q1130 629 1130 511 Q1130 399 1096 304 Q1062 209 996 134 Q932 61 830 19 Q728 -23 600 -23 Z M599 159 Q747 159 821 258 Q896 357 896 514 Q896 674 820 772 Q743 871 598 871 Q451 871 375 772 Q298 672 298 514 Q298 356 374 258 Q450 159 599 159 Z M599 1174 Q312 1174 293 1456 L451 1456 Q457 1385 495.5 1358.5 Q534 1332 599 1332 Q662 1332 700 1358.5 Q738 1385 745 1456 L900 1456 Q882 1174 599 1174 Z " />
<glyph glyph-name="Ohungarumlaut" unicode="&#x150;" horiz-adv-x="1653" d="M904 1568 L1147 1940 L1411 1940 L1071 1568 L904 1568 Z M578 1568 L785 1940 L1035 1940 L739 1568 L578 1568 Z M790 -23 Q452 -23 259 181 Q66 386 66 733 Q66 955 151 1124 Q236 1293 402 1388 Q569 1483 793 1483 Q956 1484 1088.5 1429.5 Q1221 1375 1315 1275 Q1409 1175 1459 1036.5 Q1509 898 1507 733 Q1507 387 1316 181 Q1125 -23 790 -23 Z M786 174 Q1019 174 1138 321 Q1257 469 1257 733 Q1257 988 1138 1137 Q1019 1286 790 1286 Q560 1286 437 1136 Q314 987 314 733 Q314 469 433 321 Q553 174 786 174 Z " />
<glyph glyph-name="ohungarumlaut" unicode="&#x151;" horiz-adv-x="1274" d="M600 -23 Q470 -23 367 19 Q264 61 198 134 Q132 207 98 303 Q64 399 64 513 Q64 667 124 787 Q184 908 307 980 Q431 1052 601 1052 Q732 1052 833.5 1011.5 Q935 971 999 896 Q1063 823 1096.5 726 Q1130 629 1130 511 Q1130 399 1096 304 Q1062 209 996 134 Q932 61 830 19 Q728 -23 600 -23 Z M599 159 Q747 159 821 258 Q896 357 896 514 Q896 674 820 772 Q743 871 598 871 Q451 871 375 772 Q298 672 298 514 Q298 356 374 258 Q450 159 599 159 Z M714 1138 L957 1510 L1221 1510 L881 1138 L714 1138 Z M388 1138 L595 1510 L845 1510 L549 1138 L388 1138 Z " />
<glyph glyph-name="OE" unicode="&#x152;" horiz-adv-x="2053" d="M776 160 Q843 160 898.5 172 Q954 184 987 203 Q1021 222 1035.5 233 Q1050 244 1060 255 L1060 1199 Q963 1287 797 1287 Q789 1287 777.5 1286.5 Q766 1286 750 1285 Q657 1279 579.5 1242.5 Q502 1206 442 1137 Q382 1070 348 964.5 Q314 859 314 725 Q314 460 437 310 Q561 160 776 160 Z M66 731 Q66 903 118.5 1044 Q171 1185 264 1281 Q358 1378 484.5 1430 Q611 1482 759 1482 Q817 1482 868.5 1473.5 Q920 1465 951 1454 Q967 1449 981 1442.5 Q995 1436 1009 1428 Q1023 1420 1031 1415.5 Q1039 1411 1044 1407 Q1049 1403 1052.5 1400 Q1056 1397 1060 1394 L1060 1456 L1886 1456 L1886 1259 L1291 1259 L1291 844 L1849 844 L1849 646 L1292 646 L1292 197 L1916 197 L1916 0 L1060 0 L1060 75 Q1047 61 1017 42 Q987 22 918 0 Q850 -23 774 -24 L747 -24 Q599 -24 476.5 24 Q354 72 261 165 Q168 259 117 403 Q66 547 66 731 Z " />
<glyph glyph-name="oe" unicode="&#x153;" horiz-adv-x="1993" d="M1096 631 L1606 631 L1606 644 Q1602 747 1531 810 Q1460 873 1359 873 Q1254 873 1181 805 Q1110 738 1096 631 Z M596 159 Q687 159 749 208 Q812 259 840 335.5 Q868 412 868 511 Q869 588 853 653.5 Q837 719 803 767 Q769 815 715.5 842.5 Q662 870 589 871 Q449 871 371 769 Q294 668 292 508 Q292 355 369 257 Q446 159 596 159 Z M1094 449 Q1094 312 1180 235 Q1266 159 1416 159 Q1472 159 1521 170 Q1570 181 1609.5 196 Q1649 211 1677.5 227.5 Q1706 244 1720 255 L1735 266 L1799 103 L1782 89 Q1771 81 1731 59 Q1690 37 1648 21 Q1626 13 1598 6 Q1570 -1 1535 -8 Q1462 -22 1391 -22 Q1267 -22 1150 34 Q1034 89 982 181 Q932 89 824 34 Q715 -22 592 -22 Q345 -22 202 127 Q59 276 59 511 Q59 663 119 785 Q179 906 300 979 Q421 1052 588 1052 Q855 1052 982 853 Q1043 953 1133.5 1004 Q1224 1055 1360 1055 Q1576 1055 1698 906 Q1820 757 1820 509 L1820 449 L1094 449 Z " />
<glyph glyph-name="Racute" unicode="&#x154;" horiz-adv-x="1372" d="M531 1600 L785 1940 L1073 1940 L731 1600 L531 1600 Z M381 825 L628 825 Q687 825 738.5 835 Q790 845 828.5 870.5 Q867 896 889.5 939 Q912 982 912 1048 Q912 1173 851 1216 Q790 1260 651 1260 L381 1260 L381 825 Z M154 0 L154 1456 L649 1456 Q740 1456 811 1446.5 Q882 1437 949 1411 Q1047 1374 1100 1291 Q1153 1208 1156 1062 Q1156 998 1138.5 942 Q1121 886 1085.5 841 Q1050 796 996.5 764 Q943 732 871 715 Q938 685 987 622 Q1036 559 1078 459 L1263 0 L1014 0 L849 433 Q806 549 756 590 Q709 630 601 630 L384 630 L384 0 L154 0 Z " />
<glyph glyph-name="racute" unicode="&#x155;" horiz-adv-x="798" d="M128 0 L128 770 Q128 791 127 817.5 Q126 844 124 876 Q122 908 120 934.5 Q118 961 116 983 L112 1026 L350 1026 L350 881 Q461 1052 612 1052 Q662 1052 716 1037 L716 840 Q656 860 596 860 Q488 860 420 786 Q353 713 353 577 L353 0 L128 0 Z M356 1170 L610 1510 L898 1510 L556 1170 L356 1170 Z " />
<glyph glyph-name="Rcommaaccent" unicode="&#x156;" horiz-adv-x="1372" d="M497 -631 L608 -138 L861 -138 L685 -631 L497 -631 Z M381 825 L628 825 Q687 825 738.5 835 Q790 845 828.5 870.5 Q867 896 889.5 939 Q912 982 912 1048 Q912 1173 851 1216 Q790 1260 651 1260 L381 1260 L381 825 Z M154 0 L154 1456 L649 1456 Q740 1456 811 1446.5 Q882 1437 949 1411 Q1047 1374 1100 1291 Q1153 1208 1156 1062 Q1156 998 1138.5 942 Q1121 886 1085.5 841 Q1050 796 996.5 764 Q943 732 871 715 Q938 685 987 622 Q1036 559 1078 459 L1263 0 L1014 0 L849 433 Q806 549 756 590 Q709 630 601 630 L384 630 L384 0 L154 0 Z " />
<glyph glyph-name="rcommaaccent" unicode="&#x157;" horiz-adv-x="798" d="M79 -631 L190 -138 L443 -138 L267 -631 L79 -631 Z M128 0 L128 770 Q128 791 127 817.5 Q126 844 124 876 Q122 908 120 934.5 Q118 961 116 983 L112 1026 L350 1026 L350 881 Q461 1052 612 1052 Q662 1052 716 1037 L716 840 Q656 860 596 860 Q488 860 420 786 Q353 713 353 577 L353 0 L128 0 Z " />
<glyph glyph-name="Rcaron" unicode="&#x158;" horiz-adv-x="1372" d="M525 1589 L258 1958 L472 1958 L613 1763 L754 1958 L976 1958 L711 1589 L525 1589 Z M381 825 L628 825 Q687 825 738.5 835 Q790 845 828.5 870.5 Q867 896 889.5 939 Q912 982 912 1048 Q912 1173 851 1216 Q790 1260 651 1260 L381 1260 L381 825 Z M154 0 L154 1456 L649 1456 Q740 1456 811 1446.5 Q882 1437 949 1411 Q1047 1374 1100 1291 Q1153 1208 1156 1062 Q1156 998 1138.5 942 Q1121 886 1085.5 841 Q1050 796 996.5 764 Q943 732 871 715 Q938 685 987 622 Q1036 559 1078 459 L1263 0 L1014 0 L849 433 Q806 549 756 590 Q709 630 601 630 L384 630 L384 0 L154 0 Z " />
<glyph glyph-name="rcaron" unicode="&#x159;" horiz-adv-x="798" d="M128 0 L128 770 Q128 791 127 817.5 Q126 844 124 876 Q122 908 120 934.5 Q118 961 116 983 L112 1026 L350 1026 L350 881 Q461 1052 612 1052 Q662 1052 716 1037 L716 840 Q656 860 596 860 Q488 860 420 786 Q353 713 353 577 L353 0 L128 0 Z M349 1159 L82 1528 L296 1528 L437 1333 L578 1528 L800 1528 L535 1159 L349 1159 Z " />
<glyph glyph-name="Sacute" unicode="&#x15a;" horiz-adv-x="1244" d="M486 1600 L740 1940 L1028 1940 L686 1600 L486 1600 Z M577 -23 Q420 -23 285 26 Q148 75 81 143 L181 309 Q245 257 356 215 Q470 174 565 174 Q843 174 843 390 Q843 413 841.5 431 Q840 449 835.5 465 Q831 481 822.5 495 Q814 509 801 524 Q776 554 728.5 578 Q681 602 600 629 Q589 633 572 638.5 Q555 644 532 651 L470 672 Q403 694 349.5 717.5 Q296 741 256 766 Q175 817 131.5 896.5 Q88 976 88 1091 Q88 1219 155 1308 Q222 1399 331.5 1441 Q441 1483 583 1483 Q709 1483 807 1460 Q904 1437 958 1405 Q1013 1373 1066 1321 L948 1167 Q918 1197 880 1219 Q842 1241 799 1256 Q756 1271 709.5 1278.5 Q663 1286 615 1286 Q491 1286 411 1239 Q333 1192 333 1100 Q334 1053 342 1022 Q350 991 374 966.5 Q398 942 442.5 920 Q487 898 563 871 Q627 851 660.5 840 Q694 829 698 827 Q919 752 1003 656 Q1087 561 1087 387 Q1087 281 1045.5 200.5 Q1004 120 932 72 Q787 -23 577 -23 Z " />
<glyph glyph-name="sacute" unicode="&#x15b;" horiz-adv-x="988" d="M490 -23 Q356 -23 248 16 Q138 56 78 104 L136 268 Q197 222 290 189 Q383 156 472 156 Q650 156 650 287 Q650 337 613 364 Q575 393 456 433 L360 466 Q326 478 299 488.5 Q272 499 249 510 Q226 521 206 534 Q186 547 165 564 Q123 597 104 645 Q85 693 85 759 Q85 837 116.5 892.5 Q148 948 200.5 983 Q253 1018 320 1034 Q387 1050 459 1050 Q564 1050 657.5 1024 Q751 998 817 955 L757 799 Q705 827 626 850 Q548 873 481 873 Q304 873 304 767 Q304 719 335 695 Q367 671 474 633 Q476 632 488 628 Q500 624 523 616 L575 598 Q604 588 627.5 578.5 Q651 569 670 561 Q706 545 746 519 Q774 500 795 478 Q816 456 829.5 428.5 Q843 401 850 366.5 Q857 332 859 288 Q859 203 826.5 141 Q794 79 739 44 Q630 -23 490 -23 Z M362 1170 L616 1510 L904 1510 L562 1170 L362 1170 Z " />
<glyph glyph-name="Scircumflex" unicode="&#x15c;" horiz-adv-x="1244" d="M221 1589 L470 1957 L686 1957 L939 1589 L735 1589 L577 1785 L418 1589 L221 1589 Z M577 -23 Q420 -23 285 26 Q148 75 81 143 L181 309 Q245 257 356 215 Q470 174 565 174 Q843 174 843 390 Q843 413 841.5 431 Q840 449 835.5 465 Q831 481 822.5 495 Q814 509 801 524 Q776 554 728.5 578 Q681 602 600 629 Q589 633 572 638.5 Q555 644 532 651 L470 672 Q403 694 349.5 717.5 Q296 741 256 766 Q175 817 131.5 896.5 Q88 976 88 1091 Q88 1219 155 1308 Q222 1399 331.5 1441 Q441 1483 583 1483 Q709 1483 807 1460 Q904 1437 958 1405 Q1013 1373 1066 1321 L948 1167 Q918 1197 880 1219 Q842 1241 799 1256 Q756 1271 709.5 1278.5 Q663 1286 615 1286 Q491 1286 411 1239 Q333 1192 333 1100 Q334 1053 342 1022 Q350 991 374 966.5 Q398 942 442.5 920 Q487 898 563 871 Q627 851 660.5 840 Q694 829 698 827 Q919 752 1003 656 Q1087 561 1087 387 Q1087 281 1045.5 200.5 Q1004 120 932 72 Q787 -23 577 -23 Z " />
<glyph glyph-name="scircumflex" unicode="&#x15d;" horiz-adv-x="988" d="M490 -23 Q356 -23 248 16 Q138 56 78 104 L136 268 Q197 222 290 189 Q383 156 472 156 Q650 156 650 287 Q650 337 613 364 Q575 393 456 433 L360 466 Q326 478 299 488.5 Q272 499 249 510 Q226 521 206 534 Q186 547 165 564 Q123 597 104 645 Q85 693 85 759 Q85 837 116.5 892.5 Q148 948 200.5 983 Q253 1018 320 1034 Q387 1050 459 1050 Q564 1050 657.5 1024 Q751 998 817 955 L757 799 Q705 827 626 850 Q548 873 481 873 Q304 873 304 767 Q304 719 335 695 Q367 671 474 633 Q476 632 488 628 Q500 624 523 616 L575 598 Q604 588 627.5 578.5 Q651 569 670 561 Q706 545 746 519 Q774 500 795 478 Q816 456 829.5 428.5 Q843 401 850 366.5 Q857 332 859 288 Q859 203 826.5 141 Q794 79 739 44 Q630 -23 490 -23 Z M98 1159 L347 1527 L563 1527 L816 1159 L612 1159 L454 1355 L295 1159 L98 1159 Z " />
<glyph glyph-name="Scedilla" unicode="&#x15e;" horiz-adv-x="1244" d="M619 -476 Q508 -476 414 -432 L427 -302 Q499 -333 585 -333 Q636 -333 667 -314.5 Q698 -296 698 -257 Q698 -177 543 -166 L516 -164 L547 23 L661 23 L642 -97 Q763 -108 823.5 -155 Q884 -202 884 -274 Q884 -371 809 -423 Q735 -476 619 -476 Z M577 -23 Q420 -23 285 26 Q148 75 81 143 L181 309 Q245 257 356 215 Q470 174 565 174 Q843 174 843 390 Q843 413 841.5 431 Q840 449 835.5 465 Q831 481 822.5 495 Q814 509 801 524 Q776 554 728.5 578 Q681 602 600 629 Q589 633 572 638.5 Q555 644 532 651 L470 672 Q403 694 349.5 717.5 Q296 741 256 766 Q175 817 131.5 896.5 Q88 976 88 1091 Q88 1219 155 1308 Q222 1399 331.5 1441 Q441 1483 583 1483 Q709 1483 807 1460 Q904 1437 958 1405 Q1013 1373 1066 1321 L948 1167 Q918 1197 880 1219 Q842 1241 799 1256 Q756 1271 709.5 1278.5 Q663 1286 615 1286 Q491 1286 411 1239 Q333 1192 333 1100 Q334 1053 342 1022 Q350 991 374 966.5 Q398 942 442.5 920 Q487 898 563 871 Q627 851 660.5 840 Q694 829 698 827 Q919 752 1003 656 Q1087 561 1087 387 Q1087 281 1045.5 200.5 Q1004 120 932 72 Q787 -23 577 -23 Z " />
<glyph glyph-name="scedilla" unicode="&#x15f;" horiz-adv-x="988" d="M490 -23 Q356 -23 248 16 Q138 56 78 104 L136 268 Q197 222 290 189 Q383 156 472 156 Q650 156 650 287 Q650 337 613 364 Q575 393 456 433 L360 466 Q326 478 299 488.5 Q272 499 249 510 Q226 521 206 534 Q186 547 165 564 Q123 597 104 645 Q85 693 85 759 Q85 837 116.5 892.5 Q148 948 200.5 983 Q253 1018 320 1034 Q387 1050 459 1050 Q564 1050 657.5 1024 Q751 998 817 955 L757 799 Q705 827 626 850 Q548 873 481 873 Q304 873 304 767 Q304 719 335 695 Q367 671 474 633 Q476 632 488 628 Q500 624 523 616 L575 598 Q604 588 627.5 578.5 Q651 569 670 561 Q706 545 746 519 Q774 500 795 478 Q816 456 829.5 428.5 Q843 401 850 366.5 Q857 332 859 288 Q859 203 826.5 141 Q794 79 739 44 Q630 -23 490 -23 Z M505 -476 Q394 -476 300 -432 L313 -302 Q385 -333 471 -333 Q522 -333 553 -314.5 Q584 -296 584 -257 Q584 -177 429 -166 L402 -164 L433 23 L547 23 L528 -97 Q649 -108 709.5 -155 Q770 -202 770 -274 Q770 -371 695 -423 Q621 -476 505 -476 Z " />
<glyph glyph-name="Scaron" unicode="&#x160;" horiz-adv-x="1244" d="M479 1589 L212 1958 L426 1958 L567 1763 L708 1958 L930 1958 L665 1589 L479 1589 Z M577 -23 Q420 -23 285 26 Q148 75 81 143 L181 309 Q245 257 356 215 Q470 174 565 174 Q843 174 843 390 Q843 413 841.5 431 Q840 449 835.5 465 Q831 481 822.5 495 Q814 509 801 524 Q776 554 728.5 578 Q681 602 600 629 Q589 633 572 638.5 Q555 644 532 651 L470 672 Q403 694 349.5 717.5 Q296 741 256 766 Q175 817 131.5 896.5 Q88 976 88 1091 Q88 1219 155 1308 Q222 1399 331.5 1441 Q441 1483 583 1483 Q709 1483 807 1460 Q904 1437 958 1405 Q1013 1373 1066 1321 L948 1167 Q918 1197 880 1219 Q842 1241 799 1256 Q756 1271 709.5 1278.5 Q663 1286 615 1286 Q491 1286 411 1239 Q333 1192 333 1100 Q334 1053 342 1022 Q350 991 374 966.5 Q398 942 442.5 920 Q487 898 563 871 Q627 851 660.5 840 Q694 829 698 827 Q919 752 1003 656 Q1087 561 1087 387 Q1087 281 1045.5 200.5 Q1004 120 932 72 Q787 -23 577 -23 Z " />
<glyph glyph-name="scaron" unicode="&#x161;" horiz-adv-x="988" d="M490 -23 Q356 -23 248 16 Q138 56 78 104 L136 268 Q197 222 290 189 Q383 156 472 156 Q650 156 650 287 Q650 337 613 364 Q575 393 456 433 L360 466 Q326 478 299 488.5 Q272 499 249 510 Q226 521 206 534 Q186 547 165 564 Q123 597 104 645 Q85 693 85 759 Q85 837 116.5 892.5 Q148 948 200.5 983 Q253 1018 320 1034 Q387 1050 459 1050 Q564 1050 657.5 1024 Q751 998 817 955 L757 799 Q705 827 626 850 Q548 873 481 873 Q304 873 304 767 Q304 719 335 695 Q367 671 474 633 Q476 632 488 628 Q500 624 523 616 L575 598 Q604 588 627.5 578.5 Q651 569 670 561 Q706 545 746 519 Q774 500 795 478 Q816 456 829.5 428.5 Q843 401 850 366.5 Q857 332 859 288 Q859 203 826.5 141 Q794 79 739 44 Q630 -23 490 -23 Z M356 1159 L89 1528 L303 1528 L444 1333 L585 1528 L807 1528 L542 1159 L356 1159 Z " />
<glyph glyph-name="Tcommaaccent" unicode="&#x162;" horiz-adv-x="1167" d="M568 -476 Q457 -476 363 -432 L376 -302 Q448 -333 534 -333 Q585 -333 616 -314.5 Q647 -296 647 -257 Q647 -177 492 -166 L465 -164 L496 23 L610 23 L591 -97 Q712 -108 772.5 -155 Q833 -202 833 -274 Q833 -371 758 -423 Q684 -476 568 -476 Z M426 0 L426 1260 L-29 1260 L-29 1456 L1116 1456 L1116 1260 L656 1260 L656 0 L426 0 Z " />
<glyph glyph-name="tcommaaccent" unicode="&#x163;" horiz-adv-x="820" d="M694 1 L598 1 Q490 1 417 15 Q347 28 291 68 Q236 107 211.5 180 Q187 253 187 368 L187 876 L-17 876 L-17 1026 L193 1026 L193 1276 L410 1341 L410 1026 L690 1026 L690 876 L410 876 L410 355 Q410 292 421 257.5 Q432 223 467 203 Q484 193 505 186.5 Q526 180 551 178 Q576 176 611 174.5 Q646 173 694 173 L694 1 Z M485 -476 Q374 -476 280 -432 L293 -302 Q365 -333 451 -333 Q502 -333 533 -314.5 Q564 -296 564 -257 Q564 -177 409 -166 L382 -164 L413 23 L527 23 L508 -97 Q629 -108 689.5 -155 Q750 -202 750 -274 Q750 -371 675 -423 Q601 -476 485 -476 Z " />
<glyph glyph-name="Tcaron" unicode="&#x164;" horiz-adv-x="1167" d="M447 1589 L180 1958 L394 1958 L535 1763 L676 1958 L898 1958 L633 1589 L447 1589 Z M426 0 L426 1260 L-29 1260 L-29 1456 L1116 1456 L1116 1260 L656 1260 L656 0 L426 0 Z " />
<glyph glyph-name="tcaron" unicode="&#x165;" horiz-adv-x="820" d="M694 1 L598 1 Q490 1 417 15 Q347 28 291 68 Q236 107 211.5 180 Q187 253 187 368 L187 876 L-17 876 L-17 1026 L193 1026 L193 1276 L410 1341 L410 1026 L690 1026 L690 876 L410 876 L410 355 Q410 292 421 257.5 Q432 223 467 203 Q484 193 505 186.5 Q526 180 551 178 Q576 176 611 174.5 Q646 173 694 173 L694 1 Z M543 1253 L654 1746 L906 1746 L731 1253 L543 1253 Z " />
<glyph glyph-name="Tbar" unicode="&#x166;" horiz-adv-x="1167" d="M272 668 L272 813 L882 813 L882 668 L272 668 Z M426 0 L426 1260 L-29 1260 L-29 1456 L1116 1456 L1116 1260 L656 1260 L656 0 L426 0 Z " />
<glyph glyph-name="tbar" unicode="&#x167;" horiz-adv-x="820" d="M694 1 L598 1 Q490 1 417 15 Q347 28 291 68 Q236 107 211.5 180 Q187 253 187 368 L187 876 L-17 876 L-17 1026 L193 1026 L193 1276 L410 1341 L410 1026 L690 1026 L690 876 L410 876 L410 355 Q410 292 421 257.5 Q432 223 467 203 Q484 193 505 186.5 Q526 180 551 178 Q576 176 611 174.5 Q646 173 694 173 L694 1 Z M44 530 L44 675 L654 675 L654 530 L44 530 Z " />
<glyph glyph-name="Utilde" unicode="&#x168;" horiz-adv-x="1503" d="M820 1596 Q769 1596 666 1648 Q562 1701 533 1701 Q506 1701 487 1676.5 Q468 1652 463 1601 L319 1601 Q319 1721 375 1797 Q430 1872 523 1872 Q572 1872 632 1846 Q661 1833 688 1820 Q715 1807 740 1794 Q812 1756 844.5 1772.5 Q877 1789 879 1872 L1027 1872 Q1027 1737 972 1666.5 Q917 1596 820 1596 Z M711 -23 Q575 -23 472.5 9 Q370 41 304 95 Q272 122 245 155 Q218 188 198 228 Q158 307 142 392.5 Q126 478 126 583 L126 1456 L356 1456 L356 576 Q356 469 379.5 393 Q403 317 448 268.5 Q493 220 559.5 197 Q626 174 712 174 Q883 174 974 268 Q1067 362 1067 575 L1067 1456 L1297 1456 L1297 584 Q1297 478 1280.5 391.5 Q1264 305 1222 226 Q1192 168 1147 122.5 Q1102 77 1039.5 45 Q977 13 895.5 -4.5 Q814 -22 711 -23 Z " />
<glyph glyph-name="utilde" unicode="&#x169;" horiz-adv-x="1206" d="M498 -23 Q305 -23 203 87 Q102 199 102 382 L102 1026 L324 1026 L324 384 Q324 270 380 214.5 Q436 159 541 159 Q662 159 723.5 222.5 Q785 286 785 413 L785 1026 L1009 1026 L1009 268 Q1009 204 1011.5 137 Q1014 70 1019 0 L789 0 L785 156 Q773 128 752 100 Q731 72 697 42 Q663 13 611 -5 Q559 -23 498 -23 Z M673 1166 Q622 1166 519 1218 Q415 1271 386 1271 Q359 1271 340 1246.5 Q321 1222 316 1171 L172 1171 Q172 1291 228 1367 Q283 1442 376 1442 Q425 1442 485 1416 Q514 1403 541 1390 Q568 1377 593 1364 Q665 1326 697.5 1342.5 Q730 1359 732 1442 L880 1442 Q880 1307 825 1236.5 Q770 1166 673 1166 Z " />
<glyph glyph-name="Umacron" unicode="&#x16a;" horiz-adv-x="1503" d="M442 1632 L442 1777 L1052 1777 L1052 1632 L442 1632 Z M711 -23 Q575 -23 472.5 9 Q370 41 304 95 Q272 122 245 155 Q218 188 198 228 Q158 307 142 392.5 Q126 478 126 583 L126 1456 L356 1456 L356 576 Q356 469 379.5 393 Q403 317 448 268.5 Q493 220 559.5 197 Q626 174 712 174 Q883 174 974 268 Q1067 362 1067 575 L1067 1456 L1297 1456 L1297 584 Q1297 478 1280.5 391.5 Q1264 305 1222 226 Q1192 168 1147 122.5 Q1102 77 1039.5 45 Q977 13 895.5 -4.5 Q814 -22 711 -23 Z " />
<glyph glyph-name="umacron" unicode="&#x16b;" horiz-adv-x="1206" d="M498 -23 Q305 -23 203 87 Q102 199 102 382 L102 1026 L324 1026 L324 384 Q324 270 380 214.5 Q436 159 541 159 Q662 159 723.5 222.5 Q785 286 785 413 L785 1026 L1009 1026 L1009 268 Q1009 204 1011.5 137 Q1014 70 1019 0 L789 0 L785 156 Q773 128 752 100 Q731 72 697 42 Q663 13 611 -5 Q559 -23 498 -23 Z M295 1202 L295 1347 L905 1347 L905 1202 L295 1202 Z " />
<glyph glyph-name="Ubreve" unicode="&#x16c;" horiz-adv-x="1503" d="M705 1604 Q418 1604 399 1886 L557 1886 Q563 1815 601.5 1788.5 Q640 1762 705 1762 Q768 1762 806 1788.5 Q844 1815 851 1886 L1006 1886 Q988 1604 705 1604 Z M711 -23 Q575 -23 472.5 9 Q370 41 304 95 Q272 122 245 155 Q218 188 198 228 Q158 307 142 392.5 Q126 478 126 583 L126 1456 L356 1456 L356 576 Q356 469 379.5 393 Q403 317 448 268.5 Q493 220 559.5 197 Q626 174 712 174 Q883 174 974 268 Q1067 362 1067 575 L1067 1456 L1297 1456 L1297 584 Q1297 478 1280.5 391.5 Q1264 305 1222 226 Q1192 168 1147 122.5 Q1102 77 1039.5 45 Q977 13 895.5 -4.5 Q814 -22 711 -23 Z " />
<glyph glyph-name="ubreve" unicode="&#x16d;" horiz-adv-x="1206" d="M498 -23 Q305 -23 203 87 Q102 199 102 382 L102 1026 L324 1026 L324 384 Q324 270 380 214.5 Q436 159 541 159 Q662 159 723.5 222.5 Q785 286 785 413 L785 1026 L1009 1026 L1009 268 Q1009 204 1011.5 137 Q1014 70 1019 0 L789 0 L785 156 Q773 128 752 100 Q731 72 697 42 Q663 13 611 -5 Q559 -23 498 -23 Z M558 1174 Q271 1174 252 1456 L410 1456 Q416 1385 454.5 1358.5 Q493 1332 558 1332 Q621 1332 659 1358.5 Q697 1385 704 1456 L859 1456 Q841 1174 558 1174 Z " />
<glyph glyph-name="Uring" unicode="&#x16e;" horiz-adv-x="1503" d="M704 1565 Q616 1565 552 1624 Q490 1684 490 1772 Q490 1861 552 1920 Q614 1979 704 1979 Q793 1979 855 1920 Q917 1861 917 1772 Q917 1684 855 1624 Q793 1565 704 1565 Z M703 1663 Q746 1663 778 1695 Q810 1727 810 1772 Q810 1816 778 1848 Q746 1880 703 1880 Q681 1880 661.5 1871.5 Q642 1863 628 1848.5 Q614 1834 605.5 1814 Q597 1794 597 1772 Q597 1726 628 1695 Q660 1663 703 1663 Z M711 -23 Q575 -23 472.5 9 Q370 41 304 95 Q272 122 245 155 Q218 188 198 228 Q158 307 142 392.5 Q126 478 126 583 L126 1456 L356 1456 L356 576 Q356 469 379.5 393 Q403 317 448 268.5 Q493 220 559.5 197 Q626 174 712 174 Q883 174 974 268 Q1067 362 1067 575 L1067 1456 L1297 1456 L1297 584 Q1297 478 1280.5 391.5 Q1264 305 1222 226 Q1192 168 1147 122.5 Q1102 77 1039.5 45 Q977 13 895.5 -4.5 Q814 -22 711 -23 Z " />
<glyph glyph-name="uring" unicode="&#x16f;" horiz-adv-x="1206" d="M498 -23 Q305 -23 203 87 Q102 199 102 382 L102 1026 L324 1026 L324 384 Q324 270 380 214.5 Q436 159 541 159 Q662 159 723.5 222.5 Q785 286 785 413 L785 1026 L1009 1026 L1009 268 Q1009 204 1011.5 137 Q1014 70 1019 0 L789 0 L785 156 Q773 128 752 100 Q731 72 697 42 Q663 13 611 -5 Q559 -23 498 -23 Z M557 1135 Q469 1135 405 1194 Q343 1254 343 1342 Q343 1431 405 1490 Q467 1549 557 1549 Q646 1549 708 1490 Q770 1431 770 1342 Q770 1254 708 1194 Q646 1135 557 1135 Z M556 1233 Q599 1233 631 1265 Q663 1297 663 1342 Q663 1386 631 1418 Q599 1450 556 1450 Q534 1450 514.5 1441.5 Q495 1433 481 1418.5 Q467 1404 458.5 1384 Q450 1364 450 1342 Q450 1296 481 1265 Q513 1233 556 1233 Z " />
<glyph glyph-name="Uhungarumlaut" unicode="&#x170;" horiz-adv-x="1503" d="M820 1568 L1063 1940 L1327 1940 L987 1568 L820 1568 Z M494 1568 L701 1940 L951 1940 L655 1568 L494 1568 Z M711 -23 Q575 -23 472.5 9 Q370 41 304 95 Q272 122 245 155 Q218 188 198 228 Q158 307 142 392.5 Q126 478 126 583 L126 1456 L356 1456 L356 576 Q356 469 379.5 393 Q403 317 448 268.5 Q493 220 559.5 197 Q626 174 712 174 Q883 174 974 268 Q1067 362 1067 575 L1067 1456 L1297 1456 L1297 584 Q1297 478 1280.5 391.5 Q1264 305 1222 226 Q1192 168 1147 122.5 Q1102 77 1039.5 45 Q977 13 895.5 -4.5 Q814 -22 711 -23 Z " />
<glyph glyph-name="uhungarumlaut" unicode="&#x171;" horiz-adv-x="1206" d="M498 -23 Q305 -23 203 87 Q102 199 102 382 L102 1026 L324 1026 L324 384 Q324 270 380 214.5 Q436 159 541 159 Q662 159 723.5 222.5 Q785 286 785 413 L785 1026 L1009 1026 L1009 268 Q1009 204 1011.5 137 Q1014 70 1019 0 L789 0 L785 156 Q773 128 752 100 Q731 72 697 42 Q663 13 611 -5 Q559 -23 498 -23 Z M673 1138 L916 1510 L1180 1510 L840 1138 L673 1138 Z M347 1138 L554 1510 L804 1510 L508 1138 L347 1138 Z " />
<glyph glyph-name="Uogonek" unicode="&#x172;" horiz-adv-x="1503" d="M752 -392 Q702 -392 661 -382.5 Q620 -373 590.5 -354.5 Q561 -336 544.5 -308 Q528 -280 528 -243 Q528 -195 550.5 -152.5 Q573 -110 615 -76 Q656 -43 689 -22.5 Q722 -2 764 19 L885 17 Q817 -24 771 -85 Q726 -147 726 -193 Q726 -256 815 -256 Q862 -256 974 -225 L974 -355 Q854 -392 752 -392 Z M711 -23 Q575 -23 472.5 9 Q370 41 304 95 Q272 122 245 155 Q218 188 198 228 Q158 307 142 392.5 Q126 478 126 583 L126 1456 L356 1456 L356 576 Q356 469 379.5 393 Q403 317 448 268.5 Q493 220 559.5 197 Q626 174 712 174 Q883 174 974 268 Q1067 362 1067 575 L1067 1456 L1297 1456 L1297 584 Q1297 478 1280.5 391.5 Q1264 305 1222 226 Q1192 168 1147 122.5 Q1102 77 1039.5 45 Q977 13 895.5 -4.5 Q814 -22 711 -23 Z " />
<glyph glyph-name="uogonek" unicode="&#x173;" horiz-adv-x="1206" d="M498 -23 Q305 -23 203 87 Q102 199 102 382 L102 1026 L324 1026 L324 384 Q324 270 380 214.5 Q436 159 541 159 Q662 159 723.5 222.5 Q785 286 785 413 L785 1026 L1009 1026 L1009 268 Q1009 204 1011.5 137 Q1014 70 1019 0 L789 0 L785 156 Q773 128 752 100 Q731 72 697 42 Q663 13 611 -5 Q559 -23 498 -23 Z M862 -392 Q812 -392 771 -382.5 Q730 -373 700.5 -354.5 Q671 -336 654.5 -308 Q638 -280 638 -243 Q638 -195 660.5 -152.5 Q683 -110 725 -76 Q766 -43 799 -22.5 Q832 -2 874 19 L995 17 Q927 -24 881 -85 Q836 -147 836 -193 Q836 -256 925 -256 Q972 -256 1084 -225 L1084 -355 Q964 -392 862 -392 Z " />
<glyph glyph-name="Wcircumflex" unicode="&#x174;" horiz-adv-x="2052" d="M633 1589 L882 1957 L1098 1957 L1351 1589 L1147 1589 L989 1785 L830 1589 L633 1589 Z M384 0 L-24 1456 L222 1456 L318 1085 Q350 964 378.5 854.5 Q407 745 432 646 Q458 547 481 454.5 Q504 362 525 272 Q550 363 576.5 456 Q603 549 632 647 Q661 746 695 855 Q729 964 767 1087 Q843 1331 881 1456 L1105 1456 L1383 562 L1467 269 Q1487 359 1509 452 Q1531 545 1556 645 L1665 1083 L1758 1456 L1996 1456 L1598 0 L1331 0 L987 1141 L647 0 L384 0 Z " />
<glyph glyph-name="wcircumflex" unicode="&#x175;" horiz-adv-x="1669" d="M342 0 L-18 1026 L220 1026 Q299 772 358.5 584.5 Q418 397 458 271 L591 668 L712 1026 L914 1026 L1036 647 L1157 269 Q1197 397 1256 584.5 Q1315 772 1396 1026 L1607 1026 L1236 0 L1043 0 Q937 316 876 500.5 Q815 685 798 738 L666 369 L536 0 L342 0 Z M457 1159 L706 1527 L922 1527 L1175 1159 L971 1159 L813 1355 L654 1159 L457 1159 Z " />
<glyph glyph-name="Ycircumflex" unicode="&#x176;" horiz-adv-x="1257" d="M253 1589 L502 1957 L718 1957 L971 1589 L767 1589 L609 1785 L450 1589 L253 1589 Z M469 0 L469 567 L-42 1456 L217 1456 L588 771 L960 1456 L1224 1456 L699 570 L699 0 L469 0 Z " />
<glyph glyph-name="ycircumflex" unicode="&#x177;" horiz-adv-x="1098" d="M196 -441 L102 -289 Q171 -264 222.5 -235.5 Q274 -207 311 -175.5 Q348 -144 372 -108 Q396 -72 408 -31 L422 19 L-6 1026 L226 1026 L531 258 L803 1026 L1030 1026 L614 -56 Q585 -131 542.5 -193 Q500 -255 446.5 -303 Q393 -351 329.5 -385.5 Q266 -420 196 -441 Z M175 1159 L424 1527 L640 1527 L893 1159 L689 1159 L531 1355 L372 1159 L175 1159 Z " />
<glyph glyph-name="Ydieresis" unicode="&#x178;" horiz-adv-x="1257" d="M714 1595 L714 1810 L939 1810 L939 1595 L714 1595 Z M278 1595 L278 1810 L503 1810 L503 1595 L278 1595 Z M469 0 L469 567 L-42 1456 L217 1456 L588 771 L960 1456 L1224 1456 L699 570 L699 0 L469 0 Z " />
<glyph glyph-name="Zacute" unicode="&#x179;" horiz-adv-x="1192" d="M484 1600 L738 1940 L1026 1940 L684 1600 L484 1600 Z M41 0 L41 124 L748 1260 L69 1260 L69 1456 L1063 1456 L1063 1336 L350 196 L1060 196 L1060 0 L41 0 Z " />
<glyph glyph-name="zacute" unicode="&#x17a;" horiz-adv-x="986" d="M63 0 L63 119 L561 846 L82 846 L82 1026 L851 1026 L851 909 L351 179 L875 179 L875 0 L63 0 Z M399 1170 L653 1510 L941 1510 L599 1170 L399 1170 Z " />
<glyph glyph-name="Zdotaccent" unicode="&#x17b;" horiz-adv-x="1192" d="M468 1650 L468 1860 L690 1860 L690 1650 L468 1650 Z M41 0 L41 124 L748 1260 L69 1260 L69 1456 L1063 1456 L1063 1336 L350 196 L1060 196 L1060 0 L41 0 Z " />
<glyph glyph-name="zdotaccent" unicode="&#x17c;" horiz-adv-x="986" d="M63 0 L63 119 L561 846 L82 846 L82 1026 L851 1026 L851 909 L351 179 L875 179 L875 0 L63 0 Z M383 1220 L383 1430 L605 1430 L605 1220 L383 1220 Z " />
<glyph glyph-name="Zcaron" unicode="&#x17d;" horiz-adv-x="1192" d="M477 1589 L210 1958 L424 1958 L565 1763 L706 1958 L928 1958 L663 1589 L477 1589 Z M41 0 L41 124 L748 1260 L69 1260 L69 1456 L1063 1456 L1063 1336 L350 196 L1060 196 L1060 0 L41 0 Z " />
<glyph glyph-name="zcaron" unicode="&#x17e;" horiz-adv-x="986" d="M63 0 L63 119 L561 846 L82 846 L82 1026 L851 1026 L851 909 L351 179 L875 179 L875 0 L63 0 Z M392 1159 L125 1528 L339 1528 L480 1333 L621 1528 L843 1528 L578 1159 L392 1159 Z " />
<glyph glyph-name="longs" unicode="&#x17f;" horiz-adv-x="988" d="M490 -23 Q356 -23 248 16 Q138 56 78 104 L136 268 Q197 222 290 189 Q383 156 472 156 Q650 156 650 287 Q650 337 613 364 Q575 393 456 433 L360 466 Q326 478 299 488.5 Q272 499 249 510 Q226 521 206 534 Q186 547 165 564 Q123 597 104 645 Q85 693 85 759 Q85 837 116.5 892.5 Q148 948 200.5 983 Q253 1018 320 1034 Q387 1050 459 1050 Q564 1050 657.5 1024 Q751 998 817 955 L757 799 Q705 827 626 850 Q548 873 481 873 Q304 873 304 767 Q304 719 335 695 Q367 671 474 633 Q476 632 488 628 Q500 624 523 616 L575 598 Q604 588 627.5 578.5 Q651 569 670 561 Q706 545 746 519 Q774 500 795 478 Q816 456 829.5 428.5 Q843 401 850 366.5 Q857 332 859 288 Q859 203 826.5 141 Q794 79 739 44 Q630 -23 490 -23 Z " />
<glyph glyph-name="florin" unicode="&#x192;" horiz-adv-x="1095" d="M163 -309 Q116 -309 55 -291 L72 -126 Q115 -136 155 -136 Q212 -136 254 -93 Q296 -51 317 67 L433 705 L288 705 L321 850 L459 850 L508 1115 Q513 1142 518 1164.5 Q523 1187 529.5 1209 Q536 1231 545.5 1253 Q555 1275 568 1299 Q594 1349 629 1381 Q665 1413 723.5 1435.5 Q782 1458 857 1458 Q882 1458 907 1455 Q932 1452 953 1447.5 Q974 1443 990.5 1438 Q1007 1433 1016 1428 L1035 1417 L1018 1257 Q944 1277 901 1277 Q773 1277 741 1119 L689 850 L871 850 L842 705 L658 705 L542 61 Q506 -137 417 -223 Q328 -309 163 -309 Z " />
<glyph glyph-name="uni01C4" unicode="&#x1c4;" horiz-adv-x="2747" d="M2032 1589 L1765 1958 L1979 1958 L2120 1763 L2261 1958 L2483 1958 L2218 1589 L2032 1589 Z M1596 0 L1596 124 L2303 1260 L1624 1260 L1624 1456 L2618 1456 L2618 1336 L1905 196 L2615 196 L2615 0 L1596 0 Z M154 0 L154 1456 L530 1456 Q963 1456 1186 1275.5 Q1409 1095 1409 733 Q1409 379 1198 189 Q988 0 591 0 L154 0 Z M384 196 L604 196 Q742 196 847 231.5 Q952 267 1023 335.5 Q1094 404 1130 504.5 Q1166 605 1166 734 Q1166 999 1016 1129.5 Q866 1260 553 1260 L384 1260 L384 196 Z " />
<glyph glyph-name="uni01C5" unicode="&#x1c5;" horiz-adv-x="2541" d="M1618 0 L1618 119 L2116 846 L1637 846 L1637 1026 L2406 1026 L2406 909 L1906 179 L2430 179 L2430 0 L1618 0 Z M1947 1159 L1680 1528 L1894 1528 L2035 1333 L2176 1528 L2398 1528 L2133 1159 L1947 1159 Z M154 0 L154 1456 L530 1456 Q963 1456 1186 1275.5 Q1409 1095 1409 733 Q1409 379 1198 189 Q988 0 591 0 L154 0 Z M384 196 L604 196 Q742 196 847 231.5 Q952 267 1023 335.5 Q1094 404 1130 504.5 Q1166 605 1166 734 Q1166 999 1016 1129.5 Q866 1260 553 1260 L384 1260 L384 196 Z " />
<glyph glyph-name="uni01C6" unicode="&#x1c6;" horiz-adv-x="2253" d="M1330 0 L1330 119 L1828 846 L1349 846 L1349 1026 L2118 1026 L2118 909 L1618 179 L2142 179 L2142 0 L1330 0 Z M1659 1159 L1392 1528 L1606 1528 L1747 1333 L1888 1528 L2110 1528 L1845 1159 L1659 1159 Z M575 159 Q712 159 783 258 Q853 358 853 518 Q853 672 782 772 Q711 871 577 871 Q442 871 370 772 Q298 673 298 514 Q298 356 368 258 Q438 159 575 159 Z M534 -23 Q330 -23 197 122 Q64 267 64 508 Q64 621 95.5 720 Q127 819 188 893 Q249 967 339.5 1009.5 Q430 1052 549 1052 Q658 1052 738 1005 Q818 958 847 902 L847 1469 L1071 1469 L1071 270 Q1071 247 1072.5 179.5 Q1074 112 1078 0 L850 0 L848 147 Q821 82 740 30 Q660 -23 534 -23 Z " />
<glyph glyph-name="uni01C7" unicode="&#x1c7;" horiz-adv-x="2048" d="M154 0 L154 1456 L384 1456 L384 196 L1058 196 L1058 0 L154 0 Z M1474 -331 Q1340 -331 1181 -273 L1219 -96 Q1348 -136 1436 -136 Q1489 -136 1525.5 -120.5 Q1562 -105 1584.5 -73.5 Q1607 -42 1617 4.5 Q1627 51 1627 114 L1627 1456 L1857 1456 L1857 120 Q1857 -101 1758 -216 Q1659 -331 1474 -331 Z " />
<glyph glyph-name="uni01C8" unicode="&#x1c8;" horiz-adv-x="1689" d="M1287 1246 L1287 1456 L1509 1456 L1509 1246 L1287 1246 Z M1161 -394 Q1102 -394 1004 -375 L1016 -208 Q1086 -224 1131 -224 Q1171 -224 1201 -210.5 Q1231 -197 1250.5 -166.5 Q1270 -136 1279.5 -87 Q1289 -38 1289 32 L1289 1026 L1506 1026 L1506 55 Q1506 -21 1498.5 -81 Q1491 -141 1469 -202 Q1446 -264 1410 -303 Q1373 -343 1309.5 -368.5 Q1246 -394 1161 -394 Z M154 0 L154 1456 L384 1456 L384 196 L1058 196 L1058 0 L154 0 Z " />
<glyph glyph-name="uni01C9" unicode="&#x1c9;" horiz-adv-x="1072" d="M118 0 L118 1469 L341 1469 L341 0 L118 0 Z M670 1246 L670 1456 L892 1456 L892 1246 L670 1246 Z M544 -394 Q485 -394 387 -375 L399 -208 Q469 -224 514 -224 Q554 -224 584 -210.5 Q614 -197 633.5 -166.5 Q653 -136 662.5 -87 Q672 -38 672 32 L672 1026 L889 1026 L889 55 Q889 -21 881.5 -81 Q874 -141 852 -202 Q829 -264 793 -303 Q756 -343 692.5 -368.5 Q629 -394 544 -394 Z " />
<glyph glyph-name="uni01CA" unicode="&#x1ca;" horiz-adv-x="2519" d="M154 0 L154 1456 L399 1456 L641 1102 Q796 877 924.5 688.5 Q1053 500 1164 332 L1164 1456 L1382 1456 L1382 0 L1136 0 Q1091 64 1030.5 152 Q970 240 892 352 Q736 577 607 765 Q478 953 367 1122 L367 0 L154 0 Z M1945 -331 Q1811 -331 1652 -273 L1690 -96 Q1819 -136 1907 -136 Q1960 -136 1996.5 -120.5 Q2033 -105 2055.5 -73.5 Q2078 -42 2088 4.5 Q2098 51 2098 114 L2098 1456 L2328 1456 L2328 120 Q2328 -101 2229 -216 Q2130 -331 1945 -331 Z " />
<glyph glyph-name="uni01CB" unicode="&#x1cb;" horiz-adv-x="2160" d="M1758 1246 L1758 1456 L1980 1456 L1980 1246 L1758 1246 Z M1632 -394 Q1573 -394 1475 -375 L1487 -208 Q1557 -224 1602 -224 Q1642 -224 1672 -210.5 Q1702 -197 1721.5 -166.5 Q1741 -136 1750.5 -87 Q1760 -38 1760 32 L1760 1026 L1977 1026 L1977 55 Q1977 -21 1969.5 -81 Q1962 -141 1940 -202 Q1917 -264 1881 -303 Q1844 -343 1780.5 -368.5 Q1717 -394 1632 -394 Z M154 0 L154 1456 L399 1456 L641 1102 Q796 877 924.5 688.5 Q1053 500 1164 332 L1164 1456 L1382 1456 L1382 0 L1136 0 Q1091 64 1030.5 152 Q970 240 892 352 Q736 577 607 765 Q478 953 367 1122 L367 0 L154 0 Z " />
<glyph glyph-name="uni01CC" unicode="&#x1cc;" horiz-adv-x="1778" d="M126 0 L126 677 Q126 724 125 768.5 Q124 813 122 857 Q120 901 118 933 Q116 965 114 985 L110 1026 L345 1026 L345 881 Q397 963 489 1007 Q580 1052 672 1052 Q862 1052 957 938 Q1052 824 1052 575 L1052 0 L828 0 L828 582 Q828 734 783 802 Q739 871 627 871 Q530 871 440 796 Q350 722 350 626 L350 0 L126 0 Z M1376 1246 L1376 1456 L1598 1456 L1598 1246 L1376 1246 Z M1250 -394 Q1191 -394 1093 -375 L1105 -208 Q1175 -224 1220 -224 Q1260 -224 1290 -210.5 Q1320 -197 1339.5 -166.5 Q1359 -136 1368.5 -87 Q1378 -38 1378 32 L1378 1026 L1595 1026 L1595 55 Q1595 -21 1587.5 -81 Q1580 -141 1558 -202 Q1535 -264 1499 -303 Q1462 -343 1398.5 -368.5 Q1335 -394 1250 -394 Z " />
<glyph glyph-name="uni01CD" unicode="&#x1cd;" horiz-adv-x="1434" d="M577 1589 L310 1958 L524 1958 L665 1763 L806 1958 L1028 1958 L763 1589 L577 1589 Z M446 576 L892 576 Q846 708 791 863 Q736 1018 671 1199 L446 576 Z M-22 0 L557 1456 L793 1456 L1377 0 L1120 0 L973 373 L373 373 L229 0 L-22 0 Z " />
<glyph glyph-name="uni01CE" unicode="&#x1ce;" horiz-adv-x="1283" d="M496 1159 L229 1528 L443 1528 L584 1333 L725 1528 L947 1528 L682 1159 L496 1159 Z M592 159 Q739 159 811 256 Q883 353 883 517 Q883 676 808 774 Q735 871 589 871 Q441 871 364 773 Q288 676 288 515 Q288 356 364 258 Q440 159 592 159 Z M561 -23 Q441 -23 344 21.5 Q247 66 187 141 Q127 216 95.5 309.5 Q64 403 64 506 Q64 615 97 712.5 Q130 810 193 886 Q256 962 351.5 1007 Q447 1052 565 1052 Q668 1052 747.5 1008.5 Q827 965 875 892 L875 1026 L1094 1026 L1094 0 L871 0 L871 154 Q825 73 744.5 25 Q664 -23 561 -23 Z " />
<glyph glyph-name="uni01CF" unicode="&#x1cf;" horiz-adv-x="596" d="M170 1589 L-97 1958 L117 1958 L258 1763 L399 1958 L621 1958 L356 1589 L170 1589 Z M150 0 L150 1456 L380 1456 L380 0 L150 0 Z " />
<glyph glyph-name="uni01D0" unicode="&#x1d0;" horiz-adv-x="521" d="M103 0 L103 1026 L328 1026 L328 0 L103 0 Z M115 1159 L-152 1528 L62 1528 L203 1333 L344 1528 L566 1528 L301 1159 L115 1159 Z " />
<glyph glyph-name="uni01D1" unicode="&#x1d1;" horiz-adv-x="1653" d="M691 1589 L424 1958 L638 1958 L779 1763 L920 1958 L1142 1958 L877 1589 L691 1589 Z M790 -23 Q452 -23 259 181 Q66 386 66 733 Q66 955 151 1124 Q236 1293 402 1388 Q569 1483 793 1483 Q956 1484 1088.5 1429.5 Q1221 1375 1315 1275 Q1409 1175 1459 1036.5 Q1509 898 1507 733 Q1507 387 1316 181 Q1125 -23 790 -23 Z M786 174 Q1019 174 1138 321 Q1257 469 1257 733 Q1257 988 1138 1137 Q1019 1286 790 1286 Q560 1286 437 1136 Q314 987 314 733 Q314 469 433 321 Q553 174 786 174 Z " />
<glyph glyph-name="uni01D2" unicode="&#x1d2;" horiz-adv-x="1274" d="M600 -23 Q470 -23 367 19 Q264 61 198 134 Q132 207 98 303 Q64 399 64 513 Q64 667 124 787 Q184 908 307 980 Q431 1052 601 1052 Q732 1052 833.5 1011.5 Q935 971 999 896 Q1063 823 1096.5 726 Q1130 629 1130 511 Q1130 399 1096 304 Q1062 209 996 134 Q932 61 830 19 Q728 -23 600 -23 Z M599 159 Q747 159 821 258 Q896 357 896 514 Q896 674 820 772 Q743 871 598 871 Q451 871 375 772 Q298 672 298 514 Q298 356 374 258 Q450 159 599 159 Z M501 1159 L234 1528 L448 1528 L589 1333 L730 1528 L952 1528 L687 1159 L501 1159 Z " />
<glyph glyph-name="uni01D3" unicode="&#x1d3;" horiz-adv-x="1503" d="M607 1589 L340 1958 L554 1958 L695 1763 L836 1958 L1058 1958 L793 1589 L607 1589 Z M711 -23 Q575 -23 472.5 9 Q370 41 304 95 Q272 122 245 155 Q218 188 198 228 Q158 307 142 392.5 Q126 478 126 583 L126 1456 L356 1456 L356 576 Q356 469 379.5 393 Q403 317 448 268.5 Q493 220 559.5 197 Q626 174 712 174 Q883 174 974 268 Q1067 362 1067 575 L1067 1456 L1297 1456 L1297 584 Q1297 478 1280.5 391.5 Q1264 305 1222 226 Q1192 168 1147 122.5 Q1102 77 1039.5 45 Q977 13 895.5 -4.5 Q814 -22 711 -23 Z " />
<glyph glyph-name="uni01D4" unicode="&#x1d4;" horiz-adv-x="1206" d="M498 -23 Q305 -23 203 87 Q102 199 102 382 L102 1026 L324 1026 L324 384 Q324 270 380 214.5 Q436 159 541 159 Q662 159 723.5 222.5 Q785 286 785 413 L785 1026 L1009 1026 L1009 268 Q1009 204 1011.5 137 Q1014 70 1019 0 L789 0 L785 156 Q773 128 752 100 Q731 72 697 42 Q663 13 611 -5 Q559 -23 498 -23 Z M459 1159 L192 1528 L406 1528 L547 1333 L688 1528 L910 1528 L645 1159 L459 1159 Z " />
<glyph glyph-name="uni01E2" unicode="&#x1e2;" horiz-adv-x="2157" d="M1038 1632 L1038 1777 L1648 1777 L1648 1632 L1038 1632 Z M562 554 L1049 554 L998 1254 L960 1254 L562 554 Z M-19 0 L836 1456 L1898 1456 L1898 1254 L1229 1254 L1265 844 L1884 844 L1884 648 L1289 648 L1330 202 L1924 202 L1924 0 L1096 0 L1065 373 L471 373 L259 0 L-19 0 Z " />
<glyph glyph-name="uni01E3" unicode="&#x1e3;" horiz-adv-x="1782" d="M589 1202 L589 1347 L1199 1347 L1199 1202 L589 1202 Z M1437 626 Q1429 747 1364 814 Q1299 882 1201 882 Q1095 882 1029 810 Q964 740 941 626 L1437 626 Z M443 157 Q518 157 570.5 185 Q623 213 655.5 258 Q688 303 703 360 Q718 417 719 475 L599 475 Q504 475 431 460 Q361 447 308 405 Q257 364 257 300 Q257 264 271 237 Q285 210 309.5 192 Q334 174 368 165.5 Q402 157 443 157 Z M1224 -23 Q1085 -23 983.5 32 Q882 87 827 196 Q775 91 666 33 Q559 -24 430 -24 Q252 -24 145 59 Q38 142 38 290 Q38 374 66.5 434 Q95 494 146 531 Q197 569 279 591 Q321 602 364.5 610 Q408 618 456 622 Q504 626 559.5 628 Q615 630 681 630 L718 630 Q718 739 656 807 Q594 875 481 875 Q351 875 179 794 L115 946 Q125 952 136.5 958.5 Q148 965 163 972 Q178 979 197.5 987.5 Q217 996 244 1006 Q298 1027 371.5 1039.5 Q445 1052 524 1052 Q617 1052 712 1001 Q807 951 849 860 Q903 950 997 1001 Q1091 1052 1198 1052 Q1310 1052 1392.5 1011 Q1475 970 1528.5 899 Q1582 828 1608 730.5 Q1634 633 1634 521 L1629 475 L938 475 L938 452 Q958 159 1234 159 Q1283 159 1333.5 170.5 Q1384 182 1421 198 Q1458 214 1488 230 Q1518 246 1534 258 L1549 269 L1612 106 Q1609 103 1605 100 Q1601 97 1594 92 Q1587 87 1574.5 79.5 Q1562 72 1543 61 Q1504 38 1462 22 Q1441 13 1413.5 5 Q1386 -3 1355 -9 Q1324 -15 1290.5 -19 Q1257 -23 1224 -23 Z " />
<glyph glyph-name="Gcaron" unicode="&#x1e6;" horiz-adv-x="1534" d="M691 1589 L424 1958 L638 1958 L779 1763 L920 1958 L1142 1958 L877 1589 L691 1589 Z M809 -23 Q451 -23 259 173 Q67 369 67 704 Q67 867 121 1008.5 Q175 1150 272 1256 Q369 1361 513 1422 Q657 1483 831 1483 Q1001 1483 1115 1442 Q1172 1422 1221.5 1396 Q1271 1370 1314 1338 L1222 1176 Q1064 1286 834 1286 Q710 1286 609 1240 Q508 1194 442 1115 Q376 1036 341 934 Q306 832 306 715 Q306 466 436 320 Q567 174 819 174 Q966 174 1094 216 L1094 586 L744 586 L744 783 L1326 783 L1326 86 Q1087 -23 809 -23 Z " />
<glyph glyph-name="gcaron" unicode="&#x1e7;" horiz-adv-x="1253" d="M572 183 Q649 183 702 211 Q755 239 788 286.5 Q821 334 836 396.5 Q851 459 851 528 Q851 683 781 777 Q711 871 581 871 Q445 871 372 771 Q298 671 298 517 Q298 357 367 270 Q436 183 572 183 Z M536 -414 Q330 -414 148 -332 L185 -138 Q348 -232 524 -232 Q675 -232 758.5 -159 Q842 -86 842 59 L842 156 Q744 12 557 12 Q337 12 201 148 Q64 285 64 515 Q64 626 94 724 Q124 822 184 895 Q244 968 334.5 1010 Q425 1052 546 1052 Q652 1052 726 1009.5 Q800 967 843 900 L843 1026 L1078 1026 Q1070 948 1066 868.5 Q1062 789 1062 708 L1062 147 Q1062 59 1048 -17.5 Q1034 -94 997 -169 Q961 -244 903 -296 Q845 -350 752 -382 Q659 -414 536 -414 Z M437 1159 L170 1528 L384 1528 L525 1333 L666 1528 L888 1528 L623 1159 L437 1159 Z " />
<glyph glyph-name="uni01E8" unicode="&#x1e8;" horiz-adv-x="1328" d="M547 1589 L280 1958 L494 1958 L635 1763 L776 1958 L998 1958 L733 1589 L547 1589 Z M154 0 L154 1456 L384 1456 L384 812 L969 1456 L1256 1456 L609 753 L1305 0 L1009 0 L385 667 L385 0 L154 0 Z " />
<glyph glyph-name="uni01E9" unicode="&#x1e9;" horiz-adv-x="1106" d="M116 0 L116 1469 L340 1469 L340 601 L739 1026 L1047 1026 L546 534 L1081 0 L783 0 L340 460 L340 0 L116 0 Z M541 1159 L274 1528 L488 1528 L629 1333 L770 1528 L992 1528 L727 1159 L541 1159 Z " />
<glyph glyph-name="uni01EA" unicode="&#x1ea;" horiz-adv-x="1653" d="M773 -392 Q723 -392 682 -382.5 Q641 -373 611.5 -354.5 Q582 -336 565.5 -308 Q549 -280 549 -243 Q549 -195 571.5 -152.5 Q594 -110 636 -76 Q677 -43 710 -22.5 Q743 -2 785 19 L906 17 Q838 -24 792 -85 Q747 -147 747 -193 Q747 -256 836 -256 Q883 -256 995 -225 L995 -355 Q875 -392 773 -392 Z M790 -23 Q452 -23 259 181 Q66 386 66 733 Q66 955 151 1124 Q236 1293 402 1388 Q569 1483 793 1483 Q956 1484 1088.5 1429.5 Q1221 1375 1315 1275 Q1409 1175 1459 1036.5 Q1509 898 1507 733 Q1507 387 1316 181 Q1125 -23 790 -23 Z M786 174 Q1019 174 1138 321 Q1257 469 1257 733 Q1257 988 1138 1137 Q1019 1286 790 1286 Q560 1286 437 1136 Q314 987 314 733 Q314 469 433 321 Q553 174 786 174 Z " />
<glyph glyph-name="uni01EB" unicode="&#x1eb;" horiz-adv-x="1274" d="M560 -392 Q510 -392 469 -382.5 Q428 -373 398.5 -354.5 Q369 -336 352.5 -308 Q336 -280 336 -243 Q336 -195 358.5 -152.5 Q381 -110 423 -76 Q464 -43 497 -22.5 Q530 -2 572 19 L693 17 Q625 -24 579 -85 Q534 -147 534 -193 Q534 -256 623 -256 Q670 -256 782 -225 L782 -355 Q662 -392 560 -392 Z M600 -23 Q470 -23 367 19 Q264 61 198 134 Q132 207 98 303 Q64 399 64 513 Q64 667 124 787 Q184 908 307 980 Q431 1052 601 1052 Q732 1052 833.5 1011.5 Q935 971 999 896 Q1063 823 1096.5 726 Q1130 629 1130 511 Q1130 399 1096 304 Q1062 209 996 134 Q932 61 830 19 Q728 -23 600 -23 Z M599 159 Q747 159 821 258 Q896 357 896 514 Q896 674 820 772 Q743 871 598 871 Q451 871 375 772 Q298 672 298 514 Q298 356 374 258 Q450 159 599 159 Z " />
<glyph glyph-name="uni01F0" unicode="&#x1f0;" horiz-adv-x="544" d="M56 -394 Q-3 -394 -101 -375 L-89 -208 Q-19 -224 26 -224 Q66 -224 96 -210.5 Q126 -197 145.5 -166.5 Q165 -136 174.5 -87 Q184 -38 184 32 L184 1026 L401 1026 L401 55 Q401 -21 393.5 -81 Q386 -141 364 -202 Q341 -264 305 -303 Q268 -343 204.5 -368.5 Q141 -394 56 -394 Z M152 1159 L-115 1528 L99 1528 L240 1333 L381 1528 L603 1528 L338 1159 L152 1159 Z " />
<glyph glyph-name="uni01F1" unicode="&#x1f1;" horiz-adv-x="2747" d="M1596 0 L1596 124 L2303 1260 L1624 1260 L1624 1456 L2618 1456 L2618 1336 L1905 196 L2615 196 L2615 0 L1596 0 Z M154 0 L154 1456 L530 1456 Q963 1456 1186 1275.5 Q1409 1095 1409 733 Q1409 379 1198 189 Q988 0 591 0 L154 0 Z M384 196 L604 196 Q742 196 847 231.5 Q952 267 1023 335.5 Q1094 404 1130 504.5 Q1166 605 1166 734 Q1166 999 1016 1129.5 Q866 1260 553 1260 L384 1260 L384 196 Z " />
<glyph glyph-name="uni01F2" unicode="&#x1f2;" horiz-adv-x="2542" d="M1618 0 L1618 119 L2116 846 L1637 846 L1637 1026 L2406 1026 L2406 909 L1906 179 L2430 179 L2430 0 L1618 0 Z M154 0 L154 1456 L530 1456 Q963 1456 1186 1275.5 Q1409 1095 1409 733 Q1409 379 1198 189 Q988 0 591 0 L154 0 Z M384 196 L604 196 Q742 196 847 231.5 Q952 267 1023 335.5 Q1094 404 1130 504.5 Q1166 605 1166 734 Q1166 999 1016 1129.5 Q866 1260 553 1260 L384 1260 L384 196 Z " />
<glyph glyph-name="uni01F3" unicode="&#x1f3;" horiz-adv-x="2254" d="M1330 0 L1330 119 L1828 846 L1349 846 L1349 1026 L2118 1026 L2118 909 L1618 179 L2142 179 L2142 0 L1330 0 Z M575 159 Q712 159 783 258 Q853 358 853 518 Q853 672 782 772 Q711 871 577 871 Q442 871 370 772 Q298 673 298 514 Q298 356 368 258 Q438 159 575 159 Z M534 -23 Q330 -23 197 122 Q64 267 64 508 Q64 621 95.5 720 Q127 819 188 893 Q249 967 339.5 1009.5 Q430 1052 549 1052 Q658 1052 738 1005 Q818 958 847 902 L847 1469 L1071 1469 L1071 270 Q1071 247 1072.5 179.5 Q1074 112 1078 0 L850 0 L848 147 Q821 82 740 30 Q660 -23 534 -23 Z " />
<glyph glyph-name="uni01F4" unicode="&#x1f4;" horiz-adv-x="1534" d="M698 1600 L952 1940 L1240 1940 L898 1600 L698 1600 Z M809 -23 Q451 -23 259 173 Q67 369 67 704 Q67 867 121 1008.5 Q175 1150 272 1256 Q369 1361 513 1422 Q657 1483 831 1483 Q1001 1483 1115 1442 Q1172 1422 1221.5 1396 Q1271 1370 1314 1338 L1222 1176 Q1064 1286 834 1286 Q710 1286 609 1240 Q508 1194 442 1115 Q376 1036 341 934 Q306 832 306 715 Q306 466 436 320 Q567 174 819 174 Q966 174 1094 216 L1094 586 L744 586 L744 783 L1326 783 L1326 86 Q1087 -23 809 -23 Z " />
<glyph glyph-name="uni01F5" unicode="&#x1f5;" horiz-adv-x="1253" d="M572 183 Q649 183 702 211 Q755 239 788 286.5 Q821 334 836 396.5 Q851 459 851 528 Q851 683 781 777 Q711 871 581 871 Q445 871 372 771 Q298 671 298 517 Q298 357 367 270 Q436 183 572 183 Z M536 -414 Q330 -414 148 -332 L185 -138 Q348 -232 524 -232 Q675 -232 758.5 -159 Q842 -86 842 59 L842 156 Q744 12 557 12 Q337 12 201 148 Q64 285 64 515 Q64 626 94 724 Q124 822 184 895 Q244 968 334.5 1010 Q425 1052 546 1052 Q652 1052 726 1009.5 Q800 967 843 900 L843 1026 L1078 1026 Q1070 948 1066 868.5 Q1062 789 1062 708 L1062 147 Q1062 59 1048 -17.5 Q1034 -94 997 -169 Q961 -244 903 -296 Q845 -350 752 -382 Q659 -414 536 -414 Z M444 1170 L698 1510 L986 1510 L644 1170 L444 1170 Z " />
<glyph glyph-name="uni01F8" unicode="&#x1f8;" horiz-adv-x="1616" d="M683 1600 L338 1941 L626 1941 L882 1600 L683 1600 Z M154 0 L154 1456 L399 1456 L641 1102 Q796 877 924.5 688.5 Q1053 500 1164 332 L1164 1456 L1382 1456 L1382 0 L1136 0 Q1091 64 1030.5 152 Q970 240 892 352 Q736 577 607 765 Q478 953 367 1122 L367 0 L154 0 Z " />
<glyph glyph-name="uni01F9" unicode="&#x1f9;" horiz-adv-x="1234" d="M126 0 L126 677 Q126 724 125 768.5 Q124 813 122 857 Q120 901 118 933 Q116 965 114 985 L110 1026 L345 1026 L345 881 Q397 963 489 1007 Q580 1052 672 1052 Q862 1052 957 938 Q1052 824 1052 575 L1052 0 L828 0 L828 582 Q828 734 783 802 Q739 871 627 871 Q530 871 440 796 Q350 722 350 626 L350 0 L126 0 Z M543 1170 L198 1511 L486 1511 L742 1170 L543 1170 Z " />
<glyph glyph-name="Aringacute" unicode="&#x1fa;" horiz-adv-x="1434" d="M675 1565 Q587 1565 523 1624 Q461 1684 461 1772 Q461 1861 523 1920 Q585 1979 675 1979 Q764 1979 826 1920 Q888 1861 888 1772 Q888 1684 826 1624 Q764 1565 675 1565 Z M674 1663 Q717 1663 749 1695 Q781 1727 781 1772 Q781 1816 749 1848 Q717 1880 674 1880 Q652 1880 632.5 1871.5 Q613 1863 599 1848.5 Q585 1834 576.5 1814 Q568 1794 568 1772 Q568 1726 599 1695 Q631 1663 674 1663 Z M578 2074 L832 2414 L1120 2414 L778 2074 L578 2074 Z M446 576 L892 576 Q846 708 791 863 Q736 1018 671 1199 L446 576 Z M-22 0 L557 1456 L793 1456 L1377 0 L1120 0 L973 373 L373 373 L229 0 L-22 0 Z " />
<glyph glyph-name="aringacute" unicode="&#x1fb;" horiz-adv-x="1283" d="M594 1135 Q506 1135 442 1194 Q380 1254 380 1342 Q380 1431 442 1490 Q504 1549 594 1549 Q683 1549 745 1490 Q807 1431 807 1342 Q807 1254 745 1194 Q683 1135 594 1135 Z M593 1233 Q636 1233 668 1265 Q700 1297 700 1342 Q700 1386 668 1418 Q636 1450 593 1450 Q571 1450 551.5 1441.5 Q532 1433 518 1418.5 Q504 1404 495.5 1384 Q487 1364 487 1342 Q487 1296 518 1265 Q550 1233 593 1233 Z M497 1644 L751 1984 L1039 1984 L697 1644 L497 1644 Z M592 159 Q739 159 811 256 Q883 353 883 517 Q883 676 808 774 Q735 871 589 871 Q441 871 364 773 Q288 676 288 515 Q288 356 364 258 Q440 159 592 159 Z M561 -23 Q441 -23 344 21.5 Q247 66 187 141 Q127 216 95.5 309.5 Q64 403 64 506 Q64 615 97 712.5 Q130 810 193 886 Q256 962 351.5 1007 Q447 1052 565 1052 Q668 1052 747.5 1008.5 Q827 965 875 892 L875 1026 L1094 1026 L1094 0 L871 0 L871 154 Q825 73 744.5 25 Q664 -23 561 -23 Z " />
<glyph glyph-name="AEacute" unicode="&#x1fc;" horiz-adv-x="2157" d="M1208 1600 L1462 1940 L1750 1940 L1408 1600 L1208 1600 Z M562 554 L1049 554 L998 1254 L960 1254 L562 554 Z M-19 0 L836 1456 L1898 1456 L1898 1254 L1229 1254 L1265 844 L1884 844 L1884 648 L1289 648 L1330 202 L1924 202 L1924 0 L1096 0 L1065 373 L471 373 L259 0 L-19 0 Z " />
<glyph glyph-name="aeacute" unicode="&#x1fd;" horiz-adv-x="1782" d="M1437 626 Q1429 747 1364 814 Q1299 882 1201 882 Q1095 882 1029 810 Q964 740 941 626 L1437 626 Z M443 157 Q518 157 570.5 185 Q623 213 655.5 258 Q688 303 703 360 Q718 417 719 475 L599 475 Q504 475 431 460 Q361 447 308 405 Q257 364 257 300 Q257 264 271 237 Q285 210 309.5 192 Q334 174 368 165.5 Q402 157 443 157 Z M1224 -23 Q1085 -23 983.5 32 Q882 87 827 196 Q775 91 666 33 Q559 -24 430 -24 Q252 -24 145 59 Q38 142 38 290 Q38 374 66.5 434 Q95 494 146 531 Q197 569 279 591 Q321 602 364.5 610 Q408 618 456 622 Q504 626 559.5 628 Q615 630 681 630 L718 630 Q718 739 656 807 Q594 875 481 875 Q351 875 179 794 L115 946 Q125 952 136.5 958.5 Q148 965 163 972 Q178 979 197.5 987.5 Q217 996 244 1006 Q298 1027 371.5 1039.5 Q445 1052 524 1052 Q617 1052 712 1001 Q807 951 849 860 Q903 950 997 1001 Q1091 1052 1198 1052 Q1310 1052 1392.5 1011 Q1475 970 1528.5 899 Q1582 828 1608 730.5 Q1634 633 1634 521 L1629 475 L938 475 L938 452 Q958 159 1234 159 Q1283 159 1333.5 170.5 Q1384 182 1421 198 Q1458 214 1488 230 Q1518 246 1534 258 L1549 269 L1612 106 Q1609 103 1605 100 Q1601 97 1594 92 Q1587 87 1574.5 79.5 Q1562 72 1543 61 Q1504 38 1462 22 Q1441 13 1413.5 5 Q1386 -3 1355 -9 Q1324 -15 1290.5 -19 Q1257 -23 1224 -23 Z M759 1170 L1013 1510 L1301 1510 L959 1170 L759 1170 Z " />
<glyph glyph-name="Oslashacute" unicode="&#x1fe;" horiz-adv-x="1653" d="M697 1600 L951 1940 L1239 1940 L897 1600 L697 1600 Z M790 -23 Q623 -23 487 30 L404 -126 L297 -75 L381 83 Q228 177 147 343.5 Q66 510 66 733 Q66 955 151 1124 Q236 1293 402 1388 Q569 1483 793 1483 Q959 1483 1097 1425 L1174 1569 L1280 1517 L1202 1370 Q1347 1274 1427 1109 Q1507 943 1507 733 Q1507 387 1316 181 Q1125 -23 790 -23 Z M584 211 Q671 174 786 174 Q1019 174 1138 321 Q1257 469 1257 733 Q1257 1035 1099 1178 L584 211 Z M1001 1244 Q908 1286 790 1286 Q560 1286 437 1136 Q314 987 314 733 Q314 414 482 272 L1001 1244 Z " />
<glyph glyph-name="oslashacute" unicode="&#x1ff;" horiz-adv-x="1265" d="M703 855 Q659 871 598 871 Q451 871 375 772 Q298 672 298 514 Q298 314 410 221 L703 855 Z M506 171 Q548 159 599 159 Q747 159 821 258 Q896 357 896 514 Q896 705 796 799 L506 171 Z M600 -23 Q508 -23 427 -1 L331 -209 L232 -166 L326 38 Q199 102 131 228 Q64 353 64 513 Q64 667 124 787.5 Q184 908 307 980 Q431 1052 601 1052 Q702 1052 783 1028 L867 1211 L966 1167 L883 987 Q943 954 989.5 905.5 Q1036 857 1067 796.5 Q1098 736 1114 664 Q1130 592 1130 511 Q1130 399 1096 304 Q1062 209 996 134 Q932 61 830 19 Q728 -23 600 -23 Z M507 1170 L761 1510 L1049 1510 L707 1170 L507 1170 Z " />
<glyph glyph-name="uni0200" unicode="&#x200;" horiz-adv-x="1434" d="M803 1600 L510 1980 L750 1980 L960 1600 L803 1600 Z M465 1600 L132 1980 L381 1980 L627 1600 L465 1600 Z M446 576 L892 576 Q846 708 791 863 Q736 1018 671 1199 L446 576 Z M-22 0 L557 1456 L793 1456 L1377 0 L1120 0 L973 373 L373 373 L229 0 L-22 0 Z " />
<glyph glyph-name="uni0201" unicode="&#x201;" horiz-adv-x="1283" d="M722 1170 L429 1550 L669 1550 L879 1170 L722 1170 Z M384 1170 L51 1550 L300 1550 L546 1170 L384 1170 Z M592 159 Q739 159 811 256 Q883 353 883 517 Q883 676 808 774 Q735 871 589 871 Q441 871 364 773 Q288 676 288 515 Q288 356 364 258 Q440 159 592 159 Z M561 -23 Q441 -23 344 21.5 Q247 66 187 141 Q127 216 95.5 309.5 Q64 403 64 506 Q64 615 97 712.5 Q130 810 193 886 Q256 962 351.5 1007 Q447 1052 565 1052 Q668 1052 747.5 1008.5 Q827 965 875 892 L875 1026 L1094 1026 L1094 0 L871 0 L871 154 Q825 73 744.5 25 Q664 -23 561 -23 Z " />
<glyph glyph-name="uni0202" unicode="&#x202;" horiz-adv-x="1434" d="M422 1603 Q432 1734 511.5 1802 Q591 1870 718 1870 Q845 1870 924.5 1802.5 Q1004 1735 1014 1603 L873 1603 Q869 1634 855 1657 Q841 1680 820.5 1695 Q800 1710 774 1717.5 Q748 1725 720 1725 Q691 1725 665 1717.5 Q639 1710 618 1695 Q597 1680 583 1657 Q569 1634 565 1603 L422 1603 Z M446 576 L892 576 Q846 708 791 863 Q736 1018 671 1199 L446 576 Z M-22 0 L557 1456 L793 1456 L1377 0 L1120 0 L973 373 L373 373 L229 0 L-22 0 Z " />
<glyph glyph-name="uni0203" unicode="&#x203;" horiz-adv-x="1283" d="M341 1173 Q351 1304 430.5 1372 Q510 1440 637 1440 Q764 1440 843.5 1372.5 Q923 1305 933 1173 L792 1173 Q788 1204 774 1227 Q760 1250 739.5 1265 Q719 1280 693 1287.5 Q667 1295 639 1295 Q610 1295 584 1287.5 Q558 1280 537 1265 Q516 1250 502 1227 Q488 1204 484 1173 L341 1173 Z M592 159 Q739 159 811 256 Q883 353 883 517 Q883 676 808 774 Q735 871 589 871 Q441 871 364 773 Q288 676 288 515 Q288 356 364 258 Q440 159 592 159 Z M561 -23 Q441 -23 344 21.5 Q247 66 187 141 Q127 216 95.5 309.5 Q64 403 64 506 Q64 615 97 712.5 Q130 810 193 886 Q256 962 351.5 1007 Q447 1052 565 1052 Q668 1052 747.5 1008.5 Q827 965 875 892 L875 1026 L1094 1026 L1094 0 L871 0 L871 154 Q825 73 744.5 25 Q664 -23 561 -23 Z " />
<glyph glyph-name="uni0204" unicode="&#x204;" horiz-adv-x="1221" d="M742 1600 L449 1980 L689 1980 L899 1600 L742 1600 Z M404 1600 L71 1980 L320 1980 L566 1600 L404 1600 Z M154 0 L154 1456 L1055 1456 L1055 1260 L384 1260 L384 849 L1017 849 L1017 652 L385 652 L385 196 L1084 196 L1084 0 L154 0 Z " />
<glyph glyph-name="uni0205" unicode="&#x205;" horiz-adv-x="1188" d="M715 1170 L422 1550 L662 1550 L872 1170 L715 1170 Z M377 1170 L44 1550 L293 1550 L539 1170 L377 1170 Z M303 628 L833 628 Q820 749 756 813 Q692 877 590 877 Q476 877 401 811.5 Q326 746 303 628 Z M610 -23 Q358 -23 211 124 Q64 271 64 512 Q64 662 125 783 Q186 904 305 978 Q424 1052 580 1052 Q695 1052 783 1011.5 Q871 971 925 898 Q979 826 1006 732 Q1033 638 1033 523 Q1033 512 1031.5 501 Q1030 490 1028 477 L298 477 Q304 319 393 239 Q482 159 627 159 Q803 159 949 271 L1012 107 Q840 -23 610 -23 Z " />
<glyph glyph-name="uni0206" unicode="&#x206;" horiz-adv-x="1221" d="M362 1603 Q372 1734 451.5 1802 Q531 1870 658 1870 Q785 1870 864.5 1802.5 Q944 1735 954 1603 L813 1603 Q809 1634 795 1657 Q781 1680 760.5 1695 Q740 1710 714 1717.5 Q688 1725 660 1725 Q631 1725 605 1717.5 Q579 1710 558 1695 Q537 1680 523 1657 Q509 1634 505 1603 L362 1603 Z M154 0 L154 1456 L1055 1456 L1055 1260 L384 1260 L384 849 L1017 849 L1017 652 L385 652 L385 196 L1084 196 L1084 0 L154 0 Z " />
<glyph glyph-name="uni0207" unicode="&#x207;" horiz-adv-x="1188" d="M334 1173 Q344 1304 423.5 1372 Q503 1440 630 1440 Q757 1440 836.5 1372.5 Q916 1305 926 1173 L785 1173 Q781 1204 767 1227 Q753 1250 732.5 1265 Q712 1280 686 1287.5 Q660 1295 632 1295 Q603 1295 577 1287.5 Q551 1280 530 1265 Q509 1250 495 1227 Q481 1204 477 1173 L334 1173 Z M303 628 L833 628 Q820 749 756 813 Q692 877 590 877 Q476 877 401 811.5 Q326 746 303 628 Z M610 -23 Q358 -23 211 124 Q64 271 64 512 Q64 662 125 783 Q186 904 305 978 Q424 1052 580 1052 Q695 1052 783 1011.5 Q871 971 925 898 Q979 826 1006 732 Q1033 638 1033 523 Q1033 512 1031.5 501 Q1030 490 1028 477 L298 477 Q304 319 393 239 Q482 159 627 159 Q803 159 949 271 L1012 107 Q840 -23 610 -23 Z " />
<glyph glyph-name="uni0208" unicode="&#x208;" horiz-adv-x="596" d="M395 1600 L102 1980 L342 1980 L552 1600 L395 1600 Z M57 1600 L-276 1980 L-27 1980 L219 1600 L57 1600 Z M150 0 L150 1456 L380 1456 L380 0 L150 0 Z " />
<glyph glyph-name="uni0209" unicode="&#x209;" horiz-adv-x="521" d="M340 1170 L47 1550 L287 1550 L497 1170 L340 1170 Z M2 1170 L-331 1550 L-82 1550 L164 1170 L2 1170 Z M103 0 L103 1026 L328 1026 L328 0 L103 0 Z " />
<glyph glyph-name="uni020A" unicode="&#x20a;" horiz-adv-x="596" d="M15 1603 Q25 1734 104.5 1802 Q184 1870 311 1870 Q438 1870 517.5 1802.5 Q597 1735 607 1603 L466 1603 Q462 1634 448 1657 Q434 1680 413.5 1695 Q393 1710 367 1717.5 Q341 1725 313 1725 Q284 1725 258 1717.5 Q232 1710 211 1695 Q190 1680 176 1657 Q162 1634 158 1603 L15 1603 Z M150 0 L150 1456 L380 1456 L380 0 L150 0 Z " />
<glyph glyph-name="uni020B" unicode="&#x20b;" horiz-adv-x="521" d="M-40 1173 Q-30 1304 49.5 1372 Q129 1440 256 1440 Q383 1440 462.5 1372.5 Q542 1305 552 1173 L411 1173 Q407 1204 393 1227 Q379 1250 358.5 1265 Q338 1280 312 1287.5 Q286 1295 258 1295 Q229 1295 203 1287.5 Q177 1280 156 1265 Q135 1250 121 1227 Q107 1204 103 1173 L-40 1173 Z M103 0 L103 1026 L328 1026 L328 0 L103 0 Z " />
<glyph glyph-name="uni020C" unicode="&#x20c;" horiz-adv-x="1653" d="M916 1600 L623 1980 L863 1980 L1073 1600 L916 1600 Z M578 1600 L245 1980 L494 1980 L740 1600 L578 1600 Z M790 -23 Q452 -23 259 181 Q66 386 66 733 Q66 955 151 1124 Q236 1293 402 1388 Q569 1483 793 1483 Q956 1484 1088.5 1429.5 Q1221 1375 1315 1275 Q1409 1175 1459 1036.5 Q1509 898 1507 733 Q1507 387 1316 181 Q1125 -23 790 -23 Z M786 174 Q1019 174 1138 321 Q1257 469 1257 733 Q1257 988 1138 1137 Q1019 1286 790 1286 Q560 1286 437 1136 Q314 987 314 733 Q314 469 433 321 Q553 174 786 174 Z " />
<glyph glyph-name="uni020D" unicode="&#x20d;" horiz-adv-x="1274" d="M726 1170 L433 1550 L673 1550 L883 1170 L726 1170 Z M388 1170 L55 1550 L304 1550 L550 1170 L388 1170 Z M600 -23 Q470 -23 367 19 Q264 61 198 134 Q132 207 98 303 Q64 399 64 513 Q64 667 124 787 Q184 908 307 980 Q431 1052 601 1052 Q732 1052 833.5 1011.5 Q935 971 999 896 Q1063 823 1096.5 726 Q1130 629 1130 511 Q1130 399 1096 304 Q1062 209 996 134 Q932 61 830 19 Q728 -23 600 -23 Z M599 159 Q747 159 821 258 Q896 357 896 514 Q896 674 820 772 Q743 871 598 871 Q451 871 375 772 Q298 672 298 514 Q298 356 374 258 Q450 159 599 159 Z " />
<glyph glyph-name="uni020E" unicode="&#x20e;" horiz-adv-x="1653" d="M535 1603 Q545 1734 624.5 1802 Q704 1870 831 1870 Q958 1870 1037.5 1802.5 Q1117 1735 1127 1603 L986 1603 Q982 1634 968 1657 Q954 1680 933.5 1695 Q913 1710 887 1717.5 Q861 1725 833 1725 Q804 1725 778 1717.5 Q752 1710 731 1695 Q710 1680 696 1657 Q682 1634 678 1603 L535 1603 Z M790 -23 Q452 -23 259 181 Q66 386 66 733 Q66 955 151 1124 Q236 1293 402 1388 Q569 1483 793 1483 Q956 1484 1088.5 1429.5 Q1221 1375 1315 1275 Q1409 1175 1459 1036.5 Q1509 898 1507 733 Q1507 387 1316 181 Q1125 -23 790 -23 Z M786 174 Q1019 174 1138 321 Q1257 469 1257 733 Q1257 988 1138 1137 Q1019 1286 790 1286 Q560 1286 437 1136 Q314 987 314 733 Q314 469 433 321 Q553 174 786 174 Z " />
<glyph glyph-name="uni020F" unicode="&#x20f;" horiz-adv-x="1274" d="M346 1173 Q356 1304 435.5 1372 Q515 1440 642 1440 Q769 1440 848.5 1372.5 Q928 1305 938 1173 L797 1173 Q793 1204 779 1227 Q765 1250 744.5 1265 Q724 1280 698 1287.5 Q672 1295 644 1295 Q615 1295 589 1287.5 Q563 1280 542 1265 Q521 1250 507 1227 Q493 1204 489 1173 L346 1173 Z M600 -23 Q470 -23 367 19 Q264 61 198 134 Q132 207 98 303 Q64 399 64 513 Q64 667 124 787 Q184 908 307 980 Q431 1052 601 1052 Q732 1052 833.5 1011.5 Q935 971 999 896 Q1063 823 1096.5 726 Q1130 629 1130 511 Q1130 399 1096 304 Q1062 209 996 134 Q932 61 830 19 Q728 -23 600 -23 Z M599 159 Q747 159 821 258 Q896 357 896 514 Q896 674 820 772 Q743 871 598 871 Q451 871 375 772 Q298 672 298 514 Q298 356 374 258 Q450 159 599 159 Z " />
<glyph glyph-name="uni0210" unicode="&#x210;" horiz-adv-x="1372" d="M750 1600 L457 1980 L697 1980 L907 1600 L750 1600 Z M412 1600 L79 1980 L328 1980 L574 1600 L412 1600 Z M381 825 L628 825 Q687 825 738.5 835 Q790 845 828.5 870.5 Q867 896 889.5 939 Q912 982 912 1048 Q912 1173 851 1216 Q790 1260 651 1260 L381 1260 L381 825 Z M154 0 L154 1456 L649 1456 Q740 1456 811 1446.5 Q882 1437 949 1411 Q1047 1374 1100 1291 Q1153 1208 1156 1062 Q1156 998 1138.5 942 Q1121 886 1085.5 841 Q1050 796 996.5 764 Q943 732 871 715 Q938 685 987 622 Q1036 559 1078 459 L1263 0 L1014 0 L849 433 Q806 549 756 590 Q709 630 601 630 L384 630 L384 0 L154 0 Z " />
<glyph glyph-name="uni0211" unicode="&#x211;" horiz-adv-x="798" d="M575 1170 L282 1550 L522 1550 L732 1170 L575 1170 Z M237 1170 L-96 1550 L153 1550 L399 1170 L237 1170 Z M128 0 L128 770 Q128 791 127 817.5 Q126 844 124 876 Q122 908 120 934.5 Q118 961 116 983 L112 1026 L350 1026 L350 881 Q461 1052 612 1052 Q662 1052 716 1037 L716 840 Q656 860 596 860 Q488 860 420 786 Q353 713 353 577 L353 0 L128 0 Z " />
<glyph glyph-name="uni0212" unicode="&#x212;" horiz-adv-x="1372" d="M370 1603 Q380 1734 459.5 1802 Q539 1870 666 1870 Q793 1870 872.5 1802.5 Q952 1735 962 1603 L821 1603 Q817 1634 803 1657 Q789 1680 768.5 1695 Q748 1710 722 1717.5 Q696 1725 668 1725 Q639 1725 613 1717.5 Q587 1710 566 1695 Q545 1680 531 1657 Q517 1634 513 1603 L370 1603 Z M381 825 L628 825 Q687 825 738.5 835 Q790 845 828.5 870.5 Q867 896 889.5 939 Q912 982 912 1048 Q912 1173 851 1216 Q790 1260 651 1260 L381 1260 L381 825 Z M154 0 L154 1456 L649 1456 Q740 1456 811 1446.5 Q882 1437 949 1411 Q1047 1374 1100 1291 Q1153 1208 1156 1062 Q1156 998 1138.5 942 Q1121 886 1085.5 841 Q1050 796 996.5 764 Q943 732 871 715 Q938 685 987 622 Q1036 559 1078 459 L1263 0 L1014 0 L849 433 Q806 549 756 590 Q709 630 601 630 L384 630 L384 0 L154 0 Z " />
<glyph glyph-name="uni0213" unicode="&#x213;" horiz-adv-x="798" d="M194 1173 Q204 1304 283.5 1372 Q363 1440 490 1440 Q617 1440 696.5 1372.5 Q776 1305 786 1173 L645 1173 Q641 1204 627 1227 Q613 1250 592.5 1265 Q572 1280 546 1287.5 Q520 1295 492 1295 Q463 1295 437 1287.5 Q411 1280 390 1265 Q369 1250 355 1227 Q341 1204 337 1173 L194 1173 Z M128 0 L128 770 Q128 791 127 817.5 Q126 844 124 876 Q122 908 120 934.5 Q118 961 116 983 L112 1026 L350 1026 L350 881 Q461 1052 612 1052 Q662 1052 716 1037 L716 840 Q656 860 596 860 Q488 860 420 786 Q353 713 353 577 L353 0 L128 0 Z " />
<glyph glyph-name="uni0214" unicode="&#x214;" horiz-adv-x="1503" d="M832 1600 L539 1980 L779 1980 L989 1600 L832 1600 Z M494 1600 L161 1980 L410 1980 L656 1600 L494 1600 Z M711 -23 Q575 -23 472.5 9 Q370 41 304 95 Q272 122 245 155 Q218 188 198 228 Q158 307 142 392.5 Q126 478 126 583 L126 1456 L356 1456 L356 576 Q356 469 379.5 393 Q403 317 448 268.5 Q493 220 559.5 197 Q626 174 712 174 Q883 174 974 268 Q1067 362 1067 575 L1067 1456 L1297 1456 L1297 584 Q1297 478 1280.5 391.5 Q1264 305 1222 226 Q1192 168 1147 122.5 Q1102 77 1039.5 45 Q977 13 895.5 -4.5 Q814 -22 711 -23 Z " />
<glyph glyph-name="uni0215" unicode="&#x215;" horiz-adv-x="1206" d="M685 1170 L392 1550 L632 1550 L842 1170 L685 1170 Z M347 1170 L14 1550 L263 1550 L509 1170 L347 1170 Z M498 -23 Q305 -23 203 87 Q102 199 102 382 L102 1026 L324 1026 L324 384 Q324 270 380 214.5 Q436 159 541 159 Q662 159 723.5 222.5 Q785 286 785 413 L785 1026 L1009 1026 L1009 268 Q1009 204 1011.5 137 Q1014 70 1019 0 L789 0 L785 156 Q773 128 752 100 Q731 72 697 42 Q663 13 611 -5 Q559 -23 498 -23 Z " />
<glyph glyph-name="uni0216" unicode="&#x216;" horiz-adv-x="1503" d="M451 1603 Q461 1734 540.5 1802 Q620 1870 747 1870 Q874 1870 953.5 1802.5 Q1033 1735 1043 1603 L902 1603 Q898 1634 884 1657 Q870 1680 849.5 1695 Q829 1710 803 1717.5 Q777 1725 749 1725 Q720 1725 694 1717.5 Q668 1710 647 1695 Q626 1680 612 1657 Q598 1634 594 1603 L451 1603 Z M711 -23 Q575 -23 472.5 9 Q370 41 304 95 Q272 122 245 155 Q218 188 198 228 Q158 307 142 392.5 Q126 478 126 583 L126 1456 L356 1456 L356 576 Q356 469 379.5 393 Q403 317 448 268.5 Q493 220 559.5 197 Q626 174 712 174 Q883 174 974 268 Q1067 362 1067 575 L1067 1456 L1297 1456 L1297 584 Q1297 478 1280.5 391.5 Q1264 305 1222 226 Q1192 168 1147 122.5 Q1102 77 1039.5 45 Q977 13 895.5 -4.5 Q814 -22 711 -23 Z " />
<glyph glyph-name="uni0217" unicode="&#x217;" horiz-adv-x="1206" d="M304 1173 Q314 1304 393.5 1372 Q473 1440 600 1440 Q727 1440 806.5 1372.5 Q886 1305 896 1173 L755 1173 Q751 1204 737 1227 Q723 1250 702.5 1265 Q682 1280 656 1287.5 Q630 1295 602 1295 Q573 1295 547 1287.5 Q521 1280 500 1265 Q479 1250 465 1227 Q451 1204 447 1173 L304 1173 Z M498 -23 Q305 -23 203 87 Q102 199 102 382 L102 1026 L324 1026 L324 384 Q324 270 380 214.5 Q436 159 541 159 Q662 159 723.5 222.5 Q785 286 785 413 L785 1026 L1009 1026 L1009 268 Q1009 204 1011.5 137 Q1014 70 1019 0 L789 0 L785 156 Q773 128 752 100 Q731 72 697 42 Q663 13 611 -5 Q559 -23 498 -23 Z " />
<glyph glyph-name="Scommaaccent" unicode="&#x218;" horiz-adv-x="1244" d="M407 -631 L518 -138 L771 -138 L595 -631 L407 -631 Z M577 -23 Q420 -23 285 26 Q148 75 81 143 L181 309 Q245 257 356 215 Q470 174 565 174 Q843 174 843 390 Q843 413 841.5 431 Q840 449 835.5 465 Q831 481 822.5 495 Q814 509 801 524 Q776 554 728.5 578 Q681 602 600 629 Q589 633 572 638.5 Q555 644 532 651 L470 672 Q403 694 349.5 717.5 Q296 741 256 766 Q175 817 131.5 896.5 Q88 976 88 1091 Q88 1219 155 1308 Q222 1399 331.5 1441 Q441 1483 583 1483 Q709 1483 807 1460 Q904 1437 958 1405 Q1013 1373 1066 1321 L948 1167 Q918 1197 880 1219 Q842 1241 799 1256 Q756 1271 709.5 1278.5 Q663 1286 615 1286 Q491 1286 411 1239 Q333 1192 333 1100 Q334 1053 342 1022 Q350 991 374 966.5 Q398 942 442.5 920 Q487 898 563 871 Q627 851 660.5 840 Q694 829 698 827 Q919 752 1003 656 Q1087 561 1087 387 Q1087 281 1045.5 200.5 Q1004 120 932 72 Q787 -23 577 -23 Z " />
<glyph glyph-name="scommaaccent" unicode="&#x219;" horiz-adv-x="988" d="M293 -631 L404 -138 L657 -138 L481 -631 L293 -631 Z M490 -23 Q356 -23 248 16 Q138 56 78 104 L136 268 Q197 222 290 189 Q383 156 472 156 Q650 156 650 287 Q650 337 613 364 Q575 393 456 433 L360 466 Q326 478 299 488.5 Q272 499 249 510 Q226 521 206 534 Q186 547 165 564 Q123 597 104 645 Q85 693 85 759 Q85 837 116.5 892.5 Q148 948 200.5 983 Q253 1018 320 1034 Q387 1050 459 1050 Q564 1050 657.5 1024 Q751 998 817 955 L757 799 Q705 827 626 850 Q548 873 481 873 Q304 873 304 767 Q304 719 335 695 Q367 671 474 633 Q476 632 488 628 Q500 624 523 616 L575 598 Q604 588 627.5 578.5 Q651 569 670 561 Q706 545 746 519 Q774 500 795 478 Q816 456 829.5 428.5 Q843 401 850 366.5 Q857 332 859 288 Q859 203 826.5 141 Q794 79 739 44 Q630 -23 490 -23 Z " />
<glyph glyph-name="uni021A" unicode="&#x21a;" horiz-adv-x="1167" d="M356 -631 L467 -138 L720 -138 L544 -631 L356 -631 Z M426 0 L426 1260 L-29 1260 L-29 1456 L1116 1456 L1116 1260 L656 1260 L656 0 L426 0 Z " />
<glyph glyph-name="uni021B" unicode="&#x21b;" horiz-adv-x="820" d="M273 -631 L384 -138 L637 -138 L461 -631 L273 -631 Z M694 1 L598 1 Q490 1 417 15 Q347 28 291 68 Q236 107 211.5 180 Q187 253 187 368 L187 876 L-17 876 L-17 1026 L193 1026 L193 1276 L410 1341 L410 1026 L690 1026 L690 876 L410 876 L410 355 Q410 292 421 257.5 Q432 223 467 203 Q484 193 505 186.5 Q526 180 551 178 Q576 176 611 174.5 Q646 173 694 173 L694 1 Z " />
<glyph glyph-name="uni021E" unicode="&#x21e;" horiz-adv-x="1564" d="M635 1589 L368 1958 L582 1958 L723 1763 L864 1958 L1086 1958 L821 1589 L635 1589 Z M154 0 L154 1456 L384 1456 L384 845 L1101 845 L1101 1456 L1331 1456 L1331 0 L1104 0 L1104 649 L387 649 L387 0 L154 0 Z " />
<glyph glyph-name="uni021F" unicode="&#x21f;" horiz-adv-x="1227" d="M112 0 L112 1469 L336 1469 L336 883 Q377 959 471 1005 Q567 1052 659 1052 Q750 1052 819 1023 Q888 994 930 949 Q973 903 998 841 Q1025 778 1035 717 Q1045 656 1045 589 L1045 0 L821 0 L821 593 Q821 740 773.5 805.5 Q726 871 625 871 Q513 871 425 795 Q336 718 336 620 L336 0 L112 0 Z M597 1159 L330 1528 L544 1528 L685 1333 L826 1528 L1048 1528 L783 1159 L597 1159 Z " />
<glyph glyph-name="uni0226" unicode="&#x226;" horiz-adv-x="1434" d="M568 1650 L568 1860 L790 1860 L790 1650 L568 1650 Z M446 576 L892 576 Q846 708 791 863 Q736 1018 671 1199 L446 576 Z M-22 0 L557 1456 L793 1456 L1377 0 L1120 0 L973 373 L373 373 L229 0 L-22 0 Z " />
<glyph glyph-name="uni0227" unicode="&#x227;" horiz-adv-x="1283" d="M487 1220 L487 1430 L709 1430 L709 1220 L487 1220 Z M592 159 Q739 159 811 256 Q883 353 883 517 Q883 676 808 774 Q735 871 589 871 Q441 871 364 773 Q288 676 288 515 Q288 356 364 258 Q440 159 592 159 Z M561 -23 Q441 -23 344 21.5 Q247 66 187 141 Q127 216 95.5 309.5 Q64 403 64 506 Q64 615 97 712.5 Q130 810 193 886 Q256 962 351.5 1007 Q447 1052 565 1052 Q668 1052 747.5 1008.5 Q827 965 875 892 L875 1026 L1094 1026 L1094 0 L871 0 L871 154 Q825 73 744.5 25 Q664 -23 561 -23 Z " />
<glyph glyph-name="uni0228" unicode="&#x228;" horiz-adv-x="1221" d="M634 -476 Q523 -476 429 -432 L442 -302 Q514 -333 600 -333 Q651 -333 682 -314.5 Q713 -296 713 -257 Q713 -177 558 -166 L531 -164 L562 23 L676 23 L657 -97 Q778 -108 838.5 -155 Q899 -202 899 -274 Q899 -371 824 -423 Q750 -476 634 -476 Z M154 0 L154 1456 L1055 1456 L1055 1260 L384 1260 L384 849 L1017 849 L1017 652 L385 652 L385 196 L1084 196 L1084 0 L154 0 Z " />
<glyph glyph-name="uni0229" unicode="&#x229;" horiz-adv-x="1188" d="M303 628 L833 628 Q820 749 756 813 Q692 877 590 877 Q476 877 401 811.5 Q326 746 303 628 Z M610 -23 Q358 -23 211 124 Q64 271 64 512 Q64 662 125 783 Q186 904 305 978 Q424 1052 580 1052 Q695 1052 783 1011.5 Q871 971 925 898 Q979 826 1006 732 Q1033 638 1033 523 Q1033 512 1031.5 501 Q1030 490 1028 477 L298 477 Q304 319 393 239 Q482 159 627 159 Q803 159 949 271 L1012 107 Q840 -23 610 -23 Z M623 -476 Q512 -476 418 -432 L431 -302 Q503 -333 589 -333 Q640 -333 671 -314.5 Q702 -296 702 -257 Q702 -177 547 -166 L520 -164 L551 23 L665 23 L646 -97 Q767 -108 827.5 -155 Q888 -202 888 -274 Q888 -371 813 -423 Q739 -476 623 -476 Z " />
<glyph glyph-name="uni022E" unicode="&#x22e;" horiz-adv-x="1653" d="M681 1650 L681 1860 L903 1860 L903 1650 L681 1650 Z M790 -23 Q452 -23 259 181 Q66 386 66 733 Q66 955 151 1124 Q236 1293 402 1388 Q569 1483 793 1483 Q956 1484 1088.5 1429.5 Q1221 1375 1315 1275 Q1409 1175 1459 1036.5 Q1509 898 1507 733 Q1507 387 1316 181 Q1125 -23 790 -23 Z M786 174 Q1019 174 1138 321 Q1257 469 1257 733 Q1257 988 1138 1137 Q1019 1286 790 1286 Q560 1286 437 1136 Q314 987 314 733 Q314 469 433 321 Q553 174 786 174 Z " />
<glyph glyph-name="uni022F" unicode="&#x22f;" horiz-adv-x="1274" d="M600 -23 Q470 -23 367 19 Q264 61 198 134 Q132 207 98 303 Q64 399 64 513 Q64 667 124 787 Q184 908 307 980 Q431 1052 601 1052 Q732 1052 833.5 1011.5 Q935 971 999 896 Q1063 823 1096.5 726 Q1130 629 1130 511 Q1130 399 1096 304 Q1062 209 996 134 Q932 61 830 19 Q728 -23 600 -23 Z M599 159 Q747 159 821 258 Q896 357 896 514 Q896 674 820 772 Q743 871 598 871 Q451 871 375 772 Q298 672 298 514 Q298 356 374 258 Q450 159 599 159 Z M491 1220 L491 1430 L713 1430 L713 1220 L491 1220 Z " />
<glyph glyph-name="uni0232" unicode="&#x232;" horiz-adv-x="1257" d="M347 1632 L347 1777 L957 1777 L957 1632 L347 1632 Z M469 0 L469 567 L-42 1456 L217 1456 L588 771 L960 1456 L1224 1456 L699 570 L699 0 L469 0 Z " />
<glyph glyph-name="uni0233" unicode="&#x233;" horiz-adv-x="1098" d="M196 -441 L102 -289 Q171 -264 222.5 -235.5 Q274 -207 311 -175.5 Q348 -144 372 -108 Q396 -72 408 -31 L422 19 L-6 1026 L226 1026 L531 258 L803 1026 L1030 1026 L614 -56 Q585 -131 542.5 -193 Q500 -255 446.5 -303 Q393 -351 329.5 -385.5 Q266 -420 196 -441 Z M269 1202 L269 1347 L879 1347 L879 1202 L269 1202 Z " />
<glyph glyph-name="uni0237" unicode="&#x237;" horiz-adv-x="544" d="M56 -394 Q-3 -394 -101 -375 L-89 -208 Q-19 -224 26 -224 Q66 -224 96 -210.5 Q126 -197 145.5 -166.5 Q165 -136 174.5 -87 Q184 -38 184 32 L184 1026 L401 1026 L401 55 Q401 -21 393.5 -81 Q386 -141 364 -202 Q341 -264 305 -303 Q268 -343 204.5 -368.5 Q141 -394 56 -394 Z " />
<glyph glyph-name="afii57929" unicode="&#x2bc;" horiz-adv-x="600" d="M-2 1241 L84 1805 L344 1805 L162 1241 L-2 1241 Z " />
<glyph glyph-name="circumflex" unicode="&#x2c6;" horiz-adv-x="699" d="M-49 1159 L200 1527 L416 1527 L669 1159 L465 1159 L307 1355 L148 1159 L-49 1159 Z " />
<glyph glyph-name="caron" unicode="&#x2c7;" horiz-adv-x="699" d="M218 1159 L-49 1528 L165 1528 L306 1333 L447 1528 L669 1528 L404 1159 L218 1159 Z " />
<glyph glyph-name="uni02C9" unicode="&#x2c9;" horiz-adv-x="600" d="M-38 1333 L626 1333 L626 1489 L-38 1489 L-38 1333 Z " />
<glyph glyph-name="breve" unicode="&#x2d8;" horiz-adv-x="668" d="M296 1174 Q9 1174 -10 1456 L148 1456 Q154 1385 192.5 1358.5 Q231 1332 296 1332 Q359 1332 397 1358.5 Q435 1385 442 1456 L597 1456 Q579 1174 296 1174 Z " />
<glyph glyph-name="dotaccent" unicode="&#x2d9;" horiz-adv-x="524" d="M106 1220 L106 1430 L328 1430 L328 1220 L106 1220 Z " />
<glyph glyph-name="ring" unicode="&#x2da;" horiz-adv-x="672" d="M292 1135 Q204 1135 140 1194 Q78 1254 78 1342 Q78 1431 140 1490 Q202 1549 292 1549 Q381 1549 443 1490 Q505 1431 505 1342 Q505 1254 443 1194 Q381 1135 292 1135 Z M291 1233 Q334 1233 366 1265 Q398 1297 398 1342 Q398 1386 366 1418 Q334 1450 291 1450 Q269 1450 249.5 1441.5 Q230 1433 216 1418.5 Q202 1404 193.5 1384 Q185 1364 185 1342 Q185 1296 216 1265 Q248 1233 291 1233 Z " />
<glyph glyph-name="ogonek" unicode="&#x2db;" horiz-adv-x="508" d="M214 -392 Q164 -392 123 -382.5 Q82 -373 52.5 -354.5 Q23 -336 6.5 -308 Q-10 -280 -10 -243 Q-10 -195 12.5 -152.5 Q35 -110 77 -76 Q118 -43 151 -22.5 Q184 -2 226 19 L347 17 Q279 -24 233 -85 Q188 -147 188 -193 Q188 -256 277 -256 Q324 -256 436 -225 L436 -355 Q316 -392 214 -392 Z " />
<glyph glyph-name="tilde" unicode="&#x2dc;" horiz-adv-x="711" d="M463 1166 Q412 1166 309 1218 Q205 1271 176 1271 Q149 1271 130 1246.5 Q111 1222 106 1171 L-38 1171 Q-38 1291 18 1367 Q73 1442 166 1442 Q215 1442 275 1416 Q304 1403 331 1390 Q358 1377 383 1364 Q455 1326 487.5 1342.5 Q520 1359 522 1442 L670 1442 Q670 1307 615 1236.5 Q560 1166 463 1166 Z " />
<glyph glyph-name="hungarumlaut" unicode="&#x2dd;" horiz-adv-x="969" d="M353 1138 L596 1510 L860 1510 L520 1138 L353 1138 Z M27 1138 L234 1510 L484 1510 L188 1138 L27 1138 Z " />
<glyph glyph-name="uni0307" unicode="&#x307;" horiz-adv-x="524" d="M154 1221 L154 1426 L370 1426 L370 1221 L154 1221 Z " />
<glyph glyph-name="uni030F" unicode="&#x30f;" horiz-adv-x="969" d="M703 1170 L410 1550 L650 1550 L860 1170 L703 1170 Z M365 1170 L32 1550 L281 1550 L527 1170 L365 1170 Z " />
<glyph glyph-name="uni0311" unicode="&#x311;" horiz-adv-x="629" d="M18 1173 Q28 1304 107.5 1372 Q187 1440 314 1440 Q441 1440 520.5 1372.5 Q600 1305 610 1173 L469 1173 Q465 1204 451 1227 Q437 1250 416.5 1265 Q396 1280 370 1287.5 Q344 1295 316 1295 Q287 1295 261 1287.5 Q235 1280 214 1265 Q193 1250 179 1227 Q165 1204 161 1173 L18 1173 Z " />
<glyph glyph-name="uni0312" unicode="&#x312;" horiz-adv-x="600" d="M544 1704 L434 1203 L182 1203 L356 1704 L544 1704 Z " />
<glyph glyph-name="uni0326" unicode="&#x326;" horiz-adv-x="540" d="M88 -631 L199 -138 L452 -138 L276 -631 L88 -631 Z " />
<glyph glyph-name="uni0358" unicode="&#x358;" horiz-adv-x="524" d="M154 1221 L154 1426 L370 1426 L370 1221 L154 1221 Z " />
<glyph glyph-name="uni0394" unicode="&#x394;" horiz-adv-x="1390" d="M300 183 L1064 183 L682 1195 L300 183 Z M61 0 L61 147 L589 1456 L810 1456 L1328 154 L1328 0 L61 0 Z " />
<glyph glyph-name="Sigma" unicode="&#x3a3;" horiz-adv-x="1236" d="M114 -179 L114 -60 L619 646 L136 1340 L136 1456 L1108 1456 L1108 1274 L441 1274 L876 650 L422 9 L1150 9 L1150 -179 L114 -179 Z " />
<glyph glyph-name="uni03A9" unicode="&#x3a9;" horiz-adv-x="1603" d="M82 0 L60 181 L377 180 Q239 291 167.5 453 Q96 615 96 811 Q96 1012 187 1164 Q278 1318 437 1399 Q595 1481 796 1481 Q1103 1481 1294 1294 Q1487 1107 1487 808 Q1487 613 1413 452 Q1339 291 1203 180 L1510 181 L1491 0 L911 0 L911 156 Q1060 255 1153 422 Q1247 589 1247 781 Q1247 853 1233 921 Q1219 989 1185 1058 Q1168 1092 1147 1121.5 Q1126 1151 1100 1176 Q1049 1227 971 1258.5 Q893 1290 794 1290 Q698 1290 620 1260.5 Q542 1231 490 1180 Q450 1141 421 1094.5 Q392 1048 373 996.5 Q354 945 345 890.5 Q336 836 336 782 Q336 591 428 421 Q520 253 670 156 L670 0 L82 0 Z " />
<glyph glyph-name="uni03BC" unicode="&#x3bc;" horiz-adv-x="1221" d="M818 1082 L1089 1082 L1089 0 L856 0 L842 148 Q790 70 710 25 Q630 -20 513 -20 Q456 -20 404 -9 L404 -308 L133 -308 L133 1082 L404 1082 L404 431 Q404 289 447.5 225 Q491 161 589 161 Q729 161 818 277 L818 1082 Z " />
<glyph glyph-name="pi" unicode="&#x3c0;" horiz-adv-x="1468" d="M1106 -13 Q988 -13 926 44 Q864 101 864 231 Q864 333 885 522 Q896 618 908 705.5 Q920 793 934 874 L586 874 L560 326 Q556 256 544.5 207.5 Q533 159 505 118 Q476 76 429 53 Q381 30 308.5 17 Q236 4 131 4 L131 112 Q166 112 202.5 125.5 Q239 139 276 169 Q313 199 340.5 256 Q368 313 378 391 L442 874 L347 874 Q290 873 257.5 838 Q225 803 215 742 L119 742 Q119 915 189 998 Q259 1082 432 1082 L1326 1082 L1326 874 L1088 874 Q1077 729 1071 585 Q1065 441 1065 294 Q1065 153 1177 153 Q1227 153 1284 173 L1284 44 Q1225 -13 1106 -13 Z " />
<glyph glyph-name="uni1E02" unicode="&#x1e02;" horiz-adv-x="1361" d="M498 1650 L498 1860 L720 1860 L720 1650 L498 1650 Z M384 852 L607 852 Q667 852 715 862 Q763 872 806 894 Q849 917 873 960 Q897 1003 897 1063 Q897 1178 816 1219 Q734 1260 568 1260 L384 1260 L384 852 Z M385 197 L638 197 Q797 197 880 255.5 Q963 314 963 426 Q963 561 886 611 Q809 662 622 662 L385 662 L385 197 Z M154 0 L154 1456 L543 1456 Q607 1456 657 1453 Q683 1452 712 1449.5 Q741 1447 773 1442 Q835 1435 887 1419 Q911 1411 936.5 1400.5 Q962 1390 986 1376.5 Q1010 1363 1031 1346.5 Q1052 1330 1068 1312 Q1100 1275 1120.5 1219 Q1141 1163 1141 1093 Q1141 985 1089 903 Q1037 821 926 778 Q995 763 1047.5 730.5 Q1100 698 1135.5 651.5 Q1171 605 1189.5 545.5 Q1208 486 1208 417 Q1208 332 1175 259 Q1142 186 1078 126 Q1015 68 912.5 34 Q810 0 679 0 L154 0 Z " />
<glyph glyph-name="uni1E03" unicode="&#x1e03;" horiz-adv-x="1283" d="M583 1220 L583 1430 L805 1430 L805 1220 L583 1220 Z M628 159 Q764 159 834 259 Q904 359 904 519 Q904 674 832 772 Q760 871 630 871 Q492 871 411 770 Q331 669 331 515 Q331 359 409 259 Q488 159 628 159 Z M664 -23 Q553 -23 465 26 Q377 76 339 145 L339 0 L111 0 Q115 105 116.5 172.5 Q118 240 118 272 L118 1469 L342 1469 L342 872 Q365 928 441 985 Q480 1014 540.5 1033 Q601 1052 673 1052 Q887 1052 1013 906 Q1139 760 1139 524 Q1139 281 1002 129 Q865 -23 664 -23 Z " />
<glyph glyph-name="uni1E0A" unicode="&#x1e0a;" horiz-adv-x="1555" d="M560 1650 L560 1860 L782 1860 L782 1650 L560 1650 Z M154 0 L154 1456 L530 1456 Q963 1456 1186 1275.5 Q1409 1095 1409 733 Q1409 379 1198 189 Q988 0 591 0 L154 0 Z M384 196 L604 196 Q742 196 847 231.5 Q952 267 1023 335.5 Q1094 404 1130 504.5 Q1166 605 1166 734 Q1166 999 1016 1129.5 Q866 1260 553 1260 L384 1260 L384 196 Z " />
<glyph glyph-name="uni1E0B" unicode="&#x1e0b;" horiz-adv-x="1267" d="M407 1220 L407 1430 L629 1430 L629 1220 L407 1220 Z M575 159 Q712 159 783 258 Q853 358 853 518 Q853 672 782 772 Q711 871 577 871 Q442 871 370 772 Q298 673 298 514 Q298 356 368 258 Q438 159 575 159 Z M534 -23 Q330 -23 197 122 Q64 267 64 508 Q64 621 95.5 720 Q127 819 188 893 Q249 967 339.5 1009.5 Q430 1052 549 1052 Q658 1052 738 1005 Q818 958 847 902 L847 1469 L1071 1469 L1071 270 Q1071 247 1072.5 179.5 Q1074 112 1078 0 L850 0 L848 147 Q821 82 740 30 Q660 -23 534 -23 Z " />
<glyph glyph-name="uni1E1E" unicode="&#x1e1e;" horiz-adv-x="1133" d="M494 1650 L494 1860 L716 1860 L716 1650 L494 1650 Z M154 0 L154 1456 L1023 1456 L1023 1260 L384 1260 L384 847 L984 847 L984 650 L384 650 L384 0 L154 0 Z " />
<glyph glyph-name="uni1E1F" unicode="&#x1e1f;" horiz-adv-x="784" d="M217 0 L217 876 L30 876 L30 1026 L217 1026 L217 1080 Q217 1138 219.5 1178.5 Q222 1219 229 1261 Q236 1303 249 1331 Q262 1359 283 1386 Q323 1437 408.5 1460 Q494 1483 635 1483 L686 1483 L679 1310 Q596 1310 549 1301.5 Q502 1293 476 1271 Q461 1256 453 1230 Q444 1202 442 1171.5 Q440 1141 440 1089 L440 1026 L677 1026 L677 876 L440 876 L440 0 L217 0 Z M226 1650 L226 1860 L448 1860 L448 1650 L226 1650 Z " />
<glyph glyph-name="uni1E40" unicode="&#x1e40;" horiz-adv-x="1961" d="M833 1650 L833 1860 L1055 1860 L1055 1650 L833 1650 Z M154 0 L154 1456 L428 1456 L650 953 Q746 736 819 573 Q892 410 943 296 Q990 404 1118 694 Q1246 984 1455 1456 L1727 1456 L1727 0 L1511 0 L1511 1080 Q1461 974 1391 819.5 Q1321 665 1229 457 Q1138 250 1087.5 136.5 Q1037 23 1026 0 L857 0 L633 499 L375 1073 L375 0 L154 0 Z " />
<glyph glyph-name="uni1E41" unicode="&#x1e41;" horiz-adv-x="1853" d="M126 0 L126 714 Q126 780 123 840 Q120 900 116 951.5 Q112 1003 111 1026 L346 1026 L346 880 Q384 957 468 1004 Q553 1052 649 1052 Q700 1052 746 1039 Q792 1026 832 1000.5 Q872 975 903.5 937 Q935 899 956 850 Q1016 944 1103.5 998 Q1191 1052 1305 1052 Q1395 1052 1463.5 1023 Q1532 994 1577.5 939.5 Q1623 885 1646.5 806.5 Q1670 728 1670 629 L1670 0 L1446 0 L1446 612 Q1446 648 1442.5 679.5 Q1439 711 1432 739 Q1418 796 1380 833.5 Q1342 871 1284 871 Q1171 871 1092 783 Q1012 695 1012 583 L1012 0 L788 0 L788 629 Q788 677 780 716 Q772 755 753 792 Q735 829 699.5 850 Q664 871 613 871 Q503 871 426 794 Q350 718 350 617 L350 0 L126 0 Z M834 1220 L834 1430 L1056 1430 L1056 1220 L834 1220 Z " />
<glyph glyph-name="uni1E56" unicode="&#x1e56;" horiz-adv-x="1283" d="M508 1650 L508 1860 L730 1860 L730 1650 L508 1650 Z M384 837 L620 837 Q692 837 750.5 845.5 Q809 854 850 877 Q891 900 913.5 940.5 Q936 981 936 1045 Q936 1121 911 1162.5 Q886 1204 841 1227 Q814 1241 768 1248 Q721 1255 681 1257 Q661 1258 635 1258.5 Q609 1259 577 1259 L384 1259 L384 837 Z M154 0 L154 1456 L569 1456 Q610 1456 645 1455 Q680 1454 711 1452 Q742 1450 773.5 1446.5 Q805 1443 838 1438 Q908 1427 952 1410 Q1000 1392 1044 1361.5 Q1088 1331 1115 1288 Q1143 1246 1159 1185.5 Q1175 1125 1175 1047 Q1175 954 1150 885.5 Q1125 817 1079 769 Q1006 699 892.5 669 Q779 639 624 640 L384 640 L384 0 L154 0 Z " />
<glyph glyph-name="uni1E57" unicode="&#x1e57;" horiz-adv-x="1267" d="M616 159 Q752 159 821 258 Q890 358 890 516 Q890 675 820 772 Q749 871 617 871 Q482 871 410 771 Q338 670 338 511 Q338 355 408 257 Q479 159 616 159 Z M126 -405 L126 703 Q126 760 111 1026 L348 1026 L348 867 Q368 935 458 993 Q550 1052 671 1052 Q808 1052 912 980 Q1017 908 1070.5 790 Q1124 672 1124 525 Q1124 377 1070 253 Q1016 130 909 53 Q803 -23 663 -23 Q545 -23 454 33 Q364 91 348 149 L348 -405 L126 -405 Z M529 1220 L529 1430 L751 1430 L751 1220 L529 1220 Z " />
<glyph glyph-name="uni1E60" unicode="&#x1e60;" horiz-adv-x="1244" d="M470 1650 L470 1860 L692 1860 L692 1650 L470 1650 Z M577 -23 Q420 -23 285 26 Q148 75 81 143 L181 309 Q245 257 356 215 Q470 174 565 174 Q843 174 843 390 Q843 413 841.5 431 Q840 449 835.5 465 Q831 481 822.5 495 Q814 509 801 524 Q776 554 728.5 578 Q681 602 600 629 Q589 633 572 638.5 Q555 644 532 651 L470 672 Q403 694 349.5 717.5 Q296 741 256 766 Q175 817 131.5 896.5 Q88 976 88 1091 Q88 1219 155 1308 Q222 1399 331.5 1441 Q441 1483 583 1483 Q709 1483 807 1460 Q904 1437 958 1405 Q1013 1373 1066 1321 L948 1167 Q918 1197 880 1219 Q842 1241 799 1256 Q756 1271 709.5 1278.5 Q663 1286 615 1286 Q491 1286 411 1239 Q333 1192 333 1100 Q334 1053 342 1022 Q350 991 374 966.5 Q398 942 442.5 920 Q487 898 563 871 Q627 851 660.5 840 Q694 829 698 827 Q919 752 1003 656 Q1087 561 1087 387 Q1087 281 1045.5 200.5 Q1004 120 932 72 Q787 -23 577 -23 Z " />
<glyph glyph-name="uni1E61" unicode="&#x1e61;" horiz-adv-x="988" d="M490 -23 Q356 -23 248 16 Q138 56 78 104 L136 268 Q197 222 290 189 Q383 156 472 156 Q650 156 650 287 Q650 337 613 364 Q575 393 456 433 L360 466 Q326 478 299 488.5 Q272 499 249 510 Q226 521 206 534 Q186 547 165 564 Q123 597 104 645 Q85 693 85 759 Q85 837 116.5 892.5 Q148 948 200.5 983 Q253 1018 320 1034 Q387 1050 459 1050 Q564 1050 657.5 1024 Q751 998 817 955 L757 799 Q705 827 626 850 Q548 873 481 873 Q304 873 304 767 Q304 719 335 695 Q367 671 474 633 Q476 632 488 628 Q500 624 523 616 L575 598 Q604 588 627.5 578.5 Q651 569 670 561 Q706 545 746 519 Q774 500 795 478 Q816 456 829.5 428.5 Q843 401 850 366.5 Q857 332 859 288 Q859 203 826.5 141 Q794 79 739 44 Q630 -23 490 -23 Z M346 1220 L346 1430 L568 1430 L568 1220 L346 1220 Z " />
<glyph glyph-name="uni1E6A" unicode="&#x1e6a;" horiz-adv-x="1167" d="M438 1650 L438 1860 L660 1860 L660 1650 L438 1650 Z M426 0 L426 1260 L-29 1260 L-29 1456 L1116 1456 L1116 1260 L656 1260 L656 0 L426 0 Z " />
<glyph glyph-name="uni1E6B" unicode="&#x1e6b;" horiz-adv-x="820" d="M694 1 L598 1 Q490 1 417 15 Q347 28 291 68 Q236 107 211.5 180 Q187 253 187 368 L187 876 L-17 876 L-17 1026 L193 1026 L193 1276 L410 1341 L410 1026 L690 1026 L690 876 L410 876 L410 355 Q410 292 421 257.5 Q432 223 467 203 Q484 193 505 186.5 Q526 180 551 178 Q576 176 611 174.5 Q646 173 694 173 L694 1 Z M198 1514 L198 1724 L420 1724 L420 1514 L198 1514 Z " />
<glyph glyph-name="Wgrave" unicode="&#x1e80;" horiz-adv-x="2052" d="M893 1600 L548 1941 L836 1941 L1092 1600 L893 1600 Z M384 0 L-24 1456 L222 1456 L318 1085 Q350 964 378.5 854.5 Q407 745 432 646 Q458 547 481 454.5 Q504 362 525 272 Q550 363 576.5 456 Q603 549 632 647 Q661 746 695 855 Q729 964 767 1087 Q843 1331 881 1456 L1105 1456 L1383 562 L1467 269 Q1487 359 1509 452 Q1531 545 1556 645 L1665 1083 L1758 1456 L1996 1456 L1598 0 L1331 0 L987 1141 L647 0 L384 0 Z " />
<glyph glyph-name="wgrave" unicode="&#x1e81;" horiz-adv-x="1669" d="M342 0 L-18 1026 L220 1026 Q299 772 358.5 584.5 Q418 397 458 271 L591 668 L712 1026 L914 1026 L1036 647 L1157 269 Q1197 397 1256 584.5 Q1315 772 1396 1026 L1607 1026 L1236 0 L1043 0 Q937 316 876 500.5 Q815 685 798 738 L666 369 L536 0 L342 0 Z M718 1170 L373 1511 L661 1511 L917 1170 L718 1170 Z " />
<glyph glyph-name="Wacute" unicode="&#x1e82;" horiz-adv-x="2052" d="M898 1600 L1152 1940 L1440 1940 L1098 1600 L898 1600 Z M384 0 L-24 1456 L222 1456 L318 1085 Q350 964 378.5 854.5 Q407 745 432 646 Q458 547 481 454.5 Q504 362 525 272 Q550 363 576.5 456 Q603 549 632 647 Q661 746 695 855 Q729 964 767 1087 Q843 1331 881 1456 L1105 1456 L1383 562 L1467 269 Q1487 359 1509 452 Q1531 545 1556 645 L1665 1083 L1758 1456 L1996 1456 L1598 0 L1331 0 L987 1141 L647 0 L384 0 Z " />
<glyph glyph-name="wacute" unicode="&#x1e83;" horiz-adv-x="1669" d="M342 0 L-18 1026 L220 1026 Q299 772 358.5 584.5 Q418 397 458 271 L591 668 L712 1026 L914 1026 L1036 647 L1157 269 Q1197 397 1256 584.5 Q1315 772 1396 1026 L1607 1026 L1236 0 L1043 0 Q937 316 876 500.5 Q815 685 798 738 L666 369 L536 0 L342 0 Z M722 1170 L976 1510 L1264 1510 L922 1170 L722 1170 Z " />
<glyph glyph-name="Wdieresis" unicode="&#x1e84;" horiz-adv-x="2052" d="M1094 1595 L1094 1810 L1319 1810 L1319 1595 L1094 1595 Z M658 1595 L658 1810 L883 1810 L883 1595 L658 1595 Z M384 0 L-24 1456 L222 1456 L318 1085 Q350 964 378.5 854.5 Q407 745 432 646 Q458 547 481 454.5 Q504 362 525 272 Q550 363 576.5 456 Q603 549 632 647 Q661 746 695 855 Q729 964 767 1087 Q843 1331 881 1456 L1105 1456 L1383 562 L1467 269 Q1487 359 1509 452 Q1531 545 1556 645 L1665 1083 L1758 1456 L1996 1456 L1598 0 L1331 0 L987 1141 L647 0 L384 0 Z " />
<glyph glyph-name="wdieresis" unicode="&#x1e85;" horiz-adv-x="1669" d="M342 0 L-18 1026 L220 1026 Q299 772 358.5 584.5 Q418 397 458 271 L591 668 L712 1026 L914 1026 L1036 647 L1157 269 Q1197 397 1256 584.5 Q1315 772 1396 1026 L1607 1026 L1236 0 L1043 0 Q937 316 876 500.5 Q815 685 798 738 L666 369 L536 0 L342 0 Z M918 1165 L918 1380 L1143 1380 L1143 1165 L918 1165 Z M482 1165 L482 1380 L707 1380 L707 1165 L482 1165 Z " />
<glyph glyph-name="uni1EBC" unicode="&#x1ebc;" horiz-adv-x="1221" d="M730 1596 Q679 1596 576 1648 Q472 1701 443 1701 Q416 1701 397 1676.5 Q378 1652 373 1601 L229 1601 Q229 1721 285 1797 Q340 1872 433 1872 Q482 1872 542 1846 Q571 1833 598 1820 Q625 1807 650 1794 Q722 1756 754.5 1772.5 Q787 1789 789 1872 L937 1872 Q937 1737 882 1666.5 Q827 1596 730 1596 Z M154 0 L154 1456 L1055 1456 L1055 1260 L384 1260 L384 849 L1017 849 L1017 652 L385 652 L385 196 L1084 196 L1084 0 L154 0 Z " />
<glyph glyph-name="uni1EBD" unicode="&#x1ebd;" horiz-adv-x="1188" d="M703 1166 Q652 1166 549 1218 Q445 1271 416 1271 Q389 1271 370 1246.5 Q351 1222 346 1171 L202 1171 Q202 1291 258 1367 Q313 1442 406 1442 Q455 1442 515 1416 Q544 1403 571 1390 Q598 1377 623 1364 Q695 1326 727.5 1342.5 Q760 1359 762 1442 L910 1442 Q910 1307 855 1236.5 Q800 1166 703 1166 Z M303 628 L833 628 Q820 749 756 813 Q692 877 590 877 Q476 877 401 811.5 Q326 746 303 628 Z M610 -23 Q358 -23 211 124 Q64 271 64 512 Q64 662 125 783 Q186 904 305 978 Q424 1052 580 1052 Q695 1052 783 1011.5 Q871 971 925 898 Q979 826 1006 732 Q1033 638 1033 523 Q1033 512 1031.5 501 Q1030 490 1028 477 L298 477 Q304 319 393 239 Q482 159 627 159 Q803 159 949 271 L1012 107 Q840 -23 610 -23 Z " />
<glyph glyph-name="Ygrave" unicode="&#x1ef2;" horiz-adv-x="1257" d="M513 1600 L168 1941 L456 1941 L712 1600 L513 1600 Z M469 0 L469 567 L-42 1456 L217 1456 L588 771 L960 1456 L1224 1456 L699 570 L699 0 L469 0 Z " />
<glyph glyph-name="ygrave" unicode="&#x1ef3;" horiz-adv-x="1098" d="M196 -441 L102 -289 Q171 -264 222.5 -235.5 Q274 -207 311 -175.5 Q348 -144 372 -108 Q396 -72 408 -31 L422 19 L-6 1026 L226 1026 L531 258 L803 1026 L1030 1026 L614 -56 Q585 -131 542.5 -193 Q500 -255 446.5 -303 Q393 -351 329.5 -385.5 Q266 -420 196 -441 Z M435 1170 L90 1511 L378 1511 L634 1170 L435 1170 Z " />
<glyph glyph-name="uni1EF8" unicode="&#x1ef8;" horiz-adv-x="1257" d="M724 1596 Q673 1596 570 1648 Q466 1701 437 1701 Q410 1701 391 1676.5 Q372 1652 367 1601 L223 1601 Q223 1721 279 1797 Q334 1872 427 1872 Q476 1872 536 1846 Q565 1833 592 1820 Q619 1807 644 1794 Q716 1756 748.5 1772.5 Q781 1789 783 1872 L931 1872 Q931 1737 876 1666.5 Q821 1596 724 1596 Z M469 0 L469 567 L-42 1456 L217 1456 L588 771 L960 1456 L1224 1456 L699 570 L699 0 L469 0 Z " />
<glyph glyph-name="uni1EF9" unicode="&#x1ef9;" horiz-adv-x="1098" d="M196 -441 L102 -289 Q171 -264 222.5 -235.5 Q274 -207 311 -175.5 Q348 -144 372 -108 Q396 -72 408 -31 L422 19 L-6 1026 L226 1026 L531 258 L803 1026 L1030 1026 L614 -56 Q585 -131 542.5 -193 Q500 -255 446.5 -303 Q393 -351 329.5 -385.5 Q266 -420 196 -441 Z M646 1166 Q595 1166 492 1218 Q388 1271 359 1271 Q332 1271 313 1246.5 Q294 1222 289 1171 L145 1171 Q145 1291 201 1367 Q256 1442 349 1442 Q398 1442 458 1416 Q487 1403 514 1390 Q541 1377 566 1364 Q638 1326 670.5 1342.5 Q703 1359 705 1442 L853 1442 Q853 1307 798 1236.5 Q743 1166 646 1166 Z " />
<glyph glyph-name="endash" unicode="&#x2013;" horiz-adv-x="1096" d="M-43 467 L-43 648 L1058 648 L1058 467 L-43 467 Z " />
<glyph glyph-name="emdash" unicode="&#x2014;" horiz-adv-x="2171" d="M-10 463 L-10 648 L2101 648 L2101 463 L-10 463 Z " />
<glyph glyph-name="afii00208" unicode="&#x2015;" horiz-adv-x="4097" d="M58 463 L58 637 L4039 637 L4039 463 L58 463 Z " />
<glyph glyph-name="quoteleft" unicode="&#x2018;" horiz-adv-x="530" d="M252 891 L90 1456 L354 1456 L396 891 L252 891 Z " />
<glyph glyph-name="quoteright" unicode="&#x2019;" horiz-adv-x="556" d="M76 892 L162 1456 L422 1456 L240 892 L76 892 Z " />
<glyph glyph-name="quotesinglbase" unicode="&#x201a;" horiz-adv-x="654" d="M109 -321 L222 244 L465 244 L303 -321 L109 -321 Z " />
<glyph glyph-name="quotedblleft" unicode="&#x201c;" horiz-adv-x="994" d="M534 891 L705 1456 L893 1456 L782 891 L534 891 Z M104 891 L285 1456 L472 1456 L360 891 L104 891 Z " />
<glyph glyph-name="quotedblright" unicode="&#x201d;" horiz-adv-x="989" d="M536 891 L646 1456 L892 1456 L727 891 L536 891 Z M146 891 L254 1456 L502 1456 L337 891 L146 891 Z " />
<glyph glyph-name="quotedblbase" unicode="&#x201e;" horiz-adv-x="1024" d="M461 -226 L571 244 L818 244 L653 -226 L461 -226 Z M73 -226 L182 244 L429 244 L269 -226 L73 -226 Z " />
<glyph glyph-name="dagger" unicode="&#x2020;" horiz-adv-x="1022" d="M376 64 L376 878 L50 878 L50 1049 L376 1049 L376 1436 L558 1436 L558 1049 L891 1049 L891 878 L555 878 L555 64 L376 64 Z " />
<glyph glyph-name="daggerdbl" unicode="&#x2021;" horiz-adv-x="1140" d="M101 1051 L437 1051 L437 1456 L633 1456 L633 1051 L964 1051 L964 899 L633 899 L633 524 L955 524 L955 378 L633 378 L633 -48 L437 -48 L437 378 L97 378 L97 524 L437 524 L437 899 L101 899 L101 1051 Z " />
<glyph glyph-name="bullet" unicode="&#x2022;" horiz-adv-x="989" d="M457 366 Q310 366 216 460 Q123 554 123 686 Q123 820 220 914 Q317 1010 457 1010 Q600 1010 698 914 Q795 818 795 686 Q795 555 697 460 Q600 366 457 366 Z " />
<glyph glyph-name="ellipsis" unicode="&#x2026;" horiz-adv-x="1620" d="M1141 -11 L1141 242 L1416 242 L1416 -11 L1141 -11 Z M614 -11 L614 242 L891 242 L892 -11 L614 -11 Z M87 -11 L87 242 L364 242 L365 -11 L87 -11 Z " />
</font>
</svg>
