<?xml version="1.0" standalone="no"?>
<!DOCTYPE svg PUBLIC "-//W3C//DTD SVG 1.1//EN" "http://www.w3.org/Graphics/SVG/1.1/DTD/svg11.dtd" >
<svg xmlns="http://www.w3.org/2000/svg">
<metadata>Generated by IcoMoon</metadata>
<defs>
<font id="icomoon" horiz-adv-x="1024">
<font-face units-per-em="1024" ascent="960" descent="-64" />
<missing-glyph horiz-adv-x="1024" />
<glyph unicode="&#x20;" horiz-adv-x="512" d="" />
<glyph unicode="&#x41;" glyph-name="Hertz_FIS_A_accordian_collapsed" d="M0 529.92h1024v-204.8h-1024v204.8z" />
<glyph unicode="&#x42;" glyph-name="Hertz_FIS_B_accordian_close" d="M1024 812.544l-147.456 147.456-364.544-364.544-364.544 364.544-147.456-147.456 364.544-364.544-364.544-364.544 147.456-147.456 364.544 364.544 364.544-364.544 147.456 147.456-364.544 364.544z" />
<glyph unicode="&#x43;" glyph-name="Hertz_FIS_C_arrow_down" d="M960.512 736.768l-448.512-450.56-448.512 450.56-63.488-63.488 512-514.048 512 514.048z" />
<glyph unicode="&#x44;" glyph-name="Hertz_FIS_D_check" d="M333.824 44.544l-317.44 329.728c-22.528 22.528-22.528 61.44 2.048 81.92 24.576 22.528 61.44 20.48 83.968-2.048l268.288-280.576 546.816 673.792c20.48 26.624 57.344 30.72 83.968 12.288s32.768-55.296 12.288-81.92l-587.776-729.088c-10.24-14.336-26.624-22.528-45.056-24.576-2.048 0-2.048 0-4.096 0-16.384 2.048-32.768 8.192-43.008 20.48z" />
<glyph unicode="&#x45;" glyph-name="Hertz_FIS_E_hamburger" d="M0 790.016h1024v-114.688h-1024v114.688zM0 505.344h1024v-114.688h-1024v114.688zM0 220.672h1024v-114.688h-1024v114.688z" />
<glyph unicode="&#x46;" glyph-name="Hertz_FIS_F_search" d="M974.848-64c-12.288 0-24.576 4.096-34.816 14.336l-266.24 264.192c-73.728-57.344-163.84-90.112-258.048-90.112-110.592 0-215.040 43.008-294.912 122.88-77.824 77.824-122.88 184.32-122.88 294.912 2.048 112.64 45.056 217.088 124.928 294.912 77.824 77.824 184.32 122.88 294.912 122.88s215.040-43.008 294.912-122.88c0 0 0 0 0 0 151.552-151.552 161.792-389.12 32.768-552.96l264.192-264.192c10.24-10.24 14.336-22.528 14.336-34.816s-4.096-24.576-14.336-34.816-22.528-14.336-34.816-14.336zM417.792 861.696c-83.968 0-163.84-32.768-225.28-92.16-59.392-59.392-92.16-139.264-92.16-225.28 0-83.968 32.768-163.84 92.16-225.28 59.392-59.392 139.264-92.16 225.28-92.16 83.968 0 163.84 32.768 225.28 92.16 0 0 0 0 0 0 122.88 122.88 122.88 325.632 0 448.512-61.44 59.392-141.312 94.208-225.28 94.208z" />
<glyph unicode="&#x47;" glyph-name="Hertz_FIS_G_chat" d="M698.368-64l-344.064 270.336h-196.608c-59.392 0-108.544 45.056-108.544 100.352v552.96c0 55.296 49.152 100.352 108.544 100.352h708.608c59.392 0 108.544-45.056 108.544-100.352v-555.008c0-55.296-49.152-100.352-108.544-100.352h-167.936v-268.288zM157.696 871.936c-12.288 0-20.48-8.192-20.48-12.288v-555.008c0-4.096 8.192-12.288 20.48-12.288h227.328l227.328-178.176v178.176h256c12.288 0 20.48 8.192 20.48 12.288v555.008c0 4.096-8.192 12.288-20.48 12.288h-710.656z" />
<glyph unicode="&#x48;" glyph-name="Hertz_FIS_H_arrow_down_small" d="M512 151.040l-512 512 81.92 81.92 430.080-428.032 430.080 428.032 81.92-81.92z" />
<glyph unicode="&#x49;" glyph-name="Hertz_FIS_I_carret_calendar_up" d="M0 112.128l512 675.84 512-675.84z" />
<glyph unicode="&#x4a;" glyph-name="Hertz_FIS_J_carret_calendar_down" d="M0 775.68l512-675.84 512 675.84z" />
<glyph unicode="&#x4b;" glyph-name="Hertz_FIS_K_arrow_right" d="M296.96-64l-81.92 81.92 428.032 430.080-428.032 430.080 81.92 81.92 512-512z" />
<glyph unicode="&#x4c;" glyph-name="Hertz_FIS_L_seats" d="M833.536 597.504l2.048 30.72-188.416 10.24-10.24-10.24c-20.48-22.528-49.152-79.872-77.824-184.32-16.384-65.536-32.768-145.408-43.008-237.568-2.048-14.336-14.336-26.624-28.672-26.624l-225.28-10.24c-73.728-4.096-118.784-81.92-86.016-147.456l14.336-30.72c16.384-32.768 49.152-51.2 83.968-51.2h458.752c22.528 0 40.96 16.384 43.008 38.912l57.344 618.496zM718.848-0.512h-442.368c-12.288 0-24.576 8.192-30.72 18.432l-14.336 30.72c-14.336 26.624 6.144 59.392 34.816 61.44l225.28 10.24c45.056 2.048 79.872 34.816 86.016 79.872 12.288 90.112 24.576 167.936 43.008 229.376 14.336 57.344 30.72 100.352 47.104 131.072 4.096 8.192 8.192 14.336 10.24 18.432l96.256-6.144-55.296-573.44zM804.864 957.952c-114.688 2.048-153.6-40.96-169.984-165.888v-34.816c0-26.624 20.48-49.152 47.104-51.2l122.88-8.192c16.384 0 28.672 10.24 30.72 26.624l20.48 172.032c6.144 32.768-18.432 59.392-51.2 61.44zM782.336 759.296l-86.016 6.144v22.528c10.24 90.112 26.624 110.592 102.4 108.544l-16.384-137.216z" />
<glyph unicode="&#x4d;" glyph-name="Hertz_FIS_M_suitcase" d="M143.36 17.92h151.552v751.616h-151.552v-751.616zM198.656 716.288h36.864v-645.12h-36.864v645.12zM731.136 769.536v-751.616h149.504v751.616h-149.504zM825.344 71.168h-36.864v645.12h36.864v-645.12zM653.312 878.080h-282.624c-34.816 0-63.488-26.624-63.488-61.44v-102.4h409.6v102.4c0 34.816-28.672 61.44-63.488 61.44zM661.504 769.536h-299.008v47.104c0 4.096 4.096 6.144 6.144 6.144h282.624c4.096 0 6.144-2.048 6.144-6.144v-47.104zM917.504 769.536h-811.008c-59.392 0-106.496-45.056-106.496-100.352v-550.912c0-55.296 47.104-100.352 106.496-100.352h811.008c59.392 0 106.496 45.056 106.496 100.352v550.912c0 55.296-47.104 100.352-106.496 100.352zM966.656 118.272c0-26.624-22.528-47.104-49.152-47.104h-811.008c-26.624 0-49.152 20.48-49.152 47.104v550.912c0 26.624 22.528 47.104 49.152 47.104h811.008c26.624 0 49.152-20.48 49.152-47.104v-550.912z" />
<glyph unicode="&#x4e;" glyph-name="Hertz_FIS_N_gas" d="M845.824-66.048c-43.008 0-77.824 34.816-77.824 77.824v350.208c0 6.144-6.144 12.288-12.288 12.288h-22.528v65.536h22.528c43.008 0 77.824-34.816 77.824-77.824v-350.208c0-6.144 6.144-12.288 12.288-12.288s12.288 6.144 12.288 12.288v585.728h65.536v-585.728c0-43.008-34.816-77.824-77.824-77.824zM923.648 785.92h-65.536v71.68c0 14.336-12.288 26.624-26.624 26.624v65.536c51.2 0 92.16-40.96 92.16-92.16v-71.68zM833.536 802.304h112.64v-215.040h-112.64v215.040zM88.064 962.048v-1024h659.456v1024c0 0-659.456 0-659.456 0zM681.984-2.56h-528.384v903.168h528.384v-903.168zM196.608 843.264v-354.304h440.32v354.304h-440.32zM573.44 552.448h-311.296v225.28h311.296v-225.28z" />
<glyph unicode="&#x4f;" glyph-name="Hertz_FIS_O_doors" d="M913.408-64c22.528 0 43.008 18.432 43.008 43.008v524.288c0 8.192-2.048 18.432-8.192 26.624l-317.44 413.696c-8.192 10.24-20.48 16.384-32.768 16.384h-487.424c-24.576 0-43.008-18.432-43.008-43.008v-937.984c0-24.576 18.432-43.008 43.008-43.008h802.816zM126.976 900.608h460.8l309.248-401.408v-501.76h-770.048v903.168zM600.064 849.408c-6.144 10.24-18.432 14.336-28.672 14.336h-368.64c-20.48 0-36.864-16.384-36.864-36.864v-344.064c0-20.48 16.384-36.864 36.864-36.864h626.688c30.72 0 47.104 34.816 28.672 61.44l-258.048 342.016zM225.28 505.344v299.008h335.872l223.232-299.008h-559.104zM399.36 361.984h-176.128c-16.384 0-28.672-12.288-28.672-28.672s12.288-28.672 28.672-28.672h176.128c16.384 0 28.672 12.288 28.672 28.672s-12.288 28.672-28.672 28.672z" />
<glyph unicode="&#x50;" glyph-name="Hertz_FIS_P_transmission_auto" d="M512-4.608c249.856 0 452.608 202.752 452.608 452.608s-202.752 452.608-452.608 452.608-452.608-202.752-452.608-452.608 202.752-452.608 452.608-452.608zM512-64c-282.624 0-512 229.376-512 512s229.376 512 512 512 512-229.376 512-512-229.376-512-512-512zM370.688 235.008h-83.968l174.080 436.224h77.824l178.176-436.224h-86.016l-43.008 106.496h-176.128l-40.96-106.496zM440.32 413.184h116.736c-22.528 67.584-43.008 124.928-57.344 169.984-12.288-38.912-32.768-94.208-59.392-169.984z" />
<glyph unicode="&#x51;" glyph-name="Hertz_FIS_Q_drive" d="M512 900.608c-249.856 0-452.608-202.752-452.608-452.608s202.752-452.608 452.608-452.608 452.608 202.752 452.608 452.608c0 249.856-202.752 452.608-452.608 452.608zM512 960c282.624 0 512-229.376 512-512s-229.376-512-512-512-512 229.376-512 512c0 282.624 229.376 512 512 512zM512 146.944c-165.888 0-301.056 135.168-301.056 301.056s135.168 301.056 301.056 301.056c165.888 0 301.056-135.168 301.056-301.056s-135.168-301.056-301.056-301.056zM512 206.336c133.12 0 241.664 108.544 241.664 241.664s-108.544 241.664-241.664 241.664c-133.12 0-241.664-108.544-241.664-241.664s108.544-241.664 241.664-241.664zM763.904 501.248c4.096 0 6.144 0 8.192 0-4.096 22.528-12.288 45.056-20.48 65.536-24.576-20.48-55.296-32.768-88.064-32.768-75.776 0-137.216 61.44-137.216 139.264 0 16.384 4.096 32.768 10.24 49.152-10.24 0-18.432 2.048-28.672 2.048s-20.48 0-30.72-2.048c6.144-14.336 10.24-30.72 10.24-49.152 0-75.776-61.44-139.264-139.264-139.264-32.768 0-63.488 12.288-88.064 32.768-10.24-20.48-16.384-40.96-20.48-63.488 2.048 0 6.144 0 8.192 0 75.776 0 139.264-61.44 139.264-139.264 0-49.152-24.576-90.112-63.488-114.688 14.336-14.336 30.72-26.624 49.152-34.816 16.384 59.392 69.632 102.4 133.12 102.4s116.736-43.008 133.12-102.4c18.432 10.24 34.816 22.528 49.152 34.816-36.864 24.576-63.488 67.584-63.488 114.688 2.048 75.776 63.488 137.216 139.264 137.216zM505.856 386.56c-34.816 0-61.44 26.624-61.44 61.44s26.624 61.44 61.44 61.44c34.816 0 61.44-26.624 61.44-61.44 0-32.768-26.624-61.44-61.44-61.44z" />
<glyph unicode="&#x52;" glyph-name="Hertz_FIS_v02_R_arrow_up" d="M512 744.96l512-512-81.92-81.92-430.080 428.032-430.080-428.032-81.92 81.92z" />
<glyph unicode="&#x61;" glyph-name="Hertz_FIS_a_nav_home" d="M808.96 960l-102.4-466.944h-385.024l104.448 466.944h-215.040l-210.944-1024h210.944l83.968 360.448h368.64l-79.872-360.448h217.088l223.232 1024z" />
<glyph unicode="&#x62;" glyph-name="Hertz_FIS_b_nav_profile" d="M1003.52 71.168c-26.624 59.392-118.784 98.304-208.896 133.12-20.48 8.192-38.912 16.384-55.296 22.528-51.2 22.528-61.44 47.104-65.536 59.392 63.488 65.536 100.352 174.080 100.352 303.104-2.048 235.52-98.304 370.688-266.24 370.688-174.080 0-262.144-124.928-262.144-368.64 0-118.784 40.96-229.376 108.544-299.008-2.048-22.528-2.048-34.816-67.584-63.488-16.384-8.192-36.864-14.336-55.296-22.528-90.112-36.864-184.32-73.728-210.944-135.168-30.72-69.632-18.432-112.64-18.432-116.736l6.144-18.432h1005.568l6.144 18.432c2.048 4.096 14.336 49.152-16.384 116.736zM51.2-12.8c0 14.336 4.096 34.816 16.384 63.488 18.432 40.96 108.544 77.824 182.272 106.496 20.48 8.192 38.912 16.384 57.344 24.576 88.064 38.912 96.256 69.632 98.304 108.544l2.048 22.528-10.24 8.192c-63.488 59.392-100.352 159.744-100.352 270.336 0 284.672 120.832 317.44 210.944 317.44 184.32 0 210.944-198.656 210.944-317.44s-32.768-217.088-92.16-272.384l-6.144-6.144-2.048-8.192c0-4.096-10.24-75.776 96.256-122.88 18.432-8.192 36.864-16.384 57.344-24.576 73.728-28.672 163.84-65.536 182.272-106.496v0c12.288-26.624 16.384-49.152 16.384-63.488h-919.552z" />
<glyph unicode="&#x63;" glyph-name="Hertz_FIS_c_nav_reservation" d="M1019.904-64l-221.184 16.384c-10.24 0-20.48 6.144-28.672 12.288l-12.288 12.288 6.144 98.304-114.688-8.192 8.192 114.688-98.304-6.144-102.4 102.4c-116.736-38.912-245.76-14.336-339.968 67.584-69.632 61.44-110.592 151.552-114.688 249.856-6.144 98.304 28.672 192.512 92.16 258.048v0c65.536 67.584 153.6 106.496 247.808 106.496 0 0 2.048 0 2.048 0 92.16 0 180.224-36.864 245.76-102.4 96.256-92.16 126.976-231.424 86.016-356.352l315.392-315.392c8.192-8.192 12.288-16.384 12.288-28.672l16.384-221.184zM811.008 1.536l153.6-10.24-12.288 161.792-335.872 335.872 6.144 16.384c43.008 110.592 16.384 233.472-67.584 317.44-55.296 55.296-131.072 86.016-212.992 86.016-79.872 0-155.648-32.768-210.944-90.112-55.296-55.296-83.968-135.168-79.872-219.136s38.912-161.792 98.304-212.992c83.968-71.68 198.656-92.16 303.104-53.248l16.384 6.144 110.592-110.592 133.12 8.192-8.192-114.688 114.688 8.192-8.192-129.024zM952.32 155.136c0 0 0 0 0 0v0zM280.576 538.112c-36.864 0-71.68 14.336-98.304 40.96-51.2 53.248-51.2 139.264 2.048 194.56 53.248 53.248 141.312 53.248 194.56 0s53.248-141.312 0-194.56c-26.624-26.624-61.44-40.96-98.304-40.96zM280.576 761.344c-22.528 0-45.056-8.192-61.44-24.576-34.816-34.816-34.816-88.064 0-122.88s88.064-34.816 122.88 0c34.816 34.816 34.816 88.064 0 122.88-16.384 16.384-38.912 24.576-61.44 24.576z" />
<glyph unicode="&#x64;" glyph-name="Hertz_FIS_d_nav_settings" d="M581.632-64h-141.312c-24.576 0-43.008 18.432-43.008 43.008v61.44c-32.768 8.192-63.488 22.528-94.208 38.912l-43.008-43.008c-16.384-16.384-45.056-16.384-61.44 0l-100.352 100.352c-16.384 16.384-16.384 43.008 0 61.44l45.056 43.008c-16.384 28.672-30.72 61.44-38.912 94.208h-61.44c-24.576 0-43.008 18.432-43.008 43.008v141.312c0 24.576 18.432 43.008 43.008 43.008h61.44c8.192 32.768 22.528 63.488 38.912 94.208l-43.008 43.008c-8.192 8.192-12.288 18.432-12.288 30.72s4.096 22.528 12.288 30.72l100.352 100.352c8.192 8.192 18.432 14.336 30.72 12.288 12.288 0 22.528-4.096 30.72-12.288l43.008-45.056c28.672 16.384 61.44 30.72 94.208 38.912v61.44c0 24.576 18.432 43.008 43.008 43.008h141.312c24.576 0 43.008-18.432 43.008-43.008v-61.44c32.768-8.192 63.488-22.528 94.208-38.912l43.008 43.008c8.192 8.192 18.432 12.288 30.72 12.288 0 0 0 0 0 0 12.288 0 22.528-4.096 30.72-12.288l100.352-100.352c16.384-16.384 16.384-43.008 0-61.44l-45.056-43.008c16.384-28.672 30.72-61.44 38.912-94.208h61.44c24.576 0 43.008-18.432 43.008-43.008v-141.312c0-24.576-18.432-43.008-43.008-43.008h-61.44c-8.192-32.768-22.528-63.488-38.912-94.208l43.008-43.008c16.384-16.384 16.384-43.008 0-61.44l-100.352-100.352c-16.384-16.384-45.056-16.384-61.44 0l-43.008 45.056c-30.72-16.384-61.44-30.72-94.208-38.912v-61.44c0-24.576-18.432-43.008-43.008-43.008zM446.464-14.848h129.024v94.208l18.432 4.096c40.96 10.24 79.872 24.576 114.688 47.104l16.384 10.24 67.584-67.584 92.16 92.16-65.536 67.584 10.24 16.384c22.528 34.816 38.912 73.728 47.104 114.688l4.096 18.432h94.208v129.024h-94.208l-4.096 18.432c-10.24 40.96-24.576 79.872-47.104 114.688l-10.24 18.432 67.584 67.584-92.16 92.16-67.584-67.584-16.384 10.24c-34.816 22.528-73.728 38.912-114.688 47.104l-18.432 4.096v94.208h-129.024v-94.208l-18.432-4.096c-40.96-10.24-79.872-24.576-114.688-47.104l-18.432-10.24-67.584 67.584-92.16-92.16 67.584-67.584-10.24-16.384c-22.528-34.816-38.912-73.728-47.104-114.688l-4.096-18.432h-94.208v-129.024h94.208l4.096-18.432c10.24-40.96 24.576-79.872 47.104-114.688l10.24-16.384-67.584-67.584 92.16-92.16 67.584 67.584 16.384-10.24c34.816-22.528 73.728-38.912 114.688-47.104l18.432-4.096v-96.256zM135.168 726.528v0 0 0zM790.528 824.832v0 0 0zM512 171.52c-73.728 0-143.36 28.672-196.608 79.872-67.584 67.584-94.208 163.84-73.728 258.048 22.528 102.4 104.448 184.32 206.848 206.848 94.208 20.48 190.464-6.144 258.048-73.728s94.208-163.84 73.728-258.048c-22.528-102.4-104.448-184.32-206.848-206.848v0c-18.432-4.096-40.96-6.144-61.44-6.144zM512 675.328c-16.384 0-34.816-2.048-51.2-6.144-83.968-18.432-151.552-86.016-169.984-169.984-16.384-77.824 6.144-157.696 61.44-212.992s135.168-77.824 212.992-61.44c83.968 18.432 151.552 86.016 169.984 169.984 16.384 77.824-6.144 157.696-61.44 212.992-43.008 45.056-102.4 67.584-161.792 67.584z" />
<glyph unicode="&#x65;" glyph-name="Hertz_FIS_e_nav_support" d="M61.44 960v-733.184l458.752-290.816 442.368 292.864v731.136h-901.12zM915.456 253.44l-395.264-260.096-411.648 260.096v657.408h806.912v-657.408zM468.992 370.176h79.872v-81.92h-79.872v81.92zM425.984 687.616c10.24 6.144 24.576 10.24 43.008 16.384 18.432 4.096 36.864 8.192 53.248 8.192 43.008 0 71.68-18.432 71.68-55.296 0-38.912-43.008-73.728-75.776-106.496-22.528-22.528-40.96-53.248-40.96-83.968v-45.056h59.392v24.576c0 49.152 43.008 79.872 81.92 114.688 28.672 26.624 53.248 57.344 53.248 98.304 0 51.2-28.672 88.064-69.632 104.448-20.48 8.192-43.008 12.288-69.632 12.288-38.912 0-71.68-8.192-104.448-22.528v-65.536z" />
<glyph unicode="&#x66;" glyph-name="Hertz_FIS_f_mapview" d="M1003.52 751.104l-319.488 129.024c0 0 0 0 0 0-2.048 0-2.048 0-4.096 2.048-2.048 0-2.048 0-4.096 0s-2.048 0-4.096 0-2.048 0-4.096 0-2.048 0-4.096 0-2.048 0-4.096-2.048c0 0 0 0 0 0l-307.2-124.928-307.2 124.928c-10.24 4.096-22.528 4.096-30.72-2.048s-14.336-16.384-14.336-26.624v-698.368c0-12.288 8.192-24.576 20.48-30.72l319.488-129.024c0 0 2.048 0 2.048 0s2.048 0 2.048 0 6.144-2.048 8.192-2.048c2.048 0 6.144 0 8.192 2.048 0 0 2.048 0 2.048 0s2.048 0 2.048 0l307.2 124.928 307.2-124.928c4.096-2.048 8.192-2.048 12.288-2.048 6.144 0 12.288 2.048 18.432 6.144 8.192 6.144 14.336 16.384 14.336 26.624v696.32c0 14.336-8.192 26.624-20.48 30.72zM65.536 802.304l256-102.4v-628.736l-256 102.4v628.736zM385.024 699.904l253.952 102.4v-628.736l-253.952-102.4v628.736zM958.464 71.168l-253.952 102.4v628.736l253.952-102.4v-628.736z" />
<glyph unicode="&#x67;" glyph-name="Hertz_FIS_g_listview" d="M798.72 687.616v-67.584h-409.6v67.584h409.6zM389.12 413.184h409.6v67.584h-409.6v-67.584zM389.12 208.384h409.6v67.584h-409.6v-67.584zM251.904 617.984h67.584v67.584h-67.584v-67.584zM251.904 413.184h67.584v67.584h-67.584v-67.584zM251.904 208.384h67.584v67.584h-67.584v-67.584zM935.936 960v-1024h-819.2v1024h819.2zM866.304 892.416h-681.984v-886.784h681.984v886.784z" />
<glyph unicode="&#x68;" glyph-name="Hertz_FIS_h_info_modal" d="M512-64c-282.624 0-512 229.376-512 512s229.376 512 512 512 512-229.376 512-512-229.376-512-512-512zM512 882.176c-239.616 0-434.176-194.56-434.176-434.176s194.56-434.176 434.176-434.176 434.176 194.56 434.176 434.176-194.56 434.176-434.176 434.176zM565.248 529.92v-294.912c0-22.528 2.048-38.912 4.096-45.056 4.096-8.192 8.192-12.288 14.336-16.384s18.432-6.144 34.816-6.144v-14.336h-178.176v14.336c18.432 0 30.72 2.048 36.864 6.144s10.24 8.192 14.336 16.384c4.096 8.192 6.144 22.528 6.144 45.056v141.312c0 38.912-2.048 65.536-4.096 77.824-2.048 8.192-4.096 14.336-8.192 18.432s-10.24 4.096-16.384 4.096c-8.192 0-16.384-2.048-26.624-6.144l-6.144 14.336 110.592 45.056h18.432zM532.48 720.384c10.24 0 20.48-4.096 28.672-12.288s12.288-18.432 12.288-28.672-4.096-20.48-12.288-28.672c-8.192-8.192-18.432-12.288-28.672-12.288s-20.48 4.096-28.672 12.288c-8.192 8.192-12.288 18.432-12.288 28.672s4.096 20.48 12.288 28.672c6.144 8.192 16.384 12.288 28.672 12.288z" />
<glyph unicode="&#x69;" glyph-name="Hertz_FIS_i_info_expand" d="M512-64c-282.624 0-512 229.376-512 512s229.376 512 512 512 512-229.376 512-512-229.376-512-512-512zM512 882.176c-239.616 0-434.176-194.56-434.176-434.176s194.56-434.176 434.176-434.176 434.176 194.56 434.176 434.176-194.56 434.176-434.176 434.176zM479.232 292.352v49.152c0 26.624 14.336 55.296 34.816 75.776 10.24 10.24 20.48 20.48 32.768 32.768 22.528 22.528 43.008 40.96 55.296 65.536 6.144 12.288 10.24 24.576 10.24 36.864 0 22.528-8.192 40.96-24.576 51.2s-36.864 16.384-63.488 16.384c-18.432 0-36.864-2.048-55.296-8.192s-32.768-12.288-45.056-18.432v59.392c14.336 6.144 30.72 12.288 51.2 16.384s38.912 6.144 57.344 6.144c45.056 0 79.872-10.24 106.496-30.72s40.96-51.2 40.96-90.112c0-59.392-47.104-98.304-88.064-137.216-30.72-26.624-57.344-57.344-57.344-92.16v-34.816h-55.296zM473.088 159.232v77.824h65.536v-77.824h-65.536z" />
<glyph unicode="&#x6a;" glyph-name="Hertz_FIS_j_advisory_info" d="M534.528 534.016v-245.76c0-18.432 2.048-32.768 4.096-38.912s6.144-10.24 12.288-14.336c6.144-4.096 16.384-4.096 30.72-4.096v-12.288h-147.456v12.288c14.336 0 24.576 2.048 30.72 4.096 4.096 2.048 8.192 8.192 12.288 14.336 2.048 6.144 4.096 18.432 4.096 38.912v118.784c0 32.768-2.048 55.296-2.048 63.488-2.048 6.144-4.096 12.288-8.192 14.336s-8.192 4.096-14.336 4.096c-6.144 0-14.336-2.048-22.528-4.096l-4.096 12.288 92.16 36.864h12.288zM505.856 693.76c10.24 0 16.384-4.096 24.576-10.24 6.144-6.144 10.24-14.336 10.24-24.576s-4.096-16.384-10.24-24.576-14.336-10.24-24.576-10.24c-10.24 0-16.384 4.096-24.576 10.24-6.144 6.144-10.24 14.336-10.24 24.576s4.096 16.384 10.24 24.576c8.192 8.192 16.384 10.24 24.576 10.24zM512-64c-282.624 0-512 229.376-512 512s229.376 512 512 512 512-229.376 512-512c0-282.624-229.376-512-512-512zM512 921.088c-262.144 0-473.088-210.944-473.088-473.088s210.944-473.088 473.088-473.088 473.088 210.944 473.088 473.088-210.944 473.088-473.088 473.088z" />
<glyph unicode="&#x6b;" glyph-name="Hertz_FIS_k_info_expand_large" d="M512-64c-282.624 0-512 229.376-512 512s229.376 512 512 512c282.624 0 512-229.376 512-512s-229.376-512-512-512zM512 921.088c-262.144 0-473.088-210.944-473.088-473.088s210.944-473.088 473.088-473.088c262.144 0 473.088 212.992 473.088 473.088s-210.944 473.088-473.088 473.088zM460.8 325.12v47.104c0 12.288 4.096 26.624 10.24 38.912 14.336 26.624 34.816 45.056 59.392 67.584 12.288 12.288 22.528 22.528 32.768 32.768 20.48 20.48 34.816 49.152 34.816 77.824 0 26.624-8.192 47.104-26.624 59.392s-43.008 20.48-71.68 20.48c-34.816 0-67.584-8.192-98.304-26.624v47.104c32.768 16.384 67.584 22.528 104.448 22.528 90.112 0 143.36-40.96 143.36-118.784 0-16.384-4.096-32.768-10.24-47.104-14.336-30.72-36.864-53.248-63.488-77.824l-34.816-34.816c-22.528-20.48-38.912-47.104-38.912-69.632v-38.912h-40.96zM450.56 196.096h61.44v67.584h-61.44v-67.584z" />
<glyph unicode="&#x6c;" glyph-name="Hertz_FIS_l_advisory_warning" d="M962.56-4.608h-901.12c-22.528 0-40.96 10.24-51.2 30.72-10.24 18.432-10.24 40.96 0 59.392l450.56 782.336c22.528 36.864 81.92 36.864 104.448 0l450.56-782.336c10.24-18.432 10.24-40.96 0-59.392s-30.72-30.72-53.248-30.72zM34.816 71.168l26.624-14.336h903.168l-452.608 780.288-450.56-780.288-26.624 14.336zM34.816 71.168v0 0zM493.568 259.584l-20.48 385.024h77.824l-20.48-385.024h-36.864zM479.232 124.416h65.536v77.824h-65.536v-77.824z" />
<glyph unicode="&#x6d;" glyph-name="Hertz_FIS_m_warning_error" d="M126.788 109.135l724.070 724.070 44.892-44.892-724.070-724.070-44.892 44.892zM512-64c-282.624 0-512 229.376-512 512s229.376 512 512 512 512-229.376 512-512-229.376-512-512-512zM512 896.512c-247.808 0-448.512-200.704-448.512-448.512s200.704-448.512 448.512-448.512 448.512 200.704 448.512 448.512-200.704 448.512-448.512 448.512z" />
<glyph unicode="&#x6e;" glyph-name="Hertz_FIS_n_afterhours" d="M524.288-64c-22.528 0-45.056 2.048-67.584 4.096-133.12 18.432-251.904 88.064-333.824 194.56-167.936 223.232-124.928 540.672 96.256 710.656 45.056 34.816 98.304 61.44 153.6 79.872l102.4 34.816-59.392-92.16c-98.304-151.552-90.112-350.208 18.432-491.52 108.544-143.36 294.912-202.752 466.944-147.456l104.448 32.768-59.392-92.16c-32.768-49.152-71.68-92.16-116.736-126.976-90.112-71.68-196.608-106.496-305.152-106.496zM299.008 806.4c-12.288-6.144-22.528-14.336-32.768-22.528-188.416-143.36-225.28-411.648-81.92-600.064 69.632-90.112 169.984-149.504 282.624-165.888s225.28 14.336 315.392 83.968c10.24 8.192 20.48 16.384 30.72 26.624-167.936-12.288-335.872 59.392-440.32 198.656-106.496 139.264-131.072 319.488-73.728 479.232z" />
<glyph unicode="&#x6f;" glyph-name="Hertz_FIS_o_location_rail" d="M999.424 370.176l-274.432 309.248c-65.536 73.728-157.696 114.688-256 114.688h-468.992v-585.728h927.744c38.912 0 71.68 22.528 88.064 57.344 14.336 34.816 10.24 75.776-16.384 104.448zM663.552 644.608l145.408-161.792h-268.288v161.792h122.88zM59.392 646.656h67.584v-163.84h-67.584v163.84zM253.952 482.816h-67.584v163.84h67.584v-163.84zM313.344 646.656h63.488v-163.84h-63.488v163.84zM960.512 290.304c-6.144-14.336-18.432-22.528-34.816-22.528h-866.304v155.648h376.832v282.624h-376.832v28.672h411.648c43.008 0 86.016-10.24 124.928-28.672h-112.64v-280.576h391.168l81.92-92.16c8.192-14.336 10.24-28.672 4.096-43.008zM0 161.28h935.936v-59.392h-935.936v59.392z" />
<glyph unicode="&#x70;" glyph-name="Hertz_FIS_p_location_current" d="M587.776-64l-122.88 462.848-464.896 124.928 1024 436.224-436.224-1024zM233.472 540.16l290.816-77.824 77.824-290.816 276.48 643.072-645.12-274.432z" />
<glyph unicode="&#x71;" glyph-name="Hertz_FIS_q_location_airport" d="M774.144-64c-20.48 0-40.96 12.288-49.152 32.768l-163.84 374.784-126.976-126.976-24.576-176.128c-2.048-22.528-20.48-38.912-43.008-40.96-20.48-2.048-43.008 12.288-49.152 34.816l-47.104 172.032-172.032 47.104c-22.528 6.144-36.864 26.624-34.816 49.152s18.432 40.96 40.96 43.008l174.080 22.528 126.976 126.976-374.784 163.84c-24.576 10.24-36.864 36.864-30.72 61.44 6.144 26.624 28.672 43.008 55.296 43.008l602.112-16.384 161.792 161.792c32.768 30.72 73.728 49.152 116.736 51.2h30.72c16.384 0 30.72-6.144 40.96-16.384s16.384-26.624 16.384-40.96v-30.72c-2.048-43.008-18.432-83.968-49.152-114.688l-161.792-161.792 16.384-602.112c0-26.624-16.384-49.152-43.008-55.296-4.096-2.048-8.192-2.048-12.288-2.048zM782.336-4.608v0 0zM579.584 454.144l184.32-417.792-16.384 585.728 180.224 180.224c18.432 18.432 28.672 43.008 30.72 69.632v22.528h-22.528c-26.624 0-51.2-12.288-69.632-30.72l-180.224-182.272-587.776 18.432 417.792-184.32-206.848-208.896-112.64-14.336 126.976-34.816 34.816-126.976 14.336 112.64 206.848 210.944z" />
<glyph unicode="&#x72;" glyph-name="Hertz_FIS_r_location_city" d="M0 960v-126.976h38.912v-886.784h450.56v251.904h43.008v-249.856h450.56v884.736h40.96v126.976h-1024zM917.504 15.872h-315.392v249.856h-180.224v-249.856h-315.392v829.44h808.96v-829.44zM815.104 624.128h-110.592v110.592h110.592v-110.592zM567.296 624.128h-110.592v110.592h110.592v-110.592zM317.44 624.128h-112.64v110.592h110.592v-110.592zM567.296 372.224h-110.592v110.592h110.592v-110.592zM815.104 372.224h-110.592v110.592h110.592v-110.592zM317.44 372.224h-112.64v110.592h110.592v-110.592zM815.104 120.32h-110.592v110.592h110.592v-110.592zM317.44 120.32h-112.64v110.592h110.592v-110.592z" />
<glyph unicode="&#x73;" glyph-name="Hertz_FIS_s_location_pin" d="M522.24-64l-286.72 503.808c-59.392 106.496-61.44 233.472-4.096 342.016 53.248 102.4 149.504 165.888 260.096 176.128 12.288 2.048 22.528 2.048 34.816 2.048 10.24 0 22.528 0 32.768-2.048v0c110.592-10.24 206.848-73.728 260.096-178.176 57.344-108.544 53.248-237.568-8.192-342.016l-288.768-501.76zM524.288 914.944c-10.24 0-18.432 0-28.672-2.048-96.256-8.192-178.176-63.488-225.28-153.6-49.152-96.256-49.152-206.848 4.096-301.056l247.808-434.176 249.856 434.176c53.248 92.16 55.296 204.8 6.144 301.056-45.056 90.112-126.976 145.408-223.232 153.6-10.24 2.048-20.48 2.048-30.72 2.048zM524.288 476.672c-81.92 0-149.504 67.584-149.504 151.552s67.584 151.552 149.504 151.552c81.92 0 149.504-67.584 149.504-151.552s-67.584-151.552-149.504-151.552zM524.288 734.72c-57.344 0-104.448-47.104-104.448-106.496s47.104-106.496 104.448-106.496c57.344 0 104.448 47.104 104.448 106.496 0 57.344-47.104 106.496-104.448 106.496z" />
<glyph unicode="&#x74;" glyph-name="Hertz_FIS_t_solid_airport" d="M573.44 394.752l194.56-444.416c10.24-24.576 47.104-16.384 47.104 10.24l-16.384 659.456 182.272 182.272c26.624 26.624 40.96 61.44 43.008 98.304v32.768c0 14.336-12.288 26.624-26.624 26.624h-32.768c-36.864-2.048-71.68-16.384-98.304-43.008l-184.32-182.272-657.408 18.432c-26.624 0-34.816-36.864-10.24-47.104l444.416-196.608-180.224-180.224-196.608-22.528c-18.432-2.048-18.432-26.624-2.048-30.72l202.752-55.296 55.296-202.752c4.096-16.384 28.672-14.336 30.72 2.048l24.576 196.608 180.224 178.176z" />
<glyph unicode="&#x75;" glyph-name="Hertz_FIS_u_solid_city" d="M0 960v-61.44h40.96v-950.272h409.6v268.288h118.784v-268.288h409.6v950.272h40.96v61.44h-1019.904zM303.104 97.792h-120.832v118.784h118.784v-118.784zM303.104 366.080h-120.832v118.784h118.784v-118.784zM303.104 636.416h-120.832v118.784h118.784v-118.784zM571.392 366.080h-118.784v118.784h118.784v-118.784zM571.392 636.416h-118.784v118.784h118.784v-118.784zM837.632 97.792h-118.784v118.784h118.784v-118.784zM837.632 366.080h-118.784v118.784h118.784v-118.784zM837.632 636.416h-118.784v118.784h118.784v-118.784z" />
<glyph unicode="&#x76;" glyph-name="Hertz_FIS_v_solid_rail" d="M0 138.752h933.888v-49.152h-933.888v49.152zM706.56 679.424l38.912-45.056 198.656-223.232 57.344-63.488c24.576-26.624 28.672-65.536 14.336-98.304-14.336-34.816-47.104-55.296-83.968-55.296h-931.84v581.632h468.992c90.112 0 174.080-34.816 237.568-96.256zM305.152 462.336h75.776v178.176h-75.776v-178.176zM546.816 462.336h288.768l-155.648 176.128h-133.12v-176.128zM178.176 462.336h79.872v178.176h-79.872v-178.176zM49.152 462.336h79.872v178.176h-79.872v-178.176z" />
<glyph unicode="&#x77;" glyph-name="Hertz_FIS_w_arrow_left" d="M710.656-64l-512 512 512 512 86.016-86.016-425.984-425.984 425.984-425.984z" />
<glyph unicode="&#x78;" glyph-name="Hertz_FIS_x_close" d="M1024 873.984l-86.016 86.016-425.984-425.984-425.984 425.984-86.016-86.016 425.984-425.984-425.984-425.984 86.016-86.016 425.984 425.984 425.984-425.984 86.016 86.016-425.984 425.984z" />
<glyph unicode="&#x79;" glyph-name="Hertz_FIS_y_arrow_right" d="M661.504 810.496l-30.72-30.72 317.44-315.392h-948.224v-43.008h935.936l-305.152-305.152 30.72-30.72 362.496 362.496z" />
<glyph unicode="&#x7a;" glyph-name="Hertz_FIS_z_accordian_expand" d="M1024 550.4h-409.6v409.6h-204.8v-409.6h-409.6v-204.8h409.6v-409.6h204.8v409.6h409.6z" />
<glyph unicode="&#xe900;" d="M1024 448c0-282.77-229.23-512-512-512s-512 229.23-512 512c0 282.77 229.23 512 512 512s512-229.23 512-512z" />
<glyph unicode="&#xe901;" d="M541.466 191.083h-104.998v243.689h-52.467v83.967h52.467v50.411c0 68.496 29.61 109.25 113.788 109.25h70.063v-83.998h-43.789c-32.77 0-34.935-11.734-34.935-33.633l-0.144-42.030h79.35l-9.287-83.967h-70.063v-243.689h0.016z" />
<glyph unicode="&#xe902;" d="M1024 448c0-282.77-229.23-512-512-512s-512 229.23-512 512c0 282.77 229.23 512 512 512s512-229.23 512-512z" />
<glyph unicode="&#xe903;" d="M462.736 215.18c-58.452 0-100.637 36.675-100.637 80.713 0 43.179 52.356 79.137 110.779 78.507 13.609-0.172 26.322-2.321 37.851-6.017 31.697-21.89 54.465-34.239 60.879-59.167 1.214-5.071 1.878-10.229 1.878-15.558 0-44.067-28.634-78.478-110.75-78.478zM478.079 473.508c-39.209 1.175-76.482 43.494-83.243 94.552s19.532 90.14 58.741 88.994c39.18-1.175 76.482-42.119 83.243-93.206 6.761-51.058-19.532-91.515-58.741-90.34zM559.357 397.895c-13.753 9.656-40.018 33.122-40.018 46.932 0 16.217 4.652 24.154 29.183 43.179 25.167 19.512 42.994 46.932 42.994 78.794 0 37.993-17.047 74.983-49.062 87.189h48.253l34.066 24.412h-152.213c-68.19 0-132.421-51.259-132.421-110.626 0-60.685 46.519-109.652 115.922-109.652 4.854 0 9.506 0.086 14.1 0.43-4.479-8.538-7.744-18.194-7.744-28.165 0-16.876 9.159-30.572 20.746-41.718-8.755 0-17.221-0.258-26.38-0.258-84.515 0-149.584-53.35-149.584-108.735 0-54.497 71.339-88.593 155.825-88.593 96.332 0 149.584 54.21 149.584 108.735 0 43.695-13.031 69.883-53.251 98.077zM780.8 469.067h-59.233v58.737h-47.704v-58.737h-59.233v-47.305h59.233v-58.737h47.704v58.737h59.233v47.305z" />
<glyph unicode="&#xe904;" d="M1024 448c0-282.77-229.23-512-512-512s-512 229.23-512 512c0 282.77 229.23 512 512 512s512-229.23 512-512z" />
<glyph unicode="&#xe905;" d="M660.367 678.4h-288.029c-50.020 0-90.737-40.048-90.737-89.306v-283.486c0-49.258 40.717-89.306 90.737-89.306h288.029c50.020 0 90.737 40.048 90.737 89.306v283.486c0 49.258-40.717 89.306-90.737 89.306v0zM686.398 625.121l10.379 0.054v-78.329l-79.336-0.245-0.276 78.329 69.233 0.19zM449.355 494.789c15.017 20.486 39.42 33.907 66.997 33.907s51.98-13.422 66.997-33.907c9.8-13.367 15.652-29.723 15.652-47.438 0-44.83-37.073-81.318-82.649-81.318-45.548 0-82.621 36.489-82.621 81.318 0 17.714 5.852 34.070 15.624 47.438v0zM705.363 305.608c0-24.425-20.179-44.286-44.996-44.286h-288.029c-24.817 0-44.996 19.861-44.996 44.286v189.181h70.116c-6.073-14.671-9.468-30.674-9.468-47.438 0-69.662 57.584-126.365 128.363-126.365 70.807 0 128.39 56.703 128.39 126.365 0 16.764-3.451 32.766-9.468 47.438h70.089v-189.181z" />
<glyph unicode="&#xe906;" d="M1024 448c0-282.77-229.23-512-512-512s-512 229.23-512 512c0 282.77 229.23 512 512 512s512-229.23 512-512z" />
<glyph unicode="&#xe907;" d="M721.993 560.62c21.155 13.14 37.388 33.974 45.006 58.794-19.807-12.197-41.695-21.017-65.048-25.793-18.635 20.683-45.27 33.579-74.747 33.579-56.551 0-102.377-47.601-102.377-106.303 0-8.334 0.85-16.455 2.608-24.211-85.090 4.441-160.54 46.719-211.084 111.078-8.82-15.755-13.859-34.005-13.859-53.471 0-36.864 18.079-69.409 45.563-88.51-16.789 0.547-32.583 5.384-46.413 13.292v-1.308c0-51.524 35.278-94.502 82.189-104.235-8.614-2.494-17.639-3.741-27.015-3.741-6.593 0-13.039 0.639-19.251 1.886 13.010-42.217 50.837-72.998 95.668-73.819-35.073-28.53-79.23-45.502-127.195-45.502-8.263 0-16.438 0.456-24.437 1.46 45.329-30.142 99.154-47.753 156.994-47.753 188.405 0 291.368 161.994 291.368 302.484 0 4.623-0.059 9.216-0.264 13.748 20.013 14.995 37.417 33.731 51.101 55.052-18.372-8.456-38.121-14.174-58.807-16.729z" />
<glyph unicode="&#xe908;" d="M1024 448c0-282.77-229.23-512-512-512s-512 229.23-512 512c0 282.77 229.23 512 512 512s512-229.23 512-512z" />
<glyph unicode="&#xe909;" d="M384.757 332.612l0.348 83.508 15.857 0.164 15.841 0.196-0.182 12.863-0.199 12.879-91.498 0.36v-26.101l15.476-0.196 15.476-0.164 0.182-82.821c0.083-45.542 0.315-83.214 0.497-83.688 0.249-0.671 3.463-0.835 14.084-0.687l13.769 0.18 0.348 83.508zM648.729 338.487c-0.646 1.669 0.249 20.963 1.11 23.761 2.005 6.579 6.263 9.786 12.974 9.786 5.584 0 9.13-2.127 11.516-6.906 1.508-3.027 1.657-4.32 1.889-15.514l0.232-12.192h-13.67c-11.748 0-13.703 0.147-14.051 1.064v0zM674.247 248.515c13.388 3.715 22.651 12.748 26.147 25.496 0.58 2.176 1.259 8.379 1.491 13.763l0.398 9.786h-25.799l-0.315-8.771c-0.365-9.966-1.408-13.386-5.087-16.577-3.91-3.387-11.102-3.633-15.774-0.524-5.567 3.715-6.943 9.982-6.661 30.34l0.199 14.433 53.388 0.36-0.348 21.47c-0.431 23.958-0.928 27.591-5.004 36.1-7.771 16.119-29.295 24.252-47.174 17.821-13.488-4.86-21.458-13.615-24.656-27.165-1.127-4.778-1.259-9.066-1.259-44.119 0-42.99 0.149-44.741 4.59-53.545 7.937-15.661 27.804-23.843 45.865-18.868v0zM568.548 272.996c1.64 1.096 2.717 2.618 3.562 4.991 1.077 3.126 1.176 7.102 1.027 43.971-0.149 38.424-0.232 40.682-1.491 43.202-3.231 6.431-11.367 7.053-18.823 1.424l-2.452-1.833v-87.648l2.436-1.833c5.518-4.157 11.566-5.024 15.741-2.275v0zM584.704 248.253c4.060 1.162 8.964 5.924 11.168 10.784 4.242 9.311 4.258 9.541 4.258 61.891 0 42.973-0.133 48.275-1.21 52.923-3.496 14.875-11.118 21.372-23.943 20.423-7.175-0.556-12.825-3.371-19.602-9.835-2.949-2.798-5.584-5.106-5.882-5.106-0.265 0-0.514 14.237-0.514 31.616v31.616h-25.053v-193.805h25.053v6.529c0 4.337 0.265 6.529 0.779 6.529 0.414 0 3.231-2.291 6.263-5.106 9.743-9.050 18.177-11.537 28.682-8.46v0zM451.367 248.891c5.004 1.833 10.886 5.858 15.841 10.833 2.27 2.291 4.54 4.157 5.037 4.157 0.663 0 0.895-1.866 0.895-7.56v-7.56h25.053v143.631h-25.053v-110.804l-5.402-5.286c-4.275-4.206-6.065-5.482-8.716-6.202-4.474-1.227-7.324-0.376-9.163 2.749-1.392 2.324-1.425 3.404-1.624 60.958l-0.182 58.585h-25.020v-62.202c0-67.765 0.066-69.238 3.91-75.768 4.209-7.135 14.051-9.377 24.424-5.531v0zM462.005 188.964c-16.271 0.278-35.526 0.72-42.8 0.982-48.831 1.735-82.352 3.584-89.046 4.926-9.544 1.898-20.215 8.28-26.412 15.792-9.909 12.028-15.211 26.625-17.779 49.094-5.949 52.236-5.816 113.161 0.365 163.563 2.717 22.092 9.461 38.047 20.778 49.175 6.462 6.366 12.676 9.901 20.944 11.995 17.928 4.533 158.208 8.133 243.542 6.268 49.295-1.080 102.55-3.338 116.701-4.926 18.31-2.062 31.168-11.422 40.066-29.178 6.727-13.403 8.865-23.843 11.599-56.016 2.137-25.463 2.668-41.337 2.27-70.744-0.447-35.184-2.717-66.178-6.114-83.574-3.579-18.394-12.030-34.071-22.982-42.564-8.434-6.562-17.431-9.491-31.598-10.277-4.209-0.245-9.528-0.573-11.831-0.753-8.152-0.622-51.863-2.356-75.84-3.027-35.625-0.982-97.96-1.326-131.862-0.736zM418.044 508.159c-0.597 0.966-0.497 57.505 0.099 65.507 0.779 10.261-0.978 18.345-8.434 38.997-2.419 6.693-6.794 19.687-9.71 28.851-21.093 66.26-19.983 62.382-17.962 62.398 13.902 0.115 31.052 0.033 31.251-0.164 0.133-0.131 4.64-16.299 10.025-35.953 5.402-19.637 9.892-35.986 10.008-36.346 0.099-0.327 3.264 11.112 7.026 25.43 7.871 30.045 12.295 46.622 12.46 46.77 0.348 0.327 4.258 0.393 17.067 0.327l14.167-0.082-0.315-2.242c-0.249-1.816-9.925-33.891-20.049-66.473-1.094-3.6-3.927-12.879-6.263-20.636-2.336-7.74-5.153-16.937-6.28-20.439l-2.038-6.382v-39.798c0-37.327-0.083-39.831-1.21-40.126-2.552-0.687-29.395-0.36-29.842 0.36zM601.139 505.77c-6.992 0.916-11.085 3.584-13.885 9.066-3.513 6.873-3.513 6.84-3.513 75.326v63.903h28.218l0.298-58.912c0.315-63.985 0.232-62.496 4.109-63.462 3.562-0.867 7.506 1.015 12.411 5.957l4.706 4.729 0.182 55.852 0.166 55.836 14.101 0.196 14.101 0.164v-146.282l-1.922-0.393c-2.303-0.475-23.678-0.442-25.401 0.049-1.044 0.278-1.21 1.227-1.21 6.955v6.644l-4.010-3.862c-9.213-8.853-19.155-12.977-28.351-11.766v0zM530.088 533.704c4.838 3.633 4.872 3.944 5.12 45.068 0.215 31.96 0.099 37.393-0.878 41.746-1.326 5.891-3.645 8.673-8.185 9.901-5.866 1.538-11.234-1.767-13.123-8.1-1.425-4.877-1.408-77.371 0.033-82.248 1.094-3.666 4.59-7.675 7.175-8.231 3.364-0.704 7.49 0.082 9.876 1.866h-0.017zM519.036 505.803c-12.626 1.506-24.225 8.837-29.809 18.852-5.683 10.195-6.214 15.53-5.882 60.434 0.265 34.775 0.365 36.951 1.756 41.942 3.331 11.864 9.776 19.948 19.768 24.841 13.72 6.693 28.517 5.826 41.457-2.455 8.252-5.253 13.256-12.879 15.94-24.219 1.176-5.008 1.292-8.853 1.292-43.971 0-42.711-0.199-45.182-4.64-54.428-4.258-8.919-13.902-16.774-23.96-19.539-4.441-1.195-12.146-1.915-15.924-1.456v0z" />
</font>
</defs>
</svg>
